<svg xmlns="http://www.w3.org/2000/svg" version="1.1" xmlns:xlink="http://www.w3.org/1999/xlink" xmlns:svgjs="http://svgjs.dev/svgjs" width="611.6" height="462"><svg id="SvgjsSvg1001" xmlns="http://www.w3.org/2000/svg" version="1.1" viewBox="0 0 611.6 462">
  <!-- Generator: Adobe Illustrator 29.0.1, SVG Export Plug-In . SVG Version: 2.1.0 Build 192)  -->
  <defs>
    <style>
      .st0 {
        fill: none;
        stroke: #432c1f;
        stroke-linejoin: round;
        stroke-width: 1.2px;
      }

      .st1 {
        fill: #aa8271;
      }

      .st2 {
        fill: #432c1f;
      }

      .st3 {
        fill: #684b3e;
      }

      .st4 {
        fill: #725749;
      }
    </style>
  </defs>
  <path class="st4" d="M185.8,315.5c.9-15.8,22.8-54.4,22.9-85.8s-.5-1.2-1.1-1.2c-69.7-5.6-148.3-42.5-148.3-130s0-5.9.2-8.8h-.2s0,213.6,0,213.6h.2c-2.1,44.4,19.9,87.2,53.2,117.6s5-3.3,4.9-4.4l-10.2-106.7c0-.8.6-1.4,1.4-1.3l75.8,8.1c.7,0,1.3-.5,1.4-1.2Z"></path>
  <path class="st2" d="M325.4,109.9L60.6,89.9c-.7,0-1.3.5-1.3,1.2,0,2.5-.1,5-.1,7.5,0,87.4,64.9,136.6,134.4,142.3,1.1,0,1.8-1.2,1.1-2-3.8-4.3-8,66.9-8.5,76.9s.5,1.2,1.1,1.3l363.9,38.7c.7,0,1.4-.5,1.4-1.2V125.9c0-.7-.5-1.2-1.2-1.2l-225.9-14.7ZM189.8,246.5c1,0,1.9,0,2.9,0-1,0-1.9,0-2.9,0ZM186.7,246.4c.7,0,1.5,0,2.2.1-.7,0-1.5,0-2.2-.1Z"></path>
  <path class="st2" d="M116.6,211.2c0-.6.4-1.2,1-1.3l8-1.4,167.3-28.7,258.5-44.4c.6-.1,1-.6,1-1.2v-8.1c0-.8-.7-1.4-1.5-1.2l-272.1,46.7-167.3,28.7-8,1.4c-.6.1-1.1.7-1,1.3l.2,5.2,9.7,212.8c0,.7.7,1.3,1.4,1.2l11.1-1.7c.6,0,1.1-.7,1.1-1.3l-9.3-202.8-.2-5.2Z"></path>
  <path class="st3" d="M551,135.5l-258.1,44.3-167.3,28.7-8,1.4c-.6.1-1.1.7-1,1.3l.2,5.2,1.3,27.9,7.5-1.3,167.3-28.7,258.1-44.3c.8-.1,1.5.5,1.5,1.2v-34.5c0-.8-.7-1.4-1.5-1.2Z"></path>
  <path class="st0" d="M119.2,266.7l-1-22.4h-.5c-.6.2-1.1.7-1,1.4l.2,5.2.7,16.1s0,0,0,0l1.5-.3Z"></path>
  <path class="st1" d="M551,170l-258.1,44.3-167.3,28.7-7.5,1.3,1,22.4,6.5-1.1,167.3-28.7,258.1-44.3c.8-.1,1.5.5,1.5,1.2v-22.6c0-.8-.7-1.4-1.5-1.2Z"></path>
  <path class="st0" d="M117.6,267c-.6.1-1,.7-1,1.3l.2,5.2,1.6,34.8,1-.2-1.9-41.1Z"></path>
  <path class="st0" d="M121,307.8l-1.9-41.1-1.5.3s0,0,0,0l1.9,41.1,1.6-.3Z"></path>
  <path class="st3" d="M551,192.6l-258.1,44.3-167.3,28.7-6.5,1.1,1.9,41.1,4.6-.8,167.3-28.7,258.1-44.3c.8-.1,1.5.5,1.5,1.2v-41.4c0-.8-.7-1.4-1.5-1.2Z"></path>
  <path class="st0" d="M119.5,330.7l-1-22.4h-.8c-.6.2-1.1.8-1,1.4l.2,5.2.7,16.1s0,0,0,0l1.8-.3Z"></path>
  <polygon class="st0" points="120.5 330.5 119.5 308.1 118.4 308.3 119.5 330.7 120.5 330.5"></polygon>
  <polygon class="st0" points="120.5 330.5 122.1 330.2 121 307.8 119.5 308.1 120.5 330.5"></polygon>
  <path class="st1" d="M551,234l-258.1,44.3-167.3,28.7-4.6.8,1,22.4,3.6-.6,167.3-28.7,258.1-44.3c.8-.1,1.5.5,1.5,1.2v-22.6c0-.8-.7-1.4-1.5-1.2Z"></path>
  <path class="st0" d="M117.6,331c-.6.1-1,.7-1,1.3l.2,5.2,1.4,30,1-.2-1.7-36.3Z"></path>
  <path class="st0" d="M121.1,366.9l-1.7-36.3-1.8.3s0,0,0,0l1.7,36.3,1.9-.3Z"></path>
  <polygon class="st0" points="120.5 330.5 119.5 330.7 121.1 366.9 122.1 366.8 120.5 330.5"></polygon>
  <polygon class="st0" points="122.1 366.8 123.7 366.5 122.1 330.2 120.5 330.5 122.1 366.8"></polygon>
  <path class="st3" d="M551,256.6l-258.1,44.3-167.3,28.7-3.6.6,1.7,36.3,1.9-.3,167.3-28.7,258.1-44.3c.8-.1,1.5.5,1.5,1.2v-36.6c0-.8-.7-1.4-1.5-1.2Z"></path>
  <path class="st0" d="M119.2,389.8l-1-22.4h-.6c-.6.2-1.1.8-1,1.4l.2,5.2.7,16.1s0,0,0,0l1.6-.3Z"></path>
  <polygon class="st0" points="120.3 389.6 119.2 367.3 118.2 367.4 119.2 389.8 120.3 389.6"></polygon>
  <polygon class="st0" points="119.2 367.3 120.3 389.6 122.1 389.3 121.1 366.9 119.2 367.3"></polygon>
  <polygon class="st0" points="121.1 366.9 122.1 389.3 123.2 389.1 122.1 366.8 121.1 366.9"></polygon>
  <polygon class="st0" points="123.2 389.1 124.7 388.9 123.7 366.5 122.1 366.8 123.2 389.1"></polygon>
  <path class="st1" d="M551,293.1l-258.1,44.3-167.3,28.7-1.9.3,1,22.4.9-.2,167.3-28.7,258.1-44.3c.8-.1,1.5.5,1.5,1.2v-22.6c0-.8-.7-1.4-1.5-1.2Z"></path>
  <path class="st3" d="M551,315.7l-258.1,44.3-167.3,28.7-.9.2,1.4,30.1c0,.7.7,1.3,1.4,1.2l250-37.8,173.9-26.3c.6,0,1.1-.6,1.1-1.2v-37.8c0-.8-.7-1.4-1.5-1.2Z"></path>
</svg><style>@media (prefers-color-scheme: light) { :root { filter: none; } }
@media (prefers-color-scheme: dark) { :root { filter: none; } }
</style></svg>