<?xml version="1.0" encoding="UTF-8"?>
<svg xmlns="http://www.w3.org/2000/svg" version="1.1" xmlns:xlink="http://www.w3.org/1999/xlink" viewBox="0 0 140 190">
  <defs>
    <style>
      .cls-1 {
        fill: #fff;
      }

      .cls-2, .cls-3 {
        fill: #9f0000;
      }

      .cls-3 {
        fill-rule: evenodd;
      }

      .cls-4 {
        fill: url(#linear-gradient);
      }
    </style>
    <linearGradient id="linear-gradient" x1="6" y1="136.4" x2="113" y2="70.8" gradientTransform="translate(0 192) scale(1 -1)" gradientUnits="userSpaceOnUse">
      <stop offset="0" stop-color="#ebf0d0"/>
      <stop offset="1" stop-color="#ffffeb"/>
    </linearGradient>
  </defs>
  <!-- Generator: Adobe Illustrator 28.7.2, SVG Export Plug-In . SVG Version: 1.2.0 Build 154)  -->
  <g>
    <g id="Layer_1">
      <path class="cls-1" d="M17,1h103c8.9,0,16,7.1,16,16v153c0,8.9-7.1,16-16,16H17c-8.9,0-16-7.1-16-16V17C1,8.1,8.1,1,17,1Z"/>
      <path class="cls-4" d="M18,2h103c8.9,0,16,7.1,16,16v153c0,8.9-7.1,16-16,16H18c-8.9,0-16-7.1-16-16V18C2,9.1,9.1,2,18,2Z"/>
      <path class="cls-3" d="M103.5,21c-.5,0-1,0-1.4.3-.9.4-1.7,1.1-2,2.2-.2.6-.1,1.4.2,2s.9,1.1,1.8,1.1c.5,0,.8-.2,1.2-.5.2-.2.3-.4.3-.7s-.2-.6-.5-.8l-.5.8c0,0,0,0,0,0s0,0,0,0c0,.1-.5.2-.4.2-.4,0-.7-.2-.8-.6s-.2-.9-.1-1.3c.2-.8.7-1.2,1.4-1.5s1.6-.3,2.2,0c2.1.8,2.8,3.4,1.9,5.4-.8,1.8-2.6,2.8-4.5,2.9l-62.8.4v1l62.6-.4h0c0,0,.1,0,.2,0h.3c2.2-.3,4.2-1.5,5.1-3.5,1.1-2.5.1-5.7-2.6-6.8-.5-.2-1-.3-1.5-.2ZM114.9,24c-.7,0-1.3.2-2,.4-2,.9-3.2,2.9-3.4,5.1h0v.3c0,0,0,.1,0,.2h0l.2,69.1h1l-.2-69.3c0-1.9,1.1-3.7,2.9-4.5,2-.9,4.6-.2,5.4,1.9.3.7.2,1.6,0,2.2s-.7,1.2-1.5,1.4c-.4.1-.9,0-1.3-.1s-.6-.4-.6-.8c0,0,.1-.3.2-.4,0,0,0,0,0,0s-.1,0,0,0l.8-.5c-.2-.3-.4-.5-.8-.5s-.6.2-.7.3c-.3.3-.5.7-.5,1.2,0,.8.5,1.4,1.1,1.8s1.4.4,2,.2c1.1-.3,1.8-1.1,2.2-2,.2-.5.3-.9.3-1.4s0-1-.2-1.5c-.8-2-2.8-3.1-4.8-3ZM29.3,90l.2,69.3c0,1.9-1.1,3.7-2.9,4.5-2,.9-4.6.2-5.4-1.9-.3-.7-.2-1.6,0-2.2s.7-1.2,1.5-1.4c.4-.1.9,0,1.3.1s.6.4.6.8c0,0-.1.3-.2.4,0,0,0,0,0,0s.1,0,0,0l-.8.5c.2.3.4.5.8.5s.6-.2.7-.3c.3-.3.5-.7.5-1.2,0-.8-.5-1.4-1.1-1.8s-1.4-.4-2-.2c-1.1.3-1.8,1.1-2.2,2s-.3.9-.3,1.4,0,1,.2,1.5c1,2.7,4.3,3.7,6.8,2.6,2-.9,3.2-2.9,3.4-5.1h0v-.3c0,0,0-.1,0-.2h0l-.2-69.1h-1ZM100.7,157.3l-62.6.4h0c0,0-.1,0-.2,0h-.3c-2.2.3-4.2,1.5-5.1,3.5-1.1,2.5-.1,5.7,2.6,6.8.5.2,1,.3,1.5.2s1,0,1.4-.3c.9-.4,1.7-1.1,2-2.2.2-.6.1-1.4-.2-2s-.9-1.1-1.8-1.1c-.5,0-.8.2-1.2.5-.2.2-.3.4-.3.7s.2.6.5.8l.5-.8c0,0,0,0,0,0s0,0,0,0c0-.1.5-.2.4-.2.4,0,.7.2.8.6s.2.9.1,1.3c-.2.8-.7,1.2-1.4,1.5s-1.6.3-2.2,0c-2.1-.8-2.8-3.4-1.9-5.4.8-1.8,2.6-2.8,4.5-2.9l62.8-.4v-1Z"/>
      <path d="M111.3,158.2c-.2-.1-.2-.9-.2-5.6,0-9.6.2-22.3.3-24.5,0-1.4,0-2.2,0-2.4,0-.1-.1-.2,0-.2s.1-.3,0-.7,0-.9.1-1.1.1-.5,0-.6c0,0-.1-4.4,0-9.2,0-.1,0-3.2,0-6.9s.1-6.7.2-6.8,0,13,0,29,0,29.1-.1,29.1-.2,0-.4-.2h0ZM29.2,157.8c-.1-.2-.2-.4-.1-.5,0-.1.1-2.8.2-6.1,0-6.6.2-10.5.3-10.7,0,0,0-.2,0-.2s0-.9,0-1.9c0-5.9.2-9.2.3-9.5,0-.2,0-.3,0-.3s-.1-.7-.1-1.6c.2-10.5.2-14.5.3-18,0-3.6,0-5.3,0-6.6,0-.1,0-2.1,0-4.5.1-5.3.2-9.8.3-18.2,0-3.6.1-6.6.2-6.7s0-.2,0-.2-.1,0,0-.1.1-2.7.2-5.9.1-7.4.2-9.4c0-3.3.2-10.8.3-21.6,0-2.7.1-4.2.2-4.3,0-.1.9-.2,1.7-.2s2.9,0,4.5-.1,6-.1,9.7-.1,6.8,0,6.8-.1.2,0,.4,0,2.6.1,5.4,0c5.1,0,5.2,0,5.4-.4.3-.4.5-.4.6,0,0,.3.4.3,7.6.3,8.3,0,9.7,0,15.3,0,2.1,0,4.3,0,4.9,0s1.9,0,3.1,0,2.2,0,2.3,0c.2,0,3.2,0,5.4,0,.7,0,2.4,0,3.7,0s2.5,0,2.6,0c.1,0,.1,2.9,0,9.9,0,9.3-.2,31-.2,31.4,0,.1,0,.3,0,.4,0,.6-.2,17.5-.2,25,0,4.8,0,8.9,0,9,0,.1,0,1.1,0,2.2s0,6.1,0,11.1-.1,14-.2,20.1c-.1,19.4,0,17.9-.4,18.1-.2.2-7.5.2-40.2.2s-40,0-40.2-.3h0ZM31.5,157.4c.5,0,1.3-1,1.9-2.2.3-.7.7-1.3.7-1.3s.1,0,.1-.2.3-.5.6-.9.7-1,.9-1.3.4-.7.5-.8.2-.3.2-.4.1-.2.2-.4c.4-.5,3.1-4.5,5-7.8.1-.2.3-.4.4-.6.6-.6,1-2,.6-2-3.2,0-3.6,0-3.7.2-.8,1.7-1.7,3-2.8,3.5-.9.5-2.7.9-3.5.8-.6-.1-1.5-.5-1.5-.8s-.2-.2-.4-.3-.4-.3-.4-.4,0-.3-.2-.3c-.3,0-.4,2.3-.5,9.1,0,6.4-.1,6.1,1.7,5.9h0ZM35.1,156.9c.2-.2.4-.4.4-.5,0,0,1-1.6,1.9-2.8.2-.3.4-.6.4-.7s.3-.5.5-.9c.2-.4.4-.8.4-.8s.1-.2.2-.4c.3-.3,1.7-2.3,1.7-2.5s0-.2.1-.2.2-.2.4-.5.5-.7.8-1.1.7-.9.8-1.2.8-1.2,1.3-2,1-1.6,1-1.6.1-.2.3-.4c.3-.2,1.1-1.7,1-1.9,0,0-.5-.1-.9-.1-.9,0-1.4.3-1.9,1.2-.1.3-.4.6-.6.8s-.5.7-.7,1.1c-.3.6-1.6,2.7-2.1,3.2,0,0-.3.4-.4.7s-.3.5-.4.6c-.2.2-.9,1.3-.9,1.4s-.2.5-.6.9-.6.9-.6.9-.1.3-.3.5c-.6.7-1.3,1.7-1.9,2.7-1,1.8-1.9,3.2-2.2,3.4,0,0-.1.1,0,.2.8.5,1.6.5,2.2-.1h0ZM73.3,157.4c.4,0,.9,0,1,0s.7,0,1.2,0,1,0,1.2,0,.4,0,.6,0,.5,0,.5,0,.8,0,1.8,0c2.5,0,8.8,0,10,0,.6,0,1.1,0,1.1-.1s.2,0,.4,0,2.2.1,4.4.1c3.6,0,4,0,4.3-.3.3-.3.3-.3-.8-1.4-.6-.6-1.2-1.1-1.3-1.1s-.2,0-.1-.2c0-.2-1-1.4-2.8-3.1-.5-.5-.9-.9-.9-1s-.1-.2-.3-.3-.3-.2-.3-.3-.3-.5-.6-.8-1.1-1-1.6-1.6-1.1-1.1-1.3-1.1-.4-.3-.4-.4-.2-.3-.3-.3-.3,0-.3-.1-.4-.5-.8-.9-.8-.9-.8-1-.1-.2-.2-.2-.2,0-.2-.2-.2-.4-.5-.6-.7-.5-.7-.7-.2-.2-.3-.2-.3-.1-.3-.3-.2-.3-.3-.3-.3-.1-.3-.2-.3-.4-.6-.7-.7-.6-.9-.9-.4-.5-.5-.6-.3-.3-.5-.5c-.4-.4-1.6-.4-5.1,0-2.2.2-2.8.4-3.1.7-.1.2-.3.4-.4.6s-.3.4-.3.6-.2.5-.4.7-.5.6-.7,1-.6.9-.8,1.1-.5.7-.8,1.2c-1.1,1.6-2.7,4.1-2.8,4.3-.4.6-1.9,2.8-2,2.9-.2.2-1,1.4-1,1.5s-.1.2-.3.4c-.5.5-.7.8-.7.9,0,.2-1.3,2.1-1.4,2.2,0,0-.1.2-.1.3s0,.4-.2.5-.1.3,0,.3,2.5.1,5.4.1,5.3,0,5.3.1.1,0,.3,0,.6,0,1.1,0h0ZM109,157c.2-.3.3-2.3.3-4.8,0-1.1,0-5.6,0-10,0-7,0-7.9-.1-7.9-.1,0-.4.3-.6.6-.3.6-1.6,1.7-2.2,2-.4.2-1,.4-2.1.6-.6.1-2,0-2.1,0,0,0-.3-.2-.7-.4s-.7-.4-.9-.5-.4-.3-.4-.3-.5-.3-.9-.7l-.7-.7-.8.3c-1.3.5-1.4.6-1.6.5,0,0-.2,0-.3.1-.2.1-.6.3-1.6.4-.3,0-.6.1-.9.2-.7.3-2.9.5-4.9.5h-2s0,.4,0,.4c0,.4,2,2.5,2.2,2.5s.3.2.4.4.4.5.5.6c.9.8,1.5,1.5,1.5,1.6s.1.1.3.1.3,0,.3.2.4.6.8,1c.5.6.8.9.7,1.1,0,.2,0,.2.1.2.1,0,.4,0,.5.3s1,1,1.8,1.9,1.4,1.6,1.4,1.7.2.3.5.4.6.4.7.6.3.4.4.4c0,0,.3.2.6.5s.6.7.7.9.4.5.4.5,0,.1.2.1.4.3.7.6.6.6.7.6.1,0,0,0c-.1.1.9,1.2,1.1,1.2s.2.1.2.2.2.4.4.5.7.5.9.8c.4.5.6.5,1.7.6,1.3,0,2.3,0,2.5-.3h0ZM44.4,157.1c.2-.2-.3-.3-1.8-.4-.9,0-2.7,0-3.9,0-1.6,0-2.3,0-2.5.2-.1.1-.2.3-.2.4,0,.2,8.2,0,8.4,0h0ZM47.4,157.1c.2-.1,1.6-2.1,1.6-2.2s0-.2.2-.2.2-.2.3-.4.6-1,1.1-1.7c1.4-1.9,2.1-2.9,2.1-3.1,0,0,.1-.3.3-.5s.3-.4.2-.4,0-.2.2-.2.3-.3.4-.6.4-.8.7-1.2.5-.8.5-.9.1-.3.3-.4.3-.3.3-.5,0-.2.1-.2.4-.5.8-1,.8-1.2,1-1.3.3-.5.4-.7.3-.5.6-.8c.5-.6,1-1.5.8-1.7-.1-.2-1.4,0-1.8.3-.2.2-.7.8-1.1,1.5s-.9,1.4-1.1,1.5-.4.5-.5.8-.5.8-.8,1.2-.5.7-.5.8-.2.4-.4.6-.6.8-.8,1.2-.6,1.1-.9,1.5-.5.8-.5.9-.2.3-.4.5-.5.7-.7,1-.6.9-.9,1.2-.5.6-.5.7c0,.2-1.6,2.6-2.1,3.2-.3.3-.5.7-.5.8,0,.4,1.3.5,1.7.2h0ZM56.9,157.2c.5,0,.6-.3,0-.3-.2,0-2.1,0-4.3-.1-3.4,0-3.9,0-3.9.1s.3.3,1.3.3c1.2,0,5.8,0,6.8,0ZM103.8,157c0-.2-.2-.5-.6-.8-.4-.3-.7-.7-.7-.8s0-.2-.2-.2-.4-.3-.8-.7-.6-.6-.6-.5-.1,0-.2-.3-.3-.5-.4-.5-.2-.2-.4-.5-.4-.5-.4-.5-.3-.2-.5-.4l-.6-.6c-.1-.1-.3-.3-.5-.5s-.3-.3-.3-.4c0-.2-.6-.8-.8-.8s-.2,0-.2-.2c0-.2-.8-1-.9-.9,0,0-.3-.1-.4-.4-.4-.6-.6-.9-.8-.9s-.2,0-.2-.2c0-.2-2.1-2.4-2.8-2.9-.3-.2-.5-.4-.5-.5,0-.2-.9-1.1-1.1-1.1s-.1,0,0-.1c0-.2-.5-.7-.7-.7s-.2-.1-.2-.2-.2-.4-.4-.5-.4-.4-.4-.5,0-.2-.2-.2c-.2,0-.7-.4-1-.8-.6-.7-2.2-2.5-2.3-2.4,0,0-.4,0-.7.1s-.8.1-1.1.2c-.4.1-.4.1-.2.6.1.3.3.4.4.4s.2,0,.2.3c0,.3.2.4.6.4,0,0,.1,0,.1.2,0,.2,2.5,2.8,2.7,2.8s.2.1.2.3c0,.2.2.3.3.2.1,0,.2,0,.2.2,0,.2.4.5.7.5,0,0,0,0,0,.2,0,.2,0,.3.3.4.2.1.4.3.5.5s.2.3.2.3c.2,0,4.7,4.7,4.7,4.9s0,.2,0,.1.8.6,1.6,1.5,1.5,1.6,1.6,1.6.2,0,.2.2c0,.2,1.1,1.3,1.3,1.3s.3.3.6.7.5.6.5.6.4.4.8.9l.7,1h1.2c.9,0,1.2-.1,1.2-.3h0ZM60.2,156.8c.1-.2.5-.8.8-1.2,1.3-1.7,1.8-2.4,1.8-2.6,0-.1.4-.6.7-1.2s.7-1.1.7-1.1.3-.5.7-1c.9-1.1,1.5-2,1.5-2.2,0,0,.2-.4.5-.8s.6-.8.7-1,.4-.6.6-.9.7-1,1-1.5.7-.9.7-.9.2-.3.4-.6c.3-.6.5-.9.9-1.4.2-.1.3-.4.3-.5s.2-.4.4-.7c.5-.7.5-.9-.2-.9-1.1,0-1.4,0-1.7.5-.2.2-.5.6-.7.9s-.4.5-.4.6-.4.7-.8,1.3c-.7,1-1.3,1.9-1.9,2.9,0,.1-.3.4-.4.5-.3.3-.5.6-.7,1-.8,1.2-1.2,1.8-1.8,2.7-.4.6-.8,1-.8,1.1,0,.1-1,1.9-1.6,2.7-.3.5-.6.9-.6.9s-.5.8-1,1.7-1,1.7-1,1.7.4.1.8.2c.7,0,.8,0,1-.3h0ZM44.2,156.2c1.1,0,1.3,0,1.3-.4s0-.3-.4-.3c-.2,0-.7,0-1.1,0-1.4,0-6.8,0-7,.1,0,0,0,.2,0,.3,0,.1.3.2.7.2,1.4-.1,4.3,0,4.5.2,0,0,.2,0,.4,0s.9,0,1.6-.1h0ZM58.3,156c.1-.2,0-.2-.3-.3-.5-.1-7.4,0-8.5,0-.1,0-.2,0-.2.2,0,.2.7.3,5.1.3,2.9,0,3.8,0,3.9-.2h0ZM52.3,155c.4,0,1.2,0,1.9,0,1.6,0,3.8,0,4.3,0,.5,0,.6-.5.1-.7-.7-.2-7.6-.1-8.1,0-.6.2-.5.6,0,.6.3,0,.5.1.6.2s.1.1.2,0,.5-.1.8-.1h0ZM46.3,154.7c.2-.1.3-.3.3-.4,0,0-2.4-.3-3.1-.2-.1,0-1.4,0-2.9,0h-2.7s-.3.4-.3.4c-.2.3-.2.4,0,.5,0,0,2,0,4.3,0,3.6,0,4.2,0,4.5-.3ZM46.3,153.4c.3-.1.7-.2.8-.2s.2,0,.3-.2c0-.3,0-.3-5.3-.4-2.9,0-3.1,0-3.3.3,0,.2-.1.3,0,.4s1.1.1,2.4.2,2.3,0,2.3,0c.1.1,2.5,0,2.9-.2h0ZM60,153.1c0-.2.2-.4.2-.4s-2,0-4.3,0c-3.7,0-4.4,0-4.5.2-.3.5.5.6,4.6.6h3.9s.2-.4.2-.4h0ZM47.6,152c0,0,0-.1.2,0s.3,0,.4,0c.2-.1.2-.2,0-.4-.1-.2-.5-.3-1.2-.3-1.9,0-7,.1-7.2.2-.3.2-.2.6,0,.6.2,0,.8,0,1.4,0,1.8.2,6.4.1,6.4,0h0ZM60,152c0,0,.1,0,.2,0,.4.1.7,0,.7-.4s-.2-.3-4.4-.3c-4.1,0-4.4,0-4.5.3,0,.2,0,.3,0,.4s.9,0,2,0,1.9,0,1.9,0c0,.2,4,.1,4,0h0ZM48.4,150.6c.5,0,.6,0,.6-.3s-.1-.3-2.5-.3c-1.4,0-3.2,0-4.1,0-1.2,0-1.7,0-1.9.2-.6.5.1.6,3.7.5,1.9,0,3.8,0,4.1,0h0ZM61.3,150.5c.2,0,.4-.1.5-.3.2-.2.1-.2,0-.4-.3-.2-8.4,0-8.6.2-.3.3.1.5,1.1.5,1.1,0,6.7,0,7,0h0ZM49.9,149c0-.1-1.4-.2-4.1-.2-3.6,0-4.7,0-4.5.3,0,0,1.9.1,4.1.2s4,.1,4.1.2c.1.1.5-.3.5-.5h0ZM61.3,149.1c.9,0,1.2,0,1.4-.3.3-.3.3-.3-.3-.5-.3,0-1-.1-1.5,0s-2.2.1-3.8.1c-2.3,0-3,.1-3.1.3,0,.1,0,.3,0,.4.1.2.8.2,3.2.1,1.7,0,3.5,0,4.1,0h0ZM50.8,147.7c0-.3-.1-.3-4.1-.3-3.6,0-4.1,0-4.4.3-.4.4-.2.6.7.5,2.2,0,6.7,0,6.7.2s.3,0,.6-.1c.4-.2.5-.4.5-.6h0ZM56.8,147.8c.3,0,2.6,0,5.6-.2.9,0,1.4-.3,1.3-.6,0-.2-2.1-.3-4.4,0-.6,0-1.7,0-2.4,0s-1.3,0-1.5,0c-.3,0-.6.3-.5.6,0,.2.7.4,1.2.3.2,0,.5,0,.6,0h0ZM45.5,146.8c1.1,0,2.1,0,2.3,0h.5c.1,0,.8,0,1.5,0s1.5,0,1.7-.1c.5-.2,1.3-1.6,1-1.8-.2-.1-2.8-.2-4.3-.2-.2,0-1.1,0-2,0-1.2,0-1.7,0-1.9.2-.6.4-.1.6,2,.5,1.2,0,2.2,0,2.3.1s.2,0,.2,0,.7-.2,1.6-.2c1.5,0,1.6,0,1.5.2,0,.3-.3.3-2.3.3-4.7,0-6.2.2-6.4.3-.2.2,0,.6.2.5,0,0,1,0,2.2,0h0ZM61.8,146c1.2,0,2.4-.2,2.6-.3l.4-.2h-.5c-.3-.2-1-.3-1.7-.2s-2.4.1-3.9.2-2.7.2-2.8.2,0,.2,0,.3c0,.1.6.2,1.9.1l4-.2h0ZM63.9,144.8c1,0,1.3-.1,1.5-.3.3-.5.2-.6-1-.6-3.1.1-6.5.3-6.7.3-.1,0-.4,0-.5,0-.2,0-.3.1-.3.3,0,.3,0,.3,2.9.2,1.6,0,3.5-.1,4.2-.1h0ZM47.8,144.3c.7,0,1.5,0,1.7,0s1.1,0,2-.1c1.7,0,2.1-.2,2.2-.6.2-.5.4-.5-4.6-.3-3,0-3.8.2-4,.4-.2.2-.2.3,0,.4.1,0,.4.1.7.1s.5,0,.5.1c0,.1.1.1.2,0s.6-.1,1.3,0h0ZM60,143.4c.1,0,.2,0,.3,0,0,.2.9.2.9,0s.7-.1,1.5-.1c2.9,0,3.5,0,3.8-.3.2-.1.3-.3.2-.3-.1-.1-2.2-.1-4.5,0-1,0-2.3.1-2.8,0-1,0-1.6.2-1.6.5s.2.2,1.1.2c.6,0,1.1-.1,1.3-.1h0ZM48.7,142.9c1.3,0,2.7,0,3.1,0,1.8,0,2,0,2.4-.3.2-.2.4-.4.4-.5s-.9-.1-2-.2h-2.2c0,0-.7,0-1.4,0-.7,0-1.3,0-1.5,0-.2,0-.5,0-1,.1-.7.2-.8.3-.8.7s0,.5.3.4c.2,0,1.3-.2,2.6-.2h0ZM34.3,141.7c0-.2.2-.5.2-.6s.2-.6.4-1c.2-.7.2-.9,0-.9s-.4.7-.7,1.6c-.3.9-.6,1.7-.7,1.8s-.1.2-.1.3c0,.3.8-.8.9-1.2h0ZM33,142.1c.2-.4.4-1,.6-1.3.4-.7.6-1.5.5-1.7-.1-.2-.7.2-.7.5s0,.5-.2.8-.3.9-.5,1.3-.3.8-.3.9,0,.2.1.2.3-.3.5-.7h0ZM35.2,141.7c-.1-.1-.4.2-.4.4s0,.2.2,0c.1-.2.2-.3.2-.4h0ZM64.8,142.1c.6,0,1.1,0,1.1.1s0,.1.1,0,.4-.1.7-.2c1-.2,1-.9,0-.8-.5,0-.7,0-.7-.2,0-.3.3-.4,1.2-.4.8,0,1.2-.2.9-.5-.2-.2-.3-.2-5.5,0-2.7,0-3.4.3-2.8.7.2.1.7.2,1.9.1.9,0,1.8,0,2.2,0,.3.1.6.1.6,0s.3-.2.7-.2.7,0,.7.2-.3.2-1.2.2c-.6,0-1.2,0-1.3-.2,0-.1-.1,0-.2,0,0,.1-.6.2-1.4.3-2.5,0-3.1.2-3.1.8,0,.1,1.2,0,6.3-.1h0ZM32.2,141.2c.2-.5.4-1.2.6-1.5.2-.4.2-.5,0-.6-.1,0-.3.2-.4.5-.1.3-.3.9-.5,1.3-.3.7-.4,1.2-.2,1.2s.3-.4.4-.9ZM36.4,141.6c0-.3.6-1.1.8-1,0,0,0,.2,0,.4-.2.4-.1.6.2.2.1-.1.1-.3,0-.3s0-.1.2-.2c.4-.3.8-1.2.4-1.2s-.2,0-.1.2c0,.1,0,.2,0,.2s-.2.1-.2.3-.1.2-.3.2c-.2,0-.2-.2-.2-.3.1-.5,0-.7,0-.8-.2,0-.8,1.2-.8,1.7s0,.4-.2.4-.1,0,0,.2c.1.2.4.2.4,0h0ZM35.7,140.7c.5-1.1.5-1.3.2-1.3s-.3.2-.5,1c-.1.5-.3,1-.3,1.1,0,.3.3-.2.6-.8h0ZM53.7,141.3c.9,0,1.4-.2,1.6-.3.1-.1.2-.2.1-.3s-1.9,0-4.2,0c-4.2,0-4.6,0-4.6.5s.1.2.3.3c.4,0,5.4,0,6.9-.1h0ZM31.7,139.4c0,0-.2-.2-.3-.2s-.1,0,0,.1,0,.3-.1.6-.2.7-.2.9c0,.4,0,.3.4-.4.2-.5.3-.9.3-1ZM30.6,139.9c.3-.6.3-1,0-.6-.2.4-.5,1.1-.4,1.1s.2-.2.3-.5h0ZM52.1,140c1.3,0,2.6,0,3,0,.7,0,1.3-.3,1.3-.7s-1.2-.1-2.8,0c-4.4.1-6,.2-6,.5,0,.2,1.8.4,2.1.3,0,0,1.2,0,2.4,0h0ZM64.9,139.4c.8-.1.9,0,1.1.1,0,.2.1.2.2,0,0-.1.4-.2,1.3-.2,1.1,0,1.3,0,1.6-.3.4-.4.2-.8-.2-.7-.2,0-1,.1-1.8.2s-1.8.1-2.3.2c-.5,0-1.5.1-2.2.1-.8,0-1.5.1-1.7.3l-.4.2h.5c.5.2,2.7.1,4.1,0h0ZM44.7,138.7c.1.1.2.1.2,0s1-.2,3-.2c3.8,0,5.7,0,6-.2.1,0,.2,0,.3,0,.1.2,6.2,0,8.5-.1,1,0,2.3-.2,3.1-.3,2.3-.2,2.5-.2,4.7-.4,3-.3,3.6-.3,5.7-.4,1,0,2.5-.2,3.1-.3s1.7-.2,2.1-.2c1,0,1.2-.2,1.3-1.5,0-.8-.3-1.8-.4-1.3-.1.4-.3,1.6-.3,1.7,0,.2-.3.4-.5.4,0,0,0-.5,0-1.1.1-1.2,0-2.3-.3-2.2-.1,0-.2.6-.3,1.3-.1,1.2-.5,2.1-.7,1.9,0,0,0-.4,0-.9.2-1.1.2-3.5,0-3.5s-.3.7-.4,1.6c-.3,1.9-.4,2-.7,2s-.2,0-.2-.1c0-.2.3-2.3.3-2.8,0-.8-.2-1.8-.3-1.8s-.5,2.3-.4,2.5-.4,1.7-.7,2c-.2.2-.2.2-.2-.2.3-1.5.3-2.5.3-4,0-.7-.3-.4-.5.6-.1.5-.3,1-.3,1.1s-.1.3,0,.4c0,.3-.2.8-.3.6,0,0,0-.6,0-1.3.2-1.8.3-3.4,0-3.4,0,0-.3.6-.5,1.4s-.4,1.5-.4,1.5-.1-.7,0-1.8c.1-1.9.1-2.5,0-2.7,0,0-.1,0-.5,1.7-.2,1.2-.6,1.8-.7,1.5,0,0,0-1.2.2-2.6.2-2,.2-2.5,0-2.7s-.2,0-.3.7c-.2,1.3-.4,2.3-.6,2.2,0,0,0,0,0,.2,0,.3-.2.5-.3.3,0,0,0-.9.1-1.8.3-2.5.4-3.7.2-3.7s-.2.3-.2.6c-.2,1.4-.3,1.6-.5,2.2-.1.3-.2.6-.1.7s0,.1-.2.1-.2-.1-.2-.5c.2-1.5.4-3.6.4-4,0-.5,0-.5-.3.2-.5,1.5-.7,1.9-.9,1.9s-.2-.4,0-1.1c.2-.7.6-3.2.6-3.5s0-.2-.1-.2c-.1,0-.5,1.1-.7,1.8,0,.2-.2.6-.3.7s-.2.3-.2.4,0,.2-.1.2c-.1,0,0-.9.4-2.3.3-1.2.5-2.5.5-2.8,0-.2,0-.3,0-.3s.1,0,.1-.2-.1-.1-.2,0-.2.2-.2.4c0,.3-.4,1-.6,1s0-1.2.2-1.8c.2-.6.3-2.3.1-2.3s-.2,0-.1.2,0,.3,0,.5-.2.7-.4,1.3-.4,1.2-.6,1.4c-.2.3-.2.3-.1-.2,0-.3.1-.6.1-.8s0-.3,0-.4c0,0,0-.2.2-1.1,0-.5.2-.9.2-1,.1-.2.2-1.1.1-1.1s-.2.4-.3.9c-.4,1.2-1.1,2.7-1.2,2.4,0-.2,0-.4.1-.6s.2-.5.2-.8,0-.6.2-.7.2-.8.2-1.4c0-.8,0-1,0-.7,0,.3-.2.6-.3.7s-.1.3,0,.3,0,.2,0,.3-.2.3-.2.4,0,.2-.1.2c-.1,0,0-1.2.2-2.8,0-.3,0-.4,0-.3s-.1.3-.2.3-.1.1-.1.2-.1.2-.3.2-.3,0-.2-.3c0-.2.1-.9.2-1.6,0-1.1,0-1.3-.1-1.3s-.2.1-.2.4,0,.4.2.3c.1,0,.1,0,0,.2,0,.2-.2.7-.3,1.1,0,.6-.2.7-.3.6-.1-.1-.2-.9-.2-2.3,0-2.9-.3-5.9-.5-5.9s-.2,1.8,0,1.9c0,0,.1.5,0,1s0,1,0,1.1c0,.2,0,.3,0,.4,0,0-.1.3,0,.5,0,.5-.2,1.3-.5,1.1,0,0-.1-.5,0-1s0-.9,0-.9,0-.3,0-.6,0-1-.1-1.4c-.2-.8-.3-2.2-.3-3.1,0-.2-.1-.5-.3-.5s-.2,0-.2,0,.1,1,.2,2,.1,2.6.2,3.5c0,1.3,0,1.6-.2,1.8-.2.2-.3.2-.3-.3,0-.9-.2-3-.3-3.9,0-.5-.2-1.3-.2-1.6-.2-1.6-.2-2.2-.4-2.4,0-.1-.2-.3-.2-.5s0,0,0,.5,0,.8.1.8,0,0,.1.2,0,.5.1.9c.3,2,.2,3.5-.2,3.2,0,0-.2-.4-.2-.7s-.1-1.3-.3-2.2-.4-1.8-.4-2-.1-.5-.2-.7,0-.3,0-.4c0-.2-.3-.5-.4-.3,0,0,0,.6.2,1.3s.3,1.3.3,1.5.1.6.2,1c.2.8.1,1.1-.3,1-.2,0-.3-.2-.4-1.1-.1-.9-.5-2.2-.6-2.3-.1-.1-.4-1.5-.3-1.9,0-.2,0-.3-.4-.3h-.4l.3.6c.2.3.3,1.1.4,1.7s.1,1.5.2,1.9c0,.5,0,.9,0,1,0,0-.2,0-.2-.1s0-.3-.1-.3-.1-.4-.2-.9-.1-1-.2-1.1-.2-.4-.2-.6,0-.5-.2-.6,0-.2,0-.2,0-.2-.2-.4c-.2-.2-.2-.3,0-.2.2.1.2,0,0,0,0-.1-.2-.4-.2-.6,0-.4-.3-.9-.5-.9s-.1.1-.1.3,0,.3.1.2.1,0,.1.2,0,.7.2,1.2c.2,1,.4,2.3.4,3,0,.2,0,.4-.2.5-.2,0-.5-1.2-.5-1.9s0-.2-.2-.2-.1,0-.1.1c0,.2-.2.9-.3.9s-.2-.4-.4-.9-.3-1.1-.4-1.3-.3-.9-.5-1.5-.4-1.2-.5-1.2c-.3,0-.2.5,0,1.4.2.5.4,1.3.5,1.7,0,.7,0,.7-.1.5-.1-.1-.3-.4-.3-.5s-.2-.3-.3-.5-.2-.2,0-.1,0-.2-.1-.6-.3-.7-.4-.7,0,.4,0,.9c0,.9,0,1.2-.3,1,0,0-.1-.2-.1-.3s-.1-.3-.2-.5-.2-.4-.3-.6c-.2-.6-.3-.4-.3.2,0,.4,0,.6-.1.6s-.2-.1-.2-.2,0-.2-.2-.2-.3-.3-.5-.6c-.3-.6-.3-.6-.4.5,0,.7-.3.9-.4.4,0-.2-.2-.6-.4-.9s-.3-.5-.3-.6-.1-.2-.3-.4q-.3-.3-.3.1c0,.5.4.9.6.8,0,0,.2,0,.2.1s0,.3-.2.3c-.2,0-.1.1,0,.2.1,0,.2.3.1.5,0,.3-.1.2-.4-.2-.2-.3-.3-.6-.3-.7s-.1-.3-.2-.4-.2-.3-.2-.5,0-.3-.2-.3-.2-.1-.2-.2,0-.2-.1-.2c-.2,0-.1.6.2,1.2.2.5.3,1.1.2,1.1-.2,0-.7-.7-.6-.8,0,0,0-.2-.2-.4s-.4-.6-.6-1-.5-.8-.6-.8-.2-.1-.1-.2c0-.1,0-.3-.2-.4-.3-.2-.3-.2-.2.2,0,.3,0,.4,0,.4s-.2,0-.2.2.1.2.3.2.3.1.3.2,0,.2.1.2c.1,0,.5.8.5,1s-.2,0-.4,0-.4-.3-.4-.5-.2-.4-.3-.6-.4-.5-.5-.7-.3-.4-.4-.4c-.3-.1,0,.6.3,1,.4.4.3.8,0,.9-.2,0-.3,0-.3-.4s0-.5-.4-.4c-.3,0-.3,0-.1,0,.1-.1.2-.2,0-.3-.3-.2-.5,0-.5.5s-.1.4-.4.5c-.2.1-.7,1-1.6,2.9-1.5,3.2-2.4,5.2-2.4,5.4s-.1.3-.3.4-.3.4-.3.6,0,.3-.1.4-.3.5-.4,1-.5,1.4-.8,2.2-.5,1.4-.5,1.5,0,.1,0,.1-.3.4-.4.9-.4,1.1-.6,1.5-.3.8-.3.9,0,.4-.2.4-.5,1-.8,2-.7,2.2-.8,2.5l-.6,1.5c-.2.5-.5,1.4-.6,1.8s-.3.9-.3,1-.2.4-.2.8-.3,1-.5,1.5-.4,1-.5,1.3c0,.6-.2,1.4-.3,1.7,0,.1,0,.3,0,.4s0,.2-.1.3-.2.3-.2.6,0,.5-.1.6-.3.8-.5,1.5-.4,1.7-.6,2.2c-.4,1.4-.6,2.6-.4,2.8.2.2,1.6.3,6.3.4,2.4,0,4.5,0,4.6.2s.2,0,.3,0c.1-.1.2-.1.4,0h0ZM35.7,136.2c0-.1-.2-.2-.3-.1-.2,0-.2,0-.1-.3,0-.3,0-.4,0-.4-.4,0-.1-.8.5-1.5l.6-.7v1.5c0,.8,0,1.5,0,1.5s.1,0,.1.2c0,.3-.6.2-.7,0h0ZM38.1,136.1c0-.1,0-.4-.2-.6-.2-.3-.1-.4,0-.6.1-.2.3-.4.3-.5s.1-.3.3-.5.3-.4.3-.6c0-.2.6-1,.6-.8,0,0,0,.5,0,1.1.2,2.6.2,2.8-.4,2.5-.2-.1-.4-.1-.7,0-.3.1-.4.1-.4,0h0ZM55,136.2c0-.1-.1-.2-.3-.2s-.3,0-.3.2c0,.2-.5.2-.5,0,0,0,0-.2-.1-.3-.1-.2-.2-.2-.5,0-.2.1-.4.2-.4.1,0,0,.2-.7.4-.9,0,0,.3-.5.5-1s.5-.9.5-.9.2,0,.4.2c.2.1.3.3.3.8s0,.7.2.7c.2,0,.2.6.1,1.5,0,.3-.3.3-.3,0h0ZM42.1,135.9c0-.3-.2-.4-.4-.4s-.3-.1-.3-.4c0-.2,0-.4,0-.4.1,0,.4-.7,1-2.1.2-.6.4-.2.5,1.1.1,1.6.2,2.1.5,2.1s.2,0,.2.2-.1.1-.3.1c-.2,0-.3-.1-.3-.3,0-.5-.2-.5-.6,0l-.3.5v-.4q-.1,0-.1,0ZM46.9,136c-.4-.2-.5-.2-.8,0-.3.2-.4.2-.5,0,0-.2-.2-.2-.3-.2s-.2,0-.3,0c0,0,0-.5.4-1,.3-.5.7-1.1.8-1.4.3-.9.7-.7.9.5,0,.4.2,1,.3,1.4.2,1,.2,1.1-.4.7h0ZM49.8,135.9c-.1-.3-.3-.4-.5-.4s-.3,0-.3-.1.3-.7.6-1.3c.6-1.2.9-1.5.9-.9s0,.6.2.9c.5,1.3.6,1.6.3,1.6-.2,0-.2,0,0,.2.2.1.2.2-.2.2-.2,0-.5,0-.6.2-.1.1-.2,0-.3-.2h0ZM57.9,135.6c0-.4-.5-.7-.5-.3s-.1.2-.2.2c-.3,0-.2-.5.3-1.3.2-.3.5-.9.6-1.3s.4-.7.5-.8c.2,0,.2,0,.2.8,0,0,.1.6.3,1.2.3,1,.3,1.2,0,1.4-.1.1-.3.2-.4.1s-.2,0-.2.1c-.2.5-.5.4-.6,0h0ZM59.2,135.6c0,0,0-.2,0-.2s.1,0,.2.2,0,.2,0,.2-.2,0-.2-.2ZM61.6,135.4c0-.2-.2-.3-.4-.2-.2,0-.3,0-.3,0,0-.2.4-1.4.5-1.5,0,0,.1-.3.1-.6s.1-.6.3-.8l.3-.4.2,1.2c.1.7.2,1.3.3,1.5s.1.4.1.7c0,.4,0,.4-.5.4-.4,0-.5,0-.6-.3h0ZM68.1,135.4c-.1-.2-.3-.3-.6-.2-.5,0-.5,0-.1-.5.2-.2.5-.8.7-1.3.5-1.4.6-1.5.9-.9.1.3.2.7.2.9s.1.5.2.7c.2.2.2.3,0,.7-.2.2-.3.3-.3.2s-.2,0-.4.3c-.3.4-.4.4-.5.1h0ZM64.5,135.2c0-.4-.2-.4-.5-.1-.2.2-.2.1,0-.3,0-.3.2-.5.2-.6.2-.2.5-.8.5-1.2s.1-.6.3-.9l.3-.5.3.5c.2.3.3.8.3,1.1,0,.3,0,.9.2,1.3.2.6.2.8,0,.9s-.2.2-.3,0c0-.1-.2-.2-.3,0-.4.3-.6.2-.7-.1h0ZM69.3,135.1c0-.2,0-.3.2-.3.2,0,.2.4,0,.6,0,0-.2,0-.2-.2ZM70.9,135c0,0,.5-1.3.8-1.9,0-.2.1-.4.1-.6s.1-.4.2-.5c.2-.2.2-.1.3.3,0,.3.2.6.3.7.1.1.2.4.3.6s.2.4.3.4,0,.3-.4.6c-.6.6-.9.7-.9.3s-.1-.3-.5,0c-.3.3-.6.3-.6.1h0ZM38.2,129.5c0,0,0-.2,0-.4,0-.1-.2-.2-.3-.2-.2,0-.4,0-.4-.2s-.2-.2-.3-.1c-.5.2-.3-.3.5-1.4.5-.6.9-1.2.9-1.2s.1-.1.2-.2c.2,0,.2.1.2,1.4,0,.8,0,1.7,0,2,0,.3,0,.5-.2.5s-.2,0-.3-.1h0ZM41.9,129.3c-.1-.1-.2-.4-.2-.6,0-.5-.3-.6-.5-.2-.2.4-.6.7-.8.4,0-.1-.2-.1-.5,0-.5.2-.5,0,.1-1,.3-.5.5-1,.6-1.1,0-.3,1.1-1.4,1.2-1.2,0,0,.1.6.2,1,.1,1.4.2,1.5.4,2,.3.7,0,1-.4.6h0ZM45.7,129.2c0-.4-.1-.5-.6-.3-.3.2-.4.1-.5,0,0-.1-.2-.2-.4-.1-.2,0-.4,0-.4,0s0-.2.1-.2c.2,0,1-1.6,1.1-2.1,0-.4.3-.7.6-.5.2,0,.3.4.3,1.1,0,1.3,0,1.4.2,1.6,0,.2-.1.9-.3.9s0-.1,0-.3h0ZM49.8,128.8c0-.6-.3-.7-.6-.1-.2.5-.7.6-.5,0,0-.4-.2-.5-.5-.2,0,0-.2,0-.4,0-.2-.1-.1-.3.2-.7.2-.3.6-.9.8-1.2s.4-.8.5-.9c.3-.4.7-.4.6,0,0,.2,0,.9.1,1.7.2,1.2.2,1.4,0,1.6-.2.2-.2.2-.2-.3h0ZM56.9,129c0,0,0-.2,0-.4-.1-.2-.2-.3-.5-.1-.4.2-1.1.2-1.1,0,0-.4,1.4-3.7,1.6-3.7.1,0,.2,0,.1.1,0,0,0,.2,0,.3s.1.2,0,.3,0,.4.1.5c.2.2.2.2,0,.2s0,0,0,.2c.2.1.2.2.1.2-.2,0-.2.3,0,1.8.1.7,0,.7-.3.7s-.3,0-.3-.1h0ZM60,128.6c0-.3,0-.7-.2-.9-.1-.2,0-.5.4-1.4.3-.6.6-1.2.7-1.2.2,0,.3,1.2.2,2.9,0,.2,0,.4.1.4s.2.1.2.3c0,.4-.4.5-.5.1,0-.2-.1-.1-.3,0-.4.5-.6.3-.6-.3h0ZM52.2,128.8c0-.1-.1-.3,0-.4,0-.1,0-.2-.2-.1-.5.1-.4-.2.4-1.4.4-.6.7-1.2.7-1.3s0-.2.2-.2c.2,0,.4.9.5,1.9,0,.4,0,.8.2,1.1.1.3,0,.4,0,.5-.1,0-.2,0-.3-.2-.1-.4-.4-.4-.6,0-.2.4-.3.4-.6.1h0ZM68.8,128.7c0,0-.1-.2-.1-.4,0-.4-.2-.4-.6,0l-.3.4v-.5c0-.3-.2-.5-.4-.5s-.3,0-.2-.4c0-.2.2-.9.4-1.4s.3-1.2.4-1.3.1-.2.2-.2.1,0,0,.2,0,.2,0,.3.2.3.2.6.1.6.2.7,0,.3,0,.4,0,.4.2.7c.3.6.4,1.4.1,1.5,0,0-.2,0-.3,0ZM70.2,128.5c0-.2-.1-.4,0-.5s0-.2,0-.2-.2,0-.3.2-.2.1-.3,0c-.2,0-.2-.2,0-.5.1-.2.2-.6.2-.7s0-.3.1-.4.2-.4.3-.7.2-.6.3-.6c.2,0,.7,1,.8,1.5,0,.2.1.4.2.4.2.1.2.2-.2.6-.2.2-.5.6-.5.8-.1.5-.3.5-.5,0h0ZM71.4,128.5c0,0,0-.3,0-.5.1-.4.1-.4.2,0,0,.4,0,.7-.3.5h0ZM63.9,128.4c0,0,0-.2,0-.3,0-.2,0-.3-.2-.3-.2,0-.3-.1-.3-.2,0-.2.7-1.6.8-1.7,0,0,.1-.2.1-.3,0-.3.4-.3.6,0,0,.2.2.7.2,1.2s.2,1.1.2,1.3c0,.3,0,.4-.2.4s-.3,0-.3-.2c0-.1-.1-.1-.4,0-.2.1-.4.1-.4,0h0ZM48.7,121.8c.1-.3.3-.7.5-.9s.2-.5.2-.7,0-.3.2-.3.2-.1.2-.2c0-.4.7-1.7.9-1.7s.2.3.2.9c0,1.6.2,2.6.4,3,.1.2,0,.5-.3.4-.1,0-.2-.2-.2-.4,0-.4-.4-.4-.6,0-.1.3-.2.3-.4.1-.2-.2-.3-.1-.6.2-.5.5-.6.4-.3-.2h0ZM53,121.8c-.3-.3-.3-.3-.4,0,0,.2-.2.3-.3.3-.2,0-.2-.6,0-.8.3-.2.8-1.2,1.1-2.2.2-.7.3-.8.5-.7.3.2.4.7.4,2.2,0,.8,0,1-.2.9-.1,0-.4,0-.5.3-.3.3-.3.3-.6,0h0ZM55.6,122.1c0,0,.3-.6.6-1.2s.7-1.3.7-1.5c.2-.7.5-1.1.8-1,.1,0,.2.1.2.2s0,.1,0,.2c0,.2,0,2.1,0,2.4,0,.3-.2.3-.3.2-.1-.1-.3,0-.4,0-.1.1-.3.2-.5.2-.2,0-.3,0-.5.2-.2.3-.6.5-.6.2ZM59.3,121.9c0,0,0-.5.3-.9s.5-1.2.6-1.6c.3-1,.8-1.2.9-.4,0,1,.1,1.6.3,1.7,0,0,.1.3.1.5s-.1.4-.4.5c-1.2.3-1.6.4-1.7.2h0ZM66.6,121.9c0,0,0-.4.2-.7s.3-.7.3-.8.1-.4.2-.7.2-.6.2-.8c0-.4.3-.5.5-.3.1.1.3.6.4,1.1.2.8.2.9,0,1.1-.1.1-.2.2,0,.2s.2,0,.3-.2c.1-.2.5.2.6.6,0,.2,0,.3-.2.4-.2,0-.2,0-.1-.3,0-.3,0-.4-.3-.3-.2,0-.5.2-.6.4-.2.3-.7.2-.7-.2s0-.2-.3,0c-.4.4-.4.4-.5.3ZM42.9,121.6c0-.2,0-.3-.2-.3s-.3,0-.3.2-.1.2-.2.2c-.2,0-.2,0,0-.5,0-.3.2-.5.3-.5s.4-.6.7-1.3.6-1.3.7-1.3c.1,0,.5,2.4.5,3.3s-.2.8-.5.4c-.2-.2-.2-.2-.5,0-.4.4-.6.3-.5,0h0ZM47.4,121.6c0-.4-.3-.4-.8,0-.3.2-.4.2-.3,0,0-.5,0-.6-.5-.3-.6.3-.6.1,0-.7.3-.4.6-1,.7-1.3.3-.7.6-.8.8-.4,0,.1.2.4.3.6.1.2.1.4,0,.5,0,0,0,.3,0,.7.2.6,0,1.4-.2,1.4s-.2-.1-.2-.3h0ZM64.6,121.7c0,0,0-.2-.1-.1s-.4,0-.8,0h-.7s.3-.8.3-.8c.5-1.3.6-1.4.8-2l.2-.6.3.9c.3,1,.4,2.8.1,2.8s-.2,0-.2-.2h0ZM40.7,121.4c0-.3-.7-.5-.7-.2s-.1.2-.2.2-.2-.1-.2-.2-.1-.3-.2-.4c-.2-.2-.1-.3.3-.9.3-.4.5-.8.5-.9,0-.3.7-1.1.9-1.1s.2.3.1,1.4c0,.7,0,1.6,0,2,0,.7-.3.8-.4.3h0ZM63,115.2c0-.7-.2-.8-.5-.4-.2.3-.3.3-.6.2-.4-.1-.4-.3,0-1.6q.8-2,.8-1.1c0,.4.1.8.2.8s.1.1.1.3,0,.4.2.4c.2.1.1,1.6-.1,1.7-.1,0-.2-.1-.2-.4h0ZM66.7,115.3c0,0-.1-.3-.1-.5,0-.5.2-.3.3.2,0,.4,0,.5-.2.3h0ZM59.4,114.9c-.2-.5-.3-.5-.6-.3-.2.1-.3,0-.4-.1-.2-.3-.2-.2-.5.1-.7.8-.5,0,.2-1.1.1-.2.3-.6.4-.9s.2-.4.2-.4.1,0,.1-.2.1-.4.3-.5c.3-.3.3-.3.3,0,0,1.9,0,2.3.2,2.5.2.3.2,1,0,1.2,0,0-.2,0-.3-.3h0ZM65.1,115c0-.2-.2-.3-.3-.4-.1,0,0-.3,0-.6.1-.3.2-.7.3-1s.2-.7.3-.8c.2-.2.2-.2.3,0,.1.3.2.6.5,1.4.2.6.2.5-.2.9-.6.6-.9.7-1,.4h0ZM42.4,114.6c0-.6,0-.7-.3-.4,0,.1-.3.2-.4.1-.1,0,0-.3.4-.7.3-.3.6-.6.6-.7,0-.1,1.1-1.6,1.3-1.8.2,0,.2,0,.1.3,0,.2,0,.8-.1,1.2-.1,1.5-.2,2.2-.4,2.3,0,.1-.2,0-.3-.2,0-.3-.4-.5-.4-.2s-.2.2-.3.3c-.3.2-.3.2-.3-.4h0ZM50.5,114.8c0-.2,0-.5,0-.6-.1-.3-.2-.3-.3,0-.1.3-.5.4-.5,0s.2-.6.5-.9.6-.8.6-.9c0-.3.6-.9.8-.8,0,0,.2.7.2,1.3s.1,1.4.1,1.7c0,.4,0,.5-.2.5-.1,0-.2-.2-.2-.3,0-.4-.4-.3-.5,0,0,.2-.2.3-.3.3s-.2-.1-.1-.3h0ZM55.5,114.9c-.2-.2-.3-.2-.4,0-.2.2-.3.1-.4,0,0-.1-.1-.2-.1,0s0,0-.2,0-.3-.1-.4,0c-.3.1-.3,0,.2-.9.2-.4.5-1.1.7-1.4.4-.8.6-.9.7-.2,0,.2.1.7.2.9s0,.9,0,1.4c0,.8-.1.9-.3.6ZM47.2,114.5c-.1-.2-.2-.3-.2-.3s0-.1,0-.2-.1,0-.3.3c-.2.3-.4.4-.7.3-.2,0-.4-.1-.5-.1-.2,0-.1-.3.3-.9.2-.3.5-.7.6-.8s.2-.2.2-.3.1-.4.3-.7c.5-.9.7-.6.7,1.3,0,.9,0,1.7-.1,1.7s-.2,0-.3-.2h0ZM62.2,108.1c0-.3-.1-.4-.4-.3-.4,0-.5-.3-.2-1.3,0-.3.1-.6.1-.7,0-.1.5-.6.7-.6,0,0,.1.1.1.2s0,.2.1.2c.2,0,.6,1.2.6,1.8s0,.4.2.4c.1,0,.2,0,.2.3s0,.3-.3.3c-.2,0-.3,0-.2-.2s0-.1,0-.1-.2,0-.3.2c-.2.3-.5.2-.6-.2h0ZM58.6,107.3c-.1-.2-.1-.3,0-.3.2-.2,0-.4-.2-.3-.3.1-.3-.3.2-1.4.2-.5.4-1.1.4-1.2,0-.9.6-.2.7.9,0,.4.1,1,.2,1.4.1.8,0,.8-.6,1-.3,0-.5,0-.6,0ZM47,105.8c0-1,0-1.1-.3-.9-.2.1-.5.3-.6.4s-.3.2-.4.1c0-.1.3-.7,1.1-1.6.2-.2.5-.6.7-.9.7-1,.9-1.2,1.1-1.2.3,0,.2,4.2-.2,4.6-.2.2-.2.2-.2-.2,0-.6-.3-.5-.6,0-.1.3-.3.5-.4.6-.2,0-.2,0-.2-1h0ZM54.9,106.7c-.2-.5.2-2.1.6-2.9.6-1.2.8-1.2.8-.1,0,.5,0,1.4,0,2,0,.7,0,1.1,0,1,0,0-.1,0-.1,0s0,.1-.2,0-.1-.2,0-.3,0-.2-.2-.2-.3.1-.3.2c-.1.3-.5.3-.6,0h0ZM51.6,106.6c0,0-.1-.2-.1-.4s-.1-.3-.3-.4-.3-.2-.3-.2c0-.3,1.4-2.8,1.5-2.8s.2.5.3,1.1.1,1.4.2,1.7c0,.5,0,.6-.2.5-.1,0-.4,0-.5.2-.3.4-.4.4-.5.2h0ZM32.2,137.6c.3-.6.1-1.3-.4-1.4-.2,0-.4-.2-.4-.3,0-.2-.9-.7-1.2-.6-.2,0-.3,2-.1,2.4.1.2.4.3.8.4.9,0,1,0,1.2-.5h0ZM103.5,135.5c-.2-.4-.4-.9-.4-1s-.1-.2-.2-.2c-.2,0-.3,0-.3-.3,0-.2-.1-.4-.3-.4-.2,0-.2.1,0,.7.1.4.4,1,.5,1.3s.3.7.4.9c0,.3.1.3.4,0s.2-.3-.1-1.1h0ZM105,136c0-.3,0-.6-.1-.7s-.1-.2,0-.2,0-.2,0-.2-.2-.1-.2-.3-.2-.5-.4-.8-.4-.7-.6-.9-.3-.5-.4-.5c-.3,0-.2.8.2,1.4.2.3.3.7.3.7,0,.3,1,2.2,1.1,2.1,0,0,.2-.3.2-.7h0ZM87.3,136.2c0-.1,0-.3,0-.5s-.2-.8-.2-1.3-.2-.9-.2-.9-.1-.2-.1-.4-.1-.7-.3-1.1-.3-.9-.3-1.1-.1-.5-.2-.6-.1-.3,0-.3,0-.4-.1-.7-.2-.6-.2-.7c.2-.2-.1-.8-.4-.8s-.2,0,0-.2c0-.1.1-.3,0-.3s-.1-.2-.1-.3,0-.2,0-.2,0-.2,0-.4c-.2-1.2-.8-3.9-.9-4.1-.1-.4-.3-.9-.4-2.1,0-.4-.2-1-.2-1.2s-.2-.7-.2-1-.1-.5-.2-.5-.1-.2,0-.5c0-.3,0-.4-.1-.3-.1,0-.2,0-.2-.5,0-1-.2-2.1-.3-2.3,0,0-.1-.6-.2-1.1s-.1-1.1-.2-1.3c-.1-.4-.4-1.7-.5-2.7,0-.3-.1-.7-.2-.9s0-.5,0-.6,0-.4-.1-.7-.2-.7-.2-.9-.2-.7-.3-1.2-.2-1.1-.2-1.6-.1-1.2-.2-1.6-.2-1.1-.3-1.5-.2-.8-.3-.9-.2-.7-.3-1.4-.2-1.2-.3-1.3-.1-.2,0-.3,0-.2,0-.3-.1-.4-.2-.8-.1-.8-.2-1-.1-.4,0-.6,0-.3-.1-.3c-.2,0-.2-.1,0-.3.1-.2.1-.3,0-.4,0-.1-.2-.7-.3-1.2-.3-1.9-1-3.6-1.7-4.3-.1-.1-.3-.5-.3-.7,0-.3-.2-.5-.4-.5-.2,0-.3-.2-.3-.4,0-.3,0-.3-1.1-.2-.6,0-2.2,0-3.6,0-2,0-2.5,0-2.8.2-.2.1-.3.3-.3.5s-.1.3-.3.3c-.3,0-1.3,1-2.2,1.9-.3.3-1,1-1.5,1.6-.7.7-1,1.2-.9,1.2.1,0,0,.2-.2.5-1,1.2-2.4,1.6-4.9,1.6-1.4,0-1.8,0-2.5.3-.7.3-.8.4-.6.6.2.2.3.2.7,0,.4-.2.4-.2.5,0,.2.4,2.6.4,3.3,0,1.2-.7,1.7-.9,1.7-.7,0,.3-.7,1.1-.9,1.1s-.2.1-.2.2,0,.2-.2.2c-.2,0-.7.6-.7.9s1.2.8,2,1.1c.8.3,2.2.9,2.3,1,0,0,.4.3.9.5,1,.5,1.8,1.1,3.1,2.4.6.6,1.1,1,1.2,1s0,0,0,.2,0,.2,0,.2.2.2.3.4c0,.2.2.4.3.4s.1,0,0,.2,0,.3.2.4c.3.2,1.2,1.6,1,1.6s0,.1.2.3c.3.3,1.5,4.1,1.5,4.7s0,.6.2.9c.4.9.5,1.5.8,2.6.3,1.1.3,1.3,1,3.7.2.8.5,1.8.6,2.1.2,1,1,3.3,1.1,3.4,0,0,.1.3.2.4s.1.4.2.5.1.2.1.4.1.4.2.5.2.2.2.3c0,.2.2.9.4,1.1,0,0,.2.2.2.3,0,.3,1.3,2.2,1.6,2.4.2.1.3.2.3.3,0,.2,1.1,1.5,1.3,1.5s.2.1.2.3.1.3.3.4c.3.1,1.8,1.6,1.8,1.9s0,.2.2.2c.3,0,2.8,2.8,2.8,3.1s.1.4.3.5c.3.2,1.6,0,1.8-.2h0ZM83.6,135.4v-.6s-.2.5-.2.5c-.2.6-.2,1.3,0,.8,0-.1.1-.5.1-.8ZM102.3,136c0-.2-.1-.5-.2-.5s-.2-.3-.3-.6c-.1-.6-.7-1.1-.7-.6s.1.6.3,1,.3.8.4,1c.1.5.6.4.5-.2ZM90.2,135.9c.2-.3.8-.3.8,0s1.8.2,2.2,0c.2,0,.4-.2.5-.2.2,0,.3-.3.3-.7s0-.7-.2-.8-.2-.3-.2-.6,0-.6-.2-.8-.3-.6-.3-.9-.3-1.1-.6-1.8-.5-1.5-.6-1.9-.2-.7-.2-.8-.1-.2-.1-.3,0-.1,0-.2,0-.3-.1-.7-.1-.7-.2-.8-.2-.6-.3-1.2-.2-1.1-.3-1.2,0-.3,0-.4,0-.2-.1-.3-.1-.2,0-.3c0,0-.3-1.9-.9-4.4-.3-1.2-.6-2.4-.6-2.7s0-.6-.2-.6-.1-.3,0-.6,0-.6,0-.6c-.1,0-.3-.7-.4-2,0-.3-.1-.6-.2-.6-.1,0-.2-.5-.4-2.1,0-.4-.1-.9-.2-1s-.1-.4-.1-.6c0-.6-.2-1.7-.4-3.1,0-.6-.2-1.3-.2-1.4s0-.3-.1-.4-.1-.2,0-.3,0-.6-.1-1.1c-.2-.8-.2-1.3-.3-2.3,0-.2,0-.3-.2-.2-.1,0-.2,0,0-.2,0-.2,0-.3,0-.3s-.5-.4-1-.9-1.1-1.1-1.4-1.3-.8-.7-1.1-1-.7-.6-.8-.6-.2,0-.2-.1c0-.2-.7-.9-1.1-1.1-.1,0-.2-.2-.2-.3s0-.2-.1-.2-.4-.3-.5-.6c-.4-.7-.5-.7-.5,0,0,.5.2.7.7,1.2.4.4.7.7.7.7s.4.5.9,1.1.9,1.1,1,1.1.3.4.7.7.7.7.7.8c0,.3-.3.3-.4,0,0-.1-.3-.2-.5-.2s-.5-.2-.7-.4c-.2-.2-.4-.4-.5-.4s-.2-.2-.2-.3c0-.4-.4-.6-.7-.3-.2.2,0,.3.4.2,0,0,0,.1,0,.3,0,.2,0,.4.3.5.2.1.5.4.6.6s.4.5.6.6.4.3.4.4c0,.3-.7.2-1.3-.3-.2-.2-.4-.3-.4-.2,0,.2.4.7.6.7s.2,0,.2.2c0,.2,1.2,1.5,1.4,1.5s.5.7.4.9c0,0-.1,0-.2-.2,0-.2-.2-.3-.4-.3-.1,0-.2,0-.2-.1s-.3-.4-.6-.5-.6-.4-.6-.5c0-.2-1.1-1-1.4-1-.2,0,.6,1,.9,1s.2,0,.2.2c0,.2,1.4,1.7,1.6,1.7s1.7,1.6,1.5,1.7c-.2,0-1.2-.5-1.4-.8,0-.1-.2-.2-.3-.2s-.3-.1-.3-.3-.2-.2-.3-.1-.3,0-.4-.2c-.2-.4-.8-.5-.9-.2,0,0,0,.2.2.2s.3,0,.3.2c0,.1.5.6,1,1.1s1,1,1,1.1,0,.2.2.1.2,0,.2.2.1.3.4.3.4,0,.4,0,0,.2,0,.3c.1.3-.4.3-.6,0,0-.1-.2-.2-.4-.2s-.2,0-.2-.2-.1-.2-.2-.2-.2,0-.2-.2c0-.2-1.3-1.2-1.6-1.2s-.2.5.1.7c.2.1.3.3.3.4s0,.2.2.2.6.4,1,.8.9.8,1,.8.2,0,.2.2,0,.2.2.2c.1,0,.2.1.2.3,0,.4-.6.4-.8,0,0-.1-.2-.2-.3-.2s-.3,0-.3-.2c0-.2-.1-.2-.3,0-.2.2-.2.2,0,.2s.3.2.3.4.2.4.4.4.3.2.4.4.3.4.4.4.3,0,.4.2c.2.2,0,.9-.1.7,0,0-.1-.2,0-.2s0-.2-.2-.3-.3-.1-.3,0,0,0-.1,0-.3-.3-.4-.4-.3-.3-.3-.4,0-.1-.2,0-.2,0-.2,0c0-.3-.8-.7-1-.6s0,.4.7,1.1c.5.5,1.1,1.1,1.3,1.4s.5.6.7.6c.4,0,1.3,1.1,1.1,1.3-.2.1-1-.6-1-.9s-.1-.2-.3-.2-.4-.1-.6-.3-.3-.3-.4-.3-.2-.1-.5-.3c-.4-.4-.8-.5-.8-.3s2.3,2.7,2.4,2.7c.2,0,.6.6.5.8,0,0,0,.2.3.2s.4.2.4.3c0,.4-.1.4-.7-.2-.3-.3-.5-.4-.6-.4s-.2,0-.3-.2-.3-.3-.4-.3-.4-.2-.5-.5c-.2-.3-.4-.5-.6-.4-.2,0-.2.2.1.6.2.3.4.5.5.5s.2.2.3.4.2.4.2.4c.2,0,1.5,1.5,1.6,1.8,0,.2-.2.1-.9-.4-.5-.4-1-.7-1.1-.6s-.2,0-.2-.1-.1-.2-.1,0c0,.2,1,1.2,1.2,1.1,0,0,0,0,0,.1s0,.2.1.3c.2,0,1,.9,1.5,1.4.2.2.2.3,0,.3s-.3,0-.3-.2-.2-.2-.4-.2-.5,0-.5-.2-.3-.3-.6-.4c-.4-.2-.5-.2-.5,0s.1.2.2.2.2,0,.2.2c0,.3.5.8.7.7,0,0,.2,0,.2.2s.2.3.2.3.5.3.9.7.8.7.8.7.4.2.6.5.7.5.8.5.3,0,.2.2c-.1.2-.8.2-1.1,0-.5-.5-.9-.8-1-.8s-.2-.1-.3-.2-.3-.2-.5-.2-.4-.2-.4-.4c0-.2-.3-.4-.4-.4s-.3-.1-.4-.3c-.2-.4-.8-.6-.8-.3,0,.1,0,.3.1.5.1.4,3.7,3.7,3.9,3.7.1,0,.2.1.2.2s.1.2.2.2c.3,0,.5.3.3.5-.1.1-.2.1-.2-.1s0-.2-.1-.2-.2,0-.4-.1-.4-.3-.5-.3-.5-.2-.6-.4-.4-.3-.5-.3c0,0-.2,0-.2-.1,0-.3-.4-.4-.6,0,0,0,0,.2,0,.2s.4.2.6.5.8.7,1.2,1.1.7.7.7.9,0,.2.2.2c.4,0,.7,0,.7.2,0,0,.1.3.3.4.3.2.3.2-.2.1-.6-.2-1.7-.8-1.8-1,0-.1-.2-.1-.4,0-.2,0-.2.2.5.9.4.4.9.8,1,.8s.2.2.2.3,0,.3.2.3c.2,0,.5.6.3.8,0,0-.2,0-.3-.1s-.4-.3-.6-.4-.4-.3-.4-.4-.1-.2-.2-.2-.4-.1-.6-.3-.4-.3-.5-.3-.2-.1-.2-.2-.1-.3-.2-.3c-.3-.1-.3,0,0,.6.1.3.4.5.5.5.2,0,.2,0,0,.2-.2.1-.2.2,0,.2.2,0,.4.2.5.3s.4.3.5.3.2,0,.2.2c0,.2.9,1.2,1.1,1.2s.3.2.4.4.4.4.6.4c.3,0,.5.3.3.4-.2.1-1.8-.8-1.8-1,0-.1-.2-.2-.4-.2s-.6-.3-1-.7c-.7-.7-1-.7-.8,0,.1.2.3.4.5.4s.3,0,.2.1c-.1.1.3.6.5.6s.5.3,1.8,1.5c.3.2.6.5.9.6s.4.2.4.2,0,.3.1.4c0,.2,0,.3-.1.2-.1,0-.2-.2-.2-.3,0-.1,0-.2-.2-.1-.1,0-.6-.2-1-.5-.9-.6-1.4-.8-1.4-.6s1.1,1.4,1.3,1.4c.3,0,1.7,1.3,1.7,1.5s0,.1-.2,0c0-.1-.3-.1-.4,0s-.2,0-.2,0-.2-.2-.5-.3-.5-.2-.5-.2-.2-.2-.5-.3-.4-.3-.4-.3,0-.2-.1-.2-.3,0-.3.2c-.1.2.4.8.6.7.2,0,1,.8,1,1.1s.1.2.3.2.3.1.3.3c0,.2,0,.2,0,0,0-.1-.2-.2-.5-.1-.3,0-.4,0-.4-.2s0-.3-.2-.3c-.3,0-.2.3.2.8.2.2.4.4.4.3s.3.2.6.5.7.7.8.7.2,0,.1.1c-.2.2-1.2-.1-1.2-.3,0-.3-.6-.6-1-.5-.3,0-.4.4,0,.4s1,.6,1.2,1.1c.1.3.1.4,0,.3-.4-.1-.4.2-.1.6.3.4.6.5.8,0h0ZM90.7,130.4c-.2-.2-.1-.2,0-.2.3,0,.5.3.3.4,0,0-.2,0-.3-.2ZM86.2,116.9c0,0,0-.2.2-.2s.3,0,.2.2-.2.2-.2.2-.2,0-.2-.2ZM86.2,115.2c-.3-.3-.2-.6,0-.3.1.1.2.3.2.4s-.1,0-.2,0h0ZM86.2,109.1c0-.2,0-.3,0-.2s0,.2,0,.3c0,.1,0,0,0,0ZM85.5,108.7c0-.2,0-.3,0-.3s.1.1.1.3,0,.3,0,.3,0-.1-.1-.3ZM85,103.1c0,0,0-.2.2-.2.2,0,.2.1,0,.2,0,0-.2,0-.2,0ZM84.1,101c0-.3,0-.3.2-.1,0,0,0,.2,0,.3s-.2,0-.2-.2ZM83.2,98.5c0,0,0-.2.2-.2.2,0,.2.1,0,.2,0,0-.2,0-.2,0ZM106.2,135.6c0-.2-.1-.5-.2-.6s0-.2-.1-.3c0-.4-.4-1.1-.5-1.1s-.1,0-.1-.1,0-.3-.2-.5-.2-.6-.3-.9c-.1-.7-.1-.7-.5-.2-.2.2-.3.4-.2.5.2.1,1,2,1,2.2s0,.2.1.2.2.2.3.4c.3,1,1,1.5.8.5h0ZM32.7,135.3c.2-.2.3-.6.3-.9s.1-.6.2-.9.2-.6.2-.8,0-.6.2-.9.4-1.3.6-2.2c.3-1.4.3-1.6.1-1.9-.1-.1-.3-.3-.3-.3s-.3-.2-.6-.4c-.7-.5-1-.7-1.6-1.1-.3-.2-.5-.3-.5-.4s0-.1-.2-.1-.3-.1-.4-.2c-.1-.1-.3-.2-.4-.1-.2.2-.4,4.5-.2,4.8,0,.1,0,.3,0,.4-.1.2-.1.3,0,.4.1,0,.2.2,0,.3s0,.2,0,.2c.2,0,.7-.5.7-.7s.1-.3.3-.5.4-.6.6-1,.4-.7.5-.7c.2,0,.1,4.3,0,4.6-.2.3-.4,0-.4-.6s-.2-.7-.5-.3c-.2.3-.2.3-.4,0-.4-.6-.9-.2-1,.9,0,1,0,1.4.4,1.6.2,0,.5.3.7.5s.5.4.6.4.2,0,.2.2c0,.3.3.2.6-.3h0ZM100.6,135.3c0-.2,0-.4-.2-.4s-.1-.2,0-.3c0-.2,0-.2-.2-.1-.4.1-.4.1,0,.7.3.6.5.6.5.2h0ZM88.8,135.3c0,0,0-.2-.2-.3s-.2,0-.2.2,0,.3.2.3.2,0,.2-.2ZM107.3,134.9c0-.2-.2-.8-.5-1.3-.4-1-.6-2.2-.3-2.2s.3.4.4.9c0,0,.2.3.3.5.2.3.2.4.1.5-.1,0,0,.2.2.2.5.1.6,0,.3-.4-.1-.2-.2-.4-.2-.5s-.1-.4-.2-.7-.2-.6-.2-.7c0-.2-.8-.6-.9-.4,0,0,0,.2,0,.2.1,0,.1.2,0,.3-.2.3-.5.3-.5,0s-.2-.4-.6-.2c-.3.2-.3.2,0,.5.1.2.4.6.5,1s.3.7.4.7.1,0,.1.2.1.5.3.9c.3.7.6.9.6.4h0ZM97,134.4c.1-.1.2-.3.2-.4,0-.2-.4-.1-.6.1-.2.3-.4.2-.4-.1s0-.2-.2-.2c-.2,0-.4.5-.3.9.1.3,1,.1,1.3-.2ZM95.2,133.6c0-.8.3-1.9.5-1.9s.8.6.8.8,0,.2.2.2.4.3.7.7.6.7.7.7.3-.1.4-.3c.3-.3.4-1.3.1-2.8-.1-.7,0-.9.2-1,.2,0,.3,0,.4.2,0,.2.2.3.4.3s.2.1.2.2.1.2.2.2.2,0,.2.1c0,.2.6.8,1.1.9.2,0,.4,0,.7-.3.3-.4.3-.5.2-1.4,0-.6-.3-1.1-.4-1.2-.3-.1-.3-.4,0-.8.2-.3.8,0,.8.4s.1.2.2.2.2,0,.2.1c0,.2,1.4,1.2,1.7,1.1.2,0,.2-.4.2-1.2,0-.6,0-1.2,0-1.3.1-.2.8,0,1,.3.1.2.3.3.4.2s.1,0,.1,0,.1.2.2.2c.3,0,.4-.5.4-1.6,0-1,.2-1.1,1-.4.3.3.6.5.7.5.4,0,.5-.5.1-.8-.2-.1-.3-.3-.3-.4,0-.2-.7-1.1-1.2-1.7-.2-.2-.3-.3-.3-.4s-.2-.4-.5-.7-.5-.6-.5-.7,0-.1-.2,0-.3-.1-.4-.4-.3-.5-.4-.5-.2,0-.2-.2-.2-.4-.4-.6c-.7-.7-1.2-1.3-1.2-1.5s-.2-.3-.4-.5-.4-.5-.4-.6,0-.2-.2-.2-.2-.2-.3-.4-.2-.4-.3-.4-.1-.1,0-.3c0-.2,0-.4-.2-.4-.2,0-.4-.3-.5-.5s-.6-.8-1.1-1.3-.9-1-.9-1.1-.4-.6-.9-1.2-.9-1.1-.9-1.2-.1-.2-.2-.2-.4-.3-.6-.6-.4-.6-.5-.6-.1-.1-.1-.2-.2-.5-.6-.8-.6-.6-.6-.7-.3-.5-.6-.9-.7-.8-.7-.9-.5-.7-1-1.2c-.5-.6-.9-1.1-.9-1.2-.1-.3-.9-1.2-1.1-1.2s-.2-.1-.3-.3c-.2-.6-.7-1.3-.8-1.2s-.1,0-.2-.2-.2-.4-.3-.4-.2-.2-.2-.3c0-.3-.8-1.1-1.1-1.1s-.2,0-.2-.2-.1-.2-.2-.2c-.2,0-.2.2-.1.9,0,.9.5,2.5.5,2,0-.1,0-.3.2-.4.2-.1.3,0,.8.4.3.3.7.8.8,1.1s.5.6.7.8c.5.3.5.4.3.7-.1.2-.2.2-.2,0-.1-.4-.7-.8-.9-.6,0,0-.1.4,0,.7,0,.7-.1,1.2-.4.9s-.2-.4-.2-.6-.1-.4-.2-.5c-.2-.1-.3,3,0,3.2,0,.1.2.5.1.8s0,.8,0,1.1c.1.6,1.2,2,1.8,2.3.4.2.7.9.3.8-.2,0-.2.1-.3.7,0,.4-.2,1-.3,1.3-.2.4-.1.7.1,2,.2.8.3,1.6.3,1.8s.3.6.7.9c.7.6,1.7,2.1,1.7,2.6s-.4,0-.5-.5c0-.2-.2-.4-.4-.4-.2,0-.2,0,0,.1.1,0,.1.3,0,.7-.3.6-.3,1.3,0,2,0,.2.2.6.2.9,0,.8.5,1.9.9,2.1.1,0,.2.2.2.4s.1.2.3.2c.4,0,.8.4.8.8s0,.4.2.4.3.1.5.3.4.3.6.3c.4,0,.4,0,.2.5-.2.4-.8.4-.9,0-.1-.5-.8-.3-1,.3-.1.3-.1.6,0,.7s.1.4.2.7.1.6.2.7.2.4.2.7.2.8.4,1.1.3.7.3.8,0,.2.2.2.2-.2.2-.8h0ZM96.1,128.1c0-.1-.2-.4-.4-.5-.4-.3-.4-.5-.5-1.4,0-.9,0-1,.3-1.2.4-.2,1,.4,1,.9,0,.2.2.5.4.7.4.4.6.9.4,1,0,0-.2,0-.3,0s-.2.2-.2.4c0,.4-.7.5-.7.2h0ZM97.3,128.2c0-.1,0-.3,0-.3.3-.2.4,0,.2.3-.1.2-.2.2-.3,0ZM98.4,127.3c0-.1,0-.6,0-1-.1-1.7-.1-2.3,0-2.4.2-.2.9.4.9.8s.1.2.2.3.2.2.2.3.2.4.5.7c.5.5.6.9.3,1,0,0-.2,0-.3-.3s-.2-.4-.2-.4,0,0,0,.1c.1.2-.5.7-.8.7s-.3.1-.4.2c-.1.3-.4.3-.4,0h0ZM101.3,124.7c0-1,0-1.9.1-1.9.2-.2,1.2.9,1.5,1.7.4.9.4,1.2,0,1.3-.2,0-.4.2-.4.3s-.1.1-.3,0c-.2,0-.3,0-.4.2,0,.1-.2.3-.3.3-.2,0-.2-.4-.2-1.8h0ZM104.2,125.6c0-.1-.1-.8-.2-1.5-.1-1.1-.1-1.4,0-1.6.2-.2.3-.2.8.4.3.3.7.6.8.6s.2.1.2.2,0,.2-.2.2-.1,0,0,.2c.1.2-.5.8-.8.8s-.2.1-.2.3c0,.4-.3.6-.4.3h0ZM105.8,124.5c0-.1,0-.3.1-.3.2-.1.4.3.2.5-.2.2-.4.1-.4-.1ZM95.5,120.6c0,0-.1-.2-.1-.4,0-.4-.5-.6-.7-.2-.3.5-.6.3-.4-.4,0-.3,0-1.1,0-1.6,0-1.1,0-1.6.3-1.6s1.4,1.2,1.4,1.4.2.3.5.5c.3.2.5.5.5.6,0,.1,0,.2.3.2s.4,0,.4.2,0,.2-.2.2c-.1,0-.1,0,0,.1.2.1.2.2,0,.2-.2,0-.4-.1-.6-.5-.2-.4-.5-.6-.7-.5-.4,0-.5.7-.2,1,.3.4-.2,1-.5.6h0ZM99.8,118.8c-.2-.5-.4-.5-.6-.2,0,.1-.2.2-.4.2-.3,0-.3-.1-.4-2.6,0-.9.5-.9,1.4,0,.4.4.7.8.7.9s0,.2.2.2c.3,0,.6.4.5.7,0,.1-.2.2-.4.1-.2,0-.3-.2-.2-.2s0-.1-.2-.1-.2.2-.2.6c0,.7-.2.9-.5.3h0ZM92.9,113c0,0-.1-.4-.1-.8s-.1-1.2-.3-1.8c-.4-1.8-.4-2-.2-2.3.2-.3.3-.3,1.2.7.5.6,1,1.1,1,1.1s.1.2.3.4c.5.4.4.5-.4.4-.4,0-.6,0-.5,0s.2.2.2.4,0,.4.2.4c.1,0,.1.2,0,.3,0,.1-.1.3-.1.4s-.1.2-.3.2c-.2,0-.3,0-.3-.2,0-.1,0-.3-.1-.3s-.2.2-.3.5c-.1.6-.2.7-.4.6h0ZM96.1,112c0,0-.2-.2-.4-.3s-.4-.2-.3-.2c.2-.2.9,0,.9.4,0,.1,0,.2,0,.2s-.2,0-.2-.1h0ZM94.9,111.2c0,0,0-.2.2-.2s.4,0,.4.2,0,.2-.2.2-.4,0-.4-.2ZM108.1,134.1c0-.2-.2-.3-.3-.3-.1,0-.3,0-.4,0s-.1,0-.1.2.1.1.3,0c.2,0,.3,0,.3,0s0,.2.1.2.1-.1,0-.3ZM108.6,132.9c0-.3,0-.6,0-.6s0,0,0,0c0-.1-.5-1.1-.7-1.1s-.2,0-.2,0c0,.2.4,1,.6,1.3.1.2.2.4.3.6,0,.4,0,.4.2.4s0-.2,0-.5h0ZM100.5,132.8c.2-.2.2-.3,0-.4-.2-.1-.2-.1,0-.2.2,0,.3,0,.3-.2,0-.2-.4-.1-.7.1-.1.1-.3.2-.4.2s-.2.2-.2.4c0,.4,0,.5.3.3.2,0,.5-.2.6-.4h0ZM109.2,131.6c0-.4-.2-.8-.3-.9s-.2-.3-.2-.5,0-.3-.2-.3c-.3,0-.2.8.1,1,.2.1.2.2,0,.3-.2,0-.1.2.1.3.2.1.3.3.2.5,0,.1,0,.2.1.2s.2-.2,0-.7ZM107.9,130.7c0-.1,0-.2-.2-.2s-.1.2,0,.3c.1.2.2.2.2-.1ZM107.4,130.2c-.1,0-.3,0-.4,0s0,0,.2,0,.3,0,.2,0ZM87.2,129.8c0,0,0-.2-.1-.2s-.2,0-.2.2,0,.2.1.2.2,0,.2-.2ZM108.4,129.7c0-.2-.4-.2-.5,0,0,.1,0,.2.2.2.2,0,.3-.1.3-.2h0ZM109.2,129.5c0,0,0,0,0,.2,0,.2,0,.2,0,0,0-.1,0-.3,0-.3ZM87.2,128.3c0-.2-.1-.3-.3-.3s-.3,0-.4-.2c0-.1,0,0,0,0,0,.2,0,.3.2.3s.3.1.3.2c.1.3.3.3.3,0ZM35.1,126.3c0-.3-.3-.8-.6-.8s-.3-.2-.6-.4-.5-.4-.6-.4-.2,0-.2-.1-.1-.2-.3-.2-.5-.2-.7-.4-.6-.4-.8-.5-.4-.2-.4-.3c-.2-.3-.5-.2-.7.2,0,.3,0,.5.4,1,.6.7,1.3,1.1,1.6,1.1s.2,0,.2.2c0,.2.8.8,1.2.8s.2,0,.2.1.2.2.4.3c.4.2.7,0,.7-.5h0ZM109.5,122.9c0-1.4,0-3.9,0-5.5s0-3,0-3.2c0-.4-.5-.4-3.3,0-1.1.1-2.6.3-3.4.3s-1.5.1-1.5.2c-.2.1-.2.5,0,.6.3.1.9,1.1.8,1.3,0,0,.1.2.3.2s.4.2.4.3.1.4.3.6.5.6.8,1,.8.9,1.1,1.2.5.6.5.7.2.3.4.5.4.5.4.5.3.5.7.8.7.8.8,1,.2.3.2.3.3.4.6.8c.8,1.4.9,1.2.9-1.8h0ZM35.8,124.1c.2-.5.3-.9.2-1.2,0-.2-.1-.5-.1-.6s-.2-.1-.5-.1c-.5,0-.6,0-.5-.5,0-.2-.2-.1-.5.1-.2.2-.5.2-.5,0s.2-.4.5-.7.8-1.1,1.2-1.7.8-1.1.9-1.1.1.5,0,1.4c-.2,2.1-.2,2.5,0,2.6.2.1.3-.2.8-1.9.2-.8.5-1.6.6-1.7,0-.1,0-.2,0-.3,0,0-.1-.2,0-.3.1-.2-.8-.8-2.4-1.6-.6-.3-1.2-.7-1.4-.9s-.7-.5-1.1-.7-.8-.5-.8-.6-.1-.1-.2-.1-.2,0-.3-.2-.3-.2-.5-.2c-.4,0-.5,0-.6.8,0,.5,0,1.2,0,1.6,0,.7.1.7.3.4.3-.5.7-.5.7,0,0,2,0,2.4-.1,2.6-.2.3-.2.3-.5-.1-.2-.2-.3-.3-.3-.2s0,.7-.1,1.3c-.1,1.4,0,1.8,1,2.3.4.2.8.5,1,.7s.4.3.6.3.3.1.4.3.3.3.4.3.3,0,.4.2.5.3.8.4.6.2.6.2.2-.3.4-.8h0ZM33.1,121c.2-.4,0-.6-.5-.4-.3.1-.5.1-.6,0,0,0-.3-.2-.5-.2-.5,0-.5-.2.2-1,1-1.2,1.3-1.5,1.5-2,.1-.3.3-.5.4-.5.4,0,0,4.1-.4,4.3-.2,0-.2,0-.1-.2h0ZM85.9,122.2c-.2,0-.4-.2-.4-.3,0-.2-.5-.7-.6-.7s-.1,0-.1.2c0,.3.9.9,1.3.9.2,0,.2,0-.1-.2ZM85.4,120.1c0-.2-.7-.6-.8-.4,0,0,0,.2.2.3.4.3.5.3.6,0h0ZM84.7,119.3s-.1,0-.3,0-.3,0-.3.1.1.1.3,0,.3-.1.3-.1ZM38.6,116.1c0-.3,0-.4-.2-.4-.2,0-.4-.2-.6-.4s-.4-.3-.5-.2-.1,0-.1,0,0-.2-.2-.2c-.2,0-.7-.4-1.1-.9-.1-.2-.4-.3-.5-.3-.3,0-1.2-.4-1.4-.7-.1-.1-.3-.2-.4-.2s-.3-.1-.3-.2-.2-.2-.3-.2c-.2,0-1.7-1-1.8-1.2,0,0-.2-.1-.4-.1-.4,0-.4,0-.4.8s0,.9.4,1.2c.2.2.5.3.6.3.2,0,1.6.8,1.8,1,0,0,.3.2.6.3s.5.3.6.3c.2.2,1.4.9,2.4,1.3.6.3,1.1.6,1.3.6.3.2.6-.1.7-.6h0ZM39.5,114c0-.2.1-.5.2-.7.3-.3,1-2.4.9-2.6,0,0,0,0,0,0s.3-.2.4-.5.2-.6.3-.9.1-.4.1-.5,0-.1.2-.2c.3-.2.1-1-.2-1s-.5-.1-.9-.3-.7-.3-.8-.3-.3-.1-.4-.2-.6-.4-1.1-.6-1.2-.5-1.5-.7-.7-.4-.9-.4-.7-.3-1.2-.5-.8-.5-.9-.5c-.1,0-1.5-.7-1.6-.8-.2-.3-1.4-.7-1.6-.6-.2.2-.3,6.9-.1,7.2,0,.1.2.3.3.3s.3.1.5.3c.4.4,1.3.9,1.6.9s.2,0,.2.2.3.4.7.5.7.4.7.4.1.1.2.1.2.1.2.2,0,.2.2.2c.2,0,1.4.5,1.5.7,0,0,.3.2.5.3s.4.3.4.4.1.2.3.2c.2,0,.4.1.6.2.3.2.3.2.6-.1.2-.2.3-.5.3-.8h0ZM39,112.9s0-.3,0-.6-.1-.6-.2-.6-.3.2-.5.5l-.5.6-.2-.4c-.2-.4-.2-.4-.5-.3-.2.1-.3.1-.4,0,0-.1.3-.7.9-1.3.5-.6,1.2-1.3,1.5-1.7s.5-.6.6-.5c.1,0,0,1.4-.2,3.5,0,.4,0,.7,0,.8,0,.1-.3.2-.3,0h0ZM35.5,110.8c0-.4,0-.5-.2-.5s-.4.1-.6.3c-.4.4-.7,0-.4-.5.3-.8.2-.9-.7-.5-.2,0-.3,0-.3,0,0-.2,2.6-3,2.7-3s0,.6,0,1.4,0,1.8,0,2.3c0,.7,0,.9-.3.9-.3,0-.3,0-.2-.4h0ZM32.2,109.1c0-.4-.2-.8-.3-.5,0,.1-.2.2-.3.2s-.3-.2-.4-.8c0-.6,0-.9.3-1.4.2-.3.4-.6.5-.6s.3-.3.4-.7.4-.7.4-.7c.1,0,0,1.8,0,3.4,0,.3,0,.7,0,.9,0,.3-.1.5-.3.5s-.2-.1-.2-.4h0ZM100.4,110.3c0-3.2,0-3.5-.3-3.9-.1-.2-1-.7-1.2-.6,0,0-.3-.2-.6-.4s-.6-.4-.7-.4-.3,0-.3-.2-.3-.2-.5-.3-.8-.3-1.2-.6-1-.7-1.3-.8c-2.2-1.1-3-1.5-2.9-1.7,0,0,0-.2-.2-.3-.2-.1-.3-.1-.3,0,0,.3.3.9.6,1.2.5.5.8,1,.8,1.1s0,.2.2.2.2,0,.2.2.2.5.5.8.7.9,1,1.3.7.9.9,1.2.4.5.3.6,0,.2.2.2.3,0,.3.2.3.5.6.9c1.1,1.3,1.2,1.4,1.2,1.5s.4.6,1,1.2,1.1,1.2,1.3,1.5c.6.8.7.4.6-3h0ZM102.9,113.6c.5,0,1.8-.2,2.8-.3,1.8,0,3.5-.3,3.7-.5.1-.2.2-5.5,0-5.7-.1-.1-.1-.2,0-.2s.1-.4.1-.9v-.9s-1.2,0-1.2,0c-.6,0-2,.1-3,.2-1,.1-2.2.2-2.7.3-1.5.1-1.4-.2-1.4,4.1,0,4,0,3.9.6,4,0,0,.5,0,1-.1h0ZM103,112.7c0,0-.1-.4-.1-.7s-.1-.6-.3-.7c-.2-.1-.2-.3-.1-.8,0-.4.2-.7.2-.7s.1-.2,0-.4c0-.4.2-.9.5-.9.1,0,.9,2.2.9,2.6,0,.1,0,.2.1.2.2,0,.4,1.1.3,1.3,0,0-.2.1-.3,0-.2,0-.2-.3-.3-1,0-.3-.4-.2-.4,0,0,.4-.4,1.1-.5.9ZM105.4,112.6c0,0,0-.5,0-.8s.2-.9.1-1.2c0-1.3,0-1.9.3-2.2.3-.3.3-.3.4.1.3.8.5,1.2.9,1.6.2.3.4.6.4.6s.2.4.4.6c.5.6.5.7,0,.7-.3,0-.3,0-.1-.2.2-.1.2-.2,0-.2-.2,0-.3-.1-.3-.3s0-.2-.1-.2-.3,0-.4-.3c-.3-.4-.4-.3-.4.7,0,.6-.4.9-.4.4s-.1-.3-.3-.3-.3,0-.2.3c0,.3-.2.6-.3.4h0ZM68.9,107c0-1.5-.3-1.5-.3,0,0,.8,0,1.2.2,1.2s.2-.3.2-1.2h0ZM42.5,106.3c0-.1-.6-.5-1.1-.8s-1-.6-1-.7-.1-.2-.3-.2c-.4,0-2.9-1.3-2.9-1.5s0-.1-.1-.1c-.1,0-.6-.2-1.8-.7-.4-.2-1-.4-1.2-.5s-.5-.3-.7-.4-.4-.3-.5-.2-.3,0-.4-.2c-.5-.5-1.3,0-1.1.6,0,.2,1.7,1.2,2.3,1.3.1,0,.4.2.5.3s.4.3.4.3c.5,0,2,.8,2.1,1,0,0,.2.2.4.2s.3,0,.3.2.1.2.3.2c.3,0,1.3.6,1.5.8,0,0,.4.2.8.3s.8.3.9.4c.6.5,1.7.3,1.5-.3h0ZM69,105.3c0-.6,0-1-.3-1s-.2.2-.2.7c0,.8.4,1.1.5.3ZM43.1,105.3c.3-.1.4-.9,0-.9s-.1,0-.1-.1,0-.3,0-.4c0-.3,0-.3-.4,0-.2.1-.5.3-.5.3-.2,0-.4-.5-.2-.7.3-.3.2-.6-.2-.6-.6.2-.5-.2.3-1,.4-.4.9-1.1,1.1-1.4.7-1.1.9-.7.6,1.3-.2,1.3-.2,1.5,0,1.7.2.2.2.1.3-.2,0-.2.2-.4.2-.4s.1,0,.1-.2.3-.9.7-1.8.7-1.7.7-1.8-.2-.2-.4-.2-.8-.2-1.3-.5-1.1-.5-1.2-.5-.3,0-.3-.2-.3-.2-.5-.2-.4,0-.4-.2-.3-.2-.7-.3c-.8-.1-2.2-.7-3.8-1.5-.5-.2-1-.4-1.1-.4s-.3,0-.3-.2c-.2-.3-1.3-.2-1.6.1-.1.2-.5.8-.8,1.5s-.7,1.5-.9,1.9q-.6,1,1.4,2.2c.4.2,1.1.6,1.6.8s.8.4.9.5.3.2.6.4c1.6.8,2.4,1.2,2.5,1.3,0,.1,2.2,1.2,2.4,1.2,0,0,.3.1.5.2.4.2.4.2.8.1h0ZM39.6,101.8c0-.3,0-.6,0-.8,0-.2-.2-.2-.5.2-.5.7-.7.6-.6-.2,0-.7,0-.7-.3-.6-.7,0-.6-.3.2-.9.4-.4,1-.8,1.2-1.1s.5-.5.6-.5c.3,0,.3.6.1,2-.1.8-.2,1.5-.2,1.7s-.1.4-.3.5c-.3.2-.3.2-.2-.3h0ZM36,100.8c0-.1,0-.5,0-.8,0-.5,0-.7-.1-.7s-.3,0-.3.1c0,.2-.8,1-.9,1s0-1.1,0-1.3c.2-.3-.3-.1-.6.3-.2.2-.4.4-.5.4-.2,0-.2-.4.1-.7.2-.2.8-.8,1.4-1.5.8-.9,1.2-1.1,1.3-1s.1.7,0,2.1c-.2,1.9-.3,2.5-.6,2.1h0ZM100.1,103.9c0-.6-.1-1.4-.2-1.8-.1-1.4-.6-4.2-.8-4.9-.1-.4-.2-.8-.2-.8s0-.5-.1-.9-.2-.8-.1-.8,0-.3-.2-.5-.3-.5-.3-.6,0-.3-.2-.5-.1-.5-.1-.6c0-.3-.7-2.4-1.2-3.5-.2-.5-.4-.9-.4-1,0-.1,0-.3-1-2.1-.3-.6-.6-1.3-.6-1.4s-.1-.4-.3-.5c-.4-.3-1.1-1.4-1.1-1.7s0-.2-.2-.2c-.2,0-.2,0-.2-.3,0-.2-.5-.9-1.4-1.9-.8-.8-1.7-1.8-2-2.2s-.6-.6-.6-.5-.2,0-.4-.4c-.4-.6-1.5-1.7-2.1-2.2-.3-.2-.8-.6-1.1-1-.8-.8-1.3-1.1-1.5-.9-.1,0-.1,0,0,0,0-.1,0-.2-.2-.3-.2,0-.4-.2-.4-.3-.2-.2-1-.8-1.7-1.1-.2,0-.4-.3-.5-.3s-.2-.2-.3-.2-.4-.2-.6-.3-.7-.4-1.1-.6-.7-.4-.7-.4,0,0-.2,0-.3,0-.6-.2-.5-.3-.5-.3c-.2,0-.6-.2-.7-.4,0-.1-.2-.2-.4-.2s-.5-.1-.6-.3-.6-.4-1.1-.6-.9-.4-1-.5-.5-.2-.7-.2-.5,0-.5-.1-.3-.2-.7-.3-.8-.3-.9-.4-.5-.1-.7-.1c-.4,0-.4,0-.3.7,0,.4.2.7.2.8s.1.2.1.3c0,.3.4,2.3.5,2.6,0,.1,0,.5.1.7s.1.6.2.8c.2.4.6,1.6.8,2.4,0,.3.2.7.3.9.3.6.4,1,.4,1.4,0,.2.1.4.2.5s.2.3.2.7.2.7.2.9c.5,1.1,1.2,2.6,1.4,3.1.2.3.3.7.4.8,0,.4.5,1.3.8,1.4.1,0,.2.2.2.4s.2.6.5,1.1.5.9.5,1,0,.2.2.2.2,0,.2.2.2.5.5.8.5.6.5.7,0,.2.2.2.1.1,0,.2,0,.2,0,.2.2.1.2.2.1.3.2.3.2.2.2.3c0,.2.3.6.9,1.3.2.2.4.4.4.5s.5.6,1,1.1,1.1,1.2,1.2,1.4.2.2.2.1.4.2,1,.7,1.2,1.1,1.4,1.4.6.5.7.6.2.2.2,0,0,0,.2.2.4.4.7.6.8.6,1.1.9.7.6.7.6.4.2.7.5.6.5.6.5c.3,0,1.1.7,1.1,1,0,.2,0,.2,0,0,0-.2.2-.1.5.1.2.2.5.3.7.3s.5.2.8.4.6.4.7.4.4.2.7.5.7.5.8.5.6.3,1.3.6,1.5.7,1.9.9,1,.4,1.2.6.5.2.5.1,0-.6,0-1.2h0ZM97.6,101.4c-.4,0-.7-.2-.7-.3,0-.1.9-.8,1.2-.8,0,0,0,0,0,.1,0,.2.3.4.5.3.2-.1.3.4.1.7,0,.1-.2.2-.3.2s-.4,0-.8-.2h0ZM103.9,104.9c.9-.1,2.4-.2,3.3-.2,2.2,0,2.4-.2,2.4-1.2s0-.7-.5-.8c-.3,0-1,0-1.6.1s-1.2.2-1.3.2c-.6,0-4.1.4-4.5.5-.4.1-.5.2-.5.8s0,.7.5.7c.3,0,.5,0,.6,0s.8-.1,1.7-.2h0ZM103.6,102.8c.6,0,1.7-.2,2.3-.2s1.3,0,1.3,0,.5,0,1.1-.1,1-.1,1.1-.2c.1-.1.2-.9.2-2,0-4.6,0-7,0-7.3v-.4c0,0-1.7.3-1.7.3-.9.2-1.9.3-2.2.4s-.8.1-1.2.2-1.4.2-2.3.2c-1.6,0-2.5.2-2.7.3,0,.1.4,3.4.6,3.5,0,0,.1.2.1.4s.1.8.3,1.5.3,1.6.3,2.1,0,1.1.2,1.3c.2.3.4.3,2.6,0h0ZM102.3,99.9c0-.3,0-.7,0-.9,0-.4,0-.4-.3-.1-.2.2-.3.3-.3.4,0,.3,0,.5-.3.5s-.2-.1-.2-.3c.2-.7.2-1,.3-1.5.3-2,.6-2.3,1.2-1.1.2.4.5,1,.5,1.2.1.5.2,1.7.1,1.3-.1-.5-.3-.3-.5.4-.2.8-.4.8-.5.1ZM105.6,98.3c0-1.1,0-2,0-2.2,0-.3.4-.3.7,0,.1.1.7.8,1.3,1.5,1.2,1.3,1.4,1.9.8,1.9s-.3,0-.3-.2c0-.2-.3-.7-.7-.8-.2,0-.3,0-.3.3,0,.2,0,.6.1.7,0,.1,0,.3,0,.5-.2.2-.6.3-.5,0,0,0,0-.2,0-.3s-.1-.2,0-.3,0-.2-.2-.3-.3-.2-.3-.1,0,.2,0,.4-.2.4-.3.6c-.2.2-.2,0-.2-1.7h0ZM103.8,99.7c0-.2,0-.3,0-.2s0,.2,0,.3c0,.1,0,0,0,0ZM81.2,100.4c0,0-.2-.1-.3,0-.3.1-.3.2,0,.2s.3,0,.2-.2ZM31.1,99.4l.6-1.2c.2-.5.5-1.1.7-1.5s.3-.7.4-.7c.2-.1,1.1-1.7,1.5-2.5.6-1.1,2.2-4.4,2.7-5.3.2-.4.4-.9.5-1,.3-.4.9-1.5.9-1.6s-.4-.1-2.1.4c-.7.2-2.1.6-3.2.9-1.3.4-2,.6-2.1.8,0,.2-.2,1.2-.2,2.4-.1,4.1-.2,9.5-.1,9.6.1.2.3.1.5-.2h0ZM60,99.1c0-.3-.4-.5-.4-.2s.3.5.4.5,0-.1,0-.3ZM59.9,98.2c-.1-.1-.2-.2-.2-.3s0-.2-.2-.3c-.2-.2-.2-.2-.2.2.1.6.2.8.5.7.2,0,.2-.1,0-.3h0ZM46.6,97.8c0-.2-1.6-1.1-2.4-1.4-1.3-.4-2.2-.8-2.4-1-.1-.1-.6-.3-1.1-.5-1.2-.4-1.7-.7-1.7-.8s-.4-.2-.9-.3c-.6-.1-.9-.3-.9-.4s-.1-.2-.3-.2-.5-.1-.7-.2c-.4-.2-.5-.2-.8,0s-.3.4,0,.6c.1.2.2.3.2.4s.1.1.3.2.8.3,1.3.6,1.3.6,1.9.8,1.1.4,1.2.5.5.2.9.2.9.2,1.1.4.6.3.9.4.5.2.5.3.2.2.4.2.4,0,.4.1.4.2.8.4c.7.2.8.2,1.1,0,.2-.1.3-.3.3-.4h0ZM57.5,97.9c0-.1,0-.2-.2-.2s-.2.1-.2.2,0,.2.2.2.2-.1.2-.2ZM56,97.3c0-.5-.8-1.1-.8-.7s.6,1,.7,1,0-.2,0-.4h0ZM81.1,97.1c0,0,0-.1-.2,0s-.2.2-.2.3,0,.1.2,0,.2-.2.2-.3ZM57.2,97.2c0,0-.1-.2-.2-.3-.3-.3-.5-.2-.2.2.2.2.5.3.5.2h0ZM52.1,96.5c0,0,0-.2-.2-.2s-.2,0-.2.2,0,.2.2.2.2,0,.2-.2ZM80.3,96.5c-.1,0-.2,0-.3,0s0,0,.2,0c.2,0,.2,0,0,0h0ZM47.2,96.3c.1,0,.2-.3.3-.6,0-.4,0-.5-.1-.5s-.3-.1-.3-.4c0-.5-.1-.5-.5-.2-.5.4-.6.3-.5-.4.1-.6,0-.7-.3-.7s-.3-.1.7-1.1c.6-.6,1.1-1.3,1.1-1.4s.1-.3.3-.3c.2,0,.2.1.1,1.1-.2,2-.2,3-.1,3s.3-.4.5-.8.5-.9.6-1c.3-.3,1.2-2.2,1.2-2.4,0,0,.1-.4.2-.6.2-.4.2-.4-.4-.7-.4-.2-.7-.3-.8-.3s-.4-.1-.6-.2-.5-.2-.6-.2-.4-.1-.6-.2-.8-.3-1.3-.4c-.9-.2-2.7-.9-3.6-1.4-.3-.2-.7-.4-.9-.4s-.4-.2-.6-.3-.7-.2-1.1-.2h-.7s-.6,1.4-.6,1.4c-1,2.3-1.6,3.5-1.7,3.6-.1.1-.5.7-.6,1.1-.2.5,0,.8.9.9.3,0,.6.2.8.3s.5.3.8.3.8.3,1.3.5c1,.5,2.1.9,2.1.8s.2,0,.5.3.5.4.6.4c.1,0,.5,0,1,.4,1.8.8,2.8,1.1,3.2.8h0ZM42.5,93.3c0-.1.1-.4.2-.7.3-.6.2-1-.3-.9-.6.2-.4-.3.3-.8.4-.3.8-.7,1-1,.7-1,.8-.7.8,1.2,0,.9,0,1.8,0,2,0,.5-.3.3-.4-.2-.1-.6-.4-.6-.7,0-.3.5-.8.9-.8.5h0ZM38.8,91.4c0-.2,0-.4.1-.5.2-.3,0-.5-.4-.5s-.3,0-.3-.2c0-.2.4-.6.5-.6s.4-.3.8-.7c.8-.8.9-.8,1.1-.5.1.2.1.5,0,1.1,0,.5-.2,1.2-.2,1.5,0,.4-.2.6-.3.6s-.2-.1-.2-.3c.1-.5-.3-.4-.6,0-.3.5-.7.5-.7.1h0ZM51.6,95.4c-.2-.2-.5,0-.3.3,0,.1.2.1.3,0,0,0,.1-.2,0-.3ZM56.6,95.5c.2,0,.5-.2.7-.2s.5-.2.5-.3c0-.2,0-.2-.4-.2s-1,0-1.5-.1c-.9-.1-1,0-1.1.3,0,.3-.2.4-.7.3-.5,0-.6,0-.8.2,0,.2-.1.3,0,.4.1.1,3,0,3.3-.2ZM80.6,95.2c0,0-.2-.2-.3-.2s-.1,0,0,.2.2.2.3.2.1,0,0-.2ZM52.8,94.6c0-.1-.3-.2-.8-.1-1,0-1,.3,0,.3s.8,0,.8-.2ZM79.7,94.2c0-.3-.4-.3-.4,0s.1.2.4.3c0,0,0,0,0-.2h0ZM52.2,93.6c0-.1-.4-.2-1-.2-1.6,0-1.1.3.5.4.4,0,.6,0,.5-.2ZM53,93c.2,0,.3,0,.2-.2-.2-.2-1,0-.9.3,0,.2.1.2.3,0s.3-.2.5-.2ZM51.7,92.8c0,0-.1-.1-.2,0s-.3.1-.3.1,0,0,0,.2c.1.2.6,0,.6-.2ZM101.3,92.9c.7,0,1.6-.2,1.9-.2s.7-.1.8,0,.5,0,.9,0,1.4-.2,2.3-.3c1.8-.2,2.4-.4,2.4-.8s0-.3-.2-.3-.2-.1-.2-.3c0-.4-.5-.5-1.5-.4-.4,0-2.1.3-3.6.5s-3.3.5-4,.5c-1.4.1-1.5.3-1.2,1.3.1.4.2.4.6.4.2,0,1-.1,1.7-.2h0ZM55.3,92.3c.2-.2.1-.2,0-.2s-.2,0-.2-.2c.2-.3.7-.2.9.1.2.2.5.3,1.6.3,1.5,0,2.9-.4,3.4-.9.2-.2.5-.4.7-.5.7-.3.5-.6-.3-.5-.4,0-1.5.1-2.4.2-1.9.1-2.2.2-3.5.5-1.3.3-1.5.4-1.5.8s0,.3.2.2.2,0,.2.2c0,.3.7.3.9,0h0ZM52.8,92.2c0,0,0-.2,0-.4,0-.4,0-.4-.2-.2-.2.2-.4.2-1.1.1-.9-.1-1,0-.3.3.3.1.9.2,1.6.1ZM53.8,91.2s0-.3,0-.7c0-.5,0-.7-.2-.7s0-.3.4-.6c.6-.6.7-.8.2-.8-.1,0-.6,0-1-.2-.9-.1-1.2.2-.8.9.2.4.2.4-.3.5-.3,0-.5.1-.5.4s0,.4.2.4.2,0,.2,0,0-.1.2,0c.1,0,.4.1.6,0s.4,0,.4.1.1.2.3.2c.2,0,.1,0-.1.1-.2,0-.6,0-.9,0-.8-.2-1.2-.2-1.2.2s0,.3,1.3.3c.7,0,1.3,0,1.3,0h0ZM102.1,90.5c.3,0,1-.2,1.6-.3,1.2-.1,1.8-.2,1.9-.2,0,0,.2,0,.3,0,1.3-.1,2.3-.3,2.5-.5.2-.2.2-.3,0-.7-.1-.3-.3-.6-.3-.7s-.1-.3-.3-.4-.2-.2-.1-.2,0-.1,0-.3-.1-.2,0-.2,0-.2-.3-.5-.4-.6-.4-.7,0-.2-.2-.2-.2,0-.2-.2-.1-.4-.3-.6-.3-.4-.2-.6c0-.1,0-.1,0,0s-.2,0-.3-.3c0-.2-.2-.4-.2-.4s-.2-.2-.2-.4-.2-.5-.3-.6-.3-.4-.5-.6c-.3-.4-.1-.4-3.1,0-2.9.5-4.1.6-5.3.7-1,0-1.1,0-1.1.4,0,.2.2.6.4.9s.4.6.4.7,0,.5.3.8.4.7.3.8,0,.2,0,.2.2.1.2.2,0,.3.2.4.3.4.3.6.3.9.6,1.5.5,1.1.5,1.2,0,.2.2.2.1.1,0,.3c0,.2,0,.3,1.5.2.9,0,1.9-.2,2.2-.3h0ZM99.8,88.4c0-.2,0-.4-.2-.4s-.2-.2-.2-.4c0-.3-.2-.4-.4-.2,0,0-.2.2-.3.2-.2,0-.2-.3-.1-1.3,0-.7.1-1.4.2-1.5.3-.5.8.2,1.7,2,.2.5.5.9.6,1,.2,0,.1.5,0,.5s-.2-.1-.2-.3c-.1-.5-.4-.4-.5.2-.1.6-.5.8-.5.3h0ZM103.2,88.2c0-.1,0-.8-.1-1.6s-.1-1.5,0-1.7c0-.3,0-.5,0-.5,0,0-.1-.2,0-.3,0-.2.3,0,.8.5.4.4.7.6.8.6s.1,0,.2.2.4.5.7.6c.9.4,1.8,1.6,1.2,1.6s-.3-.2-.3-.3c0-.2-.2-.3-.4-.3-.1,0-.4,0-.5-.2-.3-.3-.8,0-.6.2.2.3.1.9-.1,1-.1,0-.3-.2-.4-.5-.2-.7-.4-.6-.6.3,0,.3-.2.6-.3.6-.1,0-.2,0-.1-.2h0ZM59.7,90c.7,0,1.4-.1,1.6-.2s.3-.1.3-.1c.3,0,2-1,2-1.2,0-.3-2.7-.4-4-.2-3.4.5-4.8.8-4.9,1.2-.1.4,0,.4.7.2.4,0,.7,0,.7,0,0,0,.2.1.3,0s.3,0,.4.1c.1.1.4.2.9.2.4,0,1.3,0,2-.1h0ZM109.7,88.7c0-.3,0-3.2,0-6.4s0-5.9,0-5.9c0,0,.1-4.6.1-12,0-2.7,0-5.1,0-5.2,0-.5.2-21.1.2-24.2,0-1.8,0-3.4-.1-3.5s-1.4-.1-3.1,0-3.3,0-3.8,0-2,0-3.5,0c-5.3,0-27,.2-27.2.2-.1,0-1.1,0-2,0s-2.9,0-4.1,0-2.4,0-2.4,0-.2,0-.3,0c-.1,0-2.4.2-5.1.2h-5s-8.3.1-8.3.1c-4.5,0-9.3.1-10.7.1h-2.5s-.1.5-.1.5c0,.3-.2,1.7-.2,3.1s0,4.5-.2,6.8-.1,7.8-.2,12.3-.1,10.4-.2,13.1c-.1,7.4-.2,14.7-.1,14.9,0,.3.8-.4.9-1,.1-.5,1.7-3.3,2.2-3.8.2-.2.3-.4.3-.5s.1-.3.3-.5.3-.4.3-.5.1-.3.2-.4.5-.6.7-.9c.7-.9,2.6-3.2,3.4-3.9,1.7-1.6,2.3-2.2,2.2-2.3,0,0-.7,0-1.5-.1s-1.5,0-1.5-.1c0-.1.4-.7,1.5-2,.4-.4.9-1.1,1.1-1.5s.5-.8.5-.8.2-.4.4-.7.5-.9.7-1.2.5-.6.5-.6.1-.3.3-.5.3-.5.3-.6.1-.3.3-.5.3-.4.3-.5.1-.4.3-.6c.3-.5.7-1.5.5-1.5-.8-.2-3.2-.3-6.6-.4-5.3-.1-6.3-.4-5-1.3.3-.2.7-.5.8-.6s.3-.2.3-.2c.1,0,1.3-1.7,1.3-2s1.3-1.5,1.9-1.9c.1,0,.4-.2.6-.2s.5,0,.6,0c.2,0,1.1.2,1.1.4s.2.2.4.2.5.1.6.2.3.2.4.2.2,0,.2.1c0,.3.6,0,.8-.4,0-.2.3-.6.5-.8l.4-.5-.3-.3c-.4-.3-.7-1.6-.5-1.9.2-.2,0-.3-1.3-.5-1-.1-1.8-.9-2.3-2.2,0-.2-.2-.4-.3-.5s-.2-.2-.2-.4c0-.4-.5-1.5-.7-1.5s-.8-.6-.8-.8c0-.2.4-.5,1.1-.7.4-.1.7-.3.7-.4s0-.1.2-.1c.2,0,1.9-1.2,2.1-1.4,0,0,.2-.1.2,0s.2,0,.3,0c.3-.2,1.1-.3,1.2-.1,0,0,.2.2.4.2s.6.2.9.4c.7.5.8.4,1.1-.7.4-1.6,2.4-1.7,3.3-.2.3.5.3.6.1,1.1,0,.3-.3.7-.3.8-.1.2,0,.3.4.8l.6.5.3-.4c.2-.2.3-.4.3-.5,0-.3,2-2.5,2.7-2.9.3-.2.7-.5,1-.8s.7-.5,1-.7.9-.4,1.3-.6c1.2-.6,1.7-.7,2.4-.6.4,0,.6,0,.6,0s.2-.1.6,0c.3,0,.8.2,1.1.2.7,0,1.7.6,2.2,1,.2.2.5.5.7.6s.6.5.7.6.6.3,1,.4c.6,0,1.1.5,1.1,1s.2.4.4.7c1.1,1.2,1.9,2.3,1.9,2.6s0,.3.2.3.2.2.2.4,0,.4.1.4c.1,0,.2.3.3,2.5,0,.6,0,1.2.1,1.2s0,.3,0,.4.2.5.4.8c1.8,2,2.4,2.8,2.1,3.3-.3.5-.8.8-1.5.8s-.9.3-1,2c0,.8-.2,1.2-.3,1.3-.7.3-.9.5-.8.7,0,.1,0,.3,0,.4s0,.3.2.4c.3.6.4,1.4.1,1.8-.1.3-.4.5-.5.5s-.2,0-.2.1c0,.2-2.3,1.4-2.6,1.4s-1.1.8-1.1,1c0,0,.4.2.7.2s.7.2.7.2c0,.1,1,.4,1.7.4.2,0,.5.1.7.2s.8.3,1.3.4,1,.3,1.1.4.7.3,1.4.5,1.3.4,1.6.5.6.3.8.4.5.2.6.3.5.2.8.4.8.4,1,.6.8.4,1.1.6c1,.3,2.1.9,2.1,1s0,.2.2.2.5.2,1,.5c1.9,1.2,3,1.8,3.5,1.8s1.5-.2,2.7-.4,2.2-.4,2.3-.3.2,0,.4,0c.2-.1.2-.1,1.7-.4.6-.1,1.3-.3,1.5-.4s.4-.1.4,0,.2,0,.3,0,.4-.1.7-.1c.9,0,1.3-.3,1.4-.6.8-4.5.8-4.6.8-5.3q0-.7-.9-.9c-1.3-.4-2.1-.2-4.3,1.1-.4.2-1,.7-1.3,1s-1,.8-1.5,1.1c-.8.4-1.2.5-2.5.5-.8,0-1.6,0-1.7,0-.2-.2-.2-.7,0-1.2.5-.9,2.4-2.7,2.8-2.7s.5-.1.8-.3.7-.3.9-.3c.5,0,.5-.2,0-.2s-.4,0-.4-.2,0-.2-.2-.2-.4-.1-.7-.2-.7-.3-.9-.3-.6,0-.8-.1c-.4-.2-.7,0-.7.3s-.8,1.3-1.3,1.5c-.7.3-1.6.2-1.9-.2-.2-.2-.4-.4-.6-.4s-.5-.3-.7-.5c-.3-.4-.4-.4-.6-.2-.1.1-.3.4-.5.7-.4.5-1.3,1-1.8,1-.8,0-1.9-1-1.8-1.5,0,0,0-.1-.1-.1s-.2-.2-.2-.6c0-.5,0-.6-.6-.5-.4,0-.7,0-1-.2-.2-.2-.5-.3-.6-.4s-.3-.2-.3-.4-.1-.4-.2-.5c-.2-.2-.2-.4-.2-.8,0-.6.4-1.5.5-1.6,0,0,.2-.2.4-.4.3-.3.3-.4-.1-1.2-.6-1.4-.4-2.8.7-3.9.4-.4.6-.5,1.3-.5.8,0,1.5.3,2,.8.3.4.6.1.9-.8.2-.7.9-1.4,1.5-1.4s.3,0,.3-.2c0-.2,1.2-.1,1.7,0,.4.1,1.4,1.2,1.5,1.5.2.8.3,1.8.2,2.2,0,.3,0,.5,0,.6s.6.2,1.1.3c.8.1,1.1.3,1.4.7.6.7.9,2.1.7,2.6,0,.2-.2.6-.3.9-.2.6-.2.6,1.9,1.2.7.2,1.6.4,1.9.5s.8.2,1,.2.6,0,.8.1c.5.1.6-.5.1-.8-.2-.1-.4-.4-.4-.5,0-.3-.6-1.8-.8-1.9,0,0-.1-.3-.2-.6s-.2-.5-.3-.6-.2-.2-.1-.3c0-.1,0-1.3-.3-3.1,0-.6.3-1.8.6-2.1.2-.2.3-.2.4.1,0,.2.6.7,1.1,1.2s.9,1,1,1.2.2.3.3.3.2.1.2.2,0,.3.2.3.2.2.2.3,0,.3.1.4c.2.3.5,1.4.5,1.9,0,.5.2,1.7.3,2.3,0,.1,0,.4.2.6s.2.4.2.6c0,.1.1.3.1.5,0,.3.8,1,1,1s.2.5-.1.5c-.2,0-.7,0-1.2-.2s-1-.3-1-.2-.6,0-1.2-.3-1.3-.3-1.5-.3-.8-.1-1.2-.3-1.1-.3-1.3-.4-.6-.1-.7-.2-.2-.1-.3-.1-.2,0-.2,0c0,0-.2,0-.3,0s-.7-.2-1.2-.4c-1.2-.5-1.5-.3-.9.5.3.5.5.6,1.2.7.4,0,1,.2,1.3.3s.5.2.6.2.3,0,.5.2c.3.2,1.1.4,1.6.5,0,0,.3,0,.6.1s1.2.2,2.2.4l2.4.3c.3,0,.7.2.8.3.1.1.2.1.2,0s0-.3.2-.5c.3-.4.6-1.5.6-2.3s.3-1.2.7-1.2.2,0,.1-.2c0-.1.2,0,.6.3.7.5,1.2,1.3,1.2,1.8s.2.4.4.6.4.5.4.5.1.2.3.4.3.4.3.6.2.5.6.7c.5.3,1,.9,1,1.4,0,.4.3.7.7.8.2,0,.3.2.3.3s.2.6.6,1.2l.7,1-.2,1c-.1.5-.2,1.1-.3,1.2s0,.4.2.6.4.5.4.7.2.3.2.3c.1,0,.6,1.1.7,1.5,0,0,.2.5.5,1,.5.9.5,1,.2,1.4-.1.3-.3.7-.3.9,0,1.1.8,3.9,1.1,3.9s0-2.9-.3-3.8c-.3-.9-.3-1.3,0-1,.2.1.7,1.1.7,1.4,0,0,0,.2.2.3.2.2.2,4,0,4s-.1.3-.1.6c0,1.5-.5,1.5-.8.1,0-.5-.2-.9-.3-.9s-.1-.2-.1-.3-.1-.4-.2-.4-.3-.5-.4-.9-.2-.8-.3-.8-.3-.5-.6-1.2-.5-1.3-.7-1.4-.2-.3-.2-.4c0-.3-1.2-2.1-1.4-2.2-.1,0-.3,0-.3.3s-.3.6-.6.9-.6.9-.8,1.4c-.4.8-.4.9-.1,1.4.1.3.5.8.8,1.1s.6.6.6.7.2.3.4.6.4.5.4.6.2.4.5.6.5.5.5.7.2.5.4.7.4.5.4.7.1.3.2.3.2.2.2.3.2.5.5.9.5.7.5.8.1.3.2.4.2.3.2.5.1.4.2.4.2.2.2.2.2.5.5.9c.3.4.5.9.5,1.1,0,.5.3.3.4-.2h0ZM51.1,88.6c0,0,.2-.3.3-.5.1-.4-.1-.6-1.2-.9-.3-.1-.7-.3-.8-.3s-.3-.1-.5-.1-.4,0-.4-.2-.1-.2-.3-.2-.3,0-.4-.2-.2-.2-.3-.2-.8-.3-1.5-.6c-2.5-1.3-2.5-1.2-3.7-1-.9.2-1.1.3-1.2.5,0,.2,0,.3.2.3h.5c.1,0,.3.2.4.3s.3.2.5.2.5.1.7.3.6.4.9.5c1.3.5,2.8,1.1,3.4,1.4.2.1.7.2,1,.2s.8.1,1.1.2c.5.3,1.2.3,1.4.1h0ZM58.9,87.5c1.6-.2,1.5-.2,2.7,0,.9.1,2.6-.2,2.6-.5s0-.1.2-.1c.2,0,2-1.5,2.1-1.7.1-.3-.4-.3-.7,0-.5.5-1.5.9-2.6.9-.9,0-1.1,0-1.3-.3-.1-.2-.2-.3-.2-.2s-.1,0-.2-.2c-.3-.4-.9-.5-5.1-.6h-2.4c0,0-.2.3-.2.3,0,.2-.2.5-.3.6-.2.4-.5,1.1-.5,1.4,0,.4.5.7,1.3.8.3,0,.7,0,.9.1s.8,0,1.3-.1,1.6-.3,2.3-.4h0ZM52.2,86.8c.2-.2,1.9-3.8,2.1-4.6.1-.4,0-.4-.3-.3-.2,0-.7.1-1.1.2-1.3.2-1.3.2-1.3,1.8,0,.7,0,1.5.1,1.7,0,.3,0,.4,0,.5-.4.2-.5.2-.4-.3.1-.5,0-.5-.6-.1-.4.3-.4.3-.4-.2s0-.5.2-.5c.1,0,.1-.2,0-.3s-.3,0-.5.1c-.2.2-.4.3-.4.2s.2-.4.6-.8.8-1,1-1.2l.3-.5h-.4c-.2.2-.9.4-1.6.5l-1.3.3v.7c-.2.4-.3.7-.4.7s-.1,0-.1-.2-.2-.2-.5-.2-.5,0-.4-.2c0-.3,0-.3-.8-.3-.7,0-.7.3.2.7.5.2.9.4,1,.4s.2,0,.2.1.4.3.8.5c.5.2,1.2.5,1.6.8s.9.4,1,.3.2,0,.2.1.1.2.2.1c.1,0,.2,0,.2,0,0,.2.6,0,.8-.2h0ZM32.7,86.1c.7-.1,1.5-.4,1.9-.6s.7-.3.7-.2,1.5-.3,3.3-.7c1.8-.5,3.5-.9,3.8-.9s.9-.2,1.1-.3.8-.2,1.2-.2c.9,0,2-.3,3.4-.7.6-.2,1.4-.4,1.7-.4s.8-.2,1-.2.6-.2.9-.2.5,0,.5-.1c0-.1.7-.3,1.7-.4.5,0,.8-.3,1.1-.9.3-.6.1-.9-.3-.7-.2,0-.7.2-1.2.3-.8.1-1.6.3-6.1,1.2-.7.1-1.4.3-1.6.3s-.4,0-.6.1c-.1,0-1.2.3-2.4.6-2.5.6-3,.7-4,1-.8.3-2.6.7-3.4.9-.3,0-.6.1-.7.2-.6.2-1.9.6-2.3.6s-.4,0-.5.2-.3.2-.5.2c-.5,0-.8.3-.8.8s0,.8,1.9.4h0ZM63.6,85.4c.2-.1.2-.2,0-.4-.2-.2-.7,0-.8.3,0,.2.4.3.8,0ZM69.8,84.1c0,0,.7,0,1.3,0s1.2,0,1.3,0,.5,0,.8,0c.4,0,.8,0,.9-.2.4-.4-.2-.6-1.8-.6-3.3,0-10.7,0-12.7-.3-.4,0-1.7-.1-2.8-.2h-2c0-.1-.2.4-.2.4,0,.3-.1.5,0,.6s2,.1,4.4.2,4.3.1,4.3.1c0,0,6.1,0,6.6,0ZM32.9,83.9c.1,0,.3,0,.5-.1.2,0,3.2-.8,3.6-.9.1,0,.3,0,.5-.1.4-.1,1.5-.4,3-.7.7-.1,1.4-.3,1.6-.4s.8-.2,1.6-.4,1.7-.3,2-.4c.4,0,.9-.2,1.2-.3s.7-.1.9-.2.8-.2,1.3-.3.9-.1,1.1-.2c.4-.1.9-.2,2-.4.6,0,1.4-.3,1.9-.4s1.1-.3,1.3-.3c.5-.1,1.4-1.4,1.4-2s0-.4.2-.5.1-.2,0-.2,0,0,.1-.2.3-.5.4-.9c0-.6,0-.7-.2-.7s-.3-.1-.4-.2-.2-.2-.4-.2-.7-.3-1.2-.7-1-.7-1.1-.7-.3-.1-.3-.2-.2-.2-.3-.2-.5-.2-.8-.5-.7-.5-.9-.5-.2,0-.2-.1-.2-.2-.5-.4-.5-.3-.5-.4,0-.1-.1-.1-.5-.2-.9-.5l-.8-.5h-2.8q-3.1,0-4.1,1c-.2.2-.5.4-.6.4s-.2.1-.3.2-.2.2-.3.2c-.2,0-3.5,3.5-4.1,4.3-.2.2-.5.7-.7,1.1s-.7.9-.9,1.2-.8,1.2-1.1,1.9-.7,1.3-.8,1.3,0,0,0,.2,0,.2,0,.2-.2,0-.2.2-.2.4-.4.7-.4.6-.4.7-.1.4-.2.6-.2.6-.2.8c0,.3,0,.3.4.2.2,0,.5-.1.7-.2h0ZM73.2,82.5c.3,0,.3-.2.3-.5,0-.2-.1-.4-.2-.5s-.2-.2-.2-.4-.1-.4-.2-.6-.2-.3-.2-.5,0-.3-.2-.4-.1-.2,0-.2.1,0,0-.3c-.2-.2-.2-.3-.2-.3s0,0,0-.2c-.2-.2-1.9-.2-7.4-.2h-7.2s-.5.5-.5.5c-.5.5-1.6,2.4-1.6,2.8s.6.5,2.2.5c.8,0,1.4,0,1.5.1s1.3,0,2.7,0c2.4,0,7.6.2,7.7.2,0,0,3.3,0,3.6-.1h0ZM66.2,80.7c-.3-.2-.3-.2,0-.5.2-.2.4-.2.6-.2.4.1.4.4,0,.7-.2.2-.4.1-.6,0h0ZM71,80.7c0-.4.5-.6.9-.4.2.1.2.2,0,.4-.3.4-1,.3-1,0ZM68.5,80.7c-.3-.2,0-.6.3-.7.4-.1.6.2.4.6-.2.3-.4.4-.7.2ZM56.7,80.3c0-.2.1-.4.2-.4.3-.1.5.4.2.6-.3.2-.5.2-.5-.2h0ZM58.9,80.3c0-.2.1-.4.2-.4.4-.1.7,0,.6.3,0,.1,0,.3,0,.3s-.2,0-.4,0-.4,0-.4-.3h0ZM61.3,80.3c0-.4.3-.5.6-.3.3.2,0,.7-.3.7s-.3,0-.3-.4ZM63.7,80.5c-.1-.2.2-.7.5-.7s.6.4.4.6c-.2.3-.7.3-.8,0ZM98.4,81.6c2.1-.2,3-.3,3.5-.5.3,0,.6-.2.8-.2s.4-.1.5-.2c.1-.2.1-.3-.1-.6-.2-.2-.3-.4-.4-.5,0-.2-.3-.2-1.2,0-.6.1-1.4.2-1.8.3-.4,0-1.1.2-1.7.3s-1.7.3-2.6.4c-2.1.3-2.3.4-1.6,1.1.3.3.5.3,1.6.2.7,0,1.9-.2,2.8-.2h0ZM93.6,80.2c0,0,.3-.1.5-.2s1-.1,1.7-.2,1.7-.2,2-.3.9,0,1.2-.1.9-.1,1.4-.2c1.5-.2,1.6-.2,1.5-.7,0-.2-.2-.5-.4-.7s-.3-.4-.3-.5,0-.2-.2-.2-.2,0-.2-.2-.2-.4-.4-.6-.4-.5-.4-.6-.1-.3-.3-.4-.3-.3-.3-.4,0-.3-.1-.3-.4-.4-.7-.9-.7-.9-.8-1.1c-.5-.5-.9-1.1-.8-1.1,0,0,0-.3-.2-.5-.3-.5-.4-.5-1.8-.3-.5,0-1.3.2-1.6.2s-.8.1-1,.2c-.8.2-1.8.3-4.9.8-.7,0-1.4.2-1.6.3-.4.2-.4.2.7,1.2,1.2,1.2,4.5,4.6,5.6,6,.7.9,1.1,1.1,1.4.8h0ZM92.9,77.9c0-.2,0-.4-.1-.5-.1-.2-.2-.2-.4,0-.3.3-.3.4-.5-1.2-.1-.9,0-1.2,0-1.4.3-.2.7,0,.7.3s.1.3.2.3.2.1.2.3,0,.4.2.5c.3.2.6.9.5,1,0,0-.2.2-.3.2s-.2,0-.2.2c0,.1,0,.3-.1.4-.2.2-.2.1-.2-.1h0ZM96.2,77.3c0-.6-.1-1.3-.2-1.7-.4-1.6-.2-2.2.6-1.8.4.2,1.6,1.5,1.6,1.7,0,0,0,.1,0,.1s.2.2.4.5.3.5.4.4.1,0,.1,0c0,.3-.6.2-1-.2-.5-.5-.8-.3-.6.3.1.4.1.5,0,.6-.2.2-.4,0-.4-.3s-.1-.2-.2-.2-.2.2-.2.5c0,.6-.5.7-.5.1h0ZM99.5,77.3c0,0,0-.2.2-.2s.2,0,.2.2,0,.2-.2.2-.2,0-.2-.2ZM59.6,77.5c.3,0,2.9,0,5.8,0,3.4,0,5.3,0,5.3,0s.1-.1.3,0c.2,0,.3,0,.3-.2s0-.3-.2-.3-.2-.1-.2-.2c0-.3-.1-.3-6.1-.3-1.9,0-4.2,0-5.1,0-1.5-.1-1.6,0-1.9.2-.5.4-.3.9.2,1,.3,0,.6,0,.7,0s.4,0,.7,0h0ZM106.8,75.5c.3-.9.3-1.1,0-1.5-.2-.2-.3-.4-.2-.5s0-.3-.2-.3-.3-.4-.4-.8-.3-.7-.4-.8-.2-.2-.2-.3c0-.4-.5-.2-.7.2-.2.6-.2,1.1.1,1.3.1.1.2.3.2.4s0,.3.1.5.4.8.6,1.4.6,1.1.6,1.1.2-.3.4-.7h0ZM101.9,75.5c.5-.6,1.3-2.2,1.3-2.6s0-.3.2-.4c.3-.3,0-.7-.7-.9-.4-.1-.9-.4-1.2-.5s-.6-.4-.8-.5c-.6-.3-.9-1-1-2.3-.1-.9-.1-1.7,0-2.4,0-.6.2-1.2.2-1.4s0-.4.2-.5,0-.3,0-.3,0-.4,0-.7c.1-.4.1-.6,0-.8,0-.2-.2-.5-.2-.8,0-1.2-.8-2.4-1.4-2-.2.2-.2.3.3.7.5.4.6.6.6,1.2,0,.9-.2,1.2-.9,1.3-.6,0-.7.3-1,2.3,0,.7-.2,1.6-.3,2.1-.3,1.5-.2,2.9.2,3.4.2.3.3.5.3.6,0,.1.2.3.6.8.1.1.3.5.4.8s.3.7.5.8.5.7.9,1.2.7,1,.8,1.1.1.2.1.3c0,.4.3.3.7-.3h0ZM70.6,75.4c0,0,0-.3.1-.4,0-.1,0-.3-.1-.4-.1-.1-.3-.4-.3-.7-.1-.7-.2-1-.4-1.4-.1-.2-.2-.5-.2-.8s0-.5-.1-.5c-.1,0-.2-.5-.4-1.9,0-.3-.2-.6-.3-.6s-.1,0,0-.2c.1-.1.1-.3,0-.5-.1-.2-.2-.4-.2-.5,0-.5-.5-.1-1.7,1.1-1.6,1.7-2.7,2.9-2.7,3s-.2.3-.4.5-.4.4-.4.5c0,0-.9,1.4-1.1,1.6,0,0-.2.3-.3.7l-.3.6h.7c1.3.3,8,.2,8,0h0ZM61.1,74.6c.2-.2.4-.5.6-.8s.4-.6.6-.7.5-.6.8-1c.5-.7,1-1.2,3.6-4.1.5-.5,1-1.2,1.3-1.5.4-.5.5-1.1.3-1.1s-.1-.1-.1-.2c0-.5-.3-.4-1.1,0-.9.6-3.7,3.4-3.7,3.8s-.3.5-.7.9-.9,1.1-1.1,1.6c-.5,1-.8,1.3-1.3,1.5-.3.1-.6,0-1.9-.7-.8-.5-1.5-.9-1.6-.9s-.2,0-.2-.1-.3-.3-.6-.4-.8-.4-1.1-.6-.6-.4-.7-.4c-.1,0-.4-.2-.7-.4-.3-.2-.8-.3-1.5-.4-1,0-1.1,0-1,.3,0,.2.2.3.3.3s.3,0,.4.2.5.4.8.5.7.4.8.5c.3.3,2.4,1.7,2.5,1.7s.2.1.3.2c.2.2,1.4.9,1.6.9s.3.2.6.4.5.3.6.3.2,0,.3.1.4.2.5.2.3,0,.4.2c.2.3.5.2.8-.1h0ZM60.5,71.8c.3-.2.5-.5.5-.7s0-.2.2-.2.2,0,.2-.2.3-.5.6-.9.8-1,1.1-1.3,1-1.2,1.7-1.9,1.2-1.4,1.2-1.5.1-.2.2-.2.3,0,.3-.2c.1-.2-.2-.6-.5-.6-.1,0-.6,0-1.1-.1-.8-.1-.8,0-1.4.5-.5.6-1.6,2.2-1.6,2.5,0,.2-1,1.3-1.4,1.6-.3.2-.8.3-2.1.3-2.6,0-3.6,0-3.6.2,0,0,0,.1,0,.1s.2,0,.2.1c.1.2,1.9,1.3,2,1.3s.5.3,1,.6c.9.7,1.6,1,1.9,1,.1,0,.4-.2.7-.4h0ZM104.9,69.5c.3-.4.4-1.2.3-1.6-.1-.3-.2-.3-.4,0-.2.2-.3.4-.3.5s0,.5-.1.8c-.1.6.2.7.6.2h0ZM103.9,68.5c.4-.8.5-2.5.2-2.7-.2,0-.6,1.1-.8,2,0,.3-.2.6-.2.6,0,0,0,.3,0,.5.2.5.3.5.7-.5h0ZM101.2,68.9c0-.2.1-.7.2-1s.1-.9.2-1.2c.3-1.5.3-3.1,0-3.6-.1-.3-.3-.6-.4-.7-.2-.1-.3.3-.2.8,0,.2,0,.8-.2,1.4-.2.6-.3,1.5-.3,2.1,0,1,0,1.1.3,1,.3-.1.4.2.2.5-.2.2,0,1.1.2,1.1s.2-.2.2-.4h0ZM102.4,68.6c.7-1.5,1-3.7.5-4.3-.4-.5-.5-.4-.5.6s0,.9-.1,1c-.1.1-.2.3-.3,1.3,0,.4,0,.8,0,.9s.1.3.1.6c0,.6,0,.6.4,0h0ZM40.1,67.9c0,0,0-.2,0-.2s.2,0,.2.2c0,.2.1.2.2,0,0-.1.2-.2.3-.1s.2,0,.4,0c.2-.1.2-.2,0-.2-.2,0-.4,0-.5,0-.1,0-.2-.1,0-.5.1-.6,0-.6-.5,0-.4.5-.5.8-.2.9.3.1.3.1.2,0ZM44,67.9c.2-.1.3-.3.2-.7-.1-.6-.7-1.7-.9-1.7,0,0-.2.4-.2.8,0,.6-.2.8-.4.9-.2,0-.3,0-.2-1,0-1.2-.1-1.5-.6-.8-.5.7-.5,1.1.1,1.9.5.7.6.7,1.1.7.3,0,.7,0,.9-.1h0ZM47.4,67.8c.1,0,.2-.2.1-.3-.2-.3.1-.2.5.1.2.2.5.3.6.3.3,0,1.3-.5,1.7-.9.2-.2.3-.9,0-1,0,0-.2-.2-.2-.4s-.1-.3-.2-.3-.3,0-.3-.2c-.1-.3-.6.4-.6.9s-.2.8-.4.6c0,0,0-.5,0-1,0-1-.2-1.1-.8-.5-.4.4-.5,1.2-.2,1.4.2.1.2.7,0,.7-.2,0-.7-.4-.7-.6,0-.4-.6-.2-1.2.4-.6.6-.6.6-.3.8.3.2,1.6.3,1.9,0h0ZM51,67.5c-.2-.2-.5,0-.3.3,0,.1.2.1.3,0,0,0,.1-.2,0-.3ZM54.3,67.6c.4-.4.4-.7,0-1.3-.4-.7-.8-.6-.7.2,0,0,0,.2-.2.3s-.2.3-.2.4,0,.2-.1.2c-.1,0-.1-.6,0-1.5,0-.4-.2-.5-.7-.2-.5.4-1,.9-1,1.2,0,.1.1.4.3.6.4.5,2,.5,2.5,0h0ZM57.4,67.6c.2-.2.3-1.3,0-1.4s-1.1.2-1.1.4-.2.2-.4.3c-.6.2-.5.8.1.9.6,0,1.1,0,1.3-.2ZM59.7,67.4c0-.2.1-.5,0-.6s-.1-.7-.2-1.1c-.1-1.3-.4-3.4-.5-3.7,0-.1-.1-.7-.1-1.1,0-1.2-.4-2.8-.6-2.8,0,0,0,0,0-.1.2-.1.2-.5,0-2.2-.2-2.7-.2-6.9,0-7.5,0-.3.2-.5.1-.5-.1,0,.5-1.9.8-2.3.2-.3.3-.5.3-.5-.2,0,1-2.3,1.5-2.8.2-.3.4-.5.4-.6,0-.1.9-.6.9-.5,0,0,.2,0,.3-.2.3-.3,1.4-.8,1.9-.8.4,0,.5-.4.1-.5-.4,0-1.4.1-2.1.5-.3.1-.6.3-.8.3s-.4.3-.4.5c0,.2-.3.5-.7.7-.3.2-.7.4-.8.6-.4.3-1.1,1.7-1.1,2s0,.3-.2.3-.2.1-.2.3,0,.4-.1.4c-.1,0-.2.3-.4,1.6,0,.2-.2.6-.3.9s-.2.8-.2,1.2,0,1.3-.2,2c-.2,1.5-.2,4.3,0,5.2,0,.3.1,1,.1,1.5,0,1.6.3,3.8.4,4.4,0,.3.1.9.1,1.2s0,.9.2,1.2.2.9.2,1.3,0,.8.2.8.1.3.1.5,0,.4.2.5.1.2,0,.3,0,.2.3.2.5-.1.6-.3h0ZM61.2,66.6c.3-.4,1.8-2.7,1.8-2.8s-.3,0-.7,0c-1,0-1.2,0-1.6-.5-.3-.4-.6-.5-.6-.2s0,.2.2.2c.2,0,.2.1,0,.2s-.1.3,0,1c.1.5.2,1.1.2,1.2s0,.5,0,.7c0,.4.4.5.7,0h0ZM45.8,66.2c.5-.5.6-.6.5-1.2-.1-.6-.7-1.6-.8-1.5,0,0,0,.3-.1.6,0,.8-.4,1.7-.6,1.5,0-.1-.1-.7-.1-1.3,0-1.3-.2-1.5-.6-1.1-.4.5-.5.8-.3,1,.1.1.2.3.1.3s0,.2.2.3.2.3.2.4,0,.4.1.5.2.4.2.6c.1.4.5.3,1.1-.3h0ZM56.8,65.5c.6-.6.7-.7.6-1.3,0-.7-.6-1.7-.8-1.5,0,0-.2.5-.3,1.1-.3,1.2-.6,1.4-.5.3,0-.5,0-.9,0-1,0,0-.4,0-.8.4-.6.5-.7.6-.6,1,0,.3.3.9.4,1.3.3.8.3.8.8.6.3-.1.8-.5,1.2-.8ZM52.3,65.2c.8-.7.9-.9.9-1.3,0-.3,0-.5-.1-.5s-.2-.2-.3-.5c-.3-.8-.6-.5-.9.8-.3,1.5-.5,1.3-.5-.5,0-1.2,0-1.4-.2-1.4s-.3,0-.3.1-.3.3-.6.5c-.8.5-.9.9-.7,1.5.1.2.2.5.3.5s.2.3.3.6c.3.5.6,1,.8,1.1,0,0,.5-.3,1.1-.8h0ZM88.3,65.6c.4-.1.8-.3.9-.4.6-.6,1.6-1.3,1.8-1.4.1,0,.1-.1,0-.2-.1-.2-1.4.3-2.1.8-.7.5-.7.5-.7,0,0-.2.2-.4.4-.6s.3-.2.3-.3c-.1-.1,2.3-1,2.8-1s.3,0,.3-.1-.2-.1-.4-.1-.4,0-.4.1-.2,0-.4,0c-.6,0-2.5.5-3.3.9-.6.3-1.4,1.2-1.7,1.7,0,.1,0,.3,0,.5.2.3,1,.2,2.3-.1h0ZM48.1,63.9c.8-.8.8-1,.3-1.9-.3-.5-.6-.2-.8.8-.1.5-.3.8-.4.8s-.2-.3-.2-1.5c0-1.7,0-1.8-.9-1-.5.6-.6,1.1-.1,1.7.2.2.3.5.3.5s.1.4.2.7c.3.8.6.7,1.6-.2h0ZM55.3,62.4c.9-.9.9-1,.7-1.4-.1-.3-.3-.7-.4-1-.1-.3-.3-.5-.5-.4-.2,0-.4.2-.4.3s0,.6-.1,1c0,.7-.5,1.6-.6,1.2,0-.2,0-1.4,0-1.9,0-.6,0-.7-.8-.3-.9.4-1,.9-.4,1.7.2.3.4.6.4.8,0,.4.5,1,.8,1s.7-.4,1.2-.9h0ZM44.2,62.2c.5-.5.7-1.2.3-1.2s-.3.2-.3.4-.3.5-.6.8c-.5.4-.7,1.3-.2.8.2-.1.5-.5.8-.8h0ZM62.7,63c0,0,0-.2.2-.2.3,0,.6-.9.5-1.1,0,0-.3-.2-.6-.2-.4,0-.5,0-.4.4.1.7,0,.9-.5.7-.5-.2-.6-.1-.5.3.1.3,1.2.4,1.2,0h0ZM60.9,62.6c.1.2.3.2.4.2.1-.1-.4-.8-.6-.7,0,0-.2,0-.4-.3s-.3-.3-.4-.3c-.2.1,0,.7.2,1.1.1.2.2.2.4,0,.2-.2.2-.2.4,0ZM50.3,61.7c.5-.5,1-1.1,1.1-1.2,0-.2,0-.6-.2-.9-.5-1-1-.8-1.2.4-.2,1.1-.3.8-.3-.5,0-1,0-1.2-.2-1.2s-.3,0-.3.2,0,.2-.2.2c-.3,0-1,.8-1.1,1.2,0,.5.2,1.1.3,1.1s.1,0,0,.2,0,.4.3.7.4.6.4.7c0,.3.2.2,1.2-.8h0ZM79.2,61.8c0-.1.2-.5.2-.9v-.7c.1,0-.2.4-.2.4-.5.6-.6,0,0-.9.5-.9.3-1-.4-.3-.5.5-.7.5-.5,0q.1-.5-.2-.1c-.7.8-.7,1.1-.4,2.1.2.6,1.4,1,1.6.5h0ZM84.8,61.8c.5-.5.6-1.4.3-2.1-.2-.5-.5-.6-.5-.2s-.3.5-.6.2c-.3-.4-.6-.3-.5,0,.2.5-.3.4-.9-.2-.5-.6-.6-.5-.3.3.1.4.1.5,0,.6-.1,0-.2.2-.2.3,0,.4.9,1.1,1.5,1.3.4.1.8.2.8.2s.2-.2.5-.4h0ZM98.8,61.8c.3-.5.3-1,0-1.1-.2,0-.4.2-.5.9-.1.6.2.6.6.1ZM66,61.3c.2-.1.3-.3.4-.3.3,0,1.3-.6,1.7-1,.5-.5.5-.9.2-1.5-.1-.2-.3-.7-.3-1-.1-.5,0-.8.8-1.3.2-.1.3-.4.4-.6,0-.4,0-.4-.6-.3-.4,0-.8.2-.8.3s-.3.2-.4.2-.3-.1-.2-.4c0-.4.2-.5.5-.6.9-.2,2-.8,2-1.1s-.1-.3-.6-.3c-.9,0-1.4-.4-1.3-1,0-.2.2-.6.3-.8.2-.3.3-.3.4.6,0,.4.1.5.7.4.3,0,1-.1,1.6-.1s1,0,1.1-.1c.2-.2-.1-.8-1.2-1.9-.7-.7-1.1-1.3-1.1-1.5,0-.2,0-.4-.1-.5-.2-.2-.4-1.2-.4-1.8,0-.6,0-1.3-.3-2.9,0-.3-.3-.7-1.3-1.8-.7-.7-1.3-1.2-1.7-1.2-.7,0-2.5.7-3.1,1.2-.3.3-.7.5-.7.5s-.1.1-.1.2,0,.2-.1.2-.4.4-.7.9c-.5.9-.9,2.2-.6,2.3,0,0,0,.5-.1.9-.2.8-.2,1.8,0,3.1,0,.4.5.6.7.3.2-.4,1.2-.2,1.7.3.4.4.5.5.4,1.3,0,.5-.1.9-.2.9-.1,0-.2.2-.2.3s-.1.3-.2.4c-.3.2-.3,2.1,0,2.2,0,0,.1.2,0,.4,0,.2,0,.5.2.7.2.2.6.8.9,1.2.4.7.5,1,.5,1.4,0,.3,0,.5,0,.5.2,0,.6,1,.4,1.2,0,0,0,.3,0,.4.2.2.3.2.9,0,.4-.1.8-.3,1-.5h0ZM65.8,49.7c0-.1,0-.3.2-.3s.2-.2.2-.3-.2-.2-.8-.2-.8,0-.9.4c-.1.6-.6.5-.9-.1-.2-.4-.2-.8-.1-1.7.1-1,.2-1.2.8-1.9.7-.9.9-1,1.6-1s.5.1.7.5c.1.3.3.5.4.5s.1.1.1.3,0,.3-.2.3-.1.2,0,.4c.2,1,.1,2.2-.2,2.8-.4.6-.8.8-.8.4h0ZM65.4,47.5c0-.3,0-.4-.1-.4s-.2,0-.4,0c-.2,0-1,.8-1,1s.2,0,.4,0,.4,0,.5.1c.2.3.6-.3.6-.8h0ZM64.8,46.4c0,0,.3-.1.5-.2.9-.1,1.5-1.2.6-1.1-.3,0-1.4,1-1.4,1.3s.3,0,.4,0ZM61.7,45.6c0-.3.7-1.4.8-1.4s.3-.1.4-.3c.3-.3.6-.5,1.6-1.1.4-.2.8-.3,1.4-.2,1,0,1.4.3.7.5-1.6.3-2,.5-2.7.9-.4.2-1.1.7-1.4,1.1-.5.6-.9.8-.9.6h0ZM61.7,61.5c.3-.3.2-.5-.3-.5s-.5,0-.6-.2-.2-.1-.2,0-.2,0-.2-.2-.2-.3-.3-.3-.1.1.1.5c.6.8,1.2,1,1.5.6ZM80.5,60.1c0-.3,0-.3-.2.1-.1.3-.2.6-.2.8,0,.3,0,.3.2-.1.1-.3.2-.6.2-.8ZM46.2,60.4c.7-.7.7-.8.6-1.4,0-.4-.2-.8-.4-.9-.2-.2-.3-.2-.5.1-.2.2-.3.5-.3.6s-.2.4-.4.7c-.4.4-.5,1.2-.2,1.2s.2.1.2.2c0,.4.2.3,1-.5h0ZM56.9,58.9c-.1-.9-.2-1.6-.3-1.7-.1-.2-.9.3-1.1.7-.2.3,0,1.1.3,1.1s.2.1.2.3.1.5.3.7.3.6.4.8c.1.3.1.3.3,0,.1-.2.1-.8,0-1.9h0ZM82,60.3c0-.1,0-.2,0-.2s-.2.1-.2.2,0,.2,0,.2.1-.1.2-.2ZM62.3,59.9c.9-1,.3-2.2-.7-1.3-.2.1-.2.2,0,.3.2.1,0,.8-.2.8s-.1,0-.1-.2c0-.2-.8-.1-.9,0,0,.2.7.5,1.2.5.2,0,.5-.1.7-.3h0ZM52.8,59.3c.3-.3.6-.5.7-.5s.3-.2.5-.4c.3-.5.3-1.3-.1-2-.2-.3-.3-.4-.5-.2-.1.1-.2.3-.2.5,0,.5-.5,1.9-.6,1.7,0,0,0-.4,0-.8.2-.9.2-1.9,0-2,0,0-.2,0-.2,0s-.3.3-.6.5-.7.5-.9.7c-.3.3-.3.4.2,1.2.2.5.5.9.5,1s.2.2.3.5c.2.5.4.5,1-.1h0ZM77.2,59c.2-.4.2-.5-.3-.3-.2.1-.4.1-.5,0-.1-.1.2-.6.5-.6s.2-.1.3-.2c0-.2,0-.2-1,0-.2,0-.3,0-.3-.1,0-.3.5-.6.8-.6.2,0,.3,0,.1-.2,0-.1-.4-.2-.6-.2-.4,0-.4,0-.4-.3,0-.2,0-.4-.2-.4-.3-.1-1.1.9-1.1,1.4,0,.4.4,1.7.4,1.5,0,0,.2,0,.4.1.4.3,1.7.2,1.9-.1h0ZM49.3,57.4c.4-.4.4-.4.2-1.1-.4-1.2-.7-1.2-.9,0-.1.7-.2.9-.4.9s-.1-.4,0-1.1c0-.9,0-1.1-.2-1.1s-.2,0-.2.1-.2.2-.5.3-.5.4-.6.7c-.2.4-.1.6.1,1,.2.3.3.6.3.8s.1.4.3.6l.3.4.7-.6c.4-.3.8-.8,1.1-1h0ZM60.2,58.9c-.1,0-.2-.2-.2-.4s-.1-.4-.2-.6-.3-.6-.3-1c0-.4-.2-.7-.3-.7-.3,0-.1,1.3.3,1.7.2.2.3.5.3.7s0,.4.4.3c.2,0,.3,0,.2,0h0ZM93.9,58.4c0-.2-.1-.5-.2-.7s-.1-.5-.2-.7c0-.1-.1-.4-.1-.7s0-.7-.1-1.1c0-.5,0-.7.1-.7.2,0,.6,1.1.6,1.6s.5,2,.7,2.2c0,0,0-.4,0-1.1,0-.7-.1-1.4-.1-1.6s0-.4-.1-.4-.1-.1-.1-.3,0-.5-.2-.8-.2-.5-.2-.5,0-.1-.1-.2-.4-.5-.8-1-.7-.9-.8-.9-.2-.1-.2-.3,0-.2-.2-.2c-.3,0-.4,1-.3,1.9,0,.4.1,1,.1,1.4s0,.8.2.8,0,.2,0,.4c0,.3.7,1.7.8,1.8,0,0,.1.2.1.4,0,.3.7,1,1,1s.1-.1,0-.3h0ZM81.3,58c.2,0,.5-.5.7-.9.3-.7.3-.8.1-1.5-.1-.4-.3-.8-.6-.9-.2,0-.4-.2-.4-.3,0-.3-1,0-1.6.3-.6.4-.6.4-.7,1.3,0,.5,0,.9.1.9s.2,0,.2.2.1.3.3.5c.5.5,1.1.6,1.8.4h0ZM80.3,56.2c0-.2.1-.3.3-.3.4,0,.4.5,0,.6-.2,0-.3,0-.3-.3ZM86.2,57.5c.5-.4.5-.6.5-1.5s0-1.1-.2-1.1-.2-.2-.3-.4c-.1-.3-1.4-.7-2.1-.6-.3,0-.7.2-1,.3-.4.3-.5.8-.2.8s.3.1.5.3c.2.2.4.2.9.1.6-.2.6-.1.6.1s0,.3-.2.3c-.3,0-.6.4-.4.6,0,.1.2.2.3.2s.2,0,.3.2c0,.1,0,.2-.4.2s-.5,0-.5.2c0,.9,1.3,1.1,2.1.3h0ZM83.7,55.2c-.1-.2.3-.6.5-.5,0,0,0,.2-.1.3s-.4.2-.4.1ZM60.7,57.4c0-.3-.4-.5-.4-.2s.3.5.4.5,0-.1,0-.3ZM61.8,57.3c0-.2,0-.2-.1-.1-.2.1-.3.4,0,.4s.2-.1.2-.2ZM55.8,56.7c.4-.3.7-.6.7-.6.1,0,0-2.4-.1-2.6,0,0-.2.2-.3.6-.1.4-.3.8-.3.8s-.1.2-.1.4-.1.4-.2.5c-.3.1-.3,0,0-.7.2-.7.3-1.8.2-1.8-.2,0-1.3.7-1.6,1.1-.3.4-.3.4-.1.8.1.2.2.4.2.5s0,.3.3.5.4.5.4.6c0,.2.2.3.4.4,0,0,.3-.2.7-.5h0ZM45.4,56.9c.5-.3.4-1.2-.1-1.2s-.6-.2-.9-.4-.7-.4-.8-.4-.4-.2-.6-.4-.9-.8-1.5-1.3c-.6-.5-1.1-.8-1.1-.7,0,0-.1,0-.2,0,0-.2-.3-.2-.8-.2-1.3.1-1.7.3-2.2.9-.3.3-.8,1.1-1.3,1.6-.9,1.1-1,1.5-.4,1.5.4,0,1.8.1,3.7.3.7,0,1.7.1,2.2.2s1.3.1,1.7.2c1,.2,2,.2,2.2,0h0ZM36.8,55.3c-.2-.2.6-1.1,1.2-1.4.9-.5,3-.4,2.2.1-.1,0-.4.2-.6.2-1.1.1-1.4.3-2,.7-.6.5-.7.6-.9.4h0ZM60.2,55.2c0-1.1-.2-1.4-.3-1.2-.1.1-.2.4-.2.7,0,.5.4,2.1.5,2,0,0,0-.7,0-1.5h0ZM51,55.9c.3-.3.7-.6,1-.7s.5-.4.5-.5,0-.2.1-.2.1-.1,0-.3-.1-.3-.2-.3-.1,0,0-.2c.1-.2,0-.6-.4-.7-.4-.1-.6.1-.6.8,0,.6-.4,1.4-.6,1.4s0-.5,0-1.2c0-.6,0-1.2,0-1.1s-.4.3-.8.6c-.6.5-.7.7-.6,1.1,0,.2.2.4.2.4s.1,0,.1.2c0,.3.5,1.3.6,1.3s.3-.2.6-.5ZM78,56c.2-.1.2-.2-.2-.6-.3-.2-.7-.5-.9-.6s-.4-.2-.4-.3,0-.1.2,0,.4,0,.7-.2c.4-.2.4-.3.2-.4-.2-.2-.1-.2.4-.2.4,0,.8,0,.9.1.3.2.4,0,.3-.5,0-.3-1.3-1.7-1.8-2-.2-.1-.6-.2-.8-.2-1.5,0-2.2,1.5-1.3,3,1,1.6,2.2,2.4,2.9,1.9h0ZM59.2,53.3c-.2-.2-.3.1-.3.7,0,1.3,0,1.4.3.4,0-.6.1-1.1,0-1.1ZM46.4,54.8c0-.2,0-.3-.5-.4-.6-.2-1.2-.8-1.2-1.2s.2-.2.4-.3c.6-.2.8-.6.6-1.1-.3-.5-.6-.6-1.4-.4-1.1.3-1.2,1.6-.3,2.4,1.2,1.1,2.3,1.5,2.6.9h0ZM47.9,54.1c.3-.3.3-.4,0-1-.2-.7-.2-.7-.4-.3,0,.2-.2.7-.3,1-.1.7.1.8.6.3ZM54,53.5c.2-.2.5-.4.6-.4.3,0,.9-.8.9-1.2,0-.2,0-.4-.1-.4s-.2-.2-.3-.4-.2-.4-.3-.4c-.1,0-.2.2-.6,1.3-.3.8-.5.5-.4-.5,0-.8,0-.8-.3-.7-.2,0-.6.3-.8.5-.4.4-.4.4-.2.9.1.2.2.5.2.7s0,.2.2.1c0,0,.2,0,.2.3,0,.4.3.8.5.8s.3-.2.6-.4h0ZM46.5,53.1c-.2-.3-.6.1-.4.4,0,.2.1.2.3,0,.1-.1.2-.3.1-.4h0ZM61.5,53.4c.6-.4.7-1.9.2-2.2-.4-.2-.7,0-.9.3,0,.1-.3.2-.5.2-.5,0-1-.7-1-1.3s-.1-.3-.3-.3-.3,0-.2.8c0,.4.2.8.3.9s.2.2.2.3.3.5.6.8c.6.6,1.2.8,1.6.5h0ZM83.5,52.9c.7-1.3,0-2.8-1.3-3.2-1.5-.4-2.6.2-2.7,1.7,0,.5,0,1,0,1.3v.5c.1,0,.3-.5.3-.5.2-.6.5-.7.5-.2,0,.4.3.8.4.7,0,0,.2-.4.2-.7.1-.6.2-.5.4.3.1.4.4,0,.4-.5s.4-.9.5-.3c0,.2,0,.4,0,.5-.2.1-.2.6,0,.6s.2-.1.3-.3.1-.3.2-.3c.2,0,.2.6,0,.7-.2.1,0,.6.1.6s.3-.3.5-.7h0ZM49.7,52.9c.5-.4,1.7-1.6,1.7-1.8s0-.2-.2-.2-.3-.4-.4-.7c-.3-.7-.5-.7-.7-.2-.1.2-.2.4-.2.4s0,.2-.1.5c-.3.7-.5.6-.4-.2.1-1,0-1.1-.8-.7-.3.2-.7.5-.7.5-.2.2-.2,1.1,0,1.1s.3.4.7,1.2c.2.5.5.6,1.1.1h0ZM46.7,52.2c0,0,0-.4.1-.9s.2-1.1.2-1.6c0-.7,0-.8-.3-.7-.2,0-.3.2-.3.5s-.1.6-.3.8c-.2.2-.3.5-.3.6,0,.2.6,1.4.8,1.4s0,0,0,0h0ZM56.6,51.1c.2-.8.1-1.1-.2-1.2-.3,0-.3-.2-.3-.8s0-.8-.6-.4c-.4.3-.5,1,0,1.6.2.2.4.6.4.8.2.6.6.6.8,0h0ZM52.6,50.5c1.1-.9,1.5-1.4,1.4-1.8,0-.2,0-.5,0-.6s-.1-.2-.3-.2-.2,0-.2-.3c0-.2,0-.2-.1-.2-.1,0-.3.5-.4.9-.3,1.2-.7,1.3-.6.2,0-.4.1-.9.2-1.1,0-.4-.2-.4-.9,0-.8.4-1,.6-.9,1.2,0,.3.2.5.2.6s.1.2.1.3c0,.2.6,1.2.8,1.2,0,0,.3-.2.6-.4h0ZM45.4,49.9c.3-.3.3-.8,0-.8s-.6-.4-.5-.6c0,0,.5-.1,1-.1,1,0,1.5-.3,1.5-.8s-.2-.2-1.7-.1c-1.4,0-1.8.2-2.1.5-.4.3-.4.4-.4,1,0,.9.5,1.3,1.2,1.2.3,0,.7-.2.8-.3h0ZM49.1,48.8c.4-.3.5-.5.5-.8s0-.5-.2-.6c-.1,0-.2-.2-.2-.3,0-.3-.5-.7-.7-.4-.1.1-.5,1.7-.5,2.2s.4.4,1,0ZM55.1,48.4c.1-.1.5-.5.9-.8.4-.3.7-.6.7-.8s0-.3-.2-.3-.2-.2-.3-.4c-.2-.7-.9-.4-1.1.5,0,.3-.2.6-.3.7-.2.2-.5.3-.4,0,0,0,.1-.4.2-.7s.1-.7.2-.8,0-.3,0-.4c-.2-.1-1.3.5-1.3.8,0,.4.9,2.4,1.2,2.4s.3-.1.4-.3h0ZM50.8,47.4c1.1-.6,2.1-1.8,1.7-2,0,0-.2-.3-.4-.7s-.3-.6-.5-.7c-.3-.1-.7.2-.8.8,0,.2-.1.6-.2.9s-.2.5-.2.5,0-.5,0-1.1c.3-1.3.1-1.5-.7-.8-.6.5-.6.6-.6,1,.1.6.9,2.3,1,2.3s.3,0,.5-.2h0ZM43.1,47.2c.4-.1,1.4-.3,2.5-.3,1,0,1.9-.1,2.1-.2.1,0,.2-.3.1-.7,0-.4,0-.6.2-.9l.3-.4-.4-.3c-.2-.2-.5-.3-.6-.3s-.2-.1-.2-.2,0-.2-.2-.1c-.1,0-.2,0-.2-.1,0-.1,0-.2-.2-.3s-.4-.2-.6-.3-.4-.3-.5-.3-.2,0-.2-.2c0-.6-2-2.1-2.8-2.1s-1.1.3-1.9.9c-.3.2-.7.5-.9.6-.7.4-.5.9.3,1,.3,0,.5.1.6.2.1.1,1.2.5,2.4.7.5.1,1,.2,1.1.3.2.2,1.8.7,2.5.8.3,0,.6.2.6.3,0,.2-.7.3-1.1.1-.4-.2-2.7-.8-4-1-1.3-.2-2.3-.6-2.5-.8-.4-.4-1,0-.6.4.1.1.1.3,0,.4s0,.2.1.2.2.1.2.3c0,.4.5,1.4,1,1.9.2.3.4.4.4.4s.2,0,.4.2c.4.3,1,.3,1.8,0h0ZM41.3,46.3c-.1-.1-.2-.1-.2,0s-.2,0-.4-.3c-.3-.4-.3-.5-.2-.8.2-.4.3-.4.6.2.3.5.8.7,1.6.5.5-.1,1.1,0,1.1.1s-1.5.5-2,.5-.4,0-.5-.2h0ZM44,43c-.1-.1-.2-.1-.2,0s-.1,0-.3-.2c-.3-.4-.3-.4-1.3-.2-.6.1-1.1.2-1.2.2-.3,0-.2-.3.2-.4.2,0,.7-.3,1.1-.5.7-.3.8-.3,1.2,0,.4.4,1.1,1.4.9,1.4s-.2,0-.3-.2h0ZM57.8,44.8c.2-.6.4-1.1.5-1.1.3,0,.1-.4-.2-.4-.7,0-2.3,1.1-1.9,1.3,0,0,.2.3.2.4s.1.3.2.3.3.2.3.5c.2.7.5.4.9-1h0ZM54.2,44.9c.8-.5.9-.7.8-1.1,0-.8,0-.9-.2-.9s0-.1,0-.3c0-.2,0-.3-.2-.4-.3-.1-.8.4-.8,1s0,.4-.1.4-.1-.4,0-.9c0-1,0-1.1-.7-.6-.6.4-.8.7-.8,1s1,2.5,1.2,2.5c0,0,.5-.3,1-.6h0ZM49.1,43.1c0-.1-.2-.3-.3-.4s-.7-.5-1-.8-.8-.7-.9-.7c-.3,0-.3-.7,0-.9.2-.1.8,0,.7.3,0,0,0,.2.3.2.3,0,.4,0,.4-.4,0-.6-.4-.9-1.1-.9-1.1,0-1.3.2-1.3,1.1,0,1.3.7,2.3,1.6,2.8,1.2.5,1.3.6,1.5.3.1-.1.2-.4.2-.5h0ZM56.7,43c.3-.3.7-.5.9-.6.3-.1.4-.3.4-.6,0-.2,0-.4-.1-.3s-.1,0-.1-.3,0-.5-.2-.7c-.2-.3-.2-.3-.6,0-.2.2-.3.4-.3.5s0,.2-.1.2-.1-.3,0-.6,0-.7,0-.7-.6.1-1,.4c-.9.5-1.1.9-.7,1.4.1.1.2.4.2.5s0,.3.1.3.2.3.2.6c.1.6.7.7,1.4,0ZM50.8,42.7c.2-.2.2-.4.2-.4-.1-.2-.7.3-.7.5s.2.3.6,0ZM52.5,41.5c.2-.2.5-.5.7-.6.4-.2.5-.8,0-.8s-.3.2-.4.5c-.1.6-.4.7-.4,0s-.2-.5-.8.1c-.5.6-.6.7-.3,1,.2.3.7.2,1.1-.3ZM60.3,40.6c.5-.6.6-1.6.1-1.6s-.3.2-.4.4c0,.4-.3.5-.5.3,0,0,0-.5,0-.9.2-1,0-1.2-.9-.6-1.4.8-1.4.7-.6,2.1.3.7.6,1.2.6,1.1s0,0,.2,0c.2.2.8,0,1.4-.9h0ZM56.4,38.7c.2-.2.3-.4.3-.5,0-.3-.6-.2-.8.2-.2.5-.5.4-.5,0s0-.4-.6-.2c-.9.4-1.2,1-.6,1.7.2.2,1.8-.6,2.2-1.1h0ZM63,38.9c.3-.2.3-.3.2-.5-.2-.3-.4-.3-.8,0-.4.3-.7.2-.4-.2.2-.2.1-.3-.2-.6-.2-.2-.5-.3-.7-.3-.3,0-.3.3.2,1.3.3.5.3.6.8.5.3,0,.7-.2.9-.3h0ZM58.7,37.5c.6-.3.6-.3.3-.5-.1,0-.4,0-.5.2-.3.3-.7.3-.5,0,0,0,0-.1-.3-.1-.2,0-.4.2-.5.3-.1.2-.1.3.1.5.3.2.4.2.6,0,.2-.1.5-.3.8-.5h0ZM111.6,98c0-1,0-2.1,0-2.3s.1.6.1,1.9,0,2.3,0,2.3,0-.9-.1-1.9ZM111.7,94.3c0-.4,0-.6,0-.4s0,.5,0,.7,0,0,0-.4ZM111.7,92.4c0-.6,0-.9,0-.6s0,.8,0,1.2,0,.1,0-.5ZM111.7,89.8c0-.3,0-.4,0-.3s0,.3,0,.5,0,0,0-.2ZM111.7,88.8c0-.2,0-.3,0-.2s0,.2,0,.3c0,.1,0,0,0,0ZM111.7,86.2c0-1,0-1.5,0-.9s0,1.4,0,1.9,0,0,0-.9ZM111.7,82.8c0-.2,0-.3,0-.2s0,.3,0,.4,0,0,0-.2ZM111.7,81.5c0-.2,0-.3,0-.2s0,.3,0,.4,0,0,0-.2ZM111.7,80.5c0-.2,0-.3,0-.2s0,.3,0,.4,0,0,0-.2ZM111.7,79.7c0-.2,0-.3,0-.2s0,.2,0,.3c0,.1,0,0,0,0Z"/>
      <path class="cls-2" d="M22,42.8h-.5c-4.1,0-7.3-1.4-9.5-4.1s-3.4-6.5-3.4-11.4c0-4.9,1.1-8.7,3.4-11.4,2.3-2.8,5.4-4.1,9.4-4.1,4,0,7.1,1.4,9.4,4.1,2.2,2.7,3.4,6.6,3.4,11.5,0,3.4-.6,6.3-1.8,8.7-1.2,2.4-2.9,4.3-5.1,5.5l5,6.8h-6.1l-4.1-5.5M21.4,17.3c-1.9,0-3.5.9-4.5,2.6s-1.6,4.2-1.6,7.4c0,3.2.5,5.7,1.6,7.4,1.1,1.7,2.6,2.6,4.6,2.6s3.5-.9,4.6-2.6,1.6-4.2,1.6-7.3c0-3.2-.5-5.6-1.6-7.4s-2.6-2.6-4.6-2.6"/>
      <path class="cls-2" d="M116.7,146.1h.5c4.1,0,7.3,1.4,9.5,4.1s3.4,6.5,3.4,11.4c0,4.9-1.1,8.7-3.4,11.4-2.3,2.8-5.4,4.1-9.4,4.1-4,0-7.1-1.4-9.4-4.1-2.2-2.7-3.4-6.6-3.4-11.5,0-3.4.6-6.3,1.8-8.7,1.2-2.4,2.9-4.3,5.1-5.5l-5-6.8h6.1l4.1,5.5M117.3,171.6c1.9,0,3.5-.9,4.5-2.6s1.6-4.2,1.6-7.4-.5-5.7-1.6-7.4c-1.1-1.7-2.6-2.6-4.6-2.6s-3.5.9-4.6,2.6-1.6,4.2-1.6,7.3c0,3.2.5,5.6,1.6,7.4s2.6,2.6,4.6,2.6"/>
      <path class="cls-3" d="M13.6,48.8c-.8,0-1.7.2-2.7.6-10.6,8.2,3.7,21.4,9.8,32.8h.2c6.7-12.4,19.3-26,9.6-32.8-7.7-3.5-9.7,8.1-9.8,8.5,0-.4-1.6-9.2-7.1-9.1h0Z"/>
      <path class="cls-3" d="M125.3,140c.8,0,1.7-.2,2.7-.6,10.6-8.2-3.7-21.4-9.8-32.8h-.2c-6.7,12.4-19.3,26-9.6,32.8,7.7,3.5,9.7-8.1,9.8-8.5,0,.4,1.6,9.2,7.1,9.1h0Z"/>
    </g>
  </g>
</svg>