<?xml version="1.0" encoding="UTF-8"?>
<svg xmlns="http://www.w3.org/2000/svg" version="1.1" xmlns:xlink="http://www.w3.org/1999/xlink" viewBox="0 0 140 190">
  <defs>
    <style>
      .cls-1 {
        fill: #fff;
      }

      .cls-2, .cls-3 {
        fill: #9f0000;
      }

      .cls-3 {
        fill-rule: evenodd;
      }

      .cls-4 {
        fill: url(#linear-gradient);
      }
    </style>
    <linearGradient id="linear-gradient" x1="6" y1="136.4" x2="113" y2="70.8" gradientTransform="translate(0 192) scale(1 -1)" gradientUnits="userSpaceOnUse">
      <stop offset="0" stop-color="#ebf0d0"/>
      <stop offset="1" stop-color="#ffffeb"/>
    </linearGradient>
  </defs>
  <!-- Generator: Adobe Illustrator 28.7.2, SVG Export Plug-In . SVG Version: 1.2.0 Build 154)  -->
  <g>
    <g id="Layer_1">
      <path class="cls-1" d="M17,1h103c8.9,0,16,7.1,16,16v153c0,8.9-7.1,16-16,16H17c-8.9,0-16-7.1-16-16V17C1,8.1,8.1,1,17,1Z"/>
      <path class="cls-4" d="M18,2h103c8.9,0,16,7.1,16,16v153c0,8.9-7.1,16-16,16H18c-8.9,0-16-7.1-16-16V18C2,9.1,9.1,2,18,2Z"/>
      <path class="cls-3" d="M103.5,21c-.5,0-1,0-1.4.3-.9.4-1.7,1.1-2,2.2-.2.6-.1,1.4.2,2s.9,1.1,1.8,1.1c.5,0,.8-.2,1.2-.5.2-.2.3-.4.3-.7s-.2-.6-.5-.8l-.5.8c0,0,0,0,0,0s0,0,0,0c0,.1-.5.2-.4.2-.4,0-.7-.2-.8-.6s-.2-.9-.1-1.3c.2-.8.7-1.2,1.4-1.5s1.6-.3,2.2,0c2.1.8,2.8,3.4,1.9,5.4-.8,1.8-2.6,2.8-4.5,2.9l-62.8.4v1l62.6-.4h0c0,0,.1,0,.2,0h.3c2.2-.3,4.2-1.5,5.1-3.5,1.1-2.5.1-5.7-2.6-6.8-.5-.2-1-.3-1.5-.2ZM114.9,24c-.7,0-1.3.2-2,.4-2,.9-3.2,2.9-3.4,5.1h0v.3c0,0,0,.1,0,.2h0l.2,69.1h1l-.2-69.3c0-1.9,1.1-3.7,2.9-4.5,2-.9,4.6-.2,5.4,1.9.3.7.2,1.6,0,2.2s-.7,1.2-1.5,1.4c-.4.1-.9,0-1.3-.1s-.6-.4-.6-.8c0,0,.1-.3.2-.4,0,0,0,0,0,0s-.1,0,0,0l.8-.5c-.2-.3-.4-.5-.8-.5s-.6.2-.7.3c-.3.3-.5.7-.5,1.2,0,.8.5,1.4,1.1,1.8s1.4.4,2,.2c1.1-.3,1.8-1.1,2.2-2,.2-.5.3-.9.3-1.4s0-1-.2-1.5c-.8-2-2.8-3.1-4.8-3ZM29.3,90l.2,69.3c0,1.9-1.1,3.7-2.9,4.5-2,.9-4.6.2-5.4-1.9-.3-.7-.2-1.6,0-2.2s.7-1.2,1.5-1.4c.4-.1.9,0,1.3.1s.6.4.6.8c0,0-.1.3-.2.4,0,0,0,0,0,0s.1,0,0,0l-.8.5c.2.3.4.5.8.5s.6-.2.7-.3c.3-.3.5-.7.5-1.2,0-.8-.5-1.4-1.1-1.8s-1.4-.4-2-.2c-1.1.3-1.8,1.1-2.2,2s-.3.9-.3,1.4,0,1,.2,1.5c1,2.7,4.3,3.7,6.8,2.6,2-.9,3.2-2.9,3.4-5.1h0v-.3c0,0,0-.1,0-.2h0l-.2-69.1h-1ZM100.7,157.3l-62.6.4h0c0,0-.1,0-.2,0h-.3c-2.2.3-4.2,1.5-5.1,3.5-1.1,2.5-.1,5.7,2.6,6.8.5.2,1,.3,1.5.2s1,0,1.4-.3c.9-.4,1.7-1.1,2-2.2.2-.6.1-1.4-.2-2s-.9-1.1-1.8-1.1c-.5,0-.8.2-1.2.5-.2.2-.3.4-.3.7s.2.6.5.8l.5-.8c0,0,0,0,0,0s0,0,0,0c0-.1.5-.2.4-.2.4,0,.7.2.8.6s.2.9.1,1.3c-.2.8-.7,1.2-1.4,1.5s-1.6.3-2.2,0c-2.1-.8-2.8-3.4-1.9-5.4.8-1.8,2.6-2.8,4.5-2.9l62.8-.4v-1Z"/>
      <path d="M29.9,159.1c-.2-.2-.3-.6-.3-3,0-1.5,0-2.8-.2-2.9s0-.2,0-.3c.1-.2.2-.8.1-2.8,0-.3,0-1.6,0-2.8s0-2.5,0-2.8,0-4.8,0-10.1c0-8.9,0-14.9,0-23.4,0-1.7,0-3.5,0-3.8,0-.8,0-8.7,0-9.1,0-1.6,0-12.4.3-19.5.1-4.7.1-19.1,0-20.5,0-.7,0-1.6,0-2.1s0-1.5,0-2.2,0-1.6,0-2,.2-5.2.2-10.6.1-10,.2-10.2c.1-.3.5-.4.6,0,0,.2,1.3.2,6.4,0,6.6-.2,8.3-.3,10.7-.3,1.4,0,2.9,0,3.3,0,2,0,4.2,0,4.4,0,.1,0,.4,0,.6,0,.9,0,5.5,0,11.7,0,3.8,0,7.2,0,7.5-.1s.6-.1.6,0c.1,0,4,0,15.2,0,1.3,0,3.6,0,5.2.1,2.8.1,6.1.1,10.2,0,1.7,0,3.2.1,3.2.4,0,.6,0,6.7,0,6.8,0,0,0,.9,0,1.9s0,1.9,0,2c-.1.2-.2,19.6-.2,75.7,0,22.6,0,41.3-.2,41.4,0,.1-.3.2-.7.1-.6-.1-15.3-.4-24.5-.4-4.5,0-27.3.2-35.1.4-2.1,0-5.8.1-8,.2s-4.6.1-5.2.2c-2.2.2-6.1.2-6.4,0h0ZM38.8,158.2c.7,0,1.4,0,1.4,0,.2.2,1.5-.5,2.2-1.3.8-.9,2.8-4,2.8-4.3s0-.2.2-.3.3-.4.4-.7.4-.8.6-1,.6-.9.9-1.4.5-1,.6-1.1c.1,0,.5-.8.9-1.6.1-.3.4-.8.6-1.2s.7-1.3,1.1-2.2.9-1.8,1.1-2.1.3-.6.3-.6.1-.5.4-.9.5-1,.5-1.1,0-.2.2-.2.2-.2.2-.3.1-.6.3-1,.3-.8.3-1,.1-.5.2-.6.3-.7.5-1.2.3-1.1.3-1.2.1-.3.1-.3,0-.2.1-.4.1-.4.2-.5,0-.3.1-.5c.1-.3.4-1.6.5-2.1,0-.2.2-.8.3-1.3.3-1,1.4-6.5,1.5-7.6,0-.4,0-1.1.1-1.7s.1-1.6.2-2.3c.2-1.3.2-2.7.2-4.7v-.9s-.7.1-.7.1c-.4,0-.7.2-.8.2s-.7.3-1.3.5l-1.1.3-.2.8c-.1.5-.2,1.3-.2,1.9s0,1.2-.2,1.4-.2,1-.2,1.8c-.1,1.8-.5,4.7-.8,5.6-.1.4-.3,1.1-.3,1.6-.2,1.7-.3,2.4-.5,2.8,0,.2-.2.8-.3,1.3s-.3,1.5-.5,2.3c-.4,1.5-.6,2.2-.6,2.8,0,.1,0,.3-.1.3s-.3.6-.5,1.3-.5,1.4-.6,1.7-.3.8-.4,1.1-.3.6-.3.6-.1.1-.1.3-.1.5-.2.7-.3.7-.3,1-.3,1-.6,1.6-.5,1.2-.6,1.4-.3.6-.5,1-.5.8-.6,1c-.2.5-3,3.4-3.9,4.1-.4.3-.7.6-.7.6s-.2.2-.4.2-.6.2-.8.4-.9.5-1.6.8c-2,.8-5,.7-5.8,0-.2-.2-.5-.3-.7-.4-.2,0-.4-.2-.4-.3,0-.3-.7-1.5-.8-1.5s0,.2,0,.5,0,1.4-.1,2.5c-.1,2.7,0,5,.3,5.1.1,0,1.3.1,2.6.2,1.3,0,2.5.1,2.5.2,0,0,.4,0,.9,0s1.4-.1,2.1-.1h0ZM47.4,158c1.5,0,3.1,0,3.5-.1h.8c0,0,.6-1.3.6-1.3.3-.7.6-1.3.6-1.4.1-.7.3-1.2.5-1.4.1-.1.2-.3.2-.5,0-.3.3-1.1.6-1.8,0-.1.2-.6.2-1s.2-.7.2-.7.1,0,.1-.2.3-1,.6-2,.7-2.1.7-2.4.2-.7.3-.8.1-.3.1-.5,0-.3.2-.3.1,0,0-.2,0-.3,0-.4c.2-.3.8-2.6.7-2.8,0,0,0-.2,0-.2s.2-.3.2-.6,0-.5.2-.6c.1,0,.3-.5.3-1,0-.5.2-1,.2-1.1.1-.2.6-2,.8-3.5,0-.5.2-1.1.3-1.3.2-.3.9-3.5.9-3.9,0-.1,0-.3.1-.5s.1-.3,0-.3,0-.5,0-1.1c.2-1.4.5-3.2.5-3.8,0-.3.1-.9.2-1.3s.1-2.8.1-5.3c0-4,0-5-.3-7.3,0-.4-.1-1.2-.2-1.9-.2-1.4-.2-1.6-.7-1.6s-.4,0-.4,1.3,0,1.5-.2,1.8c-.6.8-.8,1.5-.9,4.3,0,1.5-.2,3-.2,3.3s-.1,1.2-.2,2c-.1,1.9-.2,2.9-.5,4.3-.4,2-.6,3.2-.9,4.1-.2.6-.4,1.6-.5,2.3s-.4,1.9-.7,2.8-.5,1.6-.5,1.7,0,.4-.2.7c-.8,2-1.6,4.4-1.4,4.6,0,0,0,.2-.2.3s-.6,1-1,1.9-1.1,2.2-1.5,2.9-.7,1.3-.7,1.4-.2.5-.5.8-.7,1.3-1.1,2-.9,1.9-1.3,2.5-.7,1.2-.7,1.3,0,.2-.2.2-.3.3-.5.7-.7,1.2-1.1,1.9-.8,1.2-.8,1.3-.2.3-.4.5-.4.4-.4.6-.1.2-.2.2-.2.1-.3.3,0,.3,0,.5c0,.2,1.2.5,1.5.3,0,0,1.3,0,2.8,0h0ZM63.6,157.8c3,0,3.1,0,3.4-.4.2-.3.3-1.6.5-6.7,0-.6,0-1.5.2-2,.2-1.3.2-5.2,0-5.3,0,0,0-.3,0-.5s.1-1.1,0-2,0-3.6-.1-6.2-.1-5.3-.2-6c-.2-2.5-.2-3.7-.2-5.9,0-1.2,0-3-.2-4s-.2-2.3-.2-2.9c-.1-1.8-.3-3.3-.3-3.4,0,0-.1-.8-.2-1.6-.1-1.7-.3-3.6-.5-5.2,0-.6-.3-2.3-.4-3.7s-.3-2.7-.3-2.8-.1-.6-.2-1.2-.1-1.3-.2-1.5-.1-.8-.2-1.4-.1-1.4-.2-1.8c-.2-1.3-.4-2.1-.6-4.3,0-.7-.3-1.7-.4-2.3-.1-.6-.3-1.7-.5-2.4s-.4-1.5-.5-1.7-.3-.8-.4-1.3-.2-1.2-.3-1.4-.2-.5-.1-.6c0-.1-.1-.8-.3-1.3-.5-1.3-.8-2.2-.8-2.5,0-.3-.3-1.5-.6-2.2,0-.2-.3-1-.4-1.7s-.3-1.4-.3-1.5-.4,0-.7.2c-.9.4-2.7.4-3.6,0-.4-.2-.7-.4-.7-.4s-.2-.4-.4-.8c-.4-.6-.4-.8-.3-1.5v-.8c0,0-.8,0-.8,0-1.2,0-1.2,0-3.4.2-1,.1-2.7.2-3.8.3s-2.2.1-2.4.2-.5.2-.7.3c-.3,0-.3.1.1.6.2.3.5.5.7.5s.3.1.3.3.2.3.3.3.2.1.3.3.2.3.3.3.4.3.8.6.8.7,1,.9c2.1,1.4,5.3,4.9,7.8,8.4.4.5.7,1,.7,1.1s0,.2.2.2.2,0,.2.2.2.4.4.6.4.6.4.8,0,.3.2.3.2.2.3.4c.2.4,1,1.9,1.5,2.8.2.3.4.6.4.7s.3.7.6,1.4.6,1.4.6,1.5c.1.7.4,1.7.6,1.8,0,0,.2.3.2.5s0,.4.2.5.1.2,0,.3,0,.8.3,1.4c.4,1.3,1.4,6.7,1.3,7.4,0,.2,0,.4,0,.5,0,0,0,.2,0,.4s.1.8.2,1.4.2,1.5.2,1.9,0,.9.1,1,.2.8.2,1.7c.1,1.8.1,10.3,0,12.1-.2,2.4-.4,4.5-.6,5.8,0,.2-.1.8-.2,1.3-.2,1.6-.3,2.2-.4,2.4,0,0-.2.5-.2.8s-.1.8-.1.9-.2.9-.4,1.6-.4,1.9-.6,2.5-.4,1.5-.4,1.9c-.1.6-.3,1.1-.9,2.6,0,.2-.2.8-.3,1.3s-.2,1.1-.3,1.3c-.2.4-1.3,4.1-1.3,4.4,0,.2,0,.3-.1.4s-.2.3-.3.6-.4,1-.7,1.7-.5,1.3-.5,1.4-.2.6-.4,1.1-.4,1-.3,1.2,0,.3,0,.3-.2.2-.2.4c-.2.7-.9,2.6-1.1,3-.6.9-.5.9,2.9.9,1.8,0,3.2,0,3.3.1s.4,0,.7,0,2-.1,3.7-.1h0ZM108,157.8c.5,0,1.1-.1,1.1-.2s.2-.7.2-1.4,0-1.3,0-1.4c0,0,0-.4,0-.8s0-3.4,0-6.7c0-17.9,0-21.6,0-21.6,0,0-4.6-.5-5.3-.5-.2,0-1.2,0-2.2,0s-2.1,0-2.2,0-1.2,0-2.4-.2c-1.3-.1-2.1-.1-2.2,0s0,.6.5,1.4c1.7,3,1.9,3.3,1.8,3.7,0,.2-.1.3-.2.3s-1.4,0-3,0h-2.9s-.5.5-.5.5c-.3.2-.7.7-.9,1.1-.4.6-.4.7-.5,4,0,3.4-.2,4.6-.3,6-.2,1.6-.2,6.1,0,6.4,0,.2.5.6.9.9l.8.6-.3.6c-.4,1-.7,2.1-.7,2.6,0,.6.5,1.2.9,1.2s.6.2.9.4.6.4.7.3.3,0,.4.2.3.3.5.3.3,0,.3.2.1.1.3,0c.1,0,.3,0,.4,0,0,.1.7.2,1.7.2,1.8,0,2,.2,1.9,1-.1.7,0,.7,1.7.7.7,0,1.4,0,1.4,0,0,0,6.1,0,7.5-.1h0ZM101,144.3s0-.1.2-.2.2,0,.2,0,0,.2-.2.2-.2,0-.2,0ZM69.6,156.9c-.1-.3-.3-.5-.4-.5s-.2-.1-.2-.2-.1-.4-.3-.5c-.6-.7-.8.6-.1,1.4.8,1,1.4.9,1-.2ZM76.4,156.9c.8-.8,1-1.2.7-1.2s-.4.2-.7.5-.7.6-.9.8c-.4.3-.5.7-.2.7.1,0,.6-.4,1-.8ZM77.3,157.4s0-.2,0-.3c0-.2-.1-.2-.5,0-.2.2-.4.4-.4.4,0,.1.8,0,.9-.1h0ZM81.6,157.3c0-.2.2-1.6.2-3,0-3.6,0-3.6-.2-3.3-.1.1-.2,1.1-.3,3.2,0,2.4-.1,3-.3,3s-.2-.3-.2-1.2c0-.6,0-1.5,0-1.9,0-.4,0-1.2,0-1.8s0-1.1,0-1.1c-.2-.1-.2,0-.3,1.3,0,.9,0,1.3,0,1.5.1.2.1.3,0,.4,0,0-.2.7-.2,1.4s0,1.4-.1,1.6c-.1.4.2.6.9.6.4,0,.6,0,.7-.4h0ZM82.7,156.9c0-.3,0-.6-.2-.7s-.1.3-.1.6c0,.9,0,.9.2.8,0,0,.1-.4.1-.7ZM87.4,157.3c0-.3-.6-.3-.7,0,0,0,0,.2.1.2s.2,0,.2.2,0,.1.2,0,.2-.2.2-.3ZM71.2,157.3c0-.2-.1-.4-.2-.5-1-1.2-1.5-1.8-1.5-2.1s0-.3-.2-.3-.2-.1-.2-.2c0-.3-.6-.5-.7-.2,0,.3.2.8.8,1.5.2.2.7.8,1.1,1.3.7.9,1,1,1,.6h0ZM75.1,156.6c1.1-1,1.2-1.1,1.6-1.4.1-.1.3-.4.4-.7.2-.7-.3-.6-1.3.5-.5.5-1,.9-1.2.9-.3,0-.3,0,0-.5.2-.3.4-.5.5-.5s.4-.2.6-.5.5-.5.6-.5.2-.2.4-.5.2-.5.1-.5c-.2,0-2.6,2.2-3.1,2.7-.3.3-.3.4,0,.5.3.1.3.2.2.3s-.3,1.1,0,1.1.6-.4,1.1-1h0ZM78.5,155.4c0-3.8-.3-5.3-.7-4,0,.3-.1.8,0,1.1s.1,1.3.2,2.2.1,1.9.2,2.1,0,.5,0,.7c0,.2,0,.2.2,0,.1-.1.2-.8.2-2h0ZM79.4,157c0-.2,0-.4.1-.5.1-.1.2-5.6,0-5.6-.2,0-.5.3-.5.6-.1,1.1,0,6.1.2,6,0,0,.2-.3.2-.5h0ZM72.6,156.9c0-.3-.5-1-.7-1s-.3-.2-.5-.5-.3-.5-.4-.5-.1,0-.1-.2-.3-.5-.6-.8-.6-.8-.7-1.1-.2-.4-.3-.4-.2-.2-.4-.5c-.2-.4-.2-.4-.3-.2-.1.3.5,1.6,1,2,.2.2.4.4.4.5s.1.3.2.4.3.5.4.7.5.8.8,1.2c.5.6.7.7.9.6.2,0,.3-.2.3-.3h0ZM89.1,155.5c.2-.2.3-.6.1-.6-.3,0-.7.4-.7.6,0,.3.3.3.6,0ZM72.4,155c0-.3-.2-.6-.3-.6s-.3-.4-.4-.7-.4-.6-.5-.6-.3-.3-.4-.6-.3-.5-.3-.5c-.2.1-.6,0-.5-.3,0-.1,0-.4-.3-.6s-.5-.6-.6-.9-.3-.5-.4-.5c-.4,0-.3.8.3,1.4.3.4.6.7.6.8s.3.4.6.7.5.6.5.6,0,.1.1.3.3.4.4.6c.5.9,1,1.5,1.2,1.5.2,0,.2,0,.1-.5h0ZM74.9,153.7c.3-.3.8-.8,1.2-1.2.6-.5.7-.8.6-.9s-.3,0-.5.1c-.2.2-.6.6-1,.9s-.8.6-.8.7,0,.1-.2.1c-.2,0-.4.3-.4.8s.4,0,1.1-.6ZM86.6,153.7c0-.2-.1-.9-.3-1.6s-.4-1.4-.4-1.8,0-.6,0-.7c0-.2-.3,1.4-.4,2.6,0,1.1,0,1.4.2,1.6.4.4.9.2,1-.2h0ZM88.1,153.8c0-.1,0-.6,0-1s0-2.8,0-5.3,0-5.7.1-7.1,0-2.5.1-2.5.1-1.1.1-2.5v-2.5s-.6,0-.6,0c-.4,0-2.3,0-4.4,0-3.5,0-3.7,0-3.9.3-.3.6-.2,6.3.2,6.7,0,0,.1.3.1.4s.2.6.4,1.1.4.9.4,1,.2.5.5.8.5.9.6,1.2.3.8.5,1,.3.6.3.7.1.4.2.6c.3.5.9,2.6,1,3.3,0,.3,0,.5,0,.5s0,.2,0,.4,0,.8.2,1.3c0,.9.3,1.3.5,1.2s.3-2.6.3-5.8c0-3,0-3.3-.3-3.6-.4-.4-.6-.5-.8,0-.2.4-.6.2-.8-.4-.1-.5.1-.7.9-.7.5,0,.6,0,.6-.6,0-1.2.3-2,.7-2,.3,0,.4,0,.3.3,0,.2,0,.5.1.7.2.4.3,1,.1,1.4,0,.2,0,.3.2.3s.4,0,.4-.2c.2-.3.7-.2.9.3.3.6.1.8-.8.8-.6,0-.6,0-.7.6,0,.3,0,1,0,1.4s.2,1.1.2,1.5,0,.8.1.9.1.7.2,1.3.2,1.2.2,1.3.2.5.2.8,0,.7.2.8c0,.1,0,.2,0,.3,0,0-.2.2-.2.3s0,.1.2,0,.2,0,.2.2c0,.6.8,1,1.1.5h0ZM72.4,152.8c0-.1-.2-.3-.2-.5s-.1-.4-.3-.4c-.2,0-.3-.2-.3-.3s-.2-.4-.4-.5-.4-.5-.5-.7c-.1-.4-.4-.8-1-1.4-.2-.2-.4-.6-.6-.8s-.3-.5-.4-.5c-.2,0-.2.8,0,1.1.1.1.2.3.2.4s0,.2.2.2.2,0,.2.2,0,.3.2.4.3.4.5.7.4.6.5.7.2.3.2.4,0,.2.2.2.2.2.3.5.3.6.5.7.4.3.4.4,0,0,.2-.1c.1-.2.1-.4,0-.5h0ZM83.4,152.9c0-.3,0-.4-.2-.3-.2,0-.2.2,0,.4.2.4.3.4.3,0ZM82.5,152.7c0,0,0,0,0,.2,0,.2,0,.2,0,.1,0-.1,0-.3,0-.3ZM74.7,152.4c.2-.3.7-.6.9-.8s.5-.4.5-.5.1-.2.3-.2.3-.1.3-.4,0-.4.2-.4.2-.2.2-.3,0-.3-.2-.3c-.3,0-1.1.8-1.1,1.1s0,.2-.1.1-.3.1-.6.4-.5.5-.6.5c-.3,0-.7.7-.6,1,0,.4.3.4.8-.2h0ZM89.4,150.7c.2-.4,0-.9-.4-.9s-.3,1.2-.1,1.8c0,.3.1.2.2-.1,0-.2.2-.6.3-.8ZM35.9,151.5c1.2,0,4.2-1,4.9-1.8.2-.2.5-.4.6-.4s.8-.7,1.7-1.5c1-1,1.7-1.9,2-2.5.2-.5.6-1.1.8-1.4s.4-.7.5-1,.3-.9.6-1.3.5-.9.5-.9.1-.3.2-.6.2-.6.2-.8.1-.5.3-.8c.8-1.8,1-2.2,1-2.5,0,0,.2-.5.4-1s.4-1.1.4-1.3c.1-.7.4-1.8.5-2.1.1-.2.2-.7.5-2,0,0,0-.2.1-.4s.1-.5.2-.9c0-.8.9-5.4,1-5.8,0-.1.1-.6.1-1.1s.2-1.7.4-2.8c.3-1.7.6-4.2.7-6.2,0-.5,0-.5-.6-.5-.3,0-.8.2-1,.4-.3.2-.5.3-.7.1-.2-.2-.5-.2-1.6-.1-.4,0-.7.7-.5.9,0,0,0,.3,0,.4-.1.2-.2.6-.6,3.3-.3,1.6-.6,4.7-.7,6.3,0,.8-.2,1.9-.3,2.4s-.2,1.3-.2,1.7-.1.8-.2.9-.1.3-.1.4c0,.4-.3,1.2-.4,1.5,0,.2-.1.4-.1.5,0,.2-.2,1.5-.3,1.8,0,.2-.2.4-.2.6s-.1.6-.3,1-.5,1.3-.7,2.1-.5,1.5-.6,1.7-.2.4-.2.5c0,.3-.6,1.6-1.4,2.8-.4.6-.7,1.2-.7,1.2s-.3.5-.6.9c-.3.4-.6.8-.6.8,0,.2-1.2,1.5-2,2.1-.4.3-1.1.7-1.5.9s-.8.4-1,.6c-.3.3-1.6.3-2.3,0-1-.5-1.3-1.7-.7-3,.2-.4.4-.9.4-1,0-.7.6-1.1.9-.6.1.2-.1,1.2-.5,2.1-.4,1-.3,1.4.5,1.7.9.4,1.4.3,2-.6.5-.7.6-.8.3-2.2-.2-1.2-.7-1.7-1.9-1.9-1.1-.2-2.3,0-3,.5-.5.4-1,1.1-1,1.7s-.1.5-.2.8c-.3.6-.3,2-.1,2.7.4,1.3.6,1.8.9,2.1.1.2.3.4.3.5s0,.2.2.2.5.2.8.5c.8.6,1.5.9,1.9.8.2,0,.6,0,1,0h0ZM34.4,149.8c0-.1-.2-.3-.2-.5,0-.5.7-.3.8.1,0,.4-.3.6-.6.4ZM36.8,149.6c-.2-.2,0-.8.1-.8.4,0,.6.2.6.6s-.5.6-.8.2ZM39.2,148.3c0-.2.2-.4.4-.4s.3.1.4.4c0,.3,0,.4-.4.4s-.4,0-.4-.4ZM32.1,148c-.1-.4,0-.6.4-.6s.3,0,.3.4c0,.4-.6.6-.7.2ZM41.3,147.3c-.2-.2-.1-1.1.1-1.1.2,0,.5.8.4,1.1-.1.3-.3.3-.5,0h0ZM31.9,145.1c-.3-.3-.2-.8.1-.9.2-.1.4-.1.5,0,.4.5-.2,1.3-.6.9h0ZM35.2,145c-.2-.5-.2-.5.4-.6.7-.1.8,0,.5.5-.3.5-.7.5-.9,0h0ZM42.6,145.1c-.3-.3-.3-.7.2-.9.4-.2.5.1.3.7-.2.4-.2.4-.5.2ZM43.8,142.7c-.3-.3-.3-.4,0-.7.3-.4.9-.2.9.4s-.4.7-.8.2h0ZM45.4,140c-.3-.2-.4-.5,0-.8.4-.3.9.2.7.7-.2.4-.3.4-.7.1h0ZM46.3,136.8c0-.2.1-.5.3-.6.3-.1.3-.1.4.3.1.5,0,.7-.4.7s-.3-.1-.3-.4h0ZM47.1,134.3c-.2-.3.2-.8.6-.8s.6.4.4.9c-.1.4-.8.4-1,0ZM48.4,131.4c-.4-.3-.2-1,.3-.9.4,0,.5.4.2.8-.2.2-.2.2-.5,0ZM48.6,128.2c-.1-.4.3-.9.6-.6.2.3.1.8-.2.9-.2,0-.3,0-.4-.2h0ZM49.2,125.9c-.2-.2,0-.7.2-.7s.6.3.3.6c-.2.3-.4.3-.5.1h0ZM49.5,123.3c-.2-.2-.2-.3,0-.6.3-.4.6-.4.9,0,.2.2.2.3,0,.5-.2.4-.6.4-.9,0ZM50,120.1c0-.4,0-.5.3-.5.3,0,.5.4.4.8,0,.1-.2.3-.4.3s-.3-.1-.3-.5ZM50.3,117.9c-.4-.3-.3-.5,0-.9l.3-.3.3.4c.4.5.4.5,0,.8-.3.2-.4.2-.6,0h0ZM50.5,114.9c0-.3.2-.9.4-.9,0,0,.2,0,.3.2.2.1.2.2,0,.6-.2.5-.6.6-.8.2h0ZM72.7,151c0-.3,0-.5,0-.5s-.2-.2-.4-.5-.4-.5-.6-.5c-.2,0-.3,0-.2-.5,0-.3,0-.5,0-.5s-.2-.1-.2-.3-.1-.3-.2-.3c-.2,0-.3-.5-.1-.7.2-.2.5,0,.5.3s0,.2.1.2.3.3.5.7.4.6.5.6.1-.1,0-.2,0-.2,0-.4c0-.1,0-.4,0-.6-.1-.2-.2-.4-.2-.5s-.1-.3-.3-.5-.5-.6-.6-.9l-.7-1.1c-.2-.3-.4-.6-.5-.6s-.1,0-.1-.2-.2-.4-.4-.6-.4-.5-.4-.6c0-.3-.3-.4-.5,0-.1.3.2,1.3.5,1.5.3.2,1.6,2.4,1.5,2.6-.1.3-.4.3-.4,0s-.2-.4-.4-.7-.4-.4-.4-.5c0-.1-.5-.8-.7-.8s-.1.2-.2.5c0,.4,0,.7.5,1.4.3.5.7,1,.8,1s.3.3.4.6.2.5.3.5.2.1.2.3.4.6.7,1,.6.8.6.9,0,.1.2.1.2-.2.2-.5h0ZM75.1,150.2c.4-.4.9-1,1.1-1.3s.4-.4.5-.4.2-.2.2-.3c0-.5-.3-.4-1.1.4-.4.4-.9.8-1.1,1-.6.3-1,.8-.9,1.2.1.5.4.4,1.2-.5h0ZM82.9,150c.2-.5-.8-3.3-1.2-3.6,0,0-.1-.2,0-.3s-.1-.5-.3-.9-.5-.9-.6-1.1-.3-.5-.4-.5-.2-.2-.2-.4-.1-.3-.2-.3-.2-.1-.2-.3-.2-.9-.3-1.7c-.5-2-.5-1.9-.5-5.4v-3.2s-.5-.5-.5-.5c-.2-.2-.4-.5-.4-.6s0-.2-.2-.2-.3-.2-.4-.4c-.1-.3-.3-.4-.6-.4s-.4,0-.3.6c.1,1.1.4,5,.3,5.3,0,.2,0,.9.2,1.7s.2,2.2.3,3.3,0,2.1.1,2.3,0,.3.1.3c0,0,.2,1.2.2,4.4,0,.7,0,1.4,0,1.5s0,.2,0,.3c0,.4,5,.5,5.2.1h0ZM75.1,148.5c1.6-1.5,1.8-1.8,1.8-2.1s-.1-.2-.3-.2c-.3,0-.6.2-1.1.9-.2.2-.5.5-.8.7-.6.3-1,.9-.9,1.3.1.5.3.4,1.3-.6h0ZM74.7,147c1.1-1,1.8-1.8,1.8-2.1,0-.5-.1-.4-2.1,1.4-.1.1-.4.3-.5.5-.3.3-.3.7,0,.7s.5-.2.8-.5h0ZM72.7,146.2c.1-.4-.2-1.2-.5-1.2,0,0-.3-.3-.6-.6s-.7-1-1-1.5-.8-1.1-1-1.4c-.2-.4-.4-.5-.6-.4-.2,0-.2.1,0,.2.2,0,.3.2.3.4,0,.1,0,.3.2.4s.2.3.2.4.2.5.4.8.6.9.7,1.2.4.6.5.6.2,0,.2.1c0,.2.7,1.2.9,1.2s.2-.1.2-.3h0ZM74.7,145.3c1.1-1,1.8-1.7,1.8-1.9,0-.4-.4-.3-1.1.3-.4.3-.9.8-1.2,1-.4.3-.5.5-.5.9,0,.6,0,.6,1-.3h0ZM38.4,145.1c0-.1,0-.2-.2-.2s-.2.2-.2.3,0,.3.2.2.2-.2.2-.3ZM39.4,143.8c0-.2-.1-.4-.2-.4s-.2-.2-.2-.3c0-.2-.4-1.1-.7-1.2,0,0-.1-.2-.2-.4s-.3-.6-.5-.8-.5-.7-.7-.9-.3-.5-.4-.5-.1-.1-.1-.3,0-.4-.2-.5-.3-.4-.5-.6-.4-.6-.5-.7-.2-.3-.2-.4-.2-.4-.4-.5-.4-.4-.4-.5-.1-.3-.2-.5-.2-.3-.2-.3,0-.1-.2-.3-.4-.3-.5-.2c-.3,0,0,.7.4,1.5.2.4.5.8.5,1s.3.6.7.9.6.7.6.8.1.4.3.6c1.3,1.7,1.6,2.2,1.7,2.5.1.4.2.5.8,1.2.2.3.4.5.4.6,0,.2.7.8.8.7,0,0,.1-.2.1-.4h0ZM72.5,143.7c0-.3-.3-.7-.6-1s-.5-.6-.5-.7-.3-.5-.7-1c-.4-.4-.7-.9-.7-1.1s0-.4-.2-.5-.2-.3-.3-.5c0-.2-.2-.4-.4-.4-.6,0-.4.7.5,1.9.5.6.9,1.2.9,1.2s.2.3.4.7c.3.6,1.3,1.7,1.5,1.7,0,0,0-.2,0-.5h0ZM74.5,143.9c.7-.5,2-1.9,2-2.2,0-.2,0-.3,0-.4,0-.1-.5.1-1.1.6-.8.7-1.8,1.8-1.7,1.9.1.2.6.2.8,0h0ZM40.4,142.9c.2-.2.2-.3,0-.5-.1-.2-.3-.4-.3-.5,0-.3-.6-1.4-.7-1.4s-.1-.1-.1-.2-.1-.4-.3-.5-.3-.4-.3-.5-.1-.3-.2-.3c-.2,0-1-1.7-1-2s0-.2-.2-.2-.1-.2,0-.3c.1-.3.6.2.8.8,0,.2.2.4.3.4s.3.2.4.5.5.9.8,1.2.5.8.5.9.3.5.6.8.6.7.6.8.1,0,.3,0c.3-.1.2-.8-.3-1.7-.2-.4-.4-.7-.4-.8s0-.2-.1-.2-.3-.3-.5-.8-.5-.8-.6-.9-.2-.2-.2-.3c0-.2-.9-1.6-1.4-2.1-.1-.1-.2-.3-.2-.5s-.1-.3-.2-.3-.3-.3-.3-.6-.2-.5-.2-.5-.2-.3-.4-.6-.4-.6-.6-.7-.3-.2-.3-.4-.1-.5-.3-.7-.3-.5-.3-.5c0-.2-1.1-1.8-1.3-1.8s-.1-.1-.1-.3,0-.3-.2-.3-.2.4-.2.8,0,.8.1.8.2.2.3.5.4.7.6.9.4.5.4.6.5.8,1,1.6,1,1.6,1,1.8.1.3.2.4c.3.1.3.6.1.6s-.3-.2-.4-.3-.2-.3-.2-.3,0-.2-.3-.5-.6-.7-.8-1-.4-.8-.6-1-.3-.6-.4-.7-.3-.3-.5-.4-.4-.2-.4-.4,0-.2-.2,0c-.4.4-.2,1.6.5,2.4.1.1.5.7.6,1.1,0,.2.2.4.3.4s.2.1.3.3.3.6.6,1.1.5.9.5,1,0,.2.2.2.2,0,.2.2.3.5.6.8.6.7.6.8.3.5.6.8c.3.3.6.8.6,1s.2.4.3.4.4.3.6.8c.4.8.5.9.9.5h0ZM31.5,141.9l.7-.6v-6.1c-.1-3.4-.2-6.9-.2-7.8v-1.8s-.7,0-.7,0c-.6,0-.7,0-.6.3,0,.2,0,.5,0,.6s.2.4.4.5c.6.3.6.7,0,.8-.4,0-.5.2-.5.5,0,.4,0,.5.4.5.6,0,.6.6,0,.9-.3.2-.5.4-.5.8,0,.5,0,.6.4.6.6.1.6.5,0,.8-.4.2-.7,1.6-.3,1.8.2.1.2.1,0,.1-.1,0-.2.2-.2.5,0,.6.3.8.8.7.2,0,.3,0,.4,0,.2.3-.2.6-.6.6-.3,0-.4,0-.4.3,0,1.4,0,1.3.3,1.1.3-.3.9-.2.9.2s-.7.5-1,.3c-.2,0-.2,0-.2.5s.2.8.7.9c.4,0,.5.1.3.5,0,.2-.2.3-.5.3-.5,0-.7.6-.5,1.2.1.4.5.5.5.1s.1-.3.2-.3.2.1.2.3-.1.3-.4.3-.4,0-.5.1c0,0,.2.9.3.9s.4-.3.7-.6h0ZM31.1,133.5c0-.3,0-.3.3-.3.1,0,.3.1.3.1s0,.1,0,.3c-.1.4-.5.3-.5-.1ZM74.7,141.8c1.1-1,1.7-1.8,1.7-2s0-.3,0-.3c-.1,0-1.6.9-1.8,1.1-.1.1-.3.2-.4.2-.2,0-.5.7-.5,1.1,0,.5.4.5,1.1-.1h0ZM72.5,141.5c-.3-.7-.9-1.7-1-1.6,0,0-.1,0-.1-.1s-.1-.4-.3-.6-.3-.4-.3-.5,0-.2-.1-.2c-.3,0-.5-.7-.4-.9s.2-.1.2,0,.1.3.3.5.3.3.3.5,0,.2.2.2.3.2.4.5.2.4.2.3.1,0,.3.1c.3.3.3.3.4,0,.1-.3-.4-1.3-.6-1.1,0,0-.1,0-.2-.3s-.2-.3-.3-.3-.1-.1-.1-.2,0-.3-.2-.4-.3-.3-.3-.4-.2-.3-.2-.2-.2-.1-.4-.4-.3-.5-.5-.5-.2,0-.2,0-.1-.4-.3-.7c-.3-.5-.4-.5-.5-.3-.1.3.1.9.8,1.8.4.6.6,1,.3,1-.2,0-.5-.2-.7-.6-.1-.2-.2-.3-.3-.3-.3.3-.2.8.2,1.2.2.2.4.5.4.6,0,.3,2.6,3.5,2.8,3.5s.2-.1,0-.3h0ZM36,140.9c0-.2,0-.4-.2-.5-.1-.1-.3-.3-.3-.3,0-.1-.4-.7-.9-1.1-.2-.2-.2-.4-.2-.5s0-.3-.2-.4-.3-.3-.3-.4-.1-.3-.2-.3-.2-.2-.2-.4-.1-.3-.2-.3-.2.2-.2.6c0,.3,0,.6.2.6s.2.2.4.5c.2.5.2.5,0,.6-.3,0-.4.4-.2,1.4,0,.4.2.5.5.5s.4-.1.6-.2c.2-.2.1-.3-.2-.6-.4-.4-.6-.9-.3-.9s.9,1,1,1.4c0,.2.2.3.3.3s.2,0,.3.2c.1.3.5.3.6,0h0ZM75.1,139.5c0,0,.4-.3.6-.6,1.1-1.3.2-1.2-1.1,0-.1.1-.4.3-.7.5-.5.3-.6.7-.3,1,.1.1.3,0,.7-.4.3-.3.6-.6.7-.6h0ZM42.2,139.5c0-.1-.2-.5-.3-.7s-.3-.5-.3-.6,0-.2-.1-.2-.3-.4-.6-.8-.5-.7-.6-.7-.1,0,0-.2,0-.2,0-.2-.3-.2-.4-.5-.4-.7-.7-1-.4-.5-.3-.5,0-.2-.2-.3-.2-.4-.2-.4,0-.3-.3-.5-.5-.7-.7-1.1c-.3-.7-.8-1.5-1.6-2.6-.6-.9-1-1.8-1-1.9,0,0,0-.1-.1-.1s-.2-.2-.3-.4-.2-.4-.3-.4-.2-.2-.2-.4-.2-.3-.3-.2-.2,0-.2-.2,0-.3-.2-.3-.2-.1-.2-.3,0-.2-.2-.2c-.2.1-.2,1.1,0,1.7.1.3.4.7.6,1s.4.6.4.7.1.3.2.3.2.2.2.3,0,.2.2.2.2,0,.2.2.4.7.8,1.4c.9,1.4,1.2,1.8,1.3,2.1,0,.1.2.3.2.3s.2.4.4.7.4.7.6.8.3.3.3.3c0,.2,1.3,2.1,1.5,2.1s.1.1.1.2.1.4.3.5.3.4.3.5.1.3.2.3.3.3.3.5.2.5.4.7c.2.2.3.3.4,0,0-.1.1-.3,0-.5h0ZM75.3,137.6c.5-.5.8-.9.8-1.1,0-.4,0-.4-.9.2-.3.2-.9.7-1.4,1.2-.3.3-.3.4-.2.6.2.3.7,0,1.8-1h0ZM42.9,138c0-.8-1.1-3-1.5-3s-.2-.1-.2-.3c0-.3-.3-.8-1.1-1.9-.3-.4-.6-.9-.7-1.1s-.2-.4-.3-.4-.2,0-.2-.2c0-.2-.4-.6-1.2-1.6-.2-.2-.4-.5-.4-.7s-.2-.5-.4-.8-.4-.6-.4-.7-.2-.5-.5-.9-.5-.8-.5-.9,0-.2-.2-.2-.2,0-.2-.2-.2-.4-.4-.8c-.5-.8-.5-1.5,0-1.1,0,0,.3.5.5.9s.5.8.6.9.2.1.1.2c0,.1.5,1.2.9,1.7.1.2.2.3.2.4,0,.2.8,1.5,1,1.5,0,0,.1.2.1.3s0,.2.2.2.2.1.2.3,0,.3.1.3.2.2.3.4c.3.6.9,1.5,1.1,1.8.4.5,1.3,2,1.3,2.3s.1.2.2.2.3.2.4.4.4.7.7,1c.6.6.6.7.8.3.1-.2.2-.4.1-.6s-.1-.3-.1-.5-.2-.4-.4-.6-.3-.5-.3-.6,0-.2-.2-.2-.2-.1-.2-.3,0-.3-.2-.3-.2,0-.2-.2-.2-.5-.5-.8-.7-1-1-1.6-.7-1.1-.8-1.1-.2-.2-.2-.3c0-.2,0-.3-.4-.8,0-.1-.2-.3-.3-.5s-.2-.3-.3-.3-.2-.2-.3-.5c-.2-.5-.6-1.2-1.3-2.3-.2-.4-.4-.7-.4-.8s-.1-.2-.3-.4-.4-.6-.6-1-.4-.7-.5-.8-.2-.2-.2-.3-.2-.4-.4-.6-.4-.5-.4-.6c0-.4-1.4-2.3-1.5-2.2-.3.2,0,2.5.4,2.7,0,0,.4.4.7.9.5.6.5.8.4,1-.2.1-.3,0-.7-.6-.3-.4-.6-.8-.7-.8-.2,0,0,2,.3,2.2.1,0,.3.3.3.4s0,.2.2.2.3.2.4.5.3.6.4.7.4.6.6,1,.5.9.6,1,.4.6.7,1c.3.4.5.8.6.9s.2.2.2.4.3.7.7,1.2c.3.5.9,1.4,1.2,1.9s.7,1.2.9,1.4.4.4.4.5.1.3.3.5c.3.4.6.8.8,1.3,0,.2.4.5.6.8s.5.5.5.6,0,.1.2,0,.2-.2.2-.4h0ZM72.7,137.6c0-.3-.1-.8-.2-1s-.2-.6-.3-.7-.2-.2-.3-.2c-.3,0-.9-.6-.9-.8s0-.2-.1-.2-.4-.3-.7-.8c-1.2-1.7-1.4-1.9-1.5-1.7-.2.3,0,1.3.3,1.5.1,0,.4.4.6.8s.4.6.5.6.2.2.3.5c.2.5,2,2.6,2.3,2.6s0-.2,0-.5h0ZM74.3,136.8c.8-.5,1.8-1.6,1.8-2s-.1-.4-.6,0c-1.1.8-1.9,1.6-1.9,2s0,.5.7,0h0ZM72.4,135.2c0-.5-.3-1.1-.8-1.5-.2-.2-.4-.4-.4-.5,0-.2-.4-.6-1.1-1.4-.2-.2-.4-.5-.4-.7,0-.3-.9-1-1.1-1s0,.9.5,1.4c.6.7.9,1.1,1.1,1.6.1.3.2.4.8,1.2.2.3.5.7.7.9.4.5.6.5.6,0h0ZM74.1,135.3c.2-.1.5-.4.7-.7s.6-.7.8-.9c.3-.3.5-.7.3-.7s-1.1.8-1.8,1.4c-.3.3-.5.6-.5.8,0,.4,0,.4.5.1h0ZM44.8,134.1c.1-.4.2-.7.2-.8.3-.9.2-2.7,0-2.4,0,0-.4-.2-1-1,0-.1-.1-.2,0-.2s0-.3-.3-.6-.4-.7-.4-.8-.2-.4-.4-.6-.4-.5-.4-.6-.2-.4-.4-.6-.4-.5-.4-.5-.5-1-1.2-2-1.3-2.2-1.5-2.6-.5-.8-.7-1-.4-.4-.4-.5,0-.2-.2-.2-.2-.1-.2-.3-.2-.5-.4-.8-.4-.6-.4-.7-.2-.4-.4-.6-.5-.7-.6-1-.3-.7-.4-.8c-.2-.2,0-.4.3-.3.3.2,1.2,1.7,1.2,2s0,.2.1.2.3.3.5.7.4.8.5.9c.1,0,.3.5.5.8s.6,1,1,1.5.7,1,.7,1.1,0,.3.2.3.2.2.4.5.3.5.4.6c.4.5.7.9.7,1,0,.1.8,1.4,1.1,1.7.1.1.2.3.2.4s.1.3.2.4.7.9,1.2,1.6c.7.9,1,1.3,1.2,1.2.3-.1.3-.5,0-.8-.2-.1-.4-.5-.6-.8s-.4-.6-.4-.6-.1-.1-.1-.3,0-.3-.1-.4c-.1,0-1.1-1.6-1.1-1.7s-.3-.5-.6-1-.6-1-.6-1.1,0-.2-.2-.2-.2-.1-.2-.2-.1-.4-.3-.5-.3-.4-.3-.5-.3-.6-.7-1.1-.7-1-.6-1.1-.1-.3-.4-.6c-.3-.3-.4-.6-.4-.7,0-.1,0-.2-.2-.2s-.3-.1-.3-.3-.3-.5-.5-.8-.4-.6-.4-.7,0-.2-.2-.2-.2,0-.2-.2-.2-.5-.4-.8-.4-.8-.5-1.1-.2-.4-.3-.4-.4-.3-.6-.7-.5-.7-.6-.7-.2-.2-.2-.4c0-.4-.4-.7-.8-.4-.2,0,0,.5.6,1.7.5.9.8,1.6.7,1.6,0,0-.7-.6-.7-.8,0,0-.2-.4-.5-.7s-.5-.7-.5-.8-.1-.3-.3-.4c-.2-.1-.3-.1-.4,0-.2.2,0,1.2.1,1.6,0,0,.1.2.1.3,0,.2,1.6,2.8,2.2,3.7.3.4.6.8.7,1,.6,1,.8,1.4,1,1.5,0,.1.3.5.5.9s.5.9.6,1c.5.5,1,1.2,1,1.3s1.1,2,1.8,2.9c0,.1.3.5.5.8s.4.6.4.6.3.3.5.8.4.8.5.8.2.3.4.6c.2.6,1.1,1.9,1.4,2,.2,0,.2.7,0,.7-.2,0-1-1-1.4-1.8-.2-.5-.5-.8-.7-.8s-.2,0-.2-.1,0-.3-.3-.6-.3-.6-.3-.7,0-.2-.1-.2c-.2,0-1.6-2.2-1.9-2.9,0-.2-.4-.6-.7-.9s-.6-.7-.6-.8,0-.2-.2-.2-.2-.1-.2-.2-.1-.3-.2-.3-.2-.2-.1-.3,0-.2,0-.2-.2-.1-.2-.3-.1-.3-.3-.4-.3-.2-.3-.3-.2-.3-.4-.5c-.3-.2-.3-.3-.2-.4s0-.4-.4-.8c-.3-.3-.5-.7-.5-.9s-.2-.5-.4-.7-.4-.6-.4-.6-.1-.2-.2-.3-.3-.3-.3-.4c0-.3-.2-.5-.6-1-.2-.2-.3-.4-.3-.5s0-.1-.2,0c-.1.1-.2,1.3-.2,1.8,0,0,.2.4.4.7s.5.7.7,1,.3.5.4.5.1.1.1.3.2.5.4.8.5.7.7,1,.5.8.8,1.1.7.9.9,1.3c.4.7.5,1,.9,1.4.1.1.4.6.7,1.1.8,1.5.9,1.7,1.4,2.4.3.4.6.9.8,1.2s.3.5.4.5.2.1.2.3.4.7.8,1.1.8.9.8,1,.2.5.5.9.5.8.5.9.1.2.3.2.4-.2.5-.7h0ZM74.4,133.2c.4-.4.8-.7.9-.8.2,0,.5-.8.5-1.2s-.5-.1-.6.2c0,.2-.5.6-.9,1-.7.5-1,1-.9,1.4.1.2.2.2,1-.6h0ZM72.3,133c0-.2-.4-.8-1.2-1.7-.3-.3-.5-.6-.5-.7s-.3-.5-.7-.9-.7-.9-.8-1-.2-.2-.2-.1c-.2.1.5,1.8.8,1.8s.1.1.1.3.1.3.2.3.2,0,.2.1c0,.2,1.8,2.2,2,2.2s.1,0,.1-.2h0ZM74.6,131.4c1-.9,1.3-1.5,1-1.8-.1-.1-.5,0-1.2.8-.5.5-1,.9-1.1.9s-.1.2-.1.5c0,.3.1.5.2.5s.6-.4,1.2-.9h0ZM88.5,131.9c.5,0,.7-.2.9-.7.2-.3.3-.6.3-.6-.1-.1-4.6-.4-7-.4-1.5,0-3.2,0-3.6,0-1,0-1.1.2-.2,1.1l.6.6h2.2c1.2,0,3.1.1,4.2.1s2.3,0,2.6,0h0ZM72.3,131c0-.3-.5-1.1-.8-1.4-.2-.2-.3-.4-.3-.4s-.3-.5-.7-.9c-.9-1.1-1.1-1.2-1.1-1.4,0-.3-.5-.1-.6.2,0,.2.1.6.4.9s.6.8.7,1c.9,1.4,2.4,2.7,2.4,2.1h0ZM74.2,129.9c.6-.4,1.3-1.2,1.3-1.4,0,0,0-.2-.1-.3-.1-.2-2.1,1.5-2.1,1.9s.3.3.9-.2h0ZM96,129.3c0-.3-.5-1.4-.8-1.7-.1,0-.2-.3-.2-.4s-.1-.5-.3-.7-.3-.4-.2-.4,0-.1-.1-.3-.3-.4-.4-.6-.3-.4-.4-.4c-1-.1-3.6-.3-6.4-.3-1.8,0-4,0-4.8-.1h-1.5s-1.2-1.3-1.2-1.3c-.6-.7-1.3-1.5-1.5-1.8s-.5-.7-.6-.8-.6-.6-1-1.2-.8-1-.8-1c-.1,0-.2.3-.1,1,0,.2,0,1.1,0,1.8.2,4.1.5,7.7.7,7.9,0,0,.8.2,1.6.2s1.6,0,1.9.1,3.7.1,7.7.2,7.3,0,7.4.1.3,0,.5,0,.5,0,.6-.3h0ZM72.2,128.7c0-.5-.2-.8-.8-1.4-.4-.4-.7-.8-.7-.9s0-.2-.2-.2-.6-.6-1-1.2c-.6-.8-.8-1-.9-.8-.2.4,0,1.1.5,1.6.3.3.5.5.5.7s.1.2.2.2.2.1.2.3.1.3.2.4.2.2.2.4.1.3.2.3.2.1.2.3.1.3.3.4.3.3.4.5c.2.7.6.5.5-.3h0ZM74.5,128c.8-.6,1.1-1.3.8-1.6s-.3,0-.7.4c-.3.3-.6.5-.7.5-.4,0-.7.6-.6,1.1.1.5.2.5,1.2-.4h0ZM46.1,127.7c0-.3-.1-.5-.4-.7-.2-.2-.4-.5-.4-.6,0-.3-.5-1.2-1.1-2-.2-.3-.4-.6-.4-.7s0-.2-.2-.2-.2-.2-.2-.3,0-.3-.2-.4-.3-.4-.5-.7c-.8-1.6-1-1.8-1.1-1.8s-.3-.3-.4-.7-.3-.7-.4-.7-.1-.1-.1-.2-.1-.3-.2-.4-.2-.3-.2-.5-.2-.5-.4-.7-.4-.5-.4-.6c0-.4-.5-1.2-.8-1.2-.1,0-.2-.1-.1-.2,0-.1,0-.3-.1-.4s-.4-.4-.6-.7-.4-.6-.5-.7-.2-.3-.4-.7c-.2-.5-.3-.6-.8-.6-.5,0-.8.3-.5.4.1,0,.2.1.2.2s.1.3.2.4.2.4.2.6,0,.3.1.3c.1,0,.6.8.5,1,0,0,0,.2.2.2s.2.2.2.3.2.4.5.8c.3.3.5.6.5.7s.2.5.5.9.5.8.5.9.3.4.6.8.6.7.6.8,0,.2.1.2.4.5.7,1,.9,1.4,1.4,2.1.9,1.4,1,1.6c.2.5,1.5,2.4,1.9,2.9.4.4.5.4.5-.2h0ZM73.8,126.8c.2-.1.4-.3.5-.5s.3-.4.5-.5c.4-.2.7-.9.5-1.1-.2-.2-.8.2-1.4.8-.5.5-.7.8-.6,1.1,0,.5,0,.5.6.2h0ZM72.2,126.6s0-.1,0-.3-.1-.4,0-.4-.2-.4-.6-.8-.7-.7-.7-.8-.2-.3-.4-.5-.7-.8-1-1.2-.7-.8-.8-.7c-.2.1-.2.6,0,.6s.2.2.3.5.3.6.5.8c.5.5.8.9,1.1,1.4.1.2.3.4.3.4s.3.2.6.5.6.5.7.5.2,0,.3,0h0ZM46.6,125.7c0-.6,0-.8-.4-1.2-.8-1-1.4-2-1.4-2.4s0-.2-.1-.2-.2-.2-.3-.5c-.2-.6-.6-1-.8-1,0,0-.2-.2-.2-.5s-.2-.5-.3-.5-.2-.1-.2-.2-.1-.4-.3-.5-.3-.4-.3-.6-.1-.4-.3-.6-.3-.4-.3-.5-.2-.4-.4-.6-.5-.6-.6-.9-.3-.7-.4-.8c-.4-.5-.9-1.2-1-1.5,0-.4-.5-1-.8-1s-.4,0-.6-.1c-.2,0-.3,0-.3.2s0,.4.1.4.4.6.7,1.3.9,1.7,1.3,2.4.8,1.3.9,1.5.2.4.3.4.1,0,.1.2.3.6.6,1,.6.9.6,1,0,.2.2.3.2.3.2.4.2.4.4.6.5.7.6,1,.3.5.4.5.3.3.5.7.5.8.6,1,.4.5.6.9c.3.6.6.9.7.8,0,0,0-.4.1-.7h0ZM73.9,124.8c0-.1.3-.4.6-.6.5-.3.6-.5.6-.8s0-.4-.2-.4c-.2,0-.8.3-1.1.6-.2.2-.4.4-.5.4-.4.2-.2.9.2.9s.3,0,.3-.2ZM32,124.5c0,0,0-9.2,0-11.2,0-1.8-.2-2.2-1-2.2h-.5s0,4.5,0,4.5c0,2.5,0,4.8,0,5.2s0,.9,0,1.3c0,.4,0,.6,0,.7.1,0,.2,0,.3,0,0-.2.6-.3.7,0,.2.3-.1.7-.5.6-.4-.1-.5,0-.6.7,0,.3,0,.4.4.5.3.1.9,0,1.1-.1h0ZM31.1,120.5c-.1,0-.2-.2-.2-.3,0-.3.5-.2.6.2,0,.3,0,.3-.4.2h0ZM30.9,117.5c0-.2.1-.3.3-.3.4,0,.4.6,0,.6-.2,0-.3,0-.3-.3ZM31.2,115.4c-.2-.2,0-.6.2-.6s.3,0,.3.1c0,.2-.4.5-.5.4h0ZM30.9,112.2c0-.2.3-.6.5-.6.3,0,.1.6-.2.7-.2,0-.3,0-.3-.1ZM71.9,124.2c0-.5-.6-1.2-.9-1.2s-.4-.3-.6-.6-.7-.8-1-1.1-.5-.6-.5-.7-.2-.2-.4-.2-.4,0-.4.1,0,.2.2.2.1,0,0,0c-.1.1.2.5,1,1.3.3.3.5.6.5.7,0,.2,1.7,1.9,1.9,1.9s0-.2,0-.5h0ZM109.1,124.4c.3-.3.3-10.1,0-10.3-.2-.2-9.2-.3-9.3,0,0,0-.1.7-.1,1.3-.1,2.2-1.1,6-1.5,6s-.1.1-.1.3-.2.6-.5,1.1-.5.9-.5.9c0,.4.5.5,1.8.5.7,0,2,0,2.8.1s2.6.1,4,.2,2.6.1,2.7.2c.2.2.6.1.8-.1h0ZM104.9,123.3c0,0,0-.3,0-.5s.2-.6.2-.9,0-.8.2-1.1.4-1.1.6-1.8.5-1.4.6-1.4c.2,0,.4.5.7,1.8.1.6.2,1.1.3,1.1s.3.5.5,1.1c.3.8.3,1,.1,1.1-.2,0-.7-.8-.7-1.2s-.1-.3-.2-.4c-.2-.2-.3,0-.4.8-.3,1.3-.6,1.4-.6,0,0-.9,0-.9-.2-.7-.1.2-.3.7-.4,1.1-.2.8-.3,1-.5.7h0ZM101.2,122.8c0-.2-.2-.5-.2-.6s0-.4-.1-.5c-.1-.2-.2-.1-.4.3-.2.5-.4.7-.6.7,0,0,0-.3.2-.6.3-.6.8-2.5,1.2-4,.2-.7.6-.8.7,0,0,.3.2.8.3,1.3s.3.9.3,1.2.1.5.2.6.2.5.2.9c0,.6,0,.7-.2.7s-.2-.1-.2-.4c0-.3,0-.4-.1-.4s-.2-.1-.2-.3c0-.6-.4,0-.5.7-.1,1-.4,1.3-.6.8h0ZM46.8,123c0-.6,0-.9-.3-1.1-.2-.2-.3-.4-.3-.5s-.2-.4-.4-.6-.4-.5-.4-.6-.1-.4-.3-.5-.3-.4-.3-.5-.2-.4-.4-.6-.5-.7-.7-1.1-.4-.7-.5-.8-.2-.2-.1-.3,0-.2-.2-.3c-.1,0-.2-.3-.2-.6s0-.5-.2-.5-.2-.1-.2-.2-.1-.3-.2-.3-.3-.3-.4-.5-.2-.4-.3-.4-.2,0-.2-.2c0-.5-1.5-1.5-1.7-1.1,0,.1.3.9,1.6,3.1.2.3.5,1,.8,1.4s.5.9.5.9.2.3.4.6.4.6.5.7.4.5.5.7.5,1,.9,1.5.7,1.1.7,1.2,0,.2.1.2.3.3.4.6c.4.7.6.6.6-.4h0ZM92.6,123.7c.3,0,.3-.4,0-.7-.1-.1-.2-.3-.2-.4s-.2-.4-.5-.7-.7-.9-.9-1.2-.6-1.1-1-1.6c-1.1-1.6-2.3-3.4-2.2-3.4,0,0,0-.1-.2-.3s-.3-.4-.4-.5c-.2-.3-.8-.3-1.9,0-.4,0-1.1.2-1.6.2s-1.2.1-1.8.2c-1.4.2-1.7,0-2.3-1-.5-.9-.9-1.2-.9-.7,0,.1,0,.5-.1.8,0,.3-.1,1-.2,1.5,0,1.1-.3,1.4-1.3,1.3-.8,0-1,.2-.5.8.5.5.9,1.1.9,1.3s0,.2.2.3.4.4.7.8c.9,1.2,2.5,3,2.9,3.2.2,0,1.4.2,2.8.2s2.5,0,2.5,0,1,0,2.2,0,2.2,0,2.3.1c0,0,1,0,1.6,0h0ZM96.4,122.9c.3-.4.6-.8.6-.9,0-.3.5-1.4.7-1.6,0,0,.2-.7.3-1.4s.2-1.4.3-1.4.2-.4.2-.8.2-1,.2-1.3.2-1.1.3-1.8v-1.3c.1,0-1.3.1-1.3.1-.8,0-1.6.2-1.7.3s-.7.2-1.1.2-1.3.2-1.9.3c-2,.4-2.6.5-4.5.6-.6,0-.6.5.4,1.9.5.7,1.2,1.8,1.6,2.4s.8,1.2,1,1.4.3.4.3.5.3.5.6.8.6.8.6.8c0,.2,1.2,1.3,1.9,1.6.7.3,1,.3,1.8-.6h0ZM74.2,122.7c.7-.5,1-1,.7-1.3s-.3,0-.5.2-.6.4-.7.5c-.4.2-.6.6-.5,1,.1.4.2.4,1.1-.3ZM72,122.6c0-.1-.1-.4-.5-.7-.3-.3-.5-.5-.5-.6s-.2-.3-.4-.5c-1.2-1.4-1.9-2.2-1.9-2.3s0-.2,0-.2-.2,0-.3-.1c-.5-.2-.3.7.3,1.3.3.4.6.7.6.7s.4.5.9,1,1.1,1,1.2,1.2c.4.4.5.4.6,0h0ZM74.4,120.8c.8-.8.4-1.4-.4-.7-.2.2-.6.5-.8.6-.3.2-.3.4-.2.6.1.4.1.4.5,0,.2-.2.6-.5.9-.7h0ZM47.2,120.9c0-.3,0-.5-.1-.6-.2-.2-.8-1.2-1-1.6,0-.2-.1-.3-.2-.3s-.2-.3-.3-.6-.3-.6-.4-.6-.2,0-.2-.2c0-.3-1.3-2.7-1.7-3.1-.1-.1-.2-.3-.2-.4,0-.3-.7-1-1-1-.5,0-.5.2,0,.9.3.4.5,1,.6,1.2s.2.5.3.5.1.1.1.2,0,.3.1.3c.2,0,.8,1.1.8,1.3s.1.3.3.5.3.4.3.5,0,.2.1.2.3.3.5.7.5.9.7,1.1.4.5.4.6,0,.2.2.2.2.1.2.3c0,.4.3.3.4-.2h0ZM71.5,120.1c-.3-.3-.5-.6-.5-.6s-.4-.5-.9-1c-.5-.5-.8-1-.8-1.1,0-.1,0-.2-.2-.2s-.3-.2-.4-.3c-.2-.4-.6-.4-.7-.2-.1.2-.1.2,1.5,1.9.6.7,1.1,1.3,1,1.4s0,.2.1.2.4.2.6.4c.2.3.4.4.5.2s0-.3-.4-.7h0ZM74.1,119.3c.4-.3.6-.7.6-.9,0-.3-.2-.2-.9.3-.9.6-1,.7-.9,1.2,0,.4.3.3,1.2-.6h0ZM71.7,118.5c0,0-.4-.4-.6-.9-.7-1.1-1.1-1.4-1.4-1.2-.2.2-.2.3,0,.6.2.2.3.4.3.5s.4.5.8.9c.7.7.8.8.9.5,0-.2,0-.4,0-.5h0ZM47.3,118.3c-.1-.3-.4-.7-.6-.9s-.4-.6-.4-.7,0-.2-.2-.2-.3-.3-.5-.8-.6-1.2-.9-1.6-.5-.8-.5-1c0-.4.4-.4.5,0,0,.2.2.3.2.4.1.1,1.3,2,1.4,2.3.5,1.4.9,1.8,1.1,1.2.1-.3-.6-1.9-1.5-3.2-.2-.3-.4-.6-.4-.8s-.1-.3-.2-.3-.2,0-.2-.2c.1-.2-1.4-.4-1.8-.3-.4.1-.4.2,1,2.4.2.2.3.5.4.7s.3.6.6.9.8,1.1,1.1,1.7c.4.7.7,1,.8.9s.1-.3,0-.6h0ZM73.3,118.2c.1-.1.3-.3.4-.3s.2,0,.2-.2,0-.2.2-.2c.2,0,.6-.4.6-.7,0-.4-.6-.1-1.2.5-.6.7-.8,1-.5,1s.3-.1.4-.3h0ZM71.4,116.5c0,0,0,0,0,.2,0,.2,0,.2,0,.1,0-.1,0-.3,0-.3ZM76.8,115.9c0-.3-.9-.4-4-.5-1.6,0-3.3-.2-3.9-.2-.9-.1-1,0-1,.2s.3.3,1.8.4c1,0,2.8.2,4,.3,2.4.2,3.1.2,3.1-.1h0ZM47.9,114.8c0-.2-.2-.5-.3-.6-.3-.4-.4.1-.2.6.3.5.6.5.4,0ZM77.3,114.6c0-.2-.2-.3-.9-.3-.5,0-1,0-1-.1s-1.5-.1-3.2-.2c-4.4-.2-4.3-.2-4.3,0s.2.3,1,.3c1.4,0,5,.4,5.7.5,1,.2,2.7,0,2.7-.3h0ZM81.7,114.3c0,0,.6-.1,1.1-.2s1.7-.2,2.5-.3,1.9-.3,2.5-.3,1.4-.2,1.9-.3,1.3-.3,1.7-.3c.4,0,.9-.1,1-.2s.6-.1.9-.2,1.1-.2,1.7-.3,1.2-.2,1.3-.2.2,0,.3,0,.3-.2.4-.2c1.3,0,1.7-.4,1.1-1-.4-.5-1.2-.4-4.9.3-1,.2-2,.4-2.2.4s-.5,0-.6.1c-.1.1-2.1.5-3,.6-.2,0-.5,0-.6.1-.2.1-1,.3-1.9.4-1,0-4.4.6-4.7.7-.3.1,0,.9.5,1,.6.1.7.1.8,0h0ZM77.3,113.6c.3-.2.2-1.9-.1-2.3,0-.1-.6-.2-1.1-.2-.5,0-1.2,0-1.6-.1-.9-.1-2.4-.2-4.5-.3-.9,0-1.8-.1-1.9-.1-.7,0-.8,0-.7,1.1,0,.6.2,1.1.3,1.2.1.1.9.3,2,.3,1,0,2.2.1,2.7.2s1.6.1,2.4.1,1.4.1,1.5.2c.1.1.9.1,1.1,0h0ZM68.2,112.3c0,0,0-.3,0-.4.2-.2.2-.2.4,0,.1.1.2.3.1.4-.1.2-.5.2-.6,0ZM70,112.3c0,0,.1-.2.3-.3.4-.1.4-.1.4.1s-.1.3-.3.3-.3,0-.3-.1ZM73.9,112.2c0-.1.1-.2.3-.2.4,0,.4.5,0,.5s-.3-.1-.3-.2ZM72.3,112.1c0,0,.1-.2.2-.2s.2,0,.2.2-.1.2-.2.2-.2,0-.2-.2ZM108.6,113.1c0,0,.3,0,.4,0,.3,0,.4-.9.2-1.1,0,0-.4,0-.7,0s-2.3,0-4.4,0h-3.9s0,.4,0,.4c0,.2,0,.5,0,.6,0,0,.9.2,1.9.2s1.8,0,1.9,0c0,0,4.6,0,4.7,0h0ZM46.8,113c0-.2-.3-.4-.4-.3s0,.4.3.4.1,0,.1-.2ZM48.1,112.9c0-.1-.1-.3-.2-.3s-.2.1-.2.3.1.3.2.3.2-.1.2-.3ZM80.6,112.6c.5,0,2-.3,3.3-.5,3.4-.5,5-.8,5.2-1,0,0,.5-.1.8,0s.7,0,.7-.1.1-.1.3-.1c.4,0,2.4-.2,2.9-.4.2,0,.7-.2,1.1-.2,1,0,1.6-.3,1.7-.5,0-.1-.2-.5-.6-.9s-.6-.8-.6-.8-.2-.2-.4-.3-.4-.3-.4-.4c0-.3-1.4-.2-5.2.6-4.7,1-8.2,1.6-9.6,1.8-1.7.2-2,.3-2.1.5,0,.1.2.6.5.9s.6.8.6.9.2.3.4.5.4.3.4.3.4,0,1-.2h0ZM80.5,111.7c0-.3.4-.5.7-.3.1,0,.1.2-.1.3-.4.3-.6.3-.6,0ZM82.8,111.3c-.3-.2-.1-.6.2-.8.2,0,.5.2.5.5,0,.2-.6.4-.8.3h0ZM84.9,110.8c-.2-.5.2-.9.8-.6.2,0,.2.1,0,.4-.3.3-.6.4-.8.2h0ZM87.4,110.4c-.3-.3,0-.8.4-.8s.4.7,0,.9c-.3.1-.3.1-.5,0ZM89.9,109.9c-.1-.2-.1-.3,0-.6.2-.3.2-.3.5,0,.2.2.3.4.1.6-.2.4-.4.4-.6,0h0ZM92.2,109.4c-.4-.4,0-1.1.5-.8.2.1.4.8.2.8s-.2,0-.3,0-.3,0-.4-.1h0ZM94,108.9c-.2-.4,0-.8.5-.8s.4,0,.4.5,0,.5-.4.5-.4-.1-.5-.3ZM50.4,111.4c0,0,.7-.1,1.4-.2,1.6,0,3.8-.5,4.8-.9.1,0,.3-.1.4-.1,1-.1,2.2-1.4,2.5-2.7.2-.6.1-1.5,0-1.6,0,0-.1-.1,0-.3.1-.3-.7-1.3-1.1-1.4-1.6-.2-2.7.2-3.1,1.2l-.3.7.4.5c.2.3.5.5.7.5.4,0,1.1-.6,1.1-.8s.1-.2.3-.2c.3,0,.3,0,.2.5,0,.3-.2.7-.4.9-.5.7-3.6,1.5-6.3,1.6-1,0-1.9,0-2.1,0-.5,0-.5.6,0,1,.6.5.2.6-.5,0-.7-.5-.9-.5-.9,0s.4,1,.8,1.1c.5,0,2.2,0,2.4-.1h0ZM39.5,111.2c0-.2-.3-.6-.7-1.1-.7-.8-.7-.8-1.7-.8s-1.1,0-1.1-.2-.3-.2-.5-.2-.9-.1-1.5-.2-1.6-.3-2.2-.3h-1.1c0-.1,0,.7,0,.7,0,.6,0,.8.2.8s.2,0,.2.1c0,.2,2.9.7,4.8.7.1,0,.7.1,1.4.2s1.3.3,1.6.3.5,0,.6,0,.1-.1.1-.3h0ZM41.7,111.2c.1-.3-.4-.9-.7-.9s-.2,0-.2-.2-.2-.7-.6-1.3c-.6-1.1-.9-2.1-.6-2.2,0,0,.4.4.7,1.1s.7,1.4.9,1.7.4.5.4.6,0,.2.2.2.3.2.4.4c.2.4,1.1,1,1.2.9,0-.1-.3-1.3-.6-1.6-.5-.7-1.4-3.1-1.3-3.5.1-.4.3-.2.5.5.1.4.4,1,.6,1.4s.4.7.3.7,0,.2.2.3.3.4.3.6,0,.3.2.3.4.3.6.7c.3.4.6.7.7.7.3,0,.3,0,.1-.5,0-.3-.3-.5-.3-.5s-.2-.1-.2-.3c0-.3-.7-1.9-1.2-2.7-.2-.3-.1-.9.1-.9s1.2,2.2,1.2,2.5,0,.2.2.2.2,0,.2.2c0,.3,1.3,2,1.5,2s0-.3,0-.7c0-.6,0-.9.2-1.2.3-.5.3-.5,0-.9-.2-.2-.3-.4-.4-.4s-.2-.2-.2-.5c-.2-.9-1.1-3-1.5-3.3-.3-.3-3.3-.3-5.3-.1-1,.1-2,.2-2.1.2s-.3,0-.4.1c-.2.3.9,3.1,1.2,3.3,0,0,.1.2.1.3,0,.2.2.5,1.1,1.6.3.3.5.7.5.8s0,.2.2.1.4.1.6.4c.5.5,1,.7,1.1.3h0ZM108,111.2c0,0,0,0,.2,0,.1.2.2.2.3,0,.1-.2.2-.2.3,0,0,.1.2.1.4-.1.2-.2.3-.7.3-2.3s0-2,0-2,0-.4,0-.8c.2-1.2,0-2-.4-2.1-.2,0-1.8,0-3.6,0s-3.5,0-3.9-.2c-.9-.2-1,0-1,2.2,0,1,0,2.5,0,3.4,0,1.9-.1,1.9,2.1,1.8h1.6s0-.7,0-.7c0-.6-.1-.9-.4-.6-.2.3-.7,0-.7-.4,0-.3,0-.3-.6.3-.4.5-.5.6-.6.4,0-.3.4-1.3.9-2.2.1-.2.3-.7.5-1.1.2-.5.4-.8.5-.7.2,0,.4,1.2.8,3.6,0,.7.2,1.3.3,1.4.3.3,3.2.3,3.2,0h0ZM107.2,109.9c0-.2,0-.3-.2-.3s-.4,0-.4.2c0,.1-.1.2-.2,0-.1-.1-.1-.3,0-.7.1-.3.4-1.2.5-2.1.3-1.6.5-1.9.7-1,0,.3.2.6.3.7s.3.7.5,1.4c.3.9.3,1.3.2,1.5s-.2.2-.4,0c-.1-.1-.2-.3-.1-.4,0-.1,0-.2-.1-.2-.1,0-.3.3-.3.5s-.2.4-.3.5c-.1,0-.2,0,0-.2h0ZM76.1,110.2c0,0,0-.2-.2-.3-.4-.3-1.9-.4-6.6-.7-1.9,0-2,0-2,.2,0,.3,0,.3,2.4.5.8,0,2,.2,2.6.2,1.4.1,3.6.2,3.8,0h0ZM99.5,110c0,0,0-.4-.3-.7s-.4-.7-.5-.8-.3-.4-.5-.5c-.3-.2-1.5-1.7-1.5-1.9s-.3-.4-.7-.8-.7-.8-.7-.9-.1-.3-.3-.4-.3-.3-.3-.4-.2-.4-.4-.6c-1.7-1.9-2.8-3.3-2.8-3.5s0-.1-.2-.1-.3-.2-.3-.4-.2-.4-.3-.4-.3-.2-.4-.5c-.2-.5-.2-.5-.3-.2-.1.3,0,.9.3,1.1,0,0,.2.3.4.6s.5.8.8,1.1c.3.3.9,1,1.2,1.5s.9,1.2,1.2,1.6.5.7.4.7,0,.1.2.1.2,0,.2.2.2.3.4.5.4.5.4.6.2.3.4.4c.2,0,.5.3.6.5s.3.5.4.5.2.2.2.3c0,.3.7,1.1.9,1,0,0,0,0,0,.1s.2.5.5.9c.5.6.8.8,1,.5h0ZM78.2,109.2c.7-.2.8-.2,2.4-.4,1.6-.2,2.1-.3,2.1-.3s.2,0,.5,0,.5,0,.5,0,.3,0,.6-.1c1.6-.2,2.2-.3,2.4-.4,0,0,.3-.2.6-.2s.5,0,.5-.2.2-.1.2,0,.6,0,1.1,0,1.2-.2,1.5-.3.8-.2,1.2-.3.8-.2.8-.1.1,0,.1,0,.2-.2.4-.1c.3,0,.3,0,.3-.3,0-.2,0-.4-.1-.4,0,0-3.1.4-4.4.7-.4,0-1.1.2-1.6.3s-1.1.3-1.4.4-.8.2-1,.2-.9.1-1.6.3c-1.6.4-3.1.6-3.9.7-.3,0-.7,0-.8.1s-.5.2-.9.2c-1.1.2-1.2.2-1.1.6,0,.3.6.5.9.3,0,0,.4-.2.6-.2h0ZM52,108.4c1,0,1.8-.2,1.9-.2s.3-.1.4-.3c.2-.2.2-.3,0-.8-.4-1.1-.2-2.3.6-2.9.3-.2.1-.5-.4-.5-.2,0-.8-.1-1.4-.2-2.3-.4-3.8-.6-4-.5,0,0-.8,0-1.5-.2s-1.4-.3-1.6-.3-.5,0-.7,0c-.4,0-.5.6-.2.8,0,0,.2.2.2.4,0,.5,1.6,4.3,2,4.8.2.3.9.3,4.6,0h0ZM74.8,108.1c0-.4,0-2.3,0-4.3v-3.6s-.9-.2-.9-.2c-.5,0-1.4-.2-1.9-.2s-2-.1-3.3-.2c-1.6-.1-2.4-.1-2.5,0-.3.3,0,1.7.4,1.9.4.2.4.5,0,.8-.3.3-.3.9,0,1.1.3.1.3.7,0,.8-.1,0-.1.3,0,.7,0,.4.2,1.1.2,1.7s0,1.2.2,1.5c.1.4.2.4,1.2.4,1.8,0,5.5.2,5.6.3,0,0,.3,0,.5,0,.4,0,.5,0,.5-.7h0ZM71.1,107.6c-.1-.2.4-.6.5-.5.1.1,0,.6-.2.6s-.2,0-.2-.1ZM72.7,107.4c0-.5.4-.5.4,0,0,.2,0,.4-.2.4s-.2-.2-.2-.4ZM67.2,107.4c0-.1,0-.3,0-.3,0-.2.5,0,.5.2.1.3,0,.4-.4.4s-.3,0-.2-.3ZM69.1,107.4c0-.1.2-.3.4-.3.2,0,.3,0,.2.2,0,.1-.2.3-.4.3-.2,0-.3,0-.2-.2ZM71,105.6c-.3-.6.4-.9.8-.4.2.2.2.3,0,.5-.3.3-.6.3-.8,0ZM67.4,105.6c-.2-.3.1-.6.4-.5.3.1.3.1,0,.4-.2.2-.3.2-.4.1ZM69.4,105.6c-.2-.1-.2-.2,0-.4.2-.2.3-.2.4,0,.2.4,0,.6-.4.4ZM72.6,105.6c0-.2.1-.3.2-.4.4-.2.4,0,0,.4-.3.3-.3.3-.3,0h0ZM72,103.9c-.1-.1,0-.3,0-.4.2-.2.2-.2.4,0,.2.2,0,.6-.1.6s-.2,0-.3-.2ZM68.2,103.8c0,0,0-.2,0-.3.1-.1.6,0,.6.3s-.4.2-.6,0h0ZM70,103.7c0-.1,0-.3.1-.3.2-.1.6.2.4.4-.2.3-.6.2-.6,0ZM73.9,103.7c0-.3.3-.2.4,0,0,.1,0,.2-.2.2s-.3-.1-.3-.3ZM68.3,102.4c-.1-.2-.1-.3,0-.4.3-.2.6-.1.6.2s-.4.4-.6.2ZM70.2,102.4c0-.1.1-.3.3-.3s.3.1.3.3-.1.3-.3.3-.3-.1-.3-.3ZM72,102.4c-.2-.3.4-.8.6-.5s.1.3,0,.5c-.3.3-.4.3-.5,0h0ZM73.7,102.5c-.2-.2,0-.6.4-.6s.3,0,.3.3c0,.3-.5.5-.6.3ZM70,101s.1-.2.2-.3c.2-.2.2-.2.2,0s-.1.3-.2.3-.2,0-.2,0ZM72.3,101c0,0,.1-.2.2-.2.1,0,.2,0,.2.1s-.1.2-.2.2-.2,0-.2-.1ZM74.2,100.9c.3-.2.5-.2.4,0,0,0-.2.2-.4.2-.2,0-.2,0,0-.2ZM68.2,100.6c0-.3.4-.4.4,0s-.1.3-.3.3-.2,0-.2-.2ZM37.3,108.3c.2-.1.2-.3-.1-.9-.2-.4-.4-.9-.5-1.2s-.2-.5-.3-.6-.3-.7-.5-1.5-.3-1.6-.4-1.8v-.4c0,0-1.9.1-1.9.1-2.1.1-2.9.2-3,.5,0,0,0,1.2,0,2.4,0,1.6,0,2.3.2,2.4.2.1.9.3,2.1.4.3,0,1,.2,1.7.3s1.4.3,1.7.3.5,0,.6,0,.3,0,.4-.1h0ZM75.9,108.1c0,0,0-.1.2,0s.4,0,.7-.1c.5-.2.6-.3.6-.8,0-1.6,0-3.4,0-5,0-1.7,0-1.8-.4-1.8-.2,0-.5,0-.6,0s-.4,0-.5.1c-.3.2-.3.5-.3,3.7,0,4.5,0,4.3.2,4.3s.2,0,.2-.2h0ZM99.6,107.8c0-.3-1-1.7-1.9-2.7-.2-.2-.4-.5-.4-.6s-.3-.5-.7-.9-.7-.8-.7-.9-.2-.3-.4-.6-.5-.7-.8-1-.7-.9-1.1-1.3-.7-.8-.7-1-.1-.3-.2-.3-.2-.1-.2-.3c0-.3-1.2-1.6-1.5-1.6s-.2-.3-.4-.6c-.2-.4-.3-.6-.5-.5-.2,0-.3.1-.3.2,0,.2.4.8.7,1.1.2.2.5.5.6.8s.6,1,1.1,1.5,1.1,1.3,1.4,1.7c1,1.3,1.3,1.7,1.7,2.2.2.3.4.6.4.7s.1.2.2.3.2.2.1.3c0,.1,0,.2.3.3.2,0,.4.2.4.3s.1.3.3.4.3.3.3.4.2.3.4.5.4.4.4.5,0,.1.2,0,.2,0,.2,0,.2.4.3.6c.4.4.8.4.8,0h0ZM79.1,107.5c0,0,.2-.1.4-.2.5,0,.8,0,2-.3.4,0,1.4-.2,2.1-.3,2-.3,2.4-.3,3.1-.5.6-.2,1.3-.3,1.8-.3.1,0,.3,0,.5-.1.4-.1.7-.2,1.2-.3.9-.1,1.8-.3,1.9-.5.3-.2,0-.9-1.1-2-.5-.5-.9-1-.9-1.1,0-.3-.9-.9-1.4-.9-.3,0-1.2,0-2,0-2.6,0-7.5-.4-7.9-.6-.3-.1-.5,0-.6.2-.2.5-.3,6.8,0,7,.3.2.8.2.8,0h0ZM99.5,105.7c-.2-.3-.5-.9-.8-1.1-.5-.6-1.1-1.4-1.1-1.8s-.2-.3-.5-.4-.5-.3-.5-.4c0-.2-.4-.7-1.4-1.9-.3-.3-.8-.9-1.1-1.3s-.8-1-1.1-1.3-.4-.6-.4-.7-.1-.3-.3-.3-.5-.4-.7-.7c-.4-.7-1-1.4-1.3-1.4s-.2,0-.2-.2,0-.2-.2-.2c-.4,0-.1.7.6,1.6.4.5,1.1,1.4,1.4,1.8s1,1.3,1.5,1.8.9,1,.9,1.1.3.4.7.8.9,1.1,1.2,1.6.9,1.1,1.2,1.5.9,1,1.2,1.5c.7.9.9.9.5,0h0ZM61,104.1c0,0,0-.1-.2,0s-.2,0-.2,0,0-.2.2-.2c.3,0,.2-1-.1-1.1-.2,0-.4-.2-.6-.2-.7-.3-3.6-.9-5.9-1.1-.5,0-1.9-.2-3-.4-4-.6-7.4-1-11.3-1.1-1.5,0-3.2-.2-3.9-.2-1.4-.2-3.6,0-4.7.2-.8.2-.8.2-.7.8v.6s1,0,1,0c.5,0,2,0,3.2-.1,2.4-.1,7,0,8.7.4.6.1,1.4.2,1.9.2.5,0,1.4,0,2,.2s1.2.1,1.2.1c.2,0,3.1.5,4.7.8.8.2,1.9.4,2.4.4s1,.1,1.2.3.2.2.2.1.4,0,1,.2c2.2.6,2.8.7,2.8.4ZM99.6,103.7c-.1-.5-.6-1.1-1.3-2-.3-.4-.6-.7-.6-.8s0-.2-.2-.2-.2-.1-.2-.3,0-.3-.1-.3-.2-.2-.4-.5-.7-.9-1.2-1.5-1-1.2-1.2-1.5-.4-.5-.5-.5-.2-.1-.3-.3-.5-.8-1-1.3-.9-1-.9-1.1,0-.2-.2-.3c-.3-.2-.9-1.2-.9-1.5s0-.2-.2-.2c-.4.1-.2.8.3,1.6,1,1.4,2,2.7,2.4,3.2l.6.8c.8,1,1.9,2.3,1.9,2.4s.3.4.6.7c.9,1,1.5,1.7,1.5,1.9s.2.4.5.6.5.6.5.7c0,.2.2.4.6.4.1,0,.1-.1,0-.4h0ZM37.5,103.6c.3,0,.5,0,.6-.1s.3-.1.5-.2c.4,0,4.5,0,5.2,0,.5,0,.6,0,.6-.4,0-.5,0-.5-.8-.5s-.9,0-.9-.1c0-.1-2.2-.2-5.5-.3h-.6s0,.7,0,.7c0,.9,0,1.3.3,1,0,0,.4-.2.7-.2h0ZM109.1,103.1c.1,0,.2-.5.2-.8v-.7h-1c-1.2.3-7.3.3-7.4.2-.1-.2-.5.3-.5.8s.1.6,2.4.7c1,0,1.8.1,1.9.1.1.1,4.3-.1,4.4-.3h0ZM91.7,101.8c-.1-.3-.4-.5-.5-.5-.2,0-.2,0,0,0,.1,0,.2.2.2.2,0,.2.4.6.5.6,0,0,0-.2-.2-.5h0ZM99.6,101.6c0-.2-.3-.6-.6-1s-.8-1-1-1.3-.5-.6-.6-.6-.3-.1-.4-.4-.4-.6-.6-.9-.4-.5-.4-.6-.2-.3-.5-.5-.5-.4-.5-.5c0-.1-.2-.4-1-1.4-.2-.3-.5-.6-.6-.8s-.3-.5-.4-.7-.3-.5-.4-.5-.2-.1-.2-.2c0-.2-.3-.4-.8-.5-.4,0-.4.3,0,.7.2.2.3.4.3.5s.2.4.5.7l.9,1c.2.2.6.8.9,1.2s.7.9.8,1.1.5.5.7.8.5.7.7.9.5.5.6.7.2.3.2.4c0,.1,2.1,2.4,2.2,2.4s0-.1,0-.3h0ZM60.7,101.3c0-1.3-.5-4-.7-4.3,0-.1-.1-.3,0-.4s0-.5-.2-.9-.2-.8-.2-.9,0-.2-.2-.3-.2-.2-.2-.3,0-.1-.2-.1-.7,0-1.4-.2c-3.2-.6-4.6-.7-4.7-.5,0,.1-.1.6-.1,1.1,0,.5,0,1.4,0,1.9s0,1.6-.1,2.4c0,1.4,0,1.4.4,1.6.3.1.6,0,1.2-.2,1.2-.6,1.7-1,1.5-1.3,0-.1-.3-.2-.4-.1-.3.1-.6-.3-.5-.7,0-.2.3-.1,1.2.3.6.3,1.2.6,1.3.6s.2,0,.2.1c0,.1,1.8.8,2.1.8,0,0,.2,0,.2.2.1.3-.6.4-2.6.4-1.2,0-2,0-2,.1s.2.2.4.2c.6,0,3.3.6,3.7.8.1,0,.5.1.8.1.5,0,.6,0,.5-.4h0ZM54.4,97c-.2-.2-.1-.4.3-.6.3-.1.4-.2.2-.5,0-.2-.1-.4,0-.6,0-.2,0-.3-.2-.3s-.3-.1-.3-.3,0-.3,0-.3c.2,0,1.2.4,1.4.6.1.1.6.3,1,.3s.9.2,1.2.4.7.3.9.3c.5,0,.5.2.4.4,0,.1-.3.1-.5,0-.2,0-1.1,0-2,.2-1.7.4-2.3.4-2.5.2h0ZM109.2,100.8c0-.2.1-.5.1-.8s0-1.7,0-3.1v-2.6s-.6,0-.6,0c-.3,0-.7,0-.8,0-.1,0-1.9,0-3.9,0-4,0-4.1,0-3.8.9,0,.2.2,1.6.2,2.9s.1,2.6.2,2.6c.1.1,1.4.2,5.5.3,2.7,0,3,0,3.2-.3h0ZM104.2,99.6s0-.3,0-.7c0-1.1-.5-1.3-.7-.3-.2.9-.4.8-.5-.2,0-.7,0-.8-.4-.7-.2,0-.3,0-.3-.1,0-.3.8-2.3.9-2.5.2-.2.6.2.7.8.2.9.2,1.2.4,2,.2.9.2,1.8,0,1.8s-.2,0-.2,0h0ZM101.6,99.2c0-.2.1-.4.1-.4s0-.2.2-.2c.2,0,.1.7-.2.8-.2,0-.2,0-.1-.2ZM108.3,99c0,0-.1-.2-.1-.4s0-.4-.1-.5c-.1-.2-.2-.2-.5.1-.3.3-.4.3-.5,0-.2-.3-.2-.2-.5.2l-.3.5v-.5c0-.3.2-1.2.5-2.1.4-1.3.6-1.6.8-1.6.2,0,.3,0,.3.2s.1.8.3,1.4c.5,1.6.6,2.4.4,2.5,0,0-.2,0-.3,0ZM87,100.1c0,0,.4-.1.9-.1.9,0,1.1-.2.5-.6-.3-.1-.4-.1-.6.1-.3.3-.3.3-.8,0-.3-.2-.7-.3-1.1-.2-.5,0-.7,0-.9-.2-.3-.3-.3-.3-.6,0-.4.4-.9.3-1.2,0-.1-.2-.2-.2-.4.2-.3.4-.3.4,0,.5h1.5c.7.1,1.5.2,1.8.3.8.2,1,.2,1.1,0h0ZM90.3,99.9c0,0-.2-.2-.3-.2s0,0,0,.3c.2.3.4.2.2,0h0ZM51.8,99.6c.2-.3.2-1.1.3-3.5,0-2.7,0-3.1-.2-3.1-.1,0-.3,0-.4.2-.1.3-.4,3.5-.5,5.4,0,1.2,0,1.4.2,1.4s.4-.2.5-.4h0ZM50.2,99.6c.3-.5.5-6.9.2-6.9-.3-.1-2.5-.3-3.3-.3-.4,0-1,0-1.3-.1s-1.4-.2-2.4-.2c-2.1,0-2.3,0-2.3,1.4,0,1.6-.2,3.5-.3,4.2q-.2,1.3,2.1,1.6c1.8.2,2.3.2,4.4.3,1.1,0,2,.1,2.1.2.1.1.8,0,.9,0h0ZM42.6,98.7c-.2-.2-.1-.3.3-.5.3-.2.4-.3.3-.6,0-.2,0-.5,0-.6.1-.2,0-.3-.2-.4-.3-.1-.4-.3-.3-.5,0-.3.3-.2,1.9.4,1,.4,1.9.7,2,.8s.2.1.2.1c.2,0,1.2.3,1.2.5s-.3.2-.6.2-.8,0-1,0-.5,0-.6,0c-.8,0-2.7.3-2.9.4-.1,0-.3,0-.4,0h0ZM43.2,95.2c0-.1,0-.3.2-.3.1,0,.2-.2.1-.5,0-.3,0-.4,0-.4s.1-.1,0-.4c0-.2-.1-.5,0-.5s.4,0,.8.3.9.3,1,.3.3,0,.3.1c0,.2.5.3,1.8.5,1,.2,1.2.2.9.6-.1.2-.4.2-1,.2-.5,0-1.4,0-2.1.2-1.5.3-2.2.3-2.2,0h0ZM80.1,99.5c0-.1-.1-.4-.3-.6-.3-.3-.4-.3-.7,0-.4.3-1,.2-1,0s-.5-.2-.8,0c-.2.2-.4.2-.8,0-.4-.2-.5-.2-.8,0-.4.3-.8.3-.8,0s-.5-.2-.7,0-1,0-1-.3c0-.2,0-.2-.1,0,0,.1-.2.2-.4.1-.1,0-.3,0-.4.3-.2.3-.2.4.3.3.3,0,.5,0,.5,0s0,0,.2,0,.4,0,.7.1,1.3.2,2.3.3,1.8,0,1.9.1.5,0,1.1,0c.8,0,1,0,1-.2h0ZM81.7,99.6c.1-.2-.5-.5-.9-.4-.2,0-.4.2-.5.3-.2.2,0,.2.5.2s.8,0,.8-.2h0ZM99.2,98.9c-.1,0-.3-.2-.3-.3,0-.2-.5-.8-.8-.8s-.2,0-.2-.2c0-.2-.6-1.1-1.4-1.9-.2-.2-.4-.5-.4-.6s-.2-.3-.4-.4-.4-.3-.4-.4,0-.2-.1-.2-.2-.2-.3-.4-.2-.5-.4-.6-.3-.3-.3-.5,0-.2-.1-.2-.3,0-.5-.1c-.2,0-.4,0-.4.1,0,.2.7,1.1.9,1.1,0,0,.2.2.2.3s.4.6.7,1,.7.8.8.9.4.5.7.9.9,1,1.2,1.4c1.6,2.1,1.5,1.9,1.5,1.5,0-.2,0-.5-.2-.5h0ZM68.8,98.9c0,0,.5.1,1.1.2,1.7,0,2.4-.2,1.5-.6-.3-.1-.5-.1-.7,0-.2.1-.4.1-.6,0-.3-.2-.5-.2-.8,0-.3.1-.4.1-.7-.1-.3-.3-.3-.3-.7,0-.3.3-.3.8,0,.6,0,0,.2,0,.2,0,0,.1.2.1.3,0,.1,0,.2-.1.3,0ZM37.1,98.7c.1-.2.2-1,.3-2.9,0-1.4,0-2.7.1-2.8.2-.4-.1-.7-.8-.7-1.3,0-5,0-5.1.2-.1.1.7.7,1.2.8.5,0,1.5.5,1.7.6.5.4.2.6-.8.7-1.3.1-2.8.6-2.9.9,0,.2,1.5,1,1.9,1s1.8.6,1.8.7-.3.2-.8.2-1,.3-1.2.4-.7.4-.9.5c-.5.3-.5.3-.4.4,0,0,1.4.2,2.9.2,2.4,0,2.9,0,3.1-.2h0ZM38.8,98c0-.4.1-1.8.2-3.2,0-2.5,0-2.5-.3-2.5s-.4.1-.5,1c-.2,1.4-.2,5.4,0,5.5.3.2.5,0,.6-.7h0ZM40.3,97.8c0-.4,0-.8,0-.8s0-.5.1-1,.1-1.6.2-2.4c.1-1.4,0-1.5-.2-1.5-.7,0-.9.4-.9,3.2,0,1.2-.1,2.3-.2,2.5-.1.2,0,.4.2.8.3.4.4.4.6.3.3-.2.3-.3.2-.9h0ZM67.1,98.4c0-.4-.6-.6-.9-.2-.1.1-.2.3-.1.4.1.2.9,0,1-.2ZM89,98.1c0-.3.4-3.9.4-4.8,0-.7,0-1.4.1-1.7s0-.4-.1-.4c-.4,0-2-1.4-2-1.7s0-.2-.2-.2-.2-.2-.4-.5-.3-.6-.4-.7-.2-.6-.2-1-.1-.9-.2-1.1-.2-.6-.2-.9-.2-1-.3-1.6c-.3-1-.3-1.7,0-1.5.1,0,.3.3.3.7.3,1.2,1.7,2.4,3.9,3,.8.3,1.5.5,1.6.6s.4.2.6.2c.4,0,.5.1.4.5,0,.2,0,.7,0,1.1s0,.7,0,.8-.2.5-.2,1c-.1,1,0,1,1.4,1.4.5.1,1.3.3,1.8.5s1,.3,1.1.3.3.1.5.3.4.2.4.2.2,0,.2,0,.4.3.7.6l.6.4v-1.4c-.2-1.4-.7-4.1-1-4.4,0,0-.1-.3-.1-.5s0-.3-.2-.3-.1,0,0-.1,0-.4-.2-.8-.3-.7-.3-.8-.2-.4-.4-.5-.4-.4-.4-.4c0-.2-1.1-1.3-1.4-1.4-.2,0-.3-.2-.3-.3s-.3-.3-.6-.4-.7-.3-.9-.4c-2-1.1-2.5-1.4-2.7-1.6-.1-.1-.3-.2-.4-.2s-.2,0-.2-.2c0-.2-.3-.3-1.5-.4h-.9c0-.1-.1.4-.1.4-.1.5-.2.6-.7.6-.5,0-.7,0-1-.3-.4-.4-.5-.3-.1.3.1.2.5.5.9.7,1.8.9,2,1,3.2,2.1,1.3,1.2,1.9,1.7,2.6,2,.3.1.5.3.5.4s.1.1.2.1.2.1.2.3,0,.3,0,.3c-.3,0-2.3-.9-2.6-1.2-.2-.2-.5-.3-.6-.3s-.3-.2-.5-.5c-.4-.7-1.3-1.5-2-1.8l-1-.5c-.3-.1-.6-.3-.8-.3-.2,0-.2-.2-.2-.3,0-.1,0-.1,0,0,0,0-.5-.2-.9-.7-.5-.6-.8-.7-.9-.6-.3.3-.1,6.8.2,7.5,0,.1.2.9.4,1.6s.3,1.5.4,1.7.3.7.4,1.1.4,1,.6,1.3.3.5.3.7,0,.2,0,.2.2.2.3.5.2.5.3.5.2.1.2.3c0,.3,1.8,2.7,2,2.7.1,0,.2,0,.2,0h0ZM95.1,86.8c0-.2,0-.3,0-.4s0,0,0,.1.1.2.2.2.2,0,.2.2c0,.3-.4.2-.5-.1ZM87,97.5c0-.2-.2-.4-.3-.5s-.2-.3-.3-.5-.2-.4-.3-.4-.2-.1-.2-.3,0-.3-.1-.3-.3-.3-.6-.7l-.5-.7h-1.5c-1.9-.2-5.4-.4-7.6-.4-2,0-5.2-.2-6.2-.4-1.4-.2-4.1-.2-4.1,0,0,0,0,.7,0,1.4.2,1.4.5,1.9,1.1,1.9.2,0,1,0,1.7,0,.7,0,1.6,0,2,0s1.3,0,2,.2,1.5.2,1.8.2.6,0,.6,0,.7,0,1.5,0c2,0,4.1.2,5.7.4.8,0,1.3,0,1.2,0,0,0,0-.1.3,0,.8.3,1.7.4,2.7.4,1,0,1.1,0,1-.4h0ZM84.6,96.3c-.1-.2,0-.8.3-.8.3,0,.4.3.3.6,0,.3-.4.4-.6.1h0ZM82.5,96.1c-.3-.4-.2-.8.1-.9.4-.1.4-.1.5.3.1.4-.4.9-.6.5ZM80,95.7c-.1-.5.1-.8.5-.5.4.3.3.8,0,.9-.2,0-.4,0-.4-.3h0ZM78,95.7c-.3-.3-.2-.8,0-.8.5,0,.7.2.6.6-.1.4-.4.5-.7.2ZM75.9,95.5c-.2-.2-.2-.3,0-.5.3-.3.6,0,.5.4,0,.4-.4.5-.6.1h0ZM66.9,95.5c-.2-.1,0-.9.2-.9s.7.5.6.7c0,.2-.6.3-.8.1h0ZM69.7,95.5c-.2-.2-.1-.9.1-.9s.8.5.7.7c0,.2-.6.3-.8.2h0ZM73.8,95.4c-.1-.3.1-.7.5-.6.4,0,.4.7,0,.8-.2,0-.4,0-.4-.2ZM71.7,95.2c-.1-.3,0-.6.4-.6s.5.2.4.6c-.1.3-.7.3-.8,0ZM99.5,97.4c0-.2-.2-.4-1.4-1.7-.5-.5-.9-1-.9-1.1s0-.1-.2,0-.2,0-.2-.2c0-.3,0-.3-.2,0-.2.4-.2.5,0,.5s.2,0,.2.2.3.5.6.9.7.9.8,1.1c.2.4.4.6.8.6,0,0,.1,0,.1-.1h0ZM99.3,95.7c-.1-.1-.2-.3-.2-.5,0-.3-1.4-1.8-1.6-1.8s0,.2,0,.4c0,.4,1.7,2.1,1.9,2.1s0,0,0-.2h0ZM31.2,94c0-.2,0-.5.2-.6.2-.2.1-.2-.2,0-.6.2-.7.3-.5.8.2.5.5.4.5-.1h0ZM96.5,93.7c0-.1-.2-.3-.2-.3s-.2-.2-.4-.5c-.2-.5-.2-.5-.3-.2,0,.2,0,.4.4.8.6.6.7.6.5.2ZM108.6,93.5c.6-.1.7-.2.7-.6s0-.5-.7-.7c-.7-.2-3.1-.2-3.3,0,0,0-.2,0-.2,0,0-.1-.2-.1-.4,0-.2,0-.9.1-1.8.1-2.8-.1-3.6.2-2.9,1,.3.3.5.3,3.5.3,1.8,0,3.3,0,3.3,0,0,0,1,0,1.8-.1h0ZM84.2,92.9c0-.2-.1-.3-.3-.3s-.3.1-.3.4,0,.4.3.3c.2,0,.3-.2.3-.4ZM82.3,93.1c0-.2-.2-.1-.3,0,0,.1,0,.2.1.1s.2-.1.2-.2ZM58.8,92.3c-.2-.7-.5-1-1.7-1.2-.6-.1-1.4-.3-1.7-.4-.4,0-1.1-.2-1.6-.2s-1.1-.2-1.3-.2-.9-.2-1.4-.2-1.1,0-1.4-.2c-.6-.2-6.6-.7-8.3-.6-.7,0-2.4,0-4,0-2.9,0-4.3,0-5.7.2-.7,0-.9.2-.9.5-.2.7,0,1.2.4,1.2,1.3,0,4.2,0,6,0,3.5,0,9.2.1,10.3.2.6,0,1.4.1,1.8.2s.8,0,.8,0,.4,0,.8,0c1.5.1,3.7.4,4.1.6.3,0,1.1.2,1.8.3s1.5.2,1.6.2c.4.2.5,0,.4-.6h0ZM78.9,92.9s0-.2,0-.3c-.2-.4-.7-.5-1,0-.3.4-.3.4,0,.5.2,0,1,0,1.1-.1h0ZM80.9,92.9c0,0-.2-.2-.3-.4-.3-.2-.4-.2-.6,0-.4.5-.4.5.3.5.3,0,.6,0,.6-.2h0ZM74.8,92.8c.2-.1.2-.2,0-.4-.2-.2-.3-.2-.5,0-.2.2-.8.3-.8,0s-.2-.3-.4-.4c-.3-.2-.4-.1-.7.2-.2.2-.3.4-.3.4s.6.1,1.2.2,1.1.2,1.2.2.2,0,.3-.1h0ZM77,92.7c.1-.2-.4-.6-.7-.6s-.2.1-.2.3-.1.3-.2.3-.2,0-.2.1c.1.2,1.1.1,1.3,0h0ZM71.5,92.4c.2-.3,0-.5-.5-.3-.2,0-.4.2-.4.3,0,.3.7.3.9,0ZM67.9,92.2c.1-.2-.3-.6-.7-.6s-.4.1-.5.3c0,.1-.3.3-.6.3s-.5,0-.6-.4c-.1-.5-.5-.6-.5-.2,0,.7.3.9,1.5.9.7,0,1.2,0,1.3-.2h0ZM69.8,92.1c0-.4-1.1-.4-1.2,0,0,.2.1.3.6.3.5,0,.6,0,.6-.3ZM109.2,91.3c.2-.2.2-1.1.1-4.8v-4.6c0,0-.5-.5-.5-.5-.3-.3-.6-.4-.8-.4-.4,0-.5,0-1.5.5-.3.1-.8.3-1.2.3s-.7.2-.8.2c-.1.1-.7.3-2.5.8-.3,0-.8.3-1.3.5s-1.3.5-1.9.7c-1.3.4-1.5.5-1.1.9.1.2.3.4.3.6s0,.3.2.3c.2,0,.5.8,1.2,3.1.3,1.1.7,2.1.7,2.2.2.3,1.5.3,5.3.3,2.5,0,3.8,0,3.9-.2h0ZM101.2,89.8c-.1-.2.1-2.2.4-3,0-.3.1-.7.1-.9,0-.5.4-.9.6-.7,0,0,.2.3.3.6s.2.7.3,1c.9,1.8,1.2,2.6.9,2.9-.1.1-.8-1.1-.8-1.5s0-.2-.2-.2-.2.3-.1.9c0,.9-.3,1.3-.4.6-.1-.4-.5-.6-.5-.2s-.4.9-.5.7h0ZM105.9,88.6c-.2-1.2,0-4.4.2-4.7.2-.3.2-.3.4,0,.4.5,1.7,3.2,1.7,3.4,0,.4-.5.1-.6-.4-.1-.4-.2-.5-.3-.3,0,.1-.1.5,0,.9.1.7-.1,1-.4.5-.3-.5-.4-.4-.4.2,0,.8-.3,1.1-.4.4h0ZM83.5,90.9c0-.2,0-.6-.2-1-.3-.9-.8-5.5-.8-7.6,0-1.6.2-4.2.3-4.4,0,0,.1-.5.2-1s.1-1,.2-1.1c.2-.3.5-2.2.4-2.3,0,0-.8-.1-1.6-.1s-2.1,0-2.7,0c-.7,0-1.2,0-1.3.1s-.2,1.5-.2,4.3c0,2.2-.1,4.7-.2,5.6-.1,1.3,0,4.6,0,5.6,0,.1,0,.6,0,1.1v.8s.7,0,.7,0c.4,0,.9.1,1.1.2s1.2.1,2.2.1c1.6,0,1.8,0,1.8-.3h0ZM76.7,90.6c.1-.2.2-1.4.2-3,0-2.4.1-12.7.2-13.7,0-.3,0-.4-.4-.5-.6,0-.6.1-.7,5.2,0,2.3-.1,5.2-.2,6.5-.1,4.7-.1,5.3.2,5.5.4.3.5.3.7,0h0ZM75.1,90.3c0-.3.2-2.3.2-4.6,0-9.4.1-11.7.2-12,.2-.4-.1-.4-1.5-.4-1,0-1.2,0-1.2.3,0,.1,0,.4.2.5s.2.4.3.5.2.6.5,1.1l.4.9-.7,1.4q-.8,1.5,0,2.9c.8,1.3.8,1.7.1,3-.6,1.3-.7,1.8-.4,2.2.8.9,1.3,2.5.8,2.8,0,0-.3.4-.4.8-.3.6-.3.7,0,.9.2.1.5.2.8.2.4,0,.5,0,.7-.5h0ZM90.7,90.5c-.2-.2-1.4-.4-1.4-.2s.2.1.4.1.5,0,.7.2c.4.2.5.2.3,0ZM71.8,90.3c0-.2-.2-.6-.5-.9l-.5-.6.3-.7c.2-.4.3-.7.4-.7s.1-.2.1-.4.1-.5.2-.7c.4-.5.3-1.3-.1-1.8-1.3-1.4-1.4-1.8-.8-2.5.8-1,1.3-2.9.7-3.1-.1,0-.2-.2-.2-.4s-.1-.5-.2-.7-.3-.7-.3-1.1c0-.6,0-.8.2-1.1.2-.2.3-.4.3-.6s0-.4.2-.5c.3-.3.4-1,.2-1.2-.3-.2-1.8-.2-2,0-.1.1-.2.6-.2,1.4,0,.7,0,1.4,0,1.6s-.1,1.3-.2,2.4c-.1,2.6-.2,4.3-.4,6-.2,1.7-.2,4.6,0,5.1.1.5.3.6,1.8.6,1,0,1.2,0,1.2-.3h0ZM58.3,90.2c-.1-.1-.2-.3-.2-.4,0-.4-1.7-4.4-1.9-4.4,0,0-.2-.2-.3-.4l-.5-1.1c-.4-.8-1.1-1.9-1.3-2,0,0-.1-.2-.1-.3s0-.2-.2-.2-.2-.2-.2-.3-.1-.4-.2-.4-.2-.2-.2-.3,0-.2-.1-.2-.4-.4-.7-.9-.7-1-.9-1.1-.3-.3-.3-.4-.4-.5-.8-.9-.8-.9-.8-1.1,0-.2-.1-.2c-.2,0-1.6-1.4-1.6-1.6s-.2-.3-.4-.4c-.5-.3-1.5-.2-2.5.2-.2,0-.7.2-1.1.2s-.8,0-.9.2-.5.2-.8.2-.8.1-.9.2-.7.1-1.1.2-.9.2-1.1.2c-.5.2-1.3.5-2.2.8-.4.1-.9.3-1,.4s-.4.2-.8.2-.9.2-1.1.3-.8.3-1.2.3-.7.2-.8.3-.3.2-.5.2-.5.1-.5.3c-.1.3-.4,10.2-.2,10.7,0,.2.8.3,5.7.3,5.2,0,6.8.1,12.2.6,2.8.2,3.1.3,6,.8,3.1.6,3.9.6,3.6.3h0ZM66.1,90.1c.1-.3.2-1.2.3-4.1,0-.8.1-2.2.2-3.1s.1-2.4.2-3.3.1-2.8.2-4.1v-2.4c.1,0-.6,0-.6,0-2.2,0-2.9-.1-3.7-.2-.5,0-1-.1-1.2-.2s-.4,0-.5.1c-.3.2-.3.3,0,1.5.2.7.5,1.6.7,2.1s.4.9.3,1,0,.6.2,1.3.3,1.4.3,1.6,0,.5.2.7.3,1,.5,1.8.4,1.9.4,2.3.2.8.2,1c.1.8.6,2.7.7,3.3.3.9,1.2,1.4,1.5.8h0ZM68.3,89.1c0-.7,0-1.8,0-2.3.1-1.2.2-3.4.3-7.8,0-1.7.1-3.8.2-4.6v-1.5c0,0-.4.1-.4.1-.3,0-.6.2-.7.3s-.2,1.3-.2,2.6-.1,3.4-.2,4.6-.2,2.5-.2,2.9c0,.9-.3,5.9-.3,6.2,0,.6,0,.7.8.7h.7s0-1.3,0-1.3ZM91.7,89.5c0,0,0-.2,0-.4-.1-.2-.4-.3-.8-.3s-.8,0-1-.2-.5-.2-.6-.2c-.7-.1-1.2-.3-1.4-.5-.2-.3-.5-.3-.5,0,0,.5,1.8,1.6,2.7,1.6.2,0,.4,0,.4.1,0,.1,1,0,1.2,0h0ZM73.6,88.1c.2-.2.2-.2,0-.3-.1,0-.2-.2-.2-.3s-.2-.4-.4-.6l-.4-.4-.4.5c-.4.6-.5.8-.3,1.1.2.2,1.4.2,1.6,0h0ZM91.8,87.9c.1-.2.1-.4,0-.5-.5-.4-1.1-.6-2.1-1-.6-.2-1.5-.6-2-.9s-1-.5-1-.5c-.2,0,.1.9.4,1.2.4.5,2.9,1.7,3.2,1.5,0,0,.3,0,.6.2.6.3.8.3,1,0h0ZM98.2,83.5c.6-.2,1.7-.6,2.3-.8s1.3-.4,1.5-.5.7-.3,1.1-.4.9-.3,1-.4.3-.1.5-.2c.9-.2,1.3-.3,1.9-.6,1-.5.8-1.2-.3-1.2-.3,0-1.5.4-2.1.7-.2.1-.5.2-.6.2-.2,0-4,1.3-4.7,1.6-.3.1-1,.3-1.6.5-1.1.3-1.3.6-.8,1.1.4.4.3.4,1.7,0h0ZM73.3,82.7s0-.2.1-.4c0-.3,0-.5-.5-1l-.6-.6-.3.4c-.3.4-.6,1.4-.4,1.7,0,.1,1.5.1,1.6,0h0ZM97.1,81.9c.6-.2,1.2-.4,1.5-.6s.5-.2.6-.2.4,0,.6-.2.6-.2.8-.2c.8,0,3.8-1.2,3.8-1.5s0-.1.2-.1.3-.1.4-.3c.2-.2.2-.3,0-.3s-.4-.2-.6-.4c-.6-.6-.9-.8-1-.8,0,0-.7-.3-1.4-.8s-1.3-.8-1.5-.8-.2,0-.2-.1c0-.2-1-.9-1.4-.9s-.4-.1-.5-.3-.3-.3-.5-.3-.4-.2-.6-.3-.4-.3-.5-.3-.3-.1-.4-.3-.4-.3-.5-.3-.3,0-.3-.1-.2-.2-.4-.3-.6-.3-.9-.5c-.4-.4-.5-.4-.8-.1-.2.2-.3.4-.3.6s0,.4-.1.6c-.3.5-.5,1.1-.7,1.8,0,.4-.2.8-.3,1s-.2.6-.2.9-.2.7-.3.9c-.3.4-.5,1.4-.2,1.8.2.3,1.6,1.1,1.9,1.1s.5.2.8.5c1.3,1.1,1.5,1.1,3,.6h0ZM94,80.3c0-.1-.1-.3-.2-.4-.2,0-.7-1.1-.7-1.4,0,0-.1-.3-.2-.6s-.2-.6-.2-.7c0-.3.5-.1,1.1.4.3.3.6.5.7.5.3,0,2.3,1.7,2.1,1.8-.1,0-.3,0-.4-.1-.2-.2-.2-.1-.2.1s-.6.7-.8.4c-.2-.3-.4-.2-.4,0s-.1.3-.2.3-.2-.1-.2-.3h0ZM97.1,77.8c0-.2-1.9-2.6-2.5-3.4-.5-.5-.4-1,.2-.9.2,0,.5.1.7.3s.9.6,1.6.9c1.2.6,1.8,1.1,1.5,1.4,0,0-.2,0-.3,0-.2-.2-1.2-.5-1.2-.4s.1.3.3.5c.3.4.3.4,0,.6-.2.1-.2.2-.1.5,0,.2,0,.4,0,.5,0,.1-.1.2-.1,0h0ZM109.3,78.4c0-6.4,0-6.7-.3-7-.2-.2-.5-.3-.6-.3s-.4,0-.5-.2-.6-.4-1-.5-.8-.4-.8-.4-.4-.2-.8-.4-1.2-.6-1.9-.9-1.2-.6-1.4-.6-.4-.1-.6-.3-.6-.4-.9-.4-.6-.2-.6-.3-.3-.2-.5-.2-.4,0-.4-.2-.3-.2-.6-.3-.6-.2-.6-.3c0-.2-.9-.7-1.3-.7s-.3,0-.4-.2c-.2-.4-1.3,1.4-1.3,2.1s-.2.6-.4,1.1-.4,1.2-.5,1.5c0,.5,0,.7.4,1.1.2.3.5.5.6.4s.4,0,.6.2.9.5,1.5.9,1.1.6,1.2.7.2.1.3.1c.3,0,2.1,1,3.1,1.7.4.3.7.5.7.5s.3,0,.6.2.6.3.6.4.3.3.7.5.8.5,1,.6.4.3.4.3.4.2.7.5.6.5.6.4.1,0,.3.1.4.3.6.4.4.2.4.3,0,.2.2.2.3.1.4.3.3.3.4.3c.2,0,.2-.4.2-1.7h0ZM86.9,79.5c0-.3-.5-1.1-.8-1.1s-.5-.2-1-.4c-.6-.3-.9-.4-1-.3-.2.2,0,.7.2.6.1,0,.4.1.7.4.7.7,1.2,1.1,1.2.9s0,0,.2,0c.2.3.5.2.6-.2ZM90,77.4c.5-1.3.7-2.2.7-2.4,0,0,.1-.2.2-.3s.2-.4.2-.7,0-.5.1-.5c.1,0,.6-1.6.6-2s-.9-1.2-1.5-1.4c-.2,0-.6-.3-.8-.5l-.6-.5c-.3-.2-1.2-.7-1.5-.7s-.3-.1-.3-.3-.2-.3-.4-.3-.3.1-.3.3,0,.3-.1.3c-.2,0-.5.9-1.1,3,0,.1-.3.7-.6,1.4-.4.8-.8,3.4-.7,3.8,0,.2.2.3.3.3s.5.2.8.3.6.3.7.3.5.2.9.4c.8.4,1.7.6,2.4.6.4,0,.5-.1.8-1.1h0ZM73.3,75.9c0-.4-.2-.7-.5-1-.4-.4-.4-.4-.7,0-.2.2-.3.6-.4,1v.7c-.1,0,.7,0,.7,0h.9c0,0,0-.6,0-.6ZM32.1,75.9c.2,0,.4,0,.5-.2s.3-.2.5-.2.4,0,.5-.2.2-.2.3-.1c.2,0,1.6-.2,1.8-.3,0,0,.2-.1.3-.1,2.8-.7,3.8-1,4.7-1.2.6-.2,1.4-.4,1.8-.4s1.1-.2,1.6-.3,1-.3,1.3-.3.4-.2.4-.3c0-.2-.4-.7-.6-.7s-.4-.2-.7-.5-.8-.8-1.1-1l-1.1-.9c-.7-.6-2-1.3-2.3-1.3s-.3-.5.1-.7c.4-.2.5-.3,1.6-.4.4,0,.8-.1.9-.2.2-.1,5.5-.6,7.7-.6,1.1,0,2.3,0,2.7,0,.6.2.7.1,1-.3.3-.4.4-.4,1.3-.4s.9,0,1-.5c0-.6,0-2.3-.1-2.4,0,0-.3.2-.7.5s-.7.5-.9.5-.3,0-.4.2c-.2.3-1.7.2-2.3-.2-.9-.6-1.2-1.1-1.2-2.3,0-1.2.1-1.6.7-2.2.5-.4,1.5-.4,1.9.2.2.2.4.5.4.6,0,.4.5,0,.7-.5.2-.6.5-3.6.3-3.6s-.3.2-.5.4-.8.5-1.3.7l-.9.4h.9c.5.2,1.1.2,1.3.1h.4c0-.1-.3.2-.3.2-.4.4-1.7.6-1.9.4,0,0-.3-.2-.5-.2s-.4,0-.4-.3-.2-.5-.5-.8c-.6-.6-.9-1.5-.8-2,.2-.8.6-1.4,1-1.8.4-.4.5-.4,1.3-.3h.9c0,0-.1-1.8-.1-1.8-.1-1.9-.1-2.2,0-3.8,0-.5,0-1,0-1-.4-.3-1.7-1.1-2.4-1.5-1.2-.7-2.4-1.6-2.4-1.9s1-1,1.5-1c.6,0,.7-.3.4-.9-.2-.3-.3-.6-.4-.6s-.3-.3-.6-.7-.7-.9-.9-1.2c-.5-.5-.7-.9-1-1.5,0-.2-.4-.6-.7-1s-.6-.8-.8-1.1-.4-.6-.5-.7c-.4-.3-.3-.8.2-.8h1.4c.6,0,1.1,0,1.1,0s.4.2.8.2c1.3.2,2.5,1.3,2.9,2.6,0,.3.2.6.3.6s.1,0,0-.1,0-.3.2-.6.3-.5.3-.6c0-.3.8-.8,1.4-.9,1.1-.2,2.2.9,2.3,2.2,0,.6,0,.8-.4,1.1-.3.2-.7.4-.9.5s-.4.2-.5.3c0,.9.5,1.8,1.2,1.8.5,0,.8-.4,1.1-1.8.1-.5.3-1.1.3-1.4s.2-1,.2-1.8c.1-1.9.2-2.4.5-2.4s.6.5,1.1,1.5c.5,1.1.7,1.2,1.1.7.2-.2.4-.4.5-.4.3,0,1-.4,1-.5s.2-.5.5-.9.5-.9.6-1.2c.1-.4,0-.5-.7-.5-2.9,0-17.1.1-18.3.3-.5,0-2.6.1-4.5.2-4.7,0-7.5.2-7.7.4,0,0-.2,5.9-.2,13,0,7.1-.1,15-.2,17.5,0,6.3,0,12.9,0,13.2.1.3.6.4.8.2,0,0,.3-.1.5-.1h0ZM79.5,71.9c0,0-.1-.2-.2-.2s0,0,0,.2,0,.2.2.2.1,0,0-.2ZM60.8,70.8c-.4-.7-.4-.9-.4-2.4,0-1,.1-1.7.3-2,.2-.4.2-.3.3,1.4,0,1.8.4,2.9.8,3.2.3.2.3.1.1-1.3,0-.7,0-1.3,0-1.4s.1-.4.1-.7,0-.6.2-.6.2-.4.2-.7c0-.5,0-.6.1-.3,0,.2,0,1.1,0,2,0,1.9.2,3,.8,3.6.4.4.4.4,1-.2.7-.6.7-1.3,0-1.3s-.4,0-.3.5c0,.3,0,.5-.1.6-.3.1-.5-.1-.8-.9-.2-.6-.2-2.5.1-3,0-.1.2-.6.3-1l.2-.8v.9c0,.5,0,1.2-.1,1.6s-.1.9,0,1.1c0,.4.1.4.3.2s.3-.5.3-.8.1-.6.2-.7c.2-.2.6-2.6.5-3,0-.3.3-.4.4,0,0,.2.2.9.2,1.3,0,.3.3.2.3,0s0-.4.1-.4.1-.5.2-.9c0-.9.1-1,.4-.8,0,.1.1.6.1,1.1,0,.6,0,.9.1.9.2,0,.7-1.2.7-1.8s0-.5.3-.5.2.1.2.8c0,.7,0,.8.1.6.1-.1.3-.6.4-1.1s.2-1,.3-1c.2-.4.4,0,.4.6s0,.8.3.5c.2-.2.4-.7.5-1.5.3-1.9,1-3,1.9-3.2.2,0,.5-.2.6-.3.2-.2.4-1.2.5-2.3,0-1.2.2-2.4.3-2.8,0-.3,0-.4-.5-.6-.3-.1-.7-.4-.9-.7-.3-.4-.6-1.9-.3-1.9,0,0,.2-.2.2-.5,0-.4.1-.6,1.1-1.3.4-.3.4-.4.3-1,0-.4-.3-1.4-.6-2.4s-.5-1.8-.5-2c0-.6-.5-.7-2.7-.8-4-.2-7.3-.1-9.4.4-1.5.3-3.7,1-3.8,1.1,0,0-.2.1-.2.1-.5,0-.9.3-.9.6-.1.4,0,.5.4.3.4-.4,1.1-.6,2.3-.6.6,0,1.3,0,1.6,0,.4,0,.5,0,.8.6.6,1,.7,1.8.5,2.6-.1.5-.1,1.1,0,2.2.1.8.2,1.6.2,1.7,0,1.6-.2,2.7-.4,2.8,0,0-.2.4-.2.6,0,.6.4.6,1.3,0,1-.7,1.8-.8,1.9-.4.1.4.7.6,1,.3.2-.2.2-.3,0-.8-.3-.8-.2-.9.2-.3.5.6.6,1.2.3,1.5-.3.3-1.4.4-1.7.2-.2-.2-.9.2-.8.5,0,.1,0,.3,0,.4-.1.2-.2.2-.4,0-.2-.3-.4-.3-1.1-.2-.5,0-1,0-1.1,0-.3-.1-.3-1,0-2.2.2-.6.3-1,.2-1.1s0-.7,0-1.4c0-1.6-.2-2-.5-1-.2.8-.7,1-.7.4,0-.3,0-.4-.3-.4s-.4,0-.6-.1c-.2,0-.2,0,0,.3.2.4.2.4-.2.6-.2,0-.5,0-.6-.1-.3-.2-.3-.3,0-.4h.4c0-.1-.4-.4-.4-.4-.2-.2-.5-.3-.7-.4-.3-.1-.3-.5,0-1.2.1-.3,0-.3-.6-.2-1.5.2-.7-.5,1-1,1.3-.3,2.1-.3,2.5,0,.3.2.3.2-.2.3-.6.1-.7.5-.5,1.3.1.6.5.7,1,.1.4-.5.5-2.6.1-3.5-.4-.8-.5-.9-1.6-.7-1.6.2-3,.9-3,1.5s.5.2.7,0c.4-.4,2.5-.7,3.2-.5.6.2.2.4-.8.4-.8,0-2.2.4-2.5.7,0,0-.2.1-.4.1s-.3.2-.4.4c-.1.5,0,2.7.3,3.1,0,.2.1.3,0,.4s0,.2,0,.3.3.8.3,1.5c.5,3.9.7,5.5,1,6.2.1.3.3.8.3,1.1s.2.6.2.7c.6.9.5,4.9,0,4.9s-.2-.4-.1-2c0-1.2,0-2.2,0-2.4-.2-.4-.2-.4-.5-.2-.3.3-.3.3,0,.6.3.6.4,1.8.2,2.9-.1.5-.2,1.2-.2,1.5,0,.7-.6,1.5-1.1,1.3-.4-.1-.5-.6-.1-.6s.4-.4.4-.9-.1-.4-.5-.5c-.7-.2-1.1.1-1.3.9-.1.5-.1.7,0,.8.9.6,1.3.8,1.7.9.3,0,.5,0,.6,0s.2-.1.4-.1c.4,0,1.7-1.4,2.1-2.2.1-.3.3-.5.4-.5s.2-.1.2-.3.1-.5.3-.7l.3-.4v.5c-.2.3-.3.7-.4,1-.2.7,0,3.9.2,4.7.3.8,1.1,1.8,1.2,1.5,0-.1-.1-.5-.4-1h0ZM62.9,63.2c0-.2,0-.3,0-.2s0,.3,0,.4,0,0,0-.2ZM64.5,61.7c-.4-.4-.6-.5-1.2-.4-.4,0-1,.2-1.3.4-.4.2-.6.3-.7.1,0-.1,0-.3.2-.4.6-.4.9-.8.9-1.3s0-.5-.3-.5-.5-.2-.8-.4c-.5-.5-.7-.4-.8.3,0,.5-.5.6-.6,0,0-.2,0-.7,0-1.1,0-.6,0-.8.2-.9.2-.1.3-.1.4,0,0,.2,1.2,0,1.3-.2,0,0,1.1-.1,2.5,0h2.4c0,0,0,.8,0,.8,0,.4,0,.9,0,1,0,.4-.5.4-.5,0,0-.5,0-.6-.3-.8-.4-.2-.5-.2-.5.3s-.1.5-.6.7c-.3.2-.6.4-.7.5-.1.2.2.8.8,1.4.4.4.5.9.3.8,0,0-.3-.2-.6-.5h0ZM64.8,59c.3-.2.4-.7,0-.6-.1,0-.7.1-1.3.2-1.1.1-1.4.3-.7.5.6.1,1.6,0,1.9,0h0ZM65,50.8c-.3-.2-.7-.4-.7-.4s-.2,0-.2-.1-.2-.4-.5-.7c-.6-.7-.6-.8,0-1.4.2-.3.5-.7.6-1s.3-.5.4-.5.2,0,.2-.2c0-.3.9-.6,2-.7.9-.1,1.1,0,1.6.2.3.2.7.4.9.4s.3,0,.3.2.1.2.3.3.3.2.3.3c0,.2-.4.2-.6,0-.2-.3-1.8-.5-2.8-.5-.8,0-1.7.4-1.9.9-.2.5,0,.5.7.1.3-.2.6-.3.7-.3s.2,0,.2,0c.6-.3,2.4,0,2.9.5.2.2.4.3.5.3s.2.1.3.3c.1.3.1.3-.2.2-.2,0-.6-.2-.9-.4-.7-.4-.8-.3-.8.4,0,.5.1.6.5.6.2,0,.5,0,.6,0,.3-.3.6,0,.5.4-.1.5-1.2,1.3-1.8,1.4-.4,0-.5,0-.5-.3s-.2-.5-1-.6c-.3,0-.6,0-.6-.1,0-.1-.6,0-.7,0s.4.8.7.8.2,0,.1.2c-.1.2-.3.2-.9-.3h0ZM65.4,49.2c0,0,0-.2.1-.4.3-.2.3-.7.1-.7s-.4,0-.6.2c-.6.2-.7.7-.2.9.5.1.7.1.6,0ZM63.1,46.7c-.4-.3,0-.9,1.3-2.1.2-.2.4-.3.4-.3,0,0,.5-.1,1-.3,1-.3.9-.3,3,.2.4.1.8.3.8.3s.2.2.4.2.4.2.5.4c.1.4,0,.5-.3.2-.5-.4-1.7-.7-3-.6-1.6.1-2,.3-3,1.3-.4.5-.8.8-.8.8s-.1,0-.3-.2h0ZM83.3,71.2c.6,0,1,0,1.1-.2.2-.2.7-1.8.7-2.1s-1.5-.2-5.1-.2c-2.8,0-6.8,0-8.9-.1-6.1-.2-6-.2-6.1.2,0,.2,0,.5.3.7s.3.5.3.6c0,.5.5.6,2.2.7.9,0,2.5.1,3.5.2s2.3,0,3,0,1.3,0,1.4,0c1.1,0,4.8.2,4.8.3,0,0,.5,0,1,0s1.3-.1,1.9,0h0ZM66.9,69.6c0,0,.1-.2.2-.2s.2,0,.2.2-.1.2-.2.2-.2,0-.2-.2ZM109.4,66.2c0-5.2,0-9.9,0-12.3,0-1.1,0-2.1,0-2.3.1-6.3.2-16.1.2-18.3v-1.7s-1.2-.1-1.2-.1c-.6,0-3.7-.1-6.7-.2s-6.1-.1-6.8-.2c-2.2-.2-3.5-.2-3.6-.1,0,0-3,0-6.5,0-5.3,0-6.5,0-6.5.2,0,.4.5,1.6.9,2.2.2.3.4.7.4.9,0,.3,0,.4.4.4.6,0,1.6.4,1.8.7,0,.2.2,0,.4-.4.1-.3.2-.7.2-.8s0-.2.2-.3.3-.3.4-.6c.2-.4.5-.6.5-.3s0,.2.2.2.2.2.2.6c0,.3.2.9.3,1.4.3.9.6,1,1.2.5.3-.3,1.8-.3,2.4,0l.4.2v-.6c0-.8.5-1.8,1-1.9.2,0,.4-.2.4-.2s.3-.2.8-.2.8-.2.9-.2.7-.1,1.4-.2c1.4,0,1.5,0,.8,1.1-.2.3-.4.8-.4,1s0,.5-.2.7-.3.8-.5,1.3-.3,1.2-.4,1.3c-.8,1.8-1,2.9-.6,3.3.5.5-.2,4.2-1.1,5.5-.3.5-.5.6-.8.5-.3,0-.4,0-.3.2,0,.2.2.7.3,1.3.1.5.4,1.1.6,1.4.7.7.7,1.8.1,2.5-.1.2-.2.3-.1.3s0,.2-.2.4-.3.5-.3.7c0,.6.4,1.8.8,2.8,0,.2.4.3,1,.4,1.3.2,2.3,1.1,2.4,2.4,0,1.1-.4,2-1.5,2.8-.2.2-.4.4-.4.5.1.2,1,.6,2,.9l.8.2.3-.8c.2-.4.3-.9.3-1.1s0-.3.1-.4c.2,0,1.3-3.6,1.1-3.6,0,0-.1-.1-.2-.3s-.2-.4-.4-.6-.4-.5-.4-.7,0-.3-.1-.3-.2-.3-.4-.6-.3-.7-.4-.8-.2-.3-.2-.5,0-.3-.1-.3-.2-.2-.3-.5-.2-.5-.2-.5-.1-.2-.1-.5-.1-.7-.3-.9-.2-.5-.2-.6-.1-.3-.3-.5c-.2-.1-.3-.4-.4-.7,0-.4-.2-.6-.5-.8-.8-.4-.9-.9-.5-1.8.4-.8.6-.9,1.3-.7.3,0,1,.2,1.4.3s1,.2,1.2.3c.3,0,.5,0,.6-.2.3-.6.2-.7-.7-.7-.8,0-1,0-1.5-.4-.3-.3-.6-.6-.6-.8s0-.3-.1-.4c-.3-.4-.1-1.8.4-2.4.2-.2.4-.5.6-.8.7-.9,2.1-1.2,3.3-.7.8.4.9.3.9-.2s.5-1.6.8-1.7c.1,0,.3-.2.5-.4s.3-.3.4-.3.3-.1.3-.2.2-.2.3-.2.3,0,.3,0,.2-.2.4-.2.6-.2,1-.5c1-.7,1.4-.6,1.9,0,.2.3.4.7.4.8s.3.8.6,1.3c1,1.7,1.1,3.4.2,4.1-.6.5-.6.6.1.6.3,0,.8.1,1,.2s.5.3.6.4c.9.5,1.3,2.2.6,3.1-.5.6-1.2,1-1.9.9-.9-.1-1.1-.2-1.2-.7-.2-.7-.6-.5-.9.3-.3.9-.3,1.3,0,1.3s.6.1.9.3.8.3,1,.3c1.2.2,1.5.3,1.5.4,0,0,.2.1.3.1s.4.1.6.3c.3.3.3.4.1,1-.3.9-.7,1.2-1.2,1.1-.3,0-.6,0-1,.3-.4.3-.7.4-.9.3-.2,0-.4,0-.7.2-.2.2-.4.3-.6.3s-.4.3-.6.6-.7.7-1,.8-.5.3-.5.5-.2.3-.4.4c-.4.2-1,.5-1.2.7-.3.3-1.4.7-1.8.7-.5,0-.6,0-.9.7-.2.4-.4,1.1-.6,1.6-.1.5-.3,1.1-.4,1.3s-.2.5-.2.5,0,.2-.1.3c-.3,1.1-.4,1.4-.3,1.6,0,.3,1,.9,1.5.9.1,0,.3,0,.4.1s.3,0,.6,0c.4,0,.5,0,.6.2,0,.4.2.5,1.9,1.1.6.3,1.2.5,1.2.6s.2.2.5.2.9.3,1.5.6,1.1.5,1.2.4.2,0,.3.1c.1.2,1.3.9,1.5.8,0,0,.5.2,1,.4.6.3,1,.4,1.1.3,0,0,.2-1.7.2-3.9h0ZM93,69c.3-.6.6-1.4.7-1.9s.3-.9.3-.9c.2-.1.5-1.4.4-1.5,0,0-.7-.3-1.4-.6-1.6-.6-1.7-.7-2-.9-.1,0-.7-.3-1.2-.5s-1-.4-1-.5-.1,0-.2,0-.2.3-.2.4-.2.4-.4.7c-.6.9-2.3,1.4-3.4,1-1.3-.5.6,1.4,2.1,2.1.2,0,.4.3.5.4s.3.3.4.3.2.1.3.3.2.3.3.3c.4,0,2.2,1.1,3.5,2,.6.5.8.4,1.3-.7h0ZM58.3,69.3c.1-.2.1-.2,0-.2s-.2,0-.2.2-.1.2-.3.2-.3,0-.4.1c-.1.2.7,0,.9-.2h0ZM58.1,68.5c.4-.2,1-.9,1-1.2s-.4,0-1,.5c-.9.8-.9,1.1,0,.6h0ZM80.5,68c1.7,0,3.1,0,3.2,0s.4,0,.7-.1.7-.2.8-.2c.2,0,.2,0,.2-.3s0-.3-.4-.2c-.2,0-.6.1-.9.1-.5,0-1,0-1.7,0-.2,0-.6,0-.8,0s-.8,0-1.2,0c-.4,0-.6,0-.6,0,.1-.2-.4-.4-.7-.2-.4.2-1.3.3-1.3,0s-.6,0-1,.3c-.2.2-.3.2-.6,0-.2-.1-.3-.3-.4-.4-.2-.3-.5-.3-1.1,0-.3.2-.5.2-.6,0-.1-.2-.9-.2-1.1,0-.2.2-.9,0-.9-.2s-.5-.2-.9,0c-.3.2-1,.2-1.1,0,0,0-.2,0-.4.1-.3.3-1.1.2-1.1-.2s-.5-.3-.8,0c-.3.3-.6.3-1,0-.3-.2-.3-.2-.8,0-.3.2-.5.4-.4.5,0,.3,0,.3,2.5.3,1.1,0,2.3.1,2.6.2.3,0,.7,0,.9,0,.2-.1.4-.1.5,0,.1.1.2.1.2-.1,0-.2,0-.3.1-.1.1.2,3,.5,4.1.4.3,0,1.9,0,3.5,0h0ZM83.7,66.3c.4,0,.7,0,.8-.1,0-.2-1.4-1.8-1.6-1.8s-.4.3-.7.7c-.7.8-1.1.9-2.1.7-.5-.1-.8-.1-1.1,0-.6.3,0,.5,1.5.6.8,0,1.6,0,1.6.1s.3,0,.5,0,.7,0,1.1,0h0ZM76.2,66c0,0-.3-.7-.6-.9-.2-.1-.6-.1-1.4,0-1.3.2-1.9,0-2.6-.5-.3-.2-.6-.4-.6-.3s-.2-.1-.3-.4l-.2-.5-.8,1c-.4.6-.7,1.1-.7,1.1,0,0,4,.4,5.4.4.4,0,.8,0,.8.2,0,.1.8,0,.9-.1h0ZM78.4,65.3c.1-.4,0-.8-.4-.8s-.5-.2-.8-.4c-.6-.5-1-.5-1,0s.6,1.2,1.1,1.3c.7.2,1.1.2,1.2-.1ZM81.9,64.5c.3-.7.3-1.1-.2-1.8-.5-.7-1-1-1.4-.6-.3.3-.3.6.1,1,.2.2.3.5.2.6-.1.2-.7.2-.7,0s-.2-.2-.3-.2-.3-.2-.2-.3-.1-.4-.4-.7-.5-.9-.7-1.4-.3-1-.3-1.2c-.3-.7-.4-2.1-.4-4,0-1.5,0-2-.2-2-.4,0-.5.8-.4,3.6,0,2.3,0,3,.3,3.5.2.4.4,1,.5,1.4.3,1.2,1.4,2.2,2.7,2.5.8.2,1,0,1.3-.5h0ZM75.3,63.8c.7-.7.8-1,1-2,.1-.7.1-3.8,0-6.7,0-.5,0-.9,0-.9.2,0,.5-1.3.3-1.4-.1-.1-.5.5-.5,1s-.7,1.5-.9,1.1c0-.1.5-2.2.7-2.5,0-.1,0-.3,0-.3s-.4.2-.7.6c-.7.8-.8,1.2-.9,4.4,0,1.1-.1,2.1-.2,2.4s-.2.8-.2,1.1c0,.6,0,.8-.6,1.2-.3.3-.6.6-.6.7s.3.2.6.2c.6,0,.7,0,1.1-.7.2-.4.5-.9.5-1,0-.5.2-3.1.2-3.9,0-.4,0-.7.2-.7s.2.2.1.5,0,1.2,0,2.2c.1,2.1,0,2.6-.6,3.4-.4.5-.6.6-1.3.7-.7,0-.9,0-1.3-.4-.7-.6-.6-.8,0-1.2.8-.4.8-1.2-.2-1.7-.2-.1-.4-.1-.8,0-.8.4-1,1.2-.6,2.5.2.7.4,1,.8,1.3.8.5.9.6,2,.6.8,0,.9,0,1.4-.5h0ZM87.1,63.1c.5-.4.6-.6.6-1.1,0-.7-.4-1.2-.9-1.2s-.9.7-.8,1.1c0,.2,0,.3,0,.4-.5.3-2.2-.4-2.2-.9s0-.3-.2-.3-.3-.4-.4-.7-.3-.7-.4-.8c-.3-.2-.6-2.3-.6-3.2v-.7s-.5,0-.5,0c-.6,0-.6,0-.5.6,0,.3.2,1.1.2,1.7.3,2.1,1,3.7,2.1,4.9.2.2.4.3.5.3s.3,0,.3.1c.2.2,1.4.5,1.9.4.2,0,.7-.3,1-.6h0ZM54.6,62.7c0-.1.1-.2.2-.2.4,0,1.4-1.5,1.4-2.1s-.2-.8-.5-.2c-.3.8-1.3,1.8-1.9,2-.7.1-1.8-.3-1.7-.7,0-.1,0-.3,0-.4-.1-.4.2-.9.6-.9s.4,0,.2-.6c-.1-.4-.2-.5-.6-.4-1.4.2-1.2,3.1.3,3.8.5.2,2,.2,2.1-.1h0ZM77.2,62.7v-.4c0-.1,0-.3-.2-.3s-.2.2-.2.4,0,.4.2.4.2-.1.2-.2ZM91.7,61.8c.3-.1.8-.4,1.1-.8.4-.4.5-.7.5-1.2s0-.7-.2-.8c-.1,0-.2-.3-.2-.5,0-.3,0-.4-.2-.4s-.4-.1-.6-.2c-.5-.4-1.2,0-1.2.6,0,.4,0,.5.5.4.4,0,.5,0,.6.3,0,.4,0,.5-.3.8-.2.2-.5.3-.6.3s-.2,0-.2.2-.3.2-.7.2-.7,0-.7-.2-.2-.2-.4-.3-.4-.2-.5-.4-.3-.3-.4-.3-.3-.2-.4-.4-.3-.6-.5-.9c-.4-.7-1-3.2-1-3.9s-.1-.6-.4-.8c-.5-.4-.7-.4-.5,0,0,.2.1.5.1.6,0,.7.4,2.4.7,3.1,1.1,2.4,2,3.7,2.4,3.5.1,0,.3,0,.3.1.2.3,1.5.9,1.9,1,.2,0,.6,0,.9-.2h0ZM80.7,61.3c0,.1.1.1.3,0,.3-.3.3-.3,0-.4-.2,0-.3-.3-.3-.5s0-.5-.1-.7c-.5-1-.7-1.7-.7-2.8,0-1,0-1.2-.3-1.2-.3,0-.3.2.2,3.6.1.8.2,1.4,0,1.5-.2.2-.4-.1-.7-1.8-.4-2-.5-2.6-.3-3.2.1-.4,0-.9-.3-.9-.5,0-.4,3.4,0,4.8.1.4.2.8.2.9s.1.5.3.8l.3.5.6-.4c.4-.3.6-.4.7-.2h0ZM54.3,61.2c.3-.2.5-.4.5-.5s0-.2.1-.3.3-.5.6-1c.4-.8.4-1.1.4-2.3,0-.8-.1-1.4-.2-1.5-.2-.2-.4.4-.4,1.4,0,1.1-.4,2.6-.8,2.9-.1.1-.2.3-.2.4,0,.3-.4.4-1,.4s-.6.3-.4.6c.2.2.8.1,1.3-.2h0ZM85,61.2c0,0,0-.2-.1-.3-.3-.4-1.4-3.8-1.5-4.7,0-.6-.4-1.1-.6-.9-.1,0-.2.3-.1.6,0,.3.1.9.2,1.4.2,1.7.7,3,1.4,3.8.3.3.7.4.7.1h0ZM90.2,59.7c0,0-.3-.5-.7-.9-.8-.8-1.2-1.5-1.5-2.6-.1-.4-.2-.8-.3-.9s-.1-.4-.1-.7c0-.4-.1-.4-.5-.4,0,0,0,.5,0,1,.1,1.1.8,2.8,1.4,3.3.2.2.4.4.4.5,0,.1,1.1.7,1.3.7,0,0,.1,0,.1-.1h0ZM85.2,58.8c0,0-.2-.4-.2-.6s0-.5-.2-.6-.2-.5-.2-.9c-.1-1-.6-2.2-.8-2.1-.3,0-.3.5,0,.5s.2.1.2.4c0,.2.1,1,.4,2,.3.9.5,1.6.5,1.7s0,.3.2.4c.1.2.2.2.2-.1,0-.2,0-.5-.1-.6h0ZM73.7,59.2c.1-.2.2-.8.2-1.3,0-1.7.3-3.5.5-4,0-.2,0-.3-.1-.3s-.3.2-.3.4c-.5,2.7-.6,3.3-.4,3.3.1,0,.1,0,0,.1-.1,0-.2.2-.2.3s0,.5,0,.9c-.2,1,0,1.4.4.7h0ZM90.2,57.7c0-.3,0-.5-.1-.5-.1,0-.4-.5-.8-1.8,0-.2-.1-.5-.1-.7,0-.3-.6-.6-.8-.4s.8,3.4,1.1,3.4.1.2.2.3c.1.5.6.2.6-.4h0ZM98.7,57.2c0,0-.4-.3-.8-.4s-.7-.3-.7-.4,0-.1-.2,0c-.3.3,0,.8.5.7.2,0,.5,0,.5,0s.2.1.4.1.4,0,.3-.2ZM80.7,56.5c0-.2-.2-.4-.3-.4-.1,0-.1,0,0,.2,0,.2.1.4.1.5s0,.2.1.2.1-.2,0-.4h0ZM100,56.5c0,0-.1-.2-.2-.2s0,0,0,.2,0,.2.2.2.1,0,0-.2ZM98.8,56.2c0,0-.1-.2-.3-.2s-.3,0-.2.2.2.2.3.2.2,0,.2-.2ZM53.5,55.8c.2-.1.5-.4.6-.5.9-1.1,1.1-1.8.3-.9-.5.6-.8.7-2.1.6-.7,0-.7-.6,0-.8.4-.1.5-.2.5-.5,0-.8-.5-1-1.4-.6-.9.4-1,2.1-.2,2.8.5.4,1.4.4,2.2,0h0ZM97.4,55.9c0,0,0-.2-.2-.2s-.1,0,0,.2.1.2.2.2,0,0,0-.2ZM100,55.7c0,0-.1-.2-.2-.2s0,0,0,.2,0,.2.2.2.1,0,0-.2ZM96.9,55.5c0,0,0-.1-.2,0-.2.1-.2.3,0,.3s.2,0,.2-.2ZM99.4,55.5c-.1-.3-1.4-.8-3-1-.6,0-.6,0-.3.1.2.1.4.2.4.2,0,0,.2,0,.3.1.6.2,1.6.5,1.9.5s.3,0,.3.2.1.2.2.2.2,0,.2-.2h0ZM102.6,55c.2-.2.4-.4.4-.5,0-.2-.9-.6-2-.8-.6-.1-1.1-.3-1.1-.3s-.2-.1-.4-.1-.4,0-.5-.1c0-.1-1.6-.4-1.9-.4,0,0-.2,0-.3-.1s-.5-.2-.8-.2-.6-.1-.7-.2c0,0-.7,0-.7.1,0,.2.6,1.1.7,1.2,1.2.3,1.7.5,2.1.7.3.1.6.2.7.2s.5.1.8.2c.6.3,2.4.7,2.9.8.2,0,.5-.1.7-.3h0ZM85,54.9c0-.2,0-.4-.2-.4,0,0-.2,0-.2.3s0,.4.2.4.2-.1.2-.3ZM82.3,54.7c.3-.1.6-.3.6-.3s.2-.2.4-.2c.2,0,.5-.4.7-.9.3-.7.3-1,.2-1.5-.2-.7-.3-.9-.7-1.1-.4-.2-.8-.1-1.3.3-.3.2-.4.4-.3,1,.1.8.4,1,.7.4.2-.4.8-.4.8,0s-.6,1-1,1-.3,0-.4.1c-.1.2-1.4.3-1.4.2s-.2-.2-.4-.4-.7-.4-1-.5-.5-.4-.5-.5-.2-.3-.3-.4-.3-.3-.2-.3,0-.4-.3-.9-.4-.9-.4-1-.1-.7-.3-1.3-.3-1.2-.4-1.5c0-.6-.6-1.9-.8-2.2-.1-.1-.2-.4-.2-.5s0-.4-.2-.5c-.4-.4-.4.3,0,1.7.6,2.2,1,3.9.9,4.2-.1.4.7,2.4,1.2,3.2.3.4.9,1,1.3,1.4.7.6.9.6,1.7.7.5,0,1.2,0,1.6-.2h0ZM54.4,52.8c.3-1.2.3-2.1,0-2.6-.1-.2-.2-1.4-.2-2.6,0-1.2,0-2.2-.2-2.3s-.2,0-.3.1c-.2.2-.2.8-.2,2.4,0,2.9,0,4.3,0,5.1,0,.4,0,.8,0,1,.1.5.6-.1.8-1.1h0ZM88.5,53.2c0-.2.2-.2.3-.2s.2,0,.3,0,.2-.1.2,0,.1,0,.3-.2.3-.4.2-.5,0-.2,0-.2c.3,0,0-1.1-.3-1.6-.6-.8-1.8-.6-1.8.4s0,.4.5.5c.4,0,.5.2.5.5s-.1.5-.8.6c-.4,0-1.7-.4-1.8-.6,0,0-.4-.5-.8-.9s-.7-.8-.7-.9,0-.2-.2-.2-.3-.4-.3-.8-.2-.7-.2-.7-.2-.2-.3-.5c-.4-.9-.6-1.2-.8-1.2s-.2-.2-.3-.4-.2-.5-.3-.6c-.3-.4-1.1-.8-1.2-.7-.1.1.4,1.1.6,1.1s.1.1.1.3,0,.4.1.5.3.7.6,1.3c.4,1.2,1.2,2.3,1.6,2.3s.8,1.2.8,1.8c0,.4,1.3,1.1,2.3,1.2.4,0,.7,0,.7.1.1.1.3,0,.5-.2h0ZM103.7,53.4c0,0-.3-.2-.5-.2s-.9-.2-1.4-.4-1-.2-1.2-.2,0,.2.5.3.9.3,1,.4c.6.2.8.3,1.2.3.2,0,.4,0,.4-.1ZM75,52.3c1-1.1,1.1-3.1.3-5.4-.3-.8-.5-1.5-.5-1.7s-.2-.7-.4-1.1c-.3-.7-.4-.8-.5-.5-.1.3.2,1.6.7,2.6.3.6.4,1.2.4,2.1,0,1.4,0,1.7-.7,2.6-.4.5-.7.9-.8.9-.2,0-.3-.7-.1-1,.2-.3.1-.4-.1-.7-.3-.3-.3-.3-.7,0-.5.3-.5,1-.1,1.8.4.7.8,1.1,1.5,1.1.5,0,.7,0,1.1-.5h0ZM81,52.4c0-.1,0-.4,0-.5s-.1-.3,0-.3-.2-.3-.4-.6c-1-1-1.4-1.7-1.9-3.3-.1-.4-.3-.7-.3-.8s-.1-.3-.1-.5,0-.4-.2-.5-.2-.2-.2-.4,0-.3-.2-.3-.2,0-.2-.2c0-.3-.7-1-.8-.8,0,0,0,.5.3.8s.3.8.3.9.1.5.2.8.3.7.3,1c.4,2.5,1,3.8,2,4.6.8.6,1.1.7,1.2.3h0ZM107.4,52.2c.4-.4.2-.7-.5-.9-.2,0-.6-.2-.9-.3s-1-.3-1.6-.5-1.3-.3-1.4-.4-.7-.3-1.3-.4-1-.3-1.1-.4-.3-.1-.6-.1-.5-.1-.7-.2-.4-.1-.5,0-.4,0-.4,0-.4-.2-.7-.2-.7,0-.7-.2-.3-.2-.6-.2-.5,0-.6-.2-.2-.1-.4,0-.3,0-.3,0-.3-.2-.6-.2-.9-.2-1.3-.2c-.6-.1-.7-.1-.9.2-.2.3-.2.4,0,.6.1.2.3.3.4.2s.2,0,.2,0,.3.2.5.2.4,0,.5.2.2.2.3.1.3,0,.4,0c.9.3,2.5.8,2.6.8,0,0,.3,0,.4,0s1.1.3,2.2.6,2.2.6,2.5.7c1,.4,2.6.9,2.9.9.2,0,.6.1,1,.2.8.2.8.2,1.1-.2h0ZM98.6,52c0,0-.2-.2-.3-.2s-.2,0-.2.2.1.2.3.2.3,0,.2-.2ZM101.4,51.6c-.7-.2-1.5-.4-1.9-.5s-.8-.2-.9-.2-.5-.2-.9-.3-.7-.2-.8-.2c-.1-.2-2.7-.7-2.8-.6-.1.1,1,.6,1.7.7.3,0,.6.2.7.2s.3.1.6.1.6,0,.6.2.2.1.4,0,.3,0,.4,0,.3.2.6.2c.5,0,1.4.2,1.9.5.1,0,.5.1.9.1.6,0,.5,0-.5-.4h0ZM97.1,51.7c0-.2-.4-.4-.8-.4s0,.4.7.5c0,0,.1,0,.1-.1ZM86.9,50.9c0,0,0-.2,0-.4s-.3-.7-.6-1.2-.6-1.2-.8-1.4-.4-.6-.5-.8c-.1-.5-1.3-1.6-1.7-1.6s-.3,0-.3,0,.3.6.7,1.1.9,1.6,1.2,2.2c.6,1.3,1.6,2.4,2,2h0ZM81.4,50.3c0,0,0-.4-.3-.6s-.4-.5-.4-.6,0-.2-.1-.3c-.2,0-.8-1.4-.8-1.8s0-.4-.1-.4-.3-.4-.5-.9c-.3-.7-.7-1.1-.9-.8,0,0,0,.2,0,.2s.3.7.5,1.5c.4,1.5.7,2.2,1.4,3.2.5.7,1,.9,1.2.5h0ZM82,48.5c-.3-.5-.4-1-.4-1,.1,0-.6-1.3-.8-1.5-.1-.1-.3-.3-.3-.4,0-.2-1-1.2-1.1-1.1,0,0,0,.3.2.6.4.7.7,1.3,1.3,2.8.7,1.5,1,2,1.3,1.7.2-.2.1-.4-.3-1.2h0ZM87.7,49.3c0-.2-.1-.6-.3-.9s-.3-.6-.3-.6-.1-.2-.3-.4-.3-.4-.3-.4c0-.2-.5-.7-.6-.7s-.2.3.2.9c.2.3.3.5.3.5,0,0,.6,1.6.8,1.9.2.3.4.1.4-.3ZM74.5,49c.1-1-1.3-5.7-1.7-5.7s-.2.5.3,1.4c.2.5.4,1,.4,1.1s0,.3.2.3.2.3.2.7,0,.7.1.7,0,.5,0,1c0,.9,0,1,.2,1,.2,0,.3-.2.3-.5h0ZM89,48.4c0-.2-.1-.4-.2-.4s-.1-.1-.1-.3c0-.3-1.1-1.3-1.2-1.1,0,0,0,.2.3.4s.4.6.4,1,.2.8.3,1c.2.4.3.4.4.1.1-.2.2-.5.1-.7h0ZM103,48.6c.1-.2.3-.6.3-.7s.1-.5.3-.7.3-.5.3-.6c0-.3,1.3-.9,1.7-.8.5.1.5.4,0,.9-.4.5-.4.5,0,1,.4.4.4.4,1,.1.3-.2.6-.4.6-.5s0-.4,0-.6c0-.8-.3-1.5-.8-1.8-.9-.4-1.6-.3-2.5.3-1.4,1-1.7,1.3-1.9,2.4,0,.6-.1,1.1,0,1.2.2.3.7.2.9-.2h0ZM101,48.3c0-.1.3-.6.4-1,.3-1.1.9-2.1,1.1-2.1s.2,0,.2-.2c0-.2.6-.8,1.5-1.5.8-.6.9-.8,1.2-1.4.2-.5.2-.6-.2-1.3-.2-.4-.3-.7-.3-.8s0-.2-.1-.2-.1-.3-.1-.4-.1-.3-.2-.4-.3-.4-.3-.8-.2-.7-.3-.6-.3.5-.4,1.1-.3,1.1-.4,1.2c-.1,0-.3.6-.5,1.5,0,.2-.2.7-.4,1.1-.4.9-1,3.3-1.3,4.9,0,.1,0,.3-.1.3s-.1.3-.1.5c0,.4.3.5.6.2h0ZM99.9,47.2c.2-.9.6-2.1,1-3.8,0-.4.2-.7.3-.7s.1-.1.1-.3,0-.4.1-.5.2-.5.3-.9.3-.8.3-.9c.1-.2.5-2.1.4-2.2,0,0-.3,0-.7.3s-.9.4-1.2.5-.6.3-.6.3,0,.1-.2.1c-.2,0-.4.3-.6,1.2,0,.1,0,1,.2,1.8.3,1.6.3,2.7,0,4.3-.1.5-.3.9-.3,1-.2.2.2.7.4.7,0,0,.3-.5.4-1h0ZM98.6,46.8c.2-1.4.2-2.4,0-2.4s-.1-.1,0-.2,0-.7-.3-1.2c-.3-.8-.5-1-1.1-1.4-1.2-.6-2.2-.2-2.9,1.2-.3.6-.3.8-.2,1.3,0,.3.3.8.6,1.1.4.4.4.4,1,.1.7-.4.7-.9.1-1.2-.5-.3-.6-.5-.1-.7.3-.2.8,0,1.2.4.2.3.4,1.9.2,2.8-.1.9,0,1.1,1.3,1.3,0,0,.2-.5.3-1h0ZM89.8,46.1c0,0,.1,0,.1,0s0-.4.2-.7.3-1.1.5-1.7.3-1.3.4-1.4c0-.1,0-.2-.3-.2s-.3,0-.3-.2-.4-.2-.9-.3-1.1-.2-1.3-.3-.6-.2-.8-.2h-1c-.3-.2-.6-.2-.6-.2,0,0-2.5-.5-3-.5-.2,0-.4,0-.4-.1,0-.1-1.3-.2-2.7-.3-.3,0-.7,0-.8,0s-.9-.1-1.7-.1-1.8-.1-2.2-.2c-2-.3-8.7-.1-10.8.3-1,.2-1.8.3-2.9.4-.3,0-.9.1-1.3.2s-1,.2-1.5.2-1,0-1.2.2-.9.2-1.4.2-1.2.2-1.5.3c-.9.3-3.9,1-4.2,1-.5,0-.2.5.6,1,.4.2.9.5,1,.6s.3.2.4.2.2,0,.2.2c0,.2.7.2,1.1,0,.5-.3,1.4-.6,1.6-.5.1,0,.2,0,.3-.1s.3-.2.5-.2.5,0,.7-.2.5-.2.8-.2.5,0,.6-.2.3-.1.5-.1.5,0,.6-.1c.1-.1.3-.2,1.7-.4.6,0,1.3-.2,1.7-.3.9-.2,7,0,8.6.1,1.2.2,5,.8,6.1,1.1,1.4.3,2.8.6,3.9.8.7.1,1.6.3,1.8.4s.9.2,1.4.3,1.6.4,2.4.7,1.8.5,2.1.6.7.2.7.3c0,.2,0,.2.1,0,0-.1.1-.2.2-.1h0ZM78.2,44.3c-.1-.1-.2-.1-.2,0,0,.2.2.4.3.3,0,0,0-.2-.1-.3ZM52.1,40.5c.3,0,0-1.4-.5-1.8-.2-.2-.4-.4-.3-.4s0-.2-.2-.5-.4-.8-.4-1.3c-.2-1.5-.2-1.6-.5-2.1-.2-.2-.6-.5-1-.7s-.8-.3-1-.4-.4,0-.5,0-.4.1-.6.1c-.3,0-.4.1-.4.3,0,.2.2.3,1.9.3.2,0,.3,0,.4.2s.2.2.4.2c.3,0,.4.2.6,1.6v.8c.1,0-.2-.4-.2-.4-.2-.2-.4-.6-.5-.9-.1-.3-.4-.5-.7-.6-.2,0-.4-.2-.4-.2s-.1-.1-.3-.1-.3,0-.3,0c0,.2.6,1.2,1,1.7.2.3.5.7.5.8s.4.6.8,1.1,1,1.2,1.3,1.6c.3.4.6.7.7.6.1,0,.3,0,.4,0h0ZM90.6,39.6c.2-.6.4-1.1.4-1.3s0-.5.2-.8c.5-1.1.5-1.3.8-2.4.1-.6.3-1.2.4-1.3.2-.2,0-.2-.8-.2s-1,0-1.1.2-.2.1-.2,0c-.3-.2-1.5.8-1.4,1.3.2.7.2,3.2,0,3.3,0,0-.1.2,0,.3s0,.5,0,.9c-.2.9,0,1.1.8,1.1.5,0,.5,0,.9-1h0ZM89.9,37c0,0-.1-.5-.2-.9,0-.6,0-.8.2-1.1.3-.4,1.5-.9,1.7-.7.2.2.1.6-.2.6-.2,0-.5.2-.7.4-.4.3-.5.5-.5,1.2,0,.7-.1,1-.3.7h0ZM53.9,39.9c0-.1,0-.6-.2-1-.4-1.2-.3-2.2,0-2.4.3-.2.4-.1.5,0,.1.1.3.3.5.3.3,0,.3,0,.3-.8,0-.9-.5-1.5-1.1-1.5-.5,0-1.4.8-1.6,1.5-.2.9-.3,2.3-.1,2.3s.2.3.3.6.2.6.3.7.2.2.2.4c0,.3.6.3.7,0h0ZM88.1,40c.1-.1.2-.4.2-.7,0-.7-.4-2-.6-2.3-.1-.1-.2-.3-.2-.4s0-.2-.2-.2c-1.6-.1-2.5.7-1.7,1.4.3.3.4.3.7.1.4-.2.5-.1.8.2.2.3.4.6.4,1,0,1,.2,1.3.6.9h0ZM86.9,39.5c0-.4-.3-.5-.8-.2-.5.2-.6.4,0,.5.7.1.9,0,.9-.2ZM84.7,39.3c0-.2-.4-2.3-.6-2.4,0,0-.1-.3-.1-.4s0-.3-.2-.3-.2-.3-.2-.6c0-1.2-.8-.9-1.1.5,0,.3-.2.6-.3.6s-.2.2-.2.4-.2.8-.4,1.2l-.4.8h.4c.4.3.6.2.6,0s.8-2,1-1.9c.1,0,.3.5.4,1.1s.3,1.1.4,1.2c.2.3.5.3.6,0h0ZM57.8,38.9c0-.3.2-.7.2-1.1.1-1.3.5-1.2,1.1.3.2.5.5.9.6.9s.3,0,.5.1c.3.1.3-.4,0-.7-.1-.1-.4-.6-.7-1.1s-.7-1-.8-1c-.2,0-.3-.2-.3-.5,0-.6-.3-1.3-.5-1.2,0,0-.2.5-.2,1s-.1,1.2-.2,1.5-.1,1-.2,1.3c-.2.9-.2.9,0,.9s.3-.2.4-.5ZM80.3,38.5c0-.1-.1-.4-.4-.5-.4-.2-.4-.2-.6,0-.1.1-.2.4-.1.5.1.4,1.1.3,1.1,0ZM61.8,38.2c-.1-.6-.2-.7-.4-.7-.3,0-.3.5,0,.8.4.4.6.4.4-.1ZM78.4,38.4c0-.1,0-.3,0-.3s.2-.2.2-.5.2-.7.5-1c.4-.5.5-.5.9-.3.2.1.4.4.4.6,0,.4.6.5.8.1.2-.5.2-.9,0-.8-.1,0-.2,0-.2,0,0-.3-.5-.8-.9-.8s-1.2.5-1.2.8-.1.2-.2.2c-.3,0-.4.2-.5.9,0,.7,0,1.2.2,1.2s.1-.1,0-.3ZM74.1,38.3c.1-.1.2-.4.1-.6,0-.3-.1-.4-.4-.3-.2,0-.5.2-.7.2-.3,0-.4.1-.4.5,0,0,.2.1.4,0s.4,0,.5.1c.1.2.2.2.5,0ZM64.9,36.9c0-1.4,0-2.7.3-3,0-.2-.9-1.2-1.2-1.2s-.2-.1-.2-.3c0-.3-.3-.7-.5-.7s-.1,0-.1.2-.3.6-.6,1.2c-.3.6-.6,1.1-.6,1.3s.2.6.5.9.5.9.6,1.1.2.5.2.5.2.3.2.7c.2,1,.4.6.3-.4-.2-2-.2-3.1,0-3.3.2-.3.3-.2.4.7,0,.4.2,1.2.3,1.8l.3,1.5c.2,1.1.4.5.3-.9h0ZM71.8,38.1c.2-.2.2-.3,0-.3-.2,0-.8-1-.8-1.4s-.1-.3-.2-.3-.2-.2-.1-.2c0-.2-.4-1.2-.6-1.3,0,0-.1-.1-.1-.2s-.1-.3-.3-.4c-.2-.3-.3-.2-.2.1.4,1.8.6,2.6.9,3,.2.3.3.5.3.6,0,.2.5.7.7.7s.3-.1.4-.3h0ZM67,37.7c0-.3,0-.5-.1-.5-.2,0-.4.7-.2.9.2.3.4.1.4-.4ZM68.4,37.7c0,0,.2-.5.4-.9.3-.6.3-.9.2-1.3-.1-.4-.2-.4-.2-.2,0,1-.2,1.2-.5,1.9-.2.4-.4.8-.3.9.1.1.4-.2.4-.4h0ZM75.3,37.5c0-.4-.2-1-.3-1.3-.1-.3-.2-.6-.2-.7,0,0-.5-.4-1-.7-1-.5-1.9.5-1.1,1.4.4.5.6.5.8,0,.3-.8.9-.4,1.5,1,.2.5.4,1,.5,1s0-.3,0-.7h0ZM76.7,35.3c0-1,.1-1.5.3-1.7.2-.2.2,0,.2,1.6s0,1.8.2,1.6c.1-.1.2-.4.2-.5s0-.3.2-.3.1,0,0-.1,0-.2.1-.4.2-.3.2-.4,0-.2.1-.2c.5,0,.2-.9-.8-2.5-.4-.7-.5-.7-1-.3-.2.2-.5.4-.7.4s-.3.2-.3.3,0,.2-.2.2-.3.1-.4.3c-.2.3-.3.9,0,.9s.2.4.3.8.3.9.3,1,.2.6.3,1.1l.2.9.2-.5c.1-.3.2-1.1.2-1.9h0ZM62,35.9c-.5-.8-1.1-1.1-1.6-.7-.3.3-.3.6,0,1.1.2.4.3.4.9.3.3,0,.6,0,.7,0,0,0,.2.1.2,0s0-.4-.3-.8h0ZM66.4,35.5c.4,0,.6.4.5.6-.1.3.3.5.5.3.3-.3.2-1-.1-1.4-.7-.8-1.7-.2-1.7,1,0,1,.3,1.2.4.3,0-.6.1-.7.3-.7h0ZM72.9,34c.7,0,1.1-.2,1.1-.5s.2-.4.4-.5c.2,0,.6-.4.8-.7s.6-.5.7-.5c.2,0,.3-.2,0-.4,0-.1-1.3-.2-3.2-.2h-3.1s0,.4,0,.4c0,.2,0,.5.2.5s.3.5.5.9.4.9.5.9.2.3.4.6l.3.5.5-.5c.3-.3.7-.5.9-.5h0ZM68.3,33.7c.1-.1.2-.3.1-.3s0-.5.1-1,.1-1,0-1.1c-.2-.1-4.1-.2-4.2,0-.1.1.4,1.1.6,1.1s.3.2.6.5c.4.4.7.5,1.3.6.4,0,.8.1.9.2.1.2.3.2.5-.1h0Z"/>
      <path class="cls-2" d="M10,12.2h6.4v11l9.2-11h7.4l-11.9,14.2,13.2,15.8h-8l-9.9-11.8v11.8h-6.4V12.2"/>
      <path class="cls-2" d="M128.7,176.6h-6.4v-11l-9.2,11h-7.4l11.9-14.2-13.2-15.8h8l9.9,11.8v-11.8h6.4v30"/>
      <path class="cls-3" d="M13.6,48.8c-.8,0-1.7.2-2.7.6-10.6,8.2,3.7,21.4,9.8,32.8h.2c6.7-12.4,19.3-26,9.6-32.8-7.7-3.5-9.7,8.1-9.8,8.5,0-.4-1.6-9.2-7.1-9.1h0Z"/>
      <path class="cls-3" d="M125.3,140c.8,0,1.7-.2,2.7-.6,10.6-8.2-3.7-21.4-9.8-32.8h-.2c-6.7,12.4-19.3,26-9.6,32.8,7.7,3.5,9.7-8.1,9.8-8.5,0,.4,1.6,9.2,7.1,9.1h0Z"/>
    </g>
  </g>
</svg>