<?xml version="1.0" encoding="UTF-8"?>
<svg xmlns="http://www.w3.org/2000/svg" version="1.1" xmlns:xlink="http://www.w3.org/1999/xlink" viewBox="0 0 140 190">
  <defs>
    <style>
      .cls-1 {
        fill: #fff;
      }

      .cls-2 {
        fill-rule: evenodd;
      }

      .cls-3 {
        fill: url(#linear-gradient);
      }
    </style>
    <linearGradient id="linear-gradient" x1="6" y1="136.4" x2="113" y2="70.8" gradientTransform="translate(0 192) scale(1 -1)" gradientUnits="userSpaceOnUse">
      <stop offset="0" stop-color="#ebf0d0"/>
      <stop offset="1" stop-color="#ffffeb"/>
    </linearGradient>
  </defs>
  <!-- Generator: Adobe Illustrator 28.7.2, SVG Export Plug-In . SVG Version: 1.2.0 Build 154)  -->
  <g>
    <g id="Layer_1">
      <path class="cls-1" d="M17,1h103c8.9,0,16,7.1,16,16v153c0,8.9-7.1,16-16,16H17c-8.9,0-16-7.1-16-16V17C1,8.1,8.1,1,17,1Z"/>
      <path class="cls-3" d="M18,2h103c8.9,0,16,7.1,16,16v153c0,8.9-7.1,16-16,16H18c-8.9,0-16-7.1-16-16V18C2,9.1,9.1,2,18,2Z"/>
      <path d="M106.3,159c-3.1-.1-11.3-.3-23.8-.4-16.5-.2-20-.2-20,0,0,.1,0,.1-.1,0-.1-.2-4.5-.3-21.1-.3h-10.9s-.2-.7-.2-.7c-.2-.7-.3-5.9,0-6.2,0,0,0-.2,0-.2s0-.8,0-1.8,0-1.9,0-2.3,0-2.9,0-5.7c0-24,0-72.4-.2-79.1,0-.1,0-1.5,0-3.1s0-5.9,0-9.6,0-7.8,0-9,0-3.9,0-6c0-2.7,0-3.8.2-4,.2-.2.8-.2,4.2-.2,2.2,0,4,0,4-.1s.2,0,.5,0c.6.2,5.9.3,6,0,0,0,.2,0,.4,0,.2.1.9.2,1.8.1.8,0,1.7,0,1.8,0,.2,0,.4,0,.4,0s.5,0,1,0,1,0,1,0,0,0,.2,0c.3.2,1.6.2,1.8,0,0-.1.1-.1.1,0,0,.2,1.1.2,1.4,0,0,0,.2,0,.3,0,.1.2,3,.1,3.3,0,0,0,.2,0,.3.2,0,.2.2.2.2.1,0-.2,5.5-.2,8,0,.5,0,1,0,1,0s.1,0,.3,0,.4,0,.4-.1c0-.1.2-.1.3,0,.2.2,2.5.3,4,.1.5,0,1,0,1,0,0,0,6.3.1,6.6,0,0,0,.2,0,.2,0s.9,0,1.9.1,2.2,0,2.7.1.9,0,.9,0,4.7,0,10.3,0,10.4,0,10.6,0c.4-.1,2.2,0,2.4.3.2.2.3,6.4.2,12,0,1.2,0,9.2,0,10.2,0,.6,0,1.9.1,2.9s.1,2,.1,2.1c0,1,0,6.4,0,6.8,0,.6,0-.6,0,12.6,0,6.4,0,12.8,0,14.2s0,4.6,0,7,0,6,0,8,0,6.9,0,10.9c0,32.8,0,40.7-.1,40.9-.2.4-.6.4-3.6.3h0ZM105.4,157.9c.2,0,.3,0,.3,0,0,.2,3.3.2,3.4,0,0,0,.1-.9.2-1.8,0-2,0-2.1-1.2-2-1.5.2-2,.3-3.6.7-.8.2-1.8.5-2.1.6s-1.1.4-1.8.7-1.4.7-1.7.8-.5.3-.5.4-.2.3-.4.4c-.4.3-.4.3.4.2.4,0,1,0,1.3,0,.6.2,5.3.1,5.7,0h0ZM91.4,157.3c0-.6.1-.8.4-.8s.9.6.8.7c0,0,0,.1.2.1.4,0,.5-.3.5-1.2,0-.6,0-.8.2-.8s.2,0,.2.2.2.2.4.2.3.2.3.3,0,.2.2.2c.2,0,.2-.2.2-.9,0-.7,0-.9.2-.9.2,0,.4.1.5.3s.3.4.5.4.2,0,.2.2c0,.3.3,0,.4-.4,0-.2.2-.6.3-.9l.2-.4.7.4c.6.3,1.2.3,1,0,0,0,0-.2,0-.3s.1-.2,0-.3,0-.4.1-.6q.2-.4.5,0c.3.5.8.6,1,.4,0-.1.1-.5.1-.7s0-.6.1-.6.4.2.8.5.7.6.8.6.1-.3.1-.6c0-.8.1-1.1.4-1.1s.2,0,.1.2,0,.2,0,.2.3.2.5.4c.3.3.3.3.5.1,0-.1.2-.4.2-.7s0-.6.1-.8c.1-.3.1-.3.3,0,.2.4.7.9.9.9s.2-.1.2-.7c0-.4.7-.4.8,0,0,.2.2.4.5.4s.4,0,.4-.5,0-.5.1-.5c.3,0,.7.2.7.4,0,.5.4.2.6-.4,0-.4.2-.6.3-.5.2,0,.5-.3.3-.6,0-.2-1.4,0-1.7.2,0,0-.4.1-.8.2s-.8.1-.9.2-.4.2-.6.2-.5,0-.6.2c-.3.1-1.8.5-2.3.6-.2,0-.3,0-.3.2s0,.1-.1,0-.3,0-.6.2-.7.3-.9.3-.6.1-.6.2-.4.2-.8.3-.9.3-1.1.5-.6.3-.8.4-.4.1-.5.1c-.3,0-1.2.5-1.2.7,0,0-.3.2-.6.3s-.8.3-1,.5-.6.4-.9.5-.5.3-.5.4-.1.1-.3.1c-.3,0-1.1.6-2,1.5-.8.8-1,1.3-.4,1.2.2,0,.5,0,.8,0,.7.2,1,0,1.1-.5h0ZM96.2,157.8c0,0,.1,0,.1-.1s0-.2.2-.1.2,0,.3-.1.3-.3.5-.4.6-.3.9-.5c.4-.4,1.2-.7,1.6-.6.1,0,.2,0,.3-.2s.2-.2.3-.2.3,0,.3-.2c0-.2.1-.2.2,0,.1.2.2.2.2,0,0-.1.2-.2.3-.2s.2,0,.2-.2.1-.2.3-.2.3,0,.3-.2,0-.2.2-.2.1,0,0,.2,0,.2.2.2.3-.1.3-.2c0-.1.4-.3,1-.4.5,0,.9-.2.9-.3s.1-.1.3,0c.3.1,2.1-.4,2.4-.6.1-.1.2-.1.2,0,0,.3.7.2,1.1-.2.4-.4.4-.6,0-.9-.3-.1-.5-.1-.7,0-.2.1-.4.2-.5.1s-.6,0-1.1.2-1.1.3-1.4.3-.8.2-1.3.3-1,.3-1.2.3-.4,0-.5.2-.2.2-.3.2-.7.2-1.2.5c-1.9.9-2.2,1-2.4,1s-.3,0-.3.1-.3.3-.7.4-.9.4-1.1.6-.5.3-.7.3-.3.2-.3.3,0,.3-.2.3c-.1,0-.1.2.1.3.2.2.4.2.6.1.2,0,.3-.1.4,0h0ZM52.8,157.7c0,0,.3,0,.6,0,.3,0,.6,0,.6,0s.3-.1.8,0,1,0,1.2,0,.5-.1.5,0c.2.2,2,.2,2,0s.1-.3.3-.3c.2,0,.2-.4.2-2.5,0-1.3-.1-2.7-.2-3s-.1-2.2-.2-4.2-.1-4-.2-4.5c-.2-2.3-.2-3.6-.3-5.3,0-1-.2-2-.3-2.1s0-.2,0-.2c.2,0,0-2.3-.2-2.6-.2-.2-1.3,1.2-2.2,2.5-.3.4-.5.7-.6.7s-.1,0-.1.2c0,.2-.7,1.2-1.3,1.9-.2.2-.5.9-.9,1.6s-.6,1.3-.7,1.3-.1.2-.1.4-.2.8-.5,1.3-.5,1-.5,1.1,0,.4-.2.8c-.5,1.1-1,3-1.1,3.7,0,.3,0,1.4-.2,2.5-.1,2-.3,2.9-.7,3.9-.2.4-.4,1-.5,1.4s-.3.9-.3,1c0,.2,0,.3.4.4.3,0,.5,0,.6,0,0,0,.5,0,2.3,0,.3,0,.6,0,.7-.1,0-.1.2-.1.3,0,0,.1.3.2.4.1s.3,0,.3,0c0,.2.3.2.4,0h0ZM69.1,157.6c0,0,.2,0,.2,0,.2.2,4.6.2,4.6,0s.2-.2.4-.2.6-.2.9-.7c.3-.4.8-1,1-1.3,1.2-1.5,1.8-2.3,1.8-2.5s.1-.2.2-.2.2,0,.2-.1.2-.4.4-.6c.6-.8.7-.9.9-1.4.1-.3.3-.6.5-.8.3-.3,1.2-2.1,1.2-2.4,0,0,.2-.3.4-.6s.4-.5.4-.6,0-.2.2-.2.2-.2.3-.5.2-.6.3-.9.4-.9.5-1.5.5-1.9.7-2.7.5-2,.6-2.5.2-1,.3-1.1c.1-.4.2-1,.8-4.8,0-.7.2-1.6.3-2,.3-2.1,0-10.9-.4-12.6-.1-.6-.3-1.3-.3-1.5s-.1-.9-.2-1.3-.2-1.3-.3-2-.3-1.6-.4-2.2c-.6-2.6-.7-8.7-.5-16.6.1-4.5.2-5.8.3-6.4,0-.2.1-1,.2-1.6,0-1,.4-3.9.6-5.7,0-.3.1-.7.2-.8s.1-.4.1-.5c.3-1.6,1.2-5.3,1.4-5.5,0,0,.1-.2,0-.2s0-.2,0-.3.1-.3,0-.5c0-.1,0-.3.2-.3.2,0,.3-.2.2-.3s0-.2,0-.2c.2,0,.5-.6.6-1.4,0-.2.2-.5.3-.6s.2-.2.1-.4,0-.2,0-.2.2-.2.3-.4.2-.4.3-.4.2,0,.2-.2.2-.4.4-.7.4-.6.4-.8.1-.3.2-.3.2-.1.2-.2.6-.9,1.3-1.6,1.3-1.4,1.3-1.5.1-.2.2-.4.2-.3.2-.3c0-.2-1-.5-1.1-.4-.2.1-2-.2-2.2-.4,0,0-.4-.2-.7-.2s-.8-.1-1.1-.2c-.6-.2-1.2,0-1,.5,0,.2-.8,1.5-1.1,1.5s-.4.1-.7.3c-.7.4-2.1.4-3.1,0-1.2-.5-1.3-.4-1.2,2.4,0,1.2.1,2.2.2,2.2s.1,1.3.1,2.8.1,3.7.2,4.9,0,2.4,0,2.5,0,.5,0,.6c0,1.7,0,14.3,0,14.9,0,.4,0,.8,0,.8s0,.3,0,.5-.1,1.4-.1,2.7,0,3-.1,3.8-.1,1.7,0,2c0,.9,0,9.8,0,12.4-.2,4-.2,4.8-.7,7.1-.2,1.2-.4,2.6-.5,3.2s-.1,1.2-.2,1.3-.2.4-.2.7-.2.9-.4,1.4-.3,1-.3,1.2-.2,1-.5,1.8-.5,1.7-.5,1.9,0,.3-.1.3c-.1,0-.8,1.4-.7,1.6,0,0,0,.3-.2.5s-.2.5-.2.8,0,.4-.2.4-.2.1-.2.3,0,.3-.2.3-.2,0-.2.2c0,.3-.7,1.7-.9,2.1-.1.2-.2.3-.1.3s0,.2-.3.5-.4.6-.4.8,0,.2-.2.2-.3.3-.5.7-.4.7-.4.7-.7.9-1.4,1.8-1.4,1.9-1.5,2.1-.6.7-1,1.2-.8.9-.9.9-.2,0-.2.1-.6.7-1.3,1.5-1.6,1.7-2,2.2-.8.8-.8.8-.5.4-1.1,1-1.1,1.1-1.2,1.1c-.2,0-1.6,1.5-1.6,1.7s.3.2.8.1c.4,0,.8,0,.9,0,0,.1,6.1,0,6.3,0h0ZM77.5,157.7c0,0,0-.1.2,0,.2,0,.3,0,.4-.4,0-.3.2-.6.3-.7s.2-.3.2-.4.1-.3.3-.4.3-.3.3-.4.1-.2.2-.3c.2-.2.2-.3,0-1l-.2-.8-.7.7c-.4.4-.7.8-.7.9s-.5.7-1,1.2c-1,1-1.3,1.5-.8,1.6.4.1,1.4.1,1.3,0h0ZM79.7,157.5c.1,0,.2,0,.1.2,0,.1.3.2.9.2h1l1.4-1.5c.8-.8,1.3-1.5,1.3-1.5s.2-.2.6-.5.6-.5.6-.6,0-.1.1-.1.4-.2.6-.4.5-.4.6-.4.2,0,.2-.2.1-.2.2-.2.3-.1.4-.2c.1-.3,1.3-1.1,1.5-1.1s.2-.1.2-.2.4-.5.9-.7,1.2-.7,1.6-.9.7-.4.7-.3c.2,0,.8-.5.8-.7,0-.2,0-.2,0,0,0,.3.5.3.5,0s.1-.2.3-.2.6-.1.9-.3c1.6-.8,2-1,3.1-1.4.7-.2,1.3-.5,1.4-.5s.5-.2,1-.2.9-.2.9-.2.6-.2,1.2-.3,1.4-.3,1.8-.4,1-.3,1.2-.3.5,0,.6-.2.4-.2.8-.2.7,0,.8-.1.4,0,.6,0c.6,0,.8-.5.7-2.3,0-1.4,0-1.4-.4-1.4-1.2,0-1.9.2-2,.3,0,0-.3.1-.5.1s-.5,0-.6.1-.6.3-1.2.4-1.4.4-1.8.5-1.1.3-1.5.3-.9.2-1.2.4-.9.4-1.5.6-1.6.6-2.3.9-1.6.8-2,1-.8.4-.8.4c-.1.1-1.2.8-2.1,1.2-.4.2-.8.5-.8.6s-.3.2-.4.2-.6.3-.9.6-.7.6-.8.6-.5.3-.9.6-.8.6-.8.6c-.3,0-3,2.8-3,3.1s-.1.2-.3.2-.5.2-.7.5-.5.5-.5.5c-.2,0-1.6,1.6-1.6,1.8,0,0-.2.3-.4.6s-.4.6-.4.7,0,.2-.2.2-.2.2-.1.4,0,.3,0,.2.2-.2.3-.2h0ZM81.5,156.7c0,0-.2-.3-.2-.5,0-.5.6-.7.8-.2.1.3-.4,1-.6.8ZM82.9,154.3c0-.4.6-.6.8-.3.2.3,0,.6-.4.6-.3,0-.4,0-.4-.3h0ZM84.5,152.8c0,0,0-.3,0-.5,0-.3.2-.3.5-.3.4.1.6.4.3.7-.2.3-.7.3-.8.1ZM86.7,151c0-.3,0-.4.3-.4.4,0,.5.2.4.6-.2.5-.7.3-.7-.2ZM88.6,149.8s0-.3,0-.6c0-.5,0-.5.4-.3.2.1.4.2.4.2s0,.2-.2.4c-.2.3-.5.5-.6.3ZM90.7,148.4c-.1-.4,0-.8.4-.8s.3.1.4.5c0,.5,0,.5-.3.5-.2,0-.4-.1-.4-.2h0ZM93,146.7c0-.1,0-.3,0-.3s.1,0,.3,0c.2,0,.2,0,0,0s-.2.2-.1.3c0,.2,0,.2-.2.2s-.2,0-.2-.3ZM94.9,146c-.1-.2.4-.9.5-.8,0,0,.1.3.1.5s0,.4-.3.4-.3,0-.4-.1ZM96.9,145.1c0-.4.3-.6.5-.4.1.1.1.3,0,.4-.3.4-.5.3-.5,0ZM99.1,144.3c0-.1,0-.3,0-.4,0-.2.3-.2.6,0,.3.3.1.6-.4.6s-.4,0-.3-.3h0ZM101.3,143.9c-.2-.3,0-1,.4-1,.5,0,.6.7,0,1-.2.1-.3.1-.4,0ZM103.1,142.9c0-.2.1-.4.3-.4.4,0,.4.6,0,.6-.2,0-.3,0-.3-.3ZM105.3,142.2c0-.2,0-.4,0-.4.2-.1.7.4.5.6-.2.3-.5.2-.6-.2ZM107.5,141.8c0-.1.1-.3.2-.3.1,0,.2,0,.2.1s-.1.3-.2.3c-.1,0-.2,0-.2-.1ZM87.6,157.6c.3-.2.6-.4.6-.5s.2-.3.4-.3.3-.2.3-.3.1-.2.2-.2.3,0,.4-.2.3-.4.6-.5.6-.5.7-.6.3-.3.5-.3.6-.2.9-.5.7-.5.7-.5c.2,0,1.1-.4,1.1-.5s.7-.4,1.1-.4c.1,0,.3-.1.4-.2s.3-.2.4-.2.2,0,.2-.2.5-.3,1.1-.4,1.1-.4,1.2-.5.2-.2.3-.1.3,0,.4,0,.3-.2.4,0,.5,0,.9-.2.8-.3.9-.3c.2,0,2.5-.8,2.9-1,.1,0,.5-.2.9-.3s.7-.2.7-.3,0-.1.2-.1.3,0,.5,0c.2,0,.3,0,.1-.2-.1,0,.2-.1.7,0,.6,0,.9,0,.9-.1s.1-.1.3,0c.7.2,1.3-1.6.7-1.9-.2,0-.3-.3-.3-.5,0-.5-.5-.4-.7.2-.2.7-.5.8-.8.2-.4-.8-.8-.6-1.4.6,0,0-.3-.1-.7-.4-.7-.5-.7-.4-.8.3,0,.8-.2.8-1,0-.4-.4-.8-.6-.9-.6s-.2.4-.3.8c-.2,1-.3,1.1-.9.6-.3-.2-.7-.4-.7-.4-.1,0-.4.7-.3.9,0,0,0,.2-.2.4-.2.2-.6,0-1.1-.4-.1-.1-.3-.2-.5-.1s-.2,0-.3,0,0,.3,0,.7c0,.6,0,.7-.3.7s-.3-.1-.3-.3-.1-.3-.2-.3-.3-.1-.3-.3-.2-.3-.3-.3-.2.2-.2.7c0,.4,0,.9,0,1-.1.3-.1.3-.5,0-.2-.1-.4-.2-.5-.2s-.1,0-.1-.2-.1-.3-.3-.3c-.2,0-.3,0-.3.4,0,.7-.3.8-1,.4-.6-.3-.6-.3-.8,0,0,.2-.2.6-.2,1s0,.8-.1.8c-.1.1-1.2-.5-1.2-.6s-.1-.2-.3-.2c-.3,0-.4.2-.3,1.4,0,.4,0,.6-.3.7-.2,0-.3,0-.4,0-.1-.2-.8-.7-1-.7s0,.4,0,.8c0,1,0,1.1-.5.8-.7-.4-1-.3-1,.2,0,.2,0,.5,0,.6s0,.3,0,.4-.1.2-.2.2-.4-.1-.7-.2h-.5c0-.1,0,.7,0,.7,0,.9,0,1.1-.9.7-.5-.2-.5-.2-.7,0-.2.3-.1.7.3,1.1.3.4,1.9.4,2.6,0h0ZM42.6,156.7c.2-.4.3-.7.3-.8s0-.2,0-.2c.1,0,0-1.2,0-1.4,0,0-1.3.8-1.8,1.2-1.2,1-1.4,1.4-1.3,1.7.1.3.2.3,1.3.3q1.2,0,1.5-.8h0ZM31.8,156.6c-.3-.5-.2-.9.3-1.2.4-.3,2.1-.7,3.1-.9.3,0,.6-.1.6-.2s.3-.2.6-.3c.6-.2,1.3-1,1.6-1.7.1-.3.3-.6.5-.7s.3-.3.3-.3.3-.5.8-.9c.9-.9,1.1-1.3,1.4-2.8.1-.6.3-1.5.5-2s.3-1,.3-1.1,0-.3.2-.5c.2-.3.3-.3,1.1-.3.9,0,.9,0,1.2-.5.1-.3.4-1.1.5-1.7s.3-1.2.3-1.3,0-.3.2-.4c.2-.3.7-2.8.7-2.9,0,0,0-.2,0-.2.2,0,1-3.8,1.3-5.8.1-.7.3-1.7.4-2.1s.3-1,.3-1.4c0-.3.1-1,.2-1.5.2-.9.1-1.1-.2-.7-.1.2-.6.5-1,.8s-1,.8-1.2,1-.5.5-.6.5c-.3,0-3.2,3-3.2,3.2s-.2.3-.4.5-.6.7-.8,1-.6.8-.8.9-.3.4-.3.5,0,.2-.1.3c-.2,0-1.8,2.1-1.8,2.2s-.3.5-.6,1-.6,1-.6,1.1,0,.2-.2.3c-.2.1-1.5,2-1.5,2.2s-.2.3-.4.5-.8.9-1.3,1.6c-1.3,1.7-1.8,2.3-2.1,2.3s-.2.8-.2,5.9c0,3.5,0,6,.1,6.1,0,.1.3.2.6.1.3,0,.4,0,.4.2,0,.1,0,0,0,0s0-.5-.1-.7h0ZM39.5,155.7c0-.1.1-.2.3-.2.2,0,.4-.1.6-.3s.4-.4.5-.4.4-.2.7-.5c.6-.6,1.9-.9,3.7-1,1.3,0,1.6,0,1.9-.2.1,0,.2,0,.2.1,0,.4.6.2.6-.2,0-.3,0-.4-.8-.5-1.2-.2-3.4-.1-3.5,0,0,0-.5.2-.9.3s-.9.2-1.1.4-.5.5-.9.7-.9.8-1.3,1.3-.7.9-.8.9-.1.1-.1.2.2,0,.5-.1.5-.4.5-.5h0ZM61.3,155.3c0-.1-.1-.2-.2-.2s-.2,0-.2.2-.1.2-.2.2c-.3,0-.6.5-.5.8,0,.3,1.2-.6,1.2-.9ZM60.6,154.4c.2.3.8,0,.8-.3s.1-.2.3-.2c.3,0,.3,0,.3-.3s0-.4.3-.3c.1,0,.3,0,.4-.1,0-.1.4-.3.6-.4s.6-.3.8-.5.4-.4.5-.4.3-.2.6-.5.6-.5.7-.5c.3,0,.8-.8.6-1-.1-.2-.6-.2-.6,0s0,.2-.2.2c-.2,0-.7.2-1.5.8-1.5,1-2.2,1.4-2.9,1.8-1.1.6-1.3.8-1.4,1.5-.1.6,0,.6.1.3.2-.3.3-.3.4-.1h0ZM81.4,153.1c.5-.6.4-.9-.1-.7-.5.1-1.1.7-.9.9.2.3.8.2,1.1-.2ZM61,152.3c.2,0,.7-.3,1.2-.7s1-.6,1.1-.6.2,0,.2-.1c0-.1,1.1-.9,1.8-1.2.8-.4,1-.7,1-1.3v-.6l-.8.4c-.4.2-.9.5-1,.6s-.4.3-.6.4-.7.4-1,.6-.9.6-1.3.8-1,.6-1.3.9c-.7.5-.7.5-.4.7.2.1.4.2.5.1s.4-.1.5-.2h0ZM44.2,150.9c0-.4-.1-.8-.4-1.2-.2-.3-.4-.5-.4-.5s-.1,0-.3-.2-.5-.3-.6-.3c-.4,0-.6.5-.3.8.1,0,.3.4.3.7.2.8.8,1.5,1.2,1.4.3,0,.4-.1.4-.6ZM82.5,151.1c.2-.2.1-.3-.2-.7-.5-.5-.6-.5-.6,0s0,.4.2.4.2.1.2.3c0,.3.2.3.5,0ZM60.3,150.9c.2-.2.4-.4.3-.5s0,0,0,0c.3.2.8-.2.8-.5s0-.2.1-.2c.2.1,1.2-.4,1.6-.7.1-.1.5-.4.7-.6s.5-.4.6-.4.5-.3,1-.6c.6-.4.8-.7.8-1s0-.4-.3-.2c-.2,0-.4.3-.5.4s-.3.3-.3.3-.6.3-1.3.7-1.3.7-1.5.8-.5.2-.7.4-.6.5-1,.7c-.8.5-1.2,1.1-.9,1.3.1,0,.1.1,0,.1-.1,0-.2,0-.2.2,0,.2.2.2.7-.1ZM84,150.5c.4-.4.5-.9.3-1.3-.2-.3-1.1-.4-1.5-.1-.3.2-.4.6-.2.6s.2.2.2.4.2.4.3.4.2,0,.2.2c0,.3.1.2.6-.2ZM85.8,148.8c-.1-.4-.2-.3-.2.1s0,.3.2.2.1-.2,0-.3ZM60.9,148.6c.1,0,.4-.2.6-.4s.5-.4.7-.4.4-.2.4-.3.1-.1.2,0,.3,0,.4-.1.4-.4.8-.5c.6-.3.8-.4,1.3-.9.1-.1.3-.2.4-.2s.2,0,.2-.2,0-.1.1,0c.2.1.4-.3.4-1,0-.5,0-.6-.3-.6s-.4.2-.6.3-.4.3-.4.3-.5.3-1,.6-1,.6-1.1.6-.2,0-.3.2-.7.6-1.4.9c-1.6.9-1.8,1-1.6,1.4.2.5.5.8.8.6.1-.1.3-.2.5-.2ZM48.3,148.3c0-.1,0-.2.1-.2s.2-.3.3-.7c.6-2,1.2-4,1.3-4,0,0,.2-.4.2-.8,0-.1.1-.3.2-.3s.2-.2.2-.4,0-.3.2-.3.2-.1.2-.3,0-.4.1-.4.1-.2.1-.2c0-.2.4-1.1.5-1.2,0,0,.2-.3.3-.6s.5-.9.8-1.4.6-.9.6-1c0-.2.9-1.5,1.8-2.4.5-.6,1-1.2,1.1-1.5s.2-.4.2-.4c.1,0,.8-.5.8-.7,0,0,.2-.4.5-.7.5-.6,1.9-3.5,1.9-3.9s.1-.5.2-.9c.3-.7.3-.9.8-3.8.4-2.4.5-2.9.6-4,0-.5.2-1.2.3-1.5s.3-.9.3-1.3.2-.8.2-.9c.2-.2.3-1.3,0-1.2-.1,0-.9,0-1.8.1-.9,0-1.6.2-1.7.3,0,.1-.3.6-.4,1.2s-.4,1.3-.6,1.8-.4.9-.4,1c0,.3-1.2,3.8-1.3,3.9,0,0-.3.8-.6,1.6s-.6,1.9-.8,2.4-.4,1.1-.5,1.3-.2.4-.2.4c-.1,0-.7,1.5-1.5,3.9-.3.9-.8,2.2-1.1,2.9s-.6,1.3-.5,1.3,0,0,0,.2c-.2.3-1.6,4.3-1.6,4.7s0,.3-.2.3-.2.1-.2.3c0,.2-.8,2.6-1.4,3.9-.1.3-.2.6-.2.8s0,.3-.1.4-.1.2-.1.2-.1.3-.3.6c-.2.4-.4,1.3-.3,1.6,0,0,.4.1.8.1.6,0,.8,0,.8-.2h0ZM68.3,148.2s0,0-.2,0-.2,0-.2.2,0,.1.2,0,.2-.1.2-.2ZM46,147.9c0-.3.3-.8.4-1.3s.3-.9.3-.9.1-.3.1-.5,0-.4.1-.5.2-.5.3-1,.2-.9.3-.9.2-.3.3-.7c.2-.6.7-2.1,1.5-4.5l.4-1c0-.2.2-.7.3-1.1s.4-1.1.6-1.6.4-.9.4-1.1.2-.6.4-1.1c.7-1.4,1.8-4.4,1.7-4.6,0,0,.1-.3.4-.6s.3-.4.2-.4c-.1,0-.1,0,0-.1.2-.1.6-1.2.8-1.9,0-.4,1-3.2,1.6-4.7.3-.8.8-2.1,1-3,.5-1.4.6-1.8.7-2.9,0-.3-.2-.4-1.1-.7-.6-.2-1.2-.4-1.4-.5-.4-.4-.8-.4-.9-.1,0,.2-.1.4-.2.5s-.1.4-.1.6c-.3,2.4-.6,3.9-1.2,5.2-.6,1.4-1.5,2.9-1.8,3,0,0-.1.1-.1.3s-.2.4-.4.5c-.9.7-1,.9-1,1.6s0,.7-.2.8-.1.2,0,.2,0,.2-.1.5-.3.9-.3,1.5-.2,1-.2,1.1-.2.4-.2.8-.2,1.2-.3,1.8-.5,2.1-.7,3.4-.6,2.4-.6,2.5-.2.3-.2.5-.1.7-.3,1.1-.4,1.1-.5,1.6c-.2,1.3-.9,3.6-1.5,5-.1.3-.2.6-.2.7,0,.2,0,.3-.5,1.3-.5,1-.4,1.3.4,1.2.2,0,.3,0,.3.1s.4.2.8.2c.7,0,.8,0,.9-.4h0ZM42.5,147.1c.5-1.1.9-2.6.7-2.7-.3-.2-1.8,3.1-1.7,3.6.2.4.5.2,1-.9h0ZM84.9,147.7c.2-.2.5-.3.8-.3s.5,0,.6-.2.2-.1.2,0,.3.2.5.4c.5.2,1,0,1.6-.5.2-.2.4-.3.4-.3s.3,0,.5-.2.5-.3.6-.3.2,0,.2-.2.1-.2.2-.2.4-.2.6-.4.5-.4.6-.3.3,0,.5-.3.5-.4.6-.4.3,0,.3-.2,0-.2.2-.2c.3,0,.9-.2.9-.3s.3-.2.6-.2.9-.3,1.3-.6c.7-.5.7-.5.6-1.2-.1-.8.1-1.4.9-2,.4-.3.5-.5.5-1,0-.7.8-2.8,1.1-3.3.3-.4.8-.5,1-.2,0,.1.2.3.3.3s.3.1.5.3.4.3.4.2.3.1.6.4.5.5.6.5.2.1.2.3c0,.2,0,.2.4.2.6-.2.5-.2,1.1,0,.3,0,.5.2.5.3s0,.1.2.1c.3,0,.8.5.8.9,0,.5.9.8,1.5.5.4-.2.4-.2,1.1-.3.4,0,.4,0,.2-.2-.2-.1-.2-.2,0-.2.1,0,.3,0,.4,0,0,0,.2-.5.1-.8,0,0,0-1.3-.1-2.8s-.2-2.8-.2-2.8-.2-.2-.4-.2-.5-.2-.7-.4-.5-.4-.6-.4-.2,0-.3-.2c-.9-.8-1.2-1-1.4-1s-.3,0-.4-.2c-.2-.2-.9-.6-2.1-1.3-.5-.2-.9-.6-.9-.7s-.2-.2-.3-.2-.4,0-.7-.3-.6-.3-.8-.3-.2,0-.2-.2-.5-.4-1-.8-1.1-.7-1.1-.8-.2-.1-.3,0-.4-.1-.6-.3-.5-.4-.7-.4-.4-.1-.5-.2-.5-.4-1-.6-.9-.5-1-.6-.3-.3-.5-.3-.3-.1-.4-.3-.3-.3-.5-.3-.5-.1-.6-.4c-.1-.2-.2-.3-.3-.3s-1-.4-2.1-1c-1.8-.9-2.9-1.4-2.7-1,0,0,.1.9.2,1.9s.1,1.8.2,1.9c.1.2.1,3.4,0,4,0,.3-.1,1.2-.2,1.9s-.1,1.6-.2,2c-.1,1-.2,1.9-.3,2.7,0,.4-.2,1.2-.3,1.8-.7,3.5-.9,4.4-1.1,4.7-.1.3-.4,1.2-.4,1.5,0,.3-.8,2.7-.9,2.8,0,0-.2.4-.3.7s-.3.6-.3.7c-.2.2-.7,1.4-.6,1.5,0,.1.5.2.9.2s.9,0,1.1-.3h0ZM69.3,147.3c.5,0,.2-.5-.4-.6-.4,0-.6,0-.7.2-.2.2-.2.2-.3,0-.1-.5.3-.7,1.6-.7,1.1,0,1.4-.2.8-.4-.5-.2-.8-.2-1.7-.3-.8,0-1-.2-.6-.6.2-.2,3.1-.3,3.4,0,.1,0,.2,0,.2,0,0-.4-.4-.5-2.5-.6-1.7,0-1.7-.2-1.6,1.7,0,1.7,0,1.6,1.7,1.4h0ZM60.3,146.6c.4-.3,1.9-1.3,2.1-1.3s.2-.1.2-.3.2-.2.2-.2.4,0,.6-.3.8-.6,1.1-.7.7-.4.9-.5.3-.2.3-.1.1,0,.2-.2c.3-.4.3-1.1,0-1.1s-.5.2-.8.5-.7.4-.8.4-.1,0-.1.1-.4.4-.9.6-1.4.8-2,1.2-1.2.8-1.4.8c-.5.2-.5,1.1,0,1.3,0,0,.1,0,.2-.2h0ZM60.4,144.4c0,0,0-.2.3-.2s.4,0,.4-.2.1-.2.2-.2.4-.2.7-.4.6-.5.8-.5.5-.2.6-.4.3-.2.5-.2.4-.2.6-.3.4-.3.5-.3c.3,0,1.2-1,1.2-1.3,0-.6-.4-.4-2.2.8-.9.6-2,1.3-2.3,1.4-1.1.6-1.5.8-1.5,1s-.1.2-.3.2c-.4,0-.5.8,0,.9.4,0,.7,0,.6-.2h0ZM32.7,141.8c.4-.6.9-1.3,1-1.4s.4-.6.6-.9c.2-.3.5-.6.5-.6s.1,0,.1-.2.3-.5.6-.9.6-.8.6-.8.3-.5.6-.9.6-.9.6-1,.2-.3.4-.4.4-.3.4-.3.2-.4.5-.7.7-.9,1-1.4.5-.8.6-.8.3-.3.5-.7.5-.7.6-.7.3-.2.5-.5.4-.5.4-.5.2,0,.2-.2.3-.4.6-.6c.5-.4.7-.8.4-1.1,0-.1-.8-.6-1.2-.7-.2,0-.7-.3-1.4-.6-.4-.2-.8-.3-.9-.3s-.3,0-.4-.2-.4-.3-.8-.5-.8-.3-.9-.4-.3-.2-.4-.1-.2,0-.2-.1-.4-.3-.9-.5c-.9-.4-2.2-1-2.3-1.2,0,0-.3-.2-.6-.4l-.5-.3v-1.6c.2-1.7.2-2,.5-3.3,0-.4.1-1,.2-1.3s.1-1.3.2-2.1.2-2.1.2-2.8.1-1.5.2-1.8.1-.8.1-1.1c.2-1.9.5-4.2.8-6.6.2-1.6.5-3.4.5-4.1s.2-1.5.3-1.9.2-1,.2-1.4.2-1.1.2-1.6.2-1.6.3-2.5.2-1.9.2-2.3.2-1.3.3-1.9.3-1.2.4-1.3c.4-.6,1.2-.8,4.1-.8,4.2,0,7.2-.2,7.6-.3.2,0,.3,0,.3,0s.2.2.5.2,1,0,1.5,0,1.1,0,1.2,0c.1,0,1,0,2,0,2.1.1,2.1.1,1.7-1.3-.1-.5-.3-1.3-.4-1.8-.2-1.3-.8-3.2-1-3.2s-.2-.3-.3-.7-.3-.7-.3-.7-.2-.2-.2-.5c-.1-.6-.3-1-.9-1.8-.2-.3-.5-.9-.7-1.2s-.4-.6-.5-.6-.2-.1-.2-.3c0-.6-.5-.8-1.8-.8-4,0-7.9.4-9.7,1-.4.1-.9.2-1,.2s-.6,0-1,0-.9.2-1.2.3-.7.1-.8.2-.6.2-.9.3-.7.2-.8.3-.2.2-.4.2c-.7.1-2.1.6-2.8.9-.2,0-.3.1-.4,0-.2-.1-.4.3-.5.7,0,1.1,0,14.4,0,18.4.1,6.4,0,23.3,0,38.3,0,6.6,0,12.2,0,12.4.1.4.1.4.7,0,.3-.3.9-1,1.3-1.6h0ZM68.6,143.4c0,0,.1-.2.2-.2s.2,0,.2.2c0,.1,1.7.1,3.2,0,.6,0,.6-.4,0-.5-.9-.2-4.2-.3-4.4-.1-.2.1-.1.2.2.5.4.4.6.5.6.2h0ZM60.4,142.5c.3-.2.6-.3.7-.3s.4-.2.6-.5.6-.5.7-.4.3,0,.5-.3.6-.5.9-.7.6-.4.6-.5.1-.1.2,0,.4,0,.5-.2.4-.3.5-.3.2-.2.3-.5c0-.6-.1-.6-.9,0-.2.2-.5.3-.6.3s-.4.2-.8.5-.7.5-.8.5-.5.2-.8.5-.7.5-.8.5-.4.2-.8.5-.7.6-.8.6c-.1,0-.2.3,0,.5,0,.2.1.3.2.2s.3-.3.6-.4h0ZM70,142.1c0,.1.2.1.4,0,.2-.2.3-.2.3,0,0,.3,2.6.3,2.6,0s0-.2.1-.1c.1,0,.2,0,.2-.4s-.5-.2-1.1-.2-1.6,0-2.2-.1c-1.5-.1-1.7-.1-2.1,0-.5.1-.5.3,0,.5.3.1.4.1.4,0,0-.1,0-.1.1,0,.2.3.7.4.9.2.1,0,.2,0,.3,0h0ZM99.4,141.6c.2-.1.5-.3.6-.3.3,0,.3,0,0-.2-.2-.1-.4-.3-.5-.4s-.4-.3-.7-.3c-.7-.1-.9,0-1,.9v.5c-.1,0,.6,0,.6,0,.4,0,.8-.1,1-.3h0ZM59.7,141.1c0-.1.2-.2.3-.1.1,0,.3,0,.4-.1s.2-.3.3-.3c.3,0,1-.4,1.3-.6l.7-.4c.2-.1.3-.2.2-.2s.2-.2.6-.3.8-.4.8-.5.3-.2.6-.4c.7-.4,1.2-.9,1.2-1.2s0-.3-.1-.3c-.2,0-1.2.5-1.3.7,0,0-.6.4-1.2.7s-1.3.7-1.4.8-.4.2-.4.3-.6.3-1.2.7c-1,.5-1.1.6-1,1.1,0,.5.2.6.3.2h0ZM101,140.5c-.1-.8-.5-2.1-.7-2.2,0,0-.1-.2,0-.3.1-.2-.2-.7-.5-.7s-.7,1-.7,1.5.2.6.5.9c.3.3.5.7.4.8,0,.2,0,.2.2.2.1,0,.2,0,.2.1s.2.2.4.2c.3,0,.4,0,.3-.5ZM73.1,140.7c0,0,0-.1.2,0s.4,0,.7,0c.5,0,.5-.1.3-.4-.1-.1-.4-.3-.6-.3s-.4,0-.4-.1c0,0-2.1-.2-4.8-.3-.8,0-.9,0-.9.4,0,.4,0,.5.2.5,1,0,2.2.2,2.2.2.1.1,3.1,0,3.1,0h0ZM102.3,140c0-.3,0-.9,0-1.3,0-.6,0-.8-.3-1.1-.2-.2-.5-.4-.6-.4s-.2,0-.2-.2-.1-.2-.3-.2c-.3,0-.4.3-.2.6,0,0,.3.7.5,1.4.2.8.5,1.3.7,1.5.2.1.4.3.4.3s0-.2,0-.6h0ZM104.3,140.2c.2,0,.3,0,.3-.1s0-.2.2-.2c.4,0,.6-.6.4-1-.3-.6-1-.6-1.5,0-.5.5-.6.8-.4,1.3,0,.2.2.2.4.2.2,0,.5-.1.6-.1ZM74.3,139.2s0-.2,0-.3c.1-.2,0-.3-.3-.4-.6-.2-6.4-.4-6.6-.2,0,0,0,.3.2.5.4.4,1.7.6,2.3.3.2,0,.4,0,.4,0s.5,0,1,0,1,0,1.1,0c.3.3,1.9.3,1.6,0h0ZM60.1,139.2c0,0,.4-.3.8-.5s.8-.5.8-.5.1-.1.3,0c.2,0,.3,0,.3-.1s0-.2.2-.2c.1,0,1.2-.8,1.9-1.4.1,0,.3-.2.4-.2s.2,0,.2-.1.2-.2.3-.2.3-.2.2-.3,0-.2.1-.2.2-.2.2-.4c0-.6-.4-.6-1.1,0-.3.2-.5.4-.6.4,0,0-.7.4-3.4,2.1-.3.2-.7.4-1.1.6-.9.4-1,1.2-.2,1.2s.4,0,.4-.1h0ZM60.1,137.6c0-.1,0-.2.2-.1s.4-.1.7-.4.6-.4.7-.4.4-.2.6-.4.6-.5.8-.6.7-.4,1.1-.7.7-.4.8-.4.1,0,.2-.2.2-.3.2-.3.3-.2.5-.4c.3-.3.3-.4.1-.5-.2,0-.1-.1,0-.2.2,0,.1-.1,0-.2-.2,0-.4,0-.6,0-.1.1-.7.4-1.2.7s-1.2.7-1.4.8-.5.3-.6.3-.5.2-.8.5-.7.5-.8.5-.2,0-.2.2-.3.3-.6.4c-.6.3-.8.7-.6,1.3.1.3,1,.2,1-.1ZM74.4,137.5c.2-.5,0-.7-.7-.6-.3,0-2.5-.1-5.5-.3-.5,0-.6,0-.8.3-.2.5-.2.7.2.7s.3,0,.3.1.9.1,2,.1c1.6,0,2,0,2-.3s0-.2.2,0c.3.3.4.4,1.3.4s.8,0,.9-.4h0ZM76.1,137.1c.1-.2.1-.3,0-.4-.1,0-.2,0,0,0,0,.1,0,.2,0,.2s-.2,0-.2.2c0,.2,0,.2.3,0h0ZM74.2,136q0-.5-.5-.2c-.2.1-.4.1-.6,0-.2,0-.7-.1-1.2,0s-1,0-1,0c-.1-.1-2.4-.2-3,0h-.6c0,.1.5.3.5.3.3,0,1.2.2,2.1.2s1.6,0,1.6.1.6,0,1.3,0c1.3,0,1.3,0,1.3-.4h0ZM76.7,135.8c.3-.4.3-.4-.2-.6-.7-.3-1.2,0-1,.7,0,.3.2.3.5.2.2,0,.5-.2.6-.4ZM59.8,135.7c0-.1.3-.3.6-.3s.5-.2.5-.3.1-.2.2-.2.2,0,.2-.2c0-.2.9-.7,1.2-.7s.2,0,.2-.1.2-.2.5-.4.5-.3.6-.4.4-.3.7-.5.6-.4.5-.5,0-.2,0-.1.2,0,.3,0,.2,0,.3,0,.2-.3.2-.7c0-.8-.1-.8-1.4,0-.6.4-1.2.8-1.5.9s-.5.3-.6.4c0,0-.4.3-.8.5s-.8.5-.8.5-.2.2-.4.2-.5.3-.7.4-.5.3-.6.3c-.3,0-.4.5-.2.9.1.4.8.5.9.2h0ZM74.1,135c.4-.5.2-1.1-.4-.7-.1,0-.3,0-.5,0-.2-.1-.4-.1-.5,0-.1.1-.3.1-.3,0,0,0-1.2-.2-2.6-.2h-2.5s0,.4,0,.4c0,.6.4.7,3.9.7,2.1,0,2.6,0,2.8-.2ZM77.2,134.5c.1-.3,0-.3-.4-.5-.3,0-.4,0-.4.2,0,.2,0,.2,0,0,0-.2,0-.4-.2-.4s-.2,0-.2-.2.4-.2.8-.2.9,0,1-.3c.2-.2.2-.3,0-.3s-.3,0-.3-.1-.4-.1-.9-.2c-.8,0-.9,0-1,.4,0,.2,0,.6,0,.7s.2.5.2.7c0,.3,0,.4.6.4s.7,0,.7-.3h0ZM59.7,133.7c.4-.2.6-.3.6-.4,0-.2,1.3-.8,1.6-.8s.2-.1.2-.2.2-.3.4-.4.5-.3.7-.4c.1,0,.3-.2.5-.3.1,0,.4-.3.6-.5s.6-.5.9-.6c.6-.2.9-.6.8-1,0-.4-.6-.3-1,.2-.1.2-.4.3-.5.3s-.5.2-.8.4-.7.4-.7.4-.3.1-.5.3-.8.6-1.3.9-1.2.7-1.4.9-.5.3-.6.3c-.2,0-.4.8-.3,1.1,0,.2.1.2.9-.1h0ZM74.2,133.2v-.4s-1.8,0-1.8,0c-1,0-2.5,0-3.4-.2-1.4,0-1.6,0-1.6.1s0,.3.2.4.1.2,0,.2,0,0,0,.1,1.6.1,3.4.1h3.2s0-.4,0-.4h0ZM73.2,133.4c0,0,0-.2,0-.2s.1,0,.2.2,0,.2,0,.2-.2,0-.2-.2ZM74.3,131.9c0-.3,0-.5,0-.5-.8-.1-4-.2-5.3-.2h-1.8v.4c0,.3,0,.4.3.4.1,0,.3,0,.4.1.2.3.4.2.3,0,0-.1,0-.3,0-.3s.2,0,.2.2c.1.3,4.9.6,5,.3,0,0,.2,0,.3.1.3.4.5.3.6-.4ZM70.6,131.9c0,0,0-.1.2,0,.3.1.3.2,0,.2s-.2,0-.2-.2ZM59.5,131.8c0,0,.2-.2.4-.3.3-.1.4-.2.3-.4,0-.1,0-.2.2,0,.1,0,.3,0,.3,0s0-.1.2,0,.4-.1.6-.3.5-.4.7-.4c.3,0,.3,0,.1-.2-.2-.1-.2-.2,0-.2.2,0,.5-.2.7-.3s.5-.3.6-.3.2,0,.2-.2.1-.1.2,0,.4,0,.5-.3.4-.4.5-.4.2,0,.2-.2.1-.1.2,0c.3.1.5-.5.3-1-.1-.4-.2-.3-1.2.3-.5.3-1.1.7-1.3.8s-.8.5-1.3.8-.9.6-1,.6-.2,0-.3.2-.5.4-1,.7c-.9.5-1.1.8-1,1.5,0,.4.1.4.4.2.2-.1.3-.3.3-.3h0ZM78.1,132c.2-.3,0-.6-.4-.7-.8,0-1.1,0-1.2,0-.1,0-.3,0-.4,0-.2-.2-.2-.1-.1.2,0,.2,0,.4,0,.4-.4,0,0,.2.7.3.4,0,.7.1.7.1.2.2.7,0,.9-.3ZM73.6,130.6c0-.2,0-.2.2,0,.2.2.2.2.2,0,0-.5-.3-.6-2-.7-4.1-.3-4.9-.3-4.9,0,0,.2.3.8.4.6,0,0,.2,0,.4,0,.3,0,.4,0,.6-.2.2-.3.2-.3.4,0,.1.3.4.3,1.6.3.8,0,1.5,0,1.6.1s.4.2.8.2c.5,0,.6,0,.6-.2h0ZM78.2,130.5c0-.3,0-.3-.2-.3-.1,0-.3,0-.5,0s-.5-.2-1-.2c-.6,0-.8,0-.9.3-.1.3,0,.4.4.3.3,0,.7,0,.8,0s.5.1.8.2c.4,0,.5,0,.5-.3h0ZM109,129.9c.1-.3-.2-.9-.5-.9s-.4.3-.2.8c.2.5.5.5.6.1ZM60,129.6c0,0,.5-.4,1.2-.7s1.1-.7,1.2-.8.1-.2.2-.1.1,0,.1,0,.2-.2.4-.3.4-.2.4-.3,0-.2.2-.2.3-.2.5-.3.5-.4.8-.5c.4-.2.6-.3.6-.8,0-.3,0-.6,0-.6-.2-.2-1.2.3-1.6.7-.2.2-.5.4-.5.4-.2,0-1.4.9-1.6,1.1,0,.1-.2.2-.3.2-.2,0-1.6,1.5-1.9,2-.1.2-.1.4,0,.4s.2,0,.2-.1h0ZM78.2,129.5c0,0,.2-.2.4-.2h.4c0,0-.4-.3-.4-.3-.3-.2-.4-.2-.5,0,0,.2-.2.2-.3,0-.2-.2-.8-.5-.8-.3s-.3.1-.6,0c-.4,0-.6,0-.6.1s0,.2-.2,0-.2,0-.2,0c0,.2,1.2.4,1.9.3.3,0,.5,0,.5,0s0,.2.2.2.2,0,.2-.2ZM74.1,129c.1-.6.1-.6-.3-.7-.6-.1-3.1-.3-5.1-.4-1.5,0-1.6,0-1.6.3s.1.4.2.5.2.2.2,0,0,0,.2,0c.1.1.9.2,2,.2,1,0,1.9,0,2.1.1s.7.1,1.2.2c.9,0,.9,0,1-.3h0ZM107,128.9c.3-.1.6-.3.6-.4,0-.2-1.4-1.1-1.8-1.1s-.3,0-.2-.2c.1-.2-.8-.9-1.2-.9-.6,0-.3,1.1.3,1.4.2,0,.3,0,.3,0s.2-.2.4-.2.4.1.5.5c0,.3.2.5.3.5s.1.1.1.3c0,.3,0,.3.7,0h0ZM79.2,128c0-.3-.1-.3-.5-.3-.3,0-.6,0-.7,0s-.5-.1-.9-.2-.9-.1-1.1-.2-.3,0-.3.1,0,.1-.2,0-.2,0-.2.2,0,.3.3.2c.2,0,.2,0,.2,0-.1.2.3.3,2.2.3,1.1,0,1.2,0,1.2-.3h0ZM109.2,127.5c.2-.8.2-5.7,0-6.2-.1-.2-.3-.4-.4-.4s-.1,0,0,.2,0,.1-.2,0-.4-.2-.5-.4c-.2-.4-.5-.4-.6,0,0,.1,0,.8,0,1.4s.2,1.2.2,1.3c0,.5-.2,2-.2,2.1-.1.1-.6-.3-.6-.5,0-.6,0-.8-.3-.7-.2,0-.3,0-.4-.1-.3-.9-.3-.9-.5-.4-.1.3-.3.5-.5.5-.3,0-.3,0,.2-.9.8-1.6,1.2-2.4,1.2-2.6s0-.2.2-.3c.3,0,0-.5-.4-.7-1.2-.6-1.5-.9-1.6-1.1,0-.2-.2-.2-.5-.1-.3,0-.5,0-.7-.2-.1-.1-.2-.2-.3-.1s-.1,0-.1,0-.2-.2-.4-.3-.4-.2-.4-.3,0-.2-.2-.2-.4-.1-.6-.3-.7-.4-1-.4-.7-.3-.9-.5-.5-.4-.8-.4c-.4,0-1-.5-.8-.6,0,0,0-.1,0-.1s-.2,0-.2.2,0,.1-.2,0c-.1,0-.3-.2-.5-.2s-.4-.1-.4-.2c-.2-.2-2.2-1.3-2.5-1.3s-.2,0-.2-.2-.2-.2-.4-.3-.8-.3-1.2-.5l-1.8-.8c-.5-.2-1-.5-1.1-.6-.2,0-.3,0-.4,0-.1.2-.2.1,0,0,.1-.3-.9-.9-2.3-1.4-.6-.2-.7-.2-.8,0-.1.3.3,3.5.5,3.8,0,0,.2,0,.4-.3.6-.8,1.6-1.8,1.9-1.7.2,0,.2.3.1,1-.1,1.4-.4,2.7-.6,2.7s-.1,0-.1-.1,0-.4,0-.7c0-.5,0-.5-.7-.5-.4,0-.7,0-.8,0-.5,0,.4,1.7.9,1.7s.2.1.2.3.1.3.2.3.4,0,.7.2.5.2.6.2.3.1.4.3.4.3.4.3.2,0,.4.2c.3.3.8.7,1.1.8.2,0,1.1.5,2.4,1.2.4.2.8.5.9.6s.3.2.5.2.5.2.7.5.5.5.6.4.2,0,.2.2.2.2.3.2.4,0,.7.3.6.4.7.4.3.1.4.3.2.3.4.3.6.3,1,.6.8.6,1,.6.5.2.6.3.4.3.5.3.3.1.3.3.1.2.2.2c.1,0,1.1.4,1.3.6,0,0,.3.2.7.4s.6.4.5.5.1.2.4.2.7.3,1,.6.6.5.7.4.4.1.6.3c.6.5.7.5,1-.3h0ZM103,122.9c0-.5-.1-.5-.4-.5-.4,0-.4,0-.4-.7,0-.4,0-.7-.1-.8s-.4.2-.7.6-.7.7-.7.6c-.2-.2.6-1.6,1.4-2.4.4-.5.8-1,.8-1,0-.3.5-.1.5.2.3,1.5.4,2.7.4,3.3-.1,1.3-.5,1.7-.6.7h0ZM99.1,120.6c-.1-.9-.4-1.1-.6-.7-.1.3-.2.2-.4-.3-.1-.3-.2-.7-.1-.8.1-.3-.2-.3-.6,0-.2.2-.3.2-.4.2-.1-.1.5-1.3.7-1.3s.2-.1.2-.2.2-.4.4-.7c.4-.4.5-.4.7-.2.2.1.3.4.3.6s0,.4.1.4.1.9.2,1.9c0,1.5,0,1.8-.2,1.8s-.3-.3-.3-.8h0ZM94.7,118c-.2-.3-.2-.3-.5,0-.3.3-.3.3-.4,0,0-.1,0-.4,0-.5,0-.6,0-.7-.4-.5-.2.1-.4.3-.5.4,0,.1,0,0,0-.1,0-.2,0-.4,0-.5s.1-.2.2-.2.2-.1.2-.2.3-.6.7-1c1-1.1,1.2-.9,1.1,1.2,0,1.6-.2,2.1-.6,1.4ZM91.4,116.7c0,0-.1-.4-.2-.6,0-.4-.2-.5-.5-.4-.3,0-.4,0-.4-.2s-.2-.4-.4-.2c-.4.4-.5,0-.2-.4.2-.2.6-.7.8-1.1s.5-.7.7-.7c.5-.2.7.2.6,1.8,0,1.4-.2,2.1-.4,1.7h0ZM74.1,127.5c0-.3,0-.6,0-.6s-.1-.4-.1-.8,0-.7-.1-.7-.6,0-1.2,0c-1.2,0-2.3-.2-3.1-.3-1.1-.2-2.2-.2-2.3,0-.1.3.1.7.5.7.2,0,.4,0,.5,0s.9.1,1.8.1,1.8,0,2,.1c.5.1,1.1.2,1.5.3.2,0,.3,0,.3.2s-.5.1-1.4,0c-.8,0-2.2-.1-3.3-.2-1.8,0-1.9,0-1.9.2,0,.8.2.8,3.2.7.4,0,1.6.2,2.6.4.5.1,1,.2,1.1.2s.1-.2.2-.5h0ZM61.5,126.5c.6-.3,1.3-.7,1.7-1.1.2-.2.4-.3.5-.3s.4-.2.6-.5.6-.6.8-.8c.4-.3.6-.9.3-.9s-.7.4-.6.5c0,0,0,.1-.1,0-.2,0-2,.9-2,1.2s0,.1-.2.1-.3.1-.4.3-.5.5-.7.7c-.3.2-.5.5-.5.8,0,.5.1.9.2.5,0-.1.2-.3.5-.5h0ZM79.2,127.1s0-.2,0-.3c0-.2,0-.2-.4-.2-.3,0-.5,0-.5.1s-.2.1-.4.1c-.7,0-.7,0,0,.2.8.2,1.2.2,1.2,0h0ZM76.8,126.7c.1,0,0-.2,0-.3-.2-.2-.2-.2-.4,0-.2.2-.2.2-.1,0,0-.1,0-.2,0-.2s-.2,0-.2.2c0,.2-.1.2-.2,0-.1-.3-.4-.3-.4,0,0,.2.2.3.6.3.4,0,.7,0,.8,0ZM103.4,126.2c0-.4-.2-.5-.7-.6-.3,0-.6-.2-.6-.3s-.1-.1-.2-.1-.2,0-.2-.1c0-.2-.8-.6-1.1-.6,0,0-.2,0-.3-.2s-.2-.2-.3-.2c-.1,0-.1.2,0,.3.1.1.2.4.1.5s0,.4.1.6c.2.2.3.2.7.1.8-.2.8-.2,1,.4.2.5.3.6.8.6.6,0,.6,0,.5-.4ZM43.5,124.4c.2-6.7.2-10.2,0-10.2-.1,0-1.1-.1-2.2-.2s-2-.1-2.2-.2-.9-.2-1.6-.3-1.7-.2-1.9-.3c-.7-.1-.8,0-.9,1,0,.9-.4,2.9-.5,3.6,0,.3,0,.4,0,.2,0-.1.2-.2.2,0s0,0,.2-.2c.7-1.2,1.6-2.7,1.9-2.9.6-.4.7-.1.7,2,0,1.1,0,2.2-.1,2.5-.1.5-.6.3-.6-.3s-.1-.6-.4-.3c-.1.2-.2.1-.3,0,0-.3-.2-.7-.2-1,0,0-.2,0-.5.3s-.6.4-.7.4-.2.1-.2.3,0,.7-.1,1.3c-.1.9,0,1,.2,1.1.2,0,.3.1.3.2s.1.1.2.1.5.2.9.5.9.5,1.1.5.4,0,.3.1c-.2.1,0,.2,1.3.8.3.1.7.3.8.4s.4.2.5.2.3,0,.3.1.5.4,1.1.7,1.2.6,1.4.7c.6.4.8.5,1,.4,0,0,.2-.7.2-1.5h0ZM41.1,120.6c-.2-.8-.2-.9-.4-.7-.1.1-.2.3-.2.5s-.1.3-.2.3-.2-.2-.2-.7c0-.9-.3-.9-.8,0-.3.5-.5.6-.5.1s.6-1.5,1.3-2.8c.2-.4.4-.8.5-1,.1-.3.5-.6.7-.4,0,0,.1.4.1.8s0,1.6.1,2.6,0,1.9,0,2-.2-.3-.3-.9h0ZM78.6,125.7c0-.2.1-.2.2,0,.2.3,1,0,1-.2s-1.4-.6-3.2-.7c-1.3,0-1.4,0-1.4.2,0,.2.1.3.2.2s.2,0,.4.3q.2.3.3,0c0-.3,0-.3.2,0,.1.2.3.3.7.2.3,0,.7,0,.9,0,.5.2.7.2.8,0h0ZM45.1,125.2c0-.3,0-.2.2,0,.2.3.2.3.2,0,0-.3-.6-.9-.8-1,0,0,0,.2,0,.5s0,.5,0,.6c0,.3.3.1.3-.2ZM74,124.7c0-.3-.6-.6-1.3-.7-.8-.1-.9-.4,0-.4.4,0,.6,0,.6-.2,0-.2,0-.2.2,0,.3.2.4,0,.4-.3s-.2-.4-2.1-.6c-2.9-.2-3.9-.3-4.3-.4-.2,0-.4,0-.5,0-.2.3-.1.9.1.8.1,0,.3,0,.4.1s.7.2,1.2.2,1.3,0,1.7.1.8,0,1.1,0,.4,0,.4.2c0,.2-4.3.2-4.5,0,0,0-.2,0-.3,0-.3.2,0,.9.3.9.2,0,.6,0,1,0,.4,0,.7,0,.8-.1s.2,0,.3.1c.2.2.3.3.4.1.1-.1.3-.2.5,0,.2,0,.4.1.5,0s.3,0,.4,0c.4.2,2.6.2,2.6,0h0ZM46.9,124.4c0,0-.1-.2-.3-.3s-.5-.4-.8-.7c-.5-.6-1.1-.8-.9-.4,0,.1.3.4.6.6s.5.4.5.5,0,.2.2.3c.4.2.8.1.8,0ZM80,124c0-.1,0-.2,0-.2h-1.9c-1-.1-2.1-.3-2.3-.3s-.5-.1-.6,0c-.2.2.1.9.3.9.1,0,.6,0,1,0s.7,0,.7,0,0-.1,0-.1.2,0,.2.2c0,.2,2.1.3,2.4.1.1,0,.2-.3.2-.4h0ZM62.4,124.1c.3-.2.6-.5.7-.6s.2-.2.4-.2.2,0,.2-.2.2-.2.3-.3.5-.3.6-.4.4-.3.5-.3c.3,0,.3-.4,0-.6,0,0-.6.2-1.1.5-1.2.8-1.5,1-1.9,1.2-.4.2-.8.7-.8,1,0,.3.3.3.9-.2h0ZM99.6,124c.1-.3,0-.4-.4-.7-.3-.2-.6-.3-.6-.3-.2,0,0,.7.2,1.1.3.4.6.4.8,0ZM99.2,124.1c0,0,0-.2,0-.2s.2,0,.2.2,0,.2,0,.2-.1,0-.2-.2ZM47.5,123.7c0,.1.3.2.4.2.3,0,.3,0,0-.3-.2-.2-.3-.4-.3-.5s-.1-.2-.3-.2-.3-.2-.3-.3-.2-.3-.3-.3-.4-.2-.6-.4c-.7-.7-1.1-1-1.3-.8-.2.2.2,1.1.4.9,0,0,.2.1.4.3s.4.5.6.5.4.2.4.3.1.2.3.2.2,0,.2.2c-.1.3,0,.5.2.2,0-.2.2-.2.3,0ZM80.1,123c.5-.4,0-.6-1.9-.7-.7,0-1.7-.1-2.2-.2h-1c0-.1,0,.3,0,.3v.5c0,0,1.7,0,1.7,0,.9,0,1.7.1,1.7.2.1.1,1.4,0,1.6-.1h0ZM48.8,122.9c.2-.1.2-.2-.1-.6-.2-.2-.4-.5-.4-.6s-.2-.2-.4-.2-.4-.1-.5-.3-.3-.3-.4-.3-.4-.2-.6-.5-.5-.5-.7-.5c-.2,0-.3-.1-.3-.4,0-.6.3-.6,1,0,.4.3.9.7,1.1.8.3.1.4.3.4.4,0,.1,0,.2.2.2s.4.2.6.3q.3.3.4-.4c0-.1-.1-.2-.3-.2s-.3,0-.3-.1c0-.2-.4-.6-1.2-1.3-.2-.2-.6-.5-.7-.6s-.4-.3-.5-.3-.1-.2-.1-.3,0-.3-.2-.3-.2,0-.2.2,0,.1-.2,0-.2-.3-.2-.4c0-.3,0-.3.4-.2.2,0,.4.2.4.3s.2.2.4.3.4.3.4.4.1.3.3.3.4.1.6.3c1,1,1.8,1.4,1.8.9s-.7-.9-1.2-1.2c-.3-.1-.7-.5-1.1-.9s-.6-.6-.6-.5-.1,0-.2-.1c-.2-.2-.2-.2,0-.4.2-.1.1-.1,0-.1-.2,0-.3,0-.3-.2,0-.2.5,0,1.1.4.3.2.6.4.6.4s.3.2.5.4.5.4.7.4c.2,0,.3,0,.2.2,0,.3.5.2.6,0,0-.2-.9-1.2-1.2-1.2s-.2-.1-.3-.3-.2-.3-.4-.3-.2,0-.2-.2c0-.2-.2-.4-.7-.5-.1,0-.6-.4-1.1-.8-.6-.5-1-.7-1.1-.6-.2.2.1,1.1.5,1.3.1,0,.2.2.1.3,0,0,0,.1.1,0,.3-.1.5.2.3.6,0,.2-.2.2-.2,0,0-.1-.1-.2-.2-.2s-.2,0-.2-.2-.1-.2-.3-.2-.3,0-.3.1c0,.3.4,1,.5,1,.2,0,0,.7-.3.8-.3.1-.1.7.2.7s.2.2.2.4,0,.4-.2.3c-.4-.2-.5.4-.1.7.2.2.4.3.5.3.4,0,.7.2.7.6,0,.2.2.3.3.3.1,0,.3,0,.3.2s.1.3.2.3c.3,0,1.4.7,1.4,1,0,.3.2.3.5,0h0ZM97.9,122.9c.3-.1.2-.2-.2-.4-.2-.1-.5-.3-.5-.4s-.2-.1-.4-.2-.4-.1-.5-.2c-.3-.2-.3-.1,0,.6.2.5.3.6.8.6.3,0,.6,0,.8-.1ZM62.7,122.2c.2,0,.6-.2.9-.6s.6-.5.7-.5c.2,0,1.1-.9,1.2-1.3.1-.5-.2-.8-.5-.4-.1.1-.4.4-.7.6l-1,.6c-1.6,1-1.8,1.3-1.5,2.1,0,.2.1.2.3,0,.1-.2.4-.4.6-.4h0ZM73.4,121.9c.2-.3.2-.3.1,0,0,.2,0,.3.1.2.1,0,.2-.2.2-.4,0-.4-.7-.5-4.4-.7-2.1,0-2.4,0-2.4.1,0,.5.7.7,1.1.4.1-.1.2,0,.2.1s.3.2,1.6.2c.9,0,1.8,0,2,0,.8.2,1.2.2,1.5-.1ZM95.8,121.7c-.1,0-.1-.2,0-.3.1-.1-.4-.5-1-.6-.4-.1-.4,0-.2.5,0,.3.2.6.2.5s.2,0,.3.2c.2.2.3.2.6,0,.3-.1.3-.2.2-.3h0ZM80.3,121.6c.3-.4-.1-.6-1.4-.7-1.9-.1-3-.2-3.2-.3-.3-.1-.8.4-.8.8s.1.3.5.3.5,0,.5-.2c0-.1,0-.1.1,0,.2.3,4.1.4,4.3.1h0ZM73.7,120.5c0-.5.2-.4-2.9-.6-1.9-.1-2.3-.2-2.4-.3,0,0-.2,0-.3,0-.1.1-.3.1-.6,0-.4-.2-.4-.1-.4.3s.2.6,2,.5c1,0,1.4,0,1.5.1,0,.2,1,.3,2.6.3s.7,0,.6-.4h0ZM93.7,120.9c.7-.2.3-.7-1.1-1.5-.5-.3-.9-.6-.9-.6s-.4-.2-.8-.4-.8-.4-.8-.4,0-.1-.1-.1c-.2,0-1-.4-1.1-.6,0-.1-.2-.3-.4-.3s-.4-.1-.6-.3c-.5-.4-1.2-.3-1.2,0s.4.8.9.7c.3,0,.4,0,.5.4,0,.2.1.4.1.4s.3,0,.6-.2c.5-.1.5-.1.7.3.1.3.3.5.4.5s.4,0,.6,0c.3,0,.5.2.6.5.2.4.2.5.7.4.3,0,.5-.1.6-.2s.3.2.4.6c.3.7.4.7,1,.6h0ZM63.2,120.1c0-.1.1-.2.2-.2s.2,0,.2-.1.2-.2.5-.2.6-.2.7-.4.3-.3.4-.3.2-.3.2-.6c0-.8-.2-.8-1.4,0-.5.4-1,.7-1.1.7s-.2,0-.2.2-.1.2-.2.2-.3.1-.3.3,0,.3,0,.5c0,.2.7.5.9.4,0,0,.1-.2.1-.3h0ZM79.1,120.2c.2-.3.2-.3.1,0,0,.3,0,.3.6.3.5,0,.7-.1.7-.3s-.1-.2-.2-.2-.2,0-.2-.2,0,0-.2.1c-.2.3-.2.3-.3,0,0-.2-.5-.3-1.5-.4-.8,0-1.5-.2-1.6-.3-.1,0-.2,0-.3,0,0,.1-.3.1-.6,0-.3,0-.5-.2-.6-.2,0,0,0,1,0,1,0,0,.6,0,1.2,0s1.2.1,1.2.1.3,0,.7,0c.5,0,.7,0,.9-.3h0ZM73.4,119.4c0,0,0-.2,0-.3s-.1-.2-.3-.2-1.3,0-2.5-.1c-3.6-.2-3.7-.2-3.6.2,0,.5.2.5.4.3.2-.2.5-.3.4,0,0,.1.2.2.6.2s.6,0,.6-.2,0-.2-.2-.2-.1,0-.1,0c.1-.1.6.1.6.3,0,.1.5.2,1.4.2.8,0,1.4,0,1.5.1.1.1,1.4,0,1.3-.2h0ZM80.6,119.2c.2-.1.2-.2,0-.2-.1,0-.2-.2-.2-.4,0-.3,0-.4-.2,0-.2.2-.4.3-1,.2-.4,0-.9,0-.9,0-.2,0-.9.2-.9.3s.6.1,1.3.1,1.3,0,1.4.1c.1.1.2.1.5,0ZM107.9,118.9c0-.3,0-.4-.4-.4s-.4,0-.4.3,0,.3.2.2c.1,0,.3,0,.3,0,.2.3.2.2.2-.2h0ZM76.1,119c.2.2.4,0,.3-.4,0-.3-.4-.4-1.1-.3-.5,0-.5.2-.2.5.2.2.4.3.6.2.2,0,.3,0,.4,0ZM51.7,118.6c0-.1-.1-.3-.3-.4s-.4-.2-.4-.5c-.1-.4-.1-.4-.2,0,0,.3,0,.5.3.7.5.4.6.4.6,0h0ZM63.1,118.2c0-.1,0-.2.3-.1.2,0,.3,0,.4-.4,0-.2.2-.4.3-.3s.3,0,.5-.2.4-.3.4-.3c.2.1.4,0,.3-.3,0-.6-.2-.6-.8-.1-.3.2-.5.4-.6.4-.1,0-1.5,1.3-1.5,1.4s.2,0,.4,0,.3-.1.3-.2h0ZM73.6,118.1c0-.3-.8-.7-1.2-.6-.1,0-.5,0-.8,0s-1.3-.2-2.1-.3-1.6-.2-1.6-.3.9-.1,2.3,0c2.4.1,3.3.1,3.4,0,.1-.1-.3-.8-.5-.7-.1,0-.2,0-.3,0s-.3-.1-.6,0c-.6,0-.9-.2-.6-.5.1-.1.2-.1.4,0,.2.2,1.1.3,1.4,0,.1,0,.2-.3.1-.4-.1-.3-1.7-.5-2-.2,0,.1-.2,0-.2,0,0-.2-1-.4-2.7-.5-.7,0-1.3-.1-1.4-.1-.2,0-.4.6-.3.7,0,0,.7.2,1.5.3,1,.1,1.5.2,1.5.4,0,.2,0,.2-.4.1-.3,0-.8-.2-1.2-.2s-.8-.1-.9-.1-.2,0-.2,0,0,.1-.2.1-.2,0-.2.2c0,.6,0,.7.2.6,0,0,.2,0,.3.1.1.2.1.3-.1.3-.2,0-.3.2-.3.5s0,.4.2.3c0,0,.2,0,.2,0s.8.2,1.7.2c.9,0,2.1.1,2.6.2,1.4.2,2.1.2,2.1-.2h0ZM70.1,115.8c.2-.3.9-.3.9,0s-.2.2-.5.2-.4,0-.4-.1ZM106.3,118.2c0-.1,0-.2-.2-.2s-.1.2,0,.3c.1.2.2.2.2-.1ZM51.7,117c-.2-.2-.3-.2-.3,0,0,.1,0,.4.2.6.3.3.3.3.3,0,0-.2,0-.4-.2-.6ZM80.5,117.6c.3-.3.3-.3,0-.3s-.3,0-.4,0-.8-.1-1.6-.2-1.8-.1-2.1-.2-.9-.1-1.2,0c-.4,0-.5.2-.5.5s.1.5.2.5,1.4.1,2.8.1c2.2,0,2.6,0,2.8-.3h0ZM104.9,117.3c0-.3-.2-.5-.4-.5-.3,0-.4,0-.4.4s0,.5.4.5.4,0,.4-.4ZM49.5,116.4c0-.3-.2-.4-.4-.4s-.5-.2-.8-.6c-.5-.6-1.1-1.1-1.9-1.7-.3-.2-.5-.5-.5-.6,0-.3-.8-.8-1.1-.6-.3.2,0,1,.3,1s.4.2.6.4c.2.2.5.4.6.4s.3.1.3.3.4.5.8.7.7.5.7.6c0,.3.7.5.8.3,0-.1.1-.1,0,0,0,.3.4.9.5.7,0,0,0-.3,0-.6h0ZM103.1,116.5c0-.6-.2-.7-.5-.4-.1.1-.3.1-.3,0s-.1,0-.2,0c0,.1,0,.3.3.3.2,0,.4.2.4.3s0,.1.1,0,.1-.3.1-.5h0ZM64,116.2c.2-.2.4-.4.5-.4.1,0,.8-.6.8-.7,0-.3-.7,0-1.5.5-.8.6-1.2,1.1-.9,1.3.1.1.6-.2,1.2-.7ZM51.3,116.6c0,0-.1-.2-.2-.2s-.3,0-.3.2,0,.2.2.2.3,0,.3-.2ZM80.6,116.5c.2,0,.3,0,.3-.3,0-.3-.4-.3-2.2-.5-1.2-.1-2.4-.2-2.8-.3s-.8-.1-1-.2c-.3,0-.4,0-.4.1s0,.3.2.4.1.2,0,.3,0,.2.1.2.7,0,1.2,0c1.1,0,2.3.1,2.5,0,0,0,.2,0,.4,0,.4.2,1.2.2,1.3,0,0,0,.2-.1.4-.1h0ZM109.3,112.6c0-2.7,0-3.5-.2-3.5-.1,0-.2-.2-.1-.2s0-.3-.2-.5-.5-.6-.6-1-.4-.6-.4-.6-.1-.2,0-.3c0-.2,0-.3,0-.3s-.3-.2-.3-.4-.2-.4-.3-.4-.2-.2-.2-.3,0-.3-.1-.3-.2-.2-.3-.5-.4-.7-.5-.9-.4-.6-.5-.8c-.5-1.1-.6-1.4-.9-1.7-.2-.2-.3-.4-.3-.5,0-.2-.1-.4-.6-.9-.1-.1-.4-.6-.7-1.1s-.6-1-.7-1.1-.2-.2-.1-.3,0-.3-.1-.5-.3-.5-.4-.7-.3-.6-.5-.9c-.4-.5-1.6-3-1.6-3.3,0-.1,0-.2-.2-.2s-.2-.2-.2-.3,0-.3-.2-.3-.2-.1-.2-.2-.2-.4-.4-.7-.4-.6-.5-.8-.1-.3-.2-.3-.3-.4-.4-.9-.4-.9-.5-1-.2-.2-.2-.3,0-.3-.2-.3-.7-1.1-1.3-2.4-1.1-2.3-1.2-2.3-.1-.1-.1-.2-.1-.3-.2-.4-.5-.8-.8-1.4-.7-1.3-.8-1.4-.2-.3-.2-.5-.2-.5-.4-.9-.4-.7-.4-.8-.2-.5-.4-.8-.4-.6-.4-.7-.2-.4-.4-.7c-.5-.6-.9-.7-.9-.2s-.1.4-.2.4c-.1,0-.3.4-.3.9,0,.5-.2.9-.2.9s-.1.2-.1.4,0,.3-.2.3-.2.2-.2.4-.1.9-.3,1.4c-.3,1.1-.8,3.7-.9,4.9-.1.9-.1.9.5,1.2.3.2.6.4.6.5s.2.1.4.1.4,0,.4.1c0,.1.6.5,1.7,1,.4.2.7.4.7.5,0,.2.4.6.6.6s.3.2.4.3.3.3.4.3.3.1.3.3.3.5.6.8.5.6.5.8,0,.3.2.3c.2,0,.9,1.4,1.2,2.6.4,1.7.6,3.3.4,4.5-.1.6-.2,1.3-.2,1.5,0,.6-.6,2.4-.8,2.6-.1.1-.4.6-.6,1-.4.8-.7,1.2-.9,1.2s-.3.2-.4.4-.4.4-.5.4-.2,0-.2.2-.1.2-.2.2-.5.2-.7.5-.6.5-.7.5-.3.1-.3.2-.2.2-.3.2-.2,0-.3.2c0,.3.2.5,1.1,1,.3.1.6.3.7.5s.3.2.5.2.3,0,.4.2c.1.2.7.5,1.2.6.1,0,.2.1.2.2s.1.2.3.2c.4,0,1.1.3,1.1.5s.3.2.6.3.6.3.7.5.2.2.2.1.2,0,.4.2.6.4.7.4.3.1.3.3,0,.2.2.2c.1,0,.3,0,.4.2s.3.3.4.3.4,0,.6.2c.8.4.9.5,1,.3,0-.1.1,0,.3,0,.3.4.9.6,1.2.6s.6.2,1,.4.9.4,1,.4.2,0,.2.1c0,.1.6.4,1.5.7.3.1.6.3.6.3,0,.1,1.3.8,1.5.7,0,0,.2,0,.4.2s.5.3.9.4.7.2.8.3c0,.1.2,0,.3-.2.2-.3.2-1.1.3-3.8h0ZM52.2,116.2c-.1-.3-.7-.9-.9-.9-.3,0,0,.5.4.8.6.4.6.4.5,0ZM101.1,115.1c0-.1-.1-.2-.2-.2-.2,0-.7.5-.6.6,0,0,.2.1.4.2.3.2.3.1.4,0,0-.2,0-.4,0-.5ZM50,115.1c.1-.4.1-.5,0-.5s-.3-.2-.3-.4c0-.2-.2-.3-.4-.3-.2,0-.3,0-.4-.2,0-.2-.2-.3-.5-.3s-.4,0-.3-.2c0-.1-.2-.3-.6-.4-.4-.1-.8-.4-.9-.6-.1-.2-.3-.4-.4-.3s-.2,0-.3-.3-.2-.3-.3-.2-.2,0-.3-.3c0-.3-.2-.3-.3-.2-.2.3,0,1,.3,1s.2.1.2.3,0,.3.2.3.5.3.8.7.7.7.8.7.2,0,.2.2.3.4.7.6.7.5.7.6.1.2.2.2.2,0,.2.2c0,.4.3.1.5-.3h0ZM52.9,115.4c0,0,0-.2-.2-.2s-.1,0,0,.2.1.2.2.2,0,0,0-.2ZM80.9,115.2c0-.1,0-.3.1-.3.5-.2-.7-.5-2.3-.6-.9,0-2.3-.1-3-.2h-1.3c0,0,0,.4,0,.4,0,.3.2.4.4.5.4,0,1.8,0,4,.2.8,0,1.5.1,1.5.2.2.2.5,0,.5-.1h0ZM64.5,114.2c.6-.6.8-1,.5-1s-.3.2-.5.3-.4.3-.4.3c-.2,0-.7.6-.7.9,0,.4.3.2,1.2-.6h0ZM99.3,114.6c.3-.5.2-.7-.3-.6-.5.1-.9.5-.7.7.2.2.8.2,1-.1ZM71.7,114.2c.1-.2.2-.2.3,0,0,.1.4.2.8.2.5,0,.6-.1.6-.4,0-.5-.3-.6-1.2-.6-.5,0-.8,0-.8-.2,0-.2-.1-.2-.3,0-.3.2-.7.2-1.9,0-.2,0-.8-.1-1.3-.2-.9-.1-.9,0-1.1.3-.2.7,0,.9,1.9.9.9,0,1.7,0,1.7.1.2.2,1.3,0,1.4,0h0ZM97.5,113.4c0-.2,0-.4-.2-.5-.2,0-1.2.3-1.2.4,0,.2.5.7.6.6,0,0,.2,0,.4.2.2.2.2.2.3,0,0-.2.1-.5.1-.7ZM53.2,114.1c.1-.2-.5-.8-.7-.6-.1,0-.2,0,0,0,.1-.2-.5-.9-.8-.9s-.2,0-.2.2c0,.3.6,1,.9,1s.3.1.4.3c.2.3.4.3.5.1ZM81,113.6c0-.2-.2-.3-.4-.3-1.3-.1-2.2-.2-2.8-.3-.4,0-.8-.1-.9-.2s-.3-.1-.5-.1h-.4s.4-.3.4-.3c.2-.2.4-.3.5-.2.1.2.6.3,1.8.4.7,0,1.1,0,1.1,0s.2-.1.5,0c.5.2.9,0,.8-.4-.1-.3-.6-.4-.6,0,0,.2,0,.2-.1,0-.2-.3-4.8-.9-5.6-.7-.3,0-.4.1-.3.2.1,0,.2.1.1.3,0,.2,0,.2.1.2.1,0,.3,0,.3.2s.2.2.3.2.3,0,.3,0,.2.1.3,0,.1,0,.1,0-.3.1-.8.1c-.7,0-.8,0-.7.3,0,.5.7.8,1.8.8.5,0,1,0,1,0,.5.1,2,0,2,0,0,0,.2,0,.4,0,.5.3,1.4.2,1.3-.2h0ZM50.1,113.4c0-.2-.4-.5-.6-.7s-.8-.6-1.1-.9-.6-.6-.7-.6-.4-.3-.8-.7-.8-.7-1-.8-.3-.2-.2-.2c0-.2-.5-.4-.6-.2-.3.3.3,1.4.8,1.4s.3,0,.3.2.1.2.3.3c.3.1.7.4,1.3,1,.2.2.4.4.5.4s.2,0,.2.2.2.2.4.3.4.2.4.3c0,.2.8.7,1,.6,0,0,0-.2,0-.5h0ZM43.7,112.4c0-.3-.2-.3-1.2-.4-1.7,0-2.8-.1-4.1-.3-2.6-.4-3.3-.4-3.5-.1,0,.2,0,.5,0,.7.1.4.2.4,2.2.5,1.1,0,2.3.1,2.6.2s1.1.1,1.7.2,1.3.1,1.3.2.3,0,.5-.3c.3-.2.4-.4.4-.7h0ZM95.6,112.5c-.1-.5-.6-.6-.9-.1-.3.5,0,.9.4.9.2,0,.4,0,.4.1,0,.1,0,0,0-.1s0-.5,0-.7ZM94.8,112.9c0,0,0-.2,0-.2s.1,0,.2.2,0,.2,0,.2-.2,0-.2-.2ZM73.1,112.7c.2-.4.2-.5-.5-.6-.3,0-.5,0-.5,0,0,0-4.2-.5-5-.5-.4,0-.5.5-.2.8.3.3,1.7.4,1.7.2s0-.1.2,0c.1.1.9.2,1.9.2.9,0,1.7,0,1.7.2,0,.3.5.1.6-.2h0ZM53.2,112.4c-.2-.2-.3,0-.2.3.1.2.1.2.2,0,0-.1,0-.3,0-.3h0ZM64.5,112.6c0,0,.2-.1.3-.1h.3c.1,0,0-.9-.1-.9s-.8.7-.8,1,.2.3.4,0ZM52.7,112c0-.2,0-.3-.3-.3s-.4-.1-.4-.3c-.1-.3-.2-.3-.2,0,0,.2,0,.4.2.6.4.4.6.4.7,0h0ZM62.3,112.1c1-.3,1.8-1,2.3-2,.2-.5.1-1.3-.1-.8,0,.1-.3.2-.5.2s-.8.1-1.4.3-1.4.3-1.8.3c-.5,0-.8,0-1,.2-.2.3-.2.4-.4,1.4v.6c0,0,.9,0,.9,0,.6,0,1.4-.1,2-.3h0ZM93.8,112.1s0-.3,0-.5c0-.4-.2-.5-.5-.4-.4,0-.6.7-.4,1,.1.2.7.2.9,0ZM50.3,111.9c0-.2-.2-.3-.3-.3-.2,0-1.2-.8-2.3-2-.5-.5-.9-.9-1-.9s-.5-.3-.8-.6-.6-.5-.6-.4c0,.1,0,.2,0,.2s-.2-.2-.2-.4,0-.3.3-.3c.1,0,.3.1.4.1.2,0,1,.6,1.4,1.1.2.2.4.4.5.4s.2.2.3.4c0,.2.2.3.3.2.1,0,.4.1.7.4.3.4.5.5.6.4.1-.4.3-.2.2.1,0,.2,0,.3.2.3s.3,0,.3-.1c0-.2-.2-.8-.4-.9,0,0-.2-.2-.3-.3,0-.2-.1-.2-.1,0,0,.2-.1.1-.3-.1-.2-.2-.3-.4-.4-.4s-.2-.1-.4-.3-.5-.4-.7-.6-.5-.5-.7-.6c-.8-1-1-1.1-1.2-1.1s-.3,0-.4-.2c-.1-.1-.2-.1-.3.1-.2.3-.2,1.5,0,1.7,0,0,.1.3.1.4s0,.3.2.3.4.2.6.5.5.5.6.5c.3,0,1,.8,1,1.1s.1.2.3.2c.2,0,.4,0,.4.2,0,.2.2.3.3.3s.4.2.6.3.4.3.6.3.2,0,.2.2.1.2.2.2.2-.1.1-.3h0ZM58.3,112.1c.2-.1.6-1.7.4-1.9,0,0-.4-.2-.7-.3s-.8-.2-1-.3-.5-.2-.7-.2-.4-.2-.5-.3-.3-.3-.5-.4c-.2-.2-.3-.2-.4.2-.3,1-.4,1.6,0,2,.2.2.4.4.5.4s.2.1.3.2.6.4,1.2.5l1.1.3s.2,0,.3-.1h0ZM73,111.4c.2,0-.4-.5-.7-.5s-.2,0-.1.2,0,.2,0,.2-.2,0-.2-.2c0-.2-3.7-.7-4-.6,0,0-.2,0-.3-.2-.2-.2,0-.3,1.4-.2.9,0,1.8.1,2.1.2.3,0,.5,0,.6-.1,0-.1.1-.1.1,0,0,.1.2.2.4.2.6,0,.5-.4-.1-.7-.3,0-1-.2-1.5-.1s-1.3,0-1.6,0c-.5-.1-.6,0-.8.1-.2.2-.2.2-.3,0,0-.2-.3-.3-.5-.3s-.4,0-.4-.2.3-.2,2-.2c1.4,0,1.9,0,1.8,0,0,0-.4-.2-.7-.3-1.1-.2-1.2-.2-1.5-.4-.2-.1-.2-.2-.2-.2.3,0,.6,0,1-.1.4,0,.4,0-.1-.4-.3-.2-.7-.3-.9-.3-.2,0-.4,0-.4,0s-.2,0-.4,0c-.3,0-.4,0-.4-.2s.4-.2,2.2-.2c1.5,0,2.2,0,2.1-.1,0,0-.2-.1-.4,0s-.5,0-.8-.1c-.3-.1-1.1-.2-2-.3h-1.4s0,.7,0,.7c0,.7,0,.7.5.8.8,0,.6.5-.2.4-.6,0-.7,0-.8.2,0,.2,0,.3.1.4.2.1.2.2,0,.4-.2.3-.3,1.5,0,1.5s.1,0,.1.2c0,.3.8.5,2.7.5.9,0,1.6.1,1.6.1,0,0,1.8,0,2.1,0h0ZM67.1,110.2c0,0-.1-.2-.1-.3s0,0,.2,0c.1.1.2.2.1.3s-.1,0-.2,0ZM91.9,111c0-.2,0-.5,0-.6,0-.2-.1-.2-.6,0-.5.2-.8.4-.4.4s.1,0,0,.2c0,.1,0,.1,0,0,0,0,.3,0,.3.2.2.4.6.3.6-.2ZM43.6,111c.2-.2.3-1,.4-2.9.1-3.2.2-5.5,0-5.7,0,0-1.1-.1-2.4-.2s-2.6-.1-2.8-.2c-2.6-.3-2.8-.3-2.9.4,0,.1-.2,1.1-.3,2.1-.3,2.3-.4,2.6-.5,4.7v1.6c0,0,1.1,0,1.1,0,.8,0,1.2,0,1.2-.2,0-.1,0,0,.1,0,0,.1.3.2.5.2,1.3,0,2.6,0,2.7.1.2.2,2.5.1,2.8-.1h0ZM42.4,108.3c0-.2,0-.5,0-.6.1-.4-.3-.2-.6.3-.4.6-.6.5-.5-.3,0-.7-.3-.8-.6-.2-.2.4-.7.6-.7.2s.6-1.2.8-1.3c0,0,0-.1,0-.2s0-.3.3-.5.4-.5.5-.8c.1-.4.7-.9.7-.6,0,0,0,.7.2,1.4.3,2.5.3,2.9.2,2.9s-.2-.2-.3-.4h0ZM36.2,107.5c0-.3.2-.8.4-1.1s.3-.6.3-.8.1-.5.2-.7.2-.4.2-.4,0-.2.1-.3c.2-.2.3,0,.7.4.4.5.5.8.6,1.7,0,.6.1,1.2.2,1.3.1.4-.2.2-.4-.3-.3-.7-.4-.6-.7,0-.2.7-.4.8-.6.3-.1-.5-.3-.4-.6,0-.4.6-.6.5-.5-.2h0ZM81.1,111c0-.4-.4-.7-1-.5-.3,0-.5,0-.6,0-.1-.1-.2-.1-.2.1,0,.4-.3.4-.4,0,0-.2-.2-.2-.5-.1-.4.1-1.2-.1-1-.3,0,0,.9,0,1.8,0,1.7,0,1.7,0,1.4-.2-.2-.2-.5-.3-1.3-.3s-1,0-1-.1-.2-.1-.5-.1c-.5,0-.5,0-.4-.4,0-.3,0-.4-.2-.4s-.5-.1-.7-.3c-.4-.2-.5-.2-.6,0-.2.3-.2.3-.2,0,0-.3-.1-.3-.8-.3-1.1,0-1.1,0-.8.5.2.2.2.4,0,.6,0,.1,0,.4,0,.8.4,1.2.2,1.1,3.5,1.2,1,0,1.9,0,1.9.1s.4,0,.7.1c.5,0,.7,0,.7-.3h0ZM76,110.2c0,0,.3-.2.6-.2s.6,0,.6.2-.3.2-.6.2-.6,0-.6-.2ZM76.6,109.2c0,0-.5-.1-1,0-.8,0-1,0-1-.2s.2-.2.6-.2c.4,0,.7.1.8.2s.2,0,.2,0c.1-.2,1.1,0,1.1.1s-.1.2-.3.2-.3,0-.3,0ZM53.4,109.8c-.5-.5-.8-.2-.2.3.3.3.5.3.5.2,0-.1,0-.3-.3-.5h0ZM89.8,109.5c0-.4-.5-.4-.9,0-.2.2-.1.3.2.6.4.3.5.3.6.1,0-.1.1-.4,0-.6h0ZM50.4,108.7c0-.2-.2-.4-.3-.4s-.5-.3-1-.8c-1.1-1-1.2-1.1-1.3-1.1s-.5-.4-1-.9-.9-.9-1-.9-.3-.1-.5-.3c-.3-.3-.3-.3-.2,0,0,.2.2.5.2.6s.2.3.3.3.2,0,.2.2c0,.2,1.1,1.1,1.4,1.1s.2.1.2.3.1.3.3.4c.2,0,.4.2.4.4s.2.3.2.3.4.2.8.6.7.6.8.6.2,0,.2.2c0,.1,0,.1.2,0,0-.1.1-.4,0-.6ZM52.6,109.3c-.2,0-.3-.3-.3-.5,0-.3-.3-.5-.5-.2-.1.2.5.9.8.9.2,0,.2,0,0-.2h0ZM80.6,108.9c0-.1-.1-.2-.4-.1-.3,0-.4.1-.2.3.2.3.6.1.6-.2ZM88.1,108.8c0-.6-.2-.9-.7-.6-.4.2-.5.5-.1.5s.3.2.4.3c.3.5.4.4.4-.2ZM59,108.9s-.1,0-.2,0-.2,0-.1.2c0,.2.4,0,.4,0ZM62.4,108.9c.7-.2,1.3-.3,1.3-.4s.2-.1.4-.1.4,0,.4-.2,0-.2.1-.1c.2,0,.8-.6.8-.9s0-.3.2-.4c.2-.1.2-.7,0-.9,0,0-.5-.1-1-.2s-1.5,0-2.4-.2c-1.5-.1-1.5-.1-1.6.2,0,.2,0,.4,0,.5s0,.3,0,.4c-.2.7-.5,2.1-.5,2.3,0,.3.8.3,2.4,0h0ZM58.8,108.7c.5,0,.5,0,.8-1.4.2-.8.4-1.5.4-1.7,0-.5-.5-.6-3-.9-.6,0-1.1-.1-1.1-.2s-.2,0-.3.2c-.2.2-.2.7-.3,1.7,0,1.4,0,1.4.4,1.5.2,0,.6.2.7.4s.6.3.9.3.7.2.7.3,0,.1.2,0c.1-.1.4-.2.7-.2h0ZM71.7,108.7c0,0-.2-.2-.4-.2-.2,0-.4,0-.4.2s.1.3.4.2c.2,0,.4-.1.4-.2ZM79.6,108.8c0,0,0-.2-.2-.2s-.2,0-.2.2,0,.2.2.2.2,0,.2-.2ZM86.4,107.6c-.3-.8-.7-1-1-.5-.3.3-.3.4,0,.7.1.2.3.3.4.2s.2,0,.2,0,.2.2.4.2c.3,0,.3,0,0-.7ZM72.5,107.9c0-.1,0-.3-.3-.3-.6-.2-1.2-.1-1.3.1,0,.2,0,.3.6.3.4,0,.7,0,.8,0s.1,0,.2-.2h0ZM80.6,107.9c0-.2,0-.2-.2-.2-.1,0-.3,0-.5-.1s-.3-.2-.4-.1-.2,0-.3,0c0-.1-.2,0-.3,0-.3.3-.2.4.7.4.4,0,.8,0,.8.1.1.1.2,0,.2-.2h0ZM53.8,107.2c-.2-.2-.5-.4-.6-.4s-.3,0-.4-.2c-.1-.2-.2-.2-.2,0s.2.3.4.4.4.3.5.5c0,.3.6.5.7.3,0,0-.1-.3-.4-.6h0ZM78.6,107.5c0-.2-.1-.3-.5-.3-.5,0-.6,0-.6.2s0,.3.2.3h.3c0,0,.2.1.3.2.1.1.3,0,.4-.4h0ZM70.7,107.6c0-.2,0-.2-.4-.2s-.5,0-.5.1c0,.4.7.5.8.1ZM77.1,107.3c-.2-.3-.2-.3-.6-.2-.3.1-.4.1-.6,0-.2-.2-.2-.2-.3,0,0,.2-.1.2-.2,0,0-.1-.4-.2-.8-.3-.5,0-.7,0-.7.3,0,.2,0,.3.4.4.3,0,.5,0,.5-.1,0-.1,0,0,0,0,0,.3,1.4.3,1.6,0,.1-.1.3,0,.5,0,.4.3.5.2.2-.2ZM50.5,107c0-.1-.2-.2-.2-.2s-.3,0-.4-.2c-.5-.4-.6-.3-.2.2.2.2.4.4.5.3s.2,0,.2.1c.2.3.3,0,.2-.3h0ZM72.3,106.7s-.1,0-.2,0-.2,0-.1.2c0,.2.4,0,.4,0ZM109.1,105.6c0-.6.1-1.2.1-1.4s0-.7,0-1.2c0-.9,0-1-.4-1.1-.5-.1-2.1-1.8-2.5-2.5-.1-.3-.3-.8-.4-1.2s-.1-.8-.2-.9c-.2-.4-.2-.8,0-.8s.1-.1,0-.3,0-.4,0-.4.1-.2,0-.3c0-.1.2-.9.6-1.4.6-.9.8-1.1,1.3-1.4.3-.2.6-.3.6-.4s.1-.2.3-.2.3,0,.2-.2,0-.2.1-.2c.2,0,.2-.7.2-4.3,0-4.6,0-4.5-1.1-4.6-1-.1-3.7-1.2-3.9-1.6,0,0-.1-.1-.2-.1-.5,0-2.3-2.3-2.1-2.6,0,0,0-.1,0-.1-.3,0-.6-.9-.6-2,0-1.2-.3-1.6-1.1-1.7-.3,0-.6-.1-.7-.2s-.8-.3-1.5-.5-1.4-.4-1.4-.5-.3-.2-.6-.2-.7-.2-1-.3-.5-.2-.6-.2-.3-.1-.5-.2-.5-.2-.6-.2-.4-.1-.7-.2-1-.3-1.5-.4-1-.3-1-.4-.2-.1-.4,0-.4.1-.3.3,0,.3,0,.4.1.3.3.3.2,0,.2.3c0,.1,0,.3,0,.3s.3.4.5.8.4.8.5.8.1,0,0,.2,0,.2.2.3.2.2.2.2c-.2,0,.8,2,1,2s.2,0,.2.2.2.6.5,1,.5,1,.6,1.2.2.5.3.5.2.3.3.7.3.7.3.7.2.2.3.6.4.8.6,1.1.4.6.4.7.1.3.3.5.3.4.2.5,0,.2,0,.2.1.1,0,.3,0,.3,0,.3.3.4.6,1,.6,1.2.8,1.4.3.5.3.6,0,.2,0,.2.3.3.5.7.4.7.4.7.1.1.1.2.1.3.2.4.3.5.3.8.2.6.2.7.4.5.7,1.1.7,1,.8,1.1.4.7.7,1.3.7,1.2.8,1.2.3.3.4.6.2.6.3.7.2.3.2.4,0,.2.1.2.2.2.2.4.2.6.4.8.4.5.5.6.6.9,1,1.8.8,1.6.9,1.6c.1.1.7,1.3,1.1,2.2.2.4.4.7.4.7s.1-.6.2-1.2h0ZM54.1,105.8c-.1-.2-.3-.4-.4-.3s-.1,0-.1-.1c0-.2-.6-.9-1.1-1.2-.2-.1-.3-.1-.4,0,0,.2.3.8.5.8s.4.4.8.8c.5.6.7.7.8.6,0-.1,0-.4-.1-.6h0ZM81,106.2c.1-.1.2-.5.2-.7,0-.4,0-.4-.2-.2-.1.2-.2.2-.2-.2,0,0,0-.2-.2-.1s-.2-.2-.4-.4c-.3-.6-.7-.6-1.4.1-.7.7-.9,1.4-.4,1.6.6.2,2.2.2,2.5,0h0ZM48.9,106c0-.1,0-.3-.2-.3s-.1.1,0,.3.1.3.2.3,0-.1,0-.3ZM75.4,105.9c0-.1,0-.1.2,0,.2,0,.5.2.8.2.7.1.8-.3.1-1.3-.6-.9-.7-1-1.1-1-.6,0-1.5,1.4-1.5,2.1s.1.2.4.2c.2,0,.4,0,.4,0s.2.1.4,0c.2,0,.4-.2.3-.3ZM50.7,106c0-.2-.3-.4-.4-.2,0,.2,0,.4.3.4s.1,0,.1-.2ZM48.5,105.8c0,0-.3-.4-.6-.8s-.6-.6-.6-.5-.1.2-.3.2c-.2,0-.2,0,0,0,.2,0,.5.2.7.5.4.5.6.6.6.4ZM72.8,105.3c.1,0-.2-.4-.8-.9s-1-.9-1.1-.9c-.2,0-1.2,1.1-1.2,1.3s0,.3-.2.3c-.1,0-.1.2,0,.5.1.3.2.3.4.2,0,0,.3-.1.4,0s.3,0,.3,0c0-.1.2-.1.3,0,.2.2.4.2.8.1.4,0,.6,0,.6.1,0,.1,0,0,.2-.1s.2-.4.3-.4h0ZM49.8,105c-.3-.3-.5-.4-.6-.2-.2.2,0,.5.4.7.6.2.7,0,.2-.5h0ZM85.2,105.3c0-.2,0-.3.2-.3s.3-.1.3-.3,0-.3-.2-.3c-.3,0-.6.6-.5.9.1.4.3.3.2,0h0ZM88,104.4c.2-.5-.2-.7-.7-.4-.2.2-.4.3-.4.4,0,.3.4.6.6.6.1,0,.2,0,.1.2,0,.2,0,.1,0-.1s.2-.6.3-.7h0ZM54.1,105.1c0,0,0-.1-.2,0-.2.1-.2.3,0,.3s.2,0,.2-.2ZM68.5,104.8c0-.5-.3-.8-.9-1.6l-.4-.5-.5.4c-.3.2-.5.5-.5.6s-.1.3-.2.4c-.2.2-.2.3,0,.4.1.2.1.2,0,.3-.1,0,0,.1.2.1.6,0,.6,0,.7.2,0,0,.5.1,1,.1.9,0,.9,0,.8-.4h0ZM78.1,104.7c.1-.1.2-.3.1-.5,0-.1,0-.2,0,0,.1,0,.2,0,.2-.1s.1-.3.2-.3c.2,0,.6-.8.5-1,0,0-.8-.1-1.7-.2-1.7,0-1.9,0-1.4.5.1.1.2.4.2.5,0,.3,1,1.3,1.3,1.3s.3-.1.4-.3ZM49.1,104.5c0-.1-.2-.4-.5-.6-.9-.8-2.3-2.1-2.8-2.7-.3-.4-.6-.5-.7-.4-.2.2,0,.9.2.9s.3.2.6.5.6.6.9.7.5.4.6.6.3.3.4.3.2,0,.2.1,0,.2.1.2.3.2.5.4c.4.4.6.4.6,0h0ZM54.1,104.5c0-.1-.1-.3-.2-.3-.2,0-.3.2-.1.4s.4.1.4-.1ZM64.5,104.2c0-.5-.6-1.5-.9-1.5s-1.3,1.2-1.3,1.6,0,.3.1.2.3,0,.6,0,.7.1,1,.2c.5,0,.5,0,.5-.5h0ZM47.2,104.4c0,0-.2-.2-.4-.3-.2,0-.4-.2-.3-.3,0-.1,0-.2-.2-.2s-.4-.2-.5-.4-.4-.4-.6-.4c-.3,0-.3.1-.3.5,0,.4.1.5.4.5s.5.1.6.2c.6.5,1.2.8,1.2.5ZM50.9,104.4c0-.3-1-1.4-1.1-1.3,0,0-.1,0-.1,0,0-.2-1.3-1.6-1.6-1.6s-.5-.3-.8-.8-.8-.8-.9-.8-.3-.2-.5-.5c-.3-.6-.7-.7-.7-.1,0,.2.2.5.6.8.3.2.6.5.6.6s0,.2.1.2.4.3.7.6.7.6.8.6.3.2.4.4.2.4.3.4.4.2.7.4.6.4.7.3.2,0,.2.1c0,.3.3.6.5.6s.1,0,.1-.2h0ZM73.9,104.1c.4-.5,1.1-1.5,1.1-1.6s-.6-.3-1.1-.4c-1.4-.3-3.1-.1-2.3.2.1,0,.3.3.4.5s.2.4.2.5c.1.3,1,1.3,1.2,1.3,0,0,.3-.2.6-.5h0ZM61.2,104.1c0-.6-.3-1.5-.5-1.7-.2-.2-.3-.2-.6,0-.2.1-.4.3-.4.5s-.1.4-.3.6c-.4.4-.4.7.1.8.2,0,.5.1.6.1.5.1,1.2,0,1.2-.2h0ZM81.3,103.5c0-.5,0-.6-.2-.6s-.3,0-.3-.2-.2,0-.4,0c-.3.2-.3.3,0,.6.1.2.3.4.3.5,0,.2.3.4.5.3,0,0,0-.3.1-.7h0ZM69.5,103.8c0-.1,0-.3,0-.3.2,0,.8-.6.8-.8s0-.2.2-.2c.2,0,.7-.5.6-.6-.2-.2-2.7-.4-3.1-.3l-.5.2.4.5c.2.3.4.6.4.7s0,.2.1.2.2.2.2.4c0,.3.2.4.5.4s.4,0,.3-.3h0ZM89.6,103.8c.2-.8-.4-1.2-.8-.6-.2.3,0,.7.1.5,0,0,.2,0,.2.2.1.3.4.3.5,0ZM53.4,103.6s-.1,0-.2,0-.2,0-.2.2.1.1.2,0,.2-.1.2-.2ZM56.9,102.5c-.4-.8-1-1.4-1.2-1.2,0,0-.1.6-.2,1.1,0,1.2,0,1.4,1,1.2.4,0,.6,0,.6.1,0,.1,0,0,.1-.1,0-.2,0-.6-.3-1.2h0ZM66.2,102.6c0,0,0-.1,0-.2s0-.2.2-.2.2,0,.2-.2,0-.3,0-.4c0-.2-.1-.2-.8-.3-.5,0-1,0-1.3-.1-.5,0-.5,0-.4.8,0,.5.4,1.2.8,1.5.2.2.3,0,.7-.3.2-.3.5-.6.5-.6ZM86.3,103.5c.4-.1.7-.2.7-.3s.3-.2.6-.2.5-.2.5-.2.2-.3.6-.6c.7-.5,1.6-1.4,1.6-1.7s.1-.2.3-.3.3-.4.3-.6.1-.6.3-.9c.6-1,.9-3.1.6-4.7-.2-1.6-.2-1.7-.5-2-.1-.2-.3-.4-.3-.6s-.1-.3-.2-.3-.2,0-.1-.2c.2-.3-2-2.3-2.5-2.5-.3,0-.7-.3-1-.4-.7-.4-1.3-.5-1.6-.3-.3.3-.3,2.2,0,2.2s.2,0,.2.1.3.2.8.4.9.4,1.1.7.4.4.5.3c0,0,1,.8,1,1s.2.3.3.5c.4.5.5,1,.5,2.6,0,.9,0,1.4-.3,1.8-.1.3-.4.7-.5.9-.5,1-2.3,2.4-3.4,2.5-.9.1-.9.1-.8,1.4,0,1,.3,1.5.5,1.5,0,0,.4,0,.8-.2h0ZM52.6,103c-.2-.2-.4,0-.3.2,0,.1.2.1.3,0,.1,0,.1-.2,0-.3h0ZM62.8,102.2c.4-.2.6-1,.3-1.2,0,0-.7-.1-1.2-.2-1,0-1.1,0-1,.3.1.5.5,1.5.7,1.8.1.2.2.2.5-.2.2-.2.5-.5.7-.6h0ZM58.9,102.6c.3-.2.4-.5.4-.5s0-.2.2-.3.3-.4.4-.6c0-.4,0-.4-.4-.5-.5,0-2.3,0-2.4.2-.2.2.5,1.6.9,1.9.5.4.5.4,1-.1h0ZM50.8,102.6c-.2-.1-.2-.3-.2-.3.2,0-1.1-1.4-1.3-1.4s-.2,0-.2-.2c0-.2-.4-.7-.6-.7s-.9-.7-1.6-1.5c-.3-.3-.7-.6-.9-.7s-.4-.3-.5-.5c-.2-.6-.4,0-.2.5,0,.3.3.6.6.7s.4.3.3.4,0,.2.2.2.4.2.5.3.3.3.4.3.2,0,.2.1c0,.2.7,1,1.2,1.3.2.2.4.4.4.5s.2.3.5.3c.3,0,.5.2.6.4s.2.3.4.3c.3,0,.3,0,0-.2h0ZM91.3,102.3c0-.2,0-.3,0-.4-.1,0-.2-.1-.1-.2s0-.2-.2-.2c-.2,0-.3,0-.3.2,0,.2-.2.3-.3.3-.2,0,.5.5.7.5,0,0,.2-.1.2-.3ZM80.9,101.8c.3,0,.5-1.2.2-1.6-.2-.3-.4-.4-4.5-.7-1.8-.1-2-.2-2.1-.3,0,0-.2,0-.3,0-.1.1-.2.1-.2,0s-.3-.2-.6-.2c-.6,0-.9,0-2.2-.3-1.5-.2-5.6-.5-6.8-.5-.7,0-.7,0-.7-.5,0-.3,0-.6.2-.6.2-.1,1.2-2.2,1.2-2.5s.1-.3.3-.4.2-.3.2-.5,0-.4.1-.5.2-.4.2-.6,0-.4.2-.4.3-.2.3-.5.2-.7.3-1c.6-1.4.7-2.2.2-2-.1,0-.2,0-.2-.2,0-.3.3-.5.4-.3.1.2.6,0,.5-.3,0-.2-.3-.2-.8-.2s-.8,0-.7.5c0,0,0,.2-.2.3s-.2.3-.2.4-.2.7-.5,1.2-.5,1.1-.5,1.1-.3.7-.7,1.4-.8,1.4-.9,1.7-.4.9-.7,1.4-.7,1.3-.8,1.6-.4.8-.5,1.1c-.2.5-.2.6,0,.8.4.3,1.3.4,3.1.5.8,0,1.8.1,2.2.2s1.5.2,2.2.3c.7,0,1.6.1,2,.2s1,.1,1.4.2.9.2,1,.2c.2.2,1.7.3,2,.1,0,0,.2,0,.3,0,.1.2,1.1.3,3.2.4.9,0,1.6.1,1.7.2s.2,0,.3,0,.4-.1.5-.1h0ZM76.1,101c0-.2.1-.3.3-.3s.2,0,.1.1-.2.2-.3.3c0,0-.1,0-.1-.1ZM77.9,100.9c0-.3,0-.4.4-.3.5,0,.5.5,0,.6-.3,0-.4,0-.4-.3ZM80.1,100.8c0-.2,0-.3,0-.2s0,.2,0,.3c0,.1,0,0,0-.1ZM68.6,99.8c0,0,0-.2.2-.2s.2,0,.2.2,0,.2-.2.2-.2,0-.2-.2ZM65.1,99.7c.3-.2.5-.2.5,0s-.2.2-.4.2c-.3,0-.3,0-.1-.2ZM63.4,99.4c-.1,0,0-.2.1-.4.3-.3.5-.2.4.3-.1.3-.2.3-.5.1h0ZM62.1,98.9c0-.1,0-.3.2-.3s.2,0,.2.2,0,.3-.2.3-.2-.1-.2-.2ZM62.7,97.7c0-.4.2-.5.4-.3.3.3.3.5-.1.5s-.3-.1-.3-.2ZM63.2,96.4c0-.2,0-.4,0-.6.1-.3.1-.3.3,0,.1.3.1.4,0,.6-.1.1-.2.1-.3,0ZM64.2,94.6c-.3-.1,0-.9.3-.9s.5.4.2.8c-.1.1-.3.3-.3.2,0,0-.2,0-.2,0ZM64.9,92.3c0-.5.2-.7.4-.4.2.1.2.3,0,.5-.2.4-.5.4-.5,0ZM65.8,90.3c0,0,0-.2.2-.2.2,0,.3,0,.3.1,0,.2-.4.3-.6,0h0ZM44,101.1c0-.2,0-.3,0-.4s-.9-.1-2,0c-1.5,0-2.1,0-2.2.2,0,.1-.1.1-.1,0,0-.2-2.9-.6-3.2-.5-.3.1-.4.7,0,.8.1,0,.3,0,.4,0,.1-.1.3-.1.5,0,.2.1.4.2.5.1s.3,0,.5,0,1.5.1,3,.1c2.5,0,2.7,0,2.7-.3h0ZM51,100.9c-.2-.4-1.3-1.2-1.4-1-.1.1.2.6.4.6s.4.2.6.5c.5.6.7.5.4,0ZM92.5,100.7c0-.2,0-.4-.1-.5-.2-.1-.2-.3,0-.6,0-.2.3-.4.4-.3s.3,0,.4,0c.2-.1.2-.2,0-.7-.2-.4-.2-.6-.1-.8,0-.2.2-.3.2-.2.1.1.6-.2.5-.4,0-.1-.1-.3-.2-.4s-.1-.3-.2-.3c-.3,0-.2-.4.2-.9.4-.5.4-.8-.2-1-.3-.1-.5-.2-.6-.2s0,.3,0,.7c0,.8-.1,2.2-.4,2.8,0,.2-.2.7-.2.9s-.1.5-.2.6-.2.3-.3.5c-.2.3-.2.5,0,.8.3.5.9.5,1,0h0ZM54.2,100.7c0-.2-.9-1.1-1-1.1s-.3-.2-.4-.4q-.3-.4-.3,0c0,.2,0,.5.2.6s.2.1.2,0,.2.1.5.4c.5.5.8.7.8.4ZM109.2,100.7c0,0-.1-.2-.2-.2s-.3,0-.3.2,0,.2.2.2.3,0,.3-.2ZM108.5,99.5c0-.2-.1-.3-.5-.3-.5,0-.6,0-.3-.4.3-.3,0-.8-.3-.7-.2,0-.2,0-.2-.3,0-.2.1-.4.2-.3s.2,0,.3-.2c0-.1,0-.2-.1-.2-.3,0-.5-.5-.2-.5,0,0,.2-.4.2-.7,0-.5,0-.7.4-.8.2,0,.3-.2.2-.4-.2-.4-.2-.6,0-.6s.2-.1.1-.4c0-.3-.1-.3-.2,0,0,.2-.3.3-.5.4-.4,0-.5.3-.8,1.3-.4,1.4-.5,2.8,0,3.3.1.2.3.4.3.5s.1.3.3.5c.4.4,1.1.3,1.1-.1h0ZM42.7,99.7c.6,0,1.1,0,1.2-.2.2-.1.3-1.2.4-4.3,0-2.4,0-2.5-.2-2.4-.4.1-4.9.2-4.9.1s-.4-.1-.8-.1c-1,0-1.2.2-1.4,1.8-.2,1.3-.5,4.2-.5,4.8,0,.4.9.4,6.2.3h0ZM43,98.1c0-1-.6-1.6-.6-.6s0,.5-.6.2c-.3-.2-.4-.2-.5,0,0,0-.2.2-.3.2-.2,0-.2-.8,0-1,.2-.3.9-1.7.9-2s.1-.3.3-.4c.2-.2.3-.2.5.1.1.2.2.4.2.5s0,.6,0,1,.2,1,.2,1.3,0,.5,0,.6c0,.3,0,.6-.2.6s-.2-.2-.2-.3h0ZM39.8,97.3c-.2-.8-.5-.9-.6-.4,0,.2-.1.5-.3.6-.2.2-.3.1-.4-.2-.1-.3-.2-.3-.4-.2-.2.2-.6,0-.6-.2s.1-.2.2-.2.2-.2.2-.3,0-.3.1-.3.2-.3.3-.7.3-.8.4-.9.2-.3.2-.5c0-.5.6-.9.6-.5,0,.1,0,.7.1,1.2.2,2.3.3,3.1.2,3.1s-.2-.3-.3-.7ZM49.3,99.7c.2,0,.1-.2-.2-.6-.3-.3-.5-.6-.5-.7s-.1-.1-.3,0c-.2,0-.2,0-.2-.2,0-.2,0-.3,0-.3-.3,0-1.7-1.3-1.8-1.6,0-.2-.2-.3-.3-.2-.2,0-.3,0-.4-.3-.1-.3-.1-.3-.2.2,0,.4,0,.6.2.6s.6.3,1,.8.8.8.9.8.2.2.3.4.1.4.2.3.3.2.6.5c.4.6.4.5.7.4h0ZM51,99.5c0-.2-.3-.5-.6-.7s-.6-.5-.6-.7,0-.3-.2-.3-.4-.2-.6-.5-.5-.5-.6-.5-.3-.2-.4-.5-.3-.5-.4-.4c-.2.2-1.1-.9-1.1-1.3,0-.3.1-.3.7.3.4.4,1,1,1.4,1.4s1,.9,1.3,1.2c.3.3.5.4.5.3,0-.1.1,0,.2.3.2.4.2.5.2.1,0-.3-.7-1.2-1-1.2s-.1,0-.1-.2c0-.2-.7-.8-.9-.8-.1,0-.2,0-.2-.2,0-.2-2-2.4-2.2-2.4s-.2-.1-.4-.3c-.2-.2-.4-.2-.6-.2-.3.1-.3.1,0,.3.2.1.3.3.3.4s.1.1.3,0,.3,0,.3,0c0,.2-.6.4-.8.3,0,0-.2,0-.2.2,0,.3.7,1.2.9,1.2s.2.1.2.2.1.3.3.4c.2,0,.3.2.2.4,0,.2,0,.3.1.2.1,0,.5.1.8.4s.6.6.8.7.3.2.4.2.2.1.2.2.1.3.3.3.5.3.7.6c.4.6.6.6.6.2h0ZM54.6,99.5c-.1,0-.2-.2-.2-.2,0-.2-.3-.6-.9-.9-.3-.2-.5-.4-.5-.5s-.1-.2-.3-.2c-.3,0-.5.5-.1.5s.2,0,.2.2c0,.2,1.8,1.6,2,1.4,0,0,0-.1-.1-.2h0ZM85.6,99c0-.5.1-.5.5-.2.2.2.4.3.4.4s.1.2.3.2c.3,0,.3-.1.3-.6s0-.6.4-.8c.2,0,.5-.3.5-.5s.2-.3.4-.3c.3,0,.5-.6.3-.8-.1-.1,0-.2.2-.4.3-.2.3-.8,0-.8s-.1-.3-.1-.7c0-.5,0-.7-.4-.8-.2,0-.4-.3-.4-.6,0-.5-.1-.6-.6-.6-.3,0-.4,0-.4-.3,0-.3-.3-.5-.7-.3-.3.1-.4,0-.4,0,0-.1-.2-.2-.4-.2-.3,0-.3.1-.3.9s.2,1.2,1.1,1.9c.5.4.7,1.5.4,2.3-.1.3-.2.6-.2.6,0,.2-.9.6-1.1.5-.2-.1-.3.3-.3,1.2,0,.6,0,.7.2.6.1,0,.3-.3.3-.6h0ZM59,98.9c0-.6-.2-1-.7-1-.3,0-.7,1-.4,1.1.4.2,1.1.1,1.1-.1ZM80.3,99c0,.1.2.2.5.2.4,0,.5,0,.5-.4,0-.5-.1-.5-2.3-.7-.9,0-1.6-.1-1.7-.2s-.5-.1-1-.2-1.1-.1-1.3-.2-1.1-.1-1.8-.2c-2.3-.2-3.8-.4-3.8-.7s0-.2-.2-.2c-.4,0-.2-.7.9-3.6,0-.2.1-.4.2-.5s0-.3.1-.4c.2-.6.6-2.5.7-3.1,0-.6,0-.6-.4-.7-1.2,0-1.9,0-2.1.2-.1.1-.2.2-.1.2,0,0-.5,1.6-.7,2,0,.1-.2.5-.3.8s-.2.6-.3.6-.1.2-.1.4-.2.7-.5,1.2-.5,1.1-.6,1.3c-.9,2-1,2.6-.5,2.7.2,0,.8,0,1.3,0,1.9.1,2.2.2,3.3.3.6,0,1.3.2,1.5.3s.9.2,1.6.3,1.4.2,1.5.2.4,0,.6,0,.5,0,.6,0c.4.2,1.2.2,1.4,0,0-.1.2-.1.2,0,.1.2,1.8.2,2.1,0,.1,0,.2,0,.3.1,0,.2.1.2.3,0,.2-.1.2-.1.2,0h0ZM54.8,98l-.2-.4-.2.3c-.2.3-.2.4,0,.7.3.3.3.3.4,0,0-.1,0-.4,0-.7h0ZM57,98.2c.7-.8,1.6-2.4,1.5-2.6,0,0,0-.2.2-.2s.2-.2.2-.3.2-.3.3-.3c.2,0,.3-.2.2-.4,0-.1,0-.3,0-.3s.2-.2.2-.5.3-.7.6-1,.5-.6.5-.8.2-.4.4-.5c.2-.1.5-.5.6-.9.1-.4.3-.7.4-.9s.2-.3.2-.5.1-.4.2-.5.2-.3.2-.4.2-.4.4-.8c.4-.6.4-.7.3-2,0-.8-.1-1.8-.2-2.2s-.1-1.1-.1-1.4,0-.8-.2-1.2-.2-1.1-.2-1.6-.1-1.5-.3-2.1-.3-1.5-.3-1.9,0-1-.2-1.4c-.2-.7-.4-2-.5-3.1-.4-2.5-.6-3.7-.8-3.9-.1-.2-.2-.4-.2-.5s-.3-.9-.6-1.6-.6-1.4-.6-1.5-.2-.4-.4-.7-.4-.7-.4-.8c0-.4-.5-.4-.7,0-.2.4-1.5,1-1.9,1s-1.1-.4-1.2-.5c0,0-.2-.3-.5-.5-.5-.3-.8-.3-3.1-.3-3.1,0-7.9.8-8,1.2,0,.1.2.3.5.5s.6.3.7.4c.2.2,1.2.7,1.7.8.3,0,.6.2.6.3s.3.2.5.2.4.1.5.3.2.3.4.3.3,0,.3.2,0,.1.2,0,.7.5,1.4,1.2,1.3,1.3,1.4,1.3.2.2.2.3,0,.3.2.3c.3,0,2.2,2,2.2,2.4s0,.2.2.2.2.1.2.3,0,.4.1.4c.2,0,1.4,2.5,2,4,.2.6.9,3.4,1.1,4.4,0,.6.3,1.5.5,2.2s.3,1.2.2,1.3.2.2.4.3.7.4.9.6.4.4.5.4.3.3.5.7c.5,1,.6,4,.2,5-.2.4-.4.9-.5,1.2s-.3.5-.5.6c-.3,0-.4.3-.3.6,0,.5-.9,2-1.1,1.7,0,0-.2,0-.3.2s-.3.3-.4.3-.2,0-.2.2-.1.2-.2.2c-.4,0-.7.8-.8,2.1-.1,1.6,0,1.6,1.1.5h0ZM54.2,97.8c-.1,0-.3-.2-.4-.3,0-.1-.1,0-.1.1,0,.2.1.3.4.3.2,0,.3,0,.1-.1h0ZM80.9,97.5c.3,0,.4,0,.3-.3,0-.2-.2-.3-.6-.3-.3,0-.5,0-.5,0s-.4,0-.8,0-1.2,0-1.6-.1-1.3-.2-1.8-.2c-1.6,0-2.9-.3-2.9-.4s0-.1.2-.1.1,0,0-.2c0-.1-.2,0-.3.1-.1.3-.3.3-.8.3-.4,0-.7,0-.8.1s.1.2.4.2c.3,0,.4,0,.3,0-.4.2-.2.4.3.4.3,0,.6,0,.6,0s.1,0,.2,0,.2,0,.5.2c.3.1.5.1.7,0,.2-.1.2-.1.2,0,0,.3,0,.3,2.7.3,1.3,0,2.4,0,2.5.2s.3,0,.5,0,.5,0,.7,0h0ZM54.8,97.2c0-.2-.3-.4-.6-.6s-.6-.4-.6-.6c0-.4-.7-.9-1-.9s-.1.1,0,.3.1.2.2.2.2.1.3.4c.1.3.4.6.9.8.4.2.6.3.5.4-.2,0-.2,0,0,.2.4.2.5.2.5-.1h0ZM53.4,97.1c0,0,0-.1-.2,0-.2.1-.2.3,0,.3s.2,0,.2-.2ZM60,96.2c0-.2-.1-.4-.2-.4-.2,0-.7.6-.7.9,0,.2,0,.2,0,.1.1-.3.4-.3.4,0s0,.2.2,0c.2-.2.2-.4.1-.7ZM52.8,96.7c0-.1,0-.2-.2-.2s-.1.2,0,.3c.1.2.2.2.2-.1ZM70.8,96.2c-.2,0,0-1.4.4-3.1.2-.7.3-1.2.2-1.2s0,0,0-.2.2-.5.2-.8,0-.6.1-.6c.2,0,.5-1.9.3-2-.2-.2-.5.5-.7,1.8-.1.8-.4,1.7-.6,2s-.3.7-.3.8-.2.8-.4,1.4c-.5,1.4-.5,1.6,0,1.7.5,0,.9.1.7,0h0ZM79.8,95.7c-.2-.2-.3-.4-.4-.4s0-.1,0-.3c0-.2,0-.2-.1-.2-.1,0-.3-.1-.4-.4-.1-.3-.3-.6-.5-.6s-.4-.3-.6-.6-.5-.5-.6-.5c-.3,0-1.4.5-1.8.9-.1.1-.4.3-.6.4s-.5.3-.7.5-.5.4-.6.5-.2.2-.1.3c0,.1.4,0,.9-.3.5-.3.9-.5.9-.6s.1-.1.3-.1.3-.2.5-.3.4-.3.6-.3.3,0,.4-.2c.1-.1.3,0,.8.4.3.3.6.7.6.7s.4.5.8.9c.9.8,1.3,1,.8.2h0ZM81.2,95.6c0-.2-.2-.6-.5-.9s-.5-.6-.5-.7,0-.1-.1-.1-.2-.2-.3-.3-.2-.3-.3-.3-.2-.1-.2-.2-.1-.4-.3-.6-.3-.6-.3-.9c0-.4.1-.5.5-.7.3-.1.5-.3.5-.4s0-.2.2-.1.3,0,.4-.2.5-.4.7-.5c.3-.1.4-.3.4-.5,0-.5-.2-.5-.7,0-.3.2-.5.4-.6.4s0,.1,0,.3c0,.2,0,.3-.3.3s-.4,0-.4.2-.1.2-.2.2-.3.1-.4.3-.3.4-.5.4-.3.2-.3.4,0,.3-.2.3-.2.2-.2.5,0,.5.1.4c.2-.1.8.6.7.8,0,.1,0,.2.1,0,.2-.1.9.6.9.9s0,.2.1.2c.1,0,1.1.9,1.5,1.3.2.2.2.2.2-.1ZM78.1,95.3c0-.2-.4-.2-.5,0,0,.1,0,.2.2.2.2,0,.3-.1.3-.2h0ZM75.9,95.2c.3-.3,1.3-.3,1.4,0,0,.1,0,0,0-.2s-.2-.5-.4-.6c-.3-.2-.6-.1-1.3.6-.2.2-.4.3-.5.4-.1,0,0,0,.1.1.2,0,.5-.1.6-.2ZM72.5,94.6c0,0,.2-.2.4-.2s.3,0,.3-.2.1-.1.2,0c.2,0,.2,0,.2-.2s.1-.3.3-.3.3,0,.3-.2c0-.1.2-.3.5-.5.7-.3.8-.7.2-.6-.2,0-.5.2-.5.3s-.3.2-.6.3-.5.2-.6.4-.1.2-.2.2-.3.2-.6.5-.7.6-.8.6-.2.2-.2.3c0,.3,0,.3.5,0,.3-.1.5-.3.6-.4h0ZM53.6,94.6c-.3-.2-.4,0-.1.3.2.2.2.2.3,0,0-.1,0-.3-.1-.3h0ZM57.3,94.2c0,0,0-.1.2-.1s.3-.2.5-.3.2-.3.2-.3,0-.1,0-.2c.2-.3,0-1.2-.6-1.9-.2-.3-.3-.6-.3-.6s0-.1-.2-.1-.3-.1-.3-.3,0-.3.1-.3c.2,0,1.3,1.5,1.3,1.7s.1.3.3.4c.3.3.3.3.4-.1,0-.2,0-.5.1-.7,0-.4-.8-1.6-1.5-2.4-.3-.3-.5-.7-.5-.7.2-.1,1.3.5,1.3.8s1.1,1.3,1.3,1.3.1-.3,0-.7c0-.8-.8-2.1-1.3-2.2-.2,0-.3-.1-.2-.2s.4,0,.8.2q.7.3.6-.1c-.2-.6-.7-1.4-1.2-1.9-.5-.5-2-1-2.2-.8,0,0-.1,0-.1,0s-.4-.2-.8-.2c-.8,0-.9,0-1.1.6-.1.4-.3.7-.3.8s-.1.4-.2.6c-.3.6-.5,3.3-.3,3.4,0,0,.2.3.2.4,0,.4.9,1,1.5,1,.6,0,1.1.3,1.1.6s.1.4.3.5c.4.3.4.9,0,1.2-.3.3-.6.9-.4,1.2,0,.2.2.2.6,0,.3-.2.5-.3.5-.4h0ZM58.1,86.5c-.3-.3,0-.3.6,0l.5.3h-.4c-.2,0-.5-.1-.6-.3ZM61.2,94.3c0-.2-.1-.4-.4-.4-.3,0-.3,0-.3.4s0,.4.4.4c.3,0,.4-.1.3-.4ZM81.3,93.6c0-.2-.2-.3-.4-.4s-.4-.2-.4-.4-.2-.3-.2-.3-.1-.2-.1-.5c0-.5.6-1.2,1-1.2s.2-.1.2-.3c0-.3-.4-.3-.6,0,0,.1-.4.3-.7.5-1,.4-1.1.6-.7,1.1.2.2.3.3.3.4s.3.4.6.8.6.8.6.9c0,.2,0,.2.3,0,.2-.2.2-.4.2-.6h0ZM51.4,94.1c0,0-.1-.3-.4-.6s-.6-.6-.8-.9c-.3-.4-.4-.5-.7-.3-.4.2-.3.5,0,.5s.3.2.5.4.4.4.5.4.2.1.2.3c0,.3.4.4.5.1h0ZM54.3,94.1c-.2,0-.3-.2-.3-.5s0-.4-.3-.4-.2,0,0-.2c.2-.2.1-.2-.1-.1-.2,0-.3.2-.3.3,0,.3.8,1.1,1.1,1.1.2,0,.2,0,0,0ZM92.9,93.8c0-.2,0-.4.2-.5.3-.3,0-.7-.3-.6-.2,0-.4,0-.5,0-.2,0-.2.1-.1.5.2.8.7,1.2.7.6ZM72.6,93.2c0-.2-.7.1-.8.3,0,.2,0,.2.4,0,.2-.1.4-.3.4-.3h0ZM73.2,92.8c.2-.3.2-.3,0-.3s-.3.1-.3.4,0,.3,0,.3.1-.2.3-.4ZM53.2,92.8c0-.1,0-.3,0-.3s-.2.1-.2.3,0,.3,0,.3.1-.1.2-.3ZM47.3,92.7c0,0-.1-.2-.2-.2s0,0,0,.2,0,.2.2.2.1,0,0-.2ZM81.5,91.8c0-.2-.1-.2-.3,0-.3.3-.3.5,0,.8.2.2.2.1.3-.1,0-.2,0-.5,0-.6ZM51.4,92.2c-.2-.3-.4-.2-.3,0,0,.1.2.2.2.2s.1-.2,0-.3ZM62.3,92.4c.1-.2,0-.7-.2-.7s-.1.2-.1.4c0,.4.2.6.4.3ZM76.1,92.2c.3-.6.2-1.2-.4-1.5-.3-.1-.5-.3-.5-.4s-.2-.4-.4-.7l-.4-.5h.4c.3,0,.4.2.5.5,0,.2.2.4.3.4s.3.2.3.4c0,.2.2.4.4.4s.4,0,.4.2c.1.1.3.1.7-.1.3-.2.5-.4.5-.4s0-.1.2-.1.4-.3.8-.6.6-.6.8-.6c.3,0,.3-.3,0-.5-.2,0-.3,0-.4.2,0,.2-.2.2-.3.2s-.2,0-.3.2-.3.3-.5.3-.3,0-.4.2c-.2.3-.7.2-1.1-.3-.2-.2-.4-.5-.4-.6s0-.1,0,0-.2,0-.3-.1c-.3-.3-1.3-.3-1.3,0s0,.2.2.2.2,0,.2.2-.1.1-.2,0-.2,0-.2.1,0,.1-.2,0-.1-.2,0-.2,0-.2-.3-.3c-.5-.3-.5-.3-.5,0s.2.4.4.5.5.4.6.6.2.3.4.3.2,0,.2.3.2.4.4.5c.4.2.5.4.4,1,0,.7.3.9.6.4h0ZM92.6,91.6c.2-.6.1-.7-.6-.7s-.6.3-.1,1.1c.3.5.4.5.7-.3h0ZM43.7,91.9c.3,0,.5-.3.5-.4,0-.2-.4-.3-2.2-.3-1.2,0-2.7,0-3.4,0-1.1,0-1.2,0-1.2.3,0,.2,0,.4.2.5.3.2,5.3.2,6.1,0h0ZM55.3,92c0,0,0-.2-.2-.2s-.2,0-.2.2,0,.2.2.2.2,0,.2-.2ZM74.6,91.8c0-.1,0-.4-.1-.6s-.2-.4-.2-.5,0,0-.2,0c-.2.2-.2,1-.1,1.5,0,.1.5-.2.6-.4h0ZM73,91.8c.3-.4.3-.8,0-1.2-.2-.2-.3-.3-.4-.2-.2.3-.4.9-.4,1.2s.5.6.9.2ZM48.5,91.2c0,0,.5-.2,1.1-.2,1,0,1.6-.3,1.6-.7s0-.2-.1-.1-.2,0-.3,0c0-.1-.2-.1-.3,0-.1,0-1.2.2-2.3.2-2,0-2.6.1-2.6.5s.2.2.4.3c.5.2,2.5.2,2.6,0h0ZM53,90.5c-.2-.9-.2-3.9,0-4.2,0-.1.1-.2,0-.2s0-.1,0-.2.1-.3,0-.4,0-.3,0-.4c.2-.3,0-.8-.2-.8s-.9,1.4-1,2.5c-.2,1.2-.1,2.7.1,2.9,0,.1.2.3.2.4,0,.3.5.9.7.9s.1-.2,0-.6h0ZM39.3,90.3c.1,0,.2,0,.2,0s.4.1.8,0,1.5,0,2.2-.1c1.6,0,2-.3,2.2-1.5.2-1,.6-4.6.5-4.7-.2-.2-4.1,0-4.3.2,0,0,0,.2.1.4s.2,1.2.3,2.2c0,1.7,0,1.9-.2,1.7-.1-.1-.2-.3-.2-.5,0-.4-.4-.5-.6-.2-.2.3-.5.2-.5-.3s0-.3-.2-.3-.2.1-.2.3-.1.3-.2.3-.3,0-.3.2,0,0,0-.4,0-.5,0-.4c.1.3.4.3.4,0s.1-.4.3-.7.2-.4.1-.4,0,0,0-.1c.3-.2,1-1.4,1-1.6s-2.1,0-2.4.3c-.1.1-.2.4-.3.7s-.1,1-.2,1.7c-.4,3.2-.4,3.3.5,3.3.4,0,.8,0,.9-.1h0ZM42.2,88c.2-1.2.6-2.6.8-2.9.2-.3.6,0,.6.4s.3,1.3.5,1.8c.2.4-.1.9-.5.6-.2-.2-.3-.2-.4,0,0,.1-.2.2-.4,0-.2,0-.3,0-.5.3-.3.7-.4.5-.3-.4h0ZM63.2,90.1c-.3-.5-.5-.5-.6-.2-.2.5-.1.6.4.6s.5,0,.2-.4h0ZM91.4,89.8c.2-.5.2-.5-.2-.5s-.7.4-.4.7c.3.4.4.3.6-.2h0ZM49.9,89.3c.6,0,.8,0,.8-.2,0-.3-.7-.4-1.6-.1-.3,0-.5,0-.5,0,0-.2-.9-.3-1-.2-.1.1-1.1.1-1.3,0,0,0-.3,0-.3.2-.2.5,0,.5,1.7.4.8,0,1.9,0,2.3,0h0ZM77.8,89c.1-.2-.3-.6-.6-.6-.4,0-.5.2-.4.5,0,.3.9.3,1,0ZM90.2,88.5c0-.5-.4-.7-.6-.5-.3.2-.3.4,0,.7.3.4.7.2.6-.3ZM64.3,88.3c.1-.5,0-.8-.4-.8s-.3.1-.3.6,0,.6.3.6.3-.2.4-.4ZM48.9,87.9c.8,0,1.5,0,1.5-.2,0,0,.2,0,.2,0,0,.2.1,0,.1-.2v-.5s-2.4,0-2.4,0c-2.4,0-2.7,0-2.7.6s.9.4,1.5.3c.2,0,.9,0,1.7,0h0ZM89,87.8c.2-.3-.4-.8-.8-.7-.5.1-.5.3,0,.6.5.3.6.4.8.1ZM76.2,87.5c.2,0,.4-.1.4,0s.5.1,1.1.2c.6,0,1.1,0,1-.1,0,0,.2,0,.7,0,.4,0,1,.1,1.4,0,.6,0,.6,0,.6-.7,0-.6,0-.7-.5-.7-.3,0-1,0-1.6-.1s-1.9-.1-2.9-.1-1.9,0-2.1-.1-.7,0-1.2,0-.9,0-1,0-1.9-.2-4-.2h-3.8s0,.5,0,.5c0,.5,0,.5.7.5s.8,0,.9.1.8.2,1.6.2c.8,0,1.4.1,1.5.1s.9.1,1.9.2c3.9.2,4.4.3,4.4.3.1.1.3.1.7,0h0ZM87.5,87c0,0,0-.2-.2-.3-.1,0-.1-.2,0-.3.2-.1.2-.2,0-.4-.1-.2-.2-.2-.3,0,0,.1-.3.2-.4.3-.4,0-.4.5-.1.7.4.2,1,.2,1,0h0ZM50.8,86.4c0-.1.2-.3.3-.3s.3-.2.3-.5c0-.3.2-.7.2-.9,0-.3,0-.5,0-.6-.1,0-1.3-.1-2.6-.1-2.7,0-2.7,0-3,1.2-.3,1.4-.3,1.4,2.3,1.4,1.9,0,2.3,0,2.4-.2h0ZM85.9,86.2c0-.1-.2-.2-.2-.2-.2.1-.2.4,0,.4s.2,0,.1-.3ZM78.9,85.5c.4,0,.7,0,.7.1s0,.2.2.2.2-.1.2-.3c0-.2,0-.2.1-.1,0,0,.4.2.8.2.6,0,.7,0,.7-.6,0-.3,0-.7.1-.7s0-.5,0-.9c0-.5-.2-.7-.5-.8-.6-.3-5.5-.6-8.4-.5-1,0-2.4,0-3.2-.1-.8,0-1.5,0-1.7,0-.2,0-.4,0-.4,0s-.6-.1-1.4-.1-1.6,0-1.8,0c-.4,0-.5.2-.3.8,0,.2.2.3.4.2.3-.1.5.2.5.5,0,.1-.1.2-.3.3-.4.1-.5,1,0,1,.2,0,.5,0,.7,0,.4,0,.9.1,4.1.3,1,0,2.1.2,2.6.2s1.4.1,2.1.1,1.4,0,1.5.1c.4.2,1.3,0,1.5-.1,0-.1.1,0,.1,0,0,.1.1.2.3.2s.4,0,.4.2.2.1.3,0,.5-.1.9-.2h0ZM80.6,84.3c-.2-.2-.2-.3,0-.5s.2-.1.3,0c.2.5,0,.7-.2.4h0ZM77.1,84.2c-.2-.2-.3-.6-.1-.6.3,0,.6.2.6.4,0,.3-.2.4-.5.2ZM79,84.3c-.1,0-.2-.2-.2-.4s0-.3.3-.2c.1,0,.3.1.3.1.1,0,0,.5,0,.6,0,0-.2,0-.3,0ZM73.6,83.7c-.2-.5-.1-.5.2-.5s.5.5.2.8c-.2.2-.3,0-.4-.3ZM75,83.9c0-.4.7-.4.7,0s-.2.3-.4.3c-.3,0-.4,0-.3-.3ZM69.8,83.5c-.2-.4-.1-.5.2-.5.4,0,.6.2.3.5-.3.3-.4.3-.5,0h0ZM71.8,83.6c-.2-.2-.1-.7,0-.8.3-.2.7.1.7.5s0,.4-.3.4-.3,0-.4-.1ZM66,83.2c0-.3,0-.4.3-.4.4,0,.4.7,0,.7-.2,0-.3,0-.3-.4ZM68,83.4c-.2-.1-.2-.2,0-.5.3-.5.5-.4.5.1s0,.6-.5.4h0ZM81.5,81.2c0-.2,0-.5,0-.5s-.6-.1-1.2-.1c-2.8-.1-5.6-.3-6-.3-.5,0-2.8-.2-6-.3-3.9-.1-4.5-.2-4.2-.7,0-.1.6-.2,2.1,0,1.1,0,2.4.1,3,.1s1,0,1.1.2c0,.1.3.1.6,0,.3-.1.5-.1.6,0s.5.1,1,.1,1,0,1.1.1.2,0,.2,0,.4-.1.7-.1,1.7,0,2.9.1,2.3.1,2.3.1.3,0,.8,0c.7,0,.8,0,.9-.5.2-.6,0-5.4-.2-7.4,0-.7-.2-1.5-.2-1.9,0-.6,0-.6-.6-.6-.3,0-.6,0-.7.1s-.6.4-1.1.8-1.1.7-1.2.7-.8.5-1.6.9c-.9.4-1.6.9-1.6.9s-.8.5-1.7,1-1.8.9-1.9,1c-1.5.9-2.3,1.4-2.5,1.4,0,0-.3.1-.5.3s-.4.3-.6.3-.3,0-.3.1-.4.3-.8.5c-.9.5-1.3.8-1.6,1-.1.1-.3.2-.3.1-.2-.2-.4.4-.3,1.1.1.8.3.9,1.4,1.1.6,0,.7,0,.6-.2,0-.2,0-.2.2,0,.2.2.4.3.6.2.2,0,.5,0,.7,0,.2,0,.4,0,.5,0,.1-.1.2-.1.3,0,0,0,.4.2.7.2.7,0,5.6.2,7,.3.6,0,1.1,0,1.1-.1s.2,0,.2,0c.1.2.1.2.1,0,0-.2,0-.2.2,0,.1,0,.6.2,1,.2s.8,0,.8,0,.5,0,1.2,0c1,0,1.1,0,1.2-.4h0ZM109.3,74.3c0-10.4,0-10.9-.4-11.1-.5-.3-1.4,0-1.2.4,0,.1,0,.3,0,.4,0,.2-.2,0-.6-.3-.2-.3-.5-.5-.6-.5s-.1,0,0,.1,0,.2-.3.3c-.4.2-.7.3-.5.1.2-.2-.2-.6-.5-.5-.3.1-.1.6.4,1.2.2.2.4.5.4.7s.1.3.3.3.3.2.3.3c0,.4-.7,0-1-.5-.7-1.2-2-2.3-1.5-1.2.1.2.3.5.4.6s.2.2.2.3.3.5.7.9c.6.7,1.2,1.6,1,1.6s-1.1-.9-1.7-1.8c-.3-.4-.6-.8-.8-1s-.3-.4-.3-.5-.1-.2-.2-.2-.2.1-.2.3c0,.4.7,1.7,1.3,2.3.2.3.6.7.7,1s.4.5.5.5c.3,0,.2.4-.2.5-.3,0-1.2-.8-1.3-1.3,0-.2-.2-.4-.3-.4s-.3,0-.3-.2c0-.2,0-.2,0,0,0,.1,0,.3.2.3s.2.2.2.2,0,.2.2.3.2.3.2.4.2.4.4.6c.7.7.9,1.1.9,1.3s0,.2.2.2.4.3.5.6c.3.5.3.6,0,.5-.2,0-.4-.2-.5-.4-.2-.3-1.1-.8-1.1-.5s.2.4.4.6c.3.4.6.7,1.3,1.3.3.3.3.8.1.8s-.2-.1-.2-.3-.2-.3-.4-.3-.3-.1-.3-.3-.1-.3-.3-.3-.3,0-.2-.2,0-.2,0-.2c-.4,0-.1.4.8,1.5.5.6,1.1,1.2,1.1,1.2s0,.2,0,.2-.2,0-.4-.1-.3-.3-.5-.3-.3,0-.4-.2c-.1-.2-.4,0-.4.2s.2.4.5.6c.6.6.6.7,0,.7-.3,0-.5-.1-.5-.2s0-.2-.2-.3c-.4-.2,0,.5.5,1,.3.3.5.6.4.7-.1.3-.5.3-.5,0s-.2-.3-.4-.4-.4-.2-.4-.2c0-.2-1.1-1.4-1.2-1.3-.1.1.4,1.1,1,1.6.9.9,1.5,1.6,1.5,1.7,0,.2.8.5,1.1.6.1,0,0,0-.2.1-.5.2-.6.8-.2.9.2,0,.3,0,.3,0,0-.3.3-.1.4.2,0,.4-.2.8-.3.5,0,0-.3-.2-.5-.2s-.6-.1-.7-.2c-.1-.1-.4-.2-.5-.1-.2,0-.2.1,0,.2.1,0,.3.2.4.3s.3.2.4.2.3,0,.3.2.3.2.6.3.7.2.7.3.3.1.5.1.4,0,.4.2.1.2.3.2c.6.1.6-.6.6-7.2h0ZM107,79c0,0,0-.2.2-.2s.2,0,.2.2,0,.2-.2.2-.2,0-.2-.2ZM105.9,76.9c0,0,0-.2.2-.2s.2,0,.2.2,0,.2-.2.2-.2,0-.2-.2ZM105.8,69c0,0-.1-.2-.1-.3s0,0,.2,0c.1.1.2.2.1.3s-.1,0-.2,0ZM106.2,68.9c0-.2,0-.3,0-.2s0,.2,0,.3c0,.1,0,0,0-.1ZM106.7,64.6c0-.2,0-.4,0-.4s0,0,0,0,.2.2.3.4c0,.3,0,.4-.1.4s-.2-.1-.2-.3ZM106.1,63.9c0-.2,0-.3,0,0,.1.1.2.3.1.3s-.1,0-.2-.2ZM106,78.8c0-.2-.1-.3-.2-.3s-.2.1-.1.3c0,.2.1.3.2.3s.1-.2.1-.3ZM64,77.8c0,0,.2-.1.3,0s.3,0,.3-.2c0-.2.8-.7,1.1-.6,0,0,0,0,.1-.2s0-.4.1-.7c0-.4,0-.6-.2-.9-.3-.4-.3-.4-.8-.1-.3.1-.7.5-1.1.7-.6.5-.7,1-.5,1.9,0,.4.4.5.6.2h0ZM103.2,76.3c0,0-.1-.2-.2-.2s0,0,0,.2,0,.2.2.2.1,0,0-.2ZM70.7,74.1c1.5-1.3,1.5-1.4,1.5-2.5,0-.6,0-1,0-1.1,0,0-1.5.8-1.8,1-.1.1-.3.3-.4.3-.1,0-.2.5-.3,1.3q0,1.2.4,1.2c.2,0,.6-.1.7-.3h0ZM102.6,73.6c0,0,0,0,0,.2,0,.2,0,.2,0,.1,0-.1,0-.3,0-.3ZM105.1,73.6c0-.2-1.2-1.6-1.4-1.6s-.2,0-.2-.2c0-.1,0-.1,0,0,0,.1.1.4.3.5s.3.3.3.4c0,.3.7,1,.9,1s.2,0,.2-.1ZM67.1,72.7c.2,0,.3,0,.4-.2s.4-.3.7-.5c.3-.2.5-.4.6-.7,0-.2,0-.7.1-1s0-.6,0-.6-.1-.2,0-.3c.2-.3-.2-.2-.5.2-.2.2-.4.3-.5.3s-.4.2-.7.3c-.5.3-.5.4-.5,1.1,0,.9.2,1.8.3,1.5,0-.1.2-.2.3-.2h0ZM100.7,72.5c0,0,0-.3.2-.4s.2-.5.2-.8,0-.5.2-.5.1-.1,0-.3,0-.4,0-.5.2-.5.3-.9.3-.7.3-.8c.2-.1,0-.9-.2-.7,0,0-.1.3-.1.5s-.1.6-.3.9-.3.7-.3.8,0,.5-.2.8-.2.7-.2.8,0,.4-.2.6c-.3.7-.3,1,0,.7.1-.1.2-.3.2-.3h0ZM99.7,72.3c.4-.7.7-1.6.6-1.7,0,0,0-.4.3-.7s.3-.9.3-1.2.1-.6.3-.7c.2,0,.2-.2,0-.2s-.2-.2-.2-.3,0-.3-.2-.2c-.1,0-.2.1-.2.2s0,.3-.2.6-.2.6-.2.8,0,.3-.1.3c-.1,0-.8,2.2-.9,3.1,0,.8,0,.8.4,0ZM98.3,72.6c0,0,0-.3.2-.4s.3-.6.4-1,.2-.9.3-1.1.2-.5.2-.6,0-.4.2-.6.2-.5.1-.6,0-.3,0-.3c.2-.1.2-.9,0-.9s-.2.1-.2.2,0,.3-.1.3c-.1,0-1,2.2-1,2.4,0,.1-.1.4-.2.7s-.3.9-.4,1.3c-.1.7-.1.8.2.8s.3,0,.2-.1h0ZM32.4,71.9c.6-.2,1.1-.3,1.2-.3.2,0,.4-.1,1.5-.4.6-.2,1-.3,1-.3s.1,0,.2,0,.4-.1.6-.2.9-.2,1.4-.3,1.4-.3,1.8-.3,1.1-.2,1.5-.3c.4,0,1.4-.2,2.2-.3s1.6-.2,1.7-.3c.1-.1.2-.1.2,0s0,.2.1.1c.1,0,2.3-.2,3.6-.3.2,0,.1-.5-.2-.8-.2-.2-.3-.4-.4-.5,0-.2-1.4-1.3-1.5-1.3s-.2-.1-.4-.2c-.3-.3-4-2.3-4.3-2.3s-1.6-.7-1.7-.8c0,0-.3-.2-.6-.3-.5,0-.6-.2-.6-.6s.3-.8,1.3-.9c.4,0,.8-.1,1-.2s.6,0,1,0,1.2-.1,1.9-.3,1.3-.3,1.5-.3.4-.1.4-.2c0-.1.1,0,.1,0,0,.2,0,.2.2,0,.1-.2.2-.2.3,0,0,.1.1.2.2.1.2-.1,1.4-.2,2.8-.3,1.6,0,2.5-.3,2.9-.7.2-.2.5-.5.8-.6.6-.3.9-.9.7-1.6-.1-.5-.2-.5-.9-.5-1,0-1.6-.6-1.8-1.4,0-.3,0-.7,0-.8s0-.3,0-.5c0-.4.8-.9,1.3-.9s.2,0,.2-.2.2,0,.5.4c.3.4.5.5.7.4.1,0,.2-.2.1-.4s0-.3,0-.3c.2-.1.1-2.3,0-2.3-.1,0-.4,1.3-.5,2.3,0,.5-.5-.8-.4-1.4,0-.5,0-.6-.4-.8-.6-.2-1.1-.8-1.4-1.3-.4-1,0-2.2.8-2.2s.4-.2.6-.7c.1-.4.3-.9.3-1.1s0-.4.2-.4c.2,0,.2,0-.2-3-.2-1.3-.2-1.4,0-1.7.2-.1.6-.2.9-.2.6,0,.6,0,.5-.5-.2-1.2-1.2-4.3-1.4-4.3s-.1-.1-.1-.3,0-.4-.2-.4-.2-.3-.2-.4,0-.3-.1-.3c-.2,0-.9-1.6-.9-1.8,0-.1-.1-.3-.3-.4-.3-.2-.8-.2-3.8-.1-1.5,0-1.8,0-1.8-.2,0-.2,0-.2-.1,0,0,.1-1.1.2-3.8.2-2,0-3.7,0-3.7-.1,0-.2-8.5,0-8.6.1,0,0-.1,2-.1,4.4,0,2.3,0,5,0,5.9s0,4.9,0,8.7,0,7.2,0,7.3,0,1.6,0,3.2,0,4.6,0,6.7c0,3.8.1,4.8.6,4.6.1,0,.7-.2,1.3-.4h0ZM64,71.3c1.4-.8,1.9-1.5,1.3-2-.3-.3-.7-.1-1.8.6-1.1.7-1,.6-1.1,1.3,0,.9.3.9,1.6.1h0ZM96,71.2c-.2-.2-.3.1-.2.4.1.3.1.3.2,0,0-.2,0-.4,0-.4h0ZM97.5,71.1c0-.2.1-.5.3-.7s.3-.7.4-1,.2-.6.3-.6.1,0,0-.2,0-.3,0-.4.2-.4.2-.5.1-.4.2-.5,0-.3,0-.3c-.2-.2-.5.4-.9,1.5-.2.6-.5,1.2-.6,1.4s-.3.6-.3,1-.2.7-.3.7,0,0,0,.2c.3.2.6.1.6-.3ZM103.2,71.3c0,0-.1-.2-.2-.2s0,0,0,.2,0,.2.2.2.1,0,0-.2ZM104.4,71c0,0,0,0,0,.2,0,.2,0,.2,0,.1,0-.1,0-.3,0-.3ZM93,70.4c.2-.2.7-1.7.7-2.2s.1-.5.2-.6.2-.3.1-.4,0-.2,0-.2.1,0,0-.2,0-.4.1-.6.2-.5.2-.7c-.1-.3-.4-.4-.4,0s-.2.6-.4,1.1-.4,1-.4,1-.2.4-.3.9-.4.9-.4,1,0,.4-.2.6c-.1.5,0,1.3.2.8,0-.1.2-.3.3-.4h0ZM94.5,69.9c0,0,0-.4.1-.6s.3-.7.4-1.1c.2-.7.4-1.3.7-1.8.2-.3.2-.9,0-1-.2-.2-.5.3-.6.8,0,.2-.2.4-.2.4s-.2.3-.2.7-.3,1-.4,1.4-.3,1.1-.4,1.5v.8c0,0,.3-.5.3-.5.2-.3.4-.6.4-.7h0ZM95.3,70.7c0-.6,0-.6.2-.8,0-.1,0-.2,0-.2s0-.2.2-.4c.3-.4.3-1.1,0-1.2,0,0-.2.1-.3.4s-.2.7-.2.9-.1.5,0,.5,0,.2,0,.3c-.2.1-.2.9,0,.9s.2-.1.2-.3h0ZM96.3,70.6c.1-.4,0-.6-.2-.4-.2.1-.2.8,0,.8s.2-.2.2-.4ZM76.7,70.5c.3-.1.7-.5,1-.8.4-.4.5-.7.5-1.3,0-1.4,0-1.4-.5-1.3-.3,0-.6.2-.7.3s-.3.3-.6.3-.4.2-.4.3,0,.2-.2.2c-.2,0-.2.2-.2,1,0,1,.2,1.6.4,1.5,0,0,.3-.2.6-.3h0ZM104,70.5c-.1,0-.3,0-.3,0s0,0,.2,0c.2,0,.2,0,0-.1ZM91.3,69.2c-.2-.2-.3,0-.2.3.1.2.1.2.2,0,0-.1,0-.3,0-.3h0ZM96.9,69.3c0-.2,0-.5.2-.8s.2-.6.2-.7,0-.2.1-.2.1,0,0-.2,0-.2,0-.2c.2,0,.4-1,.2-1s-.7,1-.7,1.5,0,.4-.1.4c-.2,0-.5,1.2-.4,1.4.1.3.4.1.4-.2ZM62.9,69.2c0,0,.4-.3.9-.5s.9-.5.9-.5.3-.2.6-.2.6-.2.6-.3.1-.2.3-.3.8-.4,1.3-.8,1.2-.8,1.5-.9.6-.4.8-.6.3-.4.4-.3.2,0,.4-.3.4-.3.5-.3.4-.2.7-.4.6-.4.7-.4c.2,0,.8-.7.8-1s-.4-.6-.8-1-.8-.9-.8-1.1,0-.3-.2-.3-.1-.1,0-.3,0-.3,0-.3c-.2,0-1.4,1.3-1.4,1.5s-.2.4-.5.6-.6.5-.7.6-.2.2-.3.2c0,0-.4.3-1.3,1.1-.3.3-.6.5-.8.5s-.3.1-.3.3-.2.4-.5.5c-.9.5-1.1.7-.9,1.2.3.5.4,1.1.2,1.2,0,0-.1.2,0,.3.1.2-.6.5-1.2.6-.2,0-.4,0-.4-.1,0-.2-.6-.8-.8-.8s-.2.2-.3.5c-.2.5-.2,1.7,0,1.7s0,0,0,.2c0,0,0,.2.3.2s.4,0,.4-.1h0ZM91.2,68.6c0-.2-.1-.3-.1-.3s0,.2,0,.3,0,.3.1.3.1-.2,0-.3ZM74.1,68.4c0,0,.2,0,.2-.1s.1-.3.3-.3c.3,0,.3-.2.3-1,0-1.3-.3-1.6-1.1-1-.2.2-.5.3-.6.3s-.2.4-.2,1.2c0,1.1,0,1.2.4,1.2.2,0,.4,0,.5-.2s.2-.2.3-.1ZM92.4,68.2c0-.1,0,0,0,.2s0,.3,0,.2,0-.3,0-.4ZM96.4,67.5c.2-.4.2-.4,0-.4-.1,0-.3.2-.3.4,0,.5.2.5.4,0h0ZM70,67.7c0,0,.2-.2.4-.3.9-.4,1.5-1.1,1.5-1.8,0-1.1-.3-1.1-1.4-.3-.7.5-.9.8-1,1.2,0,.3,0,.6,0,.7,0,.2.2.8.3.8s.1,0,.1-.1h0ZM93,67c-.1-.1-.4.1-.4.3s0,0,.2,0c.1-.1.2-.2.2-.3ZM64.3,66.6c0-.2,0-.4-.1-.6-.2-.2-.3-.3-.5-.1-.4.2-.4.6,0,.8.4.3.6.2.7-.1ZM92.1,66.6c0,0,0-.1-.2,0s-.2.2-.2.3,0,.1.2,0,.2-.2.2-.3h0ZM96.6,66.6c0-.4,0-.6-.1-.5-.2.2-.3.8-.1.8s.2-.2.2-.4ZM93.3,66.2c.1-.6-.2-.6-.4,0,0,.2,0,.4,0,.5.2.1.2.2.3-.4h0ZM102.2,66.1c0-.2,0-.9-.1-1.6-.1-1.1-.2-1.4-.5-1.5-.3-.2-.6-.8-.8-1.8,0-.5,0-.7.3-1.1.2-.3.4-.6.4-.8-.1-3.1,0-5.1.4-6.6,0-.4-.9-1.5-1.7-1.9-.3-.2-.6-.4-.7-.5s-.2-.2-.4-.2-.2,0-.2-.2-.1-.2-.3-.2-.4-.1-.5-.3-.5-.5-.9-.7c-1-.6-1.2-.7-1.7-1.1-.3-.2-.5-.3-.5-.3s0,0-.2,0-.3-.2-.3-.2c-.2,0,0,2.1.2,2.4,0,.1.1.3.2.3.1.7.4,1.1.9,1.7.4.4.8.7.9.7.3.1,0,.6-.5.9-.6.3-2.8.4-3.5,0-.3,0-.7-.2-1-.2s-.6,0-.6,0-.2,0-.4,0-.6-.2-.9-.3-.6-.2-.6-.2,0,.4.1.7c.2.8,0,1.6-.3,2-.4.4-.4.9,0,1.2.5.4.7.3.9-.4.1-.5.3-.6.5-.5.2,0,.4,0,.4-.1s0-.2.2,0c.1.1.3.2.4.1s.5.2.9.6c.7.7.7.7.7,1.7,0,1.1-.4,2.1-1,2.6-.4.4,0,.5,2,.5,2,0,2.3,0,2.1.8,0,.2-.3.5-.5.6s-.5.4-.6.7-.3.5-.4.5-.2,0-.3.2c-.2.3,0,.7.4.7s.3,0,.4.2.2.1.4,0c.2,0,.2,0,.2,0,0,.1.1.2.5.3.4,0,.8.2,1,.3s1,.4,1.7.5c.8.2,1.3.4,1.3.5,0,.1,0,.2.2.2s.5,0,.8.2c.7.3,1,.3,1.1-.2h0ZM79.6,64.9c.1-.2.4-.4.6-.4.4-.1.6-.6.4-.9-.1-.2-1.5-.2-1.7,0-.1,0-.2.5-.2.9,0,.6,0,.7.3.7s.5-.1.6-.3h0ZM62.7,63.9c0,0,.2,0,.4,0s.2-.1.2-.2c0-.1,0-.4.2-.6.3-.4.3-.4.5-.2.1.2.2.2,0-.1,0-.3,0-.4.1-.4s.3.1.3.3c0,.4.3.3.6-.3.3-.6.5-.7.5-.2,0,.2.1,0,.3-.4s.3-.7.3-.6c.2.2.7-.5.7-.8,0-.4.3-.9.4-.8,0,0,.1.3.2.6.2.5.2.4.2-.4,0-.9.5-1.9.8-1.6,0,0,0,.2,0,.2-.1,0-.1.2,0,.5.2.6.4.4.5-.4,0-.3,0-.8,0-1,.1-.5.5-.5.5,0s0,.4.2.3.2-.5.1-1.1c0-1.2,0-1.6.2-1.6s.4.7.3,1c0,.1,0,.2.1.3.1,0,.3-.8.4-2,0-.4.1-.8.2-.9s0-.4,0-.6c0-.2,0-.3.3-.3s.3,0,.2-.2c-.1-.2-.3-.9-.4-1.4,0,0,0-.2-.1-.3s-.2-.2-.3-.4c-.3-.5-.4-.5-1.1.2-.6.6-1,.8-.8.4.1-.2,0-1.1-.2-.9-.2.3-2.9.8-3.1.5,0,0-.3-.2-.4-.2s-.2.1-.2.5c.1.8-.2.6-.7-.4-.5-.9-.5-1-.3-1.5.1-.3.4-.8.7-1,.3-.3.4-.4.3-.5,0,0-.2,0-.2,0,0,.2-.4.2-.6,0-.2-.3.3-.8.9-1,.8-.2,1.7,0,3.1.5,1.1.4,1.6.8,1.6,1.1s0,.2.2.1c.1,0,.1,0,0,0,0,0-.3.1-.5,0-.4,0-.4,0,0,.2.3.2.3.2.5,0,.1-.2.2-.4.1-.5s-.1-.5-.2-.9-.2-.7-.3-.8-.7-.2-1.3-.2c-2.6-.2-6.7-.6-8.1-.9-.3,0-1-.1-1.7-.2h-1.2c0-.1,0,.5,0,.5v.6c0,0,1.4,0,1.4,0,1.2,0,1.4,0,1.9.5,1.1.8,1.1,1,1.1,2.5,0,.8-.1,1.5-.2,1.6s-.2.5-.2.9-.2,1-.3,1.4c-.3.9-.3,1.1,0,1.5.2.3.3.3.5.1.1-.1.3-.2.4,0,0,0,.2,0,.2-.2,0-.5.7-.8,1.3-.4.7.4,1,.3,1-.2s-.2-.8-.7-.9c-.2,0-.3-.2-.4-.3,0-.3.9-.3,1.3,0s.6,1.5.3,2c-.2.4-1,.6-1.5.3-.2-.1-.3-.1-.4,0,0,.1-.3.2-.6.2s-.8,0-1.1.1c-.4,0-.6,0-.6,0s-.1-.4-.3-.6c-.3-.4-.3-.5,0-1.4.4-1.9.5-2.2.2-2.2s-.3,0-.3.2-.2,0-.5-.2c-.3-.3-.6-.3-1-.2-.3,0-.5.2-.5.3,0,.3-.6.2-.8-.1-.1-.2-.3-.2-.4,0-.1,0-.3.1-.3,0s0,0,0,.1.1,1,.2,1.9c0,1.9.2,3.2.5,4.2.1.4.2.8.2,1s.1.6.3.9.3.8.4,1,.4.9.7,1.7c.8,1.7,1,1.9,1.3,1.2l.2-.4.2.5c.1.3.3.4.5.4.2,0,.3,0,.3.4,0,.6.1.6.4.3.2-.2.3-.2.3.1,0,.2.1.3.2.2,0-.1.2-.2.2-.2h0ZM60.6,60.9c0-.4.6-1.1.9-1,.1,0,.2,0,.2-.2s.1-.2.3-.1c.2,0,.3,0,.2-.1,0-.1-.1-.3-.1-.4s0-.3,0-.4-.2-.4-.4-.6-.4-.5-.4-.5.5,0,.9,0,1.1-.1,1.4-.2c.7-.1.7.2-.1.5-.6.3-.6.3-.5.8.1.4.1.6-.1.7-.3.2-.3.2,0,.3.7.2.4.5-.5.5-.7,0-.9,0-1.3.5-.5.6-.6.6-.6,0ZM59.7,57.4c-.2-.6-.2-.7,0-1.1.1-.2.2-.3.2-.2s.1.2.4,0c.2,0,.9-.1,1.6-.1,1.1,0,1.3,0,1.6.4.2.2.4.5.4.6s-.4.1-1,.1c-2.6,0-2.5,0-2.7.4,0,.2-.2.4-.2.4s-.2-.3-.3-.7h0ZM64.8,57.7c-.3-.1-.3-1.2,0-1.2s.2.2.2.7,0,.7,0,.7-.1,0-.2,0h0ZM76.2,63.6l.6-.3s0-.2-.1-.3c-.2-.3-.9-.2-1.1.1-.1.2,0,.8.1.8s.3-.1.6-.3ZM80.8,62.4c1.1-1.1,1.2-2,.5-2.9-.4-.5-.6-.6-1-.5-.8.1-1.2,1.1-.7,1.6.1.1.2.2.2.1,0-.3,0-.4.3-.5.2,0,.4,0,.5,0,.2.1.2,1.1,0,1.3-.5.6-2.3.4-2.8-.3-.2-.2-.2-.2-.5.1-.3.4-.4,1.1,0,1.2,0,0,.3,0,.4.1.6.3,1.4.4,2,.4.5,0,.8-.2,1.2-.6h0ZM85.4,62.2c0,0,.2,0,.3,0s.2-.1.4,0c.2,0,.3,0,.3-.1s.1-.2.2-.2.2-.1.2-.3,0-.3.1-.3.2-.3.3-.7c.3-1.1-.3-1.9-1.3-2.1-.6,0-.7,0-.9.4-.4.7-.1,1.2.5,1.1.3,0,.5-.1.5-.3,0-.3.5-.2.6,0,0,.2-.7,1.1-.9,1.1s-.2.1-.2.3-.2.3-.6.3-.6,0-.6.2,0,.1-.2,0-.3-.1-.3,0-.2.1-.3,0c-.1-.1-.3-.1-.4,0s-.2,0-.2-.1-.1-.2-.2-.1,0,.2,0,.4c0,.3.6.4,1.7.6.3,0,.6.1.6.2s.1,0,.2-.1.2-.1.3,0h0ZM76,62c.4-.2.4-.2.2-.4-.2-.1-.2-.2,0-.2.3,0,.2-.9-.1-1.3-.2-.2-.4-.3-.6-.3-.1,0-.3,0-.5,0s-.2.2-.2.8c0,.8-.1.9-.9.5-.5-.3-.6-.3-.6-.1,0,.3.8,1.1,1,1,.1,0,.3,0,.3,0,.1.2.7.1,1.3-.1h0ZM105.4,62.1c0-.1.1-.1.1,0,0,.1.7.2,1.7.2h1.7s0-.6,0-.6c0-.8-.3-.9-2.9-.9-1.2,0-2.6,0-3.2,0-1.2,0-1.4,0-1.3.8,0,.5.5.7.7.4,0-.2.1-.2.1,0,0,.3,2.7.4,2.9.1h0ZM56.9,61.6c0-.1.2-.3.3-.3s.2-.2.2-.3.1-.3.3-.3.2,0,0-.3c-.2-.2-.2-.3,0-.3s.2,0,0-.2c-.2-.3-.5-.2-1.1.4-.2.2-.6.4-.9.4-.5,0-.5,0-.3-.6.3-.8-.2-1.4-.6-.8-.1.1-.3.2-.3.2-.2-.2-.3.3-.2,1.5,0,.2,1.6.9,2.1,1,.2,0,.4-.1.5-.2h0ZM72.8,59.7c-.1-.3-.3-.6-.4-.6-.1-.1-.1-.2,0-.2.1,0,.1-.2,0-.4-.5-1-.7-1.7-.7-4,0-1,0-1.8-.2-1.8s0,0,0,.2,0,.2,0,.2c-.3.1-.2,3.6.2,5.3.1.6.3,1.1.5,1.3.5.5.7.8.7,1,0,.1,0,0,.1-.1,0-.2,0-.5-.1-.8h0ZM78.4,60.7c-.2-.1-.2-.2,0-.2.3,0,.2-.5-.1-.8-.2-.2-.3-.4-.3-.6s0-.3-.1-.3-.2-.2-.3-.4-.2-.6-.4-.8-.3-.5-.3-.7-.1-.3-.3-.3-.3,0-.2.6c0,.3.3,1,.4,1.4.3.7,1.5,2.2,1.8,2.2,0,0,0,0,0-.2h0ZM83.1,60.6c0-.1.2-.1.3,0,.2.1.2.1.3,0,0-.1,0-.3-.1-.3-.4-.2-1-.7-1.2-1-.2-.2-.2-.2-.2.1,0,.5.2.9.4.9s.2.1.1.3c-.1.3.2.4.3,0ZM84.3,60.7c0,0,0-.2-.2-.2s-.2,0-.2.2,0,.2.2.2.2,0,.2-.2ZM73.7,58.8c-.2-.5-.4-1.1-.5-1.4s-.2-.7-.3-.9-.2-.8-.1-1.3,0-1-.1-1.2c-.1-.2-.2-.2-.2.2,0,.2,0,.7,0,.9,0,.4.3,2.6.5,3.3,0,.1.1.4.2.6s.1.4.2.4.2.1.2.2.1.3.3.5c.3.3.3.3.3,0,0-.2-.1-.8-.3-1.2h0ZM90.6,59.8c0,0,.5-.2.8-.4s.7-.3.8-.4.1-.7.1-1.3c0-1,0-1.2-.3-1.6-.7-.8-1.9-.7-1.8.2,0,.4.2.5.5.5.8.1.7,1-.2,1.4-.7.3-.8.3-1.8.3h-.9s.2.7.2.7c.1.5.3.7.6.7.5,0,1.8,0,2-.2h0ZM104.4,59.2c0-.1,0-.2.2-.3.2,0,.2-.1,0-.3-.2-.4-.4,0-.5.8,0,.6,0,.7.1.3.1-.2.2-.4.2-.5h0ZM108.7,59.8c.3,0,.4,0,.4-.3,0-.4-.4-.6-.8-.3-.2.1-.4.2-.4.1s-.2,0-.3,0c-.2.2.2.6.4.5.1,0,.4,0,.6,0ZM103.2,59.6c.3-.1.4-.3.4-.6,0-.6,0-.8.2-.7.1,0,.2,0,.1-.3,0-.3,0-.5.2-.6.2,0,.2-.1-.1-.2-.3,0-.4-.2-.4-.7s0-.7.1-.8.1-.3,0-.3,0-.4.1-.8.2-.8.1-.8,0-.1,0-.1.2-.2.2-.3.1-.3.2-.3.3-.2.3-.4.2-.4.2-.4.1-.2.1-.4,0-.4.1-.4.2-.4.3-.8.3-.9.3-1,.1-.4.1-.7c0-.4,0-.5-.2-.3-.3.4-.7.4-.8,0,0-.1-.2-.2-.3-.2s-.1.2,0,.3,0,.2,0,.2c-.1,0-.6.6-1.2,1.7,0,.1-.2.3-.3.4s0,.1,0,.1,0,.1,0,.3-.1.3,0,.3,0,.1,0,.2-.1.3,0,.4,0,.3-.1.6-.2.4-.2.5,0,.1,0,.1c-.2,0-.2.2-.3,3,0,1.6,0,2.5,0,2.8.2.4.3.4.9.1h0ZM74.9,59.2c.2.2,0-.6-.1-.9-.1-.2-.3-.8-.4-1.4-.2-1.3-.7-2.1-.9-1.7,0,.2,0,.3,0,.4,0,0,.1.2,0,.3-.2.3.5,3.2.8,3.6.1.2.2.1.3,0,0-.1.2-.2.3-.1h0ZM83.6,59.2c0-.3,0-.4-.2-.3-.1,0-.2,0-.2-.1s-.2-.5-.5-.8-.5-.6-.5-.8c0-.3-.6-.5-.7-.2,0,0,0,.4.3.6s.4.5.4.6c0,.2.9,1.1,1.1,1.1.1,0,.2,0,.2,0,0,.2,0,.4,0,.4s0-.2,0-.4ZM76,58.8c0-.7-.6-2.2-.8-2.4-.4-.4-.5.1-.3,1.2.3,1,1.1,2,1.1,1.2h0ZM78.5,58.2c-.1-.1-.3-.3-.3-.5s0-.3-.2-.3-.2-.2-.2-.3-.1-.3-.3-.3-.2,0-.1.4c0,.2.2.4.2.5s.2.3.2.5.2.5.4.7c.3.3.3.3.3,0,0-.2,0-.4-.2-.5ZM57,58.2c0-.1,0,0,0,.2s0,.3,0,.2,0-.3,0-.4ZM81.2,58c-.2,0-.4-.4-.4-.6,0-.3-.2-.5-.3-.5-.3,0-.2.4.3,1.1.3.4.5.5.6.4,0-.1,0-.3-.2-.3h0ZM84.3,58.2c0-.1-.2-.5-.5-.8s-.5-.6-.5-.7c0-.2-.5-.5-.8-.5s0,.2,0,.4c.1.2.2.4.3.4s.1,0,.1.2c0,.2.9,1.2,1.1,1.2s.2,0,.2-.2ZM79.9,58.1c.1-.2-.9-1.2-1.1-1.1,0,0-.1.3,0,.5.2.6.9,1,1.1.6ZM105,57.9c-.1-.2-.2-.2-.2.1s0,.2.2.2.1-.2,0-.3ZM108.7,57.6c.1-.3.2-.6,0-.6-.2-.2-.6.5-.6.9,0,.5.2.4.5-.3ZM88.2,57.5c0-.3-.2-.4-.5-.3-.2,0-.4,0-.3,0,.1-.2,0-.4-.5-.8-.5-.3-.6-.4-.6,0s.2.3.4.5.4.4.4.5c0,.2.1.3.6.3s.6,0,.6.2,0,.2,0,.1,0-.3,0-.5h0ZM84.6,57.1c-.2-.2-.3-.5-.3-.6s0-.1-.2,0c-.2.2.1.9.5,1,.4,0,.4,0,0-.4ZM86,57.4c0-.3-.7-1.2-.9-1.2-.2,0-.2,0,0,.2.2,0,.3.3.3.4,0,.3.3.7.5.7,0,0,.1,0,.1-.2h0ZM107.7,56.9c.4-.4.7-.8.7-.9s.1-.4.2-.6c.2-.3.2-1.1,0-1.1s-1.2,1.3-1.3,1.6c0,.2-.2.4-.3.4s-.2.2-.2.6,0,.6.1.6.4-.3.8-.7h0ZM56.1,57.1c0-.2,0-.4,0-.6,0-.2,0-.3-.1-.3s-.2.2-.2.6c0,.3,0,.6.1.6s.1-.1.1-.3ZM106.3,56.3c.2,0,.3-.2.3-.3s.1-.3.3-.3.4-.3.4-.4.2-.3.2-.3.1-.2.1-.3.1-.5.3-.8.2-.4,0-.4-.1-.2,0-.3,0-.5-.1-.6c-.2-.2-.2-.2-.4,0-.1.1-.2.3-.2.4s-.1.3-.3.5-.5.9-.9,1.6c-.4,1-.6,1.4-.5,1.8,0,.5.1.5.2.1,0-.2.3-.4.5-.5h0ZM88.1,56.4c0-.3-.1-.5-.4-.6-.5-.3-.5,0,0,.6.5.5.4.5.4,0ZM76.8,56.1c0,0-.1-.2-.3-.2s-.3,0-.2.2.2.2.3.2.2,0,.2-.2ZM105.2,55.3c.2,0,.3-.1.2-.2,0,0,.3-1.3.5-1.4.2-.1.7-1.2.7-1.4s0-.2.2-.1c.2,0,.2,0,.2-.4,0-.7-.1-1-.4-1s-.9.6-.9.8c0,.3-.2.9-.4.9s-.1,0-.1.2-.2.4-.3.7-.3.6-.2.7,0,.2,0,.3-.1.3-.2.6,0,.6,0,.6,0,.4,0,.6v.4s.2-.5.2-.5c0-.3.3-.5.5-.6ZM55.1,55.9c.2-.1.5-.3.6-.5.3-.4.6-1.6.6-2.1,0-.5-.3-.5-.3,0s-.7,1.2-1,1.2-.3.1-.4.3c-.2.5-.3.3-.3-.4,0-.5,0-.6-.4-.7-.9-.1-1.1.9-.4,1.8.4.6.9.7,1.6.3h0ZM78.4,55.7c.9-.4,1.3-1.2,1.2-2.1,0-.7-.4-1.2-.6-.8,0,.1,0,.3.2.3.2.1.2.1,0,.1-.1,0-.2.1-.1.4s0,.4-.1.4-.2,0-.2.1c0,.3-.4,1.2-.8,1.3-.2,0-.4.2-.4.3,0,.2,0,.2.8-.2h0ZM80.2,55.8c0-.2,0-.2,0-.2s.3,0,.6,0c.4-.2.4-.2.4-1.2,0-1.1-.5-2.1-1-2.1s-.4.6-.2.8c.2.2.2,1.5,0,2.4,0,.5,0,.7,0,.7s.2-.1,0-.3h0ZM77.7,55.3c.2,0,.3-.2.3-.4s0-.2.1-.2c.2.1.3-.2.3-1.1,0-1-.5-1.6-1.1-1.4-.5.1-.6.9-.1,1,.4.1.4.6,0,.9-.3.3-1.4,0-1.6-.3-.1-.2-.2-.2-.2-.1,0,.2-.6-.7-1-1.7-.5-1.2-1-2.7-.9-2.9,0,0,0-.1-.2-.2s-.2-.2-.2-.3,0-.4-.2-.8-.3-.7-.3-.8-.1-.3-.3-.6c-.3-.4-.3-.4-.3,0s.1.8.3,1.4.3,1.1.2,1.2,0,.2,0,.2.2.2.2.4.1.6.3,1c.2.4.3.8.3.9,0,.2.6,1.4,1.1,1.9.2.3.4.6.5.8s.3.4.5.4.4.2.4.3c0,.2,1.4.4,1.9.2h0ZM83.6,55.1c0-.2.1-.3.2-.4.4-.4.5-1.7,0-2,0,0-.2-.2-.3-.4-.1-.3-.6-.4-.6-.1s0,.2.1.2.2.1.2.3c0,2,0,2.5,0,2.6,0,0,0,.2,0,.2s.2-.1.3-.3h0ZM82.5,54.6c0-.2,0-.4.1-.5.3-.2-.3-1.7-.7-1.9-.4-.2-.7,0-.4.4.2.3.3.6.3,1.7,0,1,.6,1.3.6.3h0ZM85.2,54.3c0-.1,0-.3.2-.3s.1-.2,0-.7c0-.4-.1-.9-.1-1.1,0-.4-.3-.7-.3-.4,0,.2,0,.2-.2,0-.3-.5-.7-.4-.5.2,0,.3.2.6.3.7s.2.7.1,1.3c0,.9,0,1.1.2.8.1-.1.2-.4.2-.5ZM87,54.1c.1-.3.1-.6,0-1.1-.2-.6-.6-1.3-.9-1.3s-.1.5,0,.8c0,.1.1.6,0,1s0,.9,0,1c0,.3.6,0,.8-.4ZM88.4,53.5c0-.4,0-.8-.1-.8,0,0-.2-.3-.2-.5s0-.3-.1-.3-.3,0-.4-.3c-.3-.3-.3-.3-.4,0,0,.2,0,.5.2.7s.3.8.3,1.3,0,1,0,1c0,.4.6-.5.6-1.1ZM73.4,52.9c-.6-1.2-1-2.2-1-2.4s-.1-.4-.2-.7-.3-.7-.3-.9,0-.4-.2-.4-.1-.2-.1-.5,0-.5-.1-.5-.2-.2-.3-.5c0-.4-.2-.5-.4-.5s-.3,0-.2.4c0,.2.1.8.2,1.3.1,1.2.6,2.4,1.4,4,.2.4,1.6,1.9,1.7,1.9,0,0-.2-.5-.4-1.1h0ZM75.8,52.7c0,0-.1-.5-.3-.8s-.3-.8-.3-1-.1-.6-.3-.9-.3-.7-.2-.8,0-.2-.1-.2-.1-.1,0-.3c0-.2,0-.4-.2-.6-.4-.5-.7-1.1-.6-1.3,0,0,0-.1-.1,0-.2,0-.2.2,0,.9.1.4.3,1.1.4,1.4.2.7.4,1.6.8,2.3.1.3.2.7.1.8s0,.2,0,.2.2,0,.2-.2.1,0,.3.3c.3.5.5.6.5.3h0ZM109.1,49.8c0-1.3,0-2.4,0-2.4s0-.2,0-.4.1-.3,0-.4c0,0-.3-4.9-.2-5.2,0-.1,0-1.7,0-3.4,0-3.3,0-5.8-.3-6.1,0,0-.4-.1-.8-.1s-.7,0-.8-.2c0-.1-.1-.1-.1,0,0,.2-1,.3-2.2.2-1.6,0-7.3,0-7.4,0,0,0-.2,0-.2,0s-.6-.1-1.3,0-3.5,0-6.4,0c-8.6,0-17.7,0-18.2,0-.5,0-.6.4-.1.4.3,0,.5.2,1.3.9.8.8,1,1.1,1,2,0,.5.2.8.3.9s.3.2.4.3.2.2.2,0c0-.3.2-.2.4.2.8,1.7.9,2.5.1,3.2-.4.3-.5.4-1.1.3-.6,0-.7,0-.8.3-.2.8.2.9,2.6.9,2.4,0,3.7-.2,3.7-.4s.1-.2.2-.2.2,0,.2-.2-.2-.2-.8-.2c-.9,0-1.4-.3-1.6-1-.2-.8-.1-1.7,0-1.9,0-.1.2-.3.2-.4,0-.3.5-.7.8-.7.1,0,.3-.1.4-.2.3-.4,1.1-.5,1.5-.2.2.2.3.2.5,0,.1-.2.3-.5.3-.8s.1-.6.2-.7.2-.3.2-.4c0-.4,1.6-1,3.2-1.2,2-.3,2.4-.2,2.3.3,0,.2-.1.6-.2.9s-.2.6-.4.8-.3.4-.3.6c0,.2-.3.9-.5,1.1,0,0-.5,1.7-.9,3.4-.6,2.5-.6,5.1,0,5.1s.3.1.3.3c.1.3.1.3.2,0,0-.2.1-.2.1-.1s.2.3.5.4c.5.2,2.1.5,2.4.5,0,0,.1,0,.1.1,0,.3,1.3.2,1.4,0,0-.1.2-.3.2-.3s.1,0,0,.2,0,.2,0,.3.2,0,.3,0c0-.1.2-.1.2,0,.1.2.1.2.1,0,0-.2,0-.3.2-.3.2,0,.6-.5.6-.7,0,0,0,0-.2,0s-.2,0-.2,0-.1-.2-.2-.2-.2,0-.2-.2,0-.1-.2,0c-.3.3-2.4.2-2.7,0-.2-.1-.3-.4-.3-.5s-.3-.8-.7-1.5-.7-1.5-.7-1.6c0-.3.3-.6.6-.6.4,0,1.9-.5,1.9-.6s.5-.2,1.5-.2c.4,0,.5,0,1,1.1.3.6.5,1.2.5,1.4s.1.3.2.4.2.2.3.3c.2.7.2.7.6.5.2-.1.5-.2.6-.1.2,0,1-.4,1-.6,0,0,0-.3.2-.5s.2-.7.3-1.1.2-.7.2-.7c.2-.1,1.7-.5,2.2-.5.2,0,.4-.1.4-.2s.1-.2.3-.2.4,0,.4-.2c0-.1.2,0,.4,0,.3.2.3.8,0,1.3-.1.2-.2.4-.3,1.4,0,.8-.6,1.5-1,1.5-.7,0-.8,0-1.1.6-.2.4-.2.6,0,.8.1.2.3.3.4.3s.3.1.4.3.3.3.4.3.4.2.7.4.9.7,1.4,1,1,.7,1,.8.1.1.2.1.2.1.2.3c0,.3,0,.3-.6,0-.2-.2-.4-.2-.4-.2s-.2,0-.4-.2-.6-.4-.9-.5-.4-.3-.4-.4-.1-.2-.2-.2c-.3,0-.9-.4-1.3-.8-.4-.4-1.2-.6-1.5-.3-.2.2-.3.8,0,.8s.2.2.3.3.2.3.3.2.2,0,.2.2.2.3.2.3.4.2.7.4.6.4.7.4.2,0,.2.2.1.2.2.2.5.2.7.5.6.5.7.5.3,0,.3.2.2.2.4.2.3,0,.3.2c0,.2,1.1,1,1.3,1s0-.1,0-.3c0-.2,0-.3.3-.3s.4,0,.4-.4c0-.4-.6-1.4-.7-1.2-.1.1-.7-.4-.7-.7s.1-.3.5,0c.1.1.5.3.8.4.5.2.6.2.9-.2.2-.2.4-.4.3-.5,0-.2.7-1.1.9-1.1,0,0,.1,0,.1-.2s.1-.6.3-.9c.3-.6.4-.7.6-.5.4.2.5.5.6.9,0,.2.1.8.2,1.3.1.6.1,1,0,1-.3.1-.2.8.2,1.1.2.2.6.7.8,1.1.3.5.5.7.6.7.2,0,.3,0,.2.2,0,.5,0,.7.2.6,0,0,.2-1.2.2-2.5h0ZM76.6,51.7c.1,0,.2-.2,0-.2s-.2-.2-.2-.4c0-.7-.2-1.7-.4-2.1-.1-.2-.3-.7-.4-1.1-.2-.8-.7-1.4-1.1-1.4s-.2.5.2,1.5c.1.3.3.7.3.8,0,.5.8,2.5.9,2.7.2.3.3.3.6,0h0ZM79.2,51c0-.3-.1-1-.3-1.5s-.3-.9-.3-.9c0-.1-.2-.6-.4-1.3-.2-.7-.4-.9-.8-.9s-.4.6,0,1.1c.1.2.2.4.2.5-.1.5.7,3,1,3.3.5.4.5.4.5-.3h0ZM80.3,50c-.1-1.1-.9-3.3-1.1-3.3-.2,0-.2.8,0,1.3.1.2.2.8.3,1.3s.2.9.2,1,.2.4.2.8c.1.6.1.6.3.2,0-.2,0-.8,0-1.3h0ZM90,51.3c0-.3-.9-.8-1.1-.7,0,0-.2-.1-.4-.3-.2-.2-.4-.3-.5-.2-.2,0-.2,0-.1,0,.1-.2-.6-.5-.8-.3-.1.1.5.8.8.8.1,0,.3.1.5.3s.5.2.6.2.3,0,.2.1c0,0,.4.4.8.5,0,0,0-.1,0-.3ZM94.5,51.2c0-.2,0-.2,0,0,0,.1-.3.2-.5.2s-.4,0-.4.1.2.1.5,0c.3,0,.5-.2.5-.4ZM77.7,51.2c0-.3-.4-2.2-.6-2.5,0,0,0-.2,0-.4.1-.1,0-.3,0-.4-.1-.1-.2-.3-.2-.5s-.1-.5-.3-.7c-.3-.3-.4-.4-.5-.2-.1.2,0,.5.5,2,.3,1,.5,1.6.6,1.8,0,.2,0,.3.1.4s.1.3.1.4c0,.4.3.4.4,0h0ZM81.6,50.2c-.2-.8-.5-2.2-.8-2.8-.1-.4-.2-.4-.3,0,0,.3,0,1,0,1s0,.2,0,.3.1.6.2.9.2.9.3,1.2c.2.5.3.5.4.3,0-.1,0-.6,0-.9h0ZM83.2,50.3c-.1-.4-.7-1.8-1-2.5,0-.2-.1-.4-.1-.5,0-.2-.5-1-.6-.9,0,0,0,.4,0,.8s.3,1.2.5,1.9.4,1.4.6,1.7c.3.4.3.5.5.2.1-.2.2-.5,0-.7ZM93.2,51.1c0-.1-.1-.1-.3,0s-.4,0-.5-.1c-.1-.1-.4-.2-.6-.1-.2,0-.4.1-.3.2.3.3,1.7.4,1.7.1ZM91.2,50.6c0-.2-.3-.4-1.6-1-.4-.2-.7-.4-.7-.4s0-.1-.2-.1c-.4,0-2.5-2-2.5-2.3s-.4-.4-.6-.2c-.1,0,.1.5,1,1.4.7.7,1.3,1.3,1.4,1.3s.2.1.2.3.2.3.3.3.4,0,.5.1.5.3.8.4.5.3.6.4c.1.2.7.2.8,0h0ZM84.2,50c-.1-.3-.3-.7-.4-.8s-.1-.3,0-.4,0-.3-.2-.4c-.2-.2-.2-.3,0-.3.2,0,.2,0,0-.1-.1,0-.3-.4-.5-.8l-.3-.7v.5c0,.3,0,.7.2.8s.2.4.2.5,0,.4.2.7.2.6.2.8c0,.6.2.8.6.8s.3,0,0-.6ZM55,49.6c0,0-.4-.1-.8-.1s-.8,0-.8.1.1.1.3.1.3.1.3.2c0,.2,0,.2.5,0,.3-.1.5-.3.5-.4ZM93.9,50c0-.2,0-.3-.4-.2-.3,0-.6.1-.6.1s-.1,0-.1.2c0,.3,1.1.2,1.2-.1ZM67.7,49.8c0,0,.2-.2.4-.2s.4,0,.5-.2c.2-.1.2-.2,0-.3-.1,0-.3-.1-.4,0s-.2,0-.3-.1-.3-.2-.6-.3c-.5,0-.5,0-.5.6,0,.6,0,.7.4.7s.4,0,.5-.2h0ZM92.6,49.8c0,0-.1-.2-.3-.2s-.3,0-.3-.2-.2-.3-.5-.4-.9-.4-1.3-.6-.8-.3-.9-.3-.2,0-.2-.2c0-.3-.5-.6-.9-.5,0,0-.2-.1-.4-.3s-.3-.3-.5-.3c-.2,0-.2,0,0,.4.2.2.4.4.5.4s.2,0,.1.2,0,.2.2.2.4.2.5.3.3.3.4.3c.2,0,1.6.7,2,1.1.1,0,.2.1.2,0s.1,0,.3,0c.4.2,1,.2,1,0h0ZM57.9,49.5c0-.2-.1-.3-.3-.3-.3,0-.4.3-.2.6s.5.1.5-.2ZM60.2,49.1c-.3-.2-.4,0-.3.4,0,.3,0,.3.3,0,.1-.2.2-.3,0-.4ZM55.6,48.9c0-.1,0-.1,0,0,0,.1-.1.2-.2.1s-.1,0-.1.2c0,.2,0,.2.2,0,.1-.1.2-.3.2-.4ZM86.8,49.2c-.2-.1-.3-.2-.4-.2-.1.1.3.4.5.4,0,0,0-.1-.1-.3ZM93.8,48.9c0-.4-.4-1.1-.6-.9-.2.1,0,.6.2.8.1,0,.1.2,0,.2-.2.1,0,.4.2.4.1,0,.2-.3.2-.5ZM53.9,48.6c.4.1.5,0,.3-.6,0-.3-.3-.4-.6-.4s-.5,0-.5.6c0,.7.2,1.2.4.7,0-.2.2-.3.4-.3h0ZM86,48.6c0,0,0-.2-.2-.2s-.1,0,0,.2.1.2.2.2,0,0,0-.2ZM92,48.5c-.1,0-.3,0-.3,0s0,0,.2,0c.2,0,.2,0,0-.1h0ZM56,48c0-.4,0-.4-.2-.2-.2.3-.2.7,0,.7s.2-.2.2-.5ZM59,48.3c.6,0,.8,0,.6-.1q-.3-.1,0-.2c.3,0,.2,0-.1-.1-.8,0-1,0-1.3,0-.2,0-.4.2-.5.2s-.2.1-.1.2.2.1.3,0,.6-.1,1.1-.1ZM91.5,48.1c0,0-.1-.2-.2-.2s-.2,0-.2.2.2.2.2.2.2,0,.2-.2ZM90.7,48c0-.3-.4-.9-.7-.9s-.4,0-.6,0c-.2,0-.2,0,0,.3.2.2.4.3.5.3s.2,0,.2.3c0,.3.4.5.4.3h0ZM55,47.6c0-.2.1-.6.1-.9,0-.5,0-.6-.3-.6s-.3.2-.3.9c0,.9.1,1.2.4.6ZM92.9,47.8c0,0-.1-.2-.2-.2s-.2,0-.2.2.2.2.2.2.2,0,.2-.2ZM67.8,47.6c-.2,0-.4,0-.5,0s0,0,.3,0,.4,0,.2,0ZM92.3,47.6c0-.1-.7-.7-.9-.7s0,.1,0,.3.2.3.3.3.2,0,.2.2,0,.2.2.2.2,0,.2-.2h0ZM65.5,47.4c0-.2-.3-.2-.4,0,0,0,0,.2.2.2s.2,0,.2-.2ZM66.7,47.4c-.3-.2-.5-.2-.5,0s.2.2.4.2c.3,0,.3,0,.1-.2ZM56.1,46.5c0-.6,0-.8-.1-.7,0,.1-.2.4-.2.8,0,.7,0,.8.2.8s.1-.4.2-.9ZM60,47c0-.4-1-.6-1.5-.3-.1,0-.3,0-.5,0-.2,0-.3,0-.2.1,0,.1.3.2.7.3.3,0,.6,0,.7,0s.2,0,.5,0,.4,0,.4-.3ZM80.6,46.7c0,0,0-.1-.2,0-.2.1-.2.3,0,.3s.2,0,.2-.2ZM57,46.4c0-.1,0-.2.2,0,.1,0,.3,0,.3,0s-.1-.2-.2-.3-.2-.2-.2-.2,0-.2-.2-.2-.2.1-.2.2c0,.4.2.8.3.8s.1,0,0-.2ZM94.3,46.1c.6-.4.6-1.4,0-2-.6-.7-1.6-.2-1.6.8,0,.9.9,1.6,1.5,1.2h0ZM93.9,45.2c-.1,0-.2-.3-.1-.5,0-.4,0-.4.3,0,.2.6.2.7-.1.5h0ZM79.5,45.4c0-.1.1-.1.2,0,0,.2,2,.1,2.9,0,.6-.1.9-.7.8-2.1,0-1.5-.1-1.6-1.7-1.5-5.3.4-15.1.4-19.6,0-1,0-1.9-.2-2-.2-.4,0-2.7-.2-3.3-.3-.3,0-.9-.1-1.2-.1h-.6s0,1.1,0,1.1c0,1.3.2,1.5,1.1,1.6.6,0,2.8.4,3.7.5.3,0,.6.1.8.2s.8.1,1.4.2,1.2.1,1.4.2c.6.1,2.2.3,3.8.4.8,0,1.6,0,1.7.1s.4,0,.8,0c.4,0,.6,0,.7,0,0,.1.2.1.2,0,0-.1.1-.2.1,0,0,.1.5.2,1.4.2,1.5,0,5.5.2,5.6.3.1.1,1.7-.1,1.8-.3h0ZM55.1,45.1c0,0,0,0,0,.2,0,.2,0,.2,0,.1,0-.1,0-.3,0-.3ZM90.1,43.6c.2-.1.2-.3.1-.3-.1,0-.5-.2-.9-.5s-.8-.5-1-.5c-.3,0-.4,0-.2.4.1.2.3.4.4.5s.2.2.1.4c-.1.3,1,.3,1.5,0h0ZM92.3,43.7c0,0,0-.2-.2-.2s-.2,0-.2.2,0,.2.2.2.2,0,.2-.2ZM91.5,42.9c-.2-.1-.2-.3-.2-.3s0-.2,0-.3-.3-.6-.5-1.2c-.4-1.1-.5-1.1-1.6-.6-.6.3-.7.4-.6.8,0,.3.3.5.9.8.4.2,1,.5,1.2.6s.5.2.5.1.2,0,.3.3c.1.3.2.3.3.2,0-.1,0-.3-.2-.5h0ZM95.8,42.7c0,0,0-.1.2,0,0,0,.1,0,0-.2,0-.2,0-.3.1-.2.1,0,.2,0,.2-.2,0-.2,0-.3.4-.4.2,0,.4-.2.4-.4s.2-.4.4-.6c.4-.3.4-.8,0-.6,0,0-.1.2,0,.3s0,.2,0,.2-.2,0-.2-.2c0-.3-.6,0-1.1.4-.4.4-.9,2.2-.5,2.2s.1,0,.1-.2ZM71,40.2c0-.5.2-1.1.3-1.3.3-.7.4-1,.4-1.1,0,0,0-.1.1-.1s.2-.3.3-.8.3-.8.3-.8c.4,0,.3-1.7-.2-1.8-.2,0-.3-.1-.2-.2s0-.2-.2-.3-.4-.3-.7-.5-.5-.4-.7-.4-.3,0-.5-.2c-.1-.2-.2-.1-.3,0-.1.3-.2,5.4,0,5.4,0,0,0,.5,0,1.2,0,1.3.1,1.9.7,1.9s.4-.1.6-1h0ZM70.8,36.8c0-.3,0-.6.1-.7.2-.1.3-1.3.1-1.4,0,0,0-.2,0-.2s0-.2,0-.1c-.3,0-.9-.3-.9-.5,0-.6.7-.5,1.4.3.4.5.5,1.1.1,1.8-.1.3-.4.7-.5,1-.3.6-.4.6-.4-.1h0ZM72.3,40.9c0-.2.1-.6.2-1.1,0-.9.4-1.9.6-1.9s.1,0,.1.2.1.2.3.2.2,0,.2.2c0,.1,0,.4.1.5.2.3.2.3.5,0,.4-.4.4-1.1,0-1.6-.5-.8-1.6-.3-2,.8-.4,1.3-.6,1.9-.6,2.4,0,.5.4.6.5.2h0ZM64,40.7c0-.1,0-.3-.2-.5s-.2-.3-.2-.5,0-.5,0-.7c0-.2,0-.7.2-1.1.2-.6.5-.9,1.5-1.7,0,0,.3-.1.4,0s.2,0,.2-.2c-.1-.8,0-1.5.5-2,.3-.3.4-.6.4-.7s0-.2.3-.3.4-.2.4-.2.2-.2.5-.3c.6-.3.7-.9,0-.9-1.2,0-1.4,0-2,0-.3,0-.6,0-.7,0s-2.2,0-4.9-.1-4.9,0-4.9-.1-.2,0-.3,0-.4,0-.7,0c-.5,0-.9.4-.5.5.1,0,.4.1.6.3.3.2.5.3.6.1.1-.1.2-.1.2,0s.3.2.7.1c.4,0,.8,0,.9.2,0,.1.5.3.8.4.8.3,1.3.7,1.8,1.7.5.8.7,1,.9.9.2-.1,1.1.3,1.5.7.6.6.9,1.3.7,1.5,0,0-.2.3-.2.5,0,.3-.9.8-1.2.8,0,0-.2,0-.2,0s-.2,0-.3,0c-.3,0-.4,1.1,0,1.3.1,0,.3.1.4,0s.2,0,.3,0,.7.1,1.4.2c1,0,1.3,0,1.3-.2h0ZM82.8,40.5c0,0,.1,0,.1.2,0,.3.3.2.4-.2,0-.2.2-.3.3-.3s.3-.4.4-.9.3-1.1.4-1.4.2-.7.2-1,.1-.6.3-.8.3-.4.3-.6.1-.4.3-.5.3-.5.3-.9v-.6c.1,0-.9,0-.9,0-1.8.2-2.4.3-2.4.4s-.1.2-.2.2-.3.1-.4.3c-.2.4-.2,2.2,0,2.8,0,.2.2,1.1.2,1.9,0,.9,0,1.5.2,1.6.1,0,.2,0,.2-.1,0-.1.1-.2.2-.2h0ZM82.9,37.5c-.1-.1-.2-.3-.1-.4s0-.3,0-.5c-.1-.2-.1-.4,0-.4,0,0,.2-.3.2-.5,0-.5.8-1.1,1.4-1.1.3,0,.4,0,.3,0s-.2.2-.1.2,0,.2-.2.2c-.5,0-.9.6-.8,1.3,0,1.4,0,1.6-.5,1.1h0ZM66.8,39.2c-.2-1-.3-1.3-.7-1.7-.6-.5-.9-.5-1.5.1-.3.3-.4.6-.4,1.1s0,.7.2.7.2.1.2.3.1.2.4.2c.5,0,.6-.3.6-.9,0-.4,0-.5.3-.4.3.1.9,1.4.8,1.6,0,0,0,.3.1.4.3.4.4,0,.1-1.4h0ZM81.6,40.6c0-.5,0-1.3,0-1.4,0,0,0-.1,0-.2,0-.3-.3-.8-.4-1.1,0-.2-.1-.4-.1-.6s0-.3-.2-.3-.3-.1-.4-.3c-.2-.3-1.1-.3-1.5,0-.7.5-.9,2.3-.2,2.3s.3,0,.3.2.2,0,.5-.1.5-.4.5-.4.1,0,.2,0c.2.2.2.2.2,0s0,0,.2.1c.2.3.3.8.4,1.8,0,.2.7.1.7-.1h0ZM59.7,39.6c0-.6,0-1.2.2-1.4.2-.3.2-.3.6,0,.3.2.4.2.4.1s.2-.2.4-.2c.4,0,.5-.3.2-1.1-.2-.7-1.9-.4-2.3.4-.4.8-.1,3.2.3,3.2,0,0,.1-.5.1-1.1h0ZM58.1,39.3c0-.8,0-1.3.1-1.4.2-.2.2-.3,0-.5-.1-.1-.2-.3-.1-.3.1,0-.3-1.6-.6-2.1-.3-.5-.5,0-.2.5.1.3.2.7.2,1s0,.5,0,.5c.2,0,.4,1.2.2,1.4,0,.1-.2,0-.4-.4-.2-.3-.3-.7-.2-.8,0-.2-.1-.7-1-2.7-.3-.6-.6-.8-.4-.3,0,.2.2.8.4,1.4.2.6.5,1.6.7,2.3s.4,1.4.4,1.6c0,.4.4,1,.7,1s.2-.3.1-1.2h0ZM69.2,40.1c0,0,0-.2-.2-.2s-.2,0-.2.2,0,.2.2.2.2,0,.2-.2ZM69.2,39.5c0-.1,0-.3,0-.4s.1-.2,0-.3,0-1,0-1.9,0-1.8-.1-1.8c-.2,0-.2.2-.3,2.4,0,1.8,0,2.2.3,2.2s.1-.1,0-.2h0ZM58.8,35.1c-.3-.6-.3-.6-.4-.2,0,.2,0,.6.1.9.2.5.3.5.4.2.2-.3.2-.4-.1-.9h0ZM66.8,35.5c0-.3,0-.3-.2-.2,0,.1-.1.3,0,.4.2.3.2.2.2-.2h0Z"/>
      <path d="M10,12.2h6.4v11l9.2-11h7.4l-11.9,14.2,13.2,15.8h-8l-9.9-11.8v11.8h-6.4V12.2"/>
      <path d="M128.7,176.6h-6.4v-11l-9.2,11h-7.4l11.9-14.2-13.2-15.8h8l9.9,11.8v-11.8h6.4v30"/>
      <path class="cls-2" d="M20.8,48.7c-4.9,7.8-20,21.1-10.5,25.3,5.8,1.9,8.6-2,9.7-4.5h.2l-3.9,12.9h8.9s-3.9-12.5-3.9-13h0c.9,2.1,4.5,6.4,8.5,4.8,11.5-4.6-5.5-17.8-9.3-25.5h0Z"/>
      <path class="cls-2" d="M118.7,140c4.9-7.8,20-21.1,10.5-25.3-5.8-1.9-8.6,2-9.7,4.5h-.2l3.9-12.9h-8.9s3.9,12.5,3.9,13h0c-.9-2.1-4.5-6.4-8.5-4.8-11.5,4.6,5.5,17.8,9.3,25.5h0Z"/>
    </g>
  </g>
</svg>