<?xml version="1.0" encoding="UTF-8"?>
<svg xmlns="http://www.w3.org/2000/svg" version="1.1" xmlns:xlink="http://www.w3.org/1999/xlink" viewBox="0 0 140 190">
  <defs>
    <style>
      .cls-1 {
        fill: #fff;
      }

      .cls-2, .cls-3 {
        fill: #9f0000;
      }

      .cls-3 {
        fill-rule: evenodd;
      }

      .cls-4 {
        fill: url(#linear-gradient);
      }
    </style>
    <linearGradient id="linear-gradient" x1="6" y1="136.4" x2="113" y2="70.8" gradientTransform="translate(0 192) scale(1 -1)" gradientUnits="userSpaceOnUse">
      <stop offset="0" stop-color="#ebf0d0"/>
      <stop offset="1" stop-color="#ffffeb"/>
    </linearGradient>
  </defs>
  <!-- Generator: Adobe Illustrator 28.7.2, SVG Export Plug-In . SVG Version: 1.2.0 Build 154)  -->
  <g>
    <g id="Layer_1">
      <path class="cls-1" d="M17,1h103c8.9,0,16,7.1,16,16v153c0,8.9-7.1,16-16,16H17c-8.9,0-16-7.1-16-16V17C1,8.1,8.1,1,17,1Z"/>
      <path class="cls-4" d="M18,2h103c8.9,0,16,7.1,16,16v153c0,8.9-7.1,16-16,16H18c-8.9,0-16-7.1-16-16V18C2,9.1,9.1,2,18,2Z"/>
      <path class="cls-3" d="M103.5,21c-.5,0-1,0-1.4.3-.9.4-1.7,1.1-2,2.2-.2.6-.1,1.4.2,2s.9,1.1,1.8,1.1c.5,0,.8-.2,1.2-.5.2-.2.3-.4.3-.7s-.2-.6-.5-.8l-.5.8c0,0,0,0,0,0s0,0,0,0c0,.1-.5.2-.4.2-.4,0-.7-.2-.8-.6s-.2-.9-.1-1.3c.2-.8.7-1.2,1.4-1.5s1.6-.3,2.2,0c2.1.8,2.8,3.4,1.9,5.4-.8,1.8-2.6,2.8-4.5,2.9l-62.8.4v1l62.6-.4h0c0,0,.1,0,.2,0h.3c2.2-.3,4.2-1.5,5.1-3.5,1.1-2.5.1-5.7-2.6-6.8-.5-.2-1-.3-1.5-.2ZM114.9,24c-.7,0-1.3.2-2,.4-2,.9-3.2,2.9-3.4,5.1h0v.3c0,0,0,.1,0,.2h0l.2,69.1h1l-.2-69.3c0-1.9,1.1-3.7,2.9-4.5,2-.9,4.6-.2,5.4,1.9.3.7.2,1.6,0,2.2s-.7,1.2-1.5,1.4c-.4.1-.9,0-1.3-.1s-.6-.4-.6-.8c0,0,.1-.3.2-.4,0,0,0,0,0,0s-.1,0,0,0l.8-.5c-.2-.3-.4-.5-.8-.5s-.6.2-.7.3c-.3.3-.5.7-.5,1.2,0,.8.5,1.4,1.1,1.8s1.4.4,2,.2c1.1-.3,1.8-1.1,2.2-2,.2-.5.3-.9.3-1.4s0-1-.2-1.5c-.8-2-2.8-3.1-4.8-3ZM29.3,90l.2,69.3c0,1.9-1.1,3.7-2.9,4.5-2,.9-4.6.2-5.4-1.9-.3-.7-.2-1.6,0-2.2s.7-1.2,1.5-1.4c.4-.1.9,0,1.3.1s.6.4.6.8c0,0-.1.3-.2.4,0,0,0,0,0,0s.1,0,0,0l-.8.5c.2.3.4.5.8.5s.6-.2.7-.3c.3-.3.5-.7.5-1.2,0-.8-.5-1.4-1.1-1.8s-1.4-.4-2-.2c-1.1.3-1.8,1.1-2.2,2s-.3.9-.3,1.4,0,1,.2,1.5c1,2.7,4.3,3.7,6.8,2.6,2-.9,3.2-2.9,3.4-5.1h0v-.3c0,0,0-.1,0-.2h0l-.2-69.1h-1ZM100.7,157.3l-62.6.4h0c0,0-.1,0-.2,0h-.3c-2.2.3-4.2,1.5-5.1,3.5-1.1,2.5-.1,5.7,2.6,6.8.5.2,1,.3,1.5.2s1,0,1.4-.3c.9-.4,1.7-1.1,2-2.2.2-.6.1-1.4-.2-2s-.9-1.1-1.8-1.1c-.5,0-.8.2-1.2.5-.2.2-.3.4-.3.7s.2.6.5.8l.5-.8c0,0,0,0,0,0s0,0,0,0c0-.1.5-.2.4-.2.4,0,.7.2.8.6s.2.9.1,1.3c-.2.8-.7,1.2-1.4,1.5s-1.6.3-2.2,0c-2.1-.8-2.8-3.4-1.9-5.4.8-1.8,2.6-2.8,4.5-2.9l62.8-.4v-1Z"/>
      <path d="M30.9,158.8h-1.2c0,0,0-13.4,0-13.4,0-7.3,0-20.7.1-29.6,0-20.1,0-27.9,0-28.1,0,0,0-.1,0-.1s.1-.5,0-1,0-1.7,0-2.5,0-1.8,0-2.2,0-1.2,0-1.8,0-1.8,0-2.7,0-2.2,0-2.9,0-10.8,0-22.4c0-22.2,0-22.1.7-21.8.3.1,6.1.3,13.8.4,3.4,0,6.3,0,6.4.1s.3,0,.3,0,0-.1.2,0c0,0,2.4.1,5.2.2,3.8,0,5,0,5.1-.1,0-.2.2-.2.2,0,0,.2,2.4.2,9.6.2,5.2,0,10.1,0,10.9,0s1.4,0,1.5,0,.2,0,.3,0c0,.1.7.1,8.2,0,4,0,5.3-.1,8,0,.6,0,2.8,0,4.9,0,4.6,0,4.3,0,4.3.2s0,.3.2.3c.2,0,.2,21.5.1,50,0,.2,0,3.9,0,8.3s0,8.3,0,8.8,0,6.1,0,12.4c0,6.3,0,15,0,19.4s0,10.4,0,13.4,0,5.7,0,6.1c0,2.9,0,7.6-.1,8,0,.3-.2.6-.4.7-.2,0-2.4,0-4.8,0-6.2,0-9.8,0-19.1,0-4.4,0-8.1.1-8.2.1s-2.9,0-6.2,0-6.1,0-6.2,0-.2,0-.2,0-.1-.1-.3,0-3.3.1-6.9.2-6.9.2-7.2.2-.7.1-.9,0c-1.1-.3-7.8-.3-16.1,0-.8,0-2,0-2.7,0h0ZM36.6,157.8c0-.2.3-1,.5-1.8.3-1.4.4-1.6.8-2.8.4-1.1,1-3.4,1-3.8,0-.7-.3-.6-.6,0-.7,2.1-1.3,3.8-1.5,4.5-.1.4-.4,1.1-.5,1.4s-.4,1-.4,1.4-.2.7-.2.8-.1.2-.1.3,0,.1.1,0,.2,0,.4,0c.3.2.4.2.6-.2h0ZM33.6,157.5c.1-.2.3-.7.4-1.1.2-.8,1.6-4.3,2.1-5.5.8-1.9.9-2.1.8-2.2-.2-.2-.4.2-1.3,2.1-.5,1.1-1,2.3-1.2,2.6-.4.8-1.4,3.9-1.4,4.3s.3.3.5-.2h0ZM35.3,156.8c.3-1,.7-2.4,2-6,.2-.7.4-1.3.3-1.3s-.1,0-.1,0c-.2.2-1.1,2.5-1.5,3.7-.3.8-.6,1.6-.6,1.8-.5,1.4-.8,2.6-.7,2.8.2.5.5.2.7-.9h0ZM39.8,156.6c0-.3.2-1,.4-1.5s.4-1.4.6-2,.4-1.5.6-2c.4-1.3.4-1.8,0-1.8s-.3.1-.3.3c-.1.8-.4,2.1-.6,2.5-.1.3-.4,1.2-.6,2.1s-.5,1.7-.6,1.9c-.2.6-.3,1.4-.2,1.6.2.3.7-.5.8-1.2h0ZM43.7,156.7c0-.5.4-1.5.6-2.4s.4-1.7.4-1.9,0-.4.2-.5.1-.4.2-.8,0-.6.1-.7c0-.3-.2-.3-.4,0-.6,1.4-.7,1.7-1.1,3.8-.2,1.1-.6,2.5-.8,2.9-.2.4-.2.8,0,.8.3.1.5-.2.7-1.1h0ZM58.2,157.8c1.6,0,4-.4,4-.6s.2-.2.5-.3.6-.4.8-.5.3-.3.4-.3.2,0,.2-.1.2-.2.4-.3.8-.4,1.2-.8.8-.7.9-.7c.2,0,2.1-1.2,2.1-1.4,0,0,.1-.1.2-.1.2,0,1.1-.7,1.2-.9,0,0,.2-.1.3-.1s.3,0,.3-.1c0-.2,1.7-1.3,2.4-1.6.3-.2.6-.4.6-.4s.3-.3.7-.5.9-.6,1.2-.8.6-.5.7-.5.4-.2.7-.5.7-.6,1-.7.4-.3.4-.4,0-.1.1,0c.1,0,1.2-.7,2.6-1.8.2-.1.4-.3.5-.3s.2,0,.2-.2,0-.2.2-.1.4-.1.6-.4c.5-.4,1.4-1,1.9-1.3.2,0,.5-.4.8-.6s.5-.4.7-.4.2,0,.3-.1c.1-.3,1.3-1.2,2.1-1.6.5-.2.8-.5.8-.6,0-.1.4-.4,2-1.3.3-.2.5-.3.5-.4s.2-.1.3-.1.2,0,.2-.1.2-.3.4-.4.7-.5,1.1-.9.7-.6.9-.6.3-.1.5-.3.3-.3.4-.3.8-.5,1.5-1,1.3-1,1.4-1,.2,0,.2-.2-.1-.1-.3,0c-.2,0-.3,0-.3,0,0-.1,2.3-2.2,2.6-2.3.6-.3,1.7-1.1,1.7-1.2s.1-.2.2-.2.2,0,.1-.2,0-.2.1-.2c.3,0,1.1-1,1-1.2-.1-.4-.4-.3-.9.3-.3.3-1.1,1-1.9,1.6s-1.5,1.2-1.6,1.3c-.8.7-1.4,1.1-1.4.9,0-.2.5-.8.7-.8,0,0,.1-.2.2-.3s.1-.3.2-.3c.1,0,.3-.2,1.4-1.2.2-.2.4-.3.5-.3s.2,0,.2-.2,0-.2.2-.2.3-.1.5-.3.5-.5.8-.8c.4-.3.5-.6.5-.8,0-.2-.1-.3-.2-.3-.2,0-1.2.9-2.2,1.8-.6.6-2.2,1.8-2.9,2.3l-.6.4.3-.5c.5-.8,1-1.2,1.4-1.5.2-.1.6-.5.9-.8s.8-.8,1.1-1.1c1.3-1.1,1.5-1.3,1.5-1.6s-.1-.3-.3-.3c-.2,0-.5.2-2,1.6-.2.2-.5.4-.7.5s-.6.4-.8.7c-.8.8-2.5,2-2.5,1.7s1.3-1.5,1.4-1.5.3-.2.6-.5.6-.5.7-.5.1-.1.1-.3,0-.3.2-.3.4-.2.7-.4.6-.4.6-.4.3-.3.6-.6c.5-.6.7-1.2.4-1.2s-1.4,1-2,1.7c-.3.3-1.8,1.5-2.5,2.1-.2.2-.6.5-.9.7-.6.4-.8.5-.8.3s1.4-1.7,1.6-1.7.4-.2.7-.5.6-.5.6-.5.4-.2.6-.5.9-.8,1.3-1.3.8-.9.8-1.1c0-.5-.2-.4-1,.4-.8.9-2.1,2-2.4,2.1,0,0-.4.2-.6.4-1.8,1.6-2.3,2-2.5,1.8,0,0,0-.3.3-.5s.4-.5.4-.6,0-.2.2-.2.3-.1.3-.3.2-.3.2-.3.4-.3.8-.6.9-.8,1.2-1.1c.9-.6,2.2-2.1,2.1-2.3-.1-.2-1.2.7-2.2,1.7-.3.3-.6.6-.7.6s-.3.2-.6.5-.4.5-.5.5-.5.4-1,.8c-.9.8-1.7,1.1-1.5.6,0-.1,0-.3,0-.3-.2,0-2.4,1.6-3.2,2.4-.1.1-.3.2-.4.2s-.3.1-.4.2-.6.4-1,.7-1,.6-1.2.9-.4.4-.5.4c-.1,0-.4.2-.9.7-.1.2-.8.7-1.5,1.2-1.2.9-2.4,1.7-2.7,2.1,0,0-.4.3-.7.5s-.6.4-.6.5,0,.1-.2.1-.7.3-1.3.8l-1.8,1.2c-.3.2-.7.5-.7.6s-.2.2-.4.3-1.2.8-2.3,1.6c-2.5,1.7-3.6,2.5-4.3,2.9-.3.2-.6.4-.6.4s-.2.1-.3.2c-.4.2-1.7,1-2.8,1.8-.6.4-1.7,1.1-2.4,1.5-2.1,1.2-7.9,4.3-8.2,4.3-.1,0-.2,0-.2.2s-.1.2-.2.2c-.4,0-.5.3-.6,2.8,0,1-.1,2-.1,2.4,0,1,.2,1.2,1.3,1.1.5,0,1,0,1,0s0,0,.2,0,.9-.1,1.9-.1h0ZM56.9,155.3c0-.8,0-1.9-.1-2.6,0-.9,0-1.3.1-1.5.3-.3.4-.3.4,0s.5,1.5.7,1.6c.1,0,.5.9.4,1.1,0,0,0,.1.1.1.2,0,.5,1.1.4,1.4,0,.3-.1.3-.2,0-.1-.3-.2-.4-.3-.2,0,.1-.1.4-.1.5s-.1.3-.2.3-.2-.1-.2-.3c0-.4-.3-.3-.4.3-.3,1-.5.7-.5-.7h0ZM59.2,155.9c-.3-.3-.2-.4,0-.4s.5.4.3.6c0,0-.2,0-.3-.2ZM61,154.3c0-.7,0-1.6,0-2-.2-1.4-.2-2.6,0-2.8.1-.1.3,0,.7.4.3.3.6.6.5.7,0,.2,1.1,1.6,1.5,1.9.5.3.8,1.1.5,1.3-.1,0-.4,0-.6-.3l-.4-.4-.2.4c-.3.5-.5.5-.9,0-.2-.2-.4-.3-.4-.3s0,.3,0,.7c0,1-.2,1.3-.3,1.4-.1,0-.2-.4-.2-1.2h0ZM65.2,152.3c0-.3,0-.8,0-1.2s0-.6-.1-.6-.2-.5-.2-1.2-.1-1.3-.2-1.4,0-.4.2-.6c.2-.3.3-.3.9.3.3.4.6.8.6.9s.1.3.2.3.3.4.5.7.4.6.5.6.2,0,.3.2c0,.3,0,.3-.4.3-.5,0-.5,0-.5.5,0,.5-.3.9-.5.5,0,0,0-.2.1-.2s0-.1-.1-.3c-.4-.3-.7-.2-.7.2,0,.7,0,1.2-.2,1.2s-.2-.2-.3-.5h0ZM69.1,148.1c-.3-2.8-.3-3.6,0-3.7.3-.1.6.2,1,1.1.1.3.4.5.5.5s.2,0,.2.1.2.5.6.9.6.8.6.9-.2.1-.5.1-.4,0-.4-.3c0-.2,0-.3-.1-.3-.3,0-.4.3-.4.9s-.4.6-.5.2c0-.2-.2-.1-.4,0-.3.3-.3.3-.4-.6h0ZM73.9,146.3c0-.7-.3-3.4-.4-4.1-.1-.6.1-.9.6-.6.2.1.4.3.4.4,0,.2,1.3,1.4,1.5,1.4.1,0,.2,0,.2.2s.1.2.2.2.2.1.2.3,0,.3.2.3.2.2.2.3,0,.3-.2.3-.2,0-.2-.2-.1-.2-.2-.2-.3-.2-.4-.3c-.3-.6-.5-.2-.4.7,0,1-.1,1.3-.6.8-.5-.4-.7-.4-.7.1,0,.6-.2,1.2-.3,1.2s-.1-.3-.1-.7h0ZM78.1,142.8c0-.1,0-.7-.1-1.4-.2-2-.1-3.1,0-3.2.1,0,.2,0,.3.3s.2.4.3.4.2.2.1.3,0,.2.1.2.3.2.5.4.4.4.5.4c.3,0,.1.6-.2.7-.1,0-.2.3-.2.7,0,.6-.3,1.1-.6.7-.1-.2-.4,0-.4.4s-.5.5-.5.1h0ZM80.1,141.4c0-.2,0-.4,0-.6.2-.4.4-.4.4,0s0,.3-.1.3-.1.1-.2.3c0,.3,0,.3-.2,0ZM82.5,138.7c-.5-3.3-.6-3.6-.4-4,.2-.4.5-.5.6-.2,0,.2.7,1,.9,1s.2.2.3.4.2.5.4.5c.4.1.8,1,.8,1.7v.5l-.4-.5c-.4-.5-.4-.5-.5-.2,0,.2,0,.4,0,.5s0,.3,0,.4c-.2.2-.2.2-.6-.2l-.4-.5v.8c0,.5,0,.8-.2.9-.2,0-.3-.2-.4-1h0ZM87.6,136.3c0,0-.1-1-.2-2.1-.3-2.5-.3-3,0-3.3.2-.2.3-.2.5,0,.2.2.3.3.4.3.2,0,.6.4.6.6,0,0,.2.3.5.5s.5.4.5.5.2.3.4.4c.4.2.5.6.3,1,0,.2-.2.2-.2,0-.2-.3-.4-.2-.7.2-.3.3-.3.4-.5,0-.2-.5-.6-.8-.8-.7,0,0-.1.5-.1,1,0,1-.1,1.5-.4,1.5s-.1,0-.1-.1h0ZM92.7,133.4s0-.4,0-.9,0-1.5-.2-2.4c-.1-1.7-.1-2,0-2.3,0-.1.3,0,.6.4.2.3.6.8.9,1.1,1.1,1.2,1.8,2.6,1.2,2.6s-.2-.1-.1-.3c0-.2,0-.3-.2-.3s-.4,0-.5-.2c-.2-.2-.3,0-.2.4,0,.2-.4.5-.6.4,0,0-.2-.3-.2-.4s0-.3-.1-.3-.1.2-.1.5c0,.7-.4,1.9-.6,1.6h0ZM32.5,157.1c.3-1,1.1-3.4,1.3-3.4,0,0,.1-.1.1-.3s.5-1.2,1.1-2.5c1-2.1,1.2-2.8.8-2.8s-2.4,4.2-2.8,5.5c0,.2-.4,1-.7,1.8-.7,1.5-.8,2.4-.3,2.4s.4-.2.5-.7h0ZM38.1,157.3c.2-.3.4-.8.4-1s.4-1.6.8-2.8c1-3.6,1.2-4.1,1-4.2-.3-.2-1,1.3-1.4,2.8,0,.2-.1.5-.2.6s-.2.5-.2.8-.2.8-.2.9-.2.5-.2.8-.2.9-.3,1.3c-.4,1.3-.3,1.8.3.8h0ZM41.3,156c.3-.9.6-1.9.6-2.3s.2-1.2.4-1.7c.5-1.6.5-2.3.3-2.3s-.8,1.3-1,2.5c0,.4-.2.8-.3.8s-.1.2-.1.4-.2,1-.5,1.8c-.5,1.5-.6,2.3-.4,2.5.2.2.4-.1.9-1.8h0ZM45,157.4c.1-.2.3-1.1.4-1.9s.3-1.6.4-1.8.2-.7.3-1.2.3-1.1.4-1.3c.2-.4,0-.9-.3-.9s-.6.5-.5.8c0,0,0,.2,0,.4s-.2.6-.3,1-.3,1.2-.4,1.7c-.3,1.2-.6,3.1-.4,3.4.1.4.3.3.5-.2h0ZM47.5,157.7c.2-.3.7-2.3.9-3.6.1-.6.3-1.6.4-2.2l.2-1h-.4c-.3,0-.4,0-.4.4s0,.4-.2.5-.3,1.1-.5,2.4-.4,2.6-.5,3-.1.7,0,.7c.1.1.3.1.4,0ZM49.1,157.5c.1-.2.4-1.3.6-2.5s.5-2.4.5-2.5c.3-.7.3-1.3,0-1.4-.5-.2-.8.5-1.1,2.5-.2,1.1-.4,2.4-.5,2.9-.3,1.2,0,1.8.5,1.1ZM51.2,155.2c0-.4.3-1.3.4-1.9s.3-1.3.3-1.5c0-.3,0-.4-.3-.4s-.4.1-.6.4c-.2.6-.8,4.1-.7,4.4,0,.2,0,.3,0,.4-.3.2-.2,1,.1,1.1.2,0,.3-.1.5-.9.1-.5.3-1.3.4-1.7h0ZM53.2,156.6c0-.5.2-1.8.2-2.8v-1.8c0,0-.2,1.4-.2,1.4-.5,2.2-.7,4-.6,4.3.2.5.4,0,.6-1h0ZM71.5,157.6c.5,0,2,0,3.5,0s3.8,0,5.2,0c1.9,0,2.6,0,2.6-.2,0-.2,0-.2.1,0,.1.2,5.8.2,6.2,0,0,0,.2,0,.2,0s.5.1,1.1,0c.6,0,1.6,0,2.2,0s1.2,0,1.2-.2c0-.1.1-.1.1,0,0,.1.5.2,1.5.2.8,0,1.8,0,2.2,0s.7,0,.7-.2.2-.1.3,0c.3.2,2.7.2,2.7,0s0-.1.2,0c.1,0,.7.1,1.4.1,1.9,0,1.7,0,1.5-.6-.2-.5-.6-1.3-.7-1.5,0,0-.2-.3-.3-.6-.6-1.1-1.9-3.5-2-3.6-.1,0-1.5-2.9-2.7-5.3-.3-.6-1-2-1.6-3-1.2-2-1-1.9-2.5-1.5-.4.1-1,.2-1.3.3s-1,.2-1.6.4-1.2.4-1.4.4-.7.2-1,.2-.9.2-1.1.2c-.5,0-1.9.7-2.9,1.5-.3.2-.8.5-1.1.7s-.6.3-.6.4c-.2.2-2,1.5-2.2,1.5s-.2,0-.2.2-.3.3-.6.5c-.6.3-1.1.6-1.4.9,0,0-.5.3-.9.6-2.6,1.8-4.3,2.9-5,3.5-.2.2-.8.6-1.3.9s-1,.6-1,.7-.1.1-.2.1-.5.2-.8.5-.7.5-.8.5-.4.2-.8.5-1,.7-1.3.9-.7.5-.7.6.5.1,1.1.1c.6,0,1.2,0,1.2.1s.5,0,1,0,1.3-.1,1.8-.1h0ZM42.5,156.4c.2-.7.5-1.7.6-2.2s.3-1.2.4-1.6.2-.8.2-1,.1-.5.2-.8c.3-.7.2-.9-.1-.9s-.3.1-.4.5c0,.3-.2.8-.3,1.3s-.3,1.4-.5,2.1-.4,1.7-.5,2.2c-.4,1.1-.4,1.8,0,1.8s.4-.5.6-1.3h0ZM46.3,157.3c.1-.4.3-1.2.6-2.9.1-.6.3-1.5.5-2.2.3-1.4.4-1.8.1-1.7-.3.1-1.2,3.3-1.6,5.8,0,.2-.1.6-.2.9-.1.6.3.6.6,0h0ZM64.6,157.4c.1-.1.3-.2.4-.2s.2,0,.2-.2.1-.2.3-.2.3,0,.2-.2c0-.1,0-.2,0-.2.4,0,.7,0,1.1-.5.3-.3.7-.5.9-.6s.5-.2.6-.4.3-.2.3-.1.2,0,.5-.3.6-.4.7-.4.3-.1.4-.3.5-.4.8-.6.7-.4.8-.5.7-.5,1.2-.8c1.3-.7,2-1.1,2.4-1.5.2-.2.6-.5.8-.6s.5-.4.6-.5.2-.2.4-.2.2,0,.1-.2,0-.2.1-.1c.2,0,1.2-.5,1.2-.7,0,0,0-.1.2-.1s.3-.1.5-.3.7-.6,1.1-.9.9-.8,1-1c.1-.2.4-.3.7-.3s.5,0,.5-.1c0-.2,1.3-1,1.8-1.2.3-.1.6-.4.7-.5s.2-.3.3-.2.3,0,.5-.2.5-.3.6-.3.2,0,.2-.2.4-.4.8-.6c1.2-.7,1.4-.8,1.8-1.2.2-.2.5-.3.8-.4.2,0,.6-.3.9-.6.3-.3.6-.5.6-.5s.3-.1.6-.3.5-.3.5-.3.3-.2.6-.5.7-.5.9-.6c.4,0,1.3-.8,1.3-1.1s.1-.2.3-.2.3,0,.3-.2.3-.3.7-.5.9-.5,1-.7.5-.4.7-.5.5-.3.5-.3c0,0,.5-.4.9-.7s.9-.7.9-.7.3-.3.7-.4.9-.7,1.3-1.1.7-.7.7-.6.2,0,.4-.2.5-.4.7-.5c.4-.2.5-.9.1-1.2-.3-.3-.8,0-1.6.7-.9,1-3.2,2.7-4.5,3.4-.3.2-.7.4-.8.5-.1.1-.9.7-1.7,1.2s-1.6,1.1-1.8,1.3-.4.3-.5.3-.8.5-1.5,1c-2.2,1.6-2.2,1.7-4,2.8-.7.4-1.4,1-1.7,1.2-.7.5-3.1,2.1-3.2,2.1s-.2,0-.2.1-.4.4-.9.7-1.1.8-1.3,1-.8.6-1.2.8-1.1.7-1.6,1-1.1.7-1.3.8-.4.2-.4.3,0,.2-.1.2-.6.3-1.1.6-1.2.8-1.6,1-.7.4-.8.5-.5.4-1,.7-1,.7-1,.7-.6.4-1.3.9-1.7,1.1-2.3,1.5-1.2.8-1.4.8-.3,0-.3.2-.2.3-.5.4-.6.4-.7.5-.3.2-.4.2c-.2,0-1.2.8-1.2,1s1.2.1,1.4-.1h0ZM52,156.7c0-.4.2-1.4.4-2.2.4-2.5.5-2.8.3-2.8s-1.2,5-1.2,5.6c0,.5.4,0,.5-.6h0ZM107,156.8c0-.6-.5-1.7-.7-1.7s-.2,0-.2-.2-.2-.5-.4-.9-.7-1.2-1-1.8-.6-1.2-.8-1.3-.2-.3-.2-.4-.1-.2-.2-.3-.2-.2-.1-.3,0-.3-.1-.5-.3-.4-.4-.7-.3-.5-.3-.5-.2-.2-.2-.5-.3-.8-.6-1.2-.4-.7-.3-.7,0,0-.1-.2c-.1-.1-.4-.5-.6-1s-.5-1.1-.7-1.5-.3-.7-.3-.7,0-.1-.2-.3-.4-.6-.5-1c-.2-.7-.2-.7-.8-.7-.6,0-.7,0-.7.6,0,.3,0,.5.1.5s.2,0,.2.2.2.4.4.7.4.6.3.7,0,.3.3.4.4.4.4.6c0,.3.5,1.2.8,1.5,0,0,.2.3.2.6s.3.8.5,1.1.4.7.3.7,0,.2.3.4.4.6.6.9.3.5.4.5.1,0,0,.2,0,.2,0,.3.2.2.2.4.2.4.3.6.3.3.2.3,0,.2.2.5.3.6.3.7,0,.2.2.2.2.2.2.5.2.5.3.7.2.3.2.3.1.3.3.6.4.5.4.6c0,.2,1.2,1.4,1.4,1.5.4.1.6,0,.5-.5h0ZM109,157c.3,0,.2-1.1-.2-1.4-.2-.1-.4-.4-.4-.7s-.2-.5-.3-.5-.2-.2-.2-.3c0-.2-.5-1.3-.8-1.9-.1-.2-.5-.8-.8-1.3s-.6-1.1-.6-1.2-.1-.2-.2-.3-.2-.2-.2-.4,0-.4-.2-.4-.2-.2-.2-.4-.2-.4-.3-.5-.3-.2-.3-.4-.1-.4-.3-.5-.3-.3-.3-.5-.1-.5-.3-.8-.3-.6-.3-.8-.2-.5-.5-.8-.5-.7-.5-.8,0-.2-.2-.2-.2-.1-.2-.3-.3-.5-.4-.7-.5-.7-.7-1.1c-.2-.4-.4-.7-.6-.7-.5,0-.5.5-.1,1.2.2.3.3.7.3.9s.1.3.2.4.5.7.7,1.2.6,1.1.7,1.3.6,1,1,1.9.9,1.8,1,1.9.1.2,0,.2,0,0,.1.2.2.2.2.3,0,.2.1.2.3.2.3.4c.2.7,1.4,3.2,1.6,3.2.1,0,.2.2.2.3,0,.2.3.7.8,1.3.1.2.2.3.2.4s0,.3.2.5c.2.3.2.6.2.9,0,.4,0,.5.2.5s.3,0,.3-.2,0,0,.2.1c.2.3.2.3.2,0,0-.2.1-.3.2-.3h0ZM30.9,157c0,0,.2-.7.5-1.4s.7-1.6.9-2.1.5-1.3.8-1.8c.4-1,.7-1.6.7-1.8,0,0,.3-.5.7-1.1s.7-1.2.7-1.3,0-.5.2-.8.3-.6.3-.8.3-.3.6-.4c.5-.2.5-.3.8-1.3.2-.6.4-1.6.6-2,.2-.6.3-1.1.2-1.8,0-1.1,0-1.2.8-1.5.3-.1.4-.1.3,0-.2.3.5.2.8-.2.3-.3.9-1.6,1.6-3.5.1-.3.5-1.3.9-2.1s.8-1.9,1-2.3.9-2.1,1.6-3.8,1.7-3.8,2.2-4.9,1.4-3.1,2.1-4.5,1.2-2.7,1.3-2.9.2-.5.3-.7.4-.7.6-1.2c.9-2.2,2.7-6.1,3.9-8.4.8-1.6,1.6-3.3,1.9-4.3.2-.5.2-.9,0-1.6-.1-.7-.1-1.1,0-1.5.2-.5.4-2.8.3-3.1,0-.1-.3-.3-.7-.3s-.8-.3-1-.4-.6-.3-.7-.3-.5-.1-.7-.3c-.7-.4-1-.3-1.1.3,0,.3-.1.8,0,1.1s0,1-.2,1.6-.2,1.1-.2,1.3c0,1.8-.6,5.6-1.7,9.9-1.2,5-3,9.9-3.9,10.3-.3.1-.6.2-.7.2s-.8-.1-1.6-.2c-1.5,0-3.4-.3-5.7-.6-.7,0-1.8-.2-2.5-.3s-1.6-.1-2.1-.2c-1-.1-1.4,0-1.7.1-.1.1-.3,0-.6,0-.2-.1-.7-.3-1.1-.4h-.7c0-.1,0,5.7,0,5.7,0,7.5,0,34.1,0,35.1,0,.4,0,.7.2.7s.1,0,.1-.2h0ZM109.3,149.8v-4.2s-.4,0-.4,0c-.2,0-.4,0-.5.2-.1.2-2.7.1-3.2,0-.2,0-.4-.2-.4-.3,0-.1-.2-.1-.3,0-.2.2,0,1.2.4,1.5.1.1.2.3.2.5s0,.2.2.2.2,0,.2.2c0,.2.8,1.5,1,1.7,0,0,.4.7.7,1.4s.7,1.3.7,1.3.1.1.1.3.1.3.2.4.2.2.2.3c0,.3.5,1.1.6,1,0,0,.1-2,.1-4.3h0ZM53.8,150.2c0-.2,0-.5,0-.6s-.8-.2-1.6-.3-1.6-.2-1.6-.3-.5-.1-.8-.2-.9-.1-1.1-.2c-.4-.2-.8-.2-3.9-.7-.8-.1-1.9-.3-2.5-.5s-1.7-.3-2.4-.4-1.6-.3-2.1-.4c-.9-.3-1.4-.2-1.5.2-.1.3,0,.7.3.7.3,0,2.2.5,2.4.6.1,0,.7.1,1.2.2,1.6.1,1.7.1,1.8.3,0,0,.3.2.6.2s.8.1,1.2.2.8.1.9.1.4,0,.5.2.5.2.8.2.7.1.9.2.3,0,.3,0,.1,0,.3,0c.1.1.3.2.5.2.2,0,1.5.1,3.8.6,1.8.4,2.1.4,2.2-.2h0ZM55.2,150.3c0-.1.5-.3.9-.4s.9-.3,1-.4.4-.3.6-.3.6-.3.9-.4.8-.5,1.2-.7.7-.4.7-.6.2-.2.5-.2c.3,0,.5,0,.6-.2,0-.1,2-1.3,4-2.5.4-.2,1.1-.7,1.5-1.1s.9-.6,1-.6.4-.2.6-.4.5-.4.6-.4.4-.1.5-.2.2-.2.3-.2.2,0,.4-.3.3-.3.4-.3.3-.2.5-.3.5-.3.6-.3.4-.2.5-.3.3-.3.4-.3.2,0,.2-.1.5-.5,1.2-.9,1.4-.9,1.6-1.2c.4-.4,1.2-1,2.4-1.5.4-.2.6-.4.6-.5s0-.2.2-.2.4-.2.6-.4.4-.4.5-.4,1-.6,1.8-1.2,1.7-1.2,1.8-1.3.3-.2.5-.4.5-.5.7-.5.4-.2.4-.2.4-.5,1-.9,1.1-.8,1.1-.9.5-.4.9-.7.7-.5.8-.6.5-.4,1.1-.8,1.1-.8,1.1-.8.5-.4,1-.8,1.1-.9,1.3-1.1.4-.3.4-.3.2,0,.3-.3.3-.4.4-.4.4-.3.7-.6.9-.9,1.3-1.2,1.1-.9,1.5-1.4c.6-.6.7-.9.7-1.2-.2-.7-.4-.6-1.4.4-.5.6-1.3,1.3-1.7,1.7s-1.4,1.1-2.2,1.7-1.4,1.2-1.4,1.2-.3.3-.6.4c-.8.4-2.2,1.5-2.2,1.7s0,.2-.2.2c-.2,0-2.1,1.4-3.8,2.7-.6.5-1.1.8-1.2.8s-.2.1-.2.3,0,.2-.1.2-.6.3-1.1.8-1.3,1-1.6,1.1-.6.3-.6.4c-.2.2-1.4,1.2-2.7,2.1-3,2.2-5.5,4-6.5,4.7-.6.4-1.2.9-1.4,1-.8.7-2,1.5-2.8,1.9-.5.2-.9.5-1,.6s-.7.5-1.4.9c-2.3,1.3-2.8,1.6-3,1.7-.3.3-2.4,1.4-2.6,1.4s-.3.1-.5.3-.4.4-.6.4-1.1.4-1.9.9c-1.6.8-1.9,1.1-1.7,1.8.1.3.5.3.6,0h0ZM55.1,148.4c.4-.2.8-.4,1-.4s.2,0,.2-.2.1-.2.3-.2c.3,0,1.6-.7,1.6-.9s.3-.3.7-.4.9-.4,1-.5.3-.2.4-.1.2,0,.4-.2.6-.5,1.1-.7.9-.5,1-.6.2-.2.4-.2.5-.2.9-.4.7-.4.8-.4.3-.2.6-.4.4-.4.4-.4.4-.1.8-.4.8-.5.8-.6,0-.1.1-.1c.2,0,1.7-1,1.7-1.2s0-.1.2-.1c.2,0,1.1-.6,1.8-1.1.2-.2.7-.5,1.2-.8.2-.2.8-.7,1.3-1.1s1.1-1.1,1.4-1.4,1-1,1.4-1.5,1-1.2,1.2-1.5.8-1,1.2-1.5.7-1,.8-1.1.2-.2.2-.3.2-.4.4-.6.5-.6.7-1,.4-.7.4-.7c.2-.2.7-1.7.6-1.7,0,0-.5,0-.9.3s-.8.4-1,.4-.2,0-.2.2-.1.2-.2.2-.2,0-.2.2-.2.2-.4.3c-.4.2-1,.5-1.1.7,0,0-.5.3-1.1.6s-1.5.8-2.1,1.2-1.4.8-1.8,1.1-1.2.7-1.8,1c-1.4.8-2.4,1.3-2.9,1.5-.2,0-.4.2-.4.3s-.1.2-.3.2-.4.1-.6.3c-.4.3-1.4,1-2.8,1.7-.6.3-1.1.6-1.1.6s-.4.2-.7.4c-.7.4-1.5.9-1.8,1.2-.1.1-.5.3-.8.5s-.6.3-.7.4-.5.4-1.1.7-1.3.8-1.5,1-.7.6-1,.7c-.3.2-.5.5-.6,1-.1.4-.3,1-.4,1.4s-.2.8-.2.9c0,.8,0,1.5-.2,1.6,0,0-.1.7-.1,1.4,0,1.5,0,1.6,1.2.9h0ZM53,147.4c.1-.2.1-.2.3-1.9v-1.1c.1,0-.3.1-.3.1-.2,0-.6.3-.9.5-.5.5-.9.5-1,.1,0-.2-.2-.4-.4-.6-.3-.3-.3-.3-.8.1-.5.4-1.3.4-1.1,0,0,0,0-.1,0-.1s-.2-.1-.2-.3c0-.2-.2-.3-.5-.2-.2,0-.5.2-.6.3-.2.3-.8.3-.8,0s-.6-.8-.9-.8c0,0-.4.1-.6.3-.4.3-1,.3-1,0s-.1-.3-.3-.6c-.3-.4-.3-.4-1-.2-.7.3-.7.3-1.1-.1-.4-.4-.8-.5-1-.2-.2.4-1.2-.1-1.2-.7s-.3-.2-.8,0c-.2.1-.5.4-.6.8-.3.9-.3,1.1,0,1.5.1.2.2.6.2.8,0,.5.2.5.9,0,.6-.4,1.2-.5,1.2-.2,0,.1.1.4.2.5.2.3.2.3.9,0,.8-.4,1-.5,1.1,0,0,.2.3.4.5.5.3.2.5.2.8,0,.5-.3.5-.2.9.2.4.4.5.5,1,.3.6-.2,1.3,0,1.3.5s.4.2.6,0c0,0,.2-.1.4-.1s.3,0,.3-.2c0-.4.5-.1.9.4l.4.6.6-.3c.7-.3.9-.3,1.4.3.3.3.3.3.7.1.2-.1.5-.3.6-.5h0ZM109.2,144c.1-.5-.2-2-.5-2.6-.1-.2-.3-.7-.3-1.2,0-.7-.3-1.2-.6-1.2s.2,1.4.7,3.3c.2.8.3,1.5.2,1.5s0,.2,0,.2.1.1,0,.3,0,.3,0,.3.2-.2.2-.5h0ZM107.1,143.9c0-.2,0-.4-.1-.4s-.2-.4-.2-1c-.1-1.3-.8-3.5-1-3.5-.1,0-.2.1,0,.6,0,.3.1.8,0,1s0,.4.1.5.2.7.4,1.3c.3,1.4.6,2,.7,2s.1-.2.1-.4ZM108.3,144.1c.2-.2.2-.2,0-.3-.1,0-.2-.2-.2-.4s0-.2-.2-.2c-.3.2-.2,1.1.1,1.1s.2-.1.3-.2ZM104.7,143.8c0-.2-.1-.7-.2-1-.2-.7-.3-.8-.5-2.3-.1-.8-.4-1.2-.5-.6,0,.3.4,2.1.6,2.6,0,.2.2.7.2,1,.1.7.4,1,.4.3ZM105.8,143.3c0-.1-.3-.6-.5-1-.3-.6-.3-.6-.2-.3,0,.3.2.5.2.6s0,.1,0,.3,0,.4,0,.7c.1.4.2.4.3.3,0-.1,0-.3,0-.5ZM53.6,143.5c0,0,.1-.3.2-.6,0-.4,0-.4-.7-.5-.4,0-1-.2-1.4-.3l-.9-.3c-.2,0-.8-.1-1.5-.2s-1.7-.3-2.3-.4-1.8-.4-2.6-.5-1.9-.4-2.4-.5-1.1-.3-1.3-.3-.7-.1-1.1-.3c-.6-.2-.8-.2-.9,0-.2.3,0,.6.2.5.1,0,.3,0,.3.2,0,.2,2,1,2.7,1s.3,0,.4.2.2.1.4,0,.3,0,.4.1c0,.1.2.1.3,0,.2-.2.2-.1.3,0,0,.2.3.3.6.2.3,0,.6,0,.7,0,.1,0,.5.1.9.2l1,.2c.2,0,.7.1,1.2.2s.8.1.9.2c.1.2,1.4.4,1.4.2s.1,0,.4,0c.2.1.8.3,1.3.3s1,.1,1.1.2c.1.2.3.1.4,0h0ZM103.5,143.4c-.1-.1-.1-.4,0-.6s0-.5,0-.5-.2-.5-.3-1.1c-.2-1.1-.5-1.7-.5-1.1,0,.7.4,2.4.5,2.3,0,0,.1,0,.1.2,0,.4.2,1.1.4,1.1s.1,0,0-.2h0ZM107.6,141.6c-.2-.8-.6-1.4-.4-.6,0,.2.1.8.2,1.2,0,.7.1.8.3.5.1-.2,0-.6,0-1.1h0ZM54.3,140.9c.7-.6,2.4-1.7,2.6-1.7s.4-.3.9-.6,1.1-.7,1.4-.9.7-.4.9-.6.4-.3.5-.3c0,0,.4-.3.8-.5s1.3-.8,2-1.2,1.4-.8,1.4-.8.2,0,.2-.1.4-.3.9-.6,1.4-.8,2-1.1,1.2-.7,1.3-.8.3-.2.3-.2c.1-.2,1.5-.8,1.7-.8.1,0,.2,0,.3-.2.2-.3,1.1-.9,1.5-1.1.2,0,.4-.2.4-.2,0-.1.3-.3,2-1.1.5-.3,1-.5,1-.6s.2-.1.3-.1c.2,0,.9-.3,1-.5,0,0,.4-.3.7-.5s.8-.5,1-.7.4-.4.6-.4c.4,0,1.7-.8,1.7-1s0-.1.2-.1c.3,0,.7-.8.8-1.7,0-.7,0-.8-.2-.8s-.4,0-.4.1c0,.2-2.5,1.7-2.7,1.7s-.3.2-.6.4c-.7.5-1.2.8-1.4.7,0,0-.2,0-.4.2s-.4.4-.7.4-.7.3-1,.5-1,.6-1.4.8c-1.2.7-1.3.8-1.8,1.1-.8.5-1,.7-2.2,1.3-.6.3-1.3.7-1.6.9s-.8.5-1.3.7-.8.5-.8.6,0,.2-.2.2c-.3,0-1.1.4-2.1,1.2-.5.3-1.1.7-1.4.8s-.7.4-.9.6-.7.4-.9.5-.6.3-.9.5-.7.4-.9.6c-.5.3-1.1.7-2.1,1.3-.4.2-.7.5-.8.5s-.7.4-1.3.8c-1,.7-1.3.9-1.4,1.5,0,.3-.2.7-.2.8,0,.3.3.9.4.9s.4-.3.8-.6h0ZM91.6,141.1c.3-.3.5-1,.3-1s-1.3.7-1.6,1c-.3.3-.3.3.3.3.4,0,.8-.1,1-.3h0ZM105.2,140.9c0-.3,0-.3-.2-.1-.2.3-.2.5,0,.5s.2-.2.2-.4ZM52.1,140.9c.2-.2.3-.4.3-.6,0-.4,1.3-4.7,1.6-5.4,0-.2.1-.5,0-.6s0-.3,0-.3.1,0,.1-.2c0-.2.9-3.1,1.6-4.8,0-.2.4-1.1.7-2s.7-1.8.8-2.1l.5-1.3c.2-.4.4-.9.4-1.2.2-.8,1.1-3.1,1.5-3.9.2-.5.5-1.1.6-1.5s.4-1,.6-1.4c.3-.6,1-2.3,1.5-3.4.1-.4,1.2-2.7,1.4-3.1.6-1.1,1.3-2.6,1.3-2.7,0,0,.2-.3.3-.7s.5-.9.7-1.3c.5-1.1.8-1.7,1.2-2.3.2-.3.4-.6.4-.7s0-.2.1-.2.2-.1.2-.3.1-.4.2-.6c0-.2,0-.3-.4-.4-.7-.2-1,.1-1.6,1.4-.3.6-.6,1.2-.6,1.2-.2.1-1.2,2.1-2.1,4-.4,1-.9,1.8-.9,1.8-.2.2-1.2,2.5-2.1,4.5-.4,1.1-.9,2.4-1.1,2.8s-.3.8-.3.9-.2.7-.5,1.3-.7,1.7-.9,2.3-.5,1.5-.7,1.9c-.6,1.5-1.1,2.7-1.2,3.2-.2.7-1.6,5-2,5.9-.5,1.3-.6,1.5-.7,1.9,0,.2-.2.8-.4,1.3s-.5,1.2-.6,1.8-.4,1-.5,1.2-.2.4-.2.6,0,.4-.1.4c-.1.1-.4,1.1-.7,2.1,0,.3,0,.6,0,.6.5.2,1,0,1.2-.2h0ZM50.2,140.2c0-.4.4-1.2.6-1.7s.4-1,.4-1,.4-1.3.9-2.6,1-2.9,1.2-3.4c.3-.9.6-1.6,1-2.6.1-.3.2-.6.2-.8,0-.3,1-3.1,1.3-3.6,0-.2.2-.4.2-.6s0-.3.1-.3.2-.2.2-.5.3-.9.5-1.4c.4-.8.9-2.2,1.5-3.9.1-.4.3-.8.4-1s.4-1,.8-1.8.8-1.8.9-2.3.6-1.5,1.1-2.4.9-1.8,1-2,.3-.6.4-.9.7-1.5,1.2-2.6,1.3-2.6,1.6-3.3.7-1.3.7-1.4-.2-.2-.4-.1-.7,0-1.1,0c-1.3-.2-3.4-.3-4-.2-.4,0-.6.2-.8.8-.1.4-.3.8-.5.9s-.2.3-.2.5-.1.4-.2.5-.2.3-.2.4-.2.5-.5.9-.6,1.1-.8,1.5c-.3.7-.6,1.3-1.4,2.9-.7,1.3-1.2,2.4-1.5,3.3-.2.5-.4,1-.6,1.3s-.3.5-.3.6,0,.2-.1.2c-.2,0-1.3,2.6-2.9,6.4-.2.6-.5,1.2-.6,1.3-.3.8-.7,1.7-1.3,3-.3.7-.6,1.5-.6,1.7s-.1.5-.3.7c-.4.5-1.6,3.4-2.2,5-.4,1.2-1.2,3.1-1.5,3.7,0,.2-.2.4-.2.5,0,.2-.2.7-.8,2.1-.2.4-.3,1-.3,1.3s0,.4,0,.3c0-.3.4-.3.3,0,0,.1.1.2.3.2.7.1,1.9.5,2,.6,0,0,.4,0,.8,0s.7,0,.7,0c.1.2,1,.5,1.9.5h.7s.2-.7.2-.7h0ZM45.7,139.8c0-.4.4-.9.9-1.4.3-.2.8-.9,1.2-1.5.8-1.4,1.1-1.4,1-.2,0,.5-.1,1.4-.2,2,0,.8-.2,1.1-.3,1.1s-.2-.2-.2-.4c0-.5-.2-.6-.4-.2-.1.4-.5.3-.6-.1,0-.3-.1-.3-.3-.1-.1.1-.3.4-.4.6-.1.4-.6.5-.6.2h0ZM49.4,132.6v-1s-.6.6-.6.6c-.5.6-1,.8-1,.5,0,0,.3-.5.7-.9s.7-.9.7-1,0-.2.2-.3.3-.3.4-.6.5-.8.8-1.2c.7-1.1,1-.9.7.7,0,.6-.2,1.6-.2,2.2,0,1.1-.2,1.9-.5,1.8,0,0-.2-.2-.1-.3.1-.9-.3-.9-.7,0-.3.8-.4.7-.5-.4h0ZM52.8,124.7v-.9l-.4.6c-.6.9-.8.8-.5-.3.2-.7,0-.7-.7.1-.8.9-1.2.9-.5,0,.3-.4.8-1,1.1-1.4.6-.7,1.5-2,1.5-2.3s.5-.7.7-.7.1.9,0,1.1c0,0-.1.3-.1.5s-.1.8-.2,1.3-.2,1.3-.3,1.8c0,.7-.2,1-.3,1s-.2-.2-.2-.9h0ZM55.6,116.1c0-.1,0-.5.2-.9s.1-.9,0-1c0-.2-.2-.2-.5.2-.2.3-.5.5-.5.5-.3,0,0-.5.4-1.1.8-1,.9-1.1,1.3-1.7.2-.3.3-.6.4-.7s.2-.3.4-.5c.4-.7,1.1-.5.7.2,0,.1-.1.8-.2,1.4s0,1.5-.2,2l-.2,1.2c-.1.7-.4,0-.4-1,0-.5,0-.9-.1-.9s-.3.5-.5,1c-.4,1-.8,1.6-.8,1.2h0ZM59.9,106.3c0,0,0-.3,0-.4,0-.1,0-.1-.4,0-.7.2-.6-.2.1-1,.3-.4.6-.7.7-.8s.3-.6.7-1.1c.4-.6.7-1,.9-1,.3,0,.3,0,.2.9,0,.5-.2,1.4-.2,2.1,0,1-.2,1.3-.4,1.3-.2,0-.3-.1-.4-.4-.1-.4-.6-.6-.6-.2s-.6.8-.7.6h0ZM95.6,140.2c.3-.1.7-.3.9-.3s.4,0,.4-.1.4-.2.9-.2.9-.1,1-.2c.2-.2,0-1.5-.1-2.7-.2-1.2-.2-1.2-1.6-.3-1,.6-1,.8-.6,1.2.4.5.4,1.1,0,1.3-.2.1-.4.3-.4.3,0,.2-.7.4-.8.1,0-.1,0-.5,0-.8,0-.7,0-.8-.5-.3-.2.2-.6.4-.9.6-.4.3-.4.3-.2.5.1.1.3.3.3.4s.1.2.2.2.2,0,.2.2c0,.3.7.3,1.4,0h0ZM97,139c-.2-.2-.1-.4.1-.3.1,0,.2.2.2.2,0,.2-.2.2-.4,0ZM105,140.2c0-.1,0-.5,0-.7s0-.4-.2-.3c-.2.2,0,1.2.2,1.2s.1-.1,0-.3ZM107.2,139.8c0-.3-.1-.8-.1-.9s0-.2-.1-.2c-.2.1-.2,1,0,1.1,0,0,.1.2,0,.3s0,.2.1.2.2-.2,0-.6ZM109.2,138.7c0-.4,0-.6-.2-.6-.3,0-.4.3-.2.4,0,0,.1.2,0,.2,0,.2,0,.7.2.6,0,0,0-.3.1-.7ZM42.5,138.7c.3-.8.8-2.2,1.6-4.5.1-.4.6-1.4,1-2.4s.8-1.9.9-2.1.2-.5.2-.5.3-.4.4-.7c.6-1.4.7-1.7.7-1.8s.2-.6.6-1.3.6-1.3.6-1.4.3-.8.7-1.7c1.1-2.4,1.8-4.1,1.8-4.2s.9-2.1,2.3-5.2c1.4-3.1,1.8-4,1.8-4.2s0-.2.1-.2.2-.2.3-.5c.4-.9.7-1.7.9-2,.1-.1.4-.6.6-1.1s.6-1.1.8-1.5.4-.8.5-.9.1-.4.2-.5l.6-1.1c.2-.5.5-.9.6-1,.3-.2,0-.6-.5-.6s-.8.4-1.3,1.4c-.5,1.1-1.4,2.8-1.7,3.2-.2.2-.4.7-.5,1s-.3.7-.4.8c-.4.6-5.2,11.3-5.2,11.4s-2,4.7-3.5,7.9c-1.8,3.9-2.4,5.2-2.4,5.3s-.5,1.2-1.1,2.4c-1.4,3.1-2.5,5.8-2.2,5.8,0,0,.2.2.2.3s.2.2.6.2.7,0,.9-.6h0ZM102.2,138.7c.5,0,.9-.2,1.1-.3s.2-.1.3,0,.3,0,.5-.2.6-.4.9-.5.5-.3.5-.3.2-.2.4-.3.4-.3.4-.4.2-.3.4-.3c.5-.1,1.9-1.4,1.9-1.7s-.3-.2-.7.2c-.8.8-2.1,1.8-2.5,1.8s0-.3.7-1c.6-.6,1.2-1.1,1.4-1.3s.4-.4.4-.5,0-.2-.4,0c-.2.2-.4.3-.4.4s0,.1-.2.1-.5.3-.9.6-.8.6-1,.7-.3.2-.3.3-.1.2-.3.2-.4.2-.5.3c-.2.3-.8.5-.8.3s.7-.9.9-.9.5-.3.8-.6.9-.8,1.2-1,.6-.5.6-.6.1-.2.3-.2c.5-.2.5-.6,0-1-.4-.5-.8-.5-1-.2-.2.3-1.5,1.4-2.7,2-1.6,1-1.5.6.3-1,.7-.6.7-.9,0-.4-.3.2-.6.4-.7.4-.1,0-.3.2-.4.4s-.2.2-.2.1-.2,0-.4.3-.5.4-.6.4-.4.2-.6.3c-.5.5-.9.4-.8,0q0-.4-.4,0c-.3.2-.5.4-.5.5,0,.2,1.1,1.4,1.3,1.4s.1.1.1.2,0,.3.2.4.3.3.3.5c0,.3,0,.4-.3.3-.3,0-.4,0-.5.2-.1.2-.3.3-.5.2-.4-.1-.7,0-.5.3.2.2,1.3.2,2.9,0h0ZM101.9,136c0,0,.2-.3.6-.4s.8-.6,1.1-.9.6-.6.7-.6.4-.3.7-.6.6-.6.7-.6.2,0,.2-.2,0-.2.2-.2.3-.1.5-.3c.2-.2.3-.2.3,0,0,.2,0,.4-.3.6-.2.2-.5.5-.7.6-.7.7-3.4,2.4-3.7,2.4s-.1,0-.1-.1h0ZM108,138.4c0,0,0-.1-.2,0s-.2.2-.2.3,0,.1.2,0,.2-.2.2-.3ZM54.3,137.5c0,0,.1-.1.3-.1.3,0,2.9-1.6,3.1-1.9,0,0,.2-.2.4-.2s.3,0,.3-.2.2-.2.4-.3c.6-.2,1.5-.8,1.9-1.2.2-.2.5-.3.7-.4s.6-.3.9-.4.6-.4.8-.5.4-.2.4-.3c.2-.2.7-.5,1-.6.2,0,.3-.2.3-.2s.2-.2.5-.2.7-.3.8-.4.4-.3.5-.3.3,0,.4-.2c.2-.2,1.2-.8,2.3-1.4,1.3-.7,1.8-1,2.2-1.4.2-.2.5-.5.7-.6.5-.3.5-.5.1-.6-.2,0-.3-.2-.3-.4s-.2-.5-.4-.7-.5-.5-.6-.7c0-.2-.2-.3-.6-.2-.3,0-.9.1-1.4.1-.8,0-.9,0-1-.3,0-.2-.2-.4-.3-.4s0-.2.2-.5l.3-.5-.4-.3c-.5-.5-.9-.4-2.3.3-.7.3-1.2.6-1.3.6s-.2,0-.3.1c-.6.4-2,1.1-2.2,1.1s-.5.2-.8.4-.7.4-.9.4-.4.1-.6.3-.3.3-.3.2-.4.1-.9.4c-.8.4-.9.5-1.2,1.4-.2.5-.6,1.5-.8,2.2s-.5,1.3-.5,1.5-.1.6-.3,1c-1,2.5-1.9,5.8-1.6,5.8s.2,0,.2-.2h0ZM55.5,135.3c0,0,0-.2.2-.2s.2,0,.2-.2,0-.1.2,0,.2.2.2.2c0,.2-.6.3-.7.2ZM58,133.9c-.2-.3,0-.7.4-.7.3,0,.3,0,.3.4,0,.5-.5.7-.7.3h0ZM60.2,132.3c0-.4.1-.5.5-.4.2,0,.3.2.2.4-.1.4-.7.4-.7,0ZM56.6,132c.3-.3.5-.2.3,0,0,0-.2.2-.4.2-.2,0-.2,0,0-.2ZM58.5,131.4c-.1-.1-.1-.3,0-.5.2-.4.4-.4.5,0,.1.4-.2.7-.5.5ZM61.9,131.1c0-.2.4-.6.6-.4.2.2,0,.6-.3.6s-.3,0-.3-.1ZM60.6,130.2c-.1-.1.2-.5.4-.5s.1.1.1.2c0,.3-.4.5-.5.3ZM64.4,129.7c0-.1,0-.3.2-.5.1-.2.2-.2.4,0,.2.3.2.4,0,.5-.3.2-.6.2-.6,0ZM57.3,129.4c0-.2.1-.3.3-.3.3,0,.3.4,0,.6-.1,0-.2,0-.2-.2ZM62.4,129.1c-.1-.2.2-.7.4-.7s0,.7-.1.8c-.1,0-.2,0-.3-.1ZM66.2,128.7c-.1-.4.2-.7.5-.6.3.1.2.8-.1.9-.1,0-.3,0-.4-.2ZM59,128.7c0,0,0-.3.1-.5.2-.3.2-.3.2,0v.4c0,.2-.3.2-.4,0ZM68.4,128c-.1-.3.3-.8.5-.6,0,0,.2.3.2.5,0,.5-.5.6-.7.1ZM64.4,127.9c0-.3.3-.8.5-.8.3,0,.2.7-.2.8-.2.1-.3.1-.3,0ZM57.8,127.2c.2-.5.6-.5.5,0,0,.3-.1.4-.4.4-.3,0-.3,0-.2-.4ZM61.1,127.4c0-.1,0-.3.2-.5.2-.3.5,0,.4.4-.1.3-.5.4-.5,0ZM70.5,126.9c-.2-.4-.1-.5,0-.6.3-.2.5,0,.5.4s-.3.7-.5.2ZM66.5,126.9c0-.1.1-.3.2-.3s.2.1.2.3-.1.3-.2.3-.2-.1-.2-.3ZM63.2,126.6c-.3-.2-.2-.7.2-.8.2,0,.3,0,.3.2,0,.5-.2.7-.5.6h0ZM59.5,126.5c0,0,0-.3.2-.4.3-.2.3-.1.3.1,0,.3-.4.5-.5.3ZM68.2,126c-.1-.3,0-.6.3-.5.2.1.2.7,0,.7s-.2-.1-.3-.2ZM61.5,125.7c0,0,0-.3,0-.4,0-.3.1-.3.3,0,.2.2.1.3,0,.4-.1.1-.3.1-.3,0ZM64.9,125.5c0-.4.6-.4.6,0s-.2.3-.3.3c-.3,0-.3,0-.3-.3ZM69.8,125.3c-.1-.2.2-.7.4-.7s.1.2.1.4c0,.4-.4.6-.6.2ZM63.2,124.7c0-.1,0-.3.1-.5.1-.3.1-.3.3,0,.1.1.2.4.1.5-.1.3-.6.3-.6,0ZM66.5,124.9c0,0,0-.2.2-.4.2-.5.6-.4.6,0s0,.4-.4.4-.4,0-.4,0ZM64.9,123.8c0-.2.4-.5.6-.5s.2,0,0,.3c-.2.3-.6.5-.6.2ZM66.5,123c0-.4.2-.7.5-.7.4,0,.3.7-.1.8-.2,0-.3,0-.3-.1h0ZM107.6,137c0,0,.3-.2.5-.4.2-.2.5-.4.6-.4.2,0,.6-.7.5-.9,0,0-.2,0-.3.2s-.7.6-1.2.9c-.6.4-.9.7-.8.9,0,.2.1.2.3,0,.1-.1.3-.2.4-.2h0ZM77.5,134.1c.1-.2.4-.4.7-.4s.5-.2.6-.3.3-.2.4-.2.3-.1.3-.2.4-.4.8-.6.7-.5.7-.6.1-.2.2-.2.2,0,.2-.2,0-.2.2-.2.3-.2.5-.3.4-.3.5-.3.3-.1.4-.2.4-.4.7-.5.5-.4.5-.5c0-.2.4-.4.7-.4,0,0,.3-.2.6-.5s.8-.7,1.2-1,.8-.6.9-.8.6-.5.9-.7.6-.5.7-.6.2-.2.3-.2.3,0,.5-.3.4-.3.5-.3c.1,0,1.4-1,3.2-2.4.2-.1.5-.4.7-.5s.5-.4.6-.6.3-.4.5-.5.3-.3.3-.4,0-.2.1-.1.4-.2.8-.5.7-.7.9-.7c.3-.1.8-.9.7-1.1,0,0-.4.2-.7.6s-1,.9-1.5,1.3c-.7.6-1.3,1-3,2.5-.1.1-.4.3-.6.4s-.5.3-.6.4c-.2.2-.5.3-.5.1s1.3-1.5,1.6-1.7c.3-.2,1.5-1.2,2.1-1.9.3-.3.6-.5.7-.5s.4-.3.6-.6.5-.6.6-.6.2,0,.2-.2,0-.2.2-.2c.2,0,.4-.3.4-.8s-.3-.2-1.4.8c-.6.6-1.1,1-1.2,1s-.1.1-.1.3-.1.3-.2.3-.5.3-.8.6-.7.6-.7.6-.3.1-.5.3c-1.3,1.3-2.3,1.7-2.3,1.1s-.6-.3-.7.2c0,.3-.2.4-.4.4s-.3.1-.3.7,0,.7-.2.7-.2-.1-.2-.3,0-.7-.2-1.2-.2-1.2-.3-1.5-.2-1-.3-1.6c-.4-1.6-.3-1.8.7-2.5.5-.4,1.1-.9,1.5-1.3s.9-.9,1.4-1.2.9-.7.9-.8.4-.3.6-.5.4-.4.4-.5.2-.3.4-.4c.2-.1.3-.3.3-.5,0-.6-.2-.5-.9.3-.4.4-.7.8-.8.8s-.5.4-1.1.8c-.5.5-1.2,1-1.4,1.2s-.5.5-.7.6c-.3.3-1.8,1.4-2,1.4-.3,0,0-.5.4-.9.3-.2.8-.6,1-.9s.5-.4.6-.4.5-.3.9-.8c1.5-1.5,2.5-2.4,2.6-2.4.1,0,.7-1,.6-1.1,0,0-.3.1-.6.4s-.6.5-.6.5-.3.2-.6.6-.7.7-1,1c-.9.6-1.4,1.2-1.4,1.5s0,.2,0,.1-.3,0-.5.3-.5.4-.6.4-.2,0-.2.2-.2.3-.4.4-.6.4-.8.6-.5.4-.6.4-.5.3-.8.5-.7.5-.8.5-.4.2-.5.4c-.3.4-.3.7-.3,2.5,0,2.3,0,2.9-.4,3.9-.1.4-.2.9-.2,1.1,0,.7-.7,2.6-1.2,3.3-.3.3-.6.9-.8,1.2-.3.6-.7,1-2.2,2.7-1,1.1-1.7,2.1-1.6,2.1s.2-.1.4-.3h0ZM84.6,125c0-.1,0-1.6,0-2.8,0-.4,0-.8,0-.8s-.1-.3-.1-.6,0-.6-.1-.7,0-.2.2-.4c.2-.3.3-.3.7.2.5.5,1,1.4,1.1,1.7,0,.1.3.4.5.7s.5.6.5.7,0,.2.1.2c.2,0,.3.7.1.8,0,0-.2,0-.3,0s-.3-.2-.5-.3c-.3,0-.4,0-.6.4-.1.3-.2.4-.3.3,0-.1-.2-.3-.4-.5-.3-.2-.3-.1-.5.5,0,.4-.2.8-.3.8s-.1,0-.2-.1h0ZM109.2,132.3c.1-1.1.1-1.2-.7-2.1-.2-.2-.2-.3-.1-.3s.1,0,0-.2c-.1-.2-.7.3-.6.5,0,0,0,.1-.1.2-.1,0-.1.2.1.6.2.3.3.6.4.6.2.1.5.7.6,1,.2.5.3.3.4-.4ZM105.3,132c.1,0,.2,0,.2-.2,0-.3-.7,0-.9.4,0,.3,0,.3.2,0,.2-.2.4-.3.5-.3ZM106,131.2c.2-.3.2-.4,0-.1-.1.1-.3.3-.3.4,0,.3.1.2.3-.2ZM109.1,129.6c0-.1.2-.8.1-1.6,0-1.2,0-1.4-.3-1.5-.5-.1-.7,0-.6.6,0,.2.2.7.2,1s.1.8.2,1c.1.4.1.5,0,.6-.1,0-.1.1,0,.1,0,0,.3,0,.3-.2ZM107,128.8c0-.2.1-.4.1-.5s0-.3.1-.4.2-.5.3-.9l.2-.6h-.7c-.4,0-.9,0-1.2,0-.3,0-.6,0-.7,0-.2,0,.3,1,.9,1.8.3.3.5.7.5.8,0,.3.3.2.4-.1h0ZM108.9,125.5c0-.1,0-.3.2-.4.2-.1.2-.2,0-.6-.2-.4-.3-.4-1.9-.4-.9,0-2.2-.1-2.7-.2-.9-.1-1,0-1,.2,0,.5.9,1.5,1.4,1.5s.5,0,.5-.2c0-.2.1-.2.2,0,0,.1.5.2,1.1.2.5,0,1,0,1.1,0s.3,0,.6,0,.5,0,.4-.2h0ZM94.7,124.9c.2-.2.4-.4.3-.4s-.3.2-.6.4-.4.4-.3.4.3-.2.6-.4ZM59.2,124.7c.1-.1.3-.3.3-.3.3,0,2.8-1.4,2.9-1.6,0-.1.3-.3.6-.3s1.1-.4,1.7-.8,1.2-.7,1.4-.7c.6,0,1.2-1.7.7-1.9-.2,0-3.2,1.5-3.7,1.9,0,0-.2.1-.3,0s-.2,0-.3.2-.3.3-.4.3-.4.1-.7.2-.9.5-1.5.8c-1.1.6-1.5,1-1.6,1.8,0,.4,0,.5.3.5s.5-.1.6-.3ZM73.4,123.4c0-1.4,0-1.4-.4-1.4s-1.1.8-1.1,1.3,1.1,1.7,1.3,1.6c0,0,.1-.7.1-1.5ZM75,123.9c.2-.4.2-.6,0-1.2-.2-.6-.3-.7-.5-.7-.5,0-.7.3-.6,1.3,0,.5,0,1,0,1.3,0,.5,0,.5.4.2.2-.2.5-.5.6-.8ZM75.6,124.7c.2-.1.2-.3.1-.3s-.3,0-.4.2c-.3.4-.1.4.3,0ZM95.9,123.8c.2-.2.3-.3.1-.3-.3,0-.6.3-.6.5s.1.2.5-.2ZM107.2,123.4c1.3,0,1.8,0,1.9-.2.2-.2.2-2.5,0-8.9,0-.3-9.2-.7-9.4-.4-.1.2-.1,3,0,3.7,0,.3.3.9.6,1.3s.6,1,.6,1.2.2.4.3.4.2.1.2.3.2.4.3.5.2.2.1.2,0,.3.3.4.4.4.4.6,0,.3.2.3.3.1.3.2c0,.2.4.3,1.2.3.6,0,1.1,0,1.1,0s.8,0,1.8,0h0ZM103,120.3c-.2-.5-.7-.7-.7-.3s-.1.2-.3.3c-.3.2-.3.2-.2-.4,0-.3.2-.6.3-.7s.1-.3.1-.5.1-.6.3-1,.4-1.1.4-1.5c0-.5.2-.9.3-.9.3-.1.7.4.7.9,0,.2,0,.6.2.8.2.5.3,1.1.3,1.6,0,.2,0,.3.1.4.3.2.2.7-.2.7s-.3-.1-.3-.3,0-.3-.1-.3c-.2,0-.3.4-.3,1.1s-.3.8-.6,0ZM106.7,120.5c0-.2,0-.5,0-.7q-.1-.4-.4.2c-.2.3-.4.6-.5.6-.2,0-.2-.2.4-1.5.2-.5.4-1,.4-1.2,0-.7.6-2.4.8-2.5.2,0,.3.3.9,2.7.3,1.4.5,2.8.3,2.2,0-.1-.2-.2-.3-.2s-.2-.1-.2-.3c0-.5-.4-.3-.7.3-.3.6-.8.8-.6.3h0ZM104.3,120.1c0,0,.2-.2.3-.2s.2,0,.2.2-.1.2-.3.2-.3,0-.2-.2ZM77.6,123.2c.3-.4-.4-1.1-1.1-1.1-.5,0-.5,0-.5.4,0,.3.1.5.5.7.7.4.8.4,1.1,0h0ZM71,122.6c.6-.6.5-.8-.5-.8-.9,0-1.3.3-1.3,1s0,.3.7.2c.4,0,.9-.2,1.1-.5h0ZM80.1,122.1c.2-.2.4-.4.5-.4.2,0,1.6-.8,1.9-1.1.1-.2.2-.7,0-1.6-.2-2.5-.4-4.5-.6-4.6,0,0,0-.2,0-.4.1-.2.1-.3,0-.4-.1,0-.2-.3-.2-.5s-.1-.7-.3-1-.3-.8-.3-1,0-.5-.1-.6-.1-.2-.1-.4-.2-.6-.4-1-.4-1.1-.6-1.4c-.4-1.1-.6-1.5-.8-1.3,0,0,0,0,0-.2s0-.3,0-.3-.2-.2-.2-.3-.1-.4-.2-.4-.2-.2-.2-.4,0-.3-.1-.4c-.2-.1-.6-1.1-.6-1.4s0-.2-.1-.2-.3-.3-.5-.8-.4-.8-.5-.8-.1-.1-.1-.3,0-.4-.2-.5c-.2-.1-.7-1.2-.7-1.5s0-.2-.1-.2-.4-.5-.7-1.1-.7-1.1-.8-1.1-.2-.2-.2-.3c0-.3-1.1-1.7-1.4-1.8-.1,0-.4,0-.6,0s-.4.1-.5,0c-.1,0-.2.4-.4,1.9-.3,3-.5,3.7-1,3.7s-.4.2-.6.6c-.2.3-.3.7-.4.7s-.3.5-.6,1.1c-.6,1.1-.8,1.5-1.6,3-.3.6-.6,1.1-.6,1.1s-.2.3-.4.6-.4.6-.4.7c0,.1-1.4,3.3-2.7,5.9,0,.1-.4.9-.7,1.8s-.9,2.3-1.3,3.2-.8,2-.9,2.4c-.2.7-.2.7.1.7.6-.1,3.6-1.6,3.6-1.8s.1-.1.2-.1.4,0,.7-.2.5-.2.5-.2.3-.1.5-.3.6-.3.8-.4.4-.2.4-.2c0-.1,1.2-.6,1.4-.6,0,0,.6,0,1.3.1h1.2c0,.1,0-.8,0-.8,0-.5-.1-1.1-.3-1.3-.3-.5-.9-.7-1-.4,0,.1-.1.4-.1.5,0,.2-.2.2-.9.1-.5,0-1-.2-1.2-.3-.7-.4-1.1-2-.8-3.1.2-.6,1.3-2.1,1.6-2,.4.2.8-.7.6-1.5,0-.4,0-.9,0-1.2.2-1.1,1.6-2.8,2.7-3.4.3-.2.9-.7,1.3-1.1.4-.4.9-.8,1.1-.8.4,0,.6,0,1,.5.3.3.5.7.5.7s.2.3.5.5,1,.9,1.5,1.5c1.3,1.3,1.6,2.2,1.3,3.6-.2,1.1-.2,1.4,0,1.4s.1-.1,0-.3c0-.2,0-.2.2,0,.3.2,1.2.4,1.4.4.1,0,.2,0,.9.7.2.2.5.4.6.4s.1.1,0,.3,0,.4,0,.5c.1.2.1.5,0,1.3-.2.9-.3,1.2-.7,1.7-.5.5-.6.6-1.2.5-.6,0-.7,0-.6-.5,0-.3,0-.5-.2-.5-.5,0-.8.4-1,1.1-.2.7-.2.8,0,1.1.2.2.6.3,1.2.3,1.4,0,1.4,0,1.4,1.4s-.2,2.2-1,2.3c-.7.2-1,.6-.4.7.5,0,.8,0,1.2-.5h0ZM78.2,121.3c1,0,1.3-.2.6-.4-.4-.1-2.2,0-2.4.1,0,0-.6,0-1.2,0-.7,0-1.2,0-1.3,0-.1.1-.2.1-.3,0-.1-.2-1.5-.2-1.6,0,0,0,0,.2,0,.2s.5,0,1.2.1,1.1.1,1.1.1.7,0,1.5,0,1.9,0,2.4,0h0ZM71.8,121c0-.2-.5-.4-.7-.2-.1.2,0,.5.4.5.1,0,.3-.1.3-.2h0ZM70.6,121c.2,0,.2-.2.1-.2-.1,0-.3,0-.5,0-.2.1-.3.1-.3,0s-.4-.1-.8-.1-.8,0-.8.2.3.1.7,0,.8,0,.8,0c.1.1.4.1.8,0ZM91.7,120.5c.1-.1.3-.3.4-.3.2,0,1.3-.9,2.2-1.9,1.4-1.4,1.5-1.5,1.6-1.5s.2-.2.4-.4.4-.5.6-.5c.3-.1.5-.9.1-.9s-.7.5-1.4,1.1-1.3,1.1-1.3,1.1-.3.2-.5.4l-1.1,1c-.3.3-.7.6-.8.6s-.2.1-.3.2-.2.3-.4.3c-.3,0-.4.6-.2.8.2.2.5.1.7-.1h0ZM79.4,120.1c0,0,.1-.3.2-.6,0-.4,0-.5-.2-.5-.2,0-.5,0-.8,0s-2.5-.1-4.9-.1-4.6-.1-4.9-.2c-.3,0-.6,0-.8.1-.3.2-.3.3,0,.7.2.4.3.5,1.8.5.9,0,2.5,0,3.6.1s2.1,0,2.1.2c.1.1,3.7,0,3.9-.2h0ZM91,119.4c.3-.3.6-.5.6-.5s.4-.3.7-.7.6-.7.7-.7.6-.4,1-.9,1-.9,1-.9.1,0,.1-.2.2-.4.5-.5c.3-.2.5-.5.6-.8,0-.6-.2-.6-.7,0-.7.8-2.6,2.4-3.2,2.8-.3.2-.6.4-.6.5,0,.2-.8.6-.9.4,0,0,.2-.4.5-.7.4-.4.6-.6.6-.5,0,.1.1.1.1,0,0-.2.2-.4,1.3-1.5,1.7-1.5,2.2-2.1,2.1-2.5,0-.4,0-.4-.5.1-.3.3-.6.6-.8.8s-.6.5-.9.8-1.4,1.2-2.4,2c-1.1.9-1.8,1.5-1.7,1.7,0,.3.7.4.7.1s.6-.5.8-.3.1.3-.4.7c-.6.4-.7.6-.3,1,.4.3.4.3.9-.3h0ZM72.2,118.1c0,0,0-.2,0-.2.4-.3,0-3.3-.5-3.6,0,0-.2-.2-.1-.3,0-.2-.9-1.5-1.3-1.8-.2-.1-.7-.4-1-.5-.6-.4-1.1-.3-1.8.4-1,.9-1.1,2.1-.2,2.9l.4.4.3-.4c.4-.6.9-.8,1.7-.6.3,0,.6.2.5.3s0,.2.1.3c.3.2.7,1.2.8,2.1,0,.7.2.9.5,1,.4.2.7.1.6-.1h0ZM72.8,118.2s0,0-.2,0-.2,0-.2.2,0,.1.2,0,.2-.1.2-.2ZM73.6,117.8c0-1.4,0-3.8-.1-4.1,0-.2,0-.8,0-1.3s0-1.1,0-1.4,0-1,0-1.7c0-.7,0-1.1-.1-.9,0,.1-.1,2.4-.1,5.1,0,3.9,0,4.8.2,4.8s.2-.2.2-.5h0ZM76.5,117.9c0-.1.2-.6.3-1,.2-1.1.8-2,1.5-2.4.3-.1.6-.3.6-.3.3,0,.9.9.9,1.2,0,.5.2.5.6,0,.4-.6.3-2.4-.2-2.9-.5-.5-1.3-.7-2.4-.6h-1c0,0-.5,1-.5,1-.4.8-.5,1.3-.5,2.3,0,.7,0,1.6-.1,1.9s0,.7,0,.8c.1.3.7.2.8-.1h0ZM75,116c.1-2.4.8-4.3,1.8-5.2.6-.6.9-2.1.5-2.3,0,0-.2-.2-.2-.4,0-.3-1-1.7-1.3-1.7s-.9-.7-.9-.9-.1-.2-.2-.2-.3-.2-.4-.3-.2-.3-.3-.3,0,.7,0,1.5c.3,11.2.3,11.7.6,11.8.3.2.4,0,.5-1.9h0ZM75.7,110c0,0,0-.6,0-1.2,0-.6,0-1-.2-1.1-.1,0-.2-.2-.2-.3s-.2-.3-.4-.5c-.3-.2-.3-.3-.1-.4.3-.2.8,0,.8.3s0,.2.2.2.3.3.5.6c.3.5.3.7.2,1.2-.1.6-.7,1.4-.8,1.1h0ZM88.8,117.4c0,0,0-.1.1,0s.3,0,.4-.2.4-.3.5-.3.4-.3.7-.6.6-.6.6-.6.5-.4,1.1-1,1-1,1.1-1c.2,0,1.4-1.5,1.4-1.7,0-.3-.5,0-1.2.7-.5.5-.9.8-1,.8s-.2,0-.2.1c0,.2-2.5,2.2-2.6,2.2s-.3.2-.5.4-.5.4-.6.4c-.3,0-.5.6-.3.8.2.2.4.2.4,0h0ZM84.2,116.2c.2-.2.4-.4.5-.4s.3-.2.6-.5.7-.6,1-.7c.8-.5,1.1-.7,1.6-1.2.3-.3.8-.7,1.1-.9s.8-.7,1-1,.4-.5.5-.5.6-.4,1.2-1,1.1-1.1,1.2-1.1c.2,0,.2-.4-.1-.7-.4-.4-.7-.4-1.1.2-.2.3-.3.5-.4.5s-.5.4-.9.8-1.4,1.3-2.1,2c-.7.7-1.5,1.3-1.7,1.5s-.6.5-.9.6-.8.5-1.1.8-.5.4-.6.4-.2.1-.4.3c-.2.3-.2.4,0,.7.1.2.2.4.3.4s.2-.2.4-.4h0ZM47.7,114.8c.8-1.8,1.6-4.2,1.4-4.3-.1-.1-.3-.1-4.7-.6-1.5-.2-3.3-.4-4.1-.5-2.3-.3-2.6-.3-2.8,0,0,.2-.4.7-.7,1.2-.9,1.6-1.5,2.6-1.5,2.7s-.2.4-.4.8c-.4.6-.4,1.3,0,1.1,0,0,.2,0,.2,0s.3.2.7.2c.8,0,2.4.2,2.5.3,0,0,.2,0,.4-.1s.3-.1.3,0,.6.2,1.4.2c1.6,0,4.8.3,4.9.4,0,0,.5,0,1,0h.9s.6-1.4.6-1.4h0ZM43.5,114.7c0-.3,0-.4-.2-.3-.1,0-.3.1-.5.2-.2,0-.3,0-.3,0,0-.3-.4-.2-.5,0-.1.3-.7.3-.7,0s0-.2.2-.2.2,0,.2-.2.3-.5.6-.9.9-1,1.2-1.4c.6-.8,1.1-.9.9-.3,0,.4-.2,1.6-.4,2.5,0,.4-.1.7-.2.8-.2.3-.4.1-.4-.3h0ZM44.9,114.7c0-.3.6-1.2,1-1.7.1-.1.5-.6.7-1.1.5-.9.7-1,.9-.9.1,0,.1.4,0,1,0,.5-.2,1.2-.2,1.5,0,.7-.2,1.2-.4,1.2s-.1-.2-.1-.4c0-.6-.8-.5-1.4.1-.4.4-.5.4-.5.2h0ZM36.4,114.3c-.1,0,0-.3.4-.6.4-.3.6-.6.6-.7s.1-.2.2-.2.3-.1.4-.2c.5-.5,2-1.8,2.2-1.8.4,0,.2,2.8-.3,3.2-.2.2-.2.2-.2,0,0-.1,0-.4-.1-.5-.1-.2-.2-.2-.5.1-.5.5-.8.3-.6-.2.1-.3,0-.4,0-.4s-.3.1-.4.2c-.1.2-1.4,1.1-1.5,1.1,0,0-.1,0-.2-.1ZM98.9,114.5c0-1.1,0-1.9-.6-5.1-.2-1.1-.4-1.3-.7-1q-.3.3-1,0c-.3-.1-.5-.3-.5-.4s0-.2-.2-.2c-.2,0-.8-.5-1.7-1.5-.5-.6-1-1-1.3-1-.5,0-.8.2-.4.3.2,0,.2.2.2.4,0,.2,0,.3.2.4.2,0,.3.2.3.2s.2.5.5.9.6,1,.7,1.3.5.8.7,1.1.5.7.5.8,0,.2.2.2.1,0,.1.1c0,.3.2.9.4.9s.2,0,.2.2,0,.2.2.2.2,0,.2,0c0,.3.2,1,.5,1.2.3.3.7.9.9,1.4,0,.2.2.3.2.3s.1.1.1.3,0,.2.2.2.2-.6.2-1.3h0ZM33.5,114.8c0,0,.2-.5.5-.8.9-1.5,1.7-3.1,1.7-4,0-.5,0-1.2.1-1.7s0-.9,0-1.1c-.2-.3-2.1-.5-4.2-.4h-.9s0,1.7,0,1.7c0,2,.2,2.2.7.5.5-1.6.6-1.6.7.4,0,.7.1,1.3.2,1.4s0,.4,0,.6c0,.3-.2.4-.5.4-.2,0-.5,0-.5-.2s-.2-.1-.4,0c-.2,0-.3.3-.2,1.6,0,1.6.1,1.8.8,1.6.2,0,.4,0,.6,0,.3.2,1.5.1,1.6-.1h0ZM32.6,111.8c0,0,.1-.4.3-.8s.4-1,.6-1.3.4-.9.5-1.2c.3-.8.6-.7.7.1,0,.4.1,1.1.2,1.5.2.9.1,1.1-.3,1.1s-.4.2-.5.3c-.3.5-.5.4-.5-.2,0-.5,0-.5-.2-.3-.1.1-.3.4-.3.5-.1.3-.4.4-.4.2h0ZM84.1,114.1c.3-.3.6-.5.7-.5s.2-.1.3-.2.4-.4.7-.6.9-.7,1.3-1,.7-.6.8-.5.1,0,.1-.2.2-.4.5-.6.8-.7,1.1-1,.7-.7.8-.8.5-.4.8-.8c.8-1,.2-.7-.9.3-1.7,1.6-2,1.9-2.1,1.9,0,0-.5.3-1,.8-1.1.9-1.4,1-1.2.3,0-.2.3-.4.4-.4s.5-.3.8-.7.7-.7.8-.7.2,0,.2-.2.1-.2.3-.3.3-.2.2-.2c0-.1.7-.9.9-.9.2,0,1.5-1.5,1.5-1.7,0-.3-.3-.2-.9.4-.3.4-.7.7-.7.7s-.3.2-.5.4-.4.4-.5.4-.5.3-.8.7-.7.7-.7.7-.4.3-.8.6c-.7.6-1.2.6-1.3,0,0-.2-.2-.4-.3-.4-.3,0-.3.3,0,.6,0,0,0,.3,0,.5-.1.3-.2.4-.4.2-.2,0-.4-.3-.5-.4-.1-.2-.2,0-.3.5-.2,1-.5.8-.6-.3,0-.6-.3-3-.4-3.4-.1-.8.3-1,.8-.4.1.2.4.3.5.3s.2.1.2.2c0,.4.7,1.1,1.1,1.1s1.3-.8,3.7-3.3c1-1,1.2-1.4,1.1-1.6-.1-.2-.2-.2-.7.3-.8.9-1.4,1.4-2.1,2-.4.3-.8.7-.9.8-1,.9-1.6,1.2-1.6,1s1.3-1.4,1.4-1.4c0,0,.6-.5,1.2-1.2s1.1-1.2,1.2-1.2.1-.1.1-.3,0-.3.2-.3c.3,0,.7-.8.5-1-.1-.1-.3,0-.6.4-.3.3-.7.8-1,1s-.8.7-1.1,1c-.8.7-2.2,1.8-2.4,1.8-.4,0,0-.5.7-1.1.3-.3,1-.8,1.4-1.3s.8-.8.8-.8c.2,0,1.6-1.7,1.7-2.1.2-.7,0-.6-1.1.5-.5.6-1.3,1.4-1.8,1.7s-.8.7-.9.8c-1.5,1.4-2.5,1.8-1.2.4.5-.5.9-.8.9-.8.1,0,1.1-1.2,1.1-1.3s0-.2.2-.2.4-.3.7-.6.6-.6.7-.6.2-.1.2-.2.1-.3.2-.3.2-.2.2-.4c0-.5-.6-.4-.8,0,0,.2-.2.4-.3.4s-.3.2-.6.5c-2.2,2-4.1,3.5-4.3,3.5s0-.5.7-1c.7-.5,2.4-2.3,2.4-2.5s.1-.2.3-.3c.4-.1,2.1-1.8,2.1-2.1s-.4-.2-.7.2c-.3.4-1.7,1.6-2.6,2.3-.6.4-.6.5-1.3,1.1-.3.2-.5.4-.6.4s-.1.1-.1.2-.2.3-.5.3c-.8.2-1.5.8-1.5,1.3,0,.3,0,.5.1.5s.2.3.3.7.3.8.4.9.2.3.2.4.2.7.5,1.3.4,1.1.4,1.2,0,.2,0,.2.2.4.3.8.3,1.2.4,1.7.3,1.1.3,1.3c0,.4.3.7.5.7,0,0,.3-.2.6-.5h0ZM109.1,112.3c0-.4,0-.8,0-.9.3-.5-.2-.5-4.9-.5h-4.8s0,.6,0,.6c0,.7.2,1.3.6,1.6.2.2,1.3.2,1.8,0,.1,0,.2,0,.3.1,0,.2.1.1.2,0,0-.2.9-.3.9,0,0,0,1.2.1,2.6.1s2.7,0,2.9.1c.4.2.6-.1.5-1h0ZM72.4,109.3c0-2.3,0-3-.2-2.8-.3.5-.2,5.9.2,5.9s0-1.4,0-3.1ZM70.6,109.2c0-1.9-.1-2.8-.3-1.6,0,.4,0,1,0,1.3s0,.9,0,1.4c0,1.5.2.6.2-1.1ZM71.3,108.5c-.2-.2-.2,1,0,1.9,0,.5.1.4.2-.6,0-.7,0-1.2-.1-1.3h0ZM105,110c2.1,0,3.9-.1,4-.2s.2-.5.2-.9v-.8h-1.5c-.8.1-2.9.2-4.6.3s-3.3.1-3.5.2c-.5,0-.7.4-.5.9.1.5.4.8.4.5,0-.2,0-.2.2,0,.1.2.2.2.2,0,0-.2.2-.1.4,0,.2.1.5.2.7.2.2,0,2-.1,4.1-.2h0ZM48.8,109.4c0,0,.1-.1.3,0,.3.1.7-.4.7-.9s0-.4-1-.4c-.5,0-1.4,0-1.9,0s-1.3-.1-1.7-.1-.8,0-.9-.1c-.3-.1-1.6-.3-3.7-.4-.9,0-1.6-.2-1.7-.2-.2-.2,0-.7.3-.6.4.1,1.2.2,2.8.3.8,0,1.6.1,1.9.2.3,0,.4,0,.4,0s0-.1.3,0c.2.1,1,.2,1.8.3h2.1c.3.1.7.2.8.3s.2,0,.3,0c0-.2.1-.2.2,0,.2.5.7-.7,1-2.2.2-.9.4-1.9.5-2.2s.2-1.1.2-1.6c0-1.2.3-1.1-2.6-1.4-1.1-.1-2.2-.2-2.4-.2s-1.1-.1-1.9-.2-1.8-.1-2.2-.2c-1,0-1,0-1.5,1.6-.9,2.8-1.4,4.1-2,5.4-.6,1.3-.8,2.1-.4,2.2.1,0,.8.1,1.6.2s1.8.2,2.2.2c.6,0,.8,0,.9,0,0-.1.1-.1.2,0,.3.3.7.4.8.1,0-.2.2-.2.2,0,0,.2,1,.4,2.7.5.7,0,1.3,0,1.3.2.2.2.5.1.5,0h0ZM47.2,105.4c0-.1,0-.5,0-.9,0-.7,0-.7-.3-.5-.2.1-.4.3-.4.5s-.2.3-.2.3c-.2,0,0-.6.3-1,.4-.5.7-.8.7-.9s.2-.5.5-.9c.6-1,.8-.9.9.4,0,.5.2,1.3.4,1.6.2.5.3.7.2.9,0,.1-.1.3,0,.3s0,.1,0,.1-.2-.1-.2-.3,0-.3-.2-.3-.2-.2-.2-.3c0-.5-.3-.3-.5.3-.2.6-.4.9-.6.9s-.1,0-.2-.2ZM40.9,105.1c0-.2.6-1.3.8-1.5,0,0,.2-.3.3-.6s.3-.5.3-.5.3-.4.6-.8.6-.8.6-.7.1.5.1,1,0,1.1.1,1.3,0,.8,0,1.3c0,.7-.2.9-.4.9-.2,0-.2-.2-.2-.4,0-.5-.3-.5-.7,0l-.3.4v-.5c0-.3-.2-.5-.2-.5s-.1,0-.1.1c0,.2-.7,1-.8,1s-.1,0-.1-.2h0ZM69.7,109.4c0-.1-.1-.2-.2-.3-.1,0-.2,0,0,.2.1.3.4.4.3,0ZM86.4,109.3c.2-.2.4-.3.5-.3s.3-.2.5-.4.4-.4.5-.4.1,0,0-.1.1-.3.4-.4.5-.4.5-.5,0-.2.2-.2c.3,0,1.4-1.2,1.5-1.6.2-.6-.2-.5-1.1.4-.4.4-1,.9-1.2,1s-.7.5-1.1.9c-1.8,1.6-2,1.8-1.6,2,.4.2.5.1.9-.2h0ZM37.1,108.4c.1-.2.4-.7.5-1.1s.4-1,.6-1.5.4-.9.4-1,0-.4.2-.7.3-.9.5-1.4.3-1,.4-1.1c.4-.5,1.7-7.3,1.8-8.9,0-.4-.5-.8-1.5-1.1-.2,0-.6-.3-.8-.5s-.5-.4-.6-.4-.3-.1-.4-.3-.5-.3-.8-.4h-.5c0-.1-.1,2.6-.1,2.6-.2,4.3-.3,15.7-.2,16.2,0,.3.1.3.2.2,0-.1.2-.4.3-.7h0ZM69.7,108.1c-.1-1.1-.3-1.2-.3-.2s0,1.1.3,1.1,0-.4,0-.9ZM99.5,107.8c0-.2.1-.2.2,0,0,.1.7.1,2.4,0,1.3-.1,2.9-.2,3.7-.2s1.8-.1,2.2-.2c.4,0,.8-.1.9,0s.2,0,.2,0,.1-2.2.1-4.6c0-3.5,0-4.4-.1-4.3-.3.1-.8-.7-.9-1.4v-.5c-.1,0-1.9,0-1.9,0-3.4.1-5,.3-5.6.4-.3,0-.9.1-1.2.1s-.9,0-1.2,0-1,.1-1.5.2-1,.1-1.1.2c-.2.1,0,1.2.3,1.2,0,0,.1.1,0,.2s0,.4.2.7.4.9.5,1.2.3.9.4,1.2.3.7.4,1c.2.4.3,1.1.6,2.3,0,.1.2.6.3,1.1s.3,1,.3,1.1c.1.7.6,1,.8.5h0ZM99.7,105.2s.2-.7.4-1.5.4-1.8.5-2.3.1-1.1.2-1.3c.1-.5.7-.5.7,0s.1.4.3.4c.2,0,.3.2.2.2s0,.4.3.7c.7.9,1.4,2.4,1.4,2.9,0,.4,0,.4-.2.1-.2-.3-.3-.3-.6-.1-.3.2-.4.1-.6-.2l-.3-.4-.2.6c-.2.7-.5.7-.7-.1,0-.3-.2-.6-.3-.6s-.3.3-.4.8-.4.8-.5.8-.2,0-.2,0h0ZM105.3,104.4c.1-.9.2-1.4.3-1.4s0-.2,0-.5c.1-1.1.4-2.8.5-3,.2-.3.5-.1.7.5.2.4.3.8.3.9s.1.3.2.3.2.2.2.2,0,.4.2.8c.3.7.3.8.3,1.4v.4s-.4-.5-.4-.5c-.3-.4-.4-.4-.5-.2,0,.2-.1.4-.1.6s0,.5-.2.7c-.2.3-.2.3-.4,0-.1-.2-.2-.5-.2-.7,0-.5-.2-.5-.5.1-.1.3-.3.6-.4.7-.2.2-.2.1-.1-.5h0ZM71.3,107.5c0,0,0,0,0,.2,0,.2,0,.2,0,.1,0-.1,0-.3,0-.3h0ZM96.9,107c0-.1-.2-.5-.6-.8s-.6-.7-.6-.8-.1-.3-.2-.4c-.4-.3-.3-1.6.2-2.6.2-.5.4-1,.4-1.2,0-.4-.8-2.2-1.1-2.3-.1,0-.2-.2-.1-.2,0-.1-.2-.8-.4-1,0,0-.3-.5-.6-1s-.7-1.2-1-1.5-.5-.6-.5-.7-.1-.2-.3-.2c-.5-.2-2.7,2.6-2.7,3.5s0,.3-.2.4c-.3.2-.2,2.3.1,2.8.2.3.3.5.4.5s.2-.6.2-1.3.2-1.4.3-1.5.2-.3.1-.4c0-.2.4-.7.7-.7s.1.1,0,.3c-.4,1.4-.6,2.3-.6,3.3,0,.6,0,1.1.1,1.1s.2.2.3.4c.1.5.8,1.2.9.9,0,0,0-.4,0-.6-.3-1.3.3-5,.9-5.4.4-.3.5.2,0,1.5-.4,1.4-.5,2.6-.2,3.7.3,1.2.5,1,.7-.8,0-.9.8-2.5,1.1-2.5s.1.8-.3,2.2c-.5,1.8-.4,3,.3,3.7.2.2.4.5.5.7s.2.4.4.4.2,0,.2.1c0,.2.8.7,1.1.7.1,0,.2,0,.2-.2h0ZM70.6,106.5s0,0-.2,0-.2,0-.2.2,0,.1.2,0,.2-.1.2-.2ZM35.7,105.9c.2-.7-.1-.9-1.3-1.1-.6-.1-1.1-.1-1.1,0s-.2.1-.3,0c-.4-.1-2-.2-2.2,0-.3.2-.3,1,0,1.2.1.1.7.2,1.4.2.6,0,1.2,0,1.2,0s.5,0,1.2,0c1.1,0,1.1,0,1.2-.4h0ZM72.3,105.5c0-.1,0-.3,0-.3s-.1.1-.2.3,0,.3,0,.3.2-.1.2-.3ZM97.2,105.6c0-.1-.1-1.2-.4-1.8,0-.2-.2-.5-.2-.6-.1-.5-.4-.3-.5.3-.1.7,0,1.2.5,1.8.4.5.5.6.6.3h0ZM35.7,104.1c0-.1.1-.8.1-1.5s0-2,.1-2.8c.2-2.2.2-2.2-2.4-2.3-2.6,0-2.6,0-2.6-.3s.4-.6.5-.4c0,0,1,.2,2.1.3h2.1c0,.1,0-.3,0-.3.2-.7.2-.7-2.4-.8-.9,0-1.8,0-2-.2-.5-.2-1,.2-.8.7.1.3.1.6,0,1.5-.1,1-.1,3.2,0,3.6.2.5.3.3.5-.5.1-.8.3-1.3.6-1.3s.2.4.3,1,.2,1,.2,1.1.1.4.1.6c0,.4,0,.4-.2.3-.1-.1-.3,0-.4.2-.2.3-.3.4-.4.2-.3-.3-.6,0-.5.6v.5c0,0,2.5,0,2.5,0,2,0,2.4,0,2.5-.3h0ZM33.1,102.7c0-.2.1-.7.3-1.1s.3-.9.4-1.1c0-.5.4-1.3.6-1.3.2,0,.4.3.5.5,0,.4.2,1.6.3,1.8.3.8.1,1.7-.2,1.2,0-.1-.3-.1-.5-.1-.3,0-.4,0-.5-.2,0-.2-.1-.3-.3-.1-.1.1-.2.3-.2.4s0,.3-.2.3c0,0-.2,0-.2-.3h0ZM80.4,102.9c.4-.4,1.2-1.2,1.8-1.8,1-1,1.3-1.5,2.9-3,.4-.4.7-.8.8-1,.2-.4,0-1-.2-1s-1.5,1.2-1.5,1.5,0,.2-.2.2-.8.7-1.6,1.5c-1.5,1.6-2.2,2.2-2.3,2.2,0,0-.8.9-1,1.3-.2.3,0,1,.4,1,.2,0,.6-.4,1-.8h0ZM79.9,100.8c.7-.7,1.5-1.6,1.9-1.9.7-.7.5-.9-.3-.3-.3.2-.6.4-.7.4-.4,0-.2-.3.5-.8.4-.3.9-.7,1.2-1.1s.9-1,1.4-1.4c.8-.8,1.1-1.5.5-1.1-.2,0-.4.3-.5.5s-.2.3-.3.3-.4.2-.7.5c-.5.5-.9.8-1.5,1.1-.1,0-.4.3-.5.4-.4.5-.8.4-.4-.1.2-.2.4-.4.5-.4s.3-.2.4-.3.4-.3.5-.3.2-.1.2-.2c0-.3,0-.3,1.2-1.4.4-.4.7-.8.7-.9s-.2,0-.4.1c-1,.9-3.2,2.6-3.4,2.5,0,0,.2-.4.6-.8.8-.9.7-.8,1.7-1.7.7-.7,1-1.2.7-1.4,0,0-.4.2-.7.5-.6.7-1.6,1.5-1.8,1.5s-.2,0-.2.1c0,.2-.9.7-1,.6,0,0,0-.3.3-.5.5-.5.8-1,.6-1-.2,0-.6.3-.4.3,0,0-.1.2-.4.4s-.7.4-.7.4-.2,0-.2.1-.1.2-.3.2c-.5.1-.4,0,.5-1,.7-.7.8-.8.5-.9-.2,0-.5.1-.9.3-.9.6-1.3.8-1.3.6s.1-.3.2-.4.2-.3.2-.4c-.1-.2-1.7,0-1.9.2,0,0-.4.1-.7.1s-.8,0-1,.2l-.5.2.4.7c.2.4.5.9.6,1.2s.3.5.4.5.2.1.2.3.1.3.2.4.2.2.2.3.2.4.4.7.4.6.4.6,0,.1.1.1.2.2.3.5c.1.3.3.5.4.5.2,0,.2,0,0,.2-.2.1-.2.2,0,.3.2,0,.3.3.3.4,0,.3.5,1.3.7,1.3,0,0,.7-.6,1.4-1.3h0ZM77.4,99.5c0-.1-.2-.8-.3-1.6s-.4-1.6-.5-1.8c-.3-.5-.3-.9,0-.9s1.4.9,1.4,1,0,.1.2.1c.1,0,1.1,1,1.7,1.8.2.3.2.3-.3.2-.3,0-.5,0-.6,0s0,.2,0,.2.1,0,0,.2-.2.1-.2,0-.2,0-.2.1c0,.2-.1.1-.3,0-.2-.3-.2-.3-.3,0,0,.1,0,.4,0,.6,0,.4-.4.4-.5.1h0ZM79.2,95.5c0-.1.1-.3.3-.3.2,0,.2,0,0,.3-.1.1-.2.3-.3.3s0-.1,0-.3ZM86.6,97.7c0-.3-2.2,2.1-2.2,2.4,0,0,.5-.4,1.1-1s1.1-1.3,1.1-1.4h0ZM69.6,98.8c0-.3,0-.5,0-.5,0,0-.7-.2-2.8-.4-.9-.1-3.4-.3-6-.4-2.1,0-2.5,0-2.7.2-.2.2-.2.3.2.7.2.2.6.4.7.4.6,0,2.5.1,5.1.2,2.9,0,4.9.2,5,.4.2.2.4,0,.5-.5h0ZM51.7,98.9c.2-.8.1-.9-.8-.9-.5,0-1.1,0-1.4,0s-1.3,0-2.3-.2-2.1-.1-2.5-.2c-2.8-.3-3.1-.3-3.2,0,0,.2,0,.5,0,.7,0,.4.3.4,1.9.4.2,0,.4,0,.4.1s.4.1.9.1.9,0,1,.1,1.4.1,3,.2c2.9,0,2.9,0,3-.3h0ZM88.7,97.8c.2-.9.6-1.5.8-1.7,0,0,0-.3,0-.6-.2-.6,0-.9.4-.6.2.2.4,0,.9-.4.3-.3.6-.7.6-.9,0-.4-1.5-2-1.9-2-.9,0-4.5.6-4.6.7,0,0,0,.4.2.6s.3.5.3.7.1.3.2.3.2.1.2.3.1.4.2.4.2.2.2.2c0,.2.4,1.2.9,1.9.2.4.5.9.6,1.2.3.8.7.7.9-.3h0ZM51.7,97.3c.3-.4.5-1.5.7-5.3v-2.5c.1,0-.3,0-.3,0-.2,0-.5,0-.8,0s-.9,0-1.4,0-2.3-.1-3.8-.2-2.8-.2-2.9-.2,0-.2,0-.3c0-.2.8-.2,3,0,6.5.3,6.3.3,6.2-.7,0-.5,0-.5-.9-.5-.5,0-1.5,0-2.4,0s-2.6,0-4-.1h-2.5s0,1.8,0,1.8c0,1-.2,3.1-.4,4.6-.4,2.9-.4,3.4.1,3.3.2,0,.6,0,1,0,.7.1,3.3.3,5.5.4.5,0,.9,0,1,.1s.4,0,.7,0c.4,0,.6,0,.6.1,0,.3.2.2.5-.1h0ZM43.2,95c0-.3.3-.9.5-1.4s.6-1.3.8-1.8.5-1,.6-1c.1,0,.2.5.2.9,0,0,0,.4.1.7.2.8.3,2.3,0,2.4,0,0,0,.2,0,.2.1,0,0,.1-.2.1s-.4,0-.4-.1-.1-.1-.2-.1-.2-.2-.3-.4c0-.6-.3-.4-.7.3-.4.8-.6.9-.5.2h0ZM47.6,95.1c0-.1.8-2.1,1-2.4,0-.1.2-.4.2-.5.2-.6.5-1.1.6-1.1.1,0,.5,1.1.6,1.9,0,0,0,.2,0,.3,0,.2.2.9.2,1.4,0,.6-.3.7-.5.1-.2-.4-.2-.4-.4-.2-.1.2-.3.3-.4.3s-.3-.1-.4-.3c-.2-.3-.2-.3-.4.2-.2.4-.6.7-.6.4h0ZM70,95.8c0-.8,0-1.6,0-1.7,0-.4-.6-1.5-.7-1.5,0,0-.3-.2-.5-.3-.3-.3-.4-.7-.7-2-.3-1.7-.6-2.5-.8-2.5s-.1-.1,0-.3,0-.3-.1-.3-.2-.1-.3-.3-.3-.6-.5-.8-.5-.6-.6-.8c-.3-.5-.7-.5-1.3,0-.3.3-.8.6-1.1.9s-.7.5-.8.6-.2.3-.3.4c-.4.5-1,1.8-1.2,2.6-.2.9-.5,1.5-.9,1.5-.6,0-1.4,1.7-1.6,3.3-.1,1.2,0,1.9.3,1.9s.5-.4.6-1.5c.1-1.3.8-2.5,1.5-2.9.3-.1.6-.4.6-.6,0-.2.2-.7.2-1.2.2-.9.6-1.9.9-2.3.1-.1.3-.4.5-.6.9-1.1,2.3-1.6,2.6-.9,0,.2.2.4.3.4s.3.4.5.8.4.8.4.9c.2.2.5,2.5.4,3,0,.4,0,.6.3.9.2.3.5.4.5.4.1-.1.7.8,1,1.4,0,.2.2.9.2,1.6,0,.8.1,1.3.3,1.5.4.5.6,0,.5-1.5h0ZM67.9,97.1c.1,0,.3.2.3.2.2,0,.2-.5,0-.5-3.1-.2-3.2-.2-3.2,0s.2.2,1.1.3c.6,0,1.1,0,1.1.1s.2,0,.3,0c.1,0,.3,0,.4,0h0ZM63.3,96.9c.2,0,.2,0,0-.2,0-.1,0,0,.2,0,.3.2.3.3.4,0,0-.1,0-.2,0,0,0,.2.8,0,.8-.2s-.3-.2-1-.3c-1.3,0-3.6,0-3.6.2s.1,0,.2,0,.2,0,.2,0,.3.2.6.1c.3,0,.7,0,.7,0s.3,0,.5,0,.5,0,.6,0h0ZM97.1,96.2c.5-.1,5-.5,5.6-.4.2,0,.4,0,.4-.2,0-.1,0-.1.2,0,0,.1.2.2.2,0,0,0,.7-.2,1.4-.1.8,0,1.5,0,1.6-.1s.3-.1.5,0c.5.2.6.1.6-.3v-.4s-1.7,0-1.7,0c-1,0-2.2.1-2.7.2s-1.3.1-1.7.2-1.5.2-2.4.3-2.2.3-3,.4c-1.2,0-1.4.2-1.4.4s.1.3,1,.2c.5,0,1.2,0,1.5-.2h0ZM68.3,95.7c0-.3-.1-.3-.7-.3-.4,0-.8,0-.9,0s-1.6,0-3.4-.1c-2.6,0-3.1,0-3.2.2,0,.2,0,.2.3.1.3,0,.4,0,.5.2,0,.2.1.2.3,0,.1-.1.2-.1.3,0,.1.2,2.8.2,2.9,0,.1-.2.4-.2.4.1s.2.3.5.3.5,0,.5-.2,0-.1.1,0c.3.2,1.3.3,1.3,0s.1,0,.4,0c.4.3.7.2.7-.2h0ZM35.8,95.2c.1-.2.2-4.6,0-4.7,0,0-.3,0-.5-.1s-.7-.3-.9-.5-.9-.7-1.5-1-1.2-.7-1.4-.9c-.4-.4-.8-.5-.8-.2,0,.1,0,1.1,0,2.3,0,2.2.2,2.8.5,1.5.2-.7.5-1.2.7-.9,0,0,.1.6.2,1.1s.1,1.2.2,1.4c.2.5.1.8-.3.8s-.3.1-.3.3-.1.3-.2.3-.2-.2-.2-.5c0-.4,0-.4-.2-.1-.3.5-.3,1.2,0,1.3.6.1,4.8,0,4.9,0h0ZM34,93.6c0-.4,0-.4-.4-.4-.5,0-.5,0,0-.7.2-.2.4-.8.5-1.2.3-1,.7-.9.8.2,0,.5.2,1,.4,1.1.1.2.2.4.1.6-.1.3-.1.3-.3,0-.2-.3-.5-.2-.5.3,0,.5-.4.5-.4,0h0ZM109.3,63.5c0-25,0-31.8-.2-31.9-.1,0-3.5-.1-7.6,0s-7.6,0-7.9,0-1.2,0-2,0c-2.3,0-2.3,0-2.2.3,0,.2.1.6.2.9s.2.9.4,1.3c.3.6.3.9.3,1.8,0,.6-.1,1.2-.2,1.2,0,0-.2.2-.2.3s-.2.3-.4.5l-.4.3.4.6c.7,1.1.3,2.4-.8,2.9-.6.3-.7.3-1.2-.1-.6-.5-.8-.4-1.7.3-.6.5-.8.9-.4,1.1.1,0,.2.2.2.3s.3.6.7,1,.8,1,.9,1.3.3.5.5.5.2.1.2.3,0,.3.1.3.2.2.2.4c0,.6.7.4,1.6-.5.7-.8.9-1.2.6-1.2s-.6-1.3-.6-1.8.3-1.3.9-1.8c.9-.6,1.9-.7,2.4-.3.2.2.3.3.3.2s0,0,.2.2c.2.3.9.2.9,0s.2-.1.4-.1.4,0,.4-.2.1-.1.2,0,.3,0,.3,0c.1-.2,1.4-.2,2.1,0,.3.1.7.3.8.3s.4.1.5.3c.6.6,1.5,1.4,2.1,1.8.7.5.8,1.1.2,1.7-.3.2-.5.5-.6.5s-.7.2-1.5.4-1.3.4-1.4.4-.3.1-.5.3-.5.3-.6.3-.5.2-1,.4-.9.4-.9.4-.4.3-.7.6-.8.6-1,.7-.4.2-.4.2-.1.1-.2.1-.2,0-.2.1-.4.3-.8.5c-.4.2-.8.5-.8.6,0,.2.6.9.8.8,0,0,.1,0,.1.2s.3.6.6,1c.9,1.2,1.1,1.4,1.4,1.9.2.3.4.6.4.7s0,.2.2.2.3.3.4.6.4.8.6,1,.5.6.6.9.3.5.4.5.1.1.1.2.1.4.3.5.3.4.3.5.2.5.5.9.6.9.6,1.2.2.5.2.5.1.1.1.3.1.3.2.4.2.2.2.3,0,.4.2.6.3.5.4.7.2.3.3.2c0,0,.2.1.2.4s0,.5.1.5.2.3.4.7.4.9.7,1.3.4.7.4.8,0,.3.1.4c.2.3.8,1.4.8,1.6s0,.3.2.5.4.7.6,1.3.5,1.1.6,1.3.3.5.4.8.2.5.3.6.2.3.2.5c0,.8-.7,1-2.9.8-.9,0-1.9-.2-2.1-.2-.4,0-.6,0-.9.3-1,1-1,1.6-.3,2.3.2.2.4.5.4.6s0,.2.1.2.5.3.8.8.8.9,1,1,.3.3.3.4.4.6,1,1.2,1.1,1.3,1.2,1.6.5.8.8,1.3c.6.9.9,1.4,1.4,2.5.2.4.4.7.4.7.1,0,.5.8.5,1.1s.5,1.2.6,1.3c0,0,.3.5.4,1s.3,1,.4,1.1c0,0,.2.5.3.9.2.7.4,1.1.6.9,0,0,.1-14.3.1-31.8h0ZM96.3,94.9c.6,0,1.2-.2,1.4-.2,1.5-.2,1.9-.3,2-.5,0-.1.1-.1.1,0,0,.1.2.2.6.2s.6,0,.6-.1.1-.1.3-.1c.8,0,3.7-.4,4-.6.2,0,.3-.1.3,0s.2.1.5,0,.5-.1.5-.2,0-.1.2,0c.3.1.3-.6,0-1.3-.4-.9-.5-1-.6-1.6,0-.3-.2-.6-.3-.7s-.2-.3-.1-.3,0-.1,0-.1-.2-.1-.2-.3,0-.3-.2-.3-.1,0,0-.1,0-.2-.1-.4-.2-.3-.2-.4-.2-.4-.4-.6c-.3-.3-.5-.4-1.1-.3-1.4.2-6,.5-7.8.6-.6,0-1.3,0-1.6.2s-1,.2-1.7.2l-2.4.2c-1.3,0-1.8.2-2,.3-.1.1.7.9,1,.9s.2,0,.2.2.4.6,1,1.2,1.3,1.4,1.6,1.8c.4.5.7.7.8.6,0,0,.2-.9.2-1.9s.1-1.8.2-1.8c.2-.2,1.2.8,1.1,1.1,0,.1,0,.2.1.2s.3.2.4.4.3.5.5.7c.4.5.6,1.3.3,1.3s-.4-.2-.5-.4l-.3-.4-.2.6c-.2.7-.5.8-.6.2-.1-.5-.4-.5-.7,0-.2.3-.2.4,0,.6.1.1.2.3.2.4s.1.3.2.4c.3.3,1.1.3,2.7,0h0ZM96.9,91.3c0-1.1,0-1.9-.1-1.9-.2,0,0-.6.2-.7.2-.1.6.3.9,1,.1.3.3.5.3.5s.1,0,.1.2c0,.2.6.9.8.8,0,0,.1.2.1.5,0,.6-.3.8-.6.4-.2-.2-.3-.3-.3-.1,0,.1-.2.2-.4.1-.3,0-.4,0-.5.4,0,.3-.2.6-.3.6-.1,0-.2-.4-.2-1.9h0ZM101.4,90.7c0-1.1,0-2.1.1-2.3.1-.4.5-.2,1.1.7.3.5.7,1.1.8,1.2.7.8,1,1.3,1,1.5,0,.3-.4.2-.8-.2-.4-.4-.5-.4-.6.3,0,.4-.6.6-.6.2s-.3-.4-.5,0c-.1.3-.3.5-.4.5s-.1-.9,0-2h0ZM97.6,92.4c0,0,0-.2.2-.2s.2,0,.2.2,0,.2-.2.2-.2,0-.2-.2ZM67.9,94.5c0-.2,0-.3.2-.3.1,0,.2,0,0-.1-.1,0-1.8-.1-3.7-.2s-3.6,0-3.8-.1c-.3,0-.5.3-.4.6,0,0,.3.1.6,0s.5,0,.5,0,.5,0,1,0c.6,0,1,0,1,0s1,.1,2.3.1c2.1,0,2.3,0,2.3-.3h0ZM66.9,93.2c.2-.3-.4-.5-1.2-.6-2.2-.2-4.4-.2-4.6-.1-.1,0-.2.3-.2.5v.4h2.8c1.5,0,2.7,0,2.7,0s0,.1.2,0,.4-.1.4-.2h0ZM71,93.4c0-.2,0-.1.1,0,.1.2.5.2,2.2-.1,1.2-.2,2.4-.4,2.7-.5s1.4-.2,2.3-.3,2.1-.3,2.7-.4c1.4-.2,2.7-.5,3.1-.6.2,0,1.1-.2,2-.3s1.7-.3,2-.4c.4-.2.4-.2.1-.4-.2-.1-.3-.3-.3-.4s-.1-.2-.3-.3c-.2,0-3.5.4-5.1.7-.2,0-1,.2-1.7.2s-1.4.2-1.6.3c-.4.1-.5.2-2,.4-.7.1-1.5.2-1.8.3-1,.3-4.3.9-4.8.9-.5,0-.7.3-.4.8.2.4.6.5.6.1h0ZM81.6,93.3s0-.2.1-.4c0-.2,0-.3-.1-.2-.2,0-.4.6-.1.6s.1,0,.1,0ZM57.9,92.1c-.2-.2-.4-.3-.6-.3s-.3,0-.4-.1-.2-.1-.2-.1c-.4,0-1-.3-1-.4s-.3-.2-.6-.3-.6-.3-.6-.4c0-.3-.9-.1-1,.1-.2.5.9,1.3,1.5,1.1.3,0,.3,0,.2.2,0,.2,0,.3.3.3s.4,0,.5.2.2.2.2,0,.3,0,.7.2c.6.3.8.3,1,0,.2-.2.2-.3,0-.6h0ZM65.7,92.1c0,0,.1.2.3.2.3,0,.5-.4.4-1.3v-.5h-2c-1.3,0-2,0-2,.2,0,.1.1.2.4.2.2,0,.9,0,1.5.2s1.1,0,1.3,0c.3-.2.6.2.4.4-.2.2-1.5.5-1.5.3,0-.1-1.7-.1-1.8,0-.1.1,1,.4,1.2.2,0,0,.3,0,.6,0s.7,0,.9,0c.2,0,.4,0,.4,0h0ZM71.4,91.8c.3,0,.5-.2.6-.3s.5-.2.9-.2,1.6-.2,2.6-.5c1.6-.4,3.8-.8,5.4-.9.2,0,.5-.1.6-.2,0-.1.2-.1.2,0,.1.2,1.1,0,1.8-.3.2,0,.8-.2,1.3-.3s1-.2,1.1-.2c.3-.2.2-.5-.3-.7-.3-.1-.5-.3-.5-.3,0-.2-1.4-1.2-1.6-1.2s-.3.2-.4.3c-.3.4-.9.4-.9-.1,0-.2,0-.5.2-.6s.2-.3.2-.3-.3-.3-.7-.6c-.7-.6-1.4-.7-2.4-.3-.3.2-.9.3-1.2.4s-1.1.3-1.7.5-1.4.4-1.7.4-.5.1-.6.2-.9.3-1.9.6c-1.8.5-3.5,1-3.8,1.3-.1,0-.1.4,0,.9,0,.4,0,.8,0,.8-.1.2.2,1.3.5,1.6.3.2.9.2,2,0h0ZM70.1,90.1c0-.5.7-.7.8-.3.1.4-.2.7-.6.7s-.3,0-.3-.5h0ZM72.7,89.9c0,0-.1-.2-.1-.4,0-.4.5-.6.8-.2.2.2.2.3,0,.5-.3.3-.5.3-.6.1ZM75.1,89.1c-.3-.3,0-.8.5-.7.4,0,.5.4.2.7-.3.3-.5.3-.7,0ZM77.8,88.3c0-.3.1-.5.4-.5.3,0,.4,0,.3.3,0,.2-.2.4-.4.5-.3.1-.4,0-.3-.3ZM80.3,88.1c-.2-.3,0-.9.4-1,.5-.2.7.2.5.7-.2.4-.7.6-.9.3ZM59,91.1c0-.1.2-.3.3-.3.4,0,1.2-2.3,1-2.9,0-.1-.4-.3-.8-.5s-.8-.4-1-.5c-.2-.2-.4-.3-.6-.2-.2,0-.4,0-.5-.2-.1-.1-.3-.3-.4-.3s-.4-.1-.7-.2c-1.1-.6-2.6-1.3-2.8-1.3-.3,0-.4.4-.4,2.4v1.9s.4.1.4.1c.2,0,.4,0,.5,0s.1,0,.2.2.2.3.3.2.1,0,.1,0,.2.2.5.2.5,0,.5.1.4.2.8.3.9.3,1,.4c.3.5,1.3.6,1.4.2h0ZM58.5,89.5c-.3-.4-.2-.7.2-.9.3,0,.4,0,.5.1.3.4.2.8,0,.9-.3.1-.4.1-.7-.1ZM56.1,88.2c0-.2.2-.4.4-.4.3,0,.4,0,.4.4s0,.4-.4.4-.4,0-.4-.4ZM54.1,87.6c-.1-.2.5-.7.7-.6.1,0,.1.2,0,.4-.2.3-.5.4-.7.2h0ZM40.3,90.6c-.3-.2-.5-.4-.6-.3s0,.1,0,.1.2.1.2.2c0,.2.2.4.6.4.1,0,0-.2-.3-.4ZM65.5,89.8c0-.4-.3-.5-1.4-.6-1,0-1.2,0-1.2.2,0,.2,0,.2.4.2.2,0,.6,0,.8,0,.4.2,1.5.2,1.5,0ZM35.4,89.2c0-.2,0-.3-.2-.3-.3,0-.5.3-.2.3s.3,0,.3.2,0,.2,0,.2,0-.1,0-.3ZM34.1,88.3c0,0,0,0,0,.2,0,.2,0,.2,0,.1,0-.1,0-.3,0-.3h0ZM41.5,88.6c0,0-.1-.2-.2-.2s0,0,0,.2,0,.2.2.2.1,0,0-.2ZM65.5,88.3c0-.3-.1-.4-1-.4-.7,0-.9,0-.9.2,0,.3.5.4,1.4.5.5,0,.6,0,.6-.3ZM33,88h.3c0,0-.3-.3-.3-.3-.2-.2-.5-.5-.8-.7-.3-.2-.4-.4-.4-.6,0-.5.3-.5.9,0,.3.3.6.5.7.4.1,0,.2,0,.3.2,0,.2.4.4,1,.6,1,.3,1.8.3,1.7,0,0-.2.4-.7.7-.7s.2,0,.1.1,0,.1.2.2c.3,0,.4-.2.1-.4,0,0-.2-.3-.2-.4s0-.3-.1-.2-.2,0-.3,0c-.2-.3-.5.1-.4.6,0,.5-.2.5-.7,0-.2-.2-.5-.3-.7-.3s-.3,0-.4-.2-.2-.2-.4-.2-.6-.2-1-.5-.8-.5-.8-.4-.1,0-.1,0-.4-.6-.9-1.2l-.9-1v.9c0,.7,0,.9.3,1,.7.2.8,1.4.1,1.2-.4-.1-.6.2-.2.3.1,0,.2.2.2.3,0,.3.8,1,1,.9.2,0,.2,0,.2.4,0,.3,0,.4,0,.3s.2-.1.4,0h0ZM39.9,87.7c0,0-.1-.2-.2-.2s0,0,0,.2,0,.2.2.2.1,0,0-.2ZM41.6,87.5c0-.3,0-.4-.3-.4s-.3,0-.2.3c0,.2.3.5.5.5,0,0,0-.2,0-.4h0ZM70.4,87.3c.3-.1.6-.2.7-.1s.2,0,.3-.1.3-.2.5-.2.4,0,.5-.1.3-.1.5-.2.5-.1.5-.2.2-.1.4,0,.3,0,.4,0,.3-.2.6-.2.5,0,.5-.2.2-.2.5-.2.5,0,.5-.2,0-.1.1,0,.4,0,.7-.1,1.1-.4,1.7-.5,1.2-.3,1.3-.4c.3-.2,0-.8-.7-1.1-.6-.3-.6-.3-1.8.2-.7.3-1.3.5-1.4.6s-.8.3-1.5.5-1.5.4-1.7.5-.6.2-1,.3-.8.3-1,.3-.5.2-.8.3c-.6.1-2,.9-2,1s.1.2.3.4c.3.3,1.1.3,2.1-.1h0ZM88.6,87.4c.7,0,1.3-.1,1.4-.2s.6-.1,1.1-.1c1.4,0,1.4,0,1.3-.6,0-.3-.2-.5-.6-.8-.3-.2-.6-.4-.6-.5s-.4-.4-.9-.8-1-.8-1.1-.9-.2-.3-.3-.3-.5-.3-1-.7-1-.9-1.3-1-.7-.5-1-.8-.8-.7-1.1-.9-.6-.4-.6-.5,0-.1-.2-.1c-.2,0-3.4-2.4-3.9-2.9-.2-.3-.3-.3-.5,0-.3.3-.7,2.1-.8,3.6,0,1.2,0,1.4.3,1.8.2.3.5.5.6.5s.2.1.2.3,0,.2.2.2c.1,0,.2,0,.2,0s.1.2.2.2.2.1.2.3.1.3.3.3.5.2.8.5.8.6,1,.7.4.3.4.3.1.1.2.1.2.1.2.3.1.3.3.3.3,0,.3.2.2.2.4.3.4.2.5.4.3.4.6.6.6.4.6.4c0,.2.6.3.9.2.1,0,.8-.1,1.5-.2h0ZM64.9,87.3v-.4c0-.2,0-.2-.3,0-.2.2-.2.3-.1.4.2.1.4.1.4,0ZM40.7,87.1c0-.2,0-.3.4-.3.5-.1.6-.2.6-1.2,0-1.4-.5-3.4-1.1-4.5-.4-.7-.6-.8-1.4-1.1-.5-.2-1.2-.4-1.5-.5-.7-.3-1.1-.4-2.6-.5-.9,0-1.1,0-1.5.2-.6.5-1.6.4-2.3,0-.4-.3-.6-.4-.7-.2,0,.1,0,.2,0,.3s.2.2.2.3,0,.2.1.2.3,0,.6.3c.5.5,1.4.9,1.9.9.2,0,.6.1.8.3s.4.2.5.2.6.5,1.1,1c.6.7,1,1,1.2.9.1,0,.3,0,.3,0s0,.2-.2.2-.1,0,0,0,.2,0,.4,0c.3,0,.3-.1.1-.3-.1,0-.2-.1,0-.1.1,0,.2,0,.3.2.2.3,1.8,1.1,2.3,1.1s.5.1.5.3.2.3.4.3c.2,0,.2,0,0,.2-.2,0-.5,0-.7,0-.2,0-.4-.2-.6-.2-.2,0-.2,0,0,.2.2.2.1.3-.2.4-.3.1-.3.2-.1.3.1.1.5.3.8.4s.4.2.3.2c-.4,0-.3.8,0,.8s.1-.1,0-.2h0ZM40,86.7c0,0-.3,0-.4,0-.2,0-.2.1,0,.3.1.2.2.2.4,0,.1-.1.1-.2,0-.3ZM61.4,86.8c.2-.4.1-.5,0-.7-.2-.1-.4-.2-.5-.2s-.3-.1-.4-.3-.3-.2-.3-.2-.2,0-.2,0-.3-.2-.6-.3c-.3,0-.6-.2-.6-.4,0-.2-.3-.3-.7-.3-.6,0-2-.7-1.8-.9,0,0,0-.1-.2-.1s-.4,0-.4-.2-.2-.2-.4-.2-.6-.2-.9-.4c-.3-.2-.7-.3-.9-.3-.4.2-.3.9.2,1.3.6.5,1.1.8,1.1.6s.1,0,.3,0c.2.1.5.3.7.4s.4.2.4.3,0,.1.1.1c.2,0,1.6.5,1.8.7,0,0,.3.1.4.1s.3.1.5.2.4.3.7.4.6.2.8.3c.5.3.8.3,1-.2h0ZM99.9,86.4c3.3-.3,3.5-.3,3.5-.7s-.1-.5-.3-.6-.3-.4-.2-.4-.2-.3-.5-.6-.6-.6-.6-.7-.9-1.2-2.1-2.4c-1.7-1.8-2.1-2.2-2.3-2-.4.5-1.3,2.4-1.6,3.5-.2.6-.3,1.2-.4,1.4-.2.5-.6,2.2-.6,2.5s.5.4,1.6.3c.5,0,2-.2,3.4-.3h0ZM39.4,86.4c0,0,0-.2-.2-.2s-.3,0-.3.2.1.2.2.2.3,0,.3-.2ZM46.7,86.4c0,0,.5-.1,1.1,0,.5,0,1.8,0,2.8.1h1.8s0-.7,0-.7c0-.8-.2-5.1-.4-5.3,0,0-.8-.1-1.6-.2s-2.5-.1-3.7-.2c-2.9-.2-4.9-.1-5.1,0-.1.1,0,.5.2,1.3.2.6.4,1.3.5,1.4.1.2.2.8.4,2.4,0,.2,0,.5,0,.7,0,.3.1.3,1.8.4,1,0,1.8,0,1.8.1.1.1.3.1.4,0h0ZM43.2,84.5c0-.2.3-.9.5-1.4s.5-1.2.5-1.5.2-.5.3-.5.3.3.3,1.2c0,.6.2,1.2.2,1.2s.1.2.1.3,0,.3.2.3c.4,0,0,.2-.5.3-.2,0-.6,0-.7.2-.2,0-.3,0-.3-.4v-.5s-.5.6-.5.6c-.4.5-.5.5-.4.2ZM46.7,84.6c.1-.3.4-1,.9-2.1l.4-.8.4.5c.2.3.4.7.4,1s0,.8.2,1c0,.3,0,.5,0,.5,0,0-.2,0-.2-.1,0-.1,0-.2,0,0,0,.2-.7,0-.9-.2-.2-.2-.2-.2-.4,0-.1.1-.3.3-.3.4s0,.2-.2.2-.1-.1,0-.3ZM51,84.7c0,0-.2-.2-.5-.2s-.6,0-.6-.2c0-.2.2-1.4.4-1.6,0,0,.1-.3.1-.5,0-.4.4-.8.6-.7,0,0,.2.4.2.7s0,.9.2,1.2c.2.6,0,1.4-.2,1.4s-.2,0-.2-.2h0ZM94.9,83.6c.3-1,.6-2,.6-2.1,0-.3.5-1.5.7-1.8.2-.3,1.1-2,1.6-3,.2-.3.2-.6.2-.7-.2-.2-2.5-.3-7.9-.4-2.2,0-4.4-.1-4.9-.2s-1.8-.1-3-.1c-1.9,0-2.1,0-2.1.2s.2.4.4.5.4.3.4.4,0,.1.2.1.5.3,1,.7.9.7,1,.7.5.3.8.7.7.6.8.6.2,0,.3.2.5.5,1,.7.9.6,1.2.9.5.5.6.5.5.3.8.7.7.7.7.7c0,0,.4.3,1.3,1,.1,0,.2.2.3.2s.3.2.5.4c.7.7,1,.9,1.1.8,0,0,0,0,0,.2s0,.2.1.2c.2-.1.6,0,.6.3s.2.3.4.4q.4.2,1.3-2.6h0ZM68.6,85.9c.3,0,.5-.2.6-.2s.2-.2.3-.2.4,0,.6-.2.5-.2.5-.2.2,0,.2-.1.2-.1.4-.1.3,0,.3-.1.3-.2.6-.3.6-.1.7-.2c.2,0,1.4-.5,1.7-.6.2,0,.6-.2.9-.3,1.7-.6,1.7-.7,1.8-2.3,0-.5,0-1.3.2-1.7s.1-.9.2-1.1,0-.3,0-.3,0-.1,0-.3c.1-.5,1-3.5,1.4-4.5.2-.6.4-1.1.3-1.2,0,0-.9-.3-1.9-.4s-2.3-.4-2.9-.5-1.6-.3-2.1-.3c-.9,0-1,0-.9.2.4,1,.2,3.4-.3,4.3-.3.6-1.5,1.7-2.2,2-.4.2-.9.4-1.2.5s-.6.2-.8.2-.3.2-.5,1c-.1.5-.4,1.5-.6,2.1s-.4,1.6-.5,2c0,.8,0,.9.4,1.4.3.3.7.7.8.9.5.6.7.7,1,.6.2,0,.5-.1.8-.2h0ZM36.2,85.7c.3-.3.5-.3.6-.1.2.2.2.1.2-.3s-.8-1.5-1.1-1.5c0,0-.3-.2-.6-.5s-.6-.5-.7-.5-.3-.2-.6-.5-.6-.5-.7-.5-.2,0-.2-.2-.1-.1-.3,0c-.2,0-.3,0-.3,0s-.1-.2-.3-.2-.5-.2-.7-.4-.5-.4-.6-.4-.2.2-.2.4,0,.4.1.4c.1,0,.7,1.2.7,1.4s2.3,2.4,2.5,2.4.3,0,.3.2.1.2.2.2.2,0,.2.2c0,.2.5.5.8.5,0,0,.3-.1.5-.3h0ZM63.2,85.3c1.4-1,1.6-1.5,2-3.7.2-1,.4-2.2.6-2.6.3-1,.3-1.3-.1-1.5-.8-.2-2.2-1.3-2.2-1.7s-.2-.3-.4-.5-.3-.5-.3-.6,0-.4-.1-.5c-.3-.4-.2-2,.2-3.3.2-.6.4-1.1.5-1.1s.1-.2.1-.4,0-.4-.3-.4c-.2,0-.7,0-1.1-.1s-1.4-.1-2-.1h-1.1s-.4.7-.4.7c-.2.4-.6,1.1-.9,1.6-.2.5-.6,1.1-.8,1.3s-.7,1.2-1.1,2-.9,1.8-1.1,2.2-.5.9-.6,1.3-.5,1-.7,1.6c-.3.6-.4,1.1-.4,1.4.1.5.9,1.2,1.4,1.2s.4,0,.4.3,0,.2.2.2c.1,0,.2,0,.3,0s.2.2.4.2.5.1.6.2.4.2.7.3.6.3.6.4,0,.1.2,0,.3,0,.5.2,1.1.6,2,.9,1.7.7,1.8.8c.2.2.6,0,1-.2h0ZM52.6,79.3c0-.1.8-1.6,1.7-3.3s1.7-3.3,1.8-3.6.3-.5.3-.6.3-.6.6-1.1c1.3-2.3,2-3.8,2.2-4.7,0-.4.2-.9.3-1.3s.2-.7.2-.7-.3-.1-.7-.3-.8-.3-1-.5c-.4-.3-1-1.3-1-1.6,0-.1-.2-.4-.5-.7-.8-.9-.6-2.3.5-3.1.4-.3,1.1-.4,1.1-.2s.1.2.3.3.4.3.6.5c.4.5.6.3.9-.9.2-.9.2-2.3,0-1.9,0,.1-.2.2-.3.2s-.3.1-.4.3c-.3.5-1.6,1-2.1.9-1-.2-1.7-.5-1.7-.6s-.2-.3-.4-.5c-.7-.8-.7-2.4,0-3.3.4-.4.6-.5,1.4-.5.7,0,1,0,1,.2s0,.2,0,.2.2,0,.3.1c.2,0,.3,0,.2-.7v-.8s-.9,0-.9,0c-.8,0-.9,0-1.6-.8-.4-.4-.8-.9-.8-1.1s-.1-.6-.2-.9c-.2-.5-.2-.6.1-1.3.3-.6.5-.8.9-.9.6-.2,1.4-.2,2,0,.3.1.3,0,.4-.7,0-.4.1-1.1.1-1.4,0-.8.5-2.6,1-3.4.2-.3.4-.6.3-.6s.2-.4.5-.8.7-1,.9-1.3c.3-.5.6-.6.6-.1,0,.2.1.2.5-.3.6-.6.6-.9.1-.8-.2,0-.4,0-.4-.1,0-.3,1.2-1.6,1.5-1.6s.2,0,.4-.2c.3-.3,1-.6,1.4-.6s.4,0,.5-.2c.4-.4,5.8-.2,7,.3.3.1.8.2,1,.2s.4,0,.4.2c0,.1,0,.1.2,0s.2-.2.2,0c0,.1.1.2.3.2s.5.2.8.3.6.3.7.3.2,0,.2.2,0,.2.2.2.5.2.8.3.7.3.8.3.2,0,.2.1c0,.1,1.7,1.1,1.8,1,.6-1,.6-1,.1-1.5-.2-.3-.5-.6-.6-.7-.2-.3,0-1.8.2-2.2.3-.4,1.8-1,2.2-.8.2,0,.4.1.5.1s.4.2.6.5.5.5.6.5.1-.3.2-.6c0-.3.3-.7.5-.9l.4-.3h-5.6c-3.1.1-6.5.2-7.6.2-2.6,0-1.7,0-8.8,0-3.4,0-7.2,0-8.4,0-1.3,0-4.4-.1-7.1-.1-5.4,0-14.4-.3-14.8-.3-.1,0-.5,0-.8,0-.5,0-.6,0-.7.6,0,.4-.2,42.6,0,44.4,0,.2,0,.3.2.3s.2,0,.2.2,0,.3.2.3.2,0,.3.1.3.1.5.1.4,0,.5.2.4.2.8.2,1,.2,1.4.3,1.1.3,1.4.3.7.1.9.2c.5.2,1-.5,1.1-1.4v-.9c0,0-.9-1.1-.9-1.1-1.7-1.9-1.9-2.3-2.2-3.5-.3-1.3.3-4.1.8-4.1.3,0,.8.4.8.6s1.4,1.6,1.6,1.6,1.2,1.6,1.4,2.2c.3.9.2,2.7-.1,3.7-.5,1.3-.4,1.4.2.9.9-.7,2.3-2.2,2.6-2.8l.5-.9c.1-.2.3-.4.3-.5.2-.2,1.1-2.8,1-3,0,0-.3-.2-.5-.2-.7,0-1.5-.3-2.1-.9-.3-.3-.6-.5-.7-.5s-.1,0,0-.2c0-.1-.1-.2-.5-.2-1.3.1-2.5,0-3.1-.2-.6-.2-.7-.3-.8-.7,0-.4,0-.6.8-1.3.4-.4.9-.8.9-.8s.3-.1.5-.3c.3-.2.3-.4.3-.8,0-.3-.1-.5-.2-.4-.4.2-1-1.5-1-2.5,0-.7.6-1.4,1.6-1.9.6-.3.7-.8.1-1.3-.2-.2-.4-.5-.5-.7s-.2-.7-.4-1.3c-.4-1.2-.4-1.4.5-1.3.4,0,.7,0,.7.1s.1,0,.3,0,.4.2.5.3.2.2.3.2.4.1.8.3l.6.3.5-.6c.4-.5.7-.6,1.5-.8,1.1-.2,1.5-.2,2.7.4,1,.5,1.5,1.2,1.5,2.2s.2,1,.6.6c.2-.1.3-.2.4-.2s.1,0,.1-.1,0-.2.2-.1c.4.1.8-.5,1-1.5.1-.7.1-.9,0-1-.2,0-1.5.2-1.8.5-.3.2-.7,0-.6-.3,0-.1.3-.3.5-.4s.5-.3.5-.3,0-.1.2-.1.1,0,0,.2,0,0,.2,0,.7-.3,1.1-.3h.8c0,0,0,.8,0,.8,0,.5-.1,1.2-.2,1.6-.2.8,0,1.3.4,1.3s.2.1.3.3.2.3.2.3.3.2.5.3c.6.5.7,1.9.3,2.9l-.3.8.4.3c.2.2.5.3.6.3.3,0,.4.1,1.3,1,1.1,1.1,1.3,1.4,1.1,1.6-.3.3-3.1,1.2-3.6,1.2s-.6.1-.9.7c-.2.4-.5.7-.5.7s-.3.2-.5.4c-.5.5-2.1.8-2.9.6-.3,0-.8-.4-1.1-.7l-.5-.5-.5.9c-.3.5-.5,1-.5,1.2,0,.4-.9,2.8-1.3,3.4-.2.2-.3.5-.3.5,0,.4-1.3,2.1-2.9,3.7-1,1-1.8,1.9-1.8,2s.3.1.6.1c.6,0,.6,0,2-1.6,1.6-1.8,1.9-2.2,2.4-3,.3-.5.7-.9.8-1,.3-.2,1-1.8,1.2-2.7,0-.3.2-.9.3-1.4.1-.6.3-.8.5-.8s.3,0,.3,0c0,.3-.4,2-.6,2.4-.1.3-.3.7-.4.9-.4,1.1-.9,1.9-1.3,2.5-.6.7-.7.8-.3.7.1,0,.2-.2.2-.2s0-.1.2-.1.5-.3.8-.7.8-.8,1-.8.4-.2.6-.3c.7-.5,1.2-.6,2.3-.6,1.1,0,3.9.6,4.3.8.3.2.1.5-.5,1-.4.3-1,.8-1.5,1.2-1,.8-2.6,1.6-3.4,1.7-.3,0-1,0-1.6,0-3.5,0-3.3,0-3.6.2-.1.2-.3.2-.4.2s-.2,0-.2,0,0,.2-.2.2c-.3,0-1.6,1.2-1.4,1.4,0,0,.2,0,.3,0s.2,0,.2,0,.3.2.6.2.8,0,1.1,0,.7,0,1,0c1.8,0,7.1,0,7.1.2,0,.2,1.4.1,1.5,0h0ZM48.6,56.3c.1-.5,1-1.3,1.2-1.2.3.2.2.4-.4,1-.6.7-1,.8-.8.2h0ZM33.3,78.6c0-.1,0-.3,0-.3s-.4-.2-.9-.4-1-.3-1-.4c0-.1-.2-.1-.3,0-.1.2,0,.3.3.6.2.2.6.4.7.3s.3,0,.3.2.2.2.5.2c.3,0,.5,0,.5-.2ZM67.8,76.2c0,0,0-.3.2-.5.2-.3.3-.4.6-.2.3.2.4.2.6,0,.1-.2.2-.4.1-.5-.1-.3.2-.7.6-.7s.3,0,.2-.5c0-.4,0-.6.3-.8.3-.3.4-.4.2-.6,0-.1-.3-.3-.5-.3-.4,0-.4-.4-.2-1.2.1-.6-.2-.8-.6-.4-.3.3-1,.4-.8.2.2-.2-.5-.5-1-.5-.4,0-.7,0-.9-.2-.4-.4-.9-.2-.9.2s-.2.2-.4.2c-.5,0-.6,0-.6.5,0,.2-.2.4-.4.5-.4.1-.4.2-.1.4.5.4.5.9.2,1.2-.2.1-.3.4-.3.6,0,.4.2.4.4.1.1-.2.2,0,.2.6s0,.8.3.8c.5,0,.8,0,.8.2s0,.3.2.6c.1.4.2.4.6.1.4-.3.5-.3.8,0,.4.4.7.5.6.2h0ZM66.7,74.8c-.2-.1-.4-.2-.4-.3s-.1-.1-.2-.1-.2-.1-.2-.2,0-.3-.1-.3-.2-.2-.2-.4c0-.8,0-1.3.4-1.8.4-.5.5-.5,1.2-.5,1,.1,1.7.8,1.7,1.6s-.2,1.4-.8,1.8c-.6.4-.8.4-1.3.1h0ZM67.9,73.5c.1-.3.2-.5,0-.8,0-.2-.1-.4-.1-.4s-.2-.2-.4-.4c-.7-.5-1.5.3-1.3,1.2,0,.3,0,.6,0,.7s0,0,0,0,.2,0,.2,0,.2.2.6.1c.4,0,.6-.2.8-.5h0ZM67,73c0-.6.6-.6.6,0s0,.4-.3.4-.3,0-.3-.4ZM49,75.8c.6-.2,1.2-.5,2-1.2,1.1-.9,1.3-1.2.7-1.3-2.3-.4-3.8-.4-4,0,0,0-.2.1-.4.1-.3,0-1.6.9-1.6,1.2s1.2,0,1.5-.1c0,0,.3-.1.5-.1.2,0,.8,0,1.4-.1.7,0,1.1,0,1.1,0,0,.2-.6.4-2,.7-2.7.6-3.3.7-3.3,1s.1.1.3,0,.4,0,.5,0c.3.2,2.3,0,3.4-.3h0ZM99.6,73.7c0-.1.5-.9,1-1.6.9-1.4,1-1.9,0-.8-.3.4-.8,1-1.1,1.3-.9,1-1.1,1.5-1.1,2v.5s.5-.6.5-.6c.3-.3.6-.7.7-.9h0ZM97.5,74.5c0-.4-.4-.4-.5,0,0,.3,0,.3.2.3.1,0,.3-.2.3-.3ZM100.3,74.4c.3-.3.5-.5.4-.5s0,0,0-.1c.6-.4,1.4-2,1-2s-1.8,2.3-2,2.8c-.1.5,0,.5.5-.1h0ZM102.1,73.7c.6-.7.7-1,.4-1.1-.2,0-.5.5-1.1,1.6-.3.5-.3.9,0,.5.1-.1.4-.6.7-1h0ZM102.9,74.3c0-.3,0-.6,0-.7-.1-.1-.5.4-.7.8-.2.4-.2.5.2.5s.4-.1.5-.6h0ZM38.9,74.6c.1-1,.1-1.8,0-2.3-.2-.7-1.4-2.5-1.6-2.5,0,0-.4-.3-.7-.6-.5-.6-.5-.6-.6-.3-.2.5-.1,3.1,0,3.2,0,0,.2.3.3.5.1.4,1.4,1.9,1.6,1.9s0-.8-.4-1.6c-.3-.5-.5-1.1-.5-1.3,0-.4.2-.6.4-.2,0,.1.3.5.6,1,.5.8.6.9.6,1.8,0,.5.3.8.3.4h0ZM90.4,74.2c.2-.5,0-1.7-.3-4.8-.2-1.3-.4-2.5-.4-2.7s0-.3-.1-.4-.1-.5-.2-1-.1-.9-.2-1-.1-.4-.1-.6c0-.5-.2-1.2-.5-2-.1-.3-.2-.7-.1-.7s0-.1,0-.1-.2-.2-.2-.4-.1-.5-.2-.7-.2-.5-.2-.7-.2-.7-.4-1.1-.4-.8-.4-.9-.2-.5-.4-1c-.8-1.9-1-2.2-1.1-2.7-.1-.3-.2-.5-.2-.6s-.2-.4-.4-.7-.4-.7-.4-.8-.1-.2-.2-.3-.2-.2-.2-.4-.3-.7-.7-1.1-.7-.9-.7-1-.1-.3-.3-.4-.3-.4-.4-.6-.2-.4-.3-.4-.1-.2-.1-.3-.1-.3-.2-.3-.2,0-.1-.3c0-.2,0-.3-.1-.3s-.4-.2-.5-.5-.8-1-1.5-1.7-1.5-1.6-1.9-2-.7-.7-.8-.7-.1,0-.1-.2-.2-.4-.5-.5c-.3-.1-.7-.4-.9-.7s-.5-.5-.6-.5-.2,0-.1-.1-.1-.2-.3-.4-.5-.3-.7-.5c-.3-.2-.6-.2-.6.1s.4.4.8.7.8.7.7.8,0,.2.2.2.4.1.4.3c0,.2.2.3.4.3s.3,0,.2.2,0,.2,0,.2.3.3.5.6.5.7.6.8.2.2.2.3.2.3.4.5c.6.7,1.2,1.5,1.2,1.7,0,0,.2.4.4.6s.4.5.4.6,0,.2.1.2.2.1.2.3c.2.6.6,1.2.8,1.3.1,0,.2.2.2.3s.1.4.3.6.3.5.3.6,0,.2.1.2c.1,0,.4.6.6,1.3,0,.2.2.4.2.4.2,0,.7,1.1,1.1,2.4.2.5.4,1.1.6,1.5s.3.7.3.8.2.6.4,1,.4,1,.4,1.1.1.6.2.9.3,1,.3,1.4.2,1,.2,1.1.1.2,0,.3,0,.2,0,.3.2.4.2.7,0,.6.1.7.1.4.2.7c0,.4.2,1.7.3,2.1.1.6.2,3.9.2,5.9,0,2.8-.2,2.5,2.2,2.5,1.4,0,1.5,0,1.6-.4h0ZM91.8,74.6c0,0,.4-.6.9-1.1s.9-1,.9-1.1.4-.5.8-.9.8-.8.8-.9.3-.4.6-.8c.8-.9.9-1.7.2-1.1-.1.1-.7.8-1.3,1.5-1.3,1.7-1.8,2.3-2.6,3.2-.6.6-.8,1.3-.4,1.3s.2,0,.2-.1h0ZM95.1,74c.3-.4.7-.9.9-1.1.6-.7.8-.9.9-1.2.2-.5-.1-.3-.6.3-.2.3-.7.9-.9,1.2-1.1,1.2-1.3,1.5-1,1.5s.5-.3.8-.7h0ZM96.3,74.3c.5-.6.8-1.3.8-1.7v-.4l-.4.4c-.2.2-.4.5-.4.5s-.2.4-.4.7-.4.6-.4.7c0,.2.4,0,.7-.3h0ZM80.9,74.3c0,0,.4,0,.8,0,.9.2,2.6.1,2.8,0,.1,0,.2,0,.2,0s.2.2.5.2c.4,0,.5,0,.6-.3,0-.2,0-1.8,0-3.5,0-2.8-.1-4.7-.4-6.1,0-.3-.6-.4-.6,0s-.2.4-.5.7-.5.6-.5.7-.1.3-.3.5c-.4.4-1.8,2.8-2.2,3.7-.2.3-.3.6-.4.6s-.1.1-.1.3-.2.7-.5,1.3c-.8,1.8-.8,2.3,0,2.2.2,0,.4,0,.5-.1h0ZM95.2,72.3c1.2-1.4,1.8-2.4,1.4-2.4s-.7.8-1.4,1.7c-.7.9-1.4,1.7-1.4,1.7s-.1,0-.1.2-.2.4-.3.5c-.3.2-.3.3-.1.5.2.1.4,0,.9-.7.4-.5.9-1.1,1.2-1.4h0ZM99.1,72.5c0,0,.2,0,.2-.2s.2-.4.5-.7.5-.6.5-.7.1-.4.3-.6c.6-.8.2-.9-.5,0-.4.4-.7.9-.8,1,0,.1-.2.3-.5.5-.3.2-.4.6-.4.9v.5s.3-.3.3-.3c.2-.2.4-.3.5-.3ZM92.2,72.3c.3-.4.9-1.1,1.3-1.6s1.1-1.3,1.6-1.9c.9-1,1.1-1.6.7-1.9-.2-.1-1.5,1.3-1.5,1.6,0,0-.4.5-.8,1-1.5,1.7-2,2.4-2.1,2.9-.1.7,0,.7.8-.2h0ZM98.6,71.2c.1-.2.4-.6.7-.9s.6-.8.7-1.1.3-.6.4-.6c.2,0,.1-.4,0-.4s-.6.4-1,1-.8,1-.9,1c-.2.2-.5.9-.4,1.1.1.3.3.3.6-.1h0ZM92,70.5c0,0,.3-.4.6-.8.7-.7,2.2-2.6,2.7-3.2.4-.5.4-1,.1-1s-.3.2-.5.4-.5.7-.8,1-.6.7-.7.9-.5.7-1.1,1.3c-1.3,1.4-1.4,1.6-1.2,1.9,0,.2.1.2.5,0,.2-.2.4-.3.4-.4h0ZM80.8,69.7c.4-.7.7-1.5.8-1.7,0-.4,0-.5-.5-.5-.3,0-.8,0-.9,0s-.7,0-1.1-.1-1.3-.2-2-.3c-3.5-.5-5-.7-5.7-.8-.7,0-2.1-.3-2.3-.3,0,0-.6,0-1.3-.2s-1.2-.2-1.3-.2c-.2,0-1.4-.3-2.4-.4-2.2-.3-3.2-.5-3.2-.7-.2-.4-.5.1-.8,1.2-.4,1.7-.4,1.8.4,2,.4.1,1.1.2,1.6.3s1,.2,1.2.3.4.2.6.1.4,0,.7.2.7.2,1.1.2.7,0,.8.2.2.1.3,0,.3,0,.5,0c.3.2,2.5.5,3.9.6.4,0,.9.1,1.1.2s.7.1,1.2.1.8,0,.8.1.2.1.4.1.9.1,1.5.2c1.3.3,3,.5,3.6.6.3,0,.5-.2,1.1-1.3h0ZM79.6,69.2c-.2-.2-.1-.7.1-.7s.4.2.3.6c-.1.3-.3.3-.4.2ZM77.3,68.9c0-.7.4-1,.8-.5.1.2.1.3,0,.5-.3.3-.7.3-.7,0ZM75.4,68.6c-.2-.2-.2-.3,0-.5.3-.4.6-.3.6.2,0,.5-.3.7-.6.3h0ZM73.3,68.4c0-.2,0-.4.2-.6l.3-.3v.5c-.1.6-.4.8-.6.4ZM71.2,68.1c-.2-.2,0-.5.3-.7.4-.1.5.4.1.7-.2.1-.3.1-.4,0ZM69.1,67.7c0,0,0-.3.2-.5q.2-.4.4,0c.3.6.3.7-.2.7s-.4,0-.4-.2ZM67,67.5c-.1-.3,0-.8.3-.8s.3.8,0,.9c-.1,0-.3,0-.3,0h0ZM65.3,67.2c0,0,0-.3,0-.5.2-.3.2-.3.4,0,.2.2.2.3,0,.5-.2.3-.4.3-.6,0h0ZM63.4,66.8c0-.1,0-.4.2-.5.3-.3.3-.3.3.2s-.4.7-.5.3ZM61.4,66.7c-.1,0-.2-.3,0-.4.1-.3.7-.4.7,0s-.4.6-.6.5ZM98.4,69.3c.3-.3.5-.6.5-.7s.1-.4.3-.5c.4-.4.7-1.1.5-1.3,0,0-.2,0-.3.2-.2.4-.7,1-1.5,2-.7.9-.3,1.1.5.3h0ZM91.8,68.7c.2-.3.3-.5.4-.5.2,0,.8-.6.8-.8s.2-.3.4-.5c.5-.5,1.2-1.4,1.6-1.9.3-.4.2-1.1,0-1.1s-.6.5-1.1,1.2-1.3,1.5-1.7,2-.7.9-.7,1,0,.2-.1.3-.2.3-.3.5c0,.4,0,.5.2.5s.4-.2.6-.5h0ZM98,67.9c.2-.2.4-.5.4-.6s.1-.3.3-.5.4-.6.4-.8c0-.4,0-.4-.2-.3-.4.2-.5.3-1.2,1.4-.3.5-.6,1-.5,1.1.2.3.3.2.7-.3h0ZM44.4,67.7c.2-.3.2-.4-.1-.3-.2,0-.3,0-.2,0s.2-.2.2-.3.1-.5.3-.9c.5-1.1.4-1.2-.3-.7-.9.8-1.8,1.3-1.9,1.1,0,0,0-.2.1-.2.3-.1,1.3-1.2,1.6-1.7.3-.5.2-.6,0-.4-.5.4-1.3.8-1.5.8s0-.2.4-.6c.8-.7.9-.8.4-.8-.8,0-1.4.3-1.9.8-.5.5-.6.6-.6,1.3s0,.9.5,1.4c.3.3.7.6.9.6s.3,0,.3.2.3.2.8.1c.6,0,.9-.1,1-.4h0ZM49.7,67c1-.6,1.4-1.3,1.3-2.2,0-.3-.2-.8-.4-1s-.3-.4-.3-.5,0-.2-.2-.3c-.3-.2-1.9,0-2.1.1-.1.1,0,.2.1,0,.2,0,.3,0,.3,0s0,.1.2,0c0,0,.2,0,.2.3,0,.4,0,.4-.2.2-.1-.1-.3-.2-.4,0s0,.3.3.5c.3.2.5.4.5.5s.1.3.3.4.3.3.3.4c0,.4-.3.5-.6.2-.1-.2-.3-.3-.4-.3s-.2-.1-.2-.2c0-.2-.3-.4-.5-.4,0,0-.2-.2-.3-.4,0-.2-.2-.3-.2-.2,0,.1,0,.4.2.7s.2.6.2.8c0,.4-.5.3-.6-.1,0-.2-.1-.3-.2-.3s-.2-.2-.3-.4c-.1-.3-.2-.4-.3-.3s0,.6.1,1.4q.3,1.2.9,1.4c.8.2,1.4,0,2.4-.5h0ZM49.1,64.3c-.3-.1-.3-.2-.2-.3.2-.2,1.1.1.9.3-.1.2-.2.2-.7,0ZM91.2,67c.2-.3.9-1.2,2.5-3,.6-.6.7-.9.8-1.4,0-.6,0-.6-.3-.5-.2,0-.6.5-1,1.1-1.5,2-2,2.6-2.3,2.8-.4.2-.5,1-.2,1s.1,0,0,.2,0,.2,0,.2.2-.2.3-.4h0ZM97.4,66.6c0,0,.2-.3.3-.4s.3-.3.3-.4.1-.3.2-.4c.3-.2.3-1,0-1s-1,1-1,1.3-.1.3-.3.4-.2.4-.2.6c.1.3.4.3.4,0ZM39.7,66.4c.2-.1.3-.3.2-.5,0-.2-.1-.2-.4,0-.3.2-1,.4-1,.2s.7-.9,1-.9.3-.1.3-.2.1-.3.2-.3.2-.2.2-.3c0-.2-.7,0-1.5.3-.6.3-1.9,1.6-1.8,1.7.4.4,2.3.5,2.7.1h0ZM83.2,65.7c.1-.3.2-.5.2-.7,0-.1,0-.2.2-.1.1,0,.3,0,.3-.4.1-.4-.2-1-.7-1.3-.1,0-.2-.2-.2-.4s-.1-.2-.2-.2-.2,0-.2-.2-.2-.5-.5-.8c-.3-.3-.5-.7-.5-.8,0-.1,0-.2,0-.2s-.2-.4-.4-.8-.2-.9-.3-1c-.1-.2-.4-1.6-.6-2.6-.2-1.2,0-3.1.2-4.4.2-1.1.2-1.3,0-1.8-.1-.3-.3-.7-.4-.8s-.2-.3-.3-.4c-.1-.4-.9.3-1.1,1.2-.1.4-.3,1-.4,1.1-.2.5-.4,2-.4,2.9,0,2.4.4,4.9.7,5.5,0,.1.2.5.2.8,0,.6.2.7.9,2.2.2.4.4.9.4,1s0,.2.2.2.2,0,.2.2.3.5.6.8c.9.9,1.1,1.3,1.1,1.5,0,.3.7-.3.9-.8ZM81.7,64.1c-.2-.2,0-.6.4-.6s.3.1.3.3c0,.3-.4.5-.7.2ZM80.9,62.5c0-.2,0-.5,0-.7,0-.3.2-.3.2-.1,0,.2.1.3.2.4.2,0,.2.2,0,.4-.2.4-.4.4-.5,0ZM79.9,60.7c-.1-.4.2-.7.5-.6.3.1.2.8-.1.9-.1,0-.3,0-.4-.2ZM79.2,58.9c0-.2,0-.4.1-.5.3-.3.8,0,.7.3,0,.4-.7.6-.8.2h0ZM78.7,56.7c.2-.6.7-.7.7-.1s0,.4-.4.4-.4,0-.3-.3h0ZM78.4,54.8c0-.2.4-.6.6-.4.2.2,0,.6-.3.6s-.3,0-.3-.1ZM78.9,52.6c0-.5.4-.7.6-.3.1.2.1.3,0,.5-.3.4-.6.3-.6-.1ZM79.4,50.9c-.2-.2-.2-.3,0-.6.2-.4.8-.4.8,0,0,.8-.4,1.1-.8.6ZM79.8,65.8c.2-.2.3-.8,0-.8-.2,0-.5.2-.7.6-.2.3-.1.4.1.4s.4,0,.5-.2ZM78.9,65.1c.6-.7.7-.9.5-1-.2-.1-1.4,1.3-1.4,1.6s.4.2,1-.5h0ZM74.5,65.5c.2,0,.5-.4.8-.8.2-.3.6-.8.9-1.1.7-.7,1.9-2.7,1.8-2.8-.1-.1-1.9,1.6-1.9,1.9s-.2.3-.4.5-.4.4-.4.5-.2.4-.5.7c-.5.5-.9,1.3-.7,1.3s.2,0,.4-.2h0ZM77.3,65.5c.1-.1.4-.5.6-.8s.4-.6.5-.6.2-.2.4-.4c.2-.4.2-.4,0-.4s-.3.1-.3.3-.1.3-.2.3-.4.2-.5.5-.4.6-.6.8c-.5.5-.3,1,.3.5h0ZM91,65.1c0,0,.2-.3.4-.5s.6-.7.8-1,.6-.8.7-.9c.9-1,1.1-1.4,1.1-1.9s-.3-.8-.8-.2c-.8.9-.9,1.1-1.2,1.6-.2.3-.7.9-1,1.4-.7.9-.8,1.3-.5,1.8.1.3.2.3.4,0,.1-.1.2-.3.2-.4h0ZM73.8,64.6c.5-.5,1.1-1.2,1.3-1.5s.9-1.1,1.4-1.8c1-1.1,1.3-1.7.9-1.7s-.2.2-.3.3-.3.3-.4.3-.4.4-.7.8-.7,1-1,1.2-.5.5-.5.5-.4.5-.8.9c-.8.9-1.4,1.9-1.1,1.9s.6-.4,1-1h0ZM75.9,65.3c0-.1.4-.4.7-.7.8-.7,2.1-2.4,2-2.6,0,0-.4.2-.8.6-.9,1-2.3,3-2.2,3s.2,0,.3-.2h0ZM71.7,65.1c0,0,.3-.4.6-.6s.8-.7.9-.9.7-1,1.3-1.6,1-1.2,1-1.3c0-.1-.4-.2-.9-.2-1.1,0-1.6-.4-1.8-1.5,0-.4-.3-.7-.4-.7s-.2,0-.2.2-.5.4-1.1.7c-1.4.7-1.9.9-2.7,1-1,.2-1.2.3-1.2.6,0,.7-.6,2.4-1.2,3.1-.5.7-.6,1-.2,1s0,0,0-.2c0-.2,0-.2.1,0,.3.3,2,.6,3.7.7.9,0,1.6.1,1.6.2.1.1.4,0,.4-.2h0ZM53.7,65c.8-.3.9-.7.5-1.2-.2-.2-.4-.4-.5-.4s-.3-.1-.4-.3-.4-.3-.6-.3-.4-.1-.6-.2c-.4-.2-1.2,0-1.1.4,0,.1.2.2.3.2.4,0,1.4.3,1.5.5.3.4,0,.6-.6.4-.7-.2-.9,0-.6.7.2.4.3.5.9.5.4,0,.9,0,1.2-.2h0ZM97.2,64.6c0-.1,0-.2.1-.2.2,0,.5-.8.4-1,0,0-.2-.1-.3,0-.2.1-.7,1.1-.9,1.6,0,.2,0,.3.3,0,.2-.1.4-.3.4-.4ZM66.1,62.4c.2-.4.4-1,.5-1.4,0-.7,0-.8-.2-.9-.4-.2-.6,0-.6.6s-.6,2.3-1,2.7c-.5.6-.3.6.4.1.4-.3.8-.8,1-1.2h0ZM63.9,63.1c.8-.9,1.3-2.3,1.1-3.1-.2-.5-.5-.1-.7.9-.1.5-.3.9-.3.9s-.2.2-.2.5-.3.7-.5,1c-.6.8,0,.7.7-.2h0ZM62.7,62.7c.4-.5.8-1.1.8-1.3s0-.5.1-.6.2-.7.2-1.1c0-.7,0-.9-.2-1.1-.4-.3-.6-.4-.6,0s-.6,2.3-.9,2.9c-.2.3-.3.7-.3.8s-.2.3-.4.4c-.9.2-.9,1.1,0,1.1s.7-.2,1.3-.9ZM97,62.6c.2-.3,0-.8-.2-.8s-.2.1-.3.3-.2.5-.3.7-.2.5-.1.6c0,.2.2.2.5-.1.2-.2.5-.5.5-.7h0ZM85,63.2c0-.2.1-.4,0-.6s0-.5-.1-.8-.1-.5-.2-.6-.1-.2-.1-.4,0-.3-.2-.3-.1,0,0-.2,0-.3,0-.4-.3-.7-.4-1.4c-.3-1.1-.7-2.3-1-3,0-.2-.2-.4-.2-.5s-.1-.3-.2-.4-.2-.4-.2-.6,0-.5-.2-.7c-.2-.4-.6-.5-.6-.2s-.2.4-.4.5c-.3.3-.3.3,0,.4.2,0,.3.2.3.3s.1.3.3.3c.2,0,.2.2,0,.7-.4.6-.3.8.2.9.5,0,.5.6,0,.8-.5.2-.5.9,0,.9.7,0,.9.4.4.9-.2.3-.3.5-.2.8,0,.4.1.5.5.3.6-.3.9,0,.8.6-.1.8,0,1.5.3,1.3.3-.3.9-.3,1-.1,0,.1,0,.5,0,.9,0,.7.2.9.4.4h0ZM39.8,63.2c.7.1,1.2-.1,1.2-.6s.4-.4,1.3-.4.8,0,.6-.2c0,0-.3-.2-.5-.2s-.3-.2-.3-.3c0-.2,0-.3.4-.2.7.1.5-.3-.2-.5-.6-.2-.6-.2-.2-.3,0,0,.2,0,.2-.1s.3,0,.5,0,.4,0,.5,0,0-.2-.1-.2-.3,0-.3-.2c0-.2-1.5-.6-2.6-.8-.8,0-.9,0-1.4.5-.4.5-.5.7-.5,1.3s0,.8.2.9.1.3,0,.4,0,.3,0,.2c.2-.1.5.3.4.6,0,.1,0,.2,0,.1s.4,0,.8,0h0ZM43.2,63.1c0-.1,0-.2.4-.3.2,0,0,0-.6,0-1,0-1,0-.7.3.4.3,1.1.4.9,0ZM90.5,63c.2-.2.6-.6.9-1s.8-1,1.1-1.4c.7-.8,1.1-1.7.8-2-.1-.1-.3,0-.5.2-.2.2-.5.6-.7.9-1,1.2-2.2,3-2.2,3.3s0,.4.6,0h0ZM46.1,62.7c.3,0,.8-.9.7-1.3,0-.2-.3-.4-.7-.5-.5-.2-.7-.2-1,0-.5.4-.6.7-.4,1.4.1.5.3.7.6.7.3,0,.5,0,.5-.2,0-.1.2-.2.3-.2h0ZM45.5,61.7c0-.3.2-.5.3-.5.2,0,.3,0,.2.4,0,.3-.2.5-.3.5-.2,0-.3,0-.2-.4ZM60.4,62.3c1.1-.5,1.9-2.3,2-4,0-1.2-.3-1.6-.5-.7,0,.4-.2.8-.2,1,0,1.5-1.4,2.9-3.3,3.5-.5.2-.4.4.1.4s.5,0,.6.2c0,.2.2.1,1.3-.4h0ZM50.1,62.1c.6,0,.9-.2,1.4-.8.7-.8.9-1.4.6-2.4-.2-.8-.5-1.1-1.7-1.4-.6-.2-.8-.2-1.3,0-1.1.5-1.7,1.1-1.7,1.4s-.1.2-.2.4-.2.3-.1.4c0,.2.1.2.4,0,.2-.2.4-.3.5-.3s.3-.1.4-.3.3-.2.4-.2-.2.5-.7.9-.8.9-.7.9c.1.1,1.4-.4,1.5-.6,0,0,.3-.2.5-.3.3-.1.4-.1.3,0-.1.3-.8.8-1,.8s-.6.6-.4.7c0,0,.2,0,.2,0s.3-.2.4-.2.6-.1.9-.3c.5-.3.5-.3.5,0s-1.2,1.2-1.7,1.2-.3,0-.3.2c0,.1,0,.2.4,0,.3,0,.9-.1,1.3-.2h0ZM96.3,61.4c.2-.5.1-.7-.2-.7s-.7.7-.5,1.1c0,.3.6,0,.7-.4ZM90.1,61.4c.3-.5.9-1.2,1.7-2.2,1.1-1.3,1.3-1.7,1-2.1-.2-.3-.2-.3-.8.3-.3.4-.6.7-.6.9s0,.2-.1.2-.3.3-.5.6-.6.8-.8,1.1c-.3.3-.4.6-.4,1,0,.7.2.8.6.1h0ZM60,60.6c.8-.8,1.4-2.5,1.4-4.2,0-.8-.4-2.5-.6-2.4,0,0-.1.6-.1,1.2,0,1.3-.3,3-.5,3.2,0,0-.1.2-.1.4,0,.5-1,1.5-1.4,1.5-.5,0-1.1-.2-1.1-.3s.2-.3.5-.4c.6-.3.6-.9,0-1.2-.4-.1-.5-.1-.7.2-.2.2-.3.6-.3.8,0,.4.3,1.2.5,1.2,0,0,.1.1.1.3s0,.2,0,.2.3,0,.5,0c.6.2,1.5,0,1.9-.5h0ZM44.6,59.9c0-.1-.1-.3-.3-.5s-.4-.6-.4-.9c0-.5,0-.5.2-.4.2,0,.3.1.3.1s0,.1,0,.3c0,.2,0,.4.2.4.1,0,.2.2.2.3s0,.2,0,.2c.2,0,.2-1.1,0-1.3-.1,0-.1-.2,0-.4.2-.2.1-.3,0-.4-.2-.1-.2-.2,0-.2.1,0,.3.2.4.4.3.7.5.5.5-.3,0-.9,0-1,.3-.2.1.4.2.5.4.3.1-.1.3-.2.5-.2s.3,0,.1.2c-.1.1-.2.4-.2.6,0,.4,0,.4.3.1.3-.4.4-2.4,0-2.9-.1-.1-.2-.3-.1-.4,0,0,0-.1-.2,0-.2,0-.3,0-.3-.1s-.3-.2-1.3-.1c-2.1.2-2.8.8-2.9,2.5,0,1.1.3,2,.8,2,.3,0,.3,0,.1.1-.2.1-.1.2.2.4.2.1.5.4.7.6.3.4.6.3.6-.2h0ZM95.5,60c0-.2,0-.4,0-.5-.1-.2-.5.4-.4.7.1.3.3.3.4-.1ZM89.6,59.8c.2-.2.3-.5.3-.5,0,0,.1-.2,1.3-1.8.5-.6.9-1.3.9-1.5,0-.7-.3-.4-1.3,1.2-.3.5-.8,1.2-1.1,1.4-.6.6-.9,1-.8,1.3.1.3.3.3.6-.2h0ZM75.8,59.5c0,0,.2,0,.3,0s.1,0,.1,0,.2-.5.5-.8l.5-.6v-3.4c0-2.1,0-3.5-.2-3.5-.4-.1-.5.3-.6,1.8-.2,2.7-.7,4.1-1.6,4-.3,0-.4-.1-.4-.5.1-.9,0-1.1-.2-1.1-.3,0-.9.5-1,.9,0,.9.5,1.8,1,1.8s.3,0,.3.2c0,.3.8-.1,1.4-.8.4-.5.7-.5.9-.2,0,0-.2.5-.5.8-.6.7-.6.7-1.7.7s-1.4.2-.7.6c.2.1.4.3.4.3,0,.3,1,.3,1.4,0h0ZM68.6,58.5c.1-.3.2-.3.4-.2.3.2.3.1.7-1,0-.2.1-.2.3,0s.1.3,0,.6c-.2.5,0,.9.2.6.2-.2.7-2,.6-2.5,0-.3,0-.3.3,0,.3.4.3.4.3,0,0-.2,0-.4.2-.5s.2-.3.2-.5c0-.3,0-.3,0,0,0,.3.4.4.4.2,0,0,0-.3,0-.5s0-.5,0-.8c0-.3,0-.5.3-.5s.3,0,.1.3c0,.2-.1.4,0,.4.2.1.5-1,.5-1.7s.1-.7.2-.8c.2-.2.2-.4-.2-1.2-.2-.5-.4-1-.4-1s0-.2-.1-.2c-.1,0-.2-.5-.2-.9,0-.6,0-.8.4-1.1.2-.2.5-.3.7-.3.6,0,.7-.4.4-1.4-.2-.5-.4-1-.5-1.2-.2-.3-.7-3.3-.7-4.1,0-.3,0-.7-.2-.8-.2-.4-.9-1.1-1.1-1.1,0,0-.2,0-.3-.2-.4-.3-1.3-.9-1.6-.9-.2,0-.5-.2-.7-.4s-.5-.3-.6-.3-.2,0-.2,0-.2,0-.3,0-.2,0-.2,0-.3,0-.6-.1c-.5,0-.6,0-1.3.8-.4.5-.9.8-1,.8s-.2,0-.2.1-.7.4-1.6.7c-1.5.5-1.6.6-2,1.3-.5,1-.6,1.6-.1,1.4,1.5-.7,2.8-.8,3.4-.5.2.1.4.2.4.1s.1,0,.3.3.3.5.3.6,0,.3.2.4c.3.3.4,6.8,0,8.5-.3,1.6-.2,1.8.5,1.6.5-.2,1.3-.2,1.4,0,0,0,0,.4-.3.8-.3.5-.5.5-.6.4,0-.2-.3-.2-.8-.2-.5,0-.7,0-.9-.2-.2-.3-.2-.4,0-1.3.4-2.2.5-4.8.3-4.9,0,0-.3.2-.5.5s-.5.6-.7.6c-.3,0-.3,0-.3-.4v-.5c0,0-.9-.1-.9-.1-.8,0-1.1-.2-1.4-.6-.7-.8-.8-.6-.7.6,0,.6.2,1.9.2,2.8s.2,1.9.3,2.3c.4,1.5.5,1.8.7,1.9,0,0,.2.3.2.5,0,.4.3,1.3.5,1.3,0,0,.1.1.1.3s0,.3.2.3.2.1.2.3c0,.5,2.1,2.5,2.9,2.8.6.2.7.2.8,0,.1-.3.2-.3.5,0q.3.3.8,0c.3-.2.6-.5.6-.7h0ZM67,58.4c0,0-.5,0-.9,0-.9,0-.8,0-.6-.5.1-.3,0-.5,0-.6-.1-.1-.2-.3-.2-.4,0-.3-.6-.4-.8-.1-.3.4-.5.3-.5-.2s.3-.9.7-.9.3,0,.3-.1c0-.2,1.1-.2,1.4,0,.2.1.3.1.4,0,0-.3.9-.3,1.2-.1.1.1.5.2.8.3.6.1.8.4.6,1.1-.1.4-.6.6-.6.2s0-.3-.8.4c-.4.4-.7.7-.8.7s-.1,0-.1.2.1.2.3.2.3,0,.3.2c0,.2-.4.2-.5,0h0ZM66.5,56.7c.2,0,.4,0,.4,0s.2.1.4,0c.4,0,.5-.1.2-.4-.2-.3-1.2-.4-1.3-.2,0,0-.2.1-.4.1-.3,0-.4.2-.1.5.2.2.3.2.8,0h0ZM68.1,53c0-.2.1-.4.2-.4.2-.1.2-1-.1-1.4-.1-.2-.4-.4-.6-.4s-.4,0-.4-.2.1-.1.3,0,.5.1.8.2c.6.1.9.7.8,1.6,0,.7-.3,1-.8,1-.2,0-.2,0-.2-.3ZM61.9,47.8c-.3-.2-.3-.4-.2-.4.1,0,.2,0,.3,0,0,.1.2.3.3.4.3.4,0,.3-.4,0ZM68.1,47.3c-.2-.4-.5-.7-.6-.7s-.2-.3-.4-.6c-.6-1.6.1-2.5,2.1-2.7.4,0,.7,0,.8.1s.3.1.6,0c.3,0,.5,0,.5,0s.2.2.4.2.4,0,.4.2.2.4.5.6c.6.5.7.9.3,1.7-.3.8-1.8,2-1.8,1.5s.1-.3.3-.4.3-.3.2-.4c-.1-.1-2.4,0-2.6,0,0,0-.1.2,0,.4.2.6-.2.5-.6-.2h0ZM70.7,46.1c0,0,.1-.2.3-.1s.3,0,.3-.2c0-.3-.9-.6-1.2-.3-.3.3-.3.5,0,.5s.2,0,.1.2,0,.2.1.2.2,0,.2-.2h0ZM67.9,45.5c.3-.3.2-.6-.2-.6s-.2.2-.2.4c0,.5,0,.5.4.2ZM70.4,44.2c-.7-.3-1.3-.4-1.7-.2-.2.1-.2.2.1.2.7,0,1.3.1,1.4.2,0,0,.2,0,.4,0,.3,0,.2,0-.2-.3h0ZM67.4,42.4c-.1-.5.2-1,.6-1s.6-.1.9-.2c.3-.2.7-.2,1,0,.3,0,.5,0,.5,0,0,0,.3,0,.5.2s.4.4.5.4c.3,0,.5.3.5.6,0,.3,0,.3,0,0-.1-.6-2.8-.6-3.8,0-.5.3-.5.3-.6,0h0ZM89.9,57.4c1-1.2,1.6-2.1,1.6-2.7s-.2-.4-.6.1c-.2.2-.5.7-.7,1-.8,1.1-1.7,2.4-1.7,2.6,0,.4.4.1,1.4-.9h0ZM40.8,57.9c0,0-.1-.3-.3-.5-.3-.4-.3-.4,0-.5.2,0,.3,0,.3.1,0,.1.1.2.3.2s.2,0,.3.2.1,0,.1-.4c0-.9-.4-1.5-1.6-1.8-.5-.1-.9-.3-.9-.3-.2,0,0,.7.2.8.1,0,.2.2.2.2,0,.3.4,1,.5,1s.1.1,0,.2,0,.4.2.6c.3.3.6.5.6.3h0ZM89.1,56.2c0,0,.1-.2.2-.4.4-.5,1.3-1.8,1.3-1.9s0-.2.2-.2.2-.2.2-.4c0-.7-.5-.4-1.1.7-.3.5-.7,1.1-.9,1.4-.7.8-1,1.5-.9,1.8,0,.2.2.2.6-.3.3-.3.5-.6.5-.7h0ZM87.9,55.9c0,0,.2-.3.4-.5s.4-.5.5-.7c.2-.5.5-.9.9-1.4.6-.6.8-1.4.5-1.6-.3-.1-.2-.2-1.6,1.8-1,1.5-1.3,2.1-1,2.4.1.2.4.1.4,0h0ZM56.3,55.6c.2,0,.2-.1,0-.3-.4-.3-.4-.9-.1-1,.1,0,.3,0,.5.1.2.2.3.2.5,0,.4-.4.4-1.2,0-1.6-.9-.8-2.2.2-2,1.6,0,.4.6,1.4.8,1.4s.2,0,.3-.1ZM58.3,54.7c0,0,.1-.3.3-.5.4-.5.7-1.5.7-2.8,0-1.2,0-1.5-.4-1.1-.1.1-.2.6-.2,1.5,0,1.1,0,1.4-.4,2.2-.3.5-.4.9-.2.9.1,0,.2-.1.2-.2h0ZM75.7,53.5c0-.6.1-1.2.1-1.4s0-.3-.1-.3c-.2,0-.5,2.3-.4,2.6.2.5.3,0,.4-.9h0ZM74.8,52.9c0-.6,0-1.2,0-1.2-.2-.1-.3,0-.4.6,0,.2,0,.9-.1,1.4-.1.8,0,.9.1.7.2-.2.3-.7.4-1.4ZM87.5,54c.5-.9,1.6-2.3,1.7-2.4.2-.2.4-.8.2-.9-.2-.1-.8.4-.8.7s-.2.4-.4.5-.4.4-.4.4c0,.1-.8,1.3-1,1.4,0,0,0,.5,0,.8,0,.2.4,0,.6-.5h0ZM60,53.1c.2-.6.3-1.3.2-1.8,0-.5,0-1.4,0-2.1,0-1,0-1.2-.2-1-.1.1-.2.9-.2,2.8s0,2.6-.2,2.8c-.3.3-.3.5,0,.4.1,0,.3-.5.5-1h0ZM86.9,52.8c0-.2.2-.5.3-.5.4-.2,1.4-1.9,1.5-2.4.1-.7-.2-.7-.8.1-.2.3-.4.7-.4.7s-.2.3-.5.6c-.6.7-.9,1.3-.8,1.6.1.4.4.3.6-.1h0ZM81.9,52.7c0,0,0-.2-.2-.2s-.2,0-.2.2,0,.2.2.2.2,0,.2-.2ZM86.8,50.7c.4-.5.8-1.1.9-1.4.3-.5.4-1,.1-1s-.2,0-.2.2-.2.4-.5.7c-.8.9-1,1.1-.9,1.1s-.1.2-.3.4-.4.5-.4.7c0,.5.5.2,1.1-.7h0ZM75.4,50.8c0,0,.2-.2.3-.1.4,0,.6,0,.6-.2s.2-.4.4-.6c.6-.7.9-1.9.8-3.3,0-1.4-.2-2-.4-2s0,.4,0,.8c0,.7,0,2.1-.2,3-.2.9-.5,1.3-.9,1.7-.3.2-.6.5-.8.7-.3.3-.3.3,0,.3s.3,0,.4-.2h0ZM86,50.1c.3-.3.5-.7.5-.8s.1-.3.3-.4c.4-.4.8-1.4.7-1.6,0-.2-.2,0-1.4,1.5-.7.9-.9,1.3-.9,1.8,0,.3.3.1.8-.5h0ZM58,50c0,0,0-.2.2-.2.3,0,.9-.9,1.2-1.9.1-.5.3-1.8.3-2.9,0-1.1.2-2.7.3-3.5s.2-1.5.2-1.5c-.1-.1-.1-.1-.8,1.3-.6,1.3-1,3.6-1,5.4,0,1.5-1,2.6-1.7,1.9-.2-.2-.2-.3.3-.8.5-.4.5-.5.3-.9-.2-.4-.6-.5-1.4-.3-.5.1-.8,1.1-.5,1.7,0,.3.1.5,0,.6s0,0,.1,0,.2,0,0,.2c0,.2.6.6,1.3.9.5.2,1.2.2,1.2,0h0ZM91.7,49.3c.2-.1.5-.4.7-.5s1.1-.7,2.1-1.3,1.7-1,1.8-1,.3-.2.6-.3.5-.3.6-.3c0,0,.7-.3,1.5-.6s1.4-.6,1.4-.7-.1-.2-.2-.1-.3,0-.5,0-.5.1-.6.3-.4.3-.6.3c-.7,0-1.8.5-2.1.8-.2.2-.5.3-.6.3-.3,0-2.7,1.4-2.7,1.5s-.3.3-.7.5c-1.1.5-1.7,1-1.9,1.2,0,.1-.2.1-.2,0s0-.3.3-.5.7-.6,1-.9.6-.5.7-.5c.3,0,1.3-.7,1.3-.9s.1-.2.2-.2c.3,0,1.5-.7,1.5-.8s.3-.2.7-.3.7-.3.8-.3.2-.1.3,0c.1,0,.2,0,.2-.1s.2-.2.4-.2c.9,0,2.2-.9,1.8-1.3-.1-.1-3.4,1.1-4.5,1.7-.4.2-.9.4-1,.4-.2,0-1,.8-.9.9,0,0,0,.1,0,.1s-.3.2-.6.4-.7.6-1,.9-.7.6-.8.7-.3.2-.3.2c-.5,0-.5.3-.3,1l.3.7.6-.3c.3-.2.7-.4.9-.5h0ZM74.7,49.9c0,0,.2-.1.2-.1.2,0,1.2-1.1,1.4-1.4.2-.6.1-2.5,0-2.7-.1-.1-.2,0-.2.3,0,.7-.3,1.6-.6,2-.2.2-.3.4-.3.5,0,.2-.5.2-.7.1,0,0,0-.2,0-.4,0-.5-.2-.9-.6-.7-.5.3-.5.8.1,1.6.6.9.7.9.9.7h0ZM77.8,49.5c0,0,0-.1-.2,0-.2.1-.2.3,0,.3s.2,0,.2-.2ZM85.6,48.5c0,0,.1-.1.1-.2s.2-.4.5-.6c.5-.4.7-1.5.4-1.5s-2.1,2.4-2.1,2.8.4.5.7,0c.2-.2.4-.5.4-.5h0ZM78.3,48.3c0-.3,0-.3-.2-.1-.1.1-.2.3-.1.4.1.3.4,0,.4-.3h0ZM85,47c.9-1.3,1-1.6.8-1.8-.1-.1-.3,0-.5.2-.2.2-.4.4-.4.5s-.2.4-.5.7c-.5.6-.8,1.8-.4,1.6.1,0,.6-.6,1-1.2h0ZM90.6,47.3c.2-.2.3-.3.4-.3.2,0,1.6-1.4,1.6-1.7s0-.2.2-.2.2-.1.2-.3,0-.4.1-.5c.3-.3.3-1.3,0-1.9-.3-.6-1.1-1-1.8-.8-.8.2-1.1,1.6-.5,2.3.3.3.8.3.8,0s.1-.3.2-.4c.2-.2.3-.1.4.1.2.4,0,.8-.4,1.2-.2.1-.4.4-.5.6-.3.6-1,1.3-1.2,1.3s-.4.3-.7.6c-1,1.1,0,1,1.1-.1h0ZM78.4,47.4c0-.7-.3-1-.4-.4-.1.5,0,.9.2.9s.1-.2.1-.5h0ZM84.2,46c.8-1.3,1-1.9.7-1.9s-.3.2-.3.4-.2.4-.3.4-.3.2-.5.5-.4.6-.6.8c-.3.4-.4.9,0,1,.3.1.3,0,1.1-1.2ZM75.5,45.4c0-1.2,0-1.6-.3-2-.1-.2-.2-.4-.1-.4s0,0,0-.2-.2-.3-.2-.5c0-.4-1-1.7-1.1-1.6,0,0-.1.3,0,.6s.1.9.2,1.4.3,1.2.5,1.7.4,1,.4,1.2c0,.4.5,1.5.7,1.4,0,0,.1-.8.1-1.6h0ZM64.7,46c.5-.4.3-.9-.3-.9s-.5,0-.6,0c-.2,0-.2.7-.1,1,.1.3.6.3,1,0h0ZM83,45.6c.8-.9,1.4-2,1.3-2.3-.1-.4-.5-.2-.7.3-.1.3-.3.5-.5.6s-.2.2-.2.3-.1.4-.3.6c-.3.4-.5.9-.4,1.1.1.2.2.1.8-.5h0ZM81.9,44.8c.2-.2.5-.6.7-.8.5-.5.9-1.5.8-1.7-.1-.2-.7-.2-.7,0s0,.3-.2.4c-1,1.3-1.3,1.7-1.3,2.1,0,.5.2.5.6,0h0ZM60.9,44.9c.1,0,.2-.2.2-.2s0-.1.3-.1.9,0,1.5-.2c.7-.1,1.3-.1,1.4,0,.1,0,.3.1.3,0s.2,0,.2.1,0,0,0-.1c0-.2-.2-.5-.8-.8-1-.5-1.1-.5-2.1-.2-.9.3-1.5.8-1.5,1.3s0,.3.4.2h0ZM94.9,44.2c.3-.1.6-.2.7-.1s.2,0,.2-.2.1-.2.2-.2.4,0,.7-.1.8-.3,1.2-.3c.6-.1.7-.2.4-.6-.2-.3-.3-.3-1.1,0-.5.1-1,.3-1.2.4s-.5.2-.5.1.2-.3.6-.4.7-.4.7-.5c0-.2-1.2-.2-1.3,0,0,0-.2.2-.4.2s-.3,0-.2.2,0,.2-.2.2-.3.1-.4.3c0,.3,0,.3.5.2h.6c0,0-.5.2-.5.2-.6.3-.8.8-.7,1.2,0,.2.1.2.2,0,0-.1.4-.3.7-.4h0ZM81.2,43.5c1.1-1.3,1.4-2,1-2.3-.2-.1-1.8,2.4-1.7,2.6.1.2.2.2.6-.3h0ZM61.4,43.1c.1,0,.2,0,0,0,0-.1,0-.2.3-.2s.4,0,.5-.2c.2-.3,1.5-.2,2,.1.3.2.5.2.6.1s0-.3-.4-.6c-.6-.5-1.6-.6-2.9-.4-.9.2-1.3.5-1.3,1s.3.6.7.3c.1-.1.4-.2.5-.1h0ZM80.6,42.5c.6-.7,1.1-2.2.7-2.2s-1.1,1.1-1.3,1.6c0,.2-.2.4-.3.4-.2,0-.2.6,0,.7.1.1.4,0,.8-.6h0ZM79.9,41.1c.6-1,.8-1.6.4-1.6s-1,1.2-1.3,1.8c-.1.3,0,.9,0,.9s.4-.5.8-1h0ZM84.8,41.6c.2-.2.4-.3.5-.3s.2,0,.2-.2c0-.2,1-.9,1.5-1,.2,0,.5,0,.8.3.4.4.5.4.8.2.3-.2.4-.3.3-.7,0-.3-.2-.7-.5-.8-.4-.3-.5-.3-1.1-.1-.4.1-1,.5-1.5.8s-.9.7-1.1.8c-.6.3-.9,1.4-.4,1.4s.3-.2.4-.3ZM78.7,40.8c0-.2.3-.6.5-1,.5-.7.5-1.2.1-1.1-.1,0-.3.2-.4.4s-.3.6-.5.9c-.2.3-.3.7-.3.9,0,.4.5.4.6,0h0ZM83.7,40.3c.2-.2.4-.5.4-.6s0-.2.1-.2.3-.3.4-.6.5-.8.6-1,.8-1.1,1.4-2,1.3-1.9,1.5-2.2c.5-.6.6-1,.3-1s-.2.2-.3.4-.4.7-.7,1-.6.7-.7.9c-1.5,2-3.1,4.3-3.2,4.6,0,.2-.3.4-.5.6-.3.2-.3.3,0,.4.3.2.3.2.7-.2h0ZM78.3,39.4c.8-1.3.4-1.9-.5-.8-.5.7-.7,1.2-.6,1.7,0,.2.1.2.4,0,.2-.2.4-.5.6-.8h0ZM83.7,38.1c.7-.9,1.7-2.4,2.3-3.3s1.1-1.7,1.2-1.8.1-.3,0-.3c-.1-.1-2.6-.1-2.7,0,0,0,0,.3-.1.6-.2,1.5-.6,2.7-1.4,3.7-.2.3-.5.7-.5.8s-.1.3-.3.5c-.3.3-.4,1.2-.2,1.5.3.3.6,0,1.7-1.6h0ZM84.6,35.1c0-.6.3-1.6.5-1.6s0,0,0-.2c0-.1,0-.1.3,0,.6.2.7.4.3.6-.2,0-.4.6-.6,1-.3,1-.6,1.1-.6.3h0ZM76.6,39.4c.1,0,.2-.2.2-.3s.2-.4.4-.7c.5-.5.5-.9.1-1-.4-.2-1.4,1.4-1.3,1.9,0,.3.1.3.5.1h0ZM85.7,38.9c.3-.3,1.3-1.8,1.2-1.9,0,0-.3.2-.5.6s-.6.9-.8,1.1c-.4.4-.3.6.2.2h0ZM75.9,38.1c0,0,.1-.3.3-.6.4-.5.4-.6,0-.8-.3-.1-1.3,1.3-1.1,1.7,0,.2.1.2.4,0,.2-.1.3-.3.3-.4h0ZM81.2,38.5c.2-.1.5-.6.8-1.2,0-.1.3-.5.5-.9.5-.8.5-1.9.1-2.5-.3-.4-1.1-.8-1.8-.8-.5,0-.9.5-.8,1.2,0,.5.6,1.3.9,1.3s.5.5.4,1.1c-.1.3-.2.6-.3.6-.2,0-.3.6-.2,1,.1.4.2.4.5.2h0ZM63.8,37.6c.5-.1,1.5-.9,1.5-1.1s-.1-.1-.3,0c-.4,0-1.1.5-1.1.6s-.1.1-.3.1-.4.1-.5.3-.3.3-.3.3c-.2,0-.6.4-.5.6,0,0,.3,0,.6-.2s.7-.4.9-.4h0ZM87.9,37.9c.3-.2.6-.5.6-.6s.1-.3.3-.4c.3-.3.4-.9.2-1.1-.1-.2-1.9,1.9-1.9,2.3,0,.4.1.4.8-.1h0ZM75,37.2c.5-.7.5-.9,0-.9s-1,.9-.9,1.3c.1.4.4.3.8-.3h0ZM73.9,36.6c.5-.6.6-.8.2-.8s-.9.8-.9,1.1.1.3.6-.3ZM73.1,36c.2-.5.2-.7,0-.7s-.8.8-.7,1.1c.1.3.5.1.7-.4ZM87.7,36.1c.2-.3.3-.6.3-.6s.2-.3.4-.4.4-.5.4-.7c0-.3,0-.2-.6.3-.3.4-.6.9-.7,1.1s-.3.5-.3.5-.1,0-.1.2c0,.3.3.2.6-.3ZM63.6,36.1c0,0,0-.1-.2,0-.2.1-.2.3,0,.3s.2,0,.2-.2ZM71.8,35.8c.3-.4.4-.7.1-.9-.2-.2-1,.7-.9,1,.1.3.4.3.7-.1h0ZM70.3,35.8c.2-.2.5-.8.5-1.1,0-.4-.6-.3-.8.2-.4.8-.3,1.3.3.9ZM66.7,35c.3-.5.3-.6-.3-.5-.3,0-.4.3-.5.5,0,.5.3.5.7,0ZM69.4,35.1c.3-.5.3-.6-.1-.6s-.7.4-.7.8.6.2.8-.2h0ZM67.9,34.9c.3-.3.3-.4,0-.4-.1,0-.3,0-.3,0-.1.2-.3.8-.2.8s.2-.2.4-.4Z"/>
      <path class="cls-2" d="M22.3,42.8h-.5c-4.1,0-7.3-1.4-9.5-4.1s-3.4-6.5-3.4-11.4,1.1-8.7,3.4-11.4c2.3-2.8,5.4-4.1,9.4-4.1,4,0,7.1,1.4,9.4,4.1,2.2,2.7,3.4,6.6,3.4,11.5,0,3.4-.6,6.3-1.8,8.7-1.2,2.4-2.9,4.3-5.1,5.5l5,6.8h-6.1l-4.1-5.5M21.6,17.3c-1.9,0-3.5.9-4.5,2.6s-1.6,4.2-1.6,7.4c0,3.2.5,5.7,1.6,7.4,1.1,1.7,2.6,2.6,4.6,2.6s3.5-.9,4.6-2.6,1.6-4.2,1.6-7.3c0-3.2-.5-5.6-1.6-7.4s-2.6-2.6-4.6-2.6"/>
      <path class="cls-2" d="M116.9,146.1h.5c4.1,0,7.3,1.4,9.5,4.1s3.4,6.5,3.4,11.4c0,4.9-1.1,8.7-3.4,11.4-2.3,2.8-5.4,4.1-9.4,4.1-4,0-7.1-1.4-9.4-4.1-2.2-2.7-3.4-6.6-3.4-11.5,0-3.4.6-6.3,1.8-8.7,1.2-2.4,2.9-4.3,5.1-5.5l-5-6.8h6.1l4.1,5.5M117.6,171.6c1.9,0,3.5-.9,4.5-2.6s1.6-4.2,1.6-7.4c0-3.2-.5-5.7-1.6-7.4-1.1-1.7-2.6-2.6-4.6-2.6s-3.5.9-4.6,2.6-1.6,4.2-1.6,7.3c0,3.2.5,5.6,1.6,7.4s2.6,2.6,4.6,2.6"/>
      <path class="cls-3" d="M20.7,48.7c-4.1,8.2-7.1,12.5-13.3,17,5.9,4.5,10,9.1,13.5,16.6,3.1-7.1,6.8-12.4,13.4-16.8-6.6-3.3-10.4-8.7-13.5-16.8Z"/>
      <path class="cls-3" d="M118.6,106.3c-4.1,8.2-7.1,12.5-13.3,17,5.9,4.5,10,9.1,13.5,16.6,3.1-7.1,6.8-12.4,13.4-16.8-6.6-3.3-10.4-8.7-13.5-16.8Z"/>
    </g>
  </g>
</svg>