<?xml version="1.0" encoding="UTF-8"?>
<svg xmlns="http://www.w3.org/2000/svg" version="1.1" xmlns:xlink="http://www.w3.org/1999/xlink" viewBox="0 0 140 190">
  <defs>
    <style>
      .cls-1 {
        fill: #fff;
      }

      .cls-2, .cls-3 {
        fill: #9f0000;
      }

      .cls-3 {
        fill-rule: evenodd;
      }

      .cls-4 {
        fill: url(#linear-gradient);
      }
    </style>
    <linearGradient id="linear-gradient" x1="6" y1="136.4" x2="113" y2="70.8" gradientTransform="translate(0 192) scale(1 -1)" gradientUnits="userSpaceOnUse">
      <stop offset="0" stop-color="#ebf0d0"/>
      <stop offset="1" stop-color="#ffffeb"/>
    </linearGradient>
  </defs>
  <!-- Generator: Adobe Illustrator 28.7.2, SVG Export Plug-In . SVG Version: 1.2.0 Build 154)  -->
  <g>
    <g id="Layer_1">
      <path class="cls-1" d="M17,1h103c8.9,0,16,7.1,16,16v153c0,8.9-7.1,16-16,16H17c-8.9,0-16-7.1-16-16V17C1,8.1,8.1,1,17,1Z"/>
      <path class="cls-4" d="M18,2h103c8.9,0,16,7.1,16,16v153c0,8.9-7.1,16-16,16H18c-8.9,0-16-7.1-16-16V18C2,9.1,9.1,2,18,2Z"/>
      <path class="cls-3" d="M103.5,21c-.5,0-1,0-1.4.3-.9.4-1.7,1.1-2,2.2-.2.6-.1,1.4.2,2s.9,1.1,1.8,1.1c.5,0,.8-.2,1.2-.5.2-.2.3-.4.3-.7s-.2-.6-.5-.8l-.5.8c0,0,0,0,0,0s0,0,0,0c0,.1-.5.2-.4.2-.4,0-.7-.2-.8-.6s-.2-.9-.1-1.3c.2-.8.7-1.2,1.4-1.5s1.6-.3,2.2,0c2.1.8,2.8,3.4,1.9,5.4-.8,1.8-2.6,2.8-4.5,2.9l-62.8.4v1l62.6-.4h0c0,0,.1,0,.2,0h.3c2.2-.3,4.2-1.5,5.1-3.5,1.1-2.5.1-5.7-2.6-6.8-.5-.2-1-.3-1.5-.2ZM114.9,24c-.7,0-1.3.2-2,.4-2,.9-3.2,2.9-3.4,5.1h0v.3c0,0,0,.1,0,.2h0l.2,69.1h1l-.2-69.3c0-1.9,1.1-3.7,2.9-4.5,2-.9,4.6-.2,5.4,1.9.3.7.2,1.6,0,2.2s-.7,1.2-1.5,1.4c-.4.1-.9,0-1.3-.1s-.6-.4-.6-.8c0,0,.1-.3.2-.4,0,0,0,0,0,0s-.1,0,0,0l.8-.5c-.2-.3-.4-.5-.8-.5s-.6.2-.7.3c-.3.3-.5.7-.5,1.2,0,.8.5,1.4,1.1,1.8s1.4.4,2,.2c1.1-.3,1.8-1.1,2.2-2,.2-.5.3-.9.3-1.4s0-1-.2-1.5c-.8-2-2.8-3.1-4.8-3ZM29.3,90l.2,69.3c0,1.9-1.1,3.7-2.9,4.5-2,.9-4.6.2-5.4-1.9-.3-.7-.2-1.6,0-2.2s.7-1.2,1.5-1.4c.4-.1.9,0,1.3.1s.6.4.6.8c0,0-.1.3-.2.4,0,0,0,0,0,0s.1,0,0,0l-.8.5c.2.3.4.5.8.5s.6-.2.7-.3c.3-.3.5-.7.5-1.2,0-.8-.5-1.4-1.1-1.8s-1.4-.4-2-.2c-1.1.3-1.8,1.1-2.2,2s-.3.9-.3,1.4,0,1,.2,1.5c1,2.7,4.3,3.7,6.8,2.6,2-.9,3.2-2.9,3.4-5.1h0v-.3c0,0,0-.1,0-.2h0l-.2-69.1h-1ZM100.7,157.3l-62.6.4h0c0,0-.1,0-.2,0h-.3c-2.2.3-4.2,1.5-5.1,3.5-1.1,2.5-.1,5.7,2.6,6.8.5.2,1,.3,1.5.2s1,0,1.4-.3c.9-.4,1.7-1.1,2-2.2.2-.6.1-1.4-.2-2s-.9-1.1-1.8-1.1c-.5,0-.8.2-1.2.5-.2.2-.3.4-.3.7s.2.6.5.8l.5-.8c0,0,0,0,0,0s0,0,0,0c0-.1.5-.2.4-.2.4,0,.7.2.8.6s.2.9.1,1.3c-.2.8-.7,1.2-1.4,1.5s-1.6.3-2.2,0c-2.1-.8-2.8-3.4-1.9-5.4.8-1.8,2.6-2.8,4.5-2.9l62.8-.4v-1Z"/>
      <path d="M102.4,159c0,0-44.7-.2-46.5-.2-.7,0-1.5,0-1.7,0s-1.8,0-3.6,0-3.6,0-4,0-4.3,0-8.7,0h-8s-.2-.5-.2-.5c-.2-.6-.2-4.6,0-23,.1-16.5.1-16.3.1-18.3,0-.7,0-2.4,0-3.8s0-3.9,0-5.5c0-2.6,0-16.3.2-28.5,0-2.7,0-4.2-.1-4.2-.1,0-.1,0,0-.1.1,0,.2-4.8.2-13.5,0-7.4,0-13.9,0-14.4s0-2.5,0-4.4c0-6.9.2-11.6.4-11.8.2-.1,1.2-.2,3.2-.2,1.6,0,3,0,3-.1s.2,0,.5,0,1.2.2,2.3.2c6.2,0,7.5,0,7.5.2,0,0,.2,0,.4,0,.2,0,.5,0,.6,0,.1,0,.4.1.6,0,.5-.1,2.6-.2,2.7,0,0,0,1.1,0,2.4.1s4.3,0,6.7.1,6.8.2,9.9.2,6.3,0,7.2.1,1.7,0,1.7,0,.1,0,.3,0c.2,0,1.3.2,2.7.1,1.3,0,2.5,0,2.5.1s.1,0,.2,0c.1-.2.8-.4.8-.1s3.1.1,7,.1c9.3,0,10.4,0,10.6,0,0,0,.2,0,.2.1,0,.2.1.2.2,0,0-.2.6-.2,1.4,0,.2,0,.6,0,.9,0s.9,0,1.3,0c.4,0,1.1,0,1.6,0,.6,0,.9,0,1,0,.2.2.2,10.2.1,30.9,0,4,0,8,0,8.9,0,.9,0,1.6,0,1.6s0,3.9,0,8.7,0,12.1,0,16.3c0,35,0,51.9.1,56.4,0,.1,0,1.1,0,2,0,2.5.2,2.4-4.1,2.4-1.9,0-3.5,0-3.6,0h0ZM57.5,157.8c.1-.1.3-.5.4-.7s.2-.5.2-.5.2-.3.3-.6.3-.6.3-.6.2-.2.2-.3.2-.3.3-.3c.3,0,.5.9.7,2.2,0,.7.2,1,.4,1,.1,0,.7,0,1.3,0h1s0-.5,0-.5c0-.8-.2-.9-.5-.2-.2.5-.2.5-.4.2-.1-.2-.2-.3-.5-.1-.2.1-.3.1-.3,0,0-.3.7-1.8,1-2,0,0,.2-.3.4-.5.2-.4.8-.7.7-.3,0,0,0,.9,0,1.8.1,1.5.2,1.6.5,1.6.4,0,1.1-1,1.1-1.4s0-.3.1-.3.3-.5.6-1,.5-1,.6-1c.3,0,.5.7.5,2.1,0,.8.1,1.5.2,1.6.3.2,2,0,2.1-.2.2-.3.2-.5,0-.5s-.3-.1-.3-.3-.2-.3-.3-.3-.2,0-.2-.2,0-.2.2-.2.2-.1.2-.3,0-.4.2-.4.3-.4.4-.7c.3-.7.7-.7.8,0,.1.8.1,2.7,0,3,0,.2,0,.2.1,0,.2-.2.3-.2.3,0s.1.1.3,0c.2-.2.3-.4.3-.5s.1-.3.3-.5.5-.7.7-1.1c.2-.5.4-.7.6-.7s.3,0,.3,0,0,.4.1.9,0,1.1,0,1.4c-.1.6-.1.6-.3.2-.2-.4-.5-.4-.5.2s0,.3.6.2c.3,0,.7-.2.8-.3s.4-.9.5-1.7.4-1.6.4-1.8.1-.5.1-.7v-.5c0,0-1.4,0-1.4,0-.8,0-2.4,0-3.6,0s-2.3,0-2.4,0-2.6,0-5.6,0h-5.3c0,0-.4.5-.4.5-.2.3-.7.9-1,1.5s-.6,1-.7,1.1c-.6.6-1.6,2.2-1.1,1.9,0,0,.2,0,.2,0s.3.1.5.1c.4,0,1.4-1.3,2.2-2.8.2-.4.5-.9.6-1,.3-.2.6,0,.5.2,0,.1,0,.3,0,.4.1.1.1.3,0,.4,0,.1-.1.5-.1.8,0,.8-.1,1.9-.3,1.9s-.2-.2-.2-.5c0-.3-.2-.5-.3-.4,0,0-.3,0-.4-.2-.2-.3-.2-.3-.7.3-.5.6-.6.8-.4.8.8,0,1.7.2,1.7.2.1.1.9-.1,1.2-.3h0ZM77,158.1c0,.1.2.1.4,0,.2,0,.3-.1.4,0s.8,0,1.8,0,1.8,0,1.9,0c.1.1.2,0,.2,0,0-.1,0-.2,0,0,0,.1,8.3.2,8.7,0,0,0,.1,0,.2,0s1,0,2,0c2.3,0,2.5,0,2.4-1.2,0-.4-.2-1.1-.4-1.5s-.3-.7-.3-.8,0-.3-.2-.5c-.2-.5-.5-2-.4-2.7,0-.7-.7-4.5-1.1-5.2-.2-.4-.3-.7-.3-.9s-.1-.3-.2-.3-.2-.2-.2-.3c0-.2-.2-.9-.6-2.1,0-.1-.1-.3-.1-.4s-.1-.2-.3-.1c-.2,0-.3-.1-.3-.4,0-.5-.4-1.3-1.5-2.7-.5-.6-1-1.4-1.2-1.8s-.7-1-1.1-1.4-.7-.8-.7-.9-.3-.6-.6-1.1-.8-1.4-1-2-.5-1.2-.6-1.4-.2-.4-.2-.6,0-.4-.2-.4-.2-.3-.2-.6-.1-.8-.2-1.2c-.3-.9-.6-3.8-.6-6,0-2.9,0-2.6-.8-2.9-.4-.1-.8-.2-.9-.1s-.2,1-.2,2c-.2,5.2-.4,7.6-.7,9.6-.2,1.2-.4,3-.5,3.9s-.2,1.9-.3,2.2-.2.9-.3,1.5c-.2,1.3-.4,2.1-1,4.3-.4,1.6-.8,3.1-1,4.4,0,.3-.2.9-.2,1.3s-.1.9-.1.9,0,.2,0,.2,0,.2,0,.3-.2.8-.4,1.5-.4,1.7-.5,2.2-.2,1.1-.3,1.3-.3,1.1-.5,1.8-.3,1.5-.4,1.6q-.1.3,1.7.5c.2,0,.5,0,.7-.1.2-.1.3,0,.4,0h0ZM104.3,158.1c0,0,.1,0,.1-.2,0-.2-2.8-1.6-3.2-1.5,0,0-.3,0-.4-.2-.4-.2-1.2-.3-1.5-.2-.1,0-.1.2,0,.4,0,.2.2.6.2.9v.6c0,0,2,0,2,0,1.1,0,2,0,2,.1s.2,0,.3,0,.3,0,.4,0h0ZM39.7,157.9c0,0,.3,0,.6,0s2.8,0,5.5,0c4.8,0,5.6-.1,5.6-.6s.4-.6.9-1.1c1-1.1,1.8-2.1,1.8-2.4s0-.2.1-.2.4-.4.7-1,.6-1.1.8-1.2.3-.4.4-.6.2-.4.3-.4.2,0,.2-.2.2-.4.4-.7c.4-.6.7-1.1.9-1.5,0-.1.2-.4.4-.5s.3-.4.3-.5.1-.4.3-.6.3-.5.3-.7,0-.2.1-.2.2-.3.3-.6.2-.6.3-.6c.1,0,.5-.7,1.7-3.2,1.5-3.1,2.5-5.4,2.5-5.6s0-.3.1-.3.2-.4.2-.7.2-.8.4-1.1.4-.9.5-1.3.3-.8.3-.8.1-.2.1-.4c0-.3.1-.8.4-1.8,0-.1,0-.3.1-.5s.2-.7.3-1.3.3-1.6.4-2.3.2-1.5.3-1.8c.3-1.6.3-2.8.3-7,0-2.5,0-5,0-5.5,0-.7-.2-2.7-.4-4,0-.2-.1-.8-.2-1.3-.1-1.1-.5-3.1-.8-3.8-.2-.5-.3-1.5-.5-2.6,0,0,0-.3-.1-.4-.1-.4-.6-2.2-.7-2.5,0-.1,0-.4-.1-.5s-.2-.8-.4-1.5-.3-1.3-.4-1.5-.2-.6-.4-1.1-.3-.9-.4-.9-.1-.1,0-.3,0-.3,0-.3c-.2,0-.8-1.5-.8-1.8s-.3-.9-.7-1.7-.7-1.5-.6-1.6,0-.2-.3-.4-.5-.6-.7-1-.5-1-.7-1.3-.4-.7-.4-.8c0-.2-.7-1.2-1.1-1.6-.1-.1-.2-.3-.2-.4s-.1-.4-.3-.5-.5-.6-.7-1-.6-.8-.7-1-.4-.5-.5-.8-.3-.5-.4-.5-.3-.2-.4-.5-.5-.8-.8-1.1-.6-.7-.6-.8c0-.1-.5-.8-1.3-1.7-.3-.4-.6-.7-.6-.8s-.2-.3-.4-.5-.6-.6-.8-.9-.5-.6-.6-.7-.3-.4-.6-.6-.6-.5-.8-.6c-.5-.2-2.1,0-2.3.3,0,0-.3.2-.4.2s-.6.2-1,.4-.9.4-1,.4-.6.3-1,.6-.9.6-1,.6c-.2,0-.2,0-1.6,1-.5.3-.9.5-1,.5s-.3.2-.6.4-.7.6-1,.7-.9.5-1.3.9-.9.7-1.2.9-.7.4-1,.6c-1.3,1.1-1.8,1.5-2.4,2.1l-.7.7v10.8c0,0-.1,10.8-.1,10.8h.5c.3-.2.8-.4,1.2-.7s1.2-.6,1.8-.9,1.5-.6,2.1-.8c3.4-1.3,9.1-1.9,11.9-1.2.6.2,1.3.3,1.6.4s.6.2.7.3.4.2.6.2.6.1.8.2.6.2.8.2.5.1.6.3.4.3.5.4.4.1.5.2.4.2.6.2.4,0,.4.2.2.2.5.2.5,0,.5.2.1.1.2,0,.3,0,.3.2.2.2.3.2c.3,0,1.9,1.1,2,1.4,0,0,.1.2.2.2.2,0,2,1.8,2.4,2.4.2.3.4.5.6.6s.3.2.2.3,0,.3.2.5c.9,1.1,1.9,2.9,2.5,4.7.2.5.3.9.4,1s.2.4.2.6c0,.4.2.5.5.5s.4,0,.4.6-.2,1.1-.4,1.7c-.3.8-.4,1.5-.4,2.2,0,.6-.1,1.7-.2,2.6s-.3,2.1-.4,2.7-.2,1.3-.3,1.6-.2.8-.2,1.2-.2.7-.2.8-.2.5-.3.9-.3.8-.3.9-.2.5-.3.9-.2.7-.3.7-.2.1-.2.3-.1.5-.3.7c-1,1.6-1.5,2.5-1.5,2.7s0,.2-.2.2-.2,0-.2.2-.3.6-.7,1.2-.8,1.3-1,1.6-.5.7-.7.9-.4.5-.5.8c-.2.4-2,3-2.9,4-.2.3-.7.8-.9,1.2s-.6.8-.7.9-.2.3-.2.4-.6.8-1.3,1.5-1.3,1.5-1.3,1.5,0,.2-.2.2-.7.7-1.5,1.5-1.8,2-2.4,2.6-1.1,1.2-1.1,1.3c0,.2-.9.6-1.1.5,0,0-.1-.2,0-.3s-.2-.2-.5-.3-.6-.4-.7-.5c-.2-.4-2.4-2.7-2.6-2.7,0,0-.4-.2-.7-.5s-.7-.6-.8-.7-.2-.2-.2-.4,0-.2-.2-.2c-.3,0-.9-.6-.9-.8s0-.2-.2-.2-.4-.2-.6-.4-.7-.7-1.1-1-.8-.7-.9-.7-.6-.5-1.2-1-1.1-.9-1.1-1-.3-.2-.4-.2-.3,0-.2-.1-.2-.3-.6-.5-.7-.4-.7-.5-.1-.2-.3-.2c-.4,0-.4.6-.5,5.5,0,2,0,5.5,0,7.7,0,2.8,0,4.1.2,4.2.1.1.6.3,1.1.3,1.9.1,8.1,0,8.1,0h0ZM58.5,157.6c0-.2-.2-.4-.2-.4-.2,0-.2.1,0,.5.2.4.3.4.2-.1h0ZM65.3,157.8s-.1-.2-.2-.3c-.3-.3-.5,0-.3.4,0,.2.6.2.6,0h0ZM59.4,157.5c0-.2,0-.4,0-.4s0,.2-.1.4,0,.4,0,.4.1-.2.1-.4ZM66,157.6c0,0,0-.2,0-.3s-.2,0-.2.2c0,.3.1.4.3,0h0ZM101.9,155.6c0,0-.2-.1-.2,0-.2.1-.2.2,0,.2s.2,0,.1-.2ZM100,155.1c0,0-.3-.2-.6-.2-.5,0-.5,0-.1.2.6.2.8.2.7,0ZM97.5,154.9c1.2,0,.5-.4-1-.5-1.2,0-1.3,0-1.3.3s0,.4.8.3c.4,0,1.1,0,1.6,0h0ZM109.1,154.6c0-.2,0-.5.1-.8.2-.4.2-1.1,0-3.6,0-1.3-.2-1.5-.6-1.3-.4.1-2.3.2-6.2.4-2.3.1-2.4.1-2.4.5,0,.3,0,.4.3.5.2,0,.3.2.3.2s.1.1.2.1.4.1.5.3.4.3.5.3.3,0,.3.2.2.2.4.3.7.4.9.7.6.5.7.5.2,0,.2.2.1.1.2,0,.3,0,.3.2.2.2.3.2.3,0,.3.1c0,.2,1.3.9,1.4.8,0,0,.3,0,.5.3.2.3.5.4,1,.3.6,0,.7,0,.6-.4h0ZM102.2,154.4c0,0-.1-.2-.3-.2s-.3,0-.3,0,.1.2.3.2.3,0,.3,0,0,0,0-.1h0ZM99,153.1c.1-.2.3-.3.4-.3s.2-.2.3-.3c.2-.4,0-.4-.9,0-.8.4-1.4.9-1.2,1.1.2.2,1.1,0,1.3-.4h0ZM59.4,152c.1-.1.2-.1.2,0s.2.2.7.1c.4,0,.7,0,.7,0,0,.1,4.1,0,4.3-.1,0,0,.2,0,.2,0,.1.2,7.2,0,7.5-.2.2-.2.4-.2,1,0,.6.3.6.3.7,0,0-.2,0-.4-.1-.5-.2-.2-6.9-.4-13.9-.4-3.1,0-3.4,0-3.7.3-.5.4-.2.8.5.7.3,0,.5,0,.5,0,0,.2,1.1,0,1.4-.2h0ZM45.8,150.8c.3-.4.8-.9,1.1-1,.7-.5,5.1-5.3,5.7-6.2.2-.3.7-.9,1.1-1.4.9-1,.8-1,2-2.6.4-.6.8-1.2.8-1.2s.3-.4.6-.7.6-.7.6-.7.2-.3.4-.6.4-.5.4-.6.2-.4.5-.8.7-1,.9-1.5.5-.9.5-.9.2-.1.3-.3.4-.7.6-1.3.5-.9.6-.9.1,0,.1-.2.1-.5.3-.8c.8-1.9,1.2-2.8,1.3-3.1,0-.2.2-.4.2-.6s.2-1.1.5-2.1c.5-1.9.6-2.2.7-3.6,0-.4.1-1,.2-1.2s.1-1.1.1-2c0-1.1,0-1.6-.1-1.7-.2-.2-1.5-.2-1.6,0,0,0-.1.9-.2,2s-.2,2.6-.4,3.4-.4,2-.6,2.6c-.3,1.6-.5,2.2-.9,3.2-.2.5-.4,1.1-.6,1.5s-.3.8-.4.9-.1.2,0,.2c0,0-.7,1.7-.9,1.9,0,0-.3.5-.6,1.1s-.7,1.2-.9,1.5-.4.6-.4.8,0,.2-.1.2-.3.3-.4.6-.4.6-.5.7-.2.2-.2.3-.2.5-.5.8c-1.3,1.5-1.5,1.8-1.4,1.9,0,0-.2.4-.5.7s-.7.9-.9,1.3-.5.7-.5.7-.3.2-.5.4c-1,1.3-1.9,2.2-4.3,4.8-1.5,1.6-2.8,2.8-2.9,2.8s-.2-.1-.2-.2c0-.3-.8-1-1.3-1.2-.2,0-.3-.2-.3-.3,0-.2-.8-1.2-1-1.2s-.8-.6-1.9-1.6c-.3-.3-.6-.5-.7-.5s-.4-.3-.7-.6c-1.1-1.1-1.8-1.8-2-1.8,0,0-.2-.2-.4-.3s-.3-.3-.4-.3c-.1,0-.5-.3-1.5-1.3-.2-.2-2.4-1.8-2.8-2-.2,0-.5-.3-.7-.5-.5-.4-.6-.3-.7.6,0,.6,0,.8.5,1.2.3.3.5.5.6.5s.3.2.6.5.6.5.7.5.2.1.2.3.2.3.4.4.5.3.7.5.4.4.5.4.4.2.7.5c1.3,1.3,1.8,1.6,2.1,1.7.2,0,.3.2.3.2,0,.2.6.9.7.9s.3.2.4.4.4.4.4.4.3.2.5.5.4.5.6.5.4.2.6.5.4.5.5.5.3.2.5.5.4.4.5.4c.2,0,1.7,1.7,1.7,1.9s.1.2.2.2.3.1.3.3c.2.4.5.3,1.1-.5h0ZM97.3,150.9c0,0,.3-.1.4-.1s.3-.1.3-.4,0-.3-.2-.2-.3,0-.5-.4c-.1-.3-.4-.9-.6-1.4s-.4-.9-.4-1c0-.2-.2-.7-.8-1.8-.2-.4-.4-.9-.4-1.1s0-.3-.1-.3,0,.4,0,1,.1,2,.2,3.2c0,2.6.1,2.7,1.3,2.6.4,0,.7-.2.8-.2h0ZM72.1,150.6c1,0,2,0,2.3,0,.6,0,.7-.2,1-1.6,0-.3.1-.6.2-.8,0-.3,0-.3-.3-.2-.3,0-.4,0-.6-.4-.3-.5-.3-.5-.4-.2-.5,1.4-.9,1.7-.9.6s-.3-1.1-.4-.5c-.1.3-.2.3-.3.1-.2-.2-.1-.4.1-.9.2-.4.3-.8.3-.9s.1-.3.2-.4.4-.5.6-.9c.3-.7.6-1.1.8-1.1.1,0,.3,1.1.4,2.5,0,.6.2,1.2.3,1.3.2.2.2.2.4-.3.3-.8,1.1-5.3,1-5.5-.1-.1-1.2-.1-6.8,0-2.4,0-5.1.1-6.1.1-1.7,0-1.7,0-1.9.5-.1.2-.2.6-.2.7s0,.3-.1.3-.5.7-.8,1.5c-1.1,2.3-1.6,3.2-2.3,4.4-.6,1.1-.8,1.7-.5,1.4,0,0,.2,0,.2,0s2.2.2,4.9.2,4.8,0,4.8,0,.6,0,1.2,0,2,0,2.9,0h0ZM64.7,148.1c0-.3,0-.5.1-.5s.2-.2.3-.4c1.3-2.8,1.7-3.5,2.1-3.5s.3,2,.3,3.6-.4,1.3-.4,0c0-.5-.1-.9-.2-.9s-.3.4-.5.9c-.3.6-.4.9-.6.8-.1,0-.2-.2-.2-.3,0-.3-.1-.3-.6.2l-.4.5v-.5s0,0,0,0ZM62.3,147.9c.1-.4-.2-.5-.5-.1-.4.5-.5-.2-.1-.7.6-.9,1.5-2.4,1.5-2.5,0-.2.5-.7.7-.7.2,0,.2,3.5,0,3.9-.2.4-.4.2-.4-.4s0-.6-.2-.6-.1,0-.1.1c0,.2-.7,1.2-.9,1.2s-.1-.1,0-.2h0ZM69.9,148.1c0,0-.1-.3-.2-.6s-.2-.5-.3-.5c-.2,0-.2-.6.1-1,.1-.1.4-.7.7-1.3s.5-1.1.6-1.1c.2,0,.3,1,.5,2.9,0,.6.1,1,.1,1.1,0,.1-.2.5-.4.5s-.1-.2-.1-.4c0-.6-.3-.7-.6,0-.3.5-.3.6-.4.4h0ZM99.4,150.5c0-.2-.4-1.6-.6-1.7,0,0-.2-.3-.2-.5s-.2-.5-.4-.6c-.5-.2-.5.2-.1,1.2.2.5.4,1,.4,1,0,.1.5.8.7.8s.2,0,.2-.2h0ZM94.7,149.4c0-.4,0-.9,0-.9s0-.7,0-1.5-.2-1.9-.3-2.6-.2-1.4-.2-1.6c0-.6-.4-2-.5-2s-.6-1-.5-1.2c0,0-.1-.1-.4-.2-.6,0-.8-.2-.8-.6,0-.6.2-.8.8-.7.5,0,.5,0,.5-.2s-.1-.6-.3-1c-.3-.6-.3-.6,0-1.1.3-.5.4-.6.7-.3.2.2.3.5.3,1.5,0,1.2.3,1.7.4.9,0-.6.5-.7,1.1-.5.5.2.5.3.3.7-.1.3-.3.4-.5.4-.3,0-.3.1-.3.9,0,.5,0,1.1,0,1.3s0,.5,0,.7.1.4.2.5.2.9.5,1.6.4,1.4.4,1.6c0,.3.8,1.9,1,1.9.1,0,.4,0,.6,0,.6,0,.6-.4,0-3-.3-1.1-.5-2.3-.6-2.7s-.2-1.3-.4-2.1-.4-1.9-.4-2.4-.2-1.1-.2-1.3-.1-.4,0-.4,0-.5-.1-.9-.3-1.4-.5-2.2-.3-1.6-.4-1.8-.1-.5-.1-.7,0-.3-.1-.3-.3-.8-.4-1.8-.4-2.2-.5-2.7c-.3-1.1-.7-3.6-.9-6,0-1.1-.2-2-.3-2.1s-.3,0-.7.2c-.8.5-2.2,1.1-4.2,1.6-1.4.4-1.9.5-3,.4-.7,0-1.3,0-1.3,0-.3.5.1,7.4.4,7.6,0,0,0,.2,0,.3s0,.3,0,.4.2.7.3,1.2.4,1.6.7,2.3.5,1.4.5,1.5c0,.2,1.4,2.5,2.2,3.5.6.8,1.2,1.6,1.4,1.9.1.1.2.3.2.4,0,.2.8,1.5,1.2,1.8.1.2.3.4.3.5s0,.2.1.2.2.3.3.6.3.6.4.7.4.6.6,1.1.5,1.1.6,1.3.2.3.1.4,0,.3.1.5c.2.4,1,2.8,1.1,3.8.3,1.4.5,1.6.6.4h0ZM101,148.6c.1,0,.2,0,.2,0s.1.1.3,0,1-.1,1.8-.2,1.8-.1,2.1-.2.9-.1,1.4-.1,1,0,1.1-.2.2,0,.2,0,.2.2.3.1.3,0,.3,0c.2,0,.6-.7.6-1.1,0-.4.3-.4-4-.2-.6,0-2,.1-3.2.2s-2.2.2-2.4.2c-.7,0-.6,1.1,0,1.4.4.2,1.1.1,1.3,0h0ZM45.9,147.2c.3-.3.4-.4.4-1.9,0-4.1,0-5.6-.2-5.5-.3,0-.4.8-.5,3.4,0,1.2-.2,2.5-.3,2.9-.1.7,0,1.4.2,1.4s.3-.1.5-.3h0ZM44.6,147c0,0,0-.7,0-1.5s.1-1.8.2-2.4.1-1.2,0-1.4c-.2-.6-.3-.3-1.1,3.9-.2.9-.2,1.1,0,1.3.3.3.6.4.7.2h0ZM101.8,146.5c1.1,0,2.4-.1,2.8-.2,1.5-.3,2-.4,2.1-.3.4.1,2.5,0,2.5,0s0,0-.2,0-.2,0-.2,0,.1-.2.2-.3.2-.3.2-.5c0-.4,0-.4-1.9-.3-3.3.2-4.8.3-5.2.4-.2,0-1.1.1-1.9.1s-1.5,0-1.6.1c-.3.3.4,1.4.8,1.2,0,0,1.1-.1,2.3-.2h0ZM43.4,145.4c.1-.4.3-1.1.3-1.4s.2-1.2.3-1.9c.2-1.1.2-1.7,0-1.4-.1.2-2,4.3-2,4.4s.9,1.2,1,1.2.2-.4.3-.8h0ZM48.8,144.1c1.3-1.5,1.9-2.2,1.8-2.4,0-.2-.3-.6-.5-1s-.6-.9-.7-1.1c-.3-.5-.6-.6-.6-.2s.2.9.4,1.6c.5,1.5.5,1.9.1,1.8-.3,0-.4-.3-.7-1.6,0-.4-.2-.7-.3-.6s-.1-.1-.1-.3c0-.4-.1-.7-.3-.6,0,0,0,.6.2,1.2.3,1.6.3,3.1,0,3.1s-.3-.3-.3-.8c0-.4-.2-1.2-.2-1.6s-.2-1-.2-1.3c0-.5-.2-.8-.4-.5-.1.2-.3,6.4-.2,6.4s1-.9,2-2.1h0ZM98.8,144.8c0-.2,0-.2,3.3-.2,1.4,0,2.6-.1,2.7-.2s.3-.1.4,0,.3,0,.4,0,.4-.1.7,0,.8,0,1.2-.2c.5-.2.8-.2.9,0,.3.3.7.2.9-.2,0-.2.2-.6.1-1s0-.5,0-.3c0,.4-.3.4-.6,0-.2-.3-.4-.3-.7-.2-.3,0-.5.2-.5.3s-.1.2-.2.2c-.3,0-.3,0,0-1.8,0-.5.2-1,.2-1.2.1-.6.4-.8.5-.4,0,.2.2.5.4.7s.3.5.3.7.1.4.3.6c.3.3.3.2.3-1.5,0-1,0-1.9,0-2,0-.2-.5-.2-2.9-.1-1.6,0-3,.2-3.1.2s-1,.1-2,.2-2.3,0-2.8.2h-1c0,.1,0,1.1,0,1.1,0,.8.2,1.6.5,2.8.2.8.3,1.1.4,2,0,.5.2,1,.3,1s.1,0,.1-.1h0ZM99.6,143c0-.1.1-.8.3-1.5s.3-1.4.3-1.6c0-.8.9-.9,1.2-.3,0,.2.4.7.6,1.1.5.8.8,2.3.5,2.3s-.2-.2-.4-.5c-.3-.9-.5-1.3-.6-1.3s-.2.4-.3.9c-.1.7-.2.9-.5.9-.2,0-.3,0-.2,0,.2-.2-.2-.8-.4-.7,0,0-.2.3-.2.5s0,.4-.2.4-.2-.1-.2-.3h0ZM103.5,142.5c0-.2,0-.4.2-.5s.1-.3,0-.3,0-.2,0-.3.2-.7.3-1.4c.2-1.1.4-1.6.6-1.6s.5.9.5,1.3c0,0,0,.3.2.4.3.5.7,1.9.5,2.1-.2.2-.6-.4-.5-.6,0,0,0-.1,0-.1-.2,0-.5.6-.4.8.2.3-.3.4-.5,0-.2-.3-.7-.2-.7.2s0,.3-.1.3-.1-.1-.1-.3h0ZM41.9,144.1c.1-.3.4-1.1.8-1.7.8-1.7,1-2.4.8-2.4-.1,0-.3.2-.5.5s-.4.7-.6.9c-.6,1-1.4,2.5-1.4,2.6,0,.3.3.6.6.6s.3-.2.4-.5h0ZM40.7,143c.2-.3.4-.7.4-.7s.1-.1.1-.2c0-.1,1-1.8,1.3-2.1,0-.1.2-.4.3-.6.2-.7-.5-.6-1.1.3-.3.4-.6.8-.6.9s-.1.3-.2.4c-1.4,1.5-1.4,1.8-.9,2.4.3.4.4.4.8-.3h0ZM39.5,142c.2-.3.4-.6.4-.7s0-.2.1-.2.3-.2.4-.5.4-.7.6-.9.3-.4.2-.4,0-.2.1-.4c.2-.4.2-.4,0-.6-.2-.2-.4,0-1.5,1.1-1.5,1.5-2,2.5-1.7,2.6.1,0,.3.2.4.3.3.3.4.3.8-.2h0ZM38.1,140.7c.2-.3.7-.9,1.1-1.4s.7-.9.8-1.1.2-.3.2-.3c.2,0,.2-.5,0-.6-.2-.1-1.5.5-1.8.9-.2.2-.4.3-.4.3s-.3.1-.5.3-.5.5-.7.6c-.3.3-.4.4-.3.8.1.4.1.5.3.2.1-.3.2-.3.2,0,0,.3.5.8.6.7,0,0,.3-.3.5-.6h0ZM51.3,141.1c.4-.2.4-.7-.1-1.3-.3-.3-.5-.7-.6-.8-.1-.4-.7-.8-.9-.7-.1,0,0,.2,0,.4.2.3.8,1.7.7,1.9,0,0,.4.6.5.7,0,0,.2,0,.4-.2h0ZM68.7,140.7c2.5,0,5.2-.1,6-.2s1.6,0,1.9,0c.4,0,.6,0,.8-.4.1-.2.2-.5.1-.7,0-.2-.4-.3-2.4-.2-2.6.1-9.7.3-10.9.3-1,0-1.2.1-1.3.8,0,.4,0,.5.4.6.2,0,.5,0,.6,0s2.2,0,4.8-.1h0ZM52.5,139.6c0-.3,0-.5-.4-.9-.3-.3-.6-.7-.8-.9-.2-.3-.3-.3-.5-.2s0,.3,0,.5c.1.2.3.4.3.6s0,.3.2.3.2,0,.2.2c0,.2.5.8.7.8s.2-.2.3-.4ZM37.4,138.1c.4-.4,1-.8,1.3-1,.6-.3.9-.7.7-1.1-.1-.2-.2-.2-.5,0-.2.1-.4.2-.5.2s-.4.1-.6.3-.6.4-.8.4-.8.4-1.2.7-.9.6-1,.6c-.2,0-.3.4-.2.7,0,.1.4.3.7.5l.5.3.5-.4c.2-.2.8-.8,1.2-1.2h0ZM47.9,138.5c1.1-.5,2.6-1.9,3.1-2.7.2-.4.5-.8.5-.8s.3-.5.5-.9c.3-.7.4-1.1.4-3,0-1.3,0-2.3-.2-2.5-.4-.8-1-2.8-.9-2.9.2,0-.5-.5-.6-.5s-.2.6,0,.8c0,0,.2.5.3.9s.3.8.3.9c.2.2.6,3.2.5,4.1-.1,1-1,3-1.6,3.6-.2.2-.4.5-.4.6,0,.2-.9.9-1.1.9s-.2,0-.2.1-.4.3-1,.5c-1.1.4-3.2.5-3.8.2-.2-.1-.5-.2-.7-.3s-.3-.1-.4-.2-.1-.2-.3-.2c-.2,0-1.5-1.3-1.5-1.5s-.1-.1-.3-.1-.2,0-.2-.2c0-.1,0-.4-.2-.7s-.3-.5-.3-.7,0-.3-.1-.3-.1-.1-.2-.3-.1-.9-.2-1.6-.1-1.5-.1-1.8c.2-1.3.8-3.2,1.4-4.1.3-.6.6-1.1.6-1.2,0-.2-.7,0-.9.2-.3.3-.9,1.5-1.2,2.6-.6,1.8-.6,5-.1,6,.1.3.2.6.2.7,0,.6,1.3,2.8,1.6,2.6,0,0,.1,0,.1,0,0,.2.8,1,1.1,1,.1,0,.2,0,.2.2s.1.2.3.2.4,0,.4.1c.3.3,1.5.5,1.6.3.1-.1.2-.1.2,0,0,.4,2.1.4,3,0h0ZM53.5,138.3c0-.3-1-1.4-1.2-1.4s-.2-.1-.3-.3c-.3-.3-.5-.3-.5,0s.2.5.5.8.4.5.4.6,0,.2.3.5c.3.3.4.4.6.2.2,0,.3-.3.3-.4h0ZM77.9,137.6c.1-.5.3-1.1.4-1.5.5-3.5.7-5,.9-7.5,0-.8,0-.8-.4-.9-.3,0-.5,0-.6,0s-1.2.1-2.4.2-2.6.1-2.9.1c-2.5.2-3.8.3-4,.3-.1,0-.5,0-.8,0-.6.1-.9.6-1.1,1.7,0,.4-.2.7-.3.7s-.1,0-.1.2-.1.5-.3.9-.5,1.2-.7,1.9-.6,1.8-1,2.5-.7,1.5-.7,1.8v.4c-.1,0,6.8,0,6.8,0h6.9s.3-.9.3-.9h0ZM67.8,135.5c-.1-.6-.4-.8-.4-.4s-.1.3-.2.4c-.4.4-.3-.7.2-1.6.2-.4.4-.9.4-1.1,0-.4.5-1.5.8-1.7.3-.2.6,0,.5.3,0,.1,0,.4,0,.6.1.3.2,2.5.2,3.6,0,.5-.5.3-.5-.2s-.2-.6-.5,0c-.1.3-.3.6-.3.6s-.2-.3-.2-.6h0ZM72.5,135.6c-.1-.6-.3-.7-.5,0-.2.6-.6.5-.6,0s-.3-.5-.5.1c0,.2-.2.4-.3.4-.2,0-.2-.8,0-.9,0,0,.2-.2.2-.4s.1-.4.2-.5.3-.4.3-.6.2-.8.4-1.2.3-.9.3-1,.1-.5.2-.6c.2-.4.2-.4.5.6,0,.1.1,1.2.2,2.5,0,1.6,0,2.2,0,2.3-.1,0-.2,0-.3-.4h0ZM74.1,135.5c0-.2,0-.7.3-1.1s.6-1.3.8-2c.5-1.5.9-2.3,1.1-2.3s.3.7.4,1.7c0,.3.1,1.2.3,2s.2,1.4.1,1.5c-.2.2-.4-.2-.5-.8,0-.7-.4-.9-.5-.2-.1.6-.4,1.2-.6,1.2s-.2-.2-.3-.5v-.5c-.1,0-.4.5-.4.5-.3.8-.6,1-.7.6h0ZM34.7,137.7c1.3-.9,1.7-1.3,1.8-1.4,0,0,.2-.1.4-.1s.3,0,.3-.2.2-.2.5-.3c.6-.1,1.1-.6,1-1,0-.3-.4-.2-2.4.6-1,.4-3.3,1-3.7,1-.2,0-.2,0,0-.2.2-.3,2.4-1.2,2.7-1.2s.3,0,.4-.1.5-.3,1-.4.8-.4.8-.4.1-.2.3-.2.3-.1.3-.3c0-.4,0-.4-1.5,0-.2,0-.6.1-.9.1-.6,0-1.7.3-3.2.7-.6.1-1.1.3-1.2.3-.7.1-.9.3-.9.8s.1.6.6.9c.3.2.7.4.7.4s.3.2.5.4c.4.4,1.4,1,1.6,1.1,0,0,.4-.2.7-.5h0ZM54.3,137.3c.1-.3-.7-1.1-1.1-1.1-.4,0-.4.1.2.8.6.6.7.7.9.3h0ZM98.6,137.3c.4,0,.8,0,.9,0s.8-.1,1.6-.2c2.4-.1,3.6-.2,5.2-.3.8,0,1.8-.1,2.1-.2s.6,0,.7,0,.1-.2.1-.5v-.5h-1c-.5,0-1.7.1-2.5.2s-2.1.2-2.8.2-1.7,0-2.2.1c-1.6.1-3.2.3-3.4.3-.3,0-.2,1,0,1.1.2,0,.3,0,.4,0s.4,0,.9,0h0ZM47.6,137c.3,0,.8-.4,1.1-.7s.7-.6.8-.6.1-.1.1-.2.1-.3.3-.5.5-.8.8-1.5c.4-1,.6-1.5.6-2.5,0-1.1,0-1.3-.3-1.7-.5-.6-.7-.4-.7.5,0,1.4-.2,3.1-.4,3.1-.4,0-.7-.5-.7-1s0-.5-.3-.5-.3-.1-.4-.7c0-.4-.2-.8-.4-1-.2-.3-.3-.3-.6,0-.4.3-.3.3-.5-.4,0-.1,0-.4,0-.6.1-.3.3-.3.7-.2.3,0,.7.2.8.4.2.3.3.2,0-.3-.4-.8-.5-1.6-.4-2.5.1-1.4,0-1.6-1.6-1.7-.7,0-1.8-.1-2.4-.1-1.2,0-1.8.1-1.8.5s-.1.2-.2.3-.2.2-.2.3-.3.5-.6.9l-.6.7.3.5c.4.7.6.7.7,0,.1-.7.5-1.2.8-1.2s.4-.2.6-.5.5-.5.6-.5c.2,0,0,2.5-.3,2.7,0,0-.3.3-.4.5-.3.3-.3.4.2.3.3,0,.5,0,.5-.1s0,0,.2,0c.3,0,.3,1.2,0,1.5-.3.3-.3.3-.6-.2-.3-.4-.4-.4-.6-.3-.2,0-.4.1-.6,0-.2,0-.3,0-.3.3s.1.5.2.5c.4.2.3.4-.2.6-.3,0-.5.3-.5.4,0,.3-.4.6-.6.5-.2-.1-.2-.4,0-1.4.2-1.6.2-1.6,0-1.6-.6,0-.5,3,.1,4.4.2.5.4,1,.4,1s.5.6,1,1.2c.7.7,1.1,1.1,1.4,1.1.2,0,.5,0,.5.1.2.2.6-.2.8-.7,0-.4,0-.5-.2-.5-.2,0-.3-.2-.2-.4.2-.4-.4-1.4-.8-1.4-.3,0-.4,0-.3-.6,0-.4.1-.6.4-.6.4,0,1,.5,1,1s0,.3.1.2c.2-.1.2-1.7,0-1.8-.2-.2-.1-.8.3-1.7.4-1,.8-1.1.9-.3,0,.3.1.5.2.5.3,0,.3.9,0,1.4-.4.7-.8,2.4-.5,2.6.1.1.2,0,.4-.5.2-.5.3-.8.7-.9.4-.1.5-.1.7.1.3.4,0,1-.4.9-.3,0-.7.7-.6,1.1,0,.2,0,.3-.1.3s-.3,0-.5.2c-.2.2-.3.3-.2.9.1.6.1.6.8.6.4,0,.9-.1,1.1-.2h0ZM55.3,135.9c0-.2,0-.3,0-.3s-.1-.1-.1-.3-.2-.3-.4-.3-.5,0-.6-.2-.2-.1-.2,0-.2,0-.4-.2c-.5-.4-.9,0-.5.3.2.1.4.3.5.3s.2,0,.2.2.1.1.2,0,.2,0,.2,0c0,.3.7.8.9.7.1,0,.2-.2.3-.4h0ZM52.5,135.7c.2-.3,0-.3-.2,0-.1.1-.1.2,0,.2s.2,0,.3-.2ZM100.9,135.4c3.1-.2,5.2-.4,5.4-.7,0,0,.3,0,.5,0,.3.1.4,0,.6-.2.1-.2.2-.4.2-.5-.1-.2,0,0,.8.4.4.3.4.3.7,0,.2-.3.2-.9.2-3.2,0-1.6-.1-2.9-.2-2.9-.2-.1-2.1,0-4.1,0-.7,0-2.2.1-3.2.2-3.5.2-6.1.4-6.2.5,0,0,.2,1.9.6,3.6.2.9.5,2,.5,2.4.1.5.2.7.5.8.2,0,.5,0,.6,0s1.5-.2,3.1-.3h0ZM98.3,134.2c0-.1,0-.5,0-.8.3-2,.5-3,.6-3.2.3-.3,1.1,1,2,2.9.2.4.2.6,0,.7-.3.2-.8,0-.7-.3,0-.2,0-.4,0-.4-.2-.1-.3.1-.4.6,0,.4-.3.7-.4.6,0,0-.2-.3-.2-.6-.1-.6-.4-.7-.4-.1,0,.5-.2.9-.4.6h0ZM106.5,133.3c-.1-.6-.3-.8-.4-.3-.2.5-.3.2-.3-.5,0-.9.2-1.6.4-1.6s.1,0,.1-.2c0-.4.2-1.5.4-1.5s.2.2.3.5c.4,1,.5,1.3.8,1.6.4.5.6,1.6.2,1.6s-.2-.1-.2-.3,0-.2-.2-.1c-.1,0-.2,0,0-.3,0-.3,0-.4,0-.4,0,0-.2.3-.2.6,0,1.4-.5,2.1-.7.9h0ZM101.8,133.6c-.1-.2,0-1.7.2-1.7s.1-.2.1-.4,0-.5.1-.5.1-.4.2-.8c0-.6.5-1.8.5-1.2s.5,1.3.9,2.2c.6,1.2.9,2,.6,2.1,0,0-.1,0-.1,0,0-.2-.6-.9-.8-.9s-.2.2-.2.5c-.1.7-.4.8-.6.1l-.2-.5-.3.6c-.3.6-.4.7-.5.5h0ZM56.2,134.5c.1-.2.2-.4.2-.3,0,.2.9-1.1,1-1.6,0-.2.2-.4.3-.4.2,0,.2-.6,0-.8-.1-.2-.1-.2,0-.2.4,0,1.6-1.5,1.4-1.9,0,0,0-.2.2-.3s.2-.2.2-.3.2-.5.3-.8c.4-.7.2-1.1-.4-.8-.2.1-1.3.3-2.3.5s-2.1.4-2.4.5-.6.2-.8.1c-.3,0-.3,0-.2.1,0,0,.8.2,1.6.3,1.5.1,2.7.4,2.6.7,0,0-.1.1-.2.1s-1.1,0-2.2-.1c-1.4,0-2,0-2,.1,0,.2,1.6.8,3.2,1.1.6.1,1.2.3,1.2.4s-.1.1-.2,0-.3,0-.3,0c0,.2-2.4-.2-3.2-.5-.2,0-.4,0-.5,0,0,0,0,.2.2.2s.3,0,.3.1c0,.4,0,.5.7.7.4.1.8.2.9.2s.2,0,.3.1.2.2.4.2.3.1.4.3c.1.4-.4.3-1.7-.2-.6-.2-1.2-.4-1.2-.3-.2.1,0,.4.3.4s.2,0,.2.2.1.2.2.2.2,0,.2.2c0,0,0,.1.1,0,.1,0,.2,0,.2,0s.3.2.7.3c.4,0,.7.2.7.4,0,.3-.9.3-1.7-.1-1-.5-1.3-.6-1.5-.4-.1.2.5.9.7.8,0,0,.3,0,.4.3s.4.4.6.4.4.1.5.2c.2.3.6,0,.8-.4h0ZM58.1,129.5c-.2-.3,0-.4.4-.2.3,0,.3.2.1.3-.3.2-.4.2-.5,0h0ZM31.3,134.2c.2-.3.8-.5,1-.4,0,0,.2,0,.4,0,.2-.2,2-.6,2.3-.6.2,0,1.1-.3,1.1-.5s.2,0,.5,0c.5,0,.7-.1.6-.4,0-.1-.3-.1-.6,0-.3,0-1.8.2-3.3.2s-2.8,0-2.8.2,0,.5,0,1c0,.7.2.8.5.8.2,0,.4,0,.4-.1h0ZM37.8,132.3c0,0-.1-.1-.2,0-.3.1-.3.2,0,.2s.2,0,.2-.2h0ZM31.3,131.9c.2,0,.9-.1,1.6-.2,2.8-.2,4.1-.3,4.4-.4.4-.2-.3-.5-1.4-.6-.6,0-1.4-.1-2-.2s-1.2-.1-1.4-.2-.8-.1-1.2-.2c-.7-.1-.7-.1-.8.3,0,.2,0,.7,0,1,0,.5.1.6.3.5.1,0,.4-.1.6-.2h0ZM49.6,130c0-.6.6-1.9.9-1.9s.4-.5.2-1.1c-.3-.8-.4-1.2-.4-1.3,0,0-.1-.1-.2-.2s-.2-.2-.2-.4,0-.2-.1-.2-.3,0-.5-.1c-.3,0-.4,0-.4.2s0,.4.1.4c.4.2.6,1.1.5,1.9,0,.5,0,1.2,0,1.7,0,.5,0,.9-.2,1-.1,0-.2.3-.2.5,0,.3,0,.3.3.1.2-.1.3-.4.3-.6h0ZM37.9,130.2c0-.1,0-.2-.2-.2s-.4,0-.4-.1-.4-.2-.7-.3c-.7-.1-2.1-.6-2.4-.8-.1,0-.7-.2-1.3-.3s-1.2-.3-1.3-.3c-1-.4-1.2-.3-1.1.9v.7c.1,0,1.3,0,1.3,0,.7,0,1.3,0,1.4.1s.6,0,1.1,0,.9,0,1,0c.3.3,2.4.4,2.5.2h0ZM37.9,129s0,0-.2,0-.2,0-.2.2,0,.1.2,0,.2-.1.2-.2ZM37.3,128.8s-.1-.2-.4-.4-.5-.4-.6-.4-.3-.2-.5-.3-.6-.3-.8-.3-.5-.1-.7-.3-.6-.4-1-.5-.8-.3-.9-.4-.3-.2-.5-.2-.3,0-.3-.1-.1-.2-.3-.2-.3-.2-.3-.3.1-.2.3-.1c.1,0,.4.1.6.1s.3.1.3.2.1.2.5.2c.3,0,.5,0,.5.1s.2.2.4.2.5.1.8.3.6.2.7.3.4.2.6.3.5.2.5.2.2,0,.3.1.5.4.9.7c.7.4.8.4.8.1s-.3-.5-.7-.7c-.4-.2-.7-.5-.7-.5,0-.1-.8-.5-1-.5,0,0-.3-.2-.5-.4s-.7-.6-1.1-.9-.9-.6-1.1-.8-.7-.4-1.1-.6-.7-.4-.8-.5-.2-.2-.3-.2c-.3,0-.3,1.5,0,2,.1.2.1.4,0,.7-.3.5-.2,1.7.2,1.8.2,0,.3.1.2.2s0,.1.2,0c.2,0,.2,0,.2.2,0,.3.3.4.3,0,0-.1.4,0,.9,0,.5.1,1,.2,1.1.2s.4,0,.5,0,.5.1.8.2.8.2,1.1.3.7.2.8.2.2,0,.3,0h0ZM98.6,128.1c.6,0,1.1,0,1.1-.1s.3,0,.7,0,.8,0,.8-.1.2,0,.3,0,.6.1,1.1,0,1.2,0,1.5,0c.3,0,.8,0,1-.2.3-.2,1.1-.2,2.2-.3h1.8s0-.5,0-.5c0-.3,0-.5-.2-.6-.4-.2-2-.2-3.1,0-.7,0-2.1.2-3.1.2s-2.3.1-2.8.2c-.5,0-1.7.1-2.6.2s-1.8.1-1.9.2c-.3.1-.2.7,0,1.1.3.3.4.3,1.2.2.5,0,1.3-.2,1.9-.2h0ZM70.5,127.5c.5,0,1-.2,1.2-.3s.2-.1.2,0,.4,0,1,0c.5,0,1.8-.2,2.9-.2,1.3,0,2-.1,2.1-.3.2-.2.2-.2.2,0,0,.1,0,.2,0,.2s.2,0,.2-.2,0-.1.2,0c.2.1.3.1.3,0,0,0,.2-.1.2,0,.1,0,.3-.3.3-.7s0-.2-.3-.1c-.2,0-.3,0-.3,0s-.4,0-.9,0c-1,.1-3.3.3-6.2.4-2.3,0-3.6.2-3.7.4,0,.4,0,1,0,1.1,0,.1,1.1,0,2.7-.1h0ZM54.2,127.4c.3,0,.4,0,.4,0s0-.2.2-.2.1,0,0,.2c0,.1,0,.1.2,0,.2,0,1-.2,1.8-.2,1.4,0,2.4-.2,3.1-.3.3,0,.4-.4.7-1.3.4-1.2.7-2.3.8-3.1,0-.2.1-.6.2-.7s.2-.8.2-1.4.1-1.2.2-1.3c.1-.3.2-1.7,0-2,0-.1-.2-.1-.5.1-.2.2-.4.3-.5.3s-.4.1-.6.3-.8.5-1.3.8-1,.6-1.2.8-.4.3-.5.3-.4.2-.7.4-.8.5-1.1.7-.5.3-.5.4,0,.1-.2.1-.3.1-.4.3-.5.4-.9.6c-.4.2-.7.4-.7.7,0,.4.1.6.3.4,0,0,.3-.2.5-.3s.6-.2.7-.4.5-.3.7-.3.4,0,.5-.1.3-.1.5-.1.4,0,.5-.2c.1-.2,1.4-.8,1.6-.8s.4-.2.8-.3.8-.3.9-.3.3,0,.3-.2c.1-.2.7-.2.7,0,0,0-.7.5-1.6.9s-1.9,1-2.2,1.1-.6.3-.6.2-.2,0-.4.2c-.5.3-2,1.1-2.2,1.1s-.3,0-.5.1-.4.2-.5.2c-.2,0-.4.4-.4.8,0,.4.2.5.7.1.2-.1.5-.3.6-.3s.5-.2.8-.3c.8-.4,1.6-.6,2.4-.7.4,0,.8-.2.9-.3s.2-.1.3,0,.2,0,.2,0c0-.2.9-.6,1.1-.5,0,0,.2,0,.2,0,0-.2,1.4-.4,1.4-.2s-.2.2-.5.3-.7.2-.9.3-.5.2-.5.2-.5.2-.9.4-.9.4-1,.4-.6.2-1.1.5-1,.5-1.2.5c-.4,0-2.2.7-2.4.9-.3.3,0,.5.2.3.1-.1.3-.2.4,0,.2.1,1.9-.2,1.9-.4s.7-.3,1.7-.4c.3,0,1-.2,1.7-.3.9-.2,1.3-.2,1.6-.1.3.1.2.2-.9.5-.7.2-1.9.5-2.8.8s-1.6.5-1.8.5c-.4,0-1.4.5-1.3.7,0,.1.2.1.3,0,.1-.1.4-.1.6,0h0ZM38,126.2c-.3-.3-.7-.5-.7-.5s-.5-.3-1-.8-.9-.9-1-.9c-.1,0-.5-.3-1.4-1.1-.3-.3-.6-.5-.7-.5s-.1-.1-.1-.3c0-.5.4-.6.7-.2.1.2.3.3.5.3s.3.1.4.2c.2.4,1.6,1.3,1.8,1.2,0,0,.2,0,.2.1s.2.4.4.6.4.5.4.6.1.1.2,0c.1,0,.3,0,.3.2.1.3.4.3.4,0s-.1-.3-.2-.3-.2-.1-.2-.2-.2-.4-.5-.5-.6-.5-.7-.7-.3-.4-.4-.4-.6-.5-1.2-1-1.1-1-1.1-1-.3-.2-.6-.5-.5-.5-.6-.4-.1,0,0,0-.1-.3-.4-.5-.5-.4-.5-.5-.2-.3-.5-.4-.5-.3-.5-.4c0-.2,0-.2-.3,0-.5.3-.4,1.2,0,1.2s.3.1.4.3.6.6,1,.9c.9.7,1,.9.6,1-.2,0-.9-.4-1.7-1.3-.3-.3-.5-.4-.6-.4-.2.1-.2,1.9,0,2.2.1.1.4.3.6.3s.4.2.4.3.1.2.3.2c.3,0,.8.4.8.6s.3.2.4,0c0-.1.1,0,.3.2.1.2.3.4.6.4s.4,0,.4.2.1.2.2.2.2,0,.2.2.1.2.3.2.3.1.4.3.2.2.3.2.4.1.8.4.7.5.8.5.3.1.3.2c.1.3.9.6,1,.5,0,0-.2-.3-.5-.6h0ZM98.3,126.2c.3,0,1,0,1.4,0s.9,0,.9-.1,1-.1,2.1-.1c1.6,0,3.4-.2,3.4-.2s1.3-.2,1.9-.2c.6,0,.6-.1.2-.6-.2-.2-.5-.5-.7-.7s-.4-.4-.5-.4c-.2,0-1-1-1-1.2s0-.2-.2-.2c-.2,0-1.1-.9-2.5-2.3l-.9-.9h-1.2c-.7,0-1.3,0-1.3.2-.2.1-.7.2-3.7.3-2.5.1-2.5.1-2.5,1s.5,3.4.7,4c0,.1.1.4.2.7.1.6.3,1,.6.9.1,0,.2,0,.2,0s.3.2,1.1,0l1.7-.2h0ZM95.8,125.3c-.1-.2.4-3.1.6-3.5.2-.3.2-.3.5,0,.2.2.5.6.7.9s.4.6.5.6.1,0,0,.1,0,.2,0,.3c.1.2.1.3,0,.6q-.2.4-.3,0c-.1-.6-.3-.5-.5,0-.2.5-.4.7-.6.3-.1-.4-.3-.3-.6.3-.1.3-.3.5-.3.4h0ZM99.3,124.7c0-.2,0-.5,0-.7s.2-.8.3-1.3.2-1,.3-1.1.1-.2.1-.4,0-.3.2-.3c.2,0,1.1,1.5,1.3,2.1.2.5.2,1.1.1,1.1-.2,0-.5-.4-.5-.7,0-.6-.3-.3-.3.4,0,.8-.3.9-.5.3-.2-.5-.4-.5-.5,0-.3.9-.3,1-.4.7h0ZM102.6,122.5c0-2.4,0-2.5,1.6-.7.5.7.5.7,0,1.4-.4.7-.5.7-.7.3-.1-.4-.4-.4-.4,0s-.2.9-.4.9c-.1,0-.2-.6-.2-1.9h0ZM104.8,123.5c-.3-.3-.4-.6-.2-.6s.6.5.5.7c0,.2-.1.1-.3,0ZM73.8,125.4c1.5,0,2.8-.1,2.9-.2s.8-.1,1.5,0c1.7,0,1.6.3,1.7-4.2.2-4.8.2-4.6-1.3-4.5-4.5.3-8.7.7-9.2.8h-.6c0,.1-.1,1.6-.1,1.6,0,.8-.2,2-.3,2.7s-.2,1.7-.2,2.3,0,1.1,0,1.2c-.1.6,0,.7,1.5.6.8,0,2.7,0,4.1-.1h0ZM69.4,123.5c0-.3.5-1.3.6-1.5,0,0,.3-.6.5-1.3.4-1.1.8-1.8,1.1-1.8s.3.8.4,1.5c0,.1,0,.4.2.5s.2.7.2,1.3c0,.9,0,1.1-.2,1.1s-.4-.3-.5-1.2c0-.4,0-.3-.3.3-.3.8-.7,1-.8.4,0-.3-.5-.6-.5-.2s-.2.3-.4.6c-.2.3-.4.4-.4.2h0ZM75.8,122.8c0-.3,0-.6-.2-.7-.1-.2-.2-.2-.2,0-.3,1-.6,1.1-.7.2,0-.6,0-.6-.3-.3-.1.2-.3.5-.4.7s-.2.3-.2.2c-.1-.1.3-1.8.5-2,0,0,.1-.3.1-.6s0-.5.2-.6.3-.4.4-.7c.2-.8.5-.8.7,0,.1.8.1.7.3,1.1.5,1.3.6,3.2.2,3.2s-.2-.2-.2-.5h0ZM78,122.8c0,0-.1-.3-.1-.4,0-.4-.2-.4-.5,0-.1.2-.3.3-.4.2-.1,0,0-.9.2-1.2,0,0,.3-.8.5-1.5.4-1.6.6-2.2.9-2.2s.2.3.2.8c0,.4,0,.9.1.9.1.3.5,2,.5,2.5,0,.3,0,.5-.2.5s-.2-.1-.2-.3c0-.4-.3-.3-.5.2-.2.4-.3.5-.5.3h0ZM51.5,124.3s0,0-.2,0-.2,0-.2.2,0,.1.2,0,.2-.1.2-.2ZM50.4,124.2c0-.1-.1-.3-.2-.3-.3,0-.5.3-.2.4.3.1.4.1.4-.1h0ZM49.2,123.9c-.2-.2-1.7-.5-1.8-.3,0,0-.2.1-.3,0-.1,0-.2,0,0,0,0,.1.2.2.3.1s.3,0,.3,0c0,.1.3.1.6,0,.3,0,.6,0,.6,0s.2.1.3,0,.1-.2,0-.2h0ZM41.5,123.7c.7,0,1.7,0,2.1,0,.5,0,.8,0,.8-.2s-.8-.2-2.4-.1c-1.3,0-2.4,0-2.4,0,0,.2.2.5.3.5,0,0,.7-.1,1.5-.1ZM109.3,106.4c0-16.3,0-17.3-.2-17.2-.2,0-.4.2-.6.2s-.4.2-.5.3-.3.2-.5.2c-.3,0-2.8,1.2-2.9,1.4,0,0-.2,0-.4,0-.3,0-.6-.6-.5-1,0,0,0-.4,0-.7-.1-.7-.4-.7-1.5-.1-1,.5-1.7.8-2.1.9-.1,0-.6.1-1,.2s-1,.3-1.3.4c-.6.2-.6,0-.8,2.3,0,.3,0,1.5,0,2.8,0,2.3,0,3.5.3,3.5s.2.1.2.2c0,.3,1.6,2.1,2.3,2.8.3.2.7.6.9.9s.5.5.6.5.4.3.7.7.6.7.7.7.4.2.6.5.7.6,1,.7c.6.2.9.6.7,1-.2.4-1.4.9-2.1.9-.6,0-1.5.2-3.1.7-.6.2-1.6.4-2.3.6s-1.4.4-1.6.4c-.4.1-.4.2,0,.6.2.3.5.7.7.9s.5.6.6.8.3.4.4.4.5.4.9.8c.4.5.8.8.9.8s.9.8,1.8,1.8,1.8,1.8,1.9,1.8.2,0,.2.1.2.3.4.6.8.8,1.2,1.3.9.9,1,.9.4.2.7.5c.8.7,1.8,1.6,1.9,1.6,0,0,.2.2.5.4s.4.3.5.3.1-7.9.1-17.4h0ZM46.7,123.6c0,0-.2-.2-.4-.2s-.6,0-.8,0c-.5,0-.9,0-.6.2.3.2,1.9.2,1.9,0h0ZM51.9,123.6c0,0,0-.2-.2-.2s-.1,0,0,.2.1.2.2.2,0,0,0-.2ZM50.2,123.2c0,0-.1-.2-.2-.2s-.2,0-.2.2.1.2.2.2.2,0,.2-.2ZM48.8,122.9c-.2,0-.5,0-.6,0-.2,0-.2.1,0,.2.2,0,.5,0,.6,0,.3,0,.3,0,0-.2ZM41.9,122.7c1,0,1.9,0,1.9-.2s-.2-.1-.7-.1-1,0-1.3-.1c-.3,0-.8,0-1.2,0-.4,0-.9.2-1.1.2s-.4.1-.5.3c0,.2,0,.2.5.1.3,0,1.3-.1,2.3-.2h0ZM44.9,122.6c.2-.1.2-.2-.1-.2-.2,0-.4,0-.4.2,0,.2.2.2.5,0ZM45.9,122.6c0,0-.1-.2-.3-.2s-.3,0-.3.2.1.2.3.2.3,0,.3-.2ZM46.6,122.6c-.1,0-.3,0-.4,0s0,0,.2,0,.3,0,.2,0ZM47.8,122.6c-.1,0-.3,0-.4,0s0,0,.2,0,.3,0,.2,0ZM51.9,122.5c0-.3,0-.3-1.6-.6-.7-.1-1.5-.3-1.9-.3-.4,0-1.1-.2-1.6-.2-.5,0-1.1-.1-1.4-.2s-.9,0-1.4,0-1.1,0-1.2,0c-.4,0-2.4,0-3.1,0-.4,0-.7,0-.8.1s-.2,0-.3,0c-.1,0-.2,0-.2.2,0,.3.5.7.6.5.1-.2.5-.2,2.2-.2.7,0,1.3,0,1.3-.2s.3,0,.6,0,.8.2,1.1.1c.7-.2,2.8-.1,2.9,0,.1,0,.4.1.6.1s.6,0,.7.2c.2.2.4.2.4,0,0-.1.2,0,.6,0,.4.2.6.2.8,0,.2-.1.4-.1.5,0,.2.1.5.3.9.3,0,0,.1,0,.1-.2h0ZM44.3,122.4c0,0,0-.2-.2-.2s-.2,0-.2.2,0,.2.2.2.2,0,.2-.2ZM36.3,121.2c-.3-.4-1.1-1.3-1.9-2.1-1.2-1.2-1.5-1.7-1-1.7s.4.2.6.5.7.6.9.8.4.3.4.4c0,.3,1.2,1.3,1.4,1.1,0,0,0-.3-.3-.5s-.3-.5-.3-.6-.2-.3-.4-.6-.4-.5-.4-.7c0-.4.4-.6.7-.3,0,.1.3.2.5.2s.3.1.3.3,0,.3.2.4.3,0,.5,0c.2,0,.3.2.4.4,0,.3.2.4.4.4.3,0,.4,0,.5.7.1.4.3.8.4.8s.3-.3.5-.7.4-.7.5-.7c.1,0,.1-.1,0-.3-.2-.1-.1-.3.3-.7.6-.6.9-.5,1.1.4,0,.3.2.5.4.6s.4.2.6.4c.3.3.3.3.7,0,.2-.2.4-.6.4-.8,0-.3.2-.5.4-.6.5-.2,1.1-.1,1.1,0s.1.2.2.2.2,0,.1-.4c0-.2-.2-.5-.2-.5-.3-.3-.2-1.1.2-1.2.2,0,.3-.3.4-.7,0-.3,0-.6,0-.7s-.4,0-.8.3c-.4.2-1.2.4-1.9.4-1.7.1-2.2.2-2.7.5-.3.1-.6.3-.7.3s-.3,0-.3.2-.1.2-.3.2-.4.1-.4.2c-.2.3-1,.9-1.1.7-.1-.1.2-1,.4-1s.4-.3.7-.6c.4-.4.8-.6,1.3-.7.8-.1,1.4-.6,1.3-1.2,0-.4-.1-.4-2-.4-1.1,0-2.7,0-3.6-.1-2.1-.1-5-.2-5.2,0,0,0,0,.3,0,.6s0,.6,0,.8c-.2.5-.2,2,0,2.3.1.1.3.2.4.2s.2,0,.2.2.2.3.4.3.3,0,.3.2,0,.2.2.2.4.2.7.5.8.7,1.1.9.8.6,1,.9c.4.4,1.4,1.1,1.6,1.1,0,0-.1-.3-.4-.7h0ZM32.8,117.2c-.4-.2-1.2-1-1.2-1.2s0-.1-.1,0c-.1.1-.5-.4-.5-.7,0-.4.3-.2.6.3.2.3.4.5.6.5.4,0,.7.3.7.6s.1.3.2.3.2.2.2.3c0,.2-.1.2-.6,0h0ZM51.9,121.3c.1-.1.2-.5.2-.7,0-.4,0-.5-.3-.5-.3,0-.3-.2-.3-.5s0-.5.5-.6c.7,0,.8-.3.6-.8-.2-.6-2-1.7-2.8-1.7s-.3,0-.4-.2c0-.2-2.5-.7-2.6-.5,0,0,0,.3,0,.5.2.5.2,1.1-.1,1.8-.1.4-.3.8-.3,1,0,.3,0,.3.2,0,.2-.2.5-.4.8-.5.5-.2.5-.1.8.2.4.6,0,1.2-.4.7-.3-.4-1,0-1,.7,0,.3,0,.4.3.2.3-.2.4-.1.6.1.3.3.3.3,1.1-.6.9-1.1,1.3-1.1,1.7.1.1.4.3,1,.3,1.2,0,.3.2.4.7.5,0,0,.2,0,.3-.2ZM54.8,120.6c.4-.2.9-.5,1.2-.7s.6-.3.7-.3.3-.1.4-.2c.1-.2,1-.7,3.3-2,1.5-.8,1.8-1.1,1.9-1.7,0-.5,0-.5-.3-.6-.5-.1-1.6,0-1.7.3,0,0-.1.2-.3.2s-.3.2-.5.3-.3.3-.4.3c-.2,0-1,.6-2.3,1.7-.5.4-1.3,1-1.7,1.2s-.8.6-1,.7c-.2.3-.5,1.3-.3,1.2,0,0,.4-.2.8-.4h0ZM45.1,119.8c0-.7-.3-.9-.7-.4-.5.7-.4,1,.4.9.3,0,.3-.1.3-.5h0ZM95.2,118.8c0,0,.2,0,.4,0s.5.1.8,0c.5,0,1.2-.1,1.3-.2,0,0,.4,0,.8,0,1.5,0,3.3-.8,2.3-1.1-.2,0-.3-.1-.3-.2,0-.2-.6-.8-1.8-2-1.3-1.2-1.5-1.5-2.5-2.6-.4-.5-.8-.9-.9-.9s-.2,0-.2-.2c0-.3-.8-1-1-.9,0,0,0,.5,0,.9.2.8,0,1.7-.3,2.6-.3.6-.4,3.4-.2,4.3.1.4.2.5.8.4.4,0,.7,0,.7-.2h0ZM95.6,117.8c-.1-.6.4-3,.7-3.3.2-.2.3-.1.6.2.2.2.4.5.4.6s0,.2.1.2.3.4.6.8c.4.8.5,1.4.3,1.4-.2,0-.7-.4-.7-.6,0-.4-.2-.2-.4.3-.2.5-.5.7-.5.3s-.4-.3-.7.2l-.3.5v-.5q-.1,0-.1,0ZM54.2,118.5c0,0,0-.2-.2-.2s-.2,0-.2.2,0,.2.2.2.2,0,.2-.2ZM86.1,118c0,0,.2-.1.4,0,.4.1,2-.4,2.3-.7.1-.1.2-.2.3,0,0,.2,1.6-.6,2.6-1.4,1.1-.9,1.5-1.9,1.6-3.4,0-.8,0-1.2-.2-1.2-.1,0-.2,0-.2.3s0,.4-.1.4-.2.2-.2.4-.2.4-.3.4-.3.2-.5.5c-.3.5-2.5,1.9-3.4,2.2-1.9.6-2.7.7-4.3.6-.9,0-1.9-.2-2.3-.4-.9-.3-1.1-.2-1,.8.1,1,.3,1.3.7,1.4,1.4.3,1.8.4,3.2.4.9,0,1.5,0,1.6-.1h0ZM54.6,117.4c.5-.3.8-.3.8,0s.5.5,1,0c.3-.2.6-.5.6-.5s0-.1.2-.1.5-.2.8-.5.7-.6,1-.8c.8-.6.6-.7-1.8-.6-6.5.2-6.3.1-6.4.4,0,.3.7,1,1,.9,0,0,.1,0,0,0,0,.1,0,.2.3.3.5.1,1,.6,1,.9s.1.1.2,0,.2,0,.2,0c0,.2.3,0,1-.3h0ZM46.5,117.2c0-.2-.1-.4-.2-.5-.2-.2-.2-.1-.3.1,0,.4.2.9.4.8,0,0,.1-.2.1-.4h0ZM71.8,116.3c.8,0,2-.2,2.7-.3s1.7-.2,2.4-.3,1.2-.2,1.2-.3,0,0,.2,0c.1,0,.4.1.6,0,.3,0,.4-.2.4-.5s0-.4-1.6-.3c-2.4.1-7.8.6-9.1.7-.1,0-.2.2-.2.5,0,.4,0,.4.5.4.3,0,.6,0,.7,0s.2,0,.3,0,.9-.1,1.7-.2h0ZM50.3,114.7c.2-.3.4-.7,1-2,.3-.6,0-1-.4-1s-.3-.1-.4-.2c0-.2-.2-.3-1.5-.7-.9-.3-3.7-.7-4.5-.6-2,.2-2.9.6-2.9,1.4,0,.7.7,3.4,1,3.6.3.2.8-.5.7-1-.2-1-.2-1.9,0-2.1.2-.4.2-.3.6,1.5.3,1.6.6,1.7.6.3,0-.6,0-1.1.1-1.1.2-.2.4.1.4.7,0,.3,0,.7.1.9v.4c.1,0,.5-.5.5-.5l.4-.5v.4c.4.7.8.7,1,0,.1-.3.2-.7.2-.8,0-.4.2-.8.3-.8s.1.4.1,1,0,1.1.2,1.2c.1.2.2.2.2,0,0-.2,0-.3.1-.3s.2-.2.3-.4c.2-.5.2-.6.2-.7,0,0,0-.2,0-.3s.1-.2.3-.3c.3-.2.5.2.3.4,0,.1-.2.7-.2,1.2v1c0,0,.4-.2.4-.2.3,0,.6-.3.7-.5h0ZM87.8,114.4c.9-.3,1.8-.7,2-.9s.4-.3.5-.3c.1,0,.8-.6,1.1-1.1.3-.3.3-.4,0-.7-.3-.3-.5-.3-1.5-.2-.6,0-1.7.2-2.3.4s-1.4.3-1.5.3c-5,.8-5.9,1.1-5.5,1.9.1.2.1.4,0,.5-.2.3.6.5,2.3.6.9,0,1.7.1,1.8.2.2.2,1.5-.1,3.1-.7h0ZM70.9,114.5c.8,0,2.6-.2,4-.2s2.7-.1,2.8-.2.5-.1.8-.1c.4,0,.7,0,.9-.3.3-.3.3-.5.2-2.3-.3-5.3-.4-6.4-.6-6.6-.1-.1-.6-.2-1.6,0-.8,0-2.3.2-3.3.2-2.2.1-3,.2-5.5.5-.8,0-.8.3-.4,2.6.1.8.2,2.3.3,4.3,0,2.1.1,2.3.8,2.3.2,0,1,0,1.8-.2h0ZM69.5,112.3c-.1-.2.2-1.4.4-1.4s.1-.2.1-.4.1-.5.2-.7.1-.2,0-.2,0,0,0-.2.2-.3.2-.5.1-.6.2-.9c.2-.6.3-.6.5-.3.1.2.2.6.2.9s.1.9.3,1.3.3.7.3.8.1.3.2.7c.2.6.2.8-.1.8s-.3-.2-.3-.5c-.1-.5-.5-1-.6-.7,0,0-.2.5-.3.9-.2.7-.5.9-.6.2,0-.4,0-.4-.4,0-.2.3-.4.4-.5.2ZM76.5,112c-.2-.2-.1-.7.1-1.4l.2-.6s0-.3.2-.7.2-.9.2-1.1c.2-.8.3-1,.4-1,.3,0,.9,1.4,1,2.2,0,.4.2.9.3,1.2.1.3.2.7.2.9-.1.4-.6.5-.6,0s-.4-1.1-.5-1c0,0-.1.2-.1.4s-.1.4-.2.5c-.2.2-.3.1-.3-.2-.1-.6-.3-.6-.5,0-.1.5-.3.7-.5.6h0ZM75.5,111.3l-.3-.5v.4c-.2.5-.4.5-.7,0l-.2-.5-.2.5c-.1.3-.2.4-.3.3s0-.8.3-2.2c.6-2.2.6-2.3.8-2.1.3.3,1.3,4.6,1.1,4.6s-.2-.2-.4-.5h0ZM65.4,114.2c.1,0,.6-1,.6-1.3s0-.3-1.9-.2c-.8,0-3.9,0-6.8,0h-5.3s0,.4,0,.4c0,.2,0,.6,0,.8v.4c0,0,3.6,0,3.6,0,1.9,0,4.3,0,5.3,0s2.1,0,2.5,0,.8,0,.9.1c.1,0,.4,0,.6,0,.2,0,.4-.1.5,0h0ZM40.9,113.1c.2-.1.1-1.3-.1-1.5,0-.1-1.8-.2-4.2-.2-2.2,0-4.2,0-4.3,0s-.6,0-1,0h-.8s0,.6,0,.6c0,.3,0,.6.2.6s.1.1.1.3c0,.2.3.3,1.3.3,1.6,0,3.5.1,3.6.2.1.1,5.1,0,5.3-.1h0ZM53.9,111.7c.2-.3.2-.6,0-.6s-.3-.2-.4-.3-.3-.3-.4-.3-.2,0-.2-.2c0-.2-1.1-.7-1.2-.6,0,0-.3,0-.5-.2s-.5-.3-.5-.2-.2,0-.3,0c-.8-.7-5.5-1.1-7.1-.6-.4.1-.7.2-.7.1s-.1,0-.2.1-.2.2-.2.1c0-.2-3,1-3.4,1.3-.5.5-.4.6.5.6.8,0,1.7-.3,2.6-.6.2,0,.6-.2.9-.2.9-.1,1-.2,1.1-.4,0-.1.1-.2.1,0,0,.2,1.2.2,1.4,0,0,0,.2,0,.3,0s.5.1.9.1,1.2.2,1.7.3c.5.1,1.2.3,1.6.4.8.1,1.7.6,1.8.9,0,.1.1.2.2.1s.3.1.5.4c.3.4.4.5,1,.4.4,0,.7-.2.8-.3h0ZM62,111.8c.2-.2-.9-2.5-1.5-3.3-.2-.3-.5-.6-.5-.7,0-.2-.6-.9-2-2.4-.8-.9-1.8-1.8-1.8-1.7s-.2,0-.4-.2c-.4-.2-.4-.2-1.4.9-3,3.3-3.7,4.4-2.9,4.4s.6.2,1,.5.8.6.9.6.6.5,1.1,1l.9,1h1.3c.7,0,1.4,0,1.4.1.1.1,3.6,0,3.8-.3h0ZM56.4,109.8c0-.2-.2-.3-.5-.3-.6,0-.7-.2-.5-.5.4-.5.4-.9,0-.9-.2,0-.4,0-.4.1s0,.1-.2.1c-.3,0-.2-.3.2-.5.9-.5,2.8-1.2,2.9-1.1.1,0,0,.3-.2.9-.2.4-.5,1.2-.7,1.7-.4,1-.5,1.1-.7.5h0ZM64.5,111.8c.5-.5.4-1.1-.8-3.8-.3-.8-.6-1.4-.6-1.5,0-.3-4.3-4.8-4.9-5.2-.3-.2-.5-.3-.6-.3s-.3-.2-.6-.5c-.7-.5-2.7-1.6-3.1-1.7-.1,0-.8-.2-1.5-.5-1.2-.5-3.2-1-4-1.1-.3,0-.8-.1-1.1-.2-1.5-.4-4.4-.3-7.8.3l-1.4.2c-.6.1-1.7.4-1.8.6,0,0-.7.3-1.4.5s-1.3.5-1.3.6-.1.2-.2.2c-.4,0-2.5,1.2-2.7,1.5,0,.2-.2.6-.1,1,0,.5.1.6.4.7.2,0,.4,0,.4,0s.3-.3.6-.4.6-.3.6-.3.3-.2.7-.3.8-.3.8-.4.2-.2.4-.1.5,0,.7-.2,1-.5,1.7-.7c.7-.2,1.4-.5,1.5-.6s.3-.1.6-.2.6-.1.9-.2c1.1-.4,3.3-.5,5-.4,2.2.1,2.8.2,3,.3,0,0,.4.1.6,0,.4,0,1.5.1,2,.3.1,0,.3,0,.3,0s.3.1.6.2.6.2.7.2.2,0,.2,0,.2.2.4.2.4.1.5.3.3.2.3.2.2,0,.3.2.3.2.4.2.3,0,.4.2.4.4.7.5.5.3.5.4,0,.1.1,0,.3,0,.5.3.6.6,1,1c.6.5,1.8,1.7,2.7,2.6.2.2.3.4.3.5s0,.3.2.3.3.2.4.5.2.5.2.4c0-.2,1.1,1.6,1.1,1.8s.8,2,1,2.2c.2.3,1,.2,1.3,0h0ZM80.9,111c0-.2-.2-1.4-.2-2.6,0-2.3-.2-3.1-.5-3.2-.2,0-.2.8.1,2.7,0,.6.2,1.6.2,2.1,0,2,0,2,.3,1.7.2-.1.2-.3,0-.7h0ZM82.2,111.4s0-.5-.2-1.1-.2-1.4-.2-1.9c0-.8-.2-1.7-.3-2.8,0,0,0-.3,0-.5s0-.3-.2-.3c-.2,0-.1,1.2.1,4,0,1.1.2,2.1.2,2.2,0,.2.1.3.3.3s.3,0,.3,0h0ZM92,111.3c0-.2-.2-.3-.4-.2-.2,0-.2.1,0,.2.3.2.5.2.5,0ZM83.2,110.7c0-.8-.4-2.7-.6-3.4,0-.4-.1-.7,0-.8.1-.2-.3-1.5-.4-1.4,0,0-.1.2,0,.4s.1.6.2,1,0,1,.1,1.4.1,1.3.2,2.1c.1,1.1.2,1.3.4,1.3s.3,0,.2-.5h0ZM84.5,111c0-.1,0-.3,0-.4s-.2-.2-.2-.4c0-.2-.2-1-.6-2.6-.3-1-.3-.2-.1,1.4.2,1.8.6,2.7.9,1.9ZM37.9,109.8c1-.6,2.2-1.1,2.3-1.1,0,0,.1,0,.1-.2s0-.1.2,0c.5.2.8-.8.3-1.2-.1-.1-.2-.3-.2-.5s-.1-.4-.3-.7-.4-.7-.5-1.1-.3-.7-.3-.7-.1-.2-.1-.4-.3-.9-.6-1.7l-.6-1.4h-.6c-.3.2-.6.3-.6.4s-.1.1-.2,0-.6.1-1.1.4c-2.9,1.5-4.1,2.1-4.5,2.5l-.5.4v2.6c-.1,1.6,0,2.8,0,3l.2.5h2.4c1.6,0,2.4,0,2.5-.2.1-.1.2-.1.2,0,0,.3.5.3,1,0,.2-.1.7-.4,1-.6h0ZM35.6,108.6c0-.3-.3-.8-.4-1.3s-.3-.9-.4-1-.1-.3-.1-.5,0-.4-.1-.5-.2-.4-.2-.7c0-.8.4-.7,1.3.1.4.4.8.8.9.8s.3.2.5.4.4.4.5.4c.2,0,1,.9,1,1.1s0,.1-.2.2-.5-.2-.9-.6-.7-.7-.8-.7c-.2,0-.1.5.1.7.5.5.2,1.4-.3.9-.2-.2-.2-.1-.2.3,0,.7-.2.8-.4.2h0ZM85.3,110c-.2-.2-.2,0-.1.5v.4c.1,0,.2-.4.2-.4,0-.2,0-.4,0-.5ZM86.4,109.9c0-.5-.2-1.1-.2-1.3s-.2-.7-.3-1.1-.3-.9-.3-1.1-.1-.5-.1-.7,0-.4-.2-.4-.1.2,0,.5c0,.3.1.8.2,1.1.1,1.2.6,3.2.8,3.3,0,0,.1.1,0,.1-.1,0,.2.5.3.5s0-.4,0-.9h0ZM87.8,110.3s0-.2,0-.3c.1-.1.1-.2,0-.3,0,0-.2-.3-.2-.5s0-.4-.2-.4-.1-.1,0-.3c0-.2,0-.3,0-.3s-.2-.3-.3-.7c-.3-1.1-.5-1.9-.7-2.1,0,0-.1-.3-.1-.5s0-.4-.2-.4-.2,0-.2.2c0,.3.5,3,.6,3.3.1.4.5,1.6.6,2.3,0,.3.2.4.4.4.2,0,.3-.1.2-.2h0ZM89.1,110.1c0-.2,0-.5-.1-.8s-.2-.6-.2-.8,0-.4-.1-.6c-.3-.6-.5-1.2-.6-1.7,0-.3-.2-.5-.3-.5-.2,0-.2.8,0,1.1,0,.1,0,.2,0,.2,0,0,.2,1,.7,2.2,0,.1.1.3.1.4,0,.3.3.8.4.8s.2-.1.2-.3h0ZM90.4,109.7c0-.2,0-.5,0-.7s-.1-.5-.3-.6c-.3-.3-.5-1-.6-1.9,0-.3-.1-.5-.2-.6s-.1-.2-.1-.5,0-.4-.1-.5-.2-.3-.2-.6c0-.3-.2-.5-.3-.4-.2,0-.2.2,0,.8,0,.4.2.8.3.9s.2.5.2,1,.2.8.2.8.2.3.2.6c.2,1,.7,2.1,1,2.1s.2-.1.2-.4h0ZM92,109.6c0,0-.1-.2-.2-.3s-.2-.3-.1-.4,0-.3-.1-.4-.1-.2,0-.3,0,0-.1-.2-.3-.3-.3-.4c0-.3-.5-1.2-.7-1.4,0,0-.1-.2-.1-.3,0-.7-.7-2.3-.8-2.3s0,.7.1.8c.1,0,.2.3.2.5,0,.5.6,2.9.9,3.5.1.3.3.6.3.7,0,.3.3.5.7.5.2,0,.4-.1.4-.2h0ZM85,108.9c0-.4-.2-.9-.2-1.2-.2-1.3-.3-1.8-.4-1.6-.1.2.2,2.4.5,3.2.3.7.4.4.2-.4ZM93.1,109.4c0-.3-.2-.8-1.4-3.5-.3-.7-.6-1.5-.7-1.8s-.2-.4-.3-.5c-.2,0-.2,0-.1.5,0,.3.2.7.3.8s.1.3.1.4.4,1.1.8,2.2c.6,1.5.9,2,1.1,2,.2,0,.3-.1.3-.3h0ZM94.5,108.6c0-.2-.2-.4-.4-.4-.2,0-.2,0,0-.2.2-.1.2-.2,0-.2-.2,0-.3-.1-.3-.3s-.1-.4-.2-.5-.2-.3-.2-.4,0-.2-.1-.2-.2-.3-.3-.7-.3-.8-.4-1-.3-.5-.4-.7c-.2-.6-.6-.6-.4,0,0,.2.2.4.3.5s.2.3.2.5,0,.5.2.7.3.6.3.9.2.6.2.7.3.5.5,1c.4,1,.8,1.3,1,1,0-.1,0-.4,0-.6ZM95.7,108.8c0-.2,0-.5-.1-.6s-.5-.9-.9-1.8c-1.3-2.8-1.5-3.2-1.7-3.3-.4,0-.4.1.8,2.8.2.5.4,1,.4,1.1s.2.5.4.8.4.7.4.8,0,.3.2.3.1,0,0,.2c0,.2.2.4.4.2,0,0,.1-.3.2-.5h0ZM97.4,108.6c.1-.1-.4-1-.7-1.2-.2-.1-.3-.3-.3-.4s-.1-.3-.3-.5-.3-.5-.3-.7,0-.3-.2-.3-.3-.3-.4-.6-.4-.8-.6-1-.3-.5-.3-.7,0-.3-.2-.4-.2,0-.2,0,0,.2-.1.4c0,.2,0,.3,0,.2.1,0,.2,0,.2.3s0,.5.2.6.2.3.2.4.2.5.4,1,.5,1,.6,1.3.4.7.6,1.1c.4.6.5.7.8.6.2,0,.4-.1.4-.2h0ZM98.6,108.3c-.1,0-.2-.2-.1-.3s0-.2,0-.2-.2-.2-.3-.3-.2-.3-.3-.3-.2,0-.2-.2c0-.1,0-.3-.1-.4s-.4-.6-.7-1.3-.6-1.1-.7-1.1-.1-.1-.1-.3-.1-.4-.2-.6-.2-.3-.1-.3,0-.1-.2-.1c-.3,0-.3,0-.2.5.2.7,1.3,2.8,1.5,3,.1.1.2.3.2.4,0,.3,1.6,2.1,1.7,1.9,0,0,0-.2,0-.2h0ZM50.7,107.7c.1-.2.4-.5.6-.6s.4-.3.4-.3c0-.1,1.3-1.7,2.2-2.7.3-.3.5-.7.5-.8s0-.2.2-.2c.3,0,.2-.6-.1-.9-.2-.2-.4-.2-.6-.2-.3.1-.7.5-.7.6s-.1.2-.3.4-.5.6-.8,1-.6.8-.7.9c-1.7,2.1-1.9,2.7-1.4,3.1.4.3.6.2.9-.3h0ZM100,107.9c0-.1-.2-.5-.4-.8s-.5-.8-.6-1-.3-.5-.4-.5-.3-.4-.5-.8c-.3-.7-.6-1.3-1.4-2.3-.2-.3-.2-.3-.3,0-.1.3,1.1,3.1,1.4,3.4.1,0,.1.2,0,.2s0,.2.2.3c.2.1.5.5.7.9s.4.7.4.6,0,0,.2,0c.3.3.8.3.8,0h0ZM101.7,107.7c.1-.1-.5-1.2-.7-1.3-.1,0-.2-.2-.2-.3s-.3-.5-.6-.8-.6-.7-.6-.9c0-.3-1-1.8-1.3-1.8,0,0-.2-.1-.3-.3-.1-.3-.4-.2-.4.2s.1.4.2.5.2.3.1.4,0,.2,0,.2.2.1.3.3.4.8.8,1.5c.7,1.1.9,1.4,1.4,2.3.2.3.3.3.6.3.2,0,.4-.1.5-.2h0ZM42.8,107c0-.8-.9-3.3-1.1-3.5,0,0-.2-.3-.2-.5s0-.4-.1-.4-.2-.5-.4-1.1c-.4-1.3-.7-1.6-1.5-1.2-.3.1-.6.3-.6.4,0,.3.4,1.4.5,1.4s.2.2.2.5.3.8.5,1.1.5.9.6,1.2.5,1.1.8,1.8c.5.9.7,1.1,1,1.1s.4,0,.3-.7h0ZM45.7,107.4c.3,0,.6,0,.6,0,.1.2,1.5.1,1.9-.1.2-.1.6-.5.9-.9s.9-1.1,1.2-1.5c.9-.9,1.1-1.2,1.7-2.1.3-.4.6-.8.7-.8.2-.2.1-.8-.1-.8s-.3,0-.6-.2-.5-.2-.6-.2c-.6,0-1.5-.3-1.6-.5-.1,0-.2-.1-.3,0s-.5,0-1-.1c-1.3-.3-1.5-.3-1.5,0s0,.5.1.6c.6,1.2,1.2,3,1.2,3.7,0,.7,0,.7-.1.4-.1-.2-.2-.4-.3-.4s-.1-.1-.1-.3,0-.4-.2-.6c-.2-.3-.2-.3-.4,0-.1.2-.2.4-.1.5.1.1-.2.7-.4.7s-.2-.2-.2-.3-.2-.3-.2-.3-.2.2-.2.3-.2.3-.3.3c-.2,0-.1-.9.3-2.5.1-.6.2-1.4.2-1.7,0-.5,0-.7-.4-.8-.5-.2-4.3-.2-4.4,0-.1.2.2,1.7.4,1.7s.1,0,0,.2,0,.3,0,.4.3.7.6,1.4.5,1.3.6,1.5.1.4.1.5.2.6.4,1.1c.3.8.5.9.9,1,.3,0,.5,0,.6,0s.3,0,.6-.1h0ZM102.8,107.1c0-.3-1.1-1.4-1.1-1.1s.2.4.4.6.4.5.4.6,0,.1.2.1.2-.1.1-.3h0ZM83.4,105.4c0-.3-.1-.5-.3-.5-.1,0-.2,0-.1.3,0,.2.1.5.1.5s0,.1.2.1.1-.2.1-.5ZM87.5,104.7c-.1-.4-.3-.7-.3-.7-.2,0-.2,1.3,0,1.5.3.4.5,0,.3-.8ZM84.3,104.7c-.1-.2-.3.4-.2.7,0,.2.1.2.2-.2,0-.2,0-.5,0-.5h0ZM68.2,104.5c0,.1,0,.2.2,0s1.1-.1,2.3-.2,2.5-.1,2.9-.1c.4,0,.7,0,.7.1s0,.1.2,0c.3-.2,2-.4,2-.1,0,.1,0,0,.1,0s.5-.3,1.1-.3c1.1,0,1.4-.3,1.2-.8-.2-.3-.3-.3-2.3-.2-1.2,0-2.9.2-3.8.3s-2.3.2-3.1.2-1.5.1-1.6.2-.2.3-.2.6c0,.4,0,.5.2.3.2-.2.2-.2.2,0h0ZM82.1,103.9c.7,0,1.5-.1,1.6-.2.1,0,.6-.1,1.1-.2s1.3-.2,1.9-.3c.6-.1,1-.1,1.1,0,0,0,.2,0,.3,0s.6-.2,1.1-.2.9,0,1-.2.3-.1.4,0,.3,0,.4-.1.3-.2.5-.1.7,0,1-.1.9-.2,1.2-.3c.3,0,.6-.2.7-.2s.4-.2.7-.2c1.2-.2,1.5-.4,1.5-.8,0-.6-.5-1.1-1-.9l-.8.2c-.2,0-.9.2-1.4.2s-1.7.3-2.4.4-1.7.3-2,.4-.7.2-.8.2-.9.2-1.7.2-1.5.1-1.6.2-.5.1-1,.2-1.1.2-1.4.3-.6.1-.6,0-.5,0-1,.1c-.7.2-1,.3-.9.5,0,1.4,0,1.3.5,1.2.2,0,1-.2,1.8-.2h0ZM71,102.6c1.3,0,2.6-.1,2.8-.2s.9,0,1.6,0c.9,0,1.2,0,1.2-.3s0-.3.2-.3c.2,0,0-2.9-.1-3-.1-.1-.5.5-.5.9s0,.3-.2.2c-.2,0-.2-.5,0-2.6.2-2.1.6-2.3,1.2-.9.2.4.4.7.4.7.2,0,.4.9.4,1.3,0,.2,0,.4.2.4s.2.1.2.2-.1.2-.3.2c-.3,0-.3,0-.3.4s.1.8.2,1.2.3,1,.3,1.2c0,.5.4.6.4.2s0-.3.2-.3c.1,0,.1-.5,0-1.7-.1-.9-.3-2.2-.3-3,0-1.4-.2-2.1-.3-2.8,0-.2,0-.5,0-.6,0-.3-.1-.3-1.4-.2-.8,0-1.4.1-1.5.2s-.8.1-1.7.2c-3.4.2-4.2.3-6.1.6-1.4.2-1.7.4-1.4.8,0,.2.2.5.2.7s0,.5.1.5.1.2.1.2,0,.2.1.4.2.9.3,1.6c.3,2.1.5,3.3.7,3.6.2.2.7.4,1.1.3.1,0,1.3-.1,2.6-.2h0ZM71.9,100.3c0-.2.2-1.2.4-2.2.2-1.3.4-2,.6-2.2.3-.3.3-.3.3,0s.1.4.3.6.3.4.3.5c0,.5.3.8.5.8.1,0,.2,0,.2,0,0,.6.2,1.4.3,2,.2,1,0,.9-.5-.1-.4-1-.7-1-.8-.2,0,.9-.3,1.1-.7,1-.2,0-.4,0-.5,0-.2.3-.4.2-.3-.2h0ZM70.6,100c-.1-.6-.3-.6-.6,0,0,.2-.2.4-.3.4-.1,0-.3-.4-.3-.8s-.3-.6-.4-.2c0,.2-.2.4-.3.4s-.2-.1-.1-.6c.3-1.8.6-3.1.8-3.1s.5.5.8,1.3c.1.3.3.9.5,1.3.3.7.5,1.9.2,1.9s-.2-.2-.2-.5h0ZM82.2,101.4c2.4-.1,3.4-.3,3.4-.5,0-.1.3-.2.8-.2,1.3,0,2.3-.3,2.1-.5-.3-.3-.2-.5.1-.2.3.3,1.1.4,1.1.2,0,0,.3-.1.6-.1s.6,0,.7-.2c.1-.2-.4-2.3-.8-3-.4-.8-.9-2-.9-2.3s-.1-.4-.2-.6-.2-.5-.2-.6-.1-.4-.3-.6-.3-.4-.2-.4c.1-.1-.3-.6-.5-.5,0,0,0,.2,0,.4,0,.2.1.4,0,.4s.2.8.5,1.7.6,1.8.6,2.1.1.5.2.5.1,0,0,.2,0,.2,0,.3.1.2,0,.3,0,.2,0,.2.2,0,.2.2-.1,0-.3,0c-.3-.2-1-1.4-1-1.8,0-.1-.1-.5-.3-.8s-.5-1.2-.7-2c-.5-1.6-.6-1.9-.9-1.7-.1.2,0,1.3.4,2.1,0,.1.1.4.1.5,0,.5,1.1,4.1,1.2,4.2.1.1.3,1,.2,1-.2,0-.7-.6-.7-.8s0-.3-.1-.4-.2-.5-.3-.8-.3-.9-.4-1.2-.3-.8-.4-1.3-.3-1.2-.4-1.7-.3-1-.3-1.1-.1-.2-.2-.2-.1.2,0,.5c.2,1,.6,3.1.7,4.1,0,.6.3,1.3.4,1.7.3.9.3.9,0,.9s-.2-.1-.2-.3c0-.2,0-.3,0-.3-.2,0-.5-1.2-1-3.1-.2-.9-.4-1.8-.5-1.9s-.2-.5-.2-.8-.2-.7-.2-.8c-.1-.2-.2-.2-.3,0,0,.1,0,.3,0,.4s.2.5.2.8c0,.7.3,2.2.5,2.9,0,.2.1.6.2.9s.3,1.1.5,1.8c.4,1.2.4,1.6,0,1.2-.4-.4-2-6.4-2-7.4s-.2-.5-.3-.6l-.3-.3v.6c.2.7.4,1.7.8,3.4.3,1.2.3,1.6.5,3.1.1,1.2-.1,1.2-.4,0-.1-.4-.2-.8-.2-.9-.2-1.3-1.1-5.1-1.4-5.7-.1-.3-.2-.4-.3-.2-.1.1-.1.4,0,1,0,.4.3,1.7.5,2.8s.4,2.2.5,2.6c.2.8.2,2.1,0,1.8-.1-.2-.7-1.8-.7-1.9,0,0,0-.4-.2-.8s-.2-1.1-.3-1.4c-.2-1.5-.6-3.3-.8-3.3s-.1.1,0,.3.1.8.2,1.4.1,1.2.2,1.4c0,.3.3,1.6.5,3.1,0,.5,0,1.1,0,1.3-.1.3-.1.3-.3-.1,0-.3-.2-.6-.2-.7s-.1-.6-.2-1.1-.3-1.2-.3-1.5-.2-1.1-.3-1.6-.2-1-.2-1.1,0-.2-.2-.2-.2.3,0,1.2c.2,2.8.3,5.3.1,5.1-.2-.2-.6-2.8-.7-4.7-.2-2.3-.5-3.6-.8-3.3-.1.2.7,6.9,1.1,8.9.2.9.2.9.7.8.3,0,1.1-.1,1.9-.2h0ZM93,99.5c.2-.1.3-.1.3,0,0,.2.6.2.7,0,0-.1.2-.1.3,0,.2.2,1.1,0,1.1-.3s0-.1-.1,0-.1,0-.1-.2c0-.3-.9-1.9-1.1-1.9s-.2-.2-.4-.5-.5-.9-.9-1.3-.6-.8-.6-1-.1-.2-.2-.2-.2-.1-.2-.3c0-.3-.3-.6-.4-.5-.1.1.2,1,.3.9,0,0,.2.3.3.7s.3,1.1.5,1.4.5,1,.6,1.3.3.7.3.8,0,.1-.2.1-.3-.2-.4-.5-.3-.6-.4-.7-.2-.3-.1-.4,0-.3-.1-.3-.3-.3-.3-.6-.2-.6-.2-.6-.5-.9-1-1.9c-.7-1.5-.9-1.8-1.2-1.8h-.4l.5,1.5c.3.8.5,1.6.5,1.8s0,.3.2.4.2.2.2.4.1.4.2.5.3.5.3.8c0,.3.2.9.4,1.3s.3.8.4,1c.1.3.9.4,1.4.1h0ZM95.8,97.4c0-.1.1-.8,0-1.5s0-1.7.1-2.3c0-.7,0-1,0-1.1-.1,0-.1-.1,0-.1.1,0,.2-.3.2-.8v-.8h-1.1c-.6-.2-1.4-.2-1.9-.2s-.9,0-.9-.1c0-.2-1,0-1.2,0-.1.1.9,2.2,1.3,2.7.2.3.4.4.4.4.2-.4.6-1.3.7-1.7,0-.3.3-.5.5-.5s.4.3.8,1.6c.3.9.5,1.7.5,1.8,0,.4-.3.2-.5-.2-.2-.4-.6-.6-.6-.2,0,.1-.1.2-.3.3-.2,0-.4,0-.4-.2s0-.2-.2-.2c-.4.2,0,.8,1.8,3.2.2.3.3.3.5,0h0ZM69,93.6c.8,0,1.5-.2,1.6-.3,0-.1.2-.1.3,0,0,.2.2.2.3,0,0,0,.8-.2,1.6-.2,1.3,0,3.7-.3,4.5-.5.2,0,.3-.2.3-.4,0-.2-.3-.3-1.8-.3-1,0-2.5,0-3.3.1s-2.6.2-3.7.3c-1.2,0-2.3.2-2.5.2s-.5,0-.7,0c-.4,0-.5.4-.2.8.2.2.4.2,1.2.1.6,0,1.7-.1,2.5-.2h0ZM79.9,92.1c0,0,0,0,0,.2,0,.2,0,.2,0,.1,0-.1,0-.3,0-.3h0ZM65.3,92.2c.2-.1.8-.2,1.5-.2,3.2-.1,5.5-.3,5.6-.4,0,0,.2,0,.3,0,.2.2.9.2,1.1,0,0,0,.7,0,1.3,0s1.2,0,1.2,0,0-.1.1-.1.3,0,.5,0c.4,0,.4,0,.3-.7-.1-.9-.4-2.2-.4-2.3,0,0,0-.1,0-.2s0-.2,0-.2,0-.2,0-.5-.2-1.1-.3-1.9l-.3-1.5h-1.8c-2.2.2-7,.6-8.5.9-1.1.2-1.6.2-2.5.3-.9,0-1,.2-.6,1.2.2.5.5,1.2.6,1.5.4.8,1,2,1.1,2.6.1.5.7,2,.8,2s.2,0,.4-.2h0ZM64.9,89.9c.2-1.2.6-3.5.7-3.7.1-.4.3,0,.6.8.1.4.5,1.3.8,1.8.6,1,.8,1.7.4,1.5-.3,0-.7-1-.6-1.2,0,0,0,0-.2.2s-.3.5-.3.6-.1.3-.3.3-.3,0-.2-.2c.2-.4-.3-.4-.6,0l-.3.4v-.6q0,0,0,0ZM68.9,89.2c0-.7.2-1.3.3-1.4s.2-.5.2-.9.2-.8.3-1c.2-.3.2-.2.3.3.1.6.3,1.1.7,1.5.1.2.2.4.1.5s0,.3.2.4c.1.1.2.4.2.7v.5c0,0-.4-.6-.4-.6-.2-.3-.4-.5-.4-.4,0,.1,0,.2,0,.3.1.2-.3.9-.6.9s-.1,0,0-.1,0-.2-.1-.4-.2-.2-.3-.1,0,.2,0,.3,0,.3,0,.4-.1.3-.2.3c-.2,0-.2-.2,0-1.2h0ZM72.7,89.2c0-.4.2-1.3.3-2,.2-1.4.3-1.7.7-1.4.1.1.2.3.2.3s.2.4.5.7.6.8.8,1.1.3.5.3.5.1.2.2.3c.1.5,0,.4-.5,0-.5-.5-.6-.4-.6.4s-.2.8-.6,0c-.4-.7-.7-.6-.9.2-.2.7-.5.5-.3-.3h0ZM81,92.2c0,0,0-.2-.2-.2s-.2,0-.2.2,0,.2.2.2.2,0,.2-.2ZM86.9,91c1,0,2.1,0,2.4,0,.4,0,.5,0,.5-.4,0-.7-.2-.9-.6-.9-.2,0-.5,0-.5.1s-.2,0-.2,0-.7-.2-1.4-.2-2.7,0-4.5,0-3.4,0-3.7,0c-.6.1-.8.4-.5,1l.2.4h3.1c1.7,0,3.1,0,3.2.1s.2,0,.2,0,1-.1,2-.1h0ZM105.1,90.2c.2-.1.4-.3.4-.3,0-.1,1.8-.8,2.4-.9.2,0,.4-.2.5-.3s.2-.2.3-.2c.3,0,.7-.6.6-.8-.1-.2-.2-.2-.6,0-.2.2-.6.4-.9.4-.7.2-2.6,1.5-2.9,1.9-.3.5-.3.5.3.2h0ZM96.2,89.6c0-.2,0-.4,0-.4s-.3,0-.5,0-1.4-.1-2.7-.2-2.4-.2-2.4-.2-.1,0,0,.3.1.4.2.4.3,0,.4.1c.2,0,.3,0,.4,0,.1-.2.2-.1.3,0,.1.2.6.3,2,.3,1,0,1.9,0,2,.1.2.2.4,0,.4-.4h0ZM99.5,89.7c.2-.2,0-.2-.5,0-1.2.2-1.5.4-.5.4.5,0,.9-.2,1-.3ZM98.9,89c0,0,.4-.2.7-.2.7,0,1.6-.4,1.8-.6.2-.2-1.3,0-1.8.3-.2,0-.8.3-1.2.5l-.8.3h.6c.3,0,.6,0,.7-.1h0ZM84.8,88.9c.8.2,3.1,0,3.7-.3.3-.2.4-.3.3-.7,0-.3-.1-.6-.2-.7s-.1-.3-.1-.5,0-.4-.1-.5-2.1-.1-4.4-.2c-4.1-.1-5-.1-6.1,0h-.5s0,1,0,1c0,.5.2,1.1.4,1.4.3.4.4.4,1.5.4,1.9,0,2.6,0,3.6.1.5,0,1,0,1.1,0s.5,0,.8,0h0ZM105.4,88.4c.4-.3.9-.5.9-.6,0,0,.3-.1.5-.2s.5-.2.6-.3.3-.2.4-.1.1,0,.1,0,.2-.3.5-.4.6-.4.7-.7c.4-.7,0-.8-1.3-.2-1.1.6-1.9,1-2.2,1.3-.1.1-.3.2-.4.2-.3,0-.9,1-.8,1.2.1.2.2.2,1.1-.3h0ZM103,88.3c0-.2-.3-.2-.5,0-.2.2-.1.2.1.1.2,0,.3-.2.3-.2ZM96.2,88.3c.3,0,.4-.3.5-1.5.1-.8.3-2.3.5-3.3.3-1.7.3-2,0-2.1-.3-.2-3.3-.5-4.5-.4-.4,0-1.5,0-2.4,0-1.4-.1-1.7,0-1.7,0,0,.9,0,1.5.1,2.4.1.6.2,1.4.2,1.8,0,.5.1,1,.3,1.3.2.3.3.7.3.8,0,.6.5.8,4.8,1.1.5,0,1.2,0,1.8-.1h0ZM92.3,85.8c-.1-.2-.2-.4-.2-.5.1-.4-.5.2-.7.7,0,.2-.5-.2-.6-.4,0-.2-.1-.2-.4.1-.2.2-.4.3-.4.2-.2-.3,0-1,.3-1.1.1,0,.2-.3.2-.5s0-.4.2-.4.2-.1.2-.3.2-.5.4-.8c.5-.6.7-.4.9.7.2,1,.2,1.1.4,1.4,0,.2,0,.5,0,.8v.5c0,0-.3-.4-.3-.4h0ZM96,85.7c0-.2-.2-.5-.2-.7,0-.5-.2-.4-.4,0-.2.5-.5.5-.6.2,0-.2-.2-.2-.5.2l-.4.5v-.6c.2-.9,1.1-3.2,1.4-3.3.2,0,.5.6.7,1.5,0,.5.2,1.2.3,1.6.1.8,0,1.1-.3.6h0ZM98.6,88c-.2-.2-.5,0-.5.2s.1.1.3,0c.2,0,.3-.1.2-.3ZM100.4,87.5c0,0-.1-.2-.2-.2s-.2,0-.2.2.1.2.2.2.2,0,.2-.2ZM98.5,87.2c0,0,.1-.2.3-.2s.3,0,.4-.1.2-.1.3-.1c.4,0,2-.7,2-.9,0-.3-.3-.4-.4-.2,0,0-.2.1-.2,0s-.1,0-.1,0-.1.2-.2.2-.2,0-.3.2-.3.2-.6.2-.7.1-.8.2-.4,0-.5,0c-.3-.1-.5.4-.2.6s.5.2.5,0h0ZM101.6,87c.3-.3.3-.3.1-.3-.4,0-1.1.3-1.1.5s.5.1,1-.2ZM104.1,87.1c0-.1,0-.1.2,0,.1.2.2.2.2,0,0-.1.4-.4.8-.6,3-1.6,3.9-2.3,3.9-3s0-.4-.2-.4c-.3,0-.8.4-1.1.7-.1.2-.5.4-.8.5-1.5.6-2.6,1.3-3,1.8-.5.7-.6,1.2-.2,1.2s.2,0,.2-.2h0ZM99,85.8c0,0,.1-.1.3-.1.8,0,1.1,0,1.4-.4.2-.2.4-.3.4-.2.1.1,1-.7,1.3-1.2.1-.2.2-.3,0-.3s-.2.2-.3.4c0,.2-.1.3-.2.2,0-.1-.3-.1-.8,0-.9.3-1.1.3-1.1,0s0-.3-.2-.3,0,0,.3,0,.5,0,.5-.2.1-.2.2-.2.2-.1.2-.3,0-.2.2-.2c.3.2,1.3-.4,1.3-.7s.8-.9.9-.6c0,.1.3.1.8,0,.4,0,.7-.1.8,0s.3,0,.5-.1.5-.2.7-.2.3,0,.2,0c0-.1.1-.3,1.1-.6.5-.2-.1-.3-.8-.1-.7.2-1.2-.2-1.3-.9-.1-.6-.2-.7-1.8-.8-1.1,0-2,0-4.1.6l-.8.2-.3,1.2c-.2.7-.3,1.5-.4,1.9s-.2,1.1-.2,1.6-.1,1.1,0,1.4c0,.4.1.4.5.3.3,0,.5-.2.5-.3h0ZM87.5,85.1c.2-.2.2-.2.2,0,0,.1,0,.2.1.2.2,0,.3-.3.2-.9,0-.3-.3-.4-.7-.5-.4,0-.6-.1-.6,0,0,.1-2.8,0-5.6,0-4.5-.3-4.6-.2-4.1.9l.2.6h1.2c1.2,0,4.7.2,4.8.2,0,0,1,0,2.1,0,1.5,0,2.1,0,2.3-.3h0ZM104.7,84.6c0,0,.2-.1.3,0s.2,0,.4-.3.4-.3.4-.3.3,0,.6-.3.6-.4.6-.4.2,0,.3-.2c.9-.8,1.2-1,1.4-1s.2-.1.2-.3,0-.3.2-.3.2,0,.2-.2c0-.2-.8,0-1.4.3-.2.1-.5.2-.6.2s-.3,0-.5.2-.5.3-.8.4-.5.3-.5.3-.1.1-.2.1c-.4,0-1.8,1.2-2.1,1.7-.4.7-.2.9.7.5.4-.2.8-.4.9-.5h0ZM65.7,84.1c.7-.1,1.4-.3,1.6-.2.4,0,4.5-.3,4.5-.4s.6,0,1.4,0c.9,0,1.6-.1,1.8-.3.2-.1.4-.3.4-.3s0-.2-.1-.5c-.2-.4-.2-.4-1.1-.4-.5,0-1.5.1-2.2.1-1.6,0-3.3.3-3.6.4-.1,0-.5.1-.8.1-.3,0-1.1.1-1.7.2s-1.4.2-1.6.2-.4,0-.4,0-.6,0-1.2,0-1.2,0-1.3.2c-.2.2-.1.8.2,1,.3.2,2.7,0,4.1-.3h0ZM84.1,82.9c.2.1.2,0,0-1.9-.1-.9-.3-1.9-.3-2.4s-.2-1.1-.2-1.5c-.1-.7-.4-3-.5-4.1,0-.3,0-.6,0-.6,0-.2-1.1-.3-1.5-.2h-.4c0,.1.4,2.3.4,2.3.2,1.2.4,3,.4,3.9s.1,1.8.2,1.8.1.5.2.9c.1,1.4.8,2.2,1.6,1.8.2,0,.4-.1.4,0h0ZM86.2,83c0,0,.3-.1.6,0,.9.1,1-.1.9-3.1,0-1.5,0-3.3,0-4,.2-2.5.3-3.4.4-3.5,0,0,0-.2-.2-.2-.4-.1-3-.1-3.8,0h-.6c0,0,0,1,0,1,0,.5.2,1.3.3,1.8.2.9.5,3.7.7,5.9.2,1.7.5,2.3,1.2,2.4.1,0,.3,0,.4-.1h0ZM81.2,82.8c.4,0,.4-.4.3-1.5,0-.5-.2-1.5-.3-2.1s-.2-1.4-.2-1.6-.1-.8-.2-1.2-.1-1-.2-1.2-.1-.9-.2-1.6-.1-1.3-.1-1.3c0,0-1.7,0-2.2,0q-.4,0-.4,1.1c0,1.2.5,4,.9,6.5.2,1,.3,1.9.3,2.1s.1.5.2.7c.2.3.4.4,1,.3.4,0,.9,0,1,0h0ZM80.3,82.2c0,0,0-.3,0-.6s0-.5-.2-.5c-.1,0-.1-.3,0-.7v-.6c.1,0,.5.4.5.4.3.3.3.4,0,.6-.3.2-.1.8.2.8s.3.6,0,.7c-.2,0-.3,0-.4,0h0ZM79.7,78.5c0,0-.1-.3-.1-.5,0-.3,0-.4.4-.4.5,0,.6.6.2.8-.2,0-.4.1-.4,0h0ZM79.3,75.8c-.3-.1-.2-.7.1-.8.4-.1.5,0,.4.5,0,.4-.1.5-.5.3ZM78.9,73.4c-.1-.3,0-.5.2-.3,0,0,0,.3,0,.4-.1.2-.2.2-.2,0ZM78.3,82.5c.1-.5-.4-4.8-.6-5.2,0,0-.1-.7-.2-1.3s-.2-1.5-.3-1.9-.2-1-.3-1.3c0-.5,0-.5-.7-.6h-.7c0,0,.1.9.1.9,0,.5.1,1.2.1,1.4s0,.5,0,.6.1.3.1.4.1.7.2,1.2.2,1.3.3,1.9.2,1.2.2,1.4.2.9.2,1.3c0,.9.3,1.2.8,1.4h.5c0,.1.2,0,.2-.2h0ZM61.7,82.3c0-.1.2-.1.3,0s.7,0,1.5,0c.7-.1,1.8-.2,2.5-.3s1.2,0,1.2-.1c0-.1,1.8-.3,4.7-.4.9,0,1.9-.1,2.3-.2h.7c0,0-.1-1-.1-1,0-.8-.8-2.8-1.1-3.2,0,0-.1-.3-.1-.5s-.2-.7-.4-1.2l-.4-.9h-1c-.6.1-2,.3-3.2.4s-2.9.2-3.7.3c-2,.2-3.2.3-5.3.4-.9,0-1.9.1-2.1.2-.5,0-.6.4-.2.8.1.1.3.5.5.8s.4.7.5.8.2.3.2.4.2.4.5.7.5.6.5.7.2.5.4.8.4.6.4.7.1.3.3.5c.3.4,1.3.5,1.5.2h0ZM60.6,80.8c0-.1,0-.6,0-1s.1-.9,0-1,0-.2.1-.2.1-.2,0-.4c-.1-.5.4-.9.7-.6.5.5.8.8.8,1,0,0,.1.3.3.6.3.3.4.6.4,1,0,.5,0,.5-.2.2-.2-.5-.7-.4-.7.1,0,.5-.5.4-.7-.1-.1-.6-.4-.6-.6.1,0,.4-.2.6-.3.4h0ZM64.7,80.5c0-.2.1-.7.2-1.1s.2-1.1.2-1.4c0-.6.4-1.3.8-1.3s.2.1.2.3.1.5.3.7.5.8.7,1.3.5.9.6,1c.1,0,0,.2,0,.4-.3.3-.3.3-.4-.2,0-.2-.2-.4-.2-.4s-.1-.1-.1-.2,0-.2-.2-.2c-.2,0-.2.3-.2.8,0,.9-.3,1-.7.1l-.3-.6-.3.6c-.3.7-.6.8-.6.3h0ZM69.3,79.6c0-.4.1-1.3.2-1.9s.2-1.2.3-1.4c.2-.2.3-.2,1,.5.4.4.8.9.8,1s0,.2.1.2.2.2.2.3.2.3.2.2.1,0,.1.1,0,.4,0,.6c.1.6-.2.5-.5-.2-.3-.8-.7-1.2-.9-1.1-.1,0-.2.2-.1.5.2,1-.4,1.8-.7.9-.1-.4-.4-.5-.4-.1,0,.1,0,.3,0,.4,0,.3-.3.6-.4.6s-.1-.3,0-.8h0ZM76.1,81.1c0,0,0-.2-.2-.2s-.2,0-.2.2,0,.2.2.2.2,0,.2-.2ZM75.9,79.5c0-.7-.2-1.9-.3-2.6-.5-2.4-.7-3.6-.8-3.8,0,0-.1-.3-.1-.5,0-.3-.1-.3-.8-.4-1,0-1.2.2-.6,1.3.3.7.8,1.8,1.3,3.1,0,.2.2.5.3.7s.2.7.3,1.2.3,1,.3,1.1,0,.2,0,.3,0,.2,0,.2.2.2.2.3c.2.8.3.3.2-1h0ZM97.7,79.9c0-.3,0-.5-.2-.5s-.4,0-.6,0-2.2-.1-4.3-.2c-3.8-.1-3.9-.1-3.9.2,0,.2,0,.5.1.7q.1.3.2,0c0-.3,0-.3.2,0,.1.2.5.3.9.3.4,0,.7,0,.7,0s1.6,0,3.5,0h3.4s0-.5,0-.5h0ZM109.2,79.6c0,0,0-.2-.2-.2-.2,0-.5.5-.3.7.1.2.5-.2.5-.5ZM107.5,79.5c.2-.2-.8-.1-1.1,0-.2.1,0,.1.4.1.3,0,.6-.1.7-.2h0ZM97.9,78.4c.3-.2.5-.7.7-1.9.2-.9.5-1.9.7-2.2.3-.6.3-.7,0-1-.1-.2-.3-.3-.5-.2s-.5,0-.8,0c-.4-.1-.6-.1-.7,0,0,0-.2.1-.3,0-.1,0-.6-.1-1.1-.1s-1.1,0-1.4-.1c-.3,0-1.6-.2-2.8-.2s-2.3-.1-2.4-.2c-.3-.1-.5.3-.7,1.5-.1,1.2,0,1.8.3,1.1,0-.3.2-.5.2-.6,0-.2.3,0,.5.2.6,1.1.9,2.1.9,2.5,0,.6-.2.6-.6.1-.2-.2-.3-.3-.3-.2s0,.2-.2.2-.2-.1-.2-.3c0-.3-.1-.3-.4,0-.3.4-.4.8-.2,1.2.2.4.2.4.6.2.3-.1.4-.1.5,0,0,.1.6.2,1.2.1.6,0,1.5,0,2,0s1.7.1,2.7.1c1.5,0,1.9,0,2.2-.3h0ZM97.3,77.8c0,0,0-.4,0-.7,0-.4-.2-.5-.3-.4-.1.1-.2.3-.2.4s0,.3-.2.4c-.2.1-.3.1-.5-.1-.2-.3-.3-.3-.5-.1-.1.1-.3.1-.3,0-.1-.1.3-1.1.4-1.1s.2-.3.2-.7.2-.9.4-1.2.3-.6.2-.6c-.1-.2.1-.2.3.1.3.3.5,1,.5,1.6s0,.5.1.6.2.5.2.8c0,.9,0,1.1-.2,1.1s-.1,0-.1-.1h0ZM93.4,77.1c-.1-.2-.3-.4-.3-.6,0-.2,0-.3-.2,0-.1.1-.3.4-.3.6-.1.3-.1.3-.3,0-.3-.4-.4-.4-.8,0-.2.2-.3.2-.3,0s.1-.4.2-.6.2-.4.1-.4,0-.1,0-.2.1-.3,0-.4,0-.2,0-.2.1-.1,0-.3c0-.2,0-.3.1-.3s.2-.1.2-.3c0-.5.3-.9.6-.8.3.1.5.8.6,1.7,0,.3.1.9.2,1.3.2.8,0,.9-.3.4ZM100.5,78.4c.3,0,.6,0,.7-.2.1-.2.2-.2.2,0s.1.2.4,0c.5-.2,2.9-.2,3.8,0,.7.2,2,.2,3.1,0,.3,0,.5-.2.5-.4.1-2.4.1-4.4,0-4.6-.2-.3-1.3-.5-2.9-.4-.8,0-2.1,0-2.9,0s-1.7,0-2.1.1c-.6.1-.6.1-1,1.2-.2.6-.4,1.3-.4,1.5s0,.5-.2.6-.2.3-.2.6,0,.5-.2.6c-.3.2-.2.9.1,1,.2,0,.3,0,.3,0s.3-.1.6-.1h0ZM32,75.8c.3-.3,1-.8,1.5-1.1.5-.3,1-.8,1.2-1s.4-.4.4-.4c.1,0,1.5-1,1.7-1.2,0,0,.4-.3.8-.5,1.1-.6,1.4-.8,1.5-1,0,0,.3-.2.5-.4s.5-.3.6-.4c.1,0,.6-.3,1-.5s.9-.5,1.1-.7.6-.4.9-.5.6-.3.6-.4.1-.2.3-.2c.4,0,1.7-.4,2.4-.7.6-.3.7-.7.1-1.2-.2-.2-.5-.5-.6-.6-.2-.2-.5-.5-1.6-1.6-.9-.9-.9-1.3.1-1.6,1.1-.3,16.5-.1,16.8.2,0,0,.2,0,.3-.2s.2-.2.1,0c0,.1,0,.2.5.2.3,0,1.1,0,1.7,0,.6,0,1.2,0,1.4,0,.3-.2.3-.2,0-.2-.2,0-.3,0-.2-.1.1-.2-.6-.9-.9-.9s-.3,0-.3.2-.4.3-.8.5c-.5.3-.8.3-.9.2,0-.1-.3-.2-.5-.2s-.4-.1-.4-.3c0-.2-.3-.3-.9-.4-.4,0-.8-.2-.8-.3s-.1-.2-.2-.2-.5-.4-.8-.8c-.5-.8-1.1-1.5-2.1-2.3-.6-.5-.6-.5-.5-2.9,0-.7,0-1.2-.1-1.4-.3-.4-.4-1.5-.1-2.2.3-.6.9-1.1,1.4-.9.5.1.6-.3.6-2.3,0-1.1,0-2.2,0-2.5.3-1,.1-1.1-1.9-.7-.5.1-.7,0-.9-.1-.3-.3-1-2.2-1-2.5s.3-.5.6-.8c.6-.6.6-.6.3-.9-.2-.2-.4-.5-.6-.8s-.3-.5-.4-.5-.2,0-.2-.2-.4-.7-.9-1.2-.9-1.1-.9-1.1-.1-.3-.3-.5-.3-.5-.3-.7c0-.3.2-.3.8-.4.4,0,.8,0,.8,0s.3,0,.6-.1c.3,0,1-.2,1.6-.3.9-.2,1.2-.2,1.7,0,1.1.4,1.3.6,1.3,1.4s0,.7.3.6c1.5-.6,1.8-.7,2.4-.4.9.4,1.3,1.9.7,2.8,0,.1-.5.3-1,.3s-.9.2-.9.3c-.2.3.4,1,.7.9.1,0,.7-.1,1.3-.2,1.1,0,1.5-.2,2.3-.3.9-.2.9-.2.7-.6-.1-.3-.3-.3-.6-.3-.2,0-.5,0-.6-.2-.1-.1-.3-.3-.4-.3-.2,0-.5-.7-.5-1.3s1-1.6,1.6-1.6c.5,0,.6-.1.7-.7.1-.8.8-1.6,1.8-2.2.4-.3.4-.3.2-.4-.2,0-2.3-.2-4.7-.2s-4.5-.1-4.6-.2-.2,0-.3,0-.3.1-.4,0c-.3,0-1.6-.1-10.5-.3-1.9,0-3.6,0-3.7-.1s-1.1,0-2.1,0-2.4,0-3-.1-1.3,0-1.5,0-1.4.1-2.5.1h-2.1s-.2.4-.2.4c-.2.3-.2,2.9-.3,10.8-.1,17.3-.1,33.6,0,33.8.1.2.3.2,1.1-.6h0ZM58.9,74.8c.3-.1.6-.1,3.1-.2,1,0,1.9-.1,2.1-.2s1-.2,1.7-.2c2.4-.2,3.4-.3,3.5-.3.2-.1,1.5-.3,2-.3.4,0,.4,0,.4-.5s0-.5-.5-.6c-.3,0-.9,0-1.4,0s-1.8.2-2.9.3-2.1.2-2.2.3-.2.1-.3,0-.2,0-.3.1c-.1.2-.1.2-.2,0,0-.1,0-.2-.1-.1s-.9.1-1.9.2-1.9.1-2.1.2-1.1.1-2.2.2c-2.1.1-2.7.2-2.8.3,0,0,.1.3.4.6.5.5.5.5,1.9.4.7,0,1.5-.1,1.6-.2h0ZM55.3,73c0,0,.1,0,.3,0s.4,0,.5,0,.3-.1.5,0,.7,0,1.2,0,1.7-.2,2.6-.2,2-.1,2.4-.2,1.3-.1,2-.1,1.4,0,1.4,0,.5,0,1.2-.1c1.5,0,3.8-.3,3.8-.5s-1.3-2.9-1.7-3.5c-.2-.4-.4-.7-.4-.8s-.2-.4-.5-.6-.4-.6-.4-.6-.1-.3-.4-.6-.4-.6-.4-.6,0-.2-.3-.3-.3-.3-.3-.4-.2-.4-.5-.6c-.5-.4-.7-.4-3.1-.5-1.4,0-2.7-.1-2.9-.2-.3,0-8.5-.3-9.9-.3-.1,0-1.4,0-2.8,0-1.6,0-2.6,0-2.6.2s0,.2.2.2.3.2.5.4c.7.9,2.9,3.3,3,3.3.2,0,.7.6.8.9.2.5.6,0,.8-1.1.2-.8.2-1,.5-1,.2,0,.5.5.9,1.5.7,1.8.7,1.7.3,1.8-.2,0-.3,0-.3-.2,0-.3-.8-.7-1-.4-.2.3-.2.6,0,.6s.2.1.2.2c0,.3,1.1,1.4,1.3,1.4s.5.5.9,1.1c.4.6.8,1.2.9,1.3.2.2,1.2.2,1.2,0h0ZM58.9,70.1c0-.1,0-.5.1-.8s.2-.6.2-.6,0-.3.2-.6.2-.6.2-.6,0-.6.1-1.1c.2-1.1.4-1.1.9,0,.2.4.5.9.6,1.1s.2.3.1.3,0,.3.2.6c.3.6.4,1.7.2,1.8,0,0-.2-.2-.3-.6s-.3-.7-.3-.8-.3.3-.5.7c-.4.9-.5.9-.6,0-.1-.7-.4-.7-.7.1-.2.8-.4.9-.5.4h0ZM54.7,69.7c-.1-.2-.2-.6-.2-.8,0-.3,0-.3-.2-.1-.1.1-.2.4-.2.7s0,.5-.2.3c-.1-.1-.1-.5,0-.8.3-2.3.5-3.6.6-3.7.1-.2.7.6.8,1.1,0,.2.2.6.4.8.3.5.8,1.9.8,2.4s-.3.4-.6-.2c-.4-.6-.5-.6-.6,0-.1.7-.3.7-.5.2h0ZM64.1,69.6c0-.2,0-1,0-1.8.2-1.3.4-2,.6-2,.4,0,2.4,3.6,2.2,3.8-.1.2-.6-.2-.6-.6,0-.2-.2-.4-.3-.4s-.3,0-.3-.2-.1,0-.2.3c-.1.5-.3.7-.5.4-.2-.3-.4-.2-.4.3,0,.6-.4.7-.5.2h0ZM103.9,72.2c0,0,.2-.2.3-.1.4,0,.5-1.3.3-3,0-.9-.2-2.2-.2-3s0-1.4-.1-1.4c-.2,0-.8.9-.8,1.1,0,.1-.3.7-.6,1.4s-.6,1.3-.6,1.5-.1.4-.2.5-.2.3-.2.5-.2.6-.4,1.1c-.5,1.1-.5,1.7,0,1.8.7.1,2.4,0,2.5-.2h0ZM99.7,72.2c.4,0,.5-.7.2-.8-.3,0-1.6-.2-5.5-.4-1.3,0-2.9-.2-3.4-.2-.6,0-1.1,0-1.2,0-.2,0-.3.6,0,.8.2.1,2.6.3,3.8.3.5,0,1,0,1,.1s.3,0,.6,0,.6,0,.6,0,.3.2.5.2c.4,0,2.8,0,3.5,0h0ZM107.8,72.1c.8,0,1.1-.2,1.2-.5.1-.2.2-1.6.2-4.3,0-3.6,0-7.4,0-12.6,0-1.1,0-1.9-.1-1.9-.2,0-1,1.6-1,1.9,0,.1-.2.4-.4.6s-.4.4-.4.5-.2.3-.4.5-.4.5-.5.7-.2.3-.3.3-.2.1-.2.3,0,.3-.1.3c-.1,0-.2.3-.7,1.4,0,.2-.2.6-.3.8s-.1.5-.1.6c.1.2.6,8,.6,9.5,0,.3,0,.6.1.6s0,0,0,.2,0,.4,0,.7c.2.6.5.8.9.7.1,0,.7-.1,1.2-.2h0ZM75.6,71.4c1.4,0,4.9,0,7.2,0,.7,0,1.4,0,1.6-.2s.5,0,.8,0c.3,0,.7,0,.7,0s.2,0,.3,0,.5.1.9.1.8,0,.9.1c.2.2.4-.2.2-.6-.1-.2-.3-.2-1.5-.1-2.3.2-2.5.2-2.5,0,0,0-.3,0-.7,0-1.1.2-4,.2-6.1,0-.5,0-1.4,0-2.1-.1s-1.3,0-1.3-.2-.3,0-.4,0-.6.1-.9.1c-.7,0-.7.2-.3.6.2.3.4.3,1.2.2.5,0,1.5,0,2.2,0h0ZM96.5,70.4c.9.1,3.7.1,3.8,0,.2-.2.8-1.5.8-1.9s0-.3.1-.3.3-.5.4-1.1.4-1.3.6-1.6.4-.8.5-1.3c.2-.7.2-.8,0-.9-.1-.1-.9-.2-1.6-.3s-1.6-.1-1.9-.2c-.7,0-2.6-.2-5.1-.3h-2.2c0-.1-.3.5-.3.5-.4.9-.5,1.2-.8,2.3-.2.5-.3,1-.4,1.1-.1.1-.6,1.6-.7,2.1,0,0,0,.3-.1.5,0,.2,0,.5,0,.7.1.3.3.3.8.3.3,0,.6,0,.6,0s.3.1.6.1,1.1,0,1.6.1c.6,0,1.1,0,1.2-.1.2-.1.2-.1.2,0s.1.2.6.1c.3,0,.8-.1,1.1,0h0ZM100.4,68.9c0,0,0-.4,0-.8,0-.8,0-.8-.5-.2-.3.5-.7.6-.6.1,0-.3,0-.3-.4,0-.5.5-.5-.1,0-.7.2-.3.4-.6.5-.8s.2-.3.2-.3.3-.2.4-.5c.3-.8.8-1.4,1.1-1.3.2,0,.2.3,0,1.2,0,.6-.2,1.6-.2,2.2s0,1,0,1.1c0,0-.3,0-.4,0ZM93.3,68.4c0-.1-.2-.3-.4-.4s-.4-.2-.5-.3c-.2-.3-.4-.2-.4,0s-.1.3-.2.3-.3.1-.3.3c0,.2,0,.1,0-.1,0-.2,0-.5.2-.7s.2-.3.2-.3,0-.3.2-.6.3-.5.3-.5.1-.3.3-.4.3-.4.3-.5.2-.3.4-.6c.6-.7.7-.4.6,1.3,0,2.1-.2,2.8-.5,2.8s-.2-.1-.2-.3ZM97.2,68.1c-.2-.5-.6-.6-.4-.2,0,.2,0,.3-.1.3s-.3-.2-.4-.4c-.2-.5-.4-.5-.6-.1-.1.2-.1.2-.1-.2,0-.3.1-.5.2-.5.2,0,.4-.6.4-.9,0,0,0-.2.2-.2s.3-.4.4-.7.3-.6.4-.6.2-.1.2-.3c0-.3,0-.2.1,0,.1.3,0,4,0,4.1,0,0-.1-.1-.3-.4h0ZM82.6,70.1c1.8,0,4-.1,4.7-.1,1.5,0,1.4,0,1.6-1.1.1-.7,0-.7-1.7-.7-7.4.3-9.2.3-13,.3-2.1,0-3.2.1-3.2.4s.2.3.4.6c.2.3.4.4.5.3,0-.2.1-.2.2,0,.1.2.5.2,1.2.2.5,0,1,0,1,0s.5,0,1,.1c1,.2,1.9.2,7.3,0h0ZM81.7,67.8c.4,0,.8,0,.8-.2s.3,0,.6,0,.5.1.6,0,.8-.1,1.6-.2c1.8-.1,2.4-.2,2.3-.5,0,0-.4-.1-.8,0-.4,0-1,0-1.3,0-1.3,0-15,0-15.1.1,0,0,0,.2,0,.3,0,.2.6.2,2.7.2,1.4,0,2.7,0,2.8,0,.1,0,3.9,0,5.9,0h0ZM77.3,66.6c1.2,0,2.3-.2,2.5-.2.3-.2.4-.7.3-1.3,0-.3-.2-.4-.7-.4s-.6,0-.6-.2,0-.1-.2-.1-.4-.1-.7-.4-.6-.5-.8-.6c-.4-.1-1.1-.9-1.1-1.2,0-.4-.4-.4-1.3.2-1.3.8-2.1,1.1-3.7,1.3-1.4.2-2.3,0-2.5-.2-.1-.2-1-.2-1,0s.6.9.8.9.3.3.5.7c.6,1.3.9,1.5,1.8,1.6.5,0,.9,0,1-.1.1-.1.3-.1.4,0,.1.1.6.2,1,.1s1,0,1.3,0,.6,0,.7,0,1.1,0,2.3-.1h0ZM82.8,65.6c0-.4.1-.8.2-.9s.2-.4.2-.7c0-.4,0-.5-.2-.3-.1.1-.2.2-.2.3s0,.5-.1,1c-.2.9-.2,1.3,0,1.3s.1-.3.2-.7h0ZM81.8,65.4c0-.3,0-.5,0-.5s.2-.1.2-.3,0-.2-.2-.2c-.3,0-.4,1.5-.1,1.5s.1-.2,0-.5ZM89.2,65.5c0-.2.1-.6.2-.9.2-.4.2-.6,0-.6-.2,0-.6,1.8-.4,1.8s.1-.1.1-.3h0ZM86.4,65.3c0,0,0-.1-.2,0s-.2.2-.2.3,0,.1.2,0,.2-.2.2-.3ZM90,64.7c0-.1,0,0,0,.3s0,.4,0,.2,0-.4,0-.5ZM85.8,64c0,0-.1,0-.2,0s-.2.4-.2.6c0,.3,0,.3.2,0,.1-.2.2-.5.2-.6ZM86.6,64.3c0-.5-.1-.4-.3.2,0,.3,0,.4,0,.3,0,0,.2-.3.2-.5ZM88.6,63.9c.3-.7.3-.9,0-.5-.2.4-.4,1.1-.3,1.1s.2-.3.3-.6h0ZM80.5,63.2c.3-.1.4-.2.3-.2s0-.2.3-.4c.5-.5,1.2-1.6,1.3-2.2.2-.7-.2-.6-.5.3-.2.4-.5.9-.7,1.1-.4.4-1.5,1.1-2.3,1.3h-.4c0,.1.1-.7.1-.7.1-1,0-1.3-.7-1-.3.1-.4.2-.3.7.1.7.5,1.3.9,1.3s.3,0,.4.2c.1.2.9,0,1.6-.3h0ZM82.4,63c.2-.2.4-.4.5-.4s.3-.1.5-.3c.3-.2.3-.3,0-.7-.2-.6-.6-.6-.9,0-.1.3-.3.6-.4.7s-.3.4-.5.6c-.3.5-.3.5,0,.5s.5-.2.7-.4ZM70,62.9c0,0,.2,0,.2-.1.2-.3,1.9-1,2.1-.9.2,0,.3,0,.5-.3.1-.2.3-.4.4-.4s.2,0,.2-.2.1-.2.2-.2c.3,0,.7-.4.7-.7s.3-.2.4,0c0,.2.2.1.5-.3.2-.3.4-.7.4-.8s.2-.2.6-.1c.3,0,.6,0,.7-.2s.2-.7.3-1.3c0-.9.1-1.2.5-1.6.4-.4.4-.6.3-1.7,0-.9-.1-1.3-.4-1.7-.4-.6-.5-1.2,0-1.9.3-.6.6-.6,1.7-.4h.4c0,0,0-1.6,0-1.6-.1-2.7-.5-4-1.1-4-.3,0-1.4-.1-2.1-.3-.2,0-.8-.1-1.4-.2s-1.1-.1-1.4-.2-.7-.1-1-.2-.7-.1-.7-.2-.7,0-1.4-.1-1.3,0-1.4-.2c-.2-.2-6.7,0-7.1,0-.4.2-.8,1.1-.8,2s0,.9,0,1c.1.1,1.2-.2,1.1-.4s1.1-.3,2.4-.2c.6,0,1,.1,1,.2,0,.1.2.3.4.5.3.3.3.5.2,2.8,0,1.4-.1,2.8-.2,3.2-.3,1.1-.2,2.8.1,3.2.3.4.6.4.8,0,.1-.2.9-.4,1.5-.3.3,0,.8,0,1.1,0q.6,0,.6-.6c0-.8,0-.8-.8-.9-.8-.1-.7-.4.1-.3.8,0,.9.2,1.2.9.2.6.2,1.2-.2,1.6-.2.2-.9.2-1.5,0-.3-.1-.3,0-.2.3,0,.5-.1.7-.3.4-.2-.3-.5-.4-1.4-.2-.9.2-1.6-.1-1.8-.8,0-.3-.1-.8,0-1s.1-.9.2-1.3c0-.7,0-.8-.3-.9-.3,0-.4-.2-.3-.4,0-.3,0-.3-.6-.3-.4,0-.9,0-1.1,0-.4,0-.4,0-.4.6,0,.3,0,.5,0,.4s-.2-.2-.4-.2-.3.1-.3.5c0,.6.4,2.3.7,2.6,0,0,.1.3.1.5s.2.7.4,1.2c.4.9.5,1.1,1.3,2.3.3.4.5.9.5,1s0,.2.2.2.7.4,1.3.8,1.2.8,1.3.8.2,0,.2.2c0,.2.7.3,1.4.2h.6q0-.1,0-.1ZM67.2,61.3c.1-.4.1-.6,0-.9-.2-.5-.1-.5.8-.7.5,0,1-.2,1.2-.2.2,0,.4,0,.4,0,0,.3-.4.7-.7.7s-.2,0-.2.4c.1.6-.2.9-1,1h-.7c0,.1.2-.4.2-.4ZM70.4,59.2c0-.2-.2-.3-.3-.4s-.4,0-.6,0-.4,0-.4,0c0,0-1.2,0-2.6,0-.3,0-.6,0-.7,0-.2,0-.3,0-.4-.2-.1-.4.2-.7.7-.7.2,0,.6,0,.8-.1s.5,0,.8,0c.3.1.5.1.9,0,.3-.1.5-.2.5-.1s0,0,.2,0c.1-.1.3-.1.6,0,.3.1.6.2.7.2.5-.2.7.3.4,1-.3.7-.4.8-.5.3h0ZM69.9,51.6c-.2-.2-.3-.5-.3-.7,0-.4-.3-.5-.6-.3-.4.3-.4.1-.5-1.1,0-1.6.4-2.4,1.3-2.7.9-.3,1.9-.2,2.1.2.1.2.4.3.6.3s.6.2.9.5.6.5.7.5.2,0,.2.2.1.2.2.2.4.2.7.4c.4.3.4.4.2,1-.2.7-.9,1.8-1.1,1.8,0,0,0-.3,0-.7,0-.4,0-.7,0-.7s-.5.2-.9.5c-1.6,1.1-3,1.3-3.6.7h0ZM72.1,51.1c.1,0,.3-.2.4-.2.5,0,1.1-.5,1.1-.7,0-.1-.2-.2-.3-.2s-.2,0-.2-.1-.2-.2-.4-.2c-.8-.2-1-.2-1.1-.3-.3-.3-.5.3-.5,1.2s0,.9.4.9c.2,0,.5-.1.7-.2ZM73.5,48.6c-.2-.2-.3-.3-.4-.3s-.3-.1-.4-.2c-.3-.3-1.1-.6-2-.8-.5,0-.7,0-.9.1-.4.4,0,.9.4.8.2,0,.8,0,1.3.3s1.2.3,1.4.3.5,0,.5.2,0,.1.2,0c.1,0,0-.2-.1-.4h0ZM76.7,47.8c-.2-.2-.5-.4-.6-.4s-.2,0-.2-.2c0-.6-2.8-1.2-5.2-1.2-2.2,0-2,0-1.8-.3,0-.2.6-.4,1.1-.6.8-.2,1.1-.3,2.1,0,.6.1,1.4.3,1.7.3s.8.2,1.1.4.6.4.7.4c.2,0,1.7,1.6,1.7,1.8s-.2.3-.6-.2h0ZM90.8,62.8c0,0-.2,0-.3.1-.2.2-.1.2,0,0,.2,0,.2-.2.2-.2ZM89.2,62.3c0-.3.1-.6.2-.7s0-.2-.2-.2-.2,0-.3.2c0,.8,0,1.1,0,1.1s.2-.2.2-.5ZM104,61.5c0-1.3-.2-1.8-.7-3.1-.4-.9-.6-1.2-1.5-2.2-.3-.4-.6-.7-.6-.8s-.2-.3-.4-.6c-.9-.9-1.3-1.5-1.6-2.2-.5-1.2-.4-3.3.2-3.3s.3-.2.4-.3.4-.3.5-.3.3,0,.3-.2c0-.2,2.2-.4,2.2-.2s.1.1.2,0c.1,0,.2-.2.2-.4-.2-.6-.2-2.2,0-2.3.3-.2.5.2.6,1.5,0,.7.1,1.3.2,1.4s.1.3.1.3,0,.3,0,.4.1.2.3.2.2-.1.2-.4c0-.2-.1-.9-.2-1.5s-.2-1.2-.2-1.2,0-.4,0-.7v-.6c0,0-.6,0-.6,0-.4,0-.9,0-1.1,0-.7,0-4.2-1-4.2-1.3s-.2-.2-.5-.3-.7-.5-.9-.8c-.4-.5-.4-.7-.3-1.3,0-.4.2-.7.3-.8s.2-.2.2-.4.1-.4.3-.6c.2-.2.3-.4.3-.6,0-.2,0-.3,0-.3.2,0,1.6-1.3,1.6-1.5s.1-.2.3-.1c.2,0,.3,0,.3-.1,0-.1.2-.2.4-.2s.6-.1.8-.3c.6-.3,3.3-.3,3.9,0,.2.1.6.2.8.3.5.1,2.1,1.8,2.4,2.6.1.3.2.5.3.5s.1.2.2.3c.1.6.4.4.4-.4,0-1.5,0-6.3,0-6.9,0-.4-.2-.6-.3-.6-.1,0-.3,0-.3,0-.1-.1-2.7-.2-17.6-.3-11,0-10.7,0-10,.7.2.2.3.4.3.5s.2.3.5.4.5.3.5.4,0,.2.1.2.2.2.2.5c0,.3.4.7.8,1.1.5.5.8.8.9,1.4l.2.8.2-.4c.1-.2.4-.6.6-.8s.3-.5.3-.6.3-.5.6-.9.6-.8.6-1,.1-.3.3-.4c.3-.2.3-.2.5.2.1.2.2.4.2.5s0,.6.2,1.3c.3,1.2.5,1.6.7,1.3.2-.3,1.2-.9,1.5-.9s.3,0,.3-.1c0-.2.7,0,1.1.3.2.2.4.3.4.3s.2-.3.4-.8.4-.8.5-.8,0-.1,0-.3,0-.2,0-.2.3,0,.4-.1c.3-.3,2-.7,2.2-.5,0,0,.6,0,1.2-.2,1.6-.5,2-.1,1.3,1.1-.2.3-.5.9-.6,1.2s-.3.7-.3.7-.1.3-.1.4-.1.4-.2.5-.4.7-.6,1.3c-.2.6-.4,1.3-.5,1.5s-.2.6-.2,1c0,.6,0,.7.3.8.7.3.4,1.2-.7,2.9-.5.8-1,1.6-1,1.6s-.1.3-.3.4-.3.4-.3.5-.2.4-.4.6c-.3.3-.4.5-.4,1.3,0,.5,0,1,.2,1.2.1.3.2.4.9.3.7-.1.8,0,1.1.4.8,1.1,1,2.5.5,3.4-.5.8-1.2,1.4-1.8,1.6-.7.2-.8.4-.7,1,0,.4.2.4.9.4,1,0,1.5.4,1.7,1.5.2.6.2.9,0,1.3-.1.3-.2.6-.1.7,0,0,3.1.4,5,.5.6,0,1.5.2,1.9.2s1,.1,1.3.1h.5s0-1.2,0-1.2h0ZM86.3,62.2c.1-.1.3-.1.5,0,.4.2.9.1.9-.1s0-.2.2-.2c.2,0,.8-.7.8-.9,0-.7-.4-1.5-.8-1.7-.6-.3-.7-.3-1,.2-.2.3-.2.6-.2.9,0,.4.2.4.6.3.4,0,.5,0,.5.3,0,.7-1.2,1.1-1.7.6-.1-.2-.4-.3-.5-.3s-.5-.3-.7-.6-.5-.7-.5-.7c-.1,0-.5-.9-.9-1.9-.1-.4-.3-1.2-.4-1.9-.1-1.3-.2-1.6-.4-1.3-.2.2-.2,2.1,0,2.2,0,0,0,.3,0,.5,0,.2,0,.4.1.4s.2.2.2.5.1.8.3,1.1.4.7.5.9c.2.5,1.3,1.5,1.6,1.5s.2,0,.2.2.1.1.2,0,.2,0,.2,0c0,.2.2.2.4,0h0ZM90.3,62c0-.1,0-.3-.2-.3,0,0-.2,0-.2.3s0,.4.2.3c0,0,.2-.2.2-.3ZM76.9,60.9c-.1,0-.3-.1-.3-.1-.2,0-.1.6,0,1.1l.2.5v-.6c.2-.5.2-.7,0-.8ZM80.2,62.1c.2,0,.4-.2.3-.3s0-.2,0-.2.3-.4.5-.8.4-.9.5-1.1c.2-.4.3-1.8.2-1.8s-.5.7-.6,1.4c-.2.7-.9,1.9-1.3,2.1-.2,0-.4.3-.4.5,0,.4.1.4.7.2h0ZM94.1,61.7c.3,0,.5-.3.6-.6.3-.7.3-.9,0-1.6-.2-.6-.3-.6-.9-.6-.6,0-.7,0-.8.4-.2.8,0,1,.6,1,.7,0,.8.2.2.7-.5.4-1.4.4-2.4,0-.8-.3-1-.3-.8,0,.3.5,2.5,1.1,2.9.8,0,0,.3-.2.6-.2h0ZM79.8,60.8c0-.1,0-.3.2-.3.2,0,.7-1.2.6-1.5-.2-.5-.7.3-1.1,1.6,0,.3,0,.4.1.4s.2-.1.2-.3h0ZM63.5,60.4c.3-.3.3-.3,0-.6-.3-.3-.3-.3-.8.3-.3.3-.5.7-.4.7.1.2.9,0,1.2-.4ZM90.6,60.2c-.1-.2-.3-.4-.4-.4-.3-.3-1.2-2.5-1.2-2.9s0-.6-.2-.8c-.2-.5-.2-.5-.4-.1-.3.5-.3.7.4,2.3.8,1.7,1.4,2.5,1.7,2.4.2,0,.2-.1,0-.4h0ZM78.9,60c.2-.4.2-.6,0-.7-.3-.3-.8.4-.7.9.1.5.3.5.6-.2h0ZM85.6,59.9c-.1-.3-.3-.5-.4-.5-.2,0-.7-1.2-.7-1.7s-.1-.4-.3-.5c-.2,0-.2-.1,0-.2s0-.2-.1-.4c-.3-.3-.3-.3-.3.3s.1.7.2.9.2.4.2.5c0,.2.4,1,1,1.6.3.3.6.6.6.6s0-.3-.2-.6h0ZM62.3,59.5c.6-.7.7-1.1.4-1.5-.2-.2-.7,0-.7.1,0,.2-1.1.8-1.7.9-.3,0-.7.2-.8.2-.2.1.2.7.5.7s.4,0,.4.2c.2.4,1.2,0,1.9-.7h0ZM92.1,60.2c0,0-.2-.2-.2-.2s-.1,0-.1.2.1.2.2.2.2,0,.1-.2ZM77.6,59.8c.2-.2.3-.7,0-.7s-.5.5-.5.7.2.1.4,0ZM91.4,59.7c0-.2-.5-1.5-.7-1.7,0,0-.1-.2,0-.2.1-.1-.3-1.6-.6-1.9-.5-.5-.6-.3-.5.6.1.9.5,1.9,1.2,2.8.4.6.6.6.7.3ZM86.3,58.7c0-.2-.1-.3-.2-.3s-.2-.1-.2-.3,0-.3-.1-.3-.2-.2-.2-.4-.1-.3-.2-.3c-.2.1-.2,1.1,0,1.1,0,0,.2.1.2.2s.1.3.3.5c.3.3.5.2.5-.4h0ZM92.3,58.1c-.2-.9-.6-1.3-.9-1.1-.2.1-.2.2,0,.9.1.4.4.9.5,1.1.3.4.3.4.5.1,0-.2,0-.5,0-1ZM61,58.3c.2-.2.3-.4.3-.5s.1-.2.2-.2c.3,0,.5-.5.5-1.1,0-.3,0-.5-.1-.5s-.3.2-.7.6-.9.9-1.3,1.1c-.8.5-.8.9.2.9.4,0,.8-.2.9-.3h0ZM80.7,57.9c.3-.4.5-.7.5-.7s0-.3.2-.5.3-.9.4-1.5.2-1.2.2-1.3c.1-.3-.1-1.3-.3-1.3s-.2.2-.2.4c0,2.3-.4,3.4-1.1,4.1-.7.7-1.3.9-1.6.5-.1-.2-.2-.4-.2-.5,0-.4-.6-.2-.7.1-.1.5.2,1.3.5,1.4.1,0,.6,0,1,.1.7,0,.8,0,1.2-.6h0ZM87.1,58.1c0-.5-.3-.8-.7-.5-.2.1-.2.2,0,.4.2.1.3.3.3.3,0,.2,0,.2.1.2s.2-.2.2-.5ZM104.3,58c0,0,0-.2-.2-.2s-.1,0,0,.2.1.2.2.2,0,0,0-.2ZM59.3,57.5c.1-.1.3-.2.4-.2.3.1,1.4-1,1.4-1.4s0-.2.1-.2c.2,0,.4-.8.4-1.2,0-.2-.3,0-.9.6-.5.5-1.1,1-1.5,1.2-.6.3-1.8.4-1.9,0,0,0-.2-.2-.3-.2-.2,0-.2,0,0,.5.2.4.6.7.9.8,0,0,.2,0,.2.1.2.2,1,.1,1.2-.1h0ZM104.8,57.1c0,0,0,0,0,.2,0,.2,0,.2,0,.1,0-.1,0-.3,0-.3ZM87,56.5c.3,0,.5-.2.5-.3s.2-.2.3-.2c.2,0,.3-.2.3-.4,0-.2,0-.4,0-.4.1,0,0-.6-.2-1.4-.2-.5-.8-.6-1.2-.2-.4.4-.5.8-.2,1.3.2.4.2.4,0,.6-.4.3-.5.3-.6,0,0,0-.3-.2-.5-.2s-.4,0-.3-.2c0,0,0-.2,0-.2s-.4-.3-.7-.6c-.5-.5-.8-1.1-1.2-2.3,0-.2-.2-.6-.3-.8s-.2-1.1-.3-1.7-.2-1.2-.2-1.2-.1,0,0-.1,0-.6,0-1.2c-.2-1.1-.5-1.5-.8-1.1-.1.2-.1.5,0,1.5.1.7.2,1.5.2,1.7s0,.7.1.8.3.9.4,1.6c.3,1.4.8,2.7,1.1,2.7s.1,0,.1.2,0,.3.2.5.4.5.6.7c.4.5.9.9,1.2,1,.4.2,1.3.1,1.9,0h0ZM104.2,56.1c0-.8-.3-1-.3-.2s0,.8.3.8,0-.3,0-.6h0ZM103.2,55.4c-.1-2.2-.3-4.2-.4-4.3,0,0,0-.3,0-.4.1-.2,0-.6,0-1.2-.2-.6-.3.5-.2,1.5,0,.6.1,2,.2,3.2s0,2.2,0,2.2.2.1.3.1c.2,0,.2-.2.2-1.1h0ZM94.2,55.9c.3-.2.5-.3.5-.4s.1,0,.2,0c0,0,.1-.4.1-1s0-1.1-.2-1.2-.1-.2,0-.2,0-.3-.2-.5c-.3-.4-.9-.5-1.4-.2-.3.2-.5,1.2-.2,1.2s1,.8,1,1-.4.5-1,.7c-.2,0-.7,0-1.2-.1-.8-.2-.9-.3-1.2-1.1-.3-.6-.5-1.5-.7-2.9-.4-2.8-.5-3.3-.9-3.3s-.3,0,0,2.9c.3,2.7.6,3.9,1.2,4.5.1.1.3.3.3.4.4.7,2.6.7,3.6.1h0ZM105.9,55c0-.5-.1-1.3-.2-1.7s-.1-.9-.1-1,0-.3-.1-.4-.1-.5-.1-.8,0-.7-.2-.7c-.2,0-.2.2,0,2.1,0,.4.1,1.3.1,1.9s0,1.3.2,1.5c.2.6.4.1.3-.8h0ZM58.8,55.8c.4,0,.8-.3,1-.5s.4-.3.4-.3.2-.1.2-.2.1-.4.2-.5c.3-.3.8-2.2.6-2.3,0,0-.1-.2,0-.4s0-.3,0-.2-.1.2-.2.4c0,.3-.5,1.3-.8,1.7-.2.2-.3.3-.4.1s0-.3.1-.7c.3-.5.6-1.6.5-2,0-.1,0-.2.1-.3s.1-.5,0-1.1,0-2.1,0-3.4c0-1.8,0-2.4-.2-2.4-.4,0-.5.4-.7,1.7-.2,1.5-.1,3.4,0,4.3.2.9,0,2-.6,2.7-.5.7-1.1.6-1.5-.1-.3-.6-.2-.9.3-.7.3,0,.4,0,.4-.3,0-.7-.6-1-1.5-.7-.5.2-.6,1.3-.2,2.2.2.5.4.7.6.7.1,0,.2,0,.1,0s0,.2.2.2.4,0,.4.2.2.1.3,0c.3-.2,1.6-.2,1.6,0,0,.3-.9.5-1.9.4-.9,0-1,0-1,.2,0,.4.3,1.2.6,1.2s.2,0,.2.2c0,.2.2.2,1.1,0h0ZM80.7,55c0,0,0-.1-.1-.1s-.2.2-.1.5c0,.4,0,.4.1.1,0-.2.1-.4.1-.5ZM104.9,54.5c0-.6,0-1.2-.1-1.4s-.1-.6,0-.9,0-.6,0-.8c-.1-.4-.1-.4-.2.1,0,.3,0,.7,0,1s.1,1,.1,1.5c0,1,.1,1.7.3,1.5,0,0,0-.5,0-1.1h0ZM106.7,54.7c0,0,0,0,0,.2,0,.2,0,.2,0,.1,0-.1,0-.3,0-.3h0ZM102.1,53.9c0-.6-.1-1.5-.2-2.1s0-1.3,0-1.6,0-.7,0-.9c-.2-.6-.4,0-.3,1,.2,4.3.3,4.8.5,4.8s.1-.5,0-1.1h0ZM104.1,54.5c0-.3,0-.3-.1-.1,0,.1-.1.3,0,.4.1.2.1.2.2-.2h0ZM85.3,54.5c0-.1-.1-.4-.2-.7-.2-.4-.6-1.6-.7-1.8,0,0,0-.4-.2-.8s-.1-.7-.1-.8c0-.2-.8-4.1-.9-4.2-.3-.3-.6,0-.5.6,0,1.3.4,3.3.6,4.2.5,1.7,1,2.9,1.3,2.9s.5.5.4.7c0,0,0,.1.1.1s.2,0,.2-.2h0ZM91.6,53.7c-.3-.7-.4-1.3-.8-4.1,0-.5-.4-1.2-.5-1.2s0,1.7.2,3.5c.1,1.2.6,2.4.9,2.1,0,0,0,0,0,0s0,.2.2.2,0-.3,0-.6h0ZM103.9,53c0-.6,0-1-.1-.9s-.1-.3-.1-.8c0-.9-.1-1.2-.3-1-.1.1.2,3.4.3,3.7.2.3.2.2.2-.8ZM101.1,52.8s-.1-.5-.1-.9c0-1.7-.2-2.6-.4-2.5,0,0-.1.2,0,.2s0,.9.1,1.9c0,1.8.3,2.9.5,1.9,0-.3,0-.5,0-.6ZM106.6,53.7c0,0,0-.2-.2-.2s-.2,0-.2.2,0,.2.2.2.2,0,.2-.2ZM107.3,52.3c0-.8,0-1.8-.1-2.1s-.1-.8-.2-.9c-.3-.3-.3,0-.1,1.4.1.7.2,1.6.2,2.1,0,.7,0,1.1.3,1.1s0-.7,0-1.5h0ZM80.9,53.3c0,0,0-.2-.2-.3s-.2,0-.2.2,0,.3.2.3.2,0,.2-.2ZM85.9,52.7c0-.3-.1-.7-.2-.9s-.2-.5-.2-.6-.2-.8-.2-1.5-.2-1.7-.3-2.3c-.2-.8-.2-1-.5-1s-.3,0-.3.6c0,.3.2,1,.3,1.6s.2,1.2.2,1.4c0,.6.4,2.4.8,3,.3.6.6.4.4-.3h0ZM79.9,52.7c.3-.2.5-.5.5-.7s0-.2.2-.3c.6-.2.6-2.4.1-4.6,0-.4-.2-.7-.2-.7s0-.3,0-.5-.1-.5-.3-.6c-.5-.2-.6.2-.3,1.3.5,2.2.2,4.2-.6,4.9l-.4.4-.2-.6c-.2-.7-.3-.7-.6-.3-.4.4-.2,1.2.5,1.7.7.5.7.5,1.3,0h0ZM106.5,52.5c0-.3-.2-.7-.3-.8-.1-.1-.1,0,0,.1,0,.2.1.5.1.8s0,.5.1.5.1-.3,0-.6ZM88.6,52.6c0-.5-.4-.6-.4-.1s0,.4.1.4c.2.2.3.1.3-.3ZM92.3,50.8c0-.5-.1-1-.2-1s-.2-.3-.2-.6c0-.3-.2-.4-.3-.4-.2.1,0,2.5.2,3,.1.2.2.4.1.4s0,.2,0,.4c.1.4.1.4.3-.3,0-.4.1-1.1,0-1.6h0ZM86.8,52.1c-.3-.4-.6-3-.7-5,0-.1-.1-.2-.2-.2s-.2.2-.2,1c0,1.7.8,4.7,1.1,4.5,0,0,0-.2,0-.2h0ZM100,50.9c0-.3-.2-.4-.3-.3-.1,0-.1.3,0,.9.2.7.2.7.3.3,0-.3,0-.6,0-.9ZM88.3,50.3c0-1.3,0-1.7-.3-1.7s-.2.2-.1.7c0,.4.1,1.2.2,1.7s.1,1,.2,1,0-.8,0-1.7h0ZM87.4,51.2c-.1-.1-.2-.4-.2-.6s0-.7,0-1.2c0-.8,0-.9-.2-.4-.2.8.1,2.9.4,2.5,0,0,0-.2-.1-.3h0ZM108.2,50.9c0-.4-.2-.8-.3-.9-.1-.1-.2,0,0,.5,0,.4.1.8.1.9s0,.2.2.2.1-.3,0-.7h0ZM65.6,50.7c.1-1.7,0-2-.4-2.2-1.2-.6-2.3-.6-3.2,0-.5.3-.6.4-.5.8.2.5.3.5.7,0,.2-.2.4-.3.6-.3s.3,0,.3-.1c0-.2,2,.2,2.2.4.3.3,0,.7-.3.7-.6,0-.9,1.3-.4,1.4.4,0,1-.3,1-.6h0ZM106.3,50.3c0-.6,0-1.2-.2-1.2-.1,0-.2.9,0,1.7.2,1,.2.8.2-.5h0ZM59.2,50.1c-.3-2.5-.3-4-.1-5.3,0-.6,0-.7-.2-.7s-.5.6-.6,2.8c0,1.2.2,3,.4,3.2,0,0,.1.3.1.5,0,.4.1.6.4.5,0,0,.1-.5,0-1h0ZM62.4,50.5c0-.4,0-.5-.4-.3-.2.1-.3.6-.2.8.2.2.5,0,.5-.5h0ZM109.2,48.7c0-3.8,0-6.3,0-6.5,0-.1-.1-.2-.2-.2s-.1.1,0,.3c0,.2-.1.5-.5.9-.3.3-.6.6-.6.6s-.2,0-.5.1-.5.2-.6.2-.1,0-.1.1-.4.3-.9.5l-.9.4v1.3c0,1.8.2,2.1.7,2,1-.3,1.6-.3,1.8,0,.1.1.3.3.4.3s.2,0,.2.2.1.2.2.2.3.2.3.3.2.3.4.3c.3,0,.3-.1.3-.9h0ZM62.2,47.8c.2-.2.5-.4.6-.3.2,0,1.8.3,2.2.3.2,0,.3,0,.3.2s.1.2.2.2.2-.1.2-.5c0-.4-.2-.5-.8-.7-.7-.2-2.4-.1-2.4.1,0,0-.2.1-.5.1-.7,0-1,.4-.9,1,.1.5,0,.5.9-.3h0ZM88,48c0,0,0,0,0,.2,0,.2,0,.2,0,.1,0-.1,0-.3,0-.3ZM87,48c0-.1-.1-.3-.2-.3s0,.1,0,.3,0,.3.2.3.1-.1,0-.3ZM92.6,47.8c.2-.2.3-.4.3-.5s0-.2.2-.2.2-.1.2-.2.1-.3.2-.4.4-.5.5-.8.4-.8.5-1.1c.4-.8.2-1.1-.7-1.2,0,0-.3,0-.4-.2s-.3-.2-.4-.2-.4-.1-.8-.2-1.6-.4-2.8-.7-2.2-.5-2.3-.5-.2,0-.2-.1,0-.2-.1-.1-1,0-1.9-.3c-2.3-.4-2.5-.5-4-.6-.7,0-1.5-.1-1.8-.2-1.5-.2-2.2-.3-5.1-.3-2.7,0-3.8,0-7.9.3-1.6.1-3.7.3-4.1.4-.7.1-3.6.8-4.7,1.1-.7.2-1.4.3-1.6.3-.3,0-.6.7-.3.8,0,0,.1.2,0,.3,0,.2,0,.2.9.2.6,0,1.1-.1,1.3-.1s.6-.1,1-.2c1.8-.5,9.7-.6,12-.2.5.1,2.8.4,3.6.5,1.2.1,3,.4,3.2.6.1,0,.8.2,1.4.2s1.1.2,1.2.3.5.2,1,.3c1.1.1,2.4.4,2.7.6.1,0,.7.2,1.2.4s.9.3.9.3.1.1.3.1.9.2,1.7.5,1.9.7,2.6.9,1.2.4,1.2.5c.1.2.8.2,1.2-.1h0ZM105.2,44.1c.6-.2,1.1-.5,1.2-.7.2-.3.1-.3-.4-.2-.3,0-.9.1-1.2.2-.9.2-3.4.1-4.6,0-.7-.1-1.2-.1-1.4,0-.2,0-.3.2-.2.2.2,0,1.2.5,2,.9.2.1.3,0,.4,0,.1-.2.2-.2.3,0,.2.4,2.5.3,3.8-.2h0ZM102.9,42.4c-.2-.1-.4-.2-.6-.2-.3,0-.3-.1-.4-.6,0-.7-.3-1-1-1-.7,0-2.3.6-2.6.8-.3.2-.3.3,0,.5.1.1.5.3.7.3s.5,0,.5.2c0,.1.9.2,2.6.3,1,0,1.1,0,.8-.2h0ZM106.4,42.3c.8-.3,1.6-.7,1.2-.7s-.2-.1-.2-.3,0-.3-.2-.3-.2,0-.2.2c0,.1,0,.2-.1,0-.3-.4-1.6-.7-2.4-.5-.3,0-.3.2-.3.7,0,.4,0,.6-.1.6s-.2.2-.3.3c-.2.3-.1.3.7.2.5,0,1.3-.2,1.7-.4h0ZM94.7,41.8c0-.2.1-.5,0-.6s0-.2,0-.2.3-.6.5-1.3.4-1.3.5-1.3.1-.1.1-.3c0-.3.4-1.4.9-2.3.1-.3.2-.5.1-.6,0,0-.7-.1-1.6,0-.8,0-1.6.1-1.7.1s-.4.2-.6.4c-.3.4-.4.5-.3,1.7,0,.7.1,2,0,2.9,0,1.5,0,1.6.3,1.8.7.3,1.2.3,1.4-.1h0ZM93.8,38.4c0-.4-.1-.9-.1-1.1q0-1.2.7-1.3c.3,0,.8-.2,1-.2.3,0,.3,0,.2.2-.1.1-.2.2-.3.2s-.3,0-.5.2c-.4.2-.4.3-.4,1,0,.4,0,1-.2,1.2l-.2.5s-.2-.7-.2-.7ZM92.1,40c0-.5-.1-1.2-.2-1.5-.1-.9-1-1.6-1.7-1.4-1,.2-1.4,1.2-.8,1.9.4.5.5.5.9,0l.3-.3.3.4c.2.2.4.7.4,1s.2.8.3,1.1c.2.4.3.5.4.2,0-.2.1-.7,0-1.3h0ZM90.6,40.9c0-.1,0-.4,0-.6,0-.3,0-.3-.6-.3-.3,0-.6,0-.6.2s-.1,0-.3,0c-.2,0-.3,0-.3.2,0,.3.3.6.6.5.1,0,.3,0,.3,0,.2.3.7.2.8,0ZM57.2,40.3c0-.1.1-.4,0-.6-.2-.6-.2-1.8,0-3,.2-1.1.2-1.2,0-1.5-.4-.4-1.7-.4-2.7,0-.4.1-.9.3-1.3.3-.5,0-.9.5-.5.5s.2,0,.2.2c0,.2,1.4,2.2,1.6,2.2s.1,0,.1.2.3.5.6.9.7.9.7,1c.1.4,1,.3,1.2,0h0ZM55.6,37.7v-1.1c0,0-.8.1-.8.1-.5,0-.9,0-1.1,0-.4-.2.2-.5,1.1-.6.5,0,.9-.2,1-.2.3-.2.4.8.3,1.9,0,.8-.3,1.1-.5,1.2,0,0,0-.5,0-1.1h0ZM99.1,40.3c.3-.2,1.6-.5,2.3-.4.4,0,.8,0,.9,0s.5-.1,1,0,1.3,0,2,0,1.2,0,1.2.2,0,0,.2,0c.3-.2.2-.3-.4-.7-.7-.4-1.5-.6-3-.7-1.3,0-3.2.2-3.5.6,0,.1-.3.2-.4.2s-.3.1-.4.2-.2.2-.3.2-.3.1-.5.4l-.4.4h.6c.3-.2.6-.3.7-.4h0ZM87.9,39.6c-.1-1.3-.7-3.7-1-3.7-.1,0-.3.2-.5.6s-.4.8-.6,1.1-.4.5-.4.6-.2.4-.5.7c-.3.3-.5.7-.5.9,0,.4,0,.4.4.1.2-.2.8-.7,1.2-1.1s.8-.8.8-.8c0,0,.2,1,.2,1.7,0,.4.4,1,.6,1s.1-.4,0-.9h0ZM59.1,39.1c0-.5,0-1,.1-1.1.1-.2.7-.2,1,.1.2.2.3.2.6,0,.3-.2.3-.3.2-.8-.1-.7,0-.7-.9-.8-.6-.1-.7,0-1.2.5-.5.6-.5.6-.5,1.6,0,1,.3,1.6.5,1.5,0,0,.1-.5.2-1ZM83.3,39.5c0,0,0-.1-.2,0-.2.1-.2.3,0,.3s.2,0,.2-.2h0ZM81.6,39.2c0-.2.2-.6.3-1,.1-.5.3-.7.5-.7.3,0,.3,0,.3.5,0,.7.1.8.4.5.4-.5.5-1.2,0-1.6-.5-.5-.7-.4-1.4.2-.6.5-.9,1.4-.8,2.1,0,.4.4.5.6,0h0ZM83.7,39.3c0,0,0-.1-.2,0-.2.1-.2.3,0,.3s.2,0,.2-.2h0ZM67,39.1c.2-.2.2-.8.2-3s0-2.7,0-2.8c0,0-1,.4-1.3.8-.3.3-.1,1.4.3,2.2.4.8.7,2.5.5,2.8-.2.3-.6-.2-.6-.7s0-.6-.2-.6-.2-.1-.2-.3-.2-.6-.5-.9c-.5-.6-1-.6-1.5-.2-.3.3-.2,1.1.2,1.4.3.3.4.2.7-.2.3-.4.4-.4.6-.2.1.2.3.5.3.7,0,.7.3,1.1.9,1.1s.7-.1.8-.3h0ZM77.1,37.4c-.7-.6-1.1-.7-1.4-.3-.3.4-.2,1.1.3,1.3.2.1.3,0,.5-.2.2-.3.3-.3.5-.1.2.1.2.4.2.6,0,.3,0,.4.2.4.2,0,.3,0,.3-.6,0-.6,0-.7-.6-1.2ZM80.2,38.7c0-.3.2-.7.2-.9s.3-.6.6-1.1.6-1,.6-1.1,0-.1.1,0c.3.2,0-.8-.2-1-.1-.1-.3-.3-.3-.4s0-.2-.1-.2-.3-.2-.5-.4c-.7-.8-.7-.7-.8,3.8,0,.8,0,1.5,0,1.6s0,.2,0,.3,0,.1.1.1.2-.3.3-.6h0ZM70.1,37.9c0-.2.1-.3.2-.4.2-.1.4-1.2.2-1.3-.4-.2-.9.1-1.2.9-.3.7-.4,1.1-.2,2.1,0,.2,1-1,1-1.2h0ZM73.9,38.9c0,0-.1-.3-.1-.5s0-.6-.2-.8-.4-.8-.5-1.3-.4-1-.5-1.2-.2-.3,0-.4,0-.1-.2-.1c-.2,0-.3.3-.3.7,0,0,0,.1-.1.1-.1,0-.4.6-.4.9,0,0-.2.5-.4.9-.5.9-.5,1.6-.2,1.6s.2,0,.3-.2,0-.2,0-.3.1-.3.2-.4.2-.3.2-.4.1-.3.3-.5c.3-.3.3-.3.6.4.1.4.3.8.3.9,0,.3.4.6.8.6.2,0,.3,0,.2,0h0ZM79.2,37.4c0-.9,0-2.1,0-2.7,0-1.7,0-1.7-1.1-.9-.6.4-1,1.2-.7,1.4.2,0,.7,1.3.9,2.3.1.6.3,1.2.3,1.3s.2.2.3.2c.2,0,.2-.3.3-1.6h0ZM74.9,38.6c0-.3-.3-.5-.3-.2s.1.5.3.5,0-.1,0-.2h0ZM68.3,38.1c0-.1,0-.3,0-.3s.1-.2,0-.3,0-.3.1-.4.1-.2,0-.2,0-.1,0-.2c.5-.6.6-.7.6-1.2,0-.4,0-.7-.5-1.3-.3-.4-.6-.8-.7-.8-.2,0-.3,1.3-.3,3.4,0,1,0,1.8-.1,1.9s0,0,.3,0c.2-.1.3-.3.3-.4h0ZM100.1,38.2c0-.1,0-.3-.2-.3s-.2.1-.2.3,0,.3.2.3.2-.1.2-.3ZM106.5,38.3c0-.1-.1-.2-.3-.3s-.3-.2-.3-.2-.5-.3-1.1-.5c-.9-.3-1.3-.3-1.9-.2-.4,0-.8.1-1,.2s-.4.1-.6.2-.5.2-.6.2c-.4,0-.5.3-.2.4.1,0,.3,0,.4-.1.1-.2.2-.2.2,0,0,.2.1.2.3,0,.2-.1.3-.1.5,0s.3.2.5,0c.1-.1.3-.1.3,0s.4.1.8.1.8,0,.9.2c0,.1.1.1.1,0,0-.1.2-.1.8,0,1.1.3,1.1.3,1.1,0h0ZM74.9,37.7c0-.6.1-.9.4-1.1.1-.1.3-.3.3-.4s0-.2.2-.2.3-.1.4-.2.3-.2.4-.2c.1,0,.2-.2.2-.7,0-.8.3-1.4.7-1.4s.3-.2.5-.3.4-.3.6-.3c.3,0,.3-.5,0-.6-.2,0-2.1-.1-4.3-.1s-4.1,0-4.3-.2-.4,0-.4,0-.2.1-.4,0c-.6-.1-.6.3,0,1,.3.3.5.7.6.9s.2.3.2.3.1.1.1.2.2.5.4.7q.4.5.7.1c.4-.4,1-1.6,1-2.1s.9-.6.9,0c0,.4.7,2.4.8,2.5,0,0,.2.4.3.9s.3.8.3.8.1.2.1.3c0,.4.3.5.3,0h0ZM68,33s-.1,0-.3,0-.3,0-.3.2.1.1.3,0,.3-.1.3-.2ZM29.1,39.2c0-.3,0-.4,0-.3s0,.3,0,.5,0,0,0-.2ZM29.1,38.4c0-.2,0-.3,0-.2s0,.2,0,.3c0,.1,0,0,0-.1h0ZM29.1,36.3c0-.2,0-.3,0-.2s0,.3,0,.4,0,0,0-.2h0ZM29.1,35.4c0-.2,0-.3,0-.2s0,.2,0,.3c0,.1,0,0,0-.1h0Z"/>
      <path class="cls-2" d="M10,12.2h6.4v11l9.2-11h7.4l-11.9,14.2,13.2,15.8h-8l-9.9-11.8v11.8h-6.4V12.2"/>
      <path class="cls-2" d="M128.7,176.6h-6.4v-11l-9.2,11h-7.4l11.9-14.2-13.2-15.8h8l9.9,11.8v-11.8h6.4v30"/>
      <path class="cls-3" d="M20.4,48.7c-4.1,8.2-7.1,12.5-13.3,17,5.9,4.5,10,9.1,13.5,16.6,3.1-7.1,6.8-12.4,13.4-16.8-6.6-3.3-10.4-8.7-13.5-16.8Z"/>
      <path class="cls-3" d="M118.3,106.3c-4.1,8.2-7.1,12.5-13.3,17,5.9,4.5,10,9.1,13.5,16.6,3.1-7.1,6.8-12.4,13.4-16.8-6.6-3.3-10.4-8.7-13.5-16.8Z"/>
    </g>
  </g>
</svg>