<?xml version="1.0" encoding="UTF-8"?>
<svg xmlns="http://www.w3.org/2000/svg" version="1.1" xmlns:xlink="http://www.w3.org/1999/xlink" viewBox="0 0 140 190">
  <defs>
    <style>
      .cls-1 {
        fill: #fff;
      }

      .cls-2 {
        fill: #9f0000;
      }

      .cls-2, .cls-3 {
        fill-rule: evenodd;
      }

      .cls-4 {
        fill: url(#linear-gradient);
      }
    </style>
    <linearGradient id="linear-gradient" x1="6" y1="136.4" x2="113" y2="70.8" gradientTransform="translate(0 192) scale(1 -1)" gradientUnits="userSpaceOnUse">
      <stop offset="0" stop-color="#ebf0d0"/>
      <stop offset="1" stop-color="#ffffeb"/>
    </linearGradient>
  </defs>
  <!-- Generator: Adobe Illustrator 28.7.2, SVG Export Plug-In . SVG Version: 1.2.0 Build 154)  -->
  <g>
    <g id="Layer_1">
      <path class="cls-1" d="M17,1h103c8.9,0,16,7.1,16,16v153c0,8.9-7.1,16-16,16H17c-8.9,0-16-7.1-16-16V17C1,8.1,8.1,1,17,1Z"/>
      <path class="cls-4" d="M18,2h103c8.9,0,16,7.1,16,16v153c0,8.9-7.1,16-16,16H18c-8.9,0-16-7.1-16-16V18C2,9.1,9.1,2,18,2Z"/>
      <path class="cls-2" d="M103.5,21c-.5,0-1,0-1.4.3-.9.4-1.7,1.1-2,2.2-.2.6-.1,1.4.2,2s.9,1.1,1.8,1.1c.5,0,.8-.2,1.2-.5.2-.2.3-.4.3-.7s-.2-.6-.5-.8l-.5.8c0,0,0,0,0,0s0,0,0,0c0,.1-.5.2-.4.2-.4,0-.7-.2-.8-.6s-.2-.9-.1-1.3c.2-.8.7-1.2,1.4-1.5s1.6-.3,2.2,0c2.1.8,2.8,3.4,1.9,5.4-.8,1.8-2.6,2.8-4.5,2.9l-62.8.4v1l62.6-.4h0c0,0,.1,0,.2,0h.3c2.2-.3,4.2-1.5,5.1-3.5,1.1-2.5.1-5.7-2.6-6.8-.5-.2-1-.3-1.5-.2ZM114.9,24c-.7,0-1.3.2-2,.4-2,.9-3.2,2.9-3.4,5.1h0v.3c0,0,0,.1,0,.2h0l.2,69.1h1l-.2-69.3c0-1.9,1.1-3.7,2.9-4.5,2-.9,4.6-.2,5.4,1.9.3.7.2,1.6,0,2.2s-.7,1.2-1.5,1.4c-.4.1-.9,0-1.3-.1s-.6-.4-.6-.8c0,0,.1-.3.2-.4,0,0,0,0,0,0s-.1,0,0,0l.8-.5c-.2-.3-.4-.5-.8-.5s-.6.2-.7.3c-.3.3-.5.7-.5,1.2,0,.8.5,1.4,1.1,1.8s1.4.4,2,.2c1.1-.3,1.8-1.1,2.2-2,.2-.5.3-.9.3-1.4s0-1-.2-1.5c-.8-2-2.8-3.1-4.8-3ZM29.3,90l.2,69.3c0,1.9-1.1,3.7-2.9,4.5-2,.9-4.6.2-5.4-1.9-.3-.7-.2-1.6,0-2.2s.7-1.2,1.5-1.4c.4-.1.9,0,1.3.1s.6.4.6.8c0,0-.1.3-.2.4,0,0,0,0,0,0s.1,0,0,0l-.8.5c.2.3.4.5.8.5s.6-.2.7-.3c.3-.3.5-.7.5-1.2,0-.8-.5-1.4-1.1-1.8s-1.4-.4-2-.2c-1.1.3-1.8,1.1-2.2,2s-.3.9-.3,1.4,0,1,.2,1.5c1,2.7,4.3,3.7,6.8,2.6,2-.9,3.2-2.9,3.4-5.1h0v-.3c0,0,0-.1,0-.2h0l-.2-69.1h-1ZM100.7,157.3l-62.6.4h0c0,0-.1,0-.2,0h-.3c-2.2.3-4.2,1.5-5.1,3.5-1.1,2.5-.1,5.7,2.6,6.8.5.2,1,.3,1.5.2s1,0,1.4-.3c.9-.4,1.7-1.1,2-2.2.2-.6.1-1.4-.2-2s-.9-1.1-1.8-1.1c-.5,0-.8.2-1.2.5-.2.2-.3.4-.3.7s.2.6.5.8l.5-.8c0,0,0,0,0,0s0,0,0,0c0-.1.5-.2.4-.2.4,0,.7.2.8.6s.2.9.1,1.3c-.2.8-.7,1.2-1.4,1.5s-1.6.3-2.2,0c-2.1-.8-2.8-3.4-1.9-5.4.8-1.8,2.6-2.8,4.5-2.9l62.8-.4v-1Z"/>
      <path d="M30.2,158c-.6-.5-.7-.9-.7-1.8,0-.4,0-1.6,0-2.8s0-4.1,0-6.5,0-4.5,0-4.7c0-.5,0-7.3,0-13.9,0-64.9,0-78.9,0-78.9,0,0,0-.4,0-.8,0-.6,0-9.1,0-9.9,0-2,0-6.6.2-6.9.1-.3.2-.4.5-.3.2,0,.4,0,.4,0s1.6-.1,3.6-.1,3.6,0,3.7-.1.2,0,.2,0c0,.2.9.2,1,0,0,0,.2-.1.3,0,.1,0,.9.1,1.8,0s1.7,0,1.8,0c.6,0,8.4.2,8.9.2,1.2,0,4,0,6.6,0,1.4,0,2.6,0,2.7,0,0,0,.9,0,.9,0,0,.1,3.9.2,7.7.2.4,0,.8,0,.8-.2,0-.1.1-.1.2,0,0,.2.8.2,3.6.2,1.9,0,3.6,0,3.6,0s.2,0,.2,0c.3.1,1.7.1,1.8,0,.1-.1.4-.1.9,0,.4,0,.8.1.9,0s.3,0,.4,0,.3,0,.4,0c.2-.1,4.4-.2,6.3-.2.4,0,.7,0,.7,0,0-.1.7-.1.8,0,0,0,.4,0,.8,0,.4,0,.7,0,.7,0s.1,0,.3,0c.2-.2.3-.2.4,0,.1.2.2.2.4,0,.1-.1.3-.1.3,0,0,0,3.5.1,7.1,0,.4,0,1.7,0,3.1,0s3.2,0,4.1,0c2.4,0,2.7.1,2.7,1.4,0,.5,0,1.7,0,2.6,0,1.8.1,50.1.1,50.2,0,0,0,.9,0,1.8,0,3.7,0,24.9,0,24.9,0,0,0,.5,0,1,0,.6,0,2.8,0,5s0,6.6,0,9.9,0,6.1,0,6.2c0,.7.2,17.4.2,20,0,2,0,3.1-.1,3.1-.2,0-21.7,0-30.2,0-2.3,0-4.3,0-4.4,0s-.3,0-.4,0-.4-.2-.6-.1c-.3,0-8.4.2-23.9.3-3,0-5.4,0-5.4.1s-3.1,0-6.8,0-7.1,0-7.5,0c-.6,0-.7,0-1.1-.3h0ZM31.4,157c.2-.3,2.5-1.5,2.8-1.4.2,0,1.2-.5,1.2-.6s.2-.1.5-.1.5,0,.6-.2.2-.2.3-.2.5-.1.9-.3.8-.3,1-.3.3,0,.3-.2.1-.2.2-.2.2-.1.3-.3c0-.2,0-.2,0,0,0,.2.5.3.5,0s.5-.3,1.2-.4,1.5-.5,2-.8.9-.5,1.1-.5.3-.1.3-.2.2-.2.2-.2.4,0,.7-.2.7-.3.8-.3.2,0,.2-.1.3-.2.7-.3.7-.3.7-.4,0-.1.2-.1.4-.1.7-.3.6-.3.8-.3c.3,0,.4-.5.4-1.4,0-1.3.9-2.9,2-3.4.7-.3,2-.5,2-.2s0,.1.1.1.4.2.7.6c.7.7.9.5.6-.5-.2-.6-.1-.7,0-1.3.2-.3.4-.7.5-.8s.3-.5.4-.9c.2-.6.1-.7-.1-.9-.2-.1-.4-.2-.5-.2-.4,0,.2-2.1.7-2.5,0,0,.3,0,.4,0s.4,0,.6,0,.4,0,.4.2.3.2.5.2c.3,0,.5-.3,1.1-1.7.4-.9.8-1.7.9-1.8.2-.1.5-1.7.4-1.8,0,0-.4,0-.9.2s-.8.3-.8.3-.1,0-.2.1c0,.1-.4.3-2.8,1.1-.6.2-1.2.5-1.4.6s-.5.2-.7.2c-.4,0-.6.4-.4.9,1.4,3,1.5,3.4,1.2,3.9-.2.2-.4.1-.4-.2s-.4-.3-.5.2c0,.4-.2.5-.4.5s-.4.2-.5.5c0,.3-.2.5-.3.4-.2,0-.2-1.1,0-3.1.1-1.7.2-2.4,0-2.5,0,0-.6.1-1.3.4s-1.4.5-1.5.5-.3,0-.3,0-.2,0-.4,0-.5.2-.6.3-.4.3-.6.3-.7.3-1.1.4-.7.3-.8.3-.3,0-.4.2c-.3.2-.9.4-1.2.5-.2,0-.9.4-2.2.9-1.1.5-2.5,1.1-2.7,1.1-.2,0-2.1.8-3.1,1.3-.4.2-.9.4-1.3.5s-.7.2-.8.3-.3.2-.5.3-.9.4-1.6.7-1.3.6-1.5.7l-.4.2v3.7c0,2,0,4.6,0,5.6-.1,2.2,0,2.7.3,2.8.4,0,.7,0,.8-.2h0ZM32.3,151.4c0-.2,0-.9,0-1.8s.1-1.6,0-1.7,0-.3,0-.3c0,0,.1-.5.3-2.1,0-.9.2-1.1.5-1.1s.7.6.7.8.2.3.4.5.4.6.4.8.1.4.2.5.2.2.2.3,0,.3.2.3.1.1,0,.2c0,.1,0,.3.3.5.2.1.4.4.4.6s0,.4.2.5c.1.2,0,.2-.2.2s-.5-.1-.5-.4c-.1-.6-.4-.5-.4,0s-.1.6-.3.8c-.3.4-.3.4-.4,0-.1-.4-.4-.5-.4-.1s-.1.4-.3.6l-.3.4-.2-.5c-.2-.6-.4-.6-.5.2-.1.8-.3,1.1-.5.7h0ZM37.6,148.6c0-.2,0-.8,0-1.2s.2-1.5.2-2.3c.2-2.2.2-2.2.4-2.5.2-.2.3-.2.4,0,.1.1.2.3.2.4s.3.3.6.5.6.3.6.4c0,.2,1.8,2.2,2,2.2s.2.1.1.3,0,.3.1.3c.2,0,.3-.5.4-2.2,0-1,.1-1.7.3-3.1,0-.4.6-.5.9-.2.3.3,1.7,2.6,1.7,2.8s.1.2.2.2c.3.1.3.9,0,1,0,0-.2,0-.2,0s0-.1-.2,0c-.1.1-.2.3-.2.5s-.1.3-.3.3-.3,0-.2-.3c0-.2,0-.3-.2-.3s-.3.1-.3.3,0,.4-.2.4c-.1,0-.1.2,0,.3.2.1.1.1-.1.1-.3,0-.4-.1-.5-.5-.1-.7-.4-.3-.4.6,0,.7-.3,1.5-.5,1.5s-.2-.2-.2-.5c0-.3-.2-.5-.3-.5s-.2,0-.2-.2-.2-.2-.4-.2-.4,0-.4-.2-.1-.2-.2-.2-.3,0-.3-.2,0,.1,0,.6c0,.9-.2,1.6-.5,1.3-.1-.1-.2-.2-.2-.3,0-.2-.4-1.2-.5-1.2s-.1.3-.1.6,0,.7-.1.9c-.1.4-.5.4-.5,0s-.4-.2-.5.3c-.1.8-.6,1.1-.7.4h0ZM47.9,141.2c0-2.8.2-3.3.7-3.3s.8.6.8.7,1.2,1.7,1.3,1.7.1.1.1.3.2.4.3.6c.2.2.3.4.2.6-.1.3-.7.4-.7.1s-.1-.2-.2-.2-.2-.2-.3-.4c0-.2,0,0-.2.5-.2,1.1-.4,1.4-.7,1.2-.1-.1-.2-.4-.2-.6,0-.5-.1-.6-.5-.4-.2.1-.2.4-.2.9,0,.5,0,.7-.1.7s-.1,0,0,.2,0,.2-.1.2c-.2,0-.2-.4-.2-2.8h0ZM37.2,157.1c.4,0,.8-.1,1.2-.4.3-.2.7-.4.7-.4s.4-.1.7-.3.8-.4,1.1-.5.7-.3.9-.3.6-.2.9-.3.6-.3.5-.3c0-.1.2-.2.8-.2.1,0,.3,0,.4-.1s.2-.2.4-.2.3,0,.3-.2.3-.2.6-.2.6,0,.6-.2.1-.2.3-.2.4,0,.4-.1.5-.2.8-.4c.4-.1.8-.3.9-.4s.4-.3.8-.3c.8-.1,1.5-.4,1.5-.6s.2-.1.4-.1c.6,0,.8-.2.7-.7,0-.2-.2-.4-.3-.4s-.2,0-.2-.2-.1-.2-.2-.2-.2-.1-.2-.2c0-.3,0-.3-.9,0-.4.2-.9.4-1.1.5s-.6.3-.9.4-.5.2-.7.2-.5.1-.8.3c-.9.5-2.1,1-2.3,1s-.5.1-.8.3-.9.4-1.1.4-1,.4-1.8.8-1.5.7-1.5.7-.3,0-.6.2-.5.2-.5.2c-.6.1-2,.7-2.5,1-.4.2-.8.4-.9.4-.2,0-.9.6-.9.7s.7,0,1.6,0,1.8,0,2.2,0h0ZM43.3,157.1c0,0,.2,0,.5,0,.3,0,.6.1.7,0,.3-.1,6.9-.2,7,0,.1.2,3.5,0,3.7-.2.1-.1.2-.1.2,0s.4.2,1,.2c1.5,0,4.4,0,5.9,0,2.2,0,2.7,0,5.5,0,1.5,0,2.7-.1,2.8-.2s.2,0,.3,0c.2.2.7.2,1,0,.1,0,.2,0,.2,0s.2.2.4.2.4,0,.4,0,.4,0,.9,0,1,0,1,0,.2,0,.2,0c0,.2.6,0,.7-.2,0,0,.4,0,.8,0,.7.1,9.5.3,9.5.2s8-.3,11.2-.2c1.6,0,4.9,0,5-.2,0,0,0-.1-.1-.1s-.2-.1-.2-.3c0-.3-.5-1.5-.8-1.5,0,0,0,0,0-.1,0-.2-.5-.9-.7-.9s-.2-.2-.3-.4c-.1-.4-1.2-2.2-1.4-2.2,0,0-.1-.1-.1-.2,0-.2-.3-.6-1.2-1.6-.3-.4-.6-.8-.6-.9s0-.2-.2-.2-.2,0-.2-.2-.3-.5-.6-.9-.6-.8-.6-.8c0-.2-1.1-1.6-1.3-1.7,0,0-.1-.2-.1-.3s-.1-.3-.2-.3-.2-.2-.2-.3-.1-.3-.3-.4-.3-.3-.3-.4-.1-.3-.2-.3-.2-.2-.2-.4,0-.3-.2-.3-.3-.2-.4-.5-.5-.7-.8-1.1c-.8-.9-1-1.1-.8-1.1s0-.1-.2-.2-.3-.3-.3-.4,0-.3,0-.3-.1-.2-.3-.2-.2,0-.2-.2c0-.1,0-.3-.2-.3-.2,0-.3-.2-.3-.2s-.2-.3-.4-.6-.4-.5-.4-.6c0-.2-.7-.2-1.2,0-.6.4-2.6,1.7-2.6,1.8,0,0-.1.1-.3.1s-.3.1-.5.3-.5.4-.7.4-.7.4-1,.7-.7.6-.9.7c-.3,0-.4.2-.3.8.2,1.3.2,2.2,0,3-.1.5-.2.9-.1.9.2,0-.7,1.7-1.2,2.3-.7.9-2.1,2.3-2.3,2.3,0,0-.2,0-.4.2-.6.5-.7.6-1.2.7-.3,0-.8.2-1.1.4s-1.2.4-1.9.6-1.4.3-1.5.4c-.2.3-1.2.2-1.3,0,0-.1-.2-.2-.4-.2s-.5-.1-.7-.2-.5-.2-.6-.2-.3-.2-.6-.4-.5-.4-.6-.4-.4-.3-.7-.7-.5-.7-.6-.7-.1-.1,0-.3c0-.2,0-.3-.2-.3-.2,0-.5.3-.9.8-.4.5-.7.9-.7,1,0,.3-2.2,2.4-2.8,2.7-.4.2-1.2.5-1.8.6-1.1.2-1.2.2-2.3-.4-.2,0-.6-.2-1.1-.2-.4,0-.9-.2-1-.3-.5-.5-1.5-.5-2.2,0-.2.2-.5.3-.6.3s-.4,0-.6.2-.8.3-1.2.5-.9.4-.9.4-.3.1-.4.1-.7.2-1.1.4c-1.1.6-1.3.6-2.4,1-.5.2-1,.3-1.1.4s-.5.2-.9.3-.8.3-.9.4-.3.1-.4,0-.2,0-.2,0-.2.2-.3.2-.4.1-.4.2c0,.1.3.2.9.2.5,0,1,0,1.1.1.1.1.7,0,.7,0h0ZM105.8,157c-.1-.1.3-.4,1-.7.2,0,.4-.3.4-.5,0-.2.2-.3.4-.3s.3,0,.3-.2.1-.3.3-.4.3-.3.3-.4,0-.2.2-.2.2,0,.1-.2,0-.2.2-.3c.2,0,.4-.2.4-.4s.1-.5.2-.7v-.4c.1,0-.5.5-.5.5-.3.3-.7.6-.8.7s-.2.2-.2.1c0-.1-.7.4-1.3,1.1-.2.2-.4.3-.4.3s-.2.2-.4.3-.4.4-.6.5c-.3.1-.3.2-.3.5.1.4.3.6.6.6,0,0,0,0,0-.1h0ZM107.2,156.9c.1,0,.3,0,.5-.2s.4-.4.6-.4c.4-.1,1.2-.9.9-.9s-.2,0-.2-.2.1-.2.3-.2.3,0,.3-.2c0-.3-.4-.2-.8.2-.2.2-.5.4-.6.4s-.2,0-.2.2,0,.2-.2.2c-.2,0-.5.4-.4.7,0,0-.1.1-.3.1s-.3.1-.3.3c0,.2,0,.2,0,0s.2-.2.3-.1h0ZM109.4,156.6c.1-.2.2-.4.2-.4,0,0-.7.5-.7.7s.3.1.5-.2ZM104.6,156.2c.2-.3.4-.6.5-.6s.6-.5,1.2-1.1,1.2-1.1,1.3-1.1.2,0,.2-.2c0-.2.7-1,.9-1,.2,0,1-1.2.8-1.4,0,0-.4.1-.8.4s-.8.4-.8.4-.1,0-.1.2-.5.7-1.2,1.3c-.7.5-1.2,1.1-1.1,1.2,0,.1,0,.2-.2.2s-.4.2-.6.4-.5.5-.6.6c-.4.2-.5.7-.2.7s.2.1.2.2c0,.4.3.3.7-.3h0ZM104.4,154.6c.4-.4,1.1-1,1.5-1.4s.8-.7.9-.7c.2,0,1.1-1,1.1-1.2,0,0,0-.1.1-.1s.2-.1.2-.2.2-.3.3-.4c.4-.2.6-1,.2-1s-.5.2-.8.5-1,.9-1.4,1.3-1.4,1.2-2,1.9-1.2,1.1-1.3,1.1c-.2,0-.1.8,0,1.2.2.3.2.3.3,0,0-.1.5-.6.9-.9h0ZM103.5,153.1c0-.2.2-.4.5-.4.4-.2.9-.6.9-.7s1.5-1.8,1.7-1.8.2-.1.3-.3.3-.3.5-.3c.3,0,.3,0,.4-.8,0-.4,0-.5-.2-.5-.1,0-.3,0-.4,0s-.2,0-.4.2-.4.3-.5.4-.3.3-.3.5-.1.3-.3.4-.3.1-.3.2-.2.2-.5.3-.5.3-.5.5,0,.2-.2.2c-.2,0-.3,0-1.6,1.4-1,1-1.1,1.3-.6,1.5.3.1.4,0,.8-.2.2-.2.5-.5.5-.6ZM101.5,152.5c0,0,.2-.2.5-.3s.6-.4.8-.7.4-.5.6-.6.5-.3.7-.5c.7-.7,1.5-1.3,1.7-1.3s0,0,0-.2c0-.1,0-.1,0,0,.2.2.7-.2.7-.6s0-.3.2-.4c.1,0,.1-.2,0-.5v-.5c-.1,0-.9.8-.9.8-.4.5-.8.8-.9.8s-.3.2-.5.5-1,1-1.7,1.6-1.3,1.2-1.4,1.3c-.2.2-.1.7,0,.7s.2,0,.2-.1h0ZM59.8,151.2c.1-.2.3-.3.4-.3.2,0,.9-.9.8-1,0,0,.1-.2.3-.3s.4-.2.3-.3.1-.3.4-.5c.5-.5.7-1.2.3-1.3-.2,0-.3,0-.4.4,0,.2-.2.4-.3.4s-.2.2-.3.5-.5.9-.9,1.3-.7.8-.7.8-.2.3-.4.5l-.4.4h.4c.2-.2.5-.4.7-.6h0ZM60.9,151.3c0-.3.2-.3.4-.2.2,0,.3,0,.3,0s.3-.4.6-.8.6-.7.6-.8.1-.2.3-.2c.3,0,.7-1.2.6-1.3-.1-.1-.7,0-.7.2,0,.3-.9,1.5-1.6,2.4-.7.8-.9,1.1-.6,1.1s.2-.2.2-.3h0ZM101.1,151.2c.3-.3.4-.6.3-.7,0-.1,0-.1.2,0,.2.2.3.2.5,0,.1-.2.2-.4.2-.5,0-.1.1-.2.3,0,.2,0,.3,0,.2,0,0-.1,0-.2,0-.2s.2-.2.2-.4c0-.2,0-.3,0-.1,0,.2.2.1.7-.3,1.7-1.5,1.9-1.9,1.8-2.2,0-.2,0-.3,0-.2,0,0,.1,0,0-.1-.2-.7-1.2,0-3.4,2.3-.6.7-1.4,1.5-1.7,1.8-.6.6-.8,1-.4,1s.1,0,0,.2c-.2.4.2.1.6-.3h0ZM57.5,151.3c0-.1.1-.1.2,0s.2,0,.2,0,.1-.2.2-.2c.4,0,2.5-2.4,2.5-2.9s.1-.3.3-.6c.3-.4.2-.8-.2-.6-.2.1-1,1.1-1.4,1.9-.1.2-.7.9-1.2,1.5-1.1,1.1-1.1,1.2-.9,1.2s.2,0,.2-.2h0ZM56.1,150.8c0,0,.2-.2.4-.2.2,0,.4-.2.5-.3,0-.2.2-.3.3-.2.1,0,.3,0,.3-.1s.3-.3.5-.5.5-.5.7-.8.4-.8.7-1c.4-.5.6-1.2.3-1.2s-.3.2-.4.5c-.6,1-1.8,2.1-3.4,3.2l-.3.2s0,.1.2.2c.2.1.1.1-.2,0-.2,0-.5,0-.7.2-.3.2-.3.3.4.3.4,0,.8,0,.8-.2h0ZM71.4,150.2c0-.1,0-.1.1,0,.1,0,.3,0,.4-.2.1-.2.2-.2.2-.2,0,.3.9-.5,1-.8,0-.2.2-.5.4-.7s.3-.5.3-.7,0-.3.1-.3c.2,0,.6-1.9.5-2.2-.2-.4-.5,0-.8.8-.3,1-.4,1.3-1.1,2.2-.3.4-.5.7-.5.8s-.3.4-.6.7c-.5.6-.7,1.1-.4,1,.1,0,.2-.2.2-.3ZM100.8,149.7c.2-.3.8-.9,1.2-1.4s.8-.9.8-1,.1-.2.3-.2.5-.2.7-.5.5-.5.6-.5c.2,0,.4-.6.4-.9,0-.7-.7-.3-2.9,2-.4.4-.8.7-.9.8s-.3.2-.2.2-.2.4-.6.7c-.8.7-1,1.1-.6,1.4.3.3.7,0,1.2-.6h0ZM54.9,150c.6-.2,1.6-.9,2.2-1.4.8-.7,1.4-1.4,1.4-1.6s0-.2.2-.3.2-.2.1-.4c0-.3-.1-.3-.5.2-.2.3-.6.7-.9,1s-.5.6-.5.7,0,.1-.1,0c-.2-.1-.5.3-.4.5,0,0,0,.1,0,0s-.2,0-.2,0c0,0-.2,0-.3,0-.5.1-1.1.5-1,.7,0,0,0,0-.3,0-.4,0-.4,0-.4.2,0,.4,0,.4.9.1h0ZM52.9,149.6c0,0,0,0,0,.2,0,.2,0,.2,0,0,0-.1,0-.3,0-.3ZM69.3,149.9c0-.1.8-.5,1.1-.5s.2-.1.2-.3,0-.2.1-.2c.4.2,2.2-2.2,2.2-3s-.7,0-1.3.9c-.8,1.1-1.7,1.8-2.5,2-.7.2-1.7,0-1.6-.3,0-.1,0-.2-.1-.2s-.2-.3-.3-.6c-.1-.5-.1-.7,0-1.2.3-.7.4-.7.8-.3.2.3.3.4.3.7s.2.2.4.2c1,.2,1.4-1.2.6-2-.3-.3-.6-.4-1.3-.4s-.9,0-1.3.5c-.4.4-.5.7-.6,2.1,0,.3.1.8.5,1.7,0,.1.4.4.7.5s.5.3.4.3,0,0,.2.2c.5.2,1.4.2,1.4,0h0ZM74.3,149.4c0,0,.1-.1.1-.3s.1-.3.2-.3c.2,0,.5-.7.5-1.1,0,0,.2-.4.3-.9.3-.8.5-2.8.2-2.8s-.2.4-.3.9-.3,1.2-.3,1.5c-.2.7-1.1,2.7-1.4,2.9-.3.4-.2.6.1.2.2-.2.4-.3.5-.3h0ZM52.2,149.2c0-.2,0-.4-.2-.5-.2-.2-.2-.2,0-.6.2-.3.2-.5.1-.8-.2-.5,0-1.2.2-1.2s.4.2.6.5.5.5.6.5c.4,0,1-.8.9-1.4,0-.7-.5-1.1-1.4-1.2-1.4-.2-2.2.7-2.2,2.5s0,1,.4,1.3c.2.2.4.4.4.5s0,.3,0,.4c0,.3.3.3.4,0h0ZM99.8,148.5c.4-.5.8-.9.8-1s0-.1.2-.1c.2,0,.8-.5.8-.7s.1-.3.3-.6.3-.4.3-.3.1,0,.3-.2c.6-.5.8-.7,1-.7s.7-1.1.6-1.3q-.2-.4-3.9,3.4c-.9.9-1.6,1.7-1.6,1.8,0,.2.3.6.5.6s.4-.4.8-.9h0ZM55,148.6c.2-.2.4-.4.5-.4.4,0,2-1.7,2.2-2.3.1-.5.1-.5-.2-.4-.2,0-.3.2-.3.3,0,.2-1.6,1.8-1.8,1.8s-.4.1-.6.3-.5.3-.6.3c-.5-.2-1.6-.3-1.4-.1.1,0,.2.2.1.3s0,.2,0,.4c.3.4,1.7.2,2.1-.3h0ZM109.3,148.2c0,0,0-.2.1-.2.3-.1.1-.6-.2-.6s-.5.5-.2.8c.3.2.4.3.3,0h0ZM76.4,148c0-.1,0-.2.1-.2.3,0,.6-1,.8-2.1.2-1.2,0-2.3-.3-2.4-.2,0-.3.2-.4,1.5-.2,1.8-.4,3.2-.5,3.4,0,.1,0,.2,0,.2s.2-.1.2-.2h0ZM70.3,147.3c0,0,0-.1.3-.1s.3,0,.3-.3c0-.1,0-.2,0-.2.2.1.3-.4.2-.8l-.2-.3-.2.3c-1,1.9-1.1,2.2-.6,1.7.2-.2.3-.3.2-.4ZM98.8,147.5c.3-.3.7-.8.9-1s.4-.6.4-.7.1-.2.3-.1.3,0,.2,0,.5-.7,1.1-1.3c1.1-1.2,1.4-1.6.9-1.8-.2,0-.8.4-1.7,1.4-.8.8-1.5,1.5-1.6,1.5s-.5.4-.9.8c-.5.5-.8,1-.8,1.2,0,.8.5.8,1.1,0h0ZM109.5,146.7c0-.2,0-.4,0-.4s0-.1-.2-.2c-.2,0-.2,0-.2.3,0,.3,0,.3-.3.1-.2-.1-.3-.2-.2-.3.2,0,.2-.4,0-.3,0,0-.2,0-.4,0-.4,0-.4-.3,0-.3s.3,0,.4-.1.2-.1.4-.1c.2,0,.3-.2.3-.4,0-.3,0-.4-.5-.4s-.6,0-.6-.2,0-.2.2-.2c.2,0,.9-.7.9-.9s-.5,0-.5.1c0,.1,0,0-.2,0-.1-.2-.4-.3-.8-.3-.9,0-1.4,0-1.4-.2s0-.1.1,0,.2,0,.3,0,.2-.1.3,0c.3.2,1.6.2,1.8,0,.1-.1.3-.4.3-.6,0-.3,0-.4-.4-.5-.3,0-.6,0-.7.1-.2.2-.2.2-.2-.2,0-.3.2-.4.7-.4.8,0,.9,0,.5-.2-.4-.2-.5-1-.1-1s.2-.2.2-.4v-.4s-1.4,0-1.4,0c-.7,0-1.4,0-1.5,0s0,0,0,.2,0,.2,0,.2-.2-.1-.2-.2c-.1-.3-.9-.4-1.3-.2-.2.1-.4.2-.4.1s0,0-.2.1c-.1.2-.2.2-.2-.2,0-.4,0-.5.7-.6.4,0,1,0,1.3,0s.6,0,.6,0,.6-.1,1.3,0c1.2,0,1.3,0,1.3-.4s-.6-.8-1.1-.6c-.8.2-4.6.2-4.6,0s.2-.2.5-.2.7,0,1,0,1.2,0,2.1,0,1.6-.1,1.6-.2.1-.1.3,0,.3,0,.3,0c0-.2-2-.5-2.1-.3,0,0-.4.1-.7.1s-.7,0-.8.1-.2,0-.3,0c0-.1-.2-.1-.3,0-.2.1-.2.1-.2,0s-.1-.2-.3,0c-.2,0-.3,0-.3,0s-.4-.2-.8-.2c-2,0-2.4,0-2.2-.2,0,0,1-.2,2.1-.2s2.1-.2,2.3-.3c.2,0,.7,0,1.4,0,.9.1,1.1,0,1.2,0,.2-.3.4-.3.3,0,0,.2,0,.2.3.2s.4-.1.5-.4c.2-.7.1-.8-.5-.8-.3,0-.7,0-.8,0-.1,0-.2,0-.2.2,0,.2,0,.2-.3,0-.2-.2-.4-.2-.8-.2-.3,0-.9.1-1.3.1s-.9,0-1,.1-1.1,0-2.3,0-2.2,0-2.2,0-.2,0-.3,0-.2.1-.1.3c0,.2,0,.3-.1.2,0,0-.2,0-.2,0,0,.2.3.3.7.2,0,0,0,.2,0,.5,0,.5,0,.6.5.8.4.2.5.3.5.5-.1.5.3.9,1.2.9.4,0,.8,0,.8.1.1.2-.7.7-.9.6,0,0-.2,0-.2,0,0,.1.3.3,1,.5.3,0,1,.2,1.7.2.8,0,.4.3-.5.3s-.8,0-.7.3c0,.3,0,.3-.2,0-.1-.1-.3-.2-.3-.1s.2.3.5.5.5.5.5.6.2.5.5.8.6.7.7.9.3.3.3.3.4.3.7.8c.3.6.7,1,.9,1,.2,0,.4.2.4.4s0,.3.2.3c.1,0,.1,0,0,.1-.1,0,0,.2.2.4.2.2.4.2.5.1,0,0,.2-.2.3-.2s.1,0,0,.2c-.1.2.2.3.5.2.1,0,.2-.2.2-.4h0ZM107.1,144.4c0,0,0-.1.2-.1s.3,0,.5,0c.2,0,.3,0,.3.1,0,.1-.2.2-.5.2-.3,0-.5,0-.5-.1ZM105.4,141.4c-.6-.2-.2-.3,1.1-.3.8,0,1.1,0,1.1.2,0,.2-1.5.3-2.2.1h0ZM105.5,140.6c0,0,0-.2-.1-.4,0-.2,0-.3.2-.2.1,0,.3,0,.3,0s.5-.1,1,0,1,0,1.1-.1c.1-.2.3-.2.4.2,0,.2,0,.3,0,.3s0,.1,0,.2c.1.3,0,.3-.4,0-.2-.1-.3,0-.4,0-.1.2-.2.1-.2,0,0-.1-.2-.2-.3,0-.2.2-1.5.2-1.5,0h0ZM103.6,138.6c0,0,0-.2.2-.2s.2,0,.2.2,0,.2-.2.2-.2,0-.2-.2ZM78.5,145.7c.6-1.3.4-3.8-.2-3.4-.2.1-.2.6-.3,2.1,0,1.1,0,2,0,2.1,0,.3,0,.5.1.2,0-.1.2-.6.4-1h0ZM98.8,145.2c.9-.9,1.6-1.7,1.7-1.7s.2-.2.2-.4.3-.5.5-.6c.5-.3.9-.9.6-1.2-.1-.1-.4,0-1,.6-.4.4-1.1,1.1-1.6,1.5s-1.1.9-1.4,1.2c-.4.4-.6.5-.7.3,0-.1,0-.3.1-.3.1,0,.3-.3.3-.4s.1-.2.3-.2.5-.3.7-.7c.2-.4.5-.7.7-.7s.2,0,.2-.1c0-.2,1.2-1.5,1.4-1.5s.2-.2.2-.5,0-.5-.1-.5c-.2,0-1.4,1.1-3.3,2.9-.8.7-1.5,1.4-1.6,1.5-.3.2-.3.6.2,1.1.2.2.4.5.4.7,0,.3.3.7.4.7s.8-.7,1.6-1.7h0ZM63.8,146.6c0,0-.3-.2-.7-.3-.4,0-.5-.2-.4-.3.1,0,.1-.1,0-.1-.1,0-.3,0-.4-.1-.3-.1-.3.2,0,.6.2.3,1.6.4,1.4.2ZM62,145.8c0-.2,0-.4-.2-.5s-.3-.1-.5-.2-.4-.1-.5-.2-.3-.2-.5-.3-.4-.3-.5-.3-.4-.1-.5-.2c-.3-.2-1.1-.2-1.1,0s.1.1.3,0c.2,0,.3,0,.3.2s.1.3.3.3.4.1.5.3.4.4.7.4.5.2.6.3c0,.1.2.1.2,0,0-.1.2-.2.2-.2s.1,0,0,.2,0,.2.1.3c.3.2.4.2.4-.3ZM56.4,145.7c0-.2.1-.5.1-.6,0-.2,0-.2-.2,0,0,.2-.2.5-.3.6,0,.2,0,.3,0,.3s.2-.2.3-.3ZM64.7,145.5c.4-.8.4-1.1,0-1.5-.2-.2-.4-.3-.5-.2s-.2,0-.2,0c-.1-.2-1-.6-1.6-.8-.3,0-.6-.2-.7-.3s-.3-.2-.5-.2c-.3,0-1.8-.5-1.9-.7-.1-.2-1.4-.6-1.8-.6s-.3.1-.3.3c0,.5.3,1.3.6,1.3s.2,0,.3.2c0,.2.1.1.3,0,.2-.2.2-.2.6.1.2.2.5.3.5.3s.3,0,.5.3c.5.5,1.1.8,1.3.7,0,0,.2,0,.2.2s.2.2.3.2.3,0,.5.2c.1.2.4.2.6.1.2,0,.4,0,.7.2.2.2.4.3.6.3s.2,0,.2.2c0,.3.3.2.4-.2h0ZM72.3,144.7c.1,0,.2,0,.2-.2s.1-.3.4-.2c.2,0,.4,0,.3-.2,0-.2.2-.3.6-.4.3,0,.6-.2.6-.2s.2-.2.4-.3.5-.3.6-.5.3-.3.4-.2c.2.1,1.4-.7,1.4-.9s.2-.2.4-.2c.6-.2,1.7-1.3,1.7-1.7,0-.2,0-.4,0-.4-.3,0-3.3,2-3.3,2.2s-.1.1-.2.1-.2,0-.3.1c0,.2-4,2.9-4,2.7s0,0-.2,0c-.2.2-.1.3.1.4.3.2.3.2.4,0,0-.1.2-.2.4-.1h0ZM70.2,143.8c-.2-.2-.4.1-.3.4,0,.2.1.2.2,0,0-.2.1-.3,0-.4h0ZM79.8,143.6c0-.1,0-.2-.1-.2s-.2.2-.1.5c0,.4,0,.5.1.2,0-.2.1-.4.1-.5ZM96.3,143.7c.4-.4.8-.7.9-.7s.2-.1.2-.2.1-.3.3-.3.5-.3.7-.6.5-.5.6-.5.2,0,.2-.2.3-.5.6-.9c.8-.9.9-1.3.2-1.1-.3,0-.6.3-.7.5s-.4.3-.5.3-.2,0-.2.2-.5.7-1.1,1.2c-2.4,2.1-2.3,1.9-2.1,2.5,0,.3.2.5.2.5s.5-.3.9-.7h0ZM58.3,143.9c.3,0,.2,0-.2-.2-.3,0-.5-.2-.6-.3-.1-.2-.6,0-.6.2s0,.1.2.1.3.1.4.3.2.2.3.1.2-.2.4-.2ZM31.3,143.7c0,0,.2-.1.2,0s.2,0,.2-.1c0-.1.2-.2.5-.1.3,0,.7,0,1.2-.3.5-.2,1.1-.5,1.4-.6s.5-.2.5-.3.4-.2.8-.3.9-.3,1.1-.4.8-.4,1.5-.7c2.5-1,3.5-1.5,3.6-1.6,0,0,.3-.2.6-.2s.6-.2.7-.3.4-.3.5-.3.3,0,.4-.1.5-.3,1-.4c.5-.2,1-.4,1.1-.6.1-.2.2-.2.2,0s0,.2.3,0c.2,0,.4-.2.4-.2.5-.1,2.2-.8,2.3-1,0,0,.6-.3,1.3-.6s1.3-.5,1.3-.6.4-.1.6-.1.4,0,.4-.1.4-.2.8-.4.8-.3.8-.4.1-.1.3-.1.6-.1.9-.3.7-.3.8-.3.3-.2.4-.4c.1-.3.2-.3.3-.1.1.2.3.2.8-.1.4-.2.8-.4.8-.4s.4-.2.8-.3c.5-.3.7-.4.7-.7,0-.6-.4-1-.8-.9-.6.1-3.5,1.2-3.8,1.4-.2,0-.3.2-.4.2s-.6.2-1.1.5-1.1.5-1.3.5-.5.1-.7.2-.6.2-.7.2-.6.2-1,.4-1,.4-1.2.5c-.4.1-.7.2-1.7.7-.3.1-.9.4-1.4.6-1.2.5-1.9.8-2.7,1.2-.4.2-.7.3-.8.3s-.8.3-1.7.6-1.8.7-2.1.8-1,.3-1.4.5-1.1.5-1.5.6-.9.3-1.1.5-.6.3-.7.3-.7.2-1.3.5-1.5.6-2.1.8c-.9.2-1,.3-1.1.8,0,.3,0,.8,0,1.1,0,.5.1.6.4.6s.4,0,.5-.2h0ZM69.9,143.7c.3-.2.3-.2,0-.5-.1-.1-.2-.4-.2-.5s-.2-.3-.4-.4-.5-.3-.6-.5c-.2-.5-.3-1.4-.2-1.4s.1-.2.1-.4,0-.4-.2-.3c0,0-.1.2,0,.3s0,.3-.1.3c-.3.1-.7,1.5-.7,2.4s0,.7.3.7.3.1.4.3c0,.2.2.2.3,0,.2-.1.3-.1.5,0,.4.3.4.3.8,0h0ZM66.3,143.5c0-.1,0-.3.2-.3.1,0,0-.2-.2-.5-.2-.2-.5-.4-.6-.4s-.2,0-.3-.1-.5-.3-1-.5-.8-.3-.9-.4c0,0-1.6-.6-2.2-.7-.1,0-.3-.1-.3-.2s-.4-.3-.8-.4c-.4-.1-.9-.3-1-.5-.3-.3-.8-.5-1.1-.6,0,0-.2,0-.2-.1s-.2,0-.3,0-.2,0-.3-.2-.2-.3-.3-.3-.2,0-.2.2,0,.2,0,.3c-.3.2-.2.3.3.4.2,0,.6.2.8.4.6.5,1.6,1,2.1,1,.2,0,.4,0,.4.2,0,.1.1.2.3.2s.3,0,.3.2.1.2.3.2.3,0,.3.1c0,.2.9.6.9.4,0-.3.3-.2.3,0s0,.2.1.2.3.1.4.3c.2.3.3.3.2,0,0-.3,0-.3.3,0,.2.2.6.3.7.3s.3,0,.2.2c0,.2,0,.2.2.2s.4,0,.4.2.2.1.3,0,.2,0,.2,0,0,.2.2.2.2-.1.2-.2h0ZM56.7,143.1c0,0,0-.2-.2-.2s-.2.1-.2.3,0,.2.2.2.2-.2.2-.3ZM71.9,143.2c.1-.1.3-.2.4-.2s.2-.1.4-.3.6-.4,1.1-.7.9-.5.9-.6.1-.2.3-.3c.4-.1,1.9-1.2,2.3-1.7.2-.2.5-.4.7-.5.6-.2.6-1,0-1.5-.3-.2-.5-.3-.7-.1-.1.1-.5.3-.9.5-1.1.6-3.5,2.3-3.7,2.7,0,0-.5.3-1,.6s-1,.7-1,.9c0,.3,0,.4.5,1.1.2.3.6.3.9,0h0ZM79.8,142.2c0-.5,0-.9,0-.9s0,0-.1,0c-.2,0-.2,1,0,1.1,0,0,.1.2.1.4s0,.3,0,.3,0-.4,0-.9ZM95.2,142.7c0,0,.7-.6,1.5-1.5s1.6-1.6,1.6-1.6.3-.2.4-.5.4-.5.5-.5.2-.2.2-.5c0-.7-.5-.7-1.2.1-.3.3-1,.9-1.5,1.4-1.8,1.6-2.7,2.6-2.6,3,0,.2.1.3.2.3s.2,0,.2.1c0,.1.2.1.3-.1.1-.2.2-.2.2-.2h0ZM66.6,141.4c.1,0,.5-.7.9-1.9.4-1,.8-2.1.9-2.4.2-.5.6-1.8,1.5-5.3.2-1,.5-1.8.5-2,.1-.4.7-4.7.9-6.4.2-2.5,0-7.8-.2-8.3,0,0-.1-.7-.2-1.4s-.2-1.5-.3-1.7-.2-.6-.1-.7,0-.3-.1-.4-.2-.3-.2-.4-.3-1.1-.6-2-.6-1.8-.6-2,0-.3-.1-.3c-.1,0-.5-.7-.6-1.1,0-.1-.1-.4-.3-.7s-.3-.7-.4-.9c-.1-.4-.7-1.2-.9-1.2s-.3.5-.6,1-.6,1.3-.8,1.6l-.3.5.4.2c.2,0,.4.3.4.4s0,.4,0,.6c0,.3,0,.4-.2.5-.5.2-.9,0-.8-.5,0-.2.2-.5.3-.6.1,0,0-.1,0-.1-.2,0-.3,0-.3.2s-.1.3-.2.5c-.3.4-.3,1.2,0,1.8.1.3.3.6.3.8s0,.3.2.3.2.2.2.5,0,.6.1.7.2.7.3,1.4.3,1.5.3,1.8,0,2.5,0,4.8c0,4.2,0,4.5-.3,5.6,0,.3-.1.7-.2.8s0,.4-.1.5-.1.5-.2.7,0,.6-.1.7c-.1.4-.8,3-1,4.1-.3,1.2-.8,3-1,3.2,0,0-.1.3-.1.5s-.1.6-.3,1-.3.7-.3.8-.1.4-.2.6c-1.1,2.2-1.1,2.7,0,2.9.4,0,.7.2.8.3s.2.2.4.2.3.1.3.2c0,.3.2.3.4,0,.1-.2.2-.1.2.2s0,.4.3.1c.2-.1.5-.7.7-1.3s.5-1.2.6-1.4.2-.6.3-.9.2-.7.3-1,.3-.9.4-1.3.2-1,.3-1.1c0,0,.2-.5.3-.9s.3-1.3.5-1.9c.7-2.5,1.4-6.8,1.5-9,0-3.5,0-5.7,0-6.2,0-.3-.2-.8-.2-1.2-.3-2.5-.6-4.2-1-5.4-.2-.7-.4-1.5-.4-1.7s-.1-.5-.2-.6-.2-.3-.2-.4,0-.2-.2-.3-.3-.4-.3-.7-.2-.7-.4-.8c-.4-.3-.4-.7,0-1,.3-.3.3-.2,1,1.3.4.9.8,1.8.9,1.9s.2.4.2.6,0,.3.1.3.2.4.3.9.3,1,.4,1.1.1.2,0,.2,0,.3,0,.6.2,1,.2,1.4.2.9.2,1,.1.5.1.8,0,1.1.1,1.8c.2,1.8,0,7-.1,7.8-.1.4-.5,2.8-.5,3.8,0,.5-.1,1.2-.2,1.5s-.2.9-.3,1.4-.3,1.3-.6,1.9-.4,1.4-.5,1.8-.3,1.3-.6,2.1-.5,1.5-.5,1.6-.2.4-.3.7-.3.7-.3.9-.2.6-.3.9c-.4.7-.4,1.3,0,1.4.2,0,.3,0,.4-.1s.2-.2.3-.2h0ZM63.9,138.5c-.3-.2-.4-.7-.1-1.1.1-.2.2-.2.6,0,.5.2.5.5.1,1-.2.3-.3.3-.6.2ZM64.6,135.9c-.2-.1-.2-.3-.2-.4s0-.2,0-.3c0,0,0-.2.2-.4.3-.3.4-.3.6,0,.6.6,0,1.6-.6,1.1h0ZM65.4,133.3c0-.1,0-.3,0-.4,0-.2.6-.8.8-.8s.3,1,.1,1.2c-.3.3-.7.3-.9,0ZM66.3,130.5c-.3-.3-.3-.4-.2-.7.2-.4.9-.5,1,0,.2.5.1.8-.2,1-.3.2-.4.1-.7-.2ZM66.9,127.7c0,0,0-.2,0-.3-.3-.2.1-.7.5-.7s.3.1.3.6,0,.6-.4.6-.4,0-.3-.2ZM67.2,124.4c-.3-.3-.3-.4,0-.7.3-.4,1-.3,1,.2,0,.3-.4.8-.6.8s-.3-.2-.4-.4ZM67.7,121.7c-.2-.1-.2-.3-.2-.6.1-.8.9-.7,1,0,0,.5-.4.8-.8.6h0ZM67.5,119.3c-.1-.4.3-1,.6-1,.5,0,.6.3.4.8-.2.5-.9.6-1,.2h0ZM67.7,116.6c-.4-.3-.1-1.1.4-1,.5.1.7.6.4.9-.3.3-.4.3-.8,0ZM67.6,114.4c0,0-.1-.2-.2-.2s-.2-.1-.1-.5c.1-.6.2-.7.5-.7s.6.7.2,1.1c-.2.2-.3.3-.3.2h0ZM66.9,111.6c-.4-.1-.5-.7-.2-1.2.3-.5.8-.5.9,0,0,.4-.2,1.3-.4,1.2,0,0-.2,0-.4,0ZM65.9,108.8c-.4-.3-.1-1.1.5-1.1s.5.4.2,1c-.2.4-.3.4-.7,0ZM93.7,141.6c0,0,0-.1.1,0s.8-.5,1.5-1.3,1.4-1.4,1.5-1.4.4-.3.7-.7c.6-.6.9-1.5.5-1.6,0,0-.9.7-1.9,1.7s-1.8,1.7-2,1.7-.2.1-.2.3-.1.3-.3.3c-.4.1-.5.4-.4.9,0,.4.4.5.4.2h0ZM32.3,140.2c.6-.2,1.3-.5,1.4-.5s.3-.2.3-.3c0-.1,0-.2.3-.1.3,0,.8,0,2.1-.7.3-.1.9-.4,1.4-.5l.9-.3.8-1.6c.4-.9,1-2.2,1.4-3,.6-1.6,1-2.5,1.3-2.9.2-.3,1-2.2,1.4-3.2.2-.5.5-1.1.7-1.5s.3-.7.3-.8.2-.5.4-.9.4-.8.4-.9,0-.2.1-.2.5-1.1.9-2.3.9-2.4,1-2.6c.2-.4,1.3-3.4,1.4-3.9,0-.2.3-.8.6-1.4.4-1,.7-2.4.5-2.4s-.5.1-.9.3c-.6.2-1.1.2-2.1.2-1.9-.1-2.3-.2-3.5-.8-1.1-.6-1.1-.6-2.6.1-.9.5-1.2.5-2.4.5-1.5,0-3-.4-3.4-.9-.1-.2-.4-.3-.5-.3s-.2,0-.2-.2-.1-.2-.2-.2c-.2,0-1.2-1.4-1.2-1.7s0-.2-.2-.2-.2-.1-.2-.3,0-.4-.2-.4-.1-.3,0-.5.1-.8.2-1.3c.2-1.7.8-3.3,2.5-6.4,1-1.8,1.4-2.7,1.8-4.1.5-1.7.9-3.3,1.1-4.1.1-.5.3-.9.3-1.1s.2-.9.4-1.7.4-1.7.4-2.1.2-1.1.2-1.4,0-.7,0-.7c-.1,0-1.3,0-1.8,0-.2,0-.6.1-.8.2s-.5.2-.7.2c-.3,0-.5.5-.6,2.5,0,.5-.2,1.1-.2,1.3s-.1,1.6,0,3,0,2.6,0,2.7-.2.6-.3,1.1c-.4,1.6-.8,3-1.4,4.3-.5,1.1-.6,1.3-.9,1.3s-.4,0-.4-.8c0-.4,0-1.2,0-1.6s-.1-1.2-.1-1.7-.1-1.4-.2-2.2c0-.8,0-2,0-2.9.1-.8.3-2.6.3-4s.2-2.8.3-3.2c.2-.8,0-4-.3-4.5,0,0,0-.9.2-1.7l.3-1.5-.6-.6c-.4-.3-.6-.7-.6-.8,0-.3-.4-.2-.4,0,0,1.4-.1,10.2,0,17.5,0,7.8,0,25.7-.1,26.4,0,.3,0,7.2,0,12.5,0,3.6,0,6.6.1,7.6,0,.2,0,.8,0,1.3,0,1,.2,1.6.6,1.3,0,0,.7-.3,1.3-.6h0ZM70.3,140.8c0,0,.1-.2.2-.2s.3-.1.3-.2.2-.2.3-.2.5-.1.8-.3c.4-.2.5-.3.3-.5-.2-.2-.3-.1-.8.2-.3.2-.8.5-1.1.6s-.6.3-.8.5c-.3.3-.3.3.2.3s.5,0,.5-.2ZM95.5,138.2c0,0,.1,0,.3-.2s.3-.4.2-.5c0-.1,0-.2.2-.2s.3-.1.3-.2,0-.2.1-.2c.1,0,.8-1.1.8-1.2,0-.3-.6.1-1.7,1.2-.7.7-1.5,1.5-1.8,1.7-1.5,1.2-2,1.9-1.4,2.2.2.1.5,0,1.6-1.2.7-.8,1.3-1.4,1.3-1.3h0ZM92.7,138.9c.5-.5,1-.9,1.1-.9s.3-.2.3-.4.2-.4.3-.4c.3,0,1-.8.8-1,0-.1,0-.1.1,0,.3.1,1.2-.9,1.2-1.3s0-.3-.6.1c-.3.3-.7.6-.9.8s-.7.7-1.1,1.1c-1.2,1.1-2.1,2.2-2.2,2.6,0,.2,0,.4,0,.4s.5-.4,1-.9h0ZM73.3,138.9c0-.1.3-.2.4-.2s.3-.1.4-.2.3-.2.4-.2.4-.2.7-.4.6-.4.8-.5c.2,0,.3-.2.3-.3,0-.2,0-.3.3-.2.3,0,.4,0,.4-.3,0-.2,0-.4,0-.4-.3,0-1.3.5-1.8,1-.3.3-.7.5-.9.6s-.3.2-.3.3-.1.2-.2.2-.4.2-.7.4-.6.4-.7.4c-.2,0-.2.2,0,.4.2.2.7,0,.9-.3h0ZM70.3,138.8c0-.2,0-.3-.2-.2-.1,0-.1,0,0-.3,0-.3,0-.5-.2-.6-.2-.1-.3-.3-.3-.4,0-.4-.3-.3-.4.2-.1.4.3,1.2.6,1.2s.1.1.1.2.1.2.2.2.2-.1.2-.3h0ZM81.9,138.5c.3-.3.6-.6.6-.7,0-.2,0-.2.1,0,0,.1.2.1.4,0,.2-.1.3-.2.2-.3s0,0,0,0,.3-.1.6-.4.7-.5.9-.5c.4,0,1.3-1,1.1-1.2,0,0,0,0,0,0,.2.1.7-.4.6-.7,0-.1,0-.3,0-.4,0-.2-1,.3-1,.5s-.3.3-.6.4-.6.4-.6.4-.1.2-.3.2-.5.3-.7.5-.5.4-.6.4-.2,0-.2.2-.1.2-.3.2-.4.1-.4.2-.3.4-.6.6c-.4.2-.5.5-.5.8s0,.4.5.3c.3,0,.7-.3,1-.6h0ZM60.9,138.1c.2-.4.5-1.3.7-2s.4-1.3.5-1.3.1,0,.1-.2.1-.4.3-.7c.4-.8.7-1.9.6-2.1,0-.1,0-.3,0-.4.1-.1.7-2,1-3.4.3-1.2.5-2.1.7-2.2,0-.1.2-.8.3-1.5s.2-1.5.2-1.7c.5-3.2.4-7.7-.1-10.3-.1-.6-.3-1.3-.3-1.5s-.1-.4-.2-.5-.1-.2-.1-.4c0-.3-.4-1.2-.5-1.2,0,0-.2.3-.3.6-.2.5-.1.8,0,1.7.2.6.3,1.1.4,1.1s.1.2.1.4,0,.8,0,1.3c.2,2.5.3,5.2.1,7-.2,1.7-.3,2.3-.6,4,0,.3-.1.8-.2,1.2s-.2.8-.2.9-.3.8-.5,1.5-.4,1.4-.5,1.5-.2.5-.3.9-.2.8-.2.9-.2.5-.3,1-.3,1.1-.5,1.5-.4.9-.5,1.3-.3.6-.3.7c-.2.2-1.1,2.3-1,2.4.1.2.5.3.8.4,0,0,.3-.3.5-.7h0ZM91.6,138.4c.2-.1.5-.4.6-.6s.3-.4.3-.4c.1,0,2.4-2.3,2.4-2.4s.2-.3.5-.5c.3-.3.5-.6.4-.8,0-.2,0-.4,0-.4s-.3.3-.6.6-.7.6-.8.6c-.1,0-.2,0-.2.2,0,.2-1.1,1.4-2.5,2.6-.6.5-.8,1-.5,1.2.1.1.1.1.6,0h0ZM71.7,138.2c0-.1.5-.4,1-.7,1.2-.6,1.7-1.1,1.5-1.6,0-.2-.2-.3-.3-.3s-.2-.1-.2-.3-.1-.4-.3-.5-.3-.3-.3-.5,0-.2-.2-.2-.2-.1-.2-.2-.1-.4-.3-.5-.4-.6-.6-.9-.4-.6-.4-.6-.1-.1-.1-.2,0-.2-.2-.2c-.2,0-.5,1.1-.7,2.1,0,.3-.2.8-.3,1.1-.3.7-.3,1.4,0,1.7.1.1.2.3.2.4,0,.2,1,1.7,1.2,1.7s.2-.1.2-.3ZM72.1,136.6c-.5-.6-.1-1.4.5-1.1.4.2.4.7,0,1.1-.1.1-.3.3-.3.3s-.2-.1-.3-.3h0ZM70.7,134.8c-.3-.2-.3-.3,0-.7.2-.5.2-.5.7-.3.5.2.6.7.3,1.1-.2.3-.5.3-.8,0ZM80,137.4c.3-.3.6-.6.7-.6s.4-.2.7-.4.6-.4.8-.4.3-.1.3-.2c0-.2.4-.5.8-.7h.4c.2-.2.4-.4.4-.5s.2-.2.4-.3.3-.1.3-.3c0-.1.1-.2.4-.2.4,0,.5-.2.3-.7,0-.1-.2-.3-.2-.3-.2,0-1.6,1-1.6,1.2s-.1.1-.3.1-.4.1-.5.3-.3.3-.4.3-.4.2-.6.5-.9.8-1.5,1.1c-.7.4-1,.7-1,.9,0,.1,0,.4,0,.5,0,.3.3.2.7-.4h0ZM91.8,136.3c1.5-1.6,1.7-1.9,2.3-2.3.3-.2.6-.6.8-.9.5-1.2,0-.9-2.2,1.2-.9.9-1.9,1.8-2.2,2.1-.4.4-.5.6-.4.9,0,.2.2.4.3.4s.7-.6,1.4-1.3h0ZM43.6,135.7c.5-.2,1.2-.4,1.4-.5s.5-.2.6-.2.5-.2,1-.5,1.2-.5,1.5-.7.7-.3.8-.3.3-.1.5-.1.4-.1.5-.2.3-.2.4-.2.2,0,.2-.2,0-.2.2-.1c.2,0,.4,0,1.5-.5.4-.2,1-.4,1.4-.6,1.3-.4,1.7-.7,1.7-.9s0-.2.2-.1c.2,0,1.7-.4,2.1-.7.1,0,.4-.2.7-.3.7-.2,1.4-.6,1.3-.7,0,0,0-.2,0-.2s.1-.2,0-.3-.2-.2-.2-.2-.1-.1-.1-.3-.1-.5-.2-.5-.2-.2-.1-.3,0-.3-.2-.5-.3-.4-.3-.5-.2-.4-.4-.6c-.3-.4-.8-1.5-.8-2.1,0,0,0-.2-.1-.2s-.3-.6-.5-1.2-.4-1.3-.4-1.4-.1-.5-.1-.8c0-.8-.4-2.6-.6-3.3,0-.3-.1-1.8,0-3.4,0-2.8.4-5,.8-6.2.1-.3.3-.8.3-1.1s.3-1,.6-1.5c.5-1.1.6-1.6.3-1.6s-.6-1.4-.7-2.3c0-.3-.2-.8-.3-1.2-.2-1-.2-4.3,0-5.8,0-.2.2-.7.3-1.2s.2-.9.2-1c.2-.8.9-2.9,1.3-3.7l.4-.9-.7-.6c-.4-.4-.8-.6-1-.6s-.4-.2-.4-.3-.2-.3-.3-.3-.3-.2-.5-.4-.4-.4-.5-.4-.2-.1-.3-.3-.1-.2-.2-.2c-.2.2-.4,2.7-.5,5.4,0,1.6-.2,3.4-.2,4.1s-.1,1.6-.1,1.9,0,.7,0,.7-.1.4-.2.8l-.2,1.6c0,.5-.1,1.2-.1,1.5,0,1.1-.7,5.4-.9,6,0,0-.1.5-.2.8s-.2.7-.2.8-.3.7-.5,1.4-.5,1.7-.7,2.2-.3,1-.3,1.1-.2.6-.4,1.2-.5,1.2-.6,1.3-.3.7-.4,1.2c-.2.8-.4,1.4-.8,2.3,0,.1-.2.5-.4.7-.3.5-.7,1.7-.7,1.9,0,0,0,.2-.2.2s-.2.2-.2.2,0,.2,0,.2-.2.2-.2.4-.1.5-.2.8-.2.5-.2.6-.2.6-.4,1.1-.5,1.1-.5,1.3-.6,1.2-1.1,2.3-.9,2.1-.9,2.1c0,.2-.3.8-.9,2.2-.3.6-.5,1.2-.6,1.4-.4,1-.7,1.7-1.1,2.5-.2.5-.4,1-.3,1.1,0,.2.2.2,1.1-.2.6-.3,1.4-.6,2-.8h0ZM79,136.1c.2-.2.4-.4.6-.4s.5-.2.8-.5.5-.4.6-.4.4-.2.7-.5c.3-.3.8-.7,1.2-.8s.9-.6,1.2-.9c.5-.6.5-.6.3-1-.2-.3-.5-.8-.9-1.2s-.6-.9-.6-1,0-.2-.1-.1-.3-.2-.5-.5c-.5-.7-.6-.9-.9-.7,0,0-.1,0,0,0,.2-.3-.2-1-.5-1s-.2,0-.2-.2-.2-.5-.6-.9-.7-.8-.7-.9-.2-.3-.4-.4-.4-.4-.3-.4c.2-.3-.5-.3-1.1,0-.7.4-2,1.4-2.2,1.8,0,.1-.2.2-.3.2s-.5.3-.9.6-.7.6-.8.6-.3.2-.5.4c-.3.4-.4.4-.2.9.1.3.3.6.4.7s.2.2.1.4c0,.2,0,.2,0,.2.1,0,.3.1.5.6.2.4.5.8.6,1s.4.5.5.7c.2.3.3.3.5.2.2-.1.2-.2,0-.5-.2-.2-.3-.4-.3-.5,0-.4,0-.6-.2-.6s-.2,0-.2-.2.1-.2.3-.2c.2,0,.2,0,0-.2-.3-.3-.5-1.4-.3-1.8.1-.2.2-.2.6.2.2.2.4.5.5.5s.2.1.4.3.4.3.6.3.2,0,.2.2c0,.1,0,.2,0,.2s.4.2.6.4c.3.3.4.5.3.8,0,.2-.1.3-.1.2s0-.2-.2-.1-.1.2,0,.3,0,.2,0,.2-.1,0,0,.2c.1.2,0,1-.2,1s-.2-.1-.2-.2c0-.4-.4-.6-.6-.4-.3.3-.2,1.8,0,1.8s.3.2.5.4.3.4.4.3c.1,0,.8.5.8.8s.6,1,.8,1,.3-.2.4-.4h0ZM78.6,131c-.3-.6-.3-.9-.2-1,0,0,0-.2,0-.5-.3-.8-.7-2.8-.6-3.2,0-.3.2-.4.4-.3.2,0,.4.2.4.3s.2.2.3.2c.3,0,1.5,1.3,1.5,1.7s0,.1.2.1c.1,0,.2,0,.2.2,0,.2,0,.3.2.3s.2,0,.2.2-.2.1-.5,0c-.3,0-.5,0-.5,0,0,.5,0,.8-.3.9-.4.1-.7,0-.7-.3,0-.1,0-.2-.2-.2s-.1.2-.1.5c0,.3,0,.5,0,.6,0,0,0,.2,0,.3.1.2.1.2,0,.3-.1,0-.3,0-.4-.3h0ZM90.3,135.9c.3-.2.7-.7.8-1s.3-.6.4-.6.6-.5,1.2-1.2,1.2-1.2,1.3-1.2.2-.2.2-.5c0-.4,0-.5-.1-.3,0,.1-.2.2-.3.1s-.3,0-.4.2c-.2.3-1,1.1-3.2,3.1-.5.5-1,.9-1.1.9s-.2,0-.2.2,0,.2.2.2.2.1.2.2c0,.4.6.3,1.2-.2h0ZM75.3,135.7c0-.2,0-.4,0-.4s-.1-.2,0-.2,0-.3-.2-.5-.3-.4-.2-.4,0-.1-.1-.3-.3-.5-.5-.8-.4-.5-.5-.6-.3-.2-.3-.4-.1-.4-.2-.5-.2-.3-.2-.4-.1-.2-.2-.3-.2-.2-.2-.2c0-.4-.7-1.3-.9-1.2-.2,0-.3.6-.1.7,0,0,.3.4.5.9s.6,1,.7,1.2.3.4.3.5,0,.1.2.2.2.2.2.2,0,.3.1.4c.8,1,1.4,1.9,1.4,2.1,0,.4.4.3.5,0h0ZM89.1,134.9c.2-.2.4-.5.4-.6s0-.2.2-.2c.2,0,.7-.5,1-1,.2-.2.4-.5.5-.5s.2-.2.3-.3.2-.3.2-.2c.2.1.5-.5.4-.6,0,0,0-.1.5-.2.5,0,.9-1.4.5-1.4s-.5.5-1.1,1.1-1.1,1.1-1.1,1.1-.7.5-1.4,1.1c-1.4,1.1-1.6,1.5-1.2,2,.3.3.3.3.8-.2h0ZM104.4,134.3c1.6,0,3-.1,3-.2s.4,0,.7,0c.5,0,.5,0,.2-.2-.2-.1-.5-.2-.9-.2-.3,0-.6,0-.6,0s0-.1.2-.1.2,0,.2-.1-.3,0-.6.2c-.6.3-1,.4-1,.2s-3.5,0-3.8.2c0,0-.2,0-.3-.1-.1-.1-.5-.2-1-.2-.4,0-.9,0-.9-.1-.1-.2-1.5-.2-1.6,0,0,.1,0,0,0-.1,0-.3.2-.3.6-.4q.7,0,.6-.6c0-.4-.1-.5-1.1-.4-1.1,0-1.1,0-.9.9,0,.2.2.3.3.3.1,0,.2,0,.2.2,0,.4.6.9,1.1.9.2,0,.7,0,1,0s.8.1,1.1,0,1.9-.1,3.5-.1h0ZM88,133.8c.2-.1.5-.3.5-.5s.2-.3.3-.3c.2,0,.3-.2.3-.5,0,0,0,0,.1,0s.3,0,.6-.3.5-.4.7-.4.2,0,.2-.2.2-.3.4-.5c.3-.3.4-.4.2-.5-.1,0-.1-.1,0-.1.3,0,1.3-1,1.3-1.3,0-.7-.6-.4-1.8.8-.5.5-1.4,1.4-2.1,2.1-.7.7-1.3,1.4-1.3,1.6,0,.4.1.4.7.1h0ZM102.2,132.9c0,0,.1-.1.3-.1s.3,0,.2.2.3,0,.8,0c.9,0,2.6-.1,3.3,0,.2,0,.3,0,.4-.3.1-.6-.3-.7-3.5-.6-1.7,0-3.2.1-3.4.1-.4,0-.4.6-.1.8.2.2,2,.2,2,0h0ZM100.3,132.7c0,0,0-.2.2-.2s.2,0,.2.2,0,.2-.2.2-.2,0-.2-.2ZM75.6,132.6c0-.1-.1-.2-.2-.2s0,.1,0,.2,0,.2.2.2.1-.1,0-.2ZM87.8,132.2c.3-.4,1-1.1,1.5-1.7s.9-1.1,1-1.1.3-.2.5-.4.4-.4.4-.3.1,0,.3-.2.2-.5.2-.6,0-.3.1-.3,0,0-.2,0c-.2,0-.5.2-.6.3s-.3.2-.4.2-.2,0-.3.2c-.1.2-.9,1-2,1.9-1.3,1.1-1.8,1.7-1.8,2.1s.1.5.7.6c0,0,.4-.3.7-.6h0ZM109.6,130.5c0-1.1,0-2.1,0-2.2s-.1-.3-.1-.5,0-.4-.2-.5c-.2-.1-1.2-.1-1.6,0-.1,0-.4,0-.5,0s-.5,0-.8,0c-.7,0-.8.3-.3.8.2.2.3.5.3.5s.2.4.5.7.5.6.5.7.1.2.3.2c.2,0,.2,0,0,.2-.2.1-.2.2,0,.2.1,0,.3.1.3.2s.4.6.7,1.1c.4.6.6.8.7.7,0,0,.2-1.1.2-2.2h0ZM99,131.6c.2,0,.2-.2.2-.3,0-.1,0-.1,0,0,.2.2,2.1.3,2.3.1,0,0,.7,0,1.4,0,.9,0,1.2,0,1.2-.1s.1-.2.3-.1c.5.1,1.9.3,1.5.1-.4-.1-.5-.4-.2-.4s.1-.3-.2-.3c-.1,0-.3,0-.4-.1s-.5,0-1,0-2.5.1-4.6.2c-3,0-3.9.2-4.1.3-.2.2-.2.2.1.2s.3,0,.3.2,0,.2.2.2.4,0,.4.2c.1.2,1.8.2,2.4,0h0ZM86.6,131.4c.1,0,.3-.7.3-.9,0,0,0-.1.2-.1s.1,0,0-.2c0-.1,0-.1,0,0,.1,0,.3,0,.5-.1.1-.1.5-.4.7-.7s.5-.4.6-.4.2-.1.2-.3.2-.3.3-.3.3-.1.3-.3.1-.2.2-.2c.2.2.8-.7.8-1s-.6-.3-1.1.3c-.2.3-.5.5-.6.5s-.4.3-.7.6c-.9.9-1.4,1.3-2.2,2-.7.6-.9,1.1-.6,1.1s.1,0,0,.2c0,.1,0,.2.3,0,.2,0,.4-.1.5-.1h0ZM85.8,130c0,0,.2,0,.3-.3s.2-.4.3-.4c.1,0,.8-.6,3.1-2.9.5-.5.6-.7.5-.9-.1-.2-.2-.2-.6,0-.2.2-.6.5-.8.6s-.5.4-.6.5-.7.6-1.3,1.1c-2,1.7-2.3,2.1-1.7,2.5.2.2.3.2.4-.1,0-.2.2-.3.3-.2ZM97.6,129.8c0-.1.1,0,.1,0,0,.2.6.2,1,0,0,0,.2,0,.2,0s.9,0,1.9,0,2.2,0,2.7,0c.7,0,.9,0,.8-.2,0-.1,0-.2,0-.2s.2.1.2.2c.2.4.6.3.6-.2s0-.4-.2-.5c0,0-.1,0,0,.2,0,.1,0,.3,0,.3s-.2-.2-.2-.4v-.4h-5.1c-2.8,0-5.1,0-5.1.1-.2.3.4,1,.7,1,.2,0,.4,0,.4.1.1.2,1.9.1,2.1,0h0ZM62.1,128.7c0-.8,0-1,.3-1.3.4-.4.5-1.4.1-1.3-.3,0-.5-.5-.4-.8.1-.4.6-.7.8-.4.1.2.5-.7.5-1.4s0-.5-.2-.5-.3-.1-.3-.3-.2-.4-.4-.5-.2-.2-.1-.3,0-.3-.1-.5-.2-.4-.2-.5,0-.2,0-.3c-.2-.2-.7-2.3-1-4-.2-1.4-.3-5.7-.1-6.6,0-.3.2-.9.3-1.3.1-.7.3-1.1,1-2.8.2-.4.3-.8.3-.9s0-.2.1-.2.4-.6.7-1.4.7-1.4.8-1.5.2-.4.3-.7.2-.7.4-.9.4-.7.6-1.1.4-.9.6-1.2.3-.5.3-.7.1-.3.2-.4.2-.2.2-.3c0-.1.1-.8.4-1.9.7-2.4,1.1-5.6.7-5.6-.1,0-.8,0-1.6,0-.9,0-1.4,0-1.4.2,0,.1,0,.9-.1,1.7s-.1,1.7-.2,1.9-.3,1-.4,1.7-.4,1.5-.5,1.9-.3.7-.2.8,0,.2-.1.3c-.3.2-.2.9.3,1.4.5.5.6,1,0,1.3-.2.1-.3.1-.6-.2-.4-.5-.8-.3-1.2.6-.2.4-.4.7-.4.7s-.1.1-.1.3,0,.3-.1.3-.2.1-.2.3-.2.4-.3.6l-.6,1c-.5.8-1.5,4-1.7,5.2-.2,1.6-.2,6.5,0,7.7q.2,1.4.6,2.6c0,.1.1.3.1.3.2.7.5,1.7,1,2.8.1.3.3.8.4,1.2s.3.8.4,1.1.2.5.2.6.2.5.5,1,.5,1,.5,1c0,.2-.6.1-.7,0,0,0-.2-.1-.2,0s-.2-.2-.2-.5c0-.3-.2-.6-.3-.6s-.3-.3-.3-.7c-.1-.8-.6-1.9-.7-1.9s-.1-.2-.1-.4-.1-.5-.2-.7-.2-.5-.2-.7,0-.4-.2-.5c-.4-.4-.9-2.4-1.1-4.1-.4-3.3-.3-6.7.3-8.8.1-.5.4-1.5.5-2.1.4-1.4.9-2.6,1.7-4,.7-1,.8-1.4,1.2-2.2.2-.3.5-.9.7-1.2s.3-.7.3-.9,0-.2,0-.2.2-.4.3-.8.2-.9.3-.9c.2-.3.6-2.3.6-2.7,0-.2,0-.5.2-.6.1-.1.2-.8.2-1.8v-1.6s-.4,0-.4,0c-.4,0-.6.2-.6,1,0,.5-.5,3.6-.7,5-.4,2-.6,2.6-1.2,3.6-.3.5-.6,1-.6,1.1s-.2.3-.3.5c-.4.3-.6.8-.9,1.5,0,.2-.3.5-.4.7-.4.5-2.1,5.1-1.9,5.1s0,.2,0,.4c-.2.5-.2.6-.5,3.1-.2,1.6-.2,3.4,0,3.8,0,0,0,.5.1,1s.2,1.5.4,2.3.4,1.7.4,1.9.1.5.2.7,0,.3,0,.5,0,.2.1.2.2.1.2.3c0,.3.5,1.8,1,2.7.7,1.3.8,1.6,1,1.6.1,0,0,0,0,.2-.1,0-.2.2,0,.2s.4.6.7,1.2.6,1.2.7,1.2.3.2.4.3c.4.6.7.4.6-.6h0ZM61.1,123c-.1-.5.3-.9.7-.8.3.1.2.9-.2,1.1-.3.1-.4,0-.5-.3h0ZM60.1,120.4c-.4-.2-.5-.5,0-.9l.3-.4.3.3c.2.2.3.5.2.8-.1.5-.2.5-.7.2h0ZM59,117.1c-.1-.4-.1-.5.1-.8.4-.4.9-.3,1.1.3,0,.3,0,.4-.2.7-.5.4-.8.4-1-.1ZM58.8,113.5c0-.5,0-.6.5-.6s.5,0,.4.5c0,.4-.1.5-.5.6-.4,0-.4,0-.4-.5ZM58.9,110.5c-.1-.4.3-1.2.6-1.1,0,0,.3.2.4.5.2.4,0,.7-.5.9-.3,0-.4,0-.4-.3ZM59.8,107.6c-.2-.5-.2-.8.1-1,.6-.3.9.7.3,1.1-.2.1-.3.1-.4-.1ZM60.8,104.8c-.2-.3,0-1,.4-1s.5.3.4.8c-.1.4-.6.6-.8.2ZM62.1,102.4c-.2-.1-.3-.3-.3-.5,0-.3.4-.7.7-.6.3.1.4.9.2,1.1-.2.2-.3.2-.6,0ZM64.3,97.7c-.2-.1-.1-.2,0-.5.3-.5.8-.5.7,0,0,.2,0,.3,0,.3s.1,0,.1.2c0,.2-.6.2-.9,0ZM65.2,95.7c-.3,0-.3-.2-.1-.8.2-.5.6-.6.7-.2.1.3,0,1.1-.2,1.1,0,0-.2,0-.4,0ZM65.6,93.4c-.4,0-.3-1.1,0-1.2.4,0,.8.4.6.8-.1.4-.3.5-.7.3ZM65.9,90.4c-.1-.4.1-.8.3-.6,0,0,.2.3.3.5,0,.3,0,.4-.2.4s-.3-.1-.4-.3ZM85.3,128.7c.4-.5,2.2-2.4,2.4-2.4s.2-.1.2-.2.1-.2.3-.2.4-.2.5-.5c.1-.2.3-.4.4-.4s.2-.1.2-.3,0-.3-.1-.3-.1,0-.1.2,0,.2-.2.2-.3.1-.5.3-.9.8-1.6,1.5-1.5,1.4-1.7,1.6c-.4.3-.5.7-.3.9.2.2.3.1.5-.2h0ZM94.8,128.3c0,0,.8-.1,1.7-.2s1.7,0,1.8,0,.2-.2.3-.3.2-.3.2-.2,0,.2,0,.4c0,.2,0,.2.2.1.2,0,.3,0,.3,0s0,.1.2,0c.2-.2.3-.2.5,0,.1.1.3.1.3,0s.4,0,.8-.1.8,0,1-.1c.2,0,.4,0,.5,0,.2.2,1,0,1-.3,0-.5-.6-.6-1.9-.5-.7,0-1.2,0-1.2,0s-.2,0-.6,0c-.3,0-1.2.1-1.9,0s-1.9,0-2.6-.1c-1.8,0-1.5-.4.5-.4.9,0,2.4,0,3.3-.1s2.1,0,2.5,0c.6,0,.7,0,.6-.2,0-.1-.1-.3,0-.4,0-.2-.4-.2-2.4-.2-3.5,0-7.8-.1-7.7-.3,0,0,1.6-.2,3.3-.2s3.3-.1,3.5-.2.5,0,.7,0c.4,0,.4,0,.1-.3-.2-.3-.3-.3-.4,0-.1.2-.2.2-.2,0,0-.1-.2-.2-.2-.2s-.1,0,0,.2c0,0,0,.2-.3.2-.4,0-.4,0-.1-.2.2-.1.2-.1-.4-.1-.5,0-.7,0-.7.3s0,.2-.2,0c-.2-.2-1-.2-1.4,0-.2.1-.2,0-.1-.1,0-.2,0-.3-.1-.3s-.2,0-.2.2-.2,0-.5,0c-.3,0-.5,0-.7,0-.1.1-.2.1-.3,0,0-.1-.1-.2-.2-.1s-.4,0-.7,0c-.4,0-.6,0-.6,0,0,.1,0,0-.1,0-.1-.2-.2-.2-.6,0-.4.1-.5.1-.6,0,0-.1,0,0,0,0s0,.3.1.3.2.1.2.3.2.3.4.4.3.2.3.2,0,.2,0,.2c0,.2.7,1,1,1.1.2,0,.2.2.2.4-.1.4.4,1.1.9,1.1.2,0,.5,0,.5-.1h0ZM83.4,127.2c0-.1,0-.2-.2-.2s-.2.1-.2.2,0,.2.2.2.2-.1.2-.2ZM85.3,126.7c0,0,0-.1.1,0,.2.1.7-.4.6-.6,0-.2.6-.7.9-.6,0,0,0,0,0-.1s0-.2,0-.2c.3,0,1.5-1.2,1.5-1.5s0-.3-.4,0c-.5.3-1.4,1.2-1.4,1.3s-.7.7-.9.7c0,0-.2.1-.3.3-.1.2-.3.2-.5.1-.2-.1,0-.3.9-1.5.7-.7,1.2-1.3,1.1-1.4s-.2,0-.3.2-.3.3-.4.3-.5.4-1,.8l-.8.8v1.1c.1.6.1,1.1.1,1.2,0,.1.5-.5.5-.7h0ZM72,126.7c0,0,0-.1.1,0,.2.1,1.1-.4,1.2-.7,0-.1.2-.2.2-.2s.3-.2.5-.5.4-.4.4-.3.1,0,.2,0,.2-.3.1-.4c0-.2,0-.2.2-.1.2,0,.5,0,.9-.3.3-.2.6-.4.6-.3s0,0,.2-.2c.2-.3,1.6-1.4,1.6-1.2s.2-.1.5-.4.5-.5.6-.5.4-.2.7-.5.6-.5.6-.5.2-.1.2-.3.2-.2.3-.2.2,0,.2-.1c0-.2,1.1-1.1,1.3-1.1s.3-.2.6-.5.6-.5.7-.5.2,0,.2-.2c0-.3.5-.8.8-.8s.3,0,.4-.2.4-.3.6-.4.5-.3.5-.3c0-.2.5-.7,1.1-1.2.3-.2.6-.5.8-.7s.6-.6,1.1-.9.9-.8,1.1-.9.4-.3.5-.3c.3,0,.3-.3,0-1-.3-.7-.6-.8-.9-.4-.1.1-.3.2-.4.2s-.2.1-.3.2-.2.2-.3.2c-.3,0-4.1,3.2-6.4,5.4-.3.3-.8.7-1.2,1s-.9.6-1.1.9-.6.5-.7.6c-.2.2-1.7,1.4-2.3,1.9-.2.2-.4.3-.4.3-.2,0-2.4,1.7-3,2.3-.4.3-1,.9-1.4,1.2s-.8.7-.8.8c-.2.9-.3,1.4-.1,1.4s.2,0,.2-.2h0ZM105.6,126.2c.2-.1.3-.5.3-.9,0-1.2-.1-6.8-.2-6.9-.2-.2-.3.4-.3,3.7,0,2,0,3.8-.1,4,0,.4,0,.5.4.1h0ZM83.1,126c.3-.3.3-.6,0-.5-.1,0-.2.2-.2.3s0,.1-.1,0-.2,0-.3.2c-.2.2-.1.2.1.2s.4-.1.6-.3ZM109,126.1c0,0,0-.2-.1-.3-.1-.2-.2-.2-.2,0,0,.1,0,.3,0,.3.1.1.4.1.4,0h0ZM104.6,125.7c0-.5,0-6.7,0-7,0-.6-.2-.3-.2.5,0,.7-.1,5.6,0,6.4,0,.4.3.5.3.2ZM107,124.3c0-.8,0-1.6.1-1.6s0-.2,0-.3c-.1-.1-.2-.8-.2-1.7,0-1.6,0-2.3-.3-2.2,0,0-.1,1.2-.1,2.6s0,2.6,0,2.8,0,.7,0,1.2c0,.8,0,1,.3.9.2,0,.3-.3.3-1.6h0ZM108.1,122.2c0-3.3-.1-4.2-.4-3.8,0,0-.1,4.1,0,6.3,0,.7.2,1.3.3,1.2.1,0,.2-1.3.2-3.7h0ZM82.7,124.9c.4-.4.6-.7.6-.8s0-.1,0-.1.1,0,0-.2c0-.1-.3,0-.6.3-.2.3-.5.5-.6.5-.2,0-.7.6-.7.9s.2.3,1.1-.6h0ZM109.1,123.8c0-1.2,0-1.6-.2-1.9-.2-.4-.3-.3-.3.8s.2,2.8.3,2.7c0,0,0-.7.2-1.6h0ZM103.6,124.3c0-.2,0-.5,0-.6.1-.2,0-5.3-.2-5.5-.3-.3-.4.7-.3,3.4,0,1.7.1,3.1.2,3.2.2.3.4,0,.3-.5h0ZM100.9,124.6c0,0,0-.2-.2-.2s-.1,0,0,.2.1.2.2.2,0,0,0-.2ZM81.5,124.3c0-.1,0-.2.2-.2s.4-.2.6-.5.5-.5.5-.5c.2,0,.6-.5.6-.8,0-.1-.1,0-.3.1-.2.2-.4.3-.5.3-.2-.1-1.8,1.3-1.8,1.6s.1.2.3.2.3-.1.3-.2h0ZM95.5,123.9c1.6,0,2.7-.2,2.8-.3.1-.1.1-.1,0,0-.1,0-.2,0-.2,0,0,0-.9-.2-1.9-.2-1.6,0-1.9,0-1.9.2s0,.2-.3,0c-.2-.2-.3-.2-.4-.2s-.6.1-1.3.1c-.8,0-1.3.1-1.5.3-.3.2-.3.3.2.3.3,0,.8,0,1.2,0s1.9,0,3.3-.1ZM96.5,123.5c0,0,.2,0,.3,0,.1,0,0,0,0,0-.2,0-.3,0-.2,0ZM72.8,123.6c0,0,0-.1.2-.1s.6-.3,1.2-.7,1.1-.7,1.1-.7c0,0,.6-.5,1.6-1.4.3-.3.6-.5.7-.5,0,0,.3-.2,1.3-1,0,0,.4-.3.7-.4s.5-.3.5-.4.1-.2.3-.2.6-.4.9-.7.7-.7.8-.7.2,0,.1-.2,0-.2.2-.2.2,0,.2-.1.5-.5,1-.9,1-.8,1-.9,0-.2.2-.1c.2.1.4,0,1.1-.8.3-.3.4-.5.4-.6s0-.1.2-.1c.3,0,.4-.1,2.4-2,.2-.2.6-.5.8-.6.4-.2.5-1,.2-1s-.2-.1-.2-.3-.2-.5-.5-.8-.5-.6-.5-.8c0-.2-.1-.2-.2,0,0,0-.3.3-.5.4s-.4.3-.4.5-.1.4-.2.6-.2.3-.2.4c0,.3-.5.2-.8,0-.3-.3-.3-.2-.4,0,0,.2-.2.3-.2.4s-.2.4-.4.7-.3.6-.4.5-.2-.5-.2-1,0-1-.1-1.1-.1-.4-.2-.7c-.1-1-.4-1.2-1.2-.6-.9.6-.9,1.1-.2,1.8,1.5,1.6,1.6,1.7,1.3,1.8-.3.1-.3.1,0,.3.3.2.3.2,0,.2-.2,0-.4-.1-.5-.2-.2-.1-.5.1-.5.5,0,.1,0,.2-.2.2s-.2.2-.3.4c-.1.5-.2.5-.5.2-.1-.1-.2-.5-.2-1s0-.8-.1-.8-.1-.5-.2-1,0-1,0-1c0,0-.8.4-1.1.7-.1,0-.4.4-.7.6-.6.5-.6.8-.2.8s.3,0,.3.2.5.6,1,1.2,1,1.1.9,1.1-.1.1,0,.3c0,.2,0,.2-.4.2-.4,0-.5,0-.5.2,0,.4-.6.6-.8.3-.2-.3-.6-.3-.6,0,0,.3-.2,1.3-.4,1.3s-.2-.4-.2-3.2v-1.6s-.5.3-.5.3c-.3.2-.7.6-1,.9s-.6.5-.7.5c-.2,0-3.1,2.3-3.8,3-.3.3-.6.5-.7.5-.3,0-.2-.3-.3,3.6,0,1.8,0,3.6-.1,3.9,0,.3,0,.6,0,.7.2.1.6,0,.6-.2h0ZM73.5,119.9c0-.1,0-.5,0-.9s0-.7,0-.7c-.2-.1-.4-2.4-.2-2.6.3-.3,1,.2,1.1.7,0,.2.2.4.3.3.1,0,.2,0,.2.1s0,.3.1.3c.2,0,1,1.3.9,1.3,0,0-.3,0-.5,0s-.4,0-.4.1c0,1.1-.2,1.3-.5,1.1-.3-.2-.6,0-.5.2,0,.1,0,.3-.2.3-.2,0-.3,0-.3-.2h0ZM76.7,117c0-.1-.2-.5-.3-.9s-.2-1.1-.3-1.5c-.1-.6-.1-.8,0-1s.2-.2.3,0c0,.1.2.2.3.2.2,0,.9.7.9,1s0,.2.2.2.2,0,.2-.2c0-.3.6.2.9.7.1.2.3.5.3.6,0,.2-.8,0-.9-.1-.2-.5-.4-.3-.4.3s0,.6-.3.6-.3.1-.3.2c0,.3-.2.3-.4,0h0ZM85.5,123.3c.3,0,1.4-1.3,1.3-1.4,0,0-.2,0-.3.2s-.2.3-.3.2c-.2-.2-1.1.9-1,1.2,0,.2.1.2.2,0,0-.2.1-.3.2-.3h0ZM98.8,123.6c0,0-.1-.2-.2-.2s0,0,0,.2,0,.2.2.2.1,0,0-.2ZM80.7,123.4c0,0,.2-.3.4-.4s.4-.3.5-.5c0-.4,0-.4-.8.2-.4.3-.6.5-.5.5.2,0,.2,0,0,.2-.2.1-.2.1,0,.1.2,0,.3,0,.3-.2h0ZM102.4,121.3c0-1.2,0-2.4,0-2.7,0-.3,0-.4-.2-.4-.1,0-.2.7-.2,2.3,0,2.6,0,3,.3,3s.2-.5.1-2.2h0ZM87.6,122.7c0-.2,0-.2,0-.1s-.2.2-.3.2-.2,0-.1.2c.2.3.5,0,.5-.3h0ZM80.1,122.5c.3-.2.3-.2,0-.2-.4,0-.8.4-.6.5,0,0,.1,0,.2,0s.2-.2.4-.3ZM91.7,122.7c.9,0,1.1-.2.5-.5-.3-.2-.5-.2-.6,0-.1.1-.3,0-.5,0-.2-.1-.5-.2-.9,0-.6.1-.6,0-.6-.2s.1-.3.2-.3.2,0,.2-.1,1-.1,2.1,0c2.1,0,2.1,0,1.9-.3-.3-.4-.4-.4-.3,0,0,.2,0,.2-.5.1-.7-.1-.9-.1-1.2,0-.2,0-.3,0-.2,0,0-.1-.2-.2-.7-.2-1.2,0-2.6-.2-2.6-.4s.3-.2,2.1-.3c1.3,0,1.6-.1,1.3-.4s-1.1-.4-1.1-.2c0,.2,0,.2-.2,0,0-.1-.2-.2-.2,0s-.4.1-.8.1c-1.3,0-1.7,0-1.9.3-.2.3-.1.3.3.7.3.2.5.4.5.5,0,.3,0,.5.3.8.2.2.3.4.3.5s.2.2.4.3.3.1.2.2,0,0,.2.2.6,0,.8,0,.6-.1.9-.1ZM94.9,122.2c0-.2,0-.4,0-.4s-.4,0-.9.2c-.7.1-1,.1-1.1,0-.3-.3-.3,0,0,.3.2.3.5.3,1.1.3s.8,0,.9-.4ZM96.4,122.4c.6-.1,1-.3,1-.3s-.2-.1-.3,0c-.5.2-1.1.2-1.1,0s-.1-.2-.2-.2c-.2,0-.7.3-.7.6s.2.2,1.4,0ZM98.4,122.3c.3-.1.3-.1,0-.2-.2,0-.3,0-.4,0,0,0-.1.1-.2,0s-.2,0-.2,0c-.1.2.3.2.8,0ZM82.3,122c0-.1,0-.2.2-.2s.1,0,0-.2c-.1-.2-.7.1-.7.4s.1.2.2.2.2-.1.2-.2h0ZM85.4,122c.2-.5,0-.5-.4-.1l-.4.4h.4c.2,0,.4-.1.5-.2h0ZM82,120.9c.7-.7,1.2-1.3,1.2-1.3-.1-.1-.7.4-.7.5s-.8.8-1.2,1c-.2,0-.3.2-.3.3s0,.2-.3.2-.4.2-.4.3c0,.5.6.2,1.8-1h0ZM101.2,120.4c0-1,0-1.6-.2-1.6s-.2.4-.1,1.1c0,.6,0,1.2,0,1.3,0,.3,0,.7.2.7s.2-.6.2-1.6ZM63.8,121.1c0-.3-.1-.7-.3-.9s-.2-.6-.2-.8c0-.4,0-.6-.3-1.4,0-.2-.2-.8-.2-1.2s-.1-1-.2-1.3c-.2-.8-.2-4,0-4.4.1-.3.1-.5,0-.6,0,0-.2-.3-.2-.5,0-.4.8-2.4,1.1-2.8.1-.1.6-1,1-1.8s.8-1.6.9-1.6.1-.1.1-.2.2-.6.5-1.2.5-1.1.4-1.1.2-.4.5-.8.7-1.2.8-1.7.4-1,.5-1.2c.5-1,1.3-4.2,1.7-6.6.3-2.1.2-2.4-.5-2.1-.4.1-.4.3-.4,1s-.1,1.2-.2,1.6-.3,1.2-.3,1.6c-.1.9-1.6,5.9-1.8,6,0,0-.2.3-.2.7s-.3.7-.4.8-.3.3-.3.4,0,.3-.2.4-.4.6-.6,1-.4.9-.5.9c0,0-.7,1.1-1.4,2.5-.7,1.3-1.2,3.8-1.3,5.9,0,1.7.2,5.1.4,5.3.2.1.5,1.7.5,2.2,0,.2,0,.5.1.5s.2.1.2.2c0,.4.6,1.8.8,1.7,0,0,.2-.3.2-.6h0ZM85.9,121.2c0-.1,0-.2-.2-.2s-.1.2,0,.3c.1.2.2.2.2-.1ZM96.1,121c0,0-.2-.2-.5-.1s-.4,0-.4-.1-.1,0-.2,0c-.2.2-.2.2,0,.3.4.2,1.1,0,1.1,0ZM98,121.1c.1,0,0-.1-.6-.2-.4,0-.8,0-.8.1,0,.2,1.1.2,1.4,0ZM85.1,120.5c0-.1,0-.2.2-.2s.2-.1.2-.2c0-.3-.1-.3-.5,0-.4.3-.4.7,0,.7s.2-.1.2-.2ZM94.4,120.1c.7,0,1.6,0,1.8,0,.3,0,.5,0,.6.2,0,.2.2.2.2,0,0-.1.1-.2.3-.2s.3,0,.3-.2-.1-.2-.3-.2c-.2,0-.2,0,0-.2s.2-.2,0-.2c-.2,0-.3,0-.3.2s-.2.1-.4,0c-.2,0-.4,0-.5,0,0,.1-.2.1-.3,0-.2-.1-.2-.1-.2,0s-.2.2-.4.2-.4,0-.3-.2c0,0,0-.2-.4-.2s-.7,0-1-.1c-.4,0-.5,0-.4.1,0,.2,0,.2-.2.1-.2,0-.4,0-.4.2-.1.3.2.6.5.4,0,0,.8-.1,1.5-.1h0ZM100.3,119.2c0-.8,0-1-.1-.8-.2.6-.2,1.9,0,1.9s0-.5,0-1.1h0ZM90.2,118.9c1.4,0,2.5,0,2.5-.1.2-.2,1-.3.9-.2,0,0,0,.2.2.2s.3,0,.3-.2.2,0,.5,0c.7.2.7,0,.2-.3-.4-.3-.9-.3-4-.3-3.6,0-4.5,0-4.1.5.1.1.3.4.4.5.2.3.3.3.4,0,.1-.2.6-.3,2.6-.3h0ZM99.2,118.6c0-.2,0-.3-.2-.3s-.2.2-.2.4,0,.4.2.3c0,0,.2-.2.2-.4h0ZM96.6,118.4s-.2,0-.4-.1-.4,0-.3,0c0,.1.7.2.7,0ZM94.3,117.2c.6,0,1.4,0,1.8,0,.4,0,.7,0,.7-.2,0-.1,0-.1.1,0,0,.1.2.2.3.1s.2,0,.2,0,1.1.1,2.4.1c6.6-.1,6.9-.1,6.9-.3s0-.2.2-.2.1.1,0,.2c-.1.3,0,.3.3,0,.1-.2.2-.2.2,0,0,.3,1.6.3,1.9,0,.1-.1.2-.5.2-.8,0-.6,0-.6-.5-.7-.6,0-2.5,0-3.9.1-.5,0-1.7.1-2.6.2s-2,.1-2.4.2-1.5,0-2.4,0-1.7,0-1.8,0c-8.3.2-8.2.1-8.7.5-.5.3-.7.5-.7.8,0,0,.1,0,.2,0,.2-.2.3-.2.4,0,.2.2,2.8.3,2.8,0s0-.2.2-.2.1,0,.1.2c0,.1.4.2,1.2.3.7,0,1.2.1,1.3.1s.1,0,.2,0,.7-.1,1.3-.2h0ZM87.6,116.8c0,0,.2-.2.3-.2s.3,0,.3.2c0,0,0,.2-.3.2s-.4,0-.3-.2ZM64,116.5c0-.2-.1-.8-.2-1.3s-.2-1.3-.3-1.9c-.2-.9-.2-1-.3-.7-.2.6,0,3.5.4,3.7,0,0,.1.2.1.4s0,.3.2.2c0,0,.1-.3,0-.5h0ZM96.1,115.1c-.2-.1-.2-.2,0-.3.1,0,.3,0,.3.2.2.3-.1.3,5.9,0,2.8-.1,4.9-.1,5,0,0,0,.2,0,.5-.1.3-.2.4-.2.6,0,.2.1.3.1.6,0,.2-.1.4-.3.5-.4.2-.2-.2-.8-.4-.8s-.2,0-.2-.2-.1-.4-.3-.6-.3-.5-.2-.7c0-.3-.3-.8-.6-.8s-1-1-1-1.2-.2-.3-.4-.5c-.3-.4-.4-.4-.4-.2s.1.3.2.4.3.4.5.8c.2.6.2.7,0,.9-.2.1-.4.2-.6.1s-.4,0-.4,0,0,.2-.2.2-.1,0,0-.1,0-.3-.2-.4-.2-.2-.2-.2,0,.2,0,.3,0,.4,0,.7,0,.5-.2.5c-.1,0-.2-.5-.4-1.7-.3-1.9-.4-2.9-.6-3-.2-.1.2-.6.5-.6s.3,0,.2.1,0,.2.2.4.2.3.2.4,0,.2.2.1.2,0,.2.1c0,.3.6.5.8.4,0,0,0-.3-.3-.5s-.4-.6-.4-.7-.2-.4-.5-.6-.4-.3-.4-.4,0-.2-.2-.3-.3-.3-.3-.4-.2-.3-.5-.4c-.5-.2-1.5-.2-3.3,0-.3,0-1,.1-1.6.2s-2.1.3-3.3.4-2.7.4-3.3.5-1.2.2-1.3.3c-.1.1.4,1.2.6,1.2s.1.1.1.3.1.4.3.4.3.2.3.3c0,.3.6.9.9.9s.2-.2.2-.6c0-.8.3-1.5.5-1.5.1,0,.3.4.4.8s.4.9.7,1.2.4.5.3.6,0,.3.2.5c.4.6.2.9-.4.8-.5,0-.5,0-.5.4s.2.8.3,1c.9,1.4,1.5,2,1.7,2s.2,0,0-.2h0ZM100.1,112.1c-.1-2.7,0-4.8,0-5,.3-.2,1.4.8,1.7,1.6.1.3.3.5.3.5s.1,0,.1.2.1.4.3.6c.4.5.4,1.2,0,1.2s-.3-.1-.4-.2c-.2-.5-.4-.3-.4.3s-.3.8-.5.2c-.4-1-1-1.2-.9-.3,0,.6,0,1.4-.3,1.4s-.2-.2-.2-.5h0ZM96.3,110.7c0-.8,0-1.9,0-2.3,0-.5,0-.9.2-1.1.2-.2.3-.2.4.1.1.2.3.4.4.5s.2.4.3.7.3.8.5,1,.4.4.3.4,0,.4.2.8.3.9.3,1.1c0,.3-.3.3-.6,0-.1-.1-.2-.2-.1-.2s0-.1-.3-.3c-.4-.3-.4-.3-.6,0-.1.2-.2.4-.3.4s-.2.2-.5.2h-.4c0,.1,0-1.4,0-1.4ZM90.1,115.1c0,0,.9-.1,1.9-.1s1.9,0,1.9-.1,0-.1,0-.1-.2,0-.2-.2c0-.3-.2-1.1-.3-1.1s-.2-.1-.2-.3-.2-.4-.4-.5c-.4-.2-.8,0-1.5.6-.2.2-.7.7-1.2,1s-.8.8-.8.9c0,.2.7.2.9,0h0ZM73.4,114.1c.3-.2.6-.4.6-.5s.2-.3.4-.4.6-.4.8-.6.4-.4.5-.3.2-.1.3-.3.2-.3.3-.2.2,0,.2-.2.3-.4.5-.6.5-.3.5-.4,0-.2.1-.2.3-.1.4-.3.6-.5,1.1-.8,1-.8,1.4-1.2.7-.7.8-.7c.2,0,2.5-2.1,2.6-2.3,0,0,.1-.1.2-.1s.5-.4,1-.8c.9-.9,1-1.3.3-1.7-.3-.2-.5-.2-.9,0-.3.2-.5.4-.5.4,0,.1-2.3,2-2.5,2s-.2.2-.4.4-.6.6-.9.8-.6.4-.6.5,0,.1-.2.1-.4.2-.5.3-1,.9-1.9,1.7-1.6,1.4-1.6,1.5-.1.2-.3.3-.6.4-.9.7-.8.7-1.1.9c-1,.8-1.2,1-1.2,1.6,0,.4.1.7.2.7s.1.2,0,.3,0,0,.2,0,.6-.4.9-.6h0ZM109.5,112.1c0-1,0-7.8,0-8,0-.1-.3,0-.7.4-.3.3-.9.9-1.3,1.3s-.8.9-.9,1.1c-.3.5-.2,1,0,1.1.1,0,.2.2.2.4s.2.4.4.6.4.4.4.5,0,.2.2.3.2.4.2.8c0,.6,0,.7.4.7.2,0,.3,0,.3.2,0,.3.5,1,.6,1s.2-.1.2-.3h0ZM72.6,111.4c.4-.3,1.3-1,1.9-1.5s1.3-1,1.5-1.2.5-.5.9-.7.6-.5.5-.6c0,0,0-.1,0,0,0,0,.3,0,.5-.2s.4-.4.6-.4.2-.2.2-.3.1-.2.4-.4.5-.3.5-.3c0-.1,1.4-1.2,1.5-1.2s.2-.1.4-.3.6-.6,1.1-.9c1.2-1,1.5-1.3,1.5-1.5s.1-.2.2-.2.2-.1.2-.4c0-.5-.7-1.6-1-1.7-.1,0-.2-.2-.2-.3s-.2-.3-.4-.4-.4-.3-.4-.4-.1-.3-.2-.3-.2-.2-.2-.2c0-.1-.1-.3-.6-.9-.1-.1-.2-.3-.2-.4s-.1-.2-.2-.4-.5-.6-.7-1c-.4-.6-.6-.7-.9-.7s-.5,0-.5-.2-.2-.2-.3-.2-.3-.2-.4-.3-.4-.3-.5-.3-.4-.1-.4-.3c0-.2-.3-.3-.7-.4-.4,0-.8-.2-.9-.4-.1-.2-.6-.5-.9-.7s-.7-.4-.7-.5-.3-.4-.8-.7-.9-.8-1-1-.3-.5-.5-.6-.3-.2-.3-.3-.1-.2-.2-.2c-.3,0-.5.6-.4,1.1,0,.5-.6,4.1-1.1,5.8-.3,1-1.3,3.8-1.5,4-.5.5-.7,1.6-.4,1.8.1,0,.2.2.2.3s.1.5.3.8.4.9.6,1.4.5,1.2.7,1.6.4.8.4.9.2.5.4,1,.5,1.3.6,1.8.2,1,.3,1.1.1.3.1.5c0,.6.4,1.6.5,1.6s.4-.3.8-.6h0ZM49.3,109.5c.3,0,.6-.3.7-.3.2-.2,1.1-2.8,1.2-3.8,0-.3.2-.8.2-1.1,0-.4,0-.6,0-.7,0,0-1-.2-2-.2-1.8,0-3.5-.1-4.9-.3-.6,0-.7,0-.7.3,0,.2-.3,1.4-.7,2.7l-.6,2.3.4.4c.2.2.5.3.6.3s.2,0,.2,0,.3.2.5.2.4,0,.5.2c.4.4,3.4.5,4.5.1h0ZM45.4,108s.1-.4.3-.8.4-1,.6-1.3c.2-.5.7-1.5,1.1-2.1.4-.6,1,.9,1.2,2.8,0,.8,0,1.1,0,1,0,0-.2,0-.2.1-.1.3-.2.1-.3-.5-.1-.8-.2-.8-.6,0-.4.9-.7,1-.6.2,0-.3,0-.6,0-.6-.1,0-.8.8-.8,1s-.1.2-.2.2-.2,0-.2,0h0ZM50.2,105.1c0,0,0-.2.2-.2.2,0,.2.1,0,.2,0,0-.2,0-.2,0ZM40.1,109.3c1.2-.2,1.6-.6,1.9-2.2,0-.2.1-.4.2-.6s.2-.6.3-1l.3-1.1c0-.2.1-.6.2-.9,0-.5,0-.6-.3-.7-.2,0-.5,0-.7,0s-.6,0-.9,0-1.5-.2-2.7-.2-2.4-.1-2.6-.2c-.8-.2-1.5-.2-1.7,0-.4.4-.7,2.2-.5,3.5,0,.5.8,1.9,1.1,2.3.4.4,1.7,1.1,2,1.1s.2,0,.2.2c0,.2,1.8.3,2.5.1.3,0,.7-.2,1-.2h0ZM37.2,107.5c0,0-.1-.3-.1-.6s0-.5-.2-.4c-1,.4-1.2.3-.5-.5.9-1,1.1-1.3,1.4-1.9.2-.3.4-.6.4-.6.5-.1.5-.1.7,1.3,0,.4.2,1,.2,1.4,0,.4,0,.8,0,1.1l-.2.4-.2-.5c-.1-.3-.2-.6-.2-.7,0-.5-.4-.2-.6.4-.2.6-.4.8-.7.6h0ZM86.9,106.8c0-.4-.2-1-.3-1.3-.1-.3-.1-.5,0-.7.1-.1.3-.2.3-.2s.1,0,.1,0c0-.3-.5-.2-1.2.4-.4.3-.7.6-.8.7-.1.2,0,.8.2.9,0,0,.1.1.1.3s.3.4.7.6.7.4.6.4,0,.2,0,.3,0,0,.1-.1,0-.7,0-1.2ZM107.2,105.2c2.4-2.6,2.4-2.6,2.4-3.3,0-.5,0-.7-.2-.8-.1,0-.2-.2-.2-.3s0-.2-.2-.2c-.2,0-1.6-1.4-1.6-1.6s-.1-.2-.2-.2-.2,0-.2-.2-.1-.2-.2-.2-.2,0-.2-.1-.2-.2-.4-.4-.6-.4-.8-.6c-.6-.6-1.1-.5-2,.6-.5.5-1.2,1.3-1.7,1.8s-.8,1-.8,1.1-.1.2-.2.2c-.5,0-.2.5.8,1.4,2.2,2.1,2.7,2.5,3.3,3.2.2.3.5.6.5.8.2.7.7.5,2.1-1.1h0ZM105.5,104.2c0,0-.2-.4-.3-.7s-.3-.6-.3-.6-.1-.1-.1-.2,0-.2-.2-.2-.2-.2-.3-.4-.2-.4-.2-.4-.1,0-.1-.2-.1-.4-.3-.6-.3-.6-.3-.8c0-.6.5-.5,1.3.2.4.3.9.6,1.1.6s.4,0,.3.2.2.3.5.5c.6.3.6.3.2.4-.3,0-.4.2-.3.7,0,.6,0,.7-.5.7-.2,0-.6.8-.3.8.1,0,.1,0,0,.2,0,0-.2,0-.3,0h0ZM90.3,106c0-.2.6-.2,1.8,0,.2,0,.4,0,.4-.1s.6-.2,1.2-.2,1.1-.1,1.2-.2.8-.2,1.7-.2,1.9-.2,2.3-.3c.4-.1,1.1-.2,1.6-.2s1,0,1.1,0c.4,0,.2-.7-.4-1.3-.6-.5-.6-.6-1.6-.5-.5,0-1.1.1-1.1.2s-.5.1-.9.1-.8,0-.9.1-.3.1-.4.1c-.8.1-2.2.3-2.6.3-.4,0-1.3.2-3.1.6-.4,0-1,.2-1.3.2s-.6,0-.6.3.1.3.2.3.2.2.1.3,0,.2.1.2.2.1.1.2c0,.1,0,.3.2.3.4.1.9,0,.9-.2h0ZM90,103.6c.4,0,.7,0,.7,0s.2,0,.5,0,.7,0,.8-.1.7-.1,1.2-.2c.6,0,1-.1,1.1-.3,0-.2.3-.2.7-.1.3,0,.7,0,.8,0s.3-.1.5-.1c.7,0,1.7-.3,1.7-.5,0-.1,0,0,.1,0,.2.3.8.1.8-.2s-.4-.6-.8-.5c-.3,0-.3,0-.3-.3s-1-1.4-1.3-1.4-.6-.5-2.6-2.4c-.5-.5-.9-.9-1-.9s-.4-.3-.8-.6-.7-.6-.8-.6-.3-.2-.6-.4-.8-.7-1.1-1-.9-.8-1.1-1-.5-.4-.5-.4-.4-.3-.7-.6-.6-.5-.7-.5-.2-.1-.3-.3-.3-.4-.3-.4-.6-.5-1.2-1.1-1.1-1.1-1.3-1.1-.5-.3-.9-.7-.8-.7-.8-.7-.4-.3-.7-.6c-.8-.8-1.2-.8-1.3.1-.1.7-.4,1.2-.9,1.3-.2,0-.2,3.4,0,3.7,0,.1.1.3,0,.4s0,.2,0,.2.3.3.4.6.3.5.4.5.1,0,.1.2,0,.3.2.3.2,0,.2.2c0,.3.4.6.7.6s.3,0,.3.2,0,.2-.2.2,0,.2.3.4.5.4.6.4,0,0,0,.2.2.4.5.8c.7.7,1.5,1.8,1.5,2s0,.2.2.2.2.1.2.2,0,.2.2.2.2,0,.2.2c0,.3,1.2,1.8,1.3,1.7,0,0,.2,0,.2.2s.2.4.3.5.2.3.2.3.3.4.7.9c.7.7.8.7,1.4.6.4,0,.9-.1,1.3-.1h0ZM51.7,102.2c.3-.4.5-1.6.5-1.9,0,0,0-.4.1-.8.3-1.3.5-3.1.3-3.4,0-.1-.7-.2-1.3-.2-1.5,0-2.2,0-4.1-.3-1.4-.1-1.5-.1-1.6.2-.3,1-1.4,5.6-1.4,5.8,0,.5.7.7,2.9.8,4.2.3,4.3.3,4.6-.2h0ZM48.7,101.2c0,0-.1-.3-.1-.5,0-.4-.3-.7-.4-.4,0,.3-.5.2-.5,0s-.3-.3-.8.3c-.3.4-.5.5-.6.3-.2-.2-.2-.2.4-.9.3-.3.8-1.3,1.7-3.3.4-.8.7-.7.9.1,0,.4.2.8.3.9s.2.6.2,1,.2.8.2.8,0,.4,0,.7c0,.8-.4.8-.5,0v-.5c0,0-.4.7-.4.7-.2.4-.4.6-.4.6h0ZM43.1,101.9c0-.1.2-.5.3-.9s.2-1.3.4-2,.3-1.8.4-2.4v-1.2c.1,0-.8,0-.8,0-.8,0-4-.4-5.5-.6-.5,0-.6,0-.9.4-.2.3-.3.6-.3.8s0,.4-.2.5-.2.4-.2.6c0,.4-.8,2.1-1.5,3.3-.5.8-.4,1.2.2,1.2.8,0,2.7.1,2.9.2.1,0,.9.1,1.7.2s1.5.1,1.6.2c.2.2,1.8,0,1.9-.1h0ZM37.4,100.3c0-.1.3-.5.6-.9s.9-1.3,1.3-2.1c.6-1.2,1-1.7,1.2-1.5,0,0,.1.3.2.6s.3,1.1.5,1.8.3,1.3.3,1.4c-.1.3-.6.3-.6,0s-.4-.3-.7.2c-.4.8-.7.6-.8-.4,0-.2,0-.4-.1-.4s-.5.3-.9.7c-.8.8-1,.9-1,.5h0ZM58.4,100.8c0-.4-.2-.8-.2-.9-.3-.3-.2-5.2,0-6.9.2-.9.3-1.6.4-1.7s.2-.3.2-.5c.1-.6.4-1.5.6-1.7,0,0,0-.2,0-.3s0-.3.1-.5c.2-.4,0-1.5-.2-1.5s-.9,1.5-1.3,3c-.6,2.2-.9,4.1-.9,5.8,0,.9,0,1.8,0,2.1s0,.7.2,1,.2.6.2.8,0,.3.1.3.2.2.2.4c0,.5.3,1.1.5,1.1s0-.3,0-.7h0ZM100,100.5c0-.1.2-.4.4-.6s.4-.5.4-.6.2-.4.5-.5.6-.5.8-.8.4-.5.5-.5.2,0,.2-.2.2-.4.4-.6c.6-.6.5-1-.6-1.9-.5-.4-1-.8-1.1-.8,0,0-.3-.2-1.2-1-.2-.2-.3-.3-.4-.3,0,0-1.2-.8-1.3-1,0,0-.9-.5-1-.5s0,.1,0,.2-.1.3-.3.5c-.4.3-1.4,1.7-1.4,1.9s-.1.2-.2.2-.2,0-.2.1-.2.3-.4.6c-.9,1-.9,1.1-.3,1.7.3.3.6.5.7.5s.1,0,0,.2.1.2.4.3c.3,0,.5.2.5.4s0,.2.2.1.2,0,.3.2.4.5.8.7.9.7,1.3,1.1c.7.6,1.3.9,1.3.5h0ZM99.2,99.2c0,0-.4-.5-.6-.9s-.5-.8-.6-.8-.1-.1-.1-.3c0-.4-.5-1.4-.7-1.5-.1,0-.2-.2-.2-.3s-.1-.3-.3-.4c-.2-.2-.2-.3,0-.5.1-.2.3-.2.7-.1.3,0,.5.1.5,0s.2,0,.3.2.3.3.5.3.3,0,.4.2.2.2.4.2.3.1.3.2.1.3.3.3c.8,0,1.6.5.9.5-.6,0-.7,0-.8.2,0,0,0,.3.1.6.3.6.3.9,0,.9h-.4c-.1,0-.3,0-.4,0s-.1,0,0,.2,0,.5.2.6c.2.3,0,.6-.3.4h0ZM59.7,99.3c.4-.6.5-.8.5-2.4,0-1.9.5-5.7.7-5.9,0,0,.1-.2.1-.2s0-.3,0-.4c.1-.4.4-1.5.4-1.8,0-.1-.1-.3-.3-.4-.4-.2-1,0-1,.4s-.1.5-.3.9c-.4.8-.4,1.2,0,1.3.3.1.4.7.3.8,0,0-.3,0-.5.1-.4,0-.4.1-.7,1.4-.1.7-.2,1.7-.2,2.1,0,.6.1.8.5.8.4.1.7.7.3.7s-.3,0-.3.2-.1.2-.3.2c-.2,0-.2.2-.2,1.2,0,1,.3,1.8.5,1.8s.3-.3.5-.7h0ZM59.1,98.7c-.1-.2,0-.5.3-.5s.2.1.2.3c0,.3-.4.5-.5.2ZM59,95.1c0-.6.4-.9.8-.5.1.1.1.2,0,.4-.2.3-.7.3-.7,0ZM59.1,93.3c0-.3.5-.8.7-.7,0,0,.1.3.1.5,0,.3,0,.4-.4.4s-.4,0-.4-.2ZM60.3,89.6c0-.5.5-.6.6,0,0,.2,0,.4-.3.4-.3,0-.3,0-.3-.4h0ZM109.7,97.1c0-1.5,0-3.1-.1-3.5,0-.8-.2-.9-.7-1.3l-.6-.5-.7.7c-2,2.2-2.7,3.5-2.1,3.5s.2.1.2.3.2.3.4.4.4.3.4.3.1.1.2.1.2.1.2.2,0,.2.2.2.3.1.3.3.2.3.3.3.3,0,.3.2,0,.1.1,0,.2.1.3.4.3.6.5.7c.6.4.7.3.7-2.5h0ZM33,96.8c0-.1.1-.6.3-1,.5-1.2.9-5.2.5-5.3,0,0-.2-.1-.2-.3,0-.3-1.2-.3-1.4,0-.2.3-.3,2.1,0,2.3.1.1.2,0,.3-.5.1-.7.5-1.3.7-1.1,0,0,.1,1,.1,2.1,0,1.9,0,2-.4,2.2-.3.1-.3.3-.3,1.1,0,.5,0,.9,0,1,0,.1.3-.2.3-.4h0ZM61.4,96.1c0-.2.2-.8.3-1.4s.3-1.3.3-1.7c.1-.6.4-4.1.2-3.6,0,.2-.1.3-.2.3s-.1.2-.1.4,0,.5-.2.5-.2.2-.1.3,0,.3,0,.4c-.3.8-.6,3.7-.4,4.8,0,.2.3.1.4-.2ZM93.7,94.6c.3-.3.6-.7.6-.8s0-.2.2-.2c.3,0,1.7-1.6,1.7-1.9,0-.1,0-.2.2-.1s.2,0,.2-.2,0-.3.1-.3c.3,0,.3-.9,0-1.2-.4-.4-1.1-.8-1.3-.8,0,0-.1,0-.1-.2s0-.3-.1-.3c-.2,0-1.1-.8-1.8-1.5-.4-.3-.8-.6-.9-.6s-.4-.2-.7-.5l-.5-.5-1.5,1.7c-2.4,2.5-2.6,2.9-2.4,3.2.1.1.2.2.3.2s.3.2.6.5.6.6.7.6.1,0,.1.2.1.2.3.2.4.1.4.3.2.3.3.3.4.2.6.4.5.4.5.4c0,0,.7.5,1.5,1.3.2.2.4.4.5.4s.3-.3.6-.6h0ZM92.4,92.9c-.2-.4-.3-.8-.3-.8s-.1-.3-.4-.5-.4-.5-.4-.5c0-.3,0-.6-.2-.6s-.4-.3-.6-.7-.3-.6-.3-.6,0,0-.2,0c-.1,0,0-.2.2-.4.3-.3.4-.3.5,0,.1.1.5.3.8.4s.6.3.7.4.3.3.6.3.7.3,1,.4.6.3.7.3.3.1.3.3c.1.4.1.4-.2.4s-.2,0-.2-.1c.1-.2-.7-.3-.9-.1,0,.1,0,.3,0,.4.3.4.2.7-.2.6-.3,0-.3,0-.3.6,0,1-.2,1.1-.7.2h0ZM52.6,94.7c.1-.1.3-.6.3-1,0-.9,0-4.7,0-4.7,0,0-.7,0-1.5,0s-1.7,0-2.1,0-1.1,0-1.7,0h-1s-.2.7-.2.7c-.4,1.5-.7,4.3-.6,4.7,0,.1.1.2.2.1s.2,0,.4,0c.2.2,3.4.3,3.6.1,0,0,.2,0,.3,0s.4.1.7,0c.4,0,.5,0,.3.1-.2.1,0,.2.4.1.4,0,.7-.1.9-.3h0ZM47.5,93.4c0,0,.2-.5.5-.9.3-.4.5-.9.6-1.2.2-.8.7-1.9,1-2,.4-.2.8.7,1.1,2.1,0,.3.2.8.3,1s.2.6.2.8c0,.4-.6.4-.8,0,0-.2-.1-.3-.2-.3s-.1.1-.1.3-.1.3-.4.3-.4,0-.3-.3c.1-.4,0-.4-.4,0-.2.2-.2.2-.5,0s-.3-.2-.5,0c-.3.3-.5.3-.5.1h0ZM105.3,94.2c0-.3.3-.6,1-1.4.6-.7,1-1.3,1-1.6,0-.2-.4-.6-1-1-.5-.4-1-.7-1-.8s0-.1-.2,0-.4-.1-.6-.4c-.8-.8-.9-.9-1.1-.9s-.2,0-.3-.2-.2-.3-.4-.4-.4-.3-.7-.5c-.3-.2-.5-.3-.7-.1-.1.1-.2.3-.2.4s-.1.2-.3.2-.3,0-.3.2-.2.3-.4.6-.4.5-.4.6,0,.2-.2.2c-.2,0-1.1,1-1.1,1.3s.1.2.3.1c.2,0,.3,0,.2,0s0,.4.6.8c.5.3.9.7.9.8s.4.3.7.4.6.4.6.5.1.3.2.3.4.2.5.4c.3.5.8.6.6.2,0-.1,0-.4,0-.5s-.2-.4-.4-.6-.5-.6-.6-.9-.3-.5-.3-.4-.2-.2-.4-.5-.3-.6-.4-.6-.2-.2-.2-.3-.1-.5-.2-.6-.2-.3-.2-.3.5,0,1-.1c.7,0,.9,0,.9.1s.4.5,1,.7,1.1.7,1.3.9c.3.3.3.3-.1.3s-.4,0-.4.5c0,.6-.2.9-.5.8-.3-.1-.4.3-.1.4,0,0,0,.5,0,1-.1.9,0,1,.6.9.1,0,.2,0,.2.1,0,.3.9-.4,1.1-.7ZM44.6,94.5c.2-.2,1-4.7,1-5.4s0-.4-1-.6c-.5,0-1.4-.2-1.9-.1s-.9,0-.9-.1-.1-.1-.3,0-.3,0-.4,0-.5-.2-1-.2c-.9-.1-1.1,0-1.3.8,0,.3-.2.9-.4,1.3s-.3,1.1-.4,1.3-.2.9-.3,1.4c-.3,1-.2,1.3.6,1.3.3,0,.8,0,1.2.2s.7.1.8,0,.1,0,.1,0,.6.2,1.3.2,1.3,0,1.3,0c.1.1,1.4,0,1.5-.1h0ZM39,93.7c0,0,0-.2,0-.3s.2-.2.2-.3.1-.4.3-.6.4-.6.6-.9.3-.7.4-.8.3-.7.6-1.2c.7-1.5,1.1-1.3,1.6,1.2.2.7.3,1.4.4,1.4s.1.2.1.5c0,.7-.5.8-.8.1-.3-.6-.7-.5-.9.2-.2.7-.5.6-.6-.1,0-.3-.1-.5-.2-.5s-.4.3-.8.8-.7.7-.7.6,0,0-.1,0c0,.1-.2.2-.2,0h0ZM78.1,92.1c0-.2-.1-.4,0-.4s0,0,0-.2-.1-1-.1-1.9c0-1.5,0-1.8.4-2.3.6-1,1-2,.9-2.4-.1-.4-2.2-2.5-2.6-2.7-.3-.1-1.1-.8-1.4-1.3-.2-.4-.8-.1-1.1.5-.2.3-.7.9-1.1,1.4s-1,1.2-1.1,1.6c-.3.7-.5,1.9-.2,1.8,0,0,.1-.2.1-.3,0-.3.3-.3.4,0,0,.2.1.8.2,1.4,0,.7.2,1.2.3,1.4.1.1.3.2.3.2,0,0,.2-1.6.3-2.2,0,0,.1-.1.2-.1s.2.3.3,1.3c0,1,.1,1.4.3,1.5.2.1.3.3.3.5s0,.3.2.1c0,0,.2-.8.2-1.5,0-1,0-1.3.3-1.3s.2.2.3.7c0,.8.5,2.9.7,3.1,0,.1.1-.4.1-1.3,0-2.1,0-2.1.3-2.1s.4,0,.4,1.5c0,1.2.4,2.6.8,2.6s.1,0,0,.1c-.1.1.3.5.6.5,0,0,0-.2,0-.4h0ZM76.1,85.2c0-.1,0-.3,0-.3s0,0,.2,0,.2.1.2.3-.1.3-.3.3-.2,0-.2-.3ZM74.9,84c0,0,0-.2,0-.3.1-.2.4,0,.4.2s-.2.2-.4,0h0ZM73.6,82.9c0-.5.2-.5.4-.1q.1.4-.1.5c-.2,0-.2,0-.2-.3ZM109.5,90.6c-.2-.2-.4.2-.3.6v.4c.1,0,.3-.5.3-.5,0-.3.1-.5,0-.6ZM109.6,87.4c0-.8,0-1.5-.2-1.6s-.4-.3-.7-.5-.5-.4-.5-.4,0-.1-.2-.1-.5-.3-.9-.6-.7-.6-.8-.6-.2,0-.2-.2-.1-.2-.2-.2-.4-.1-.6-.3c-.3-.2-.4-.2-.8.2-.6.6-1.5,1.8-1.9,2.4-.3.4-.3.4.1.5.2,0,.4.2.4.3s.3.4.6.6.7.6.9.8.3.3.4.3.2,0,.3.2.3.3.4.2.4.2.6.5c.3.4.6.6.9.7.3,0,.6.2.6.4,0,.2.2.1.9-.5l.8-.8v-1.4s0,0,0,0ZM107,88.8c0,0-.1-.3-.2-.4s-.2-.3-.2-.5c0-.1,0-.3-.2-.3-.2,0-.3-.2-.3-.4s0-.3-.1-.3-.2-.2-.2-.4-.4-.6-.7-.9c-.7-.5-.7-.7-.4-1,.3-.3,1.1-.1,1.3.2,0,.1.3.2.6.2s.6.1.7.2c.3.3.5.3.6,0,.1-.2,0,1.7,0,2,0,.1-.1.2-.2.1s-.2,0-.3.2c-.1.2-.1.3,0,.3s.2.2.2.4,0,.4-.2.4-.2,0-.2-.2h0ZM107.9,86.1c0-.2,0-.3.2-.2s.1.2,0,.3c-.1.3-.2.3-.2,0ZM98,89.5c0-.1,0-.2.1-.2.1,0,.4-.2.7-.5s.6-.7.7-.8.2-.3.2-.3.2-.3.5-.6c.7-.7.6-1.2-.4-1.9-.4-.3-1-.7-1.2-1s-.5-.4-.6-.4-.2-.1-.2-.2-.2-.4-.5-.5-.7-.4-.9-.6-.5-.4-.7-.5-.3-.2-.3-.3c0-.3-.7-.2-1,.1-.1.2-.4.4-.6.6s-.3.4-.2.5,0,.1-.1.1-.4.2-.5.4-.5.6-.7.8c-.4.4-.4,1.1,0,.9.2,0,.2,0,.2.2-.1.3.2.6.4.5.1,0,.6.3,1,.8s.9.8,1.1.8.3.2.5.4.3.4.4.4c.1,0,1,.7,1.5,1.3.3.3.8.3.7,0h0ZM96.9,88.5c0,0,0-.3,0-.4,0-.1,0-.3-.2-.3s-.2-.2-.2-.3-.2-.4-.4-.6-.4-.5-.4-.6-.1-.3-.3-.4-.3-.3-.2-.3-.2-.4-.4-.6c-.5-.5-.5-.6-.2-.9.3-.3.3-.3.8,0,.3.2.5.3.5.4s.2.1.4.1.5.1.6.3.6.4.9.4c.7.1.8.4.3.9-.3.3-.4.8-.1.8s0,.2-.3.4c-.2.2-.4.5-.3.6.1.3-.3.7-.4.5ZM97.3,87.3c0,0-.1-.2-.2-.2s0,0,0,.2,0,.2.2.2.1,0,0-.2ZM98.5,86.2c0-.1,0-.2.2-.2s.2.1.2.2,0,.2-.2.2-.2-.1-.2-.2ZM33,89.2c.3-.1.6-.2.7-.2s.2,0,.3-.3c.1-.4.2-1,.6-3.9,0-.2,0-.7.2-.9.1-.5,0-.5-.5-.7-1-.3-1.3-.2-1.4.3-.3,1.4-.5,6-.3,6s.3-.1.5-.3h0ZM86.6,89.1c.2-.2.4-.3.5-.3s.2,0,.2-.2.4-.6,1-1.1,1-1,1-1.1.1-.2.2-.2.2,0,.2-.2.1-.3.3-.5c.3-.3.3-.3,0-.8-.2-.5-2-2-2.9-2.5-.2-.1-.6-.4-.8-.6s-.5-.4-.6-.3c-.2,0-.2,0-.1-.2.1-.3-.6-.7-1.1-.5-.4.1-3.8,3.5-3.8,3.8s0,.2.2.2.2,0,.2.2.2.4.5.6.6.4.6.5c0,.2.7.8.9.8s.3.2.4.4.4.5.8.7c.3.2.6.5.6.6,0,.2,0,.3.2.3s.3.2.5.4c.4.5.6.5,1,0h0ZM85.8,88.1c0-.2,0-.4-.2-.4s-.1-.2,0-.3,0-.3-.1-.4c-.3-.2-.9-1.4-.9-1.7s0-.2-.1-.2-.2-.2-.3-.5-.3-.5-.4-.5c-.3,0-.3-.4,0-.6.2-.1,1.8,0,1.7.3,0,0,0,.1.2.1s.3,0,.3.2.2.2.5.2.5,0,.5.2,0,.2.2.2.4.2.6.3l.4.3h-.6c-.6,0-.9,0-.7.3,0,0,.2.3.3.6,0,.4,0,.5-.2.5s-.4,0-.4-.2-.2-.2-.3-.2-.1,0,0,.2.1.4.1.7,0,.5.2.5.1,0,.1,0-.1.2-.3.3c-.3.2-.3.2-.3-.1h0ZM69,88.1c.1,0,.3,0,.4-.2s.3,0,.5,0c.2,0,.3,0,.2-.2,0-.2,0-.3,0-.3s.2-.2.2-.4,0-.4-.2-.3c-.2.1-3.8.3-4.2.2-.2,0-.3-.2-.3-.3,0-.3.1-.3,2.6-.2.5,0,1,0,1.1,0,.4,0,1.2-.8,1.2-1.1,0-.2-.4-.2-2.7-.3-2.6,0-5.1-.3-5.2-.6,0,0-.2,0-.4,0s-.3,0-.3,0c0-.2-.9-.7-1.5-.8-.4,0-.4,0-.4.2,0,.5.8,1.5,1.2,1.5.2,0,.5,0,.7.2.4.2.5.2,1.2.4.4,0,.9.2,1.3.4.4.2.3.6,0,.5-.2,0-.6,0-1-.1s-1-.1-1.4-.3c-.4-.1-.9-.2-1.1-.3s-.4-.2-.4-.2c-.1-.2-.5-.2-.5,0,0,.6,1.5,2.1,1.8,1.7,0-.1.1-.1.1,0,0,.1.1.2.2.1.1,0,.3,0,.3,0s.2.1.2.1.2,0,.3.1c.4.2,3.5.2,5.9,0h0ZM53.1,87.5c0-.4.2-1.5.2-2.5s.1-2.1.2-2.4c.1-.8-.2-1-1.5-1-1.1,0-1.1,0-1.1.4s.4,2.1.8,2.8c.1.3.3.7.3.9s0,.3.1.4c.2.2.1.4-.2.4s-.3-.1-.4-.3c-.1-.5-.5-.4-.7.3l-.2.6-.3-.6c-.3-.7-.4-.8-.6-.3-.1.4-.4.4-.4,0s-.3-.3-.5,0c-.3.6-.8,1.1-1,.9,0-.2.2-.9.7-1.7.3-.5,1.4-3.1,1.5-3.5,0-.4,0-.4-1-.4-.6,0-1.1,0-1.2.1s-.2.6-.3,1.2c-.2,1.7-.3,2.3-.4,2.7-.1.4-.2,1.2-.2,1.9,0,.2.1.4.3.4.8,0,3.3.2,3.3.2,0,0,.6,0,1.2,0h1.2s.2-.6.2-.6h0ZM44.1,87.3c0-.2,0-.2.1,0,0,.1.4.2.8.3.7,0,.9-.1,1-1.2,0-.4.2-1.4.3-2.3.2-1.5.2-2.6,0-2.6-.7,0-2.5-.3-2.7-.3-.2,0-.2,0-.2.6,0,.9.1,1.1.2,1.4.2.5.6,2.2.7,2.8,0,.5,0,.6-.2.6s-.3-.1-.4-.7c0-.4-.2-.7-.3-.9-.2-.2-.3-.1-.6.3-.2.3-.4.4-.5.3-.1,0-.1-.2,0-.3s0-.2-.1-.2-.4.2-.6.5c-.2.3-.4.4-.5.4s.1-.6.5-1.3c.7-1.2,1.4-3.5,1.2-3.7,0,0-.5-.2-1-.2h-.9c0,0-.2.6-.2.6-.1.4-.2.9-.2,1.1s0,.6-.2.7c-.2.4-.2.5-.4,2l-.2,1.3.4.2c.5.2.5.2.5-.1,0-.2,0-.2.2.1.1.3.2.4.4.2.2-.2.3-.1.4,0,0,.2.5.3,1.4.3.7,0,1.3,0,1.4,0s.1,0,.1-.3h0ZM101.9,85c.2-.2.3-.4.3-.5s0-.2.2-.2c.2,0,.8-.6.8-.8s0-.2.2-.2.2-.1.2-.3.1-.4.3-.4c.6-.2,0-1.1-1.3-1.7-.1,0-.2-.2-.1-.2s0-.1-.1-.1-.5-.2-.7-.5-.5-.4-.5-.4-.2-.1-.5-.3c-.7-.5-2.1-1.4-2.3-1.4s-2.4,2.3-2.4,2.6.9,1.2,1.1,1.2.2,0,.2.1.3.3.6.6.6.4.6.3.1,0,.3.3.4.4.6.4.4,0,.5.2.4.2.6.2.2.2.2.3c-.1.2.3.7.5.7s.2.1.3.2c.2.3.3.3.7,0h0ZM100.1,83.3c-.1-.3-.5-.8-.7-1.1s-.4-.6-.4-.6,0-.2-.2-.2c-.4-.1-.8-1.1-.7-1.5.1-.4,0-.4.8,0,.4.2.7.3.9.2.3,0,.4,0,.5.1,0,.1.2.2.4.2.3,0,.9.5,1,.7,0,0,.2.2.3.3s.2.1.1.1c-.9.1-1.2.4-.9.7.3.3.2.6-.1.6s-.3,0-.2.1,0,.3-.1.4c-.2.3-.2.3-.5-.3ZM59.1,84.3c0-.3-.4-.5-.9-.6,0,0-.4-.3-.6-.6s-.5-.5-.6-.5-.3-.1-.4-.3-.3-.3-.4-.3-.2-.1-.2-.3,0-.3-.2-.3c-.3,0-.9-1.1-.9-1.5s0-.3-.4-.2c-.2,0-.3.1-.2.2s.2.2.2.4c0,.4.5,1.3.6,1.3s.1.1.1.2.1.2.2.2.2.1.2.2.1.2.2.2.2,0,.2.2c0,.5,1.6,1.6,2.8,2,0,0,0-.1,0-.3ZM91.4,83.9c.2-.2.4-.5.4-.6s0-.2.1-.1.2,0,.4-.3.5-.6.8-1,.5-.6.5-.6,0,0,.2-.2c.3-.2.3-.2-.1-.7-.2-.3-.5-.5-.6-.5s-.2,0-.3-.1-.3-.3-.7-.5-1-.7-1.4-1.1-.9-.7-1-.7-.2,0-.2-.1-.2-.2-.5-.3c-.4-.2-.6-.2-1,.2-.6.5-1.1.9-1.1,1.1s0,.2-.2.2-.4.2-.6.4c-.5.5-.6,1.4-.1,1.4s.3.1.4.3.1.2.2.2.4.1.7.4.9.8,1.3,1.1.8.7.9.8.3.2.5.2.2,0,.2.2.1.3.2.3.2,0,.2-.2c0-.3-.5-1.7-.7-2,0-.1-.2-.3-.2-.5s-.2-.4-.4-.5c-.2-.1-.3-.3-.2-.5,0-.1,0-.2,0-.2-.2,0-1-.9-1-1.1s0-.2.2-.2.2-.1.2-.3c0-.2,0-.2.1,0,.1.2.7.6,1.2.8.2,0,.3.2.3.3s.1.1.3,0c.2,0,.3,0,.2.2,0,.1,0,.2,0,.2.2,0,1.2.3,1.5.6.2.1.1.2,0,.5-.3.3-.3.3-.4,0,0-.2-.1,0,0,.4,0,.6,0,.7-.3.6-.3,0-.4,0-.3.3.2.7.2,1.4,0,1.6-.2.2-.2.2,0,.4.3.3.3.3.7,0h0ZM81.4,82.4c.6-.6,1.3-1.3,1.6-1.6.5-.5.9-1.5.5-1.5s-3-2.1-3.5-2.6c-.2-.2-.3-.2-.8-.3-.4,0-3.7,3-3.7,3.4s.6.8.8.8.1.1,0,.2,0,.2,0,.2c.2,0,1.6,1.1,2.3,1.7.2.2.5.4.6.4s.2.1.3.3c.1.4.5.1,1.8-1.2h0ZM80.4,81.9c0-.1,0-.2,0-.2s-.1,0,0-.2,0-.2-.2-.2-.2,0-.2-.2,0-.2,0-.2-.2-.2-.3-.4-.2-.4-.2-.4-.2-.3-.4-.6-.4-.5-.4-.5-.1,0-.1-.1-.1-.3-.2-.5c-.3-.3-.2-.8.1-.8.1,0,.5.2.9.4,1.2.6,1.4.7,1.5.6,0,0,.5.2.9.6l.7.6h-.6c-.4,0-.6,0-.6.2,0,.1,0,.3.1.4.2.2,0,.4-.6.5-.4,0-.5.1-.2.3.3.2.2.9,0,.9s-.1-.1,0-.2h0ZM72.6,82.1c.3-.4.6-.9.6-1s0-.2.1,0,.3,0,.6-.3c.5-.5.6-1.2.2-1.3-.1,0-.3-.3-.3-.6s-.2-.5-.4-.6-.2-.1-.2-.2,0-.4,0-.7c-.3-1.4-.3-2.6,0-3.9.2-.7.5-1.5.7-1.7s.3-.5.3-.6.1-.3.2-.3.3-.2.3-.4c0-.3.5-.8,2.1-2.3l.7-.6-.3-.6-.3-.6h-1.5c-1.6.1-3.3.3-3.5.5,0,0-.1,2-.1,4.3,0,5.7-.2,10.3-.3,10.9,0,.3-.1.7,0,.9,0,.4,0,.4.3.2.2-.2.5-.6.9-1.1h0ZM109.6,82.9c.1-.4-.1-.4-.4,0-.3.3-.2.3,0,.3s.3-.1.4-.2h0ZM108.5,82.4c.7-.7,1.1-1.6.9-1.9-.1-.1-.3,0-.5.4-.4.8-.8.9-.8.3s.1-.6.2-.7.2-.3.2-.4.2-.3.4-.4c.4-.2.9-1.4.5-1.3-.1,0-.3.3-.4.6s-.7,1-1.2,1.5-1,1.1-.9,1.1,0,.2,0,.3-.1.2,0,.3c.2.1.8,0,.7-.2,0,0,0-.1.2-.1s.2,0,0,.2c-.2.2-.3,1,0,1s.4-.3.8-.6h0ZM59.5,82.7c0,0,.1-.2.1-.4s.1-.4.2-.4.3-.3.3-.5.2-.4.3-.4.2-.2.2-.4-.1-.4-.4-.5c-.7-.2-2.2-1.5-2.9-2.4-.3-.5-.8-1.1-1-1.3s-.5-.7-.6-1c-.5-1.1-1-1.7-1.1-1.5-.4,1.1-.6,3.2-.3,2.4.2-.4.6-.8.8-.7,0,0,.2.4.2.7,0,.5,0,.6-.4.6s-.4,0-.5,0c-.1.1.5,1.8.9,2.1.2.2.3.4.3.5s.2.4.3.5.4.4.5.6.3.4.4.3.2.1.3.3.3.5.4.7.4.4.5.4c.3.3.7.3,1.4.2h0ZM58.1,80.9c0-.1,0-.4,0-.6.1-.3.2-.3.5,0,.3.2.3.3.1.5-.2.4-.5.5-.6.1ZM56.9,79.6c0-.5.4-.7.6-.3.3.5.2.7-.2.7s-.4,0-.4-.4ZM55.6,78.4c-.2-.4.2-.9.6-.8.4.1.6.5.3.8-.3.3-.7.3-.9,0h0ZM35.4,82.5c-.1,0-.4-.2-.6-.1h-.4s.4.1.4.1c.2,0,.5.1.6.1.2,0,.2,0,0-.1ZM69.7,81.2c-.2-.4-.8-.8-1.1-1s-.7-.5-.7-.6,0-.2-.2-.2-.1,0-.1-.1c0-.2-.6-.9-.8-.9s-.2-.1-.2-.2-.1-.3-.3-.4c-.3-.2-.7,0-1.7,1-.4.4-1,.9-1.2,1s-.5.3-.6.4-.3.3-.4.4c-.3.2-.6,1.2-.4,1.2s.5-.8.4-1c0,0,0-.2.2-.2s.2.1.2.4,0,.4.2.4.2,0,.2-.2.1-.2.3-.2.3-.2.4-.4c0-.3.1-.3.2-.2,0,.1.3.2.4.1.2,0,.3,0,.3.2,0,.3,0,.3.2,0,.1-.2.3-.3.4-.3s.2.1.2.3c0,.2,0,.2.3-.1l.3-.4v.4c0,.4,0,.4.2.1.2-.3.2-.3.4,0l.2.4.3-.4c.3-.4.4-.3.3.4,0,.2,0,.3.3.2.3,0,.4,0,.5.4,0,.4.1.5.3.2.2-.2.3-.2.5,0,.1.1.2.2.3.2s.2,0,.3,0c.4.3.4-.6-.1-1.3ZM39.3,81.6c.3-.8.5-2.4.2-2.6-.3-.2-1-.2-1.1,0,0,0,0,.5.3,1,.2.5.4.9.3,1.1-.1.4-.4.3-.7-.4-.3-.7-.6-.6-.6.3,0,.7,0,.8.5.9.8.3.9.2,1.1-.3h0ZM33.7,81.8c0,0-.2-.2-.3-.2-.1,0,0,0,0,.2.3.2.4.2.2,0ZM33.1,81.4c-.2-.2-.3,0-.2.3.1.2.1.2.2,0,0-.1,0-.3,0-.3h0ZM63.7,81.4c-.2-.2-.5,0-.3.3,0,.1.2.1.3,0,0,0,.1-.2,0-.3h0ZM35.8,81.6c.3-.1.3-.4,0-.4s-.2,0-.2-.1c0-.2-1.2-.8-1.5-.8s-.4-.1-.7-.3c-.6-.5-.9-.4-.5.2.2.3.4.5.6.5s.2.1.2.2,0,.2.1.2c.2,0,.8.2.8.4s.1,0,.2,0,.2,0,.2,0c0,.2.3.2.7,0h0ZM106.5,81.3c0-.1.2-.4.4-.6s.4-.5.4-.6,0-.3.1-.3.2-.1.2-.3.2-.3.3-.3.2-.1.2-.3.2-.4.3-.6c.2-.1.3-.3.2-.4,0-.1,0-.2.3,0,.3,0,.4,0,.4-.3,0-.2-.1-.4-.3-.5-.2-.1-.3-.1-.5.2-.1.2-.4.5-.6.8s-.5.6-.6.8c-.3.5-.9,1.2-1.4,1.8-.5.6-.5,1,0,1s.4,0,.4-.2h0ZM70.9,73.9c0-2.2,0-4.6,0-5.2,0-1.4,0-1.9-.4-1.9s-.3,0-.4.1c0,.1-.3,7.2-.3,11.6,0,1.3,0,1.5.3,1.7.2.1.4.4.4.5,0,.9.2-3.5.3-6.9h0ZM105.7,80c.5-.6.9-1.1.9-1.1s0-.3.2-.4.3-.4.3-.4.2-.3.4-.6c.6-.6.7-1,.4-1s-.2,0-.1.2,0,.2,0,.2c-.3,0-.9.7-.9.9,0,.1,0,.2-.1.2-.2,0-1.4,1.3-1.4,1.4,0,0-.2.3-.4.5-.5.5-.6.7-.3.9,0,0,.1.2,0,.3-.3.5.3,0,1.1-.9h0ZM36.7,80.2c0,0-.2-.1-.2-.3,0-.3-1.1-1.2-1.8-1.5-.3-.1-.6-.2-.6-.2s-.3-.2-.6-.5-.6-.7-.6-.8c0-.2-.3-.2-.4,0,0,0,0,.2,0,.2s.2.2.2.5,0,.5.2.5.3.2.4.5.4.5.5.5.4.2.5.3.3.2.4.2.2,0,.3.1.2.2.3.2.4.1.7.4c.4.4.6.4.6.2,0-.1,0-.3-.1-.3h0ZM48.7,80.5c.2.2.9.2,1.2,0,.2,0,.3,0,.4,0,0,.1,1.4.1,2.4,0,.6,0,.6-.3.3-1.5-.3-1.1-.3-1.3.2-2.6.3-.7.5-1.4.5-1.9,0-.8-.1-1.2-.3-1.1,0,0-.6,0-1.3.1h-1.2s0,.5,0,.5c0,.3.1.8.2,1.1s.2.6.2.6.1,0,0,.1,0,.5.2.8c.5,1.6.4,2.6-.4,2.4-.2,0-.4-.3-.5-.7,0-.3-.2-.6-.3-.6-.2,0-.5.9-.3,1.2,0,0,0,.2-.2.2-.2,0-.3,0-.4-.3v-.4c-.1,0-.5.4-.5.4-.5.6-.6.3-.2-.9.2-.6.4-1.2.4-1.3s.2-.7.3-1.2.3-1.1.4-1.4c.3-.7.1-1-.5-.8-.3,0-.7,0-.8,0-.3-.3-.6.4-.8,2.7,0,.2,0,1.1-.1,2-.1,1.8,0,2.7.4,2.4.1,0,.3-.1.3,0h0ZM46.1,80.3c0,0,.2-.1.2,0,.3.2.5-.5.6-1.7,0-.7.1-1.8.2-2.4.3-1.9.3-2.7.2-2.8-.2,0-4.3-.3-5.3-.3-.6,0-.8.1-.6.4,0,0,0,.3,0,.4s-.2.9-.3,1.8-.1,1.7-.2,1.8-.1.6-.2,1.1-.2,1-.2,1.1c0,.2,0,.3.2.2.1,0,.2,0,.2,0s0,.2.2.2.1,0,0-.2c0-.2,0-.2.1,0,.3.3,2,.6,2.4.5.2,0,.7,0,1.1,0,1.2.2,1.2.2,1.3,0h0ZM42.1,79.2c0-.2.2-.5,1-1.4,0-.1.2-.4.2-.7s0-.5.1-.5c.1,0,.5-1.2.7-2.2,0-.3.2-.4.4-.4.2,0,.4.5.6,2,.2,1,.4,2,.5,2.2.1.2.1.3,0,.4,0,0-.1.2,0,.3s0,.2,0,.2c-.2,0-.7-.7-.7-1s-.3-.4-.5.1c0,.2-.2.4-.2.4-.2,0-.5-.5-.4-.6,0,0,0,0-.2,0s-.3.3-.3.4c0,.2-.9,1.1-1,1.1s0,0,0-.2h0ZM94.9,80.1c0,0,.2-.2.3-.4s.5-.7,1-1.2c.8-.9,1.1-1.4.9-1.4s-.4-.2-.7-.5-.6-.5-.7-.5-.2,0-.2-.2-.3-.3-.6-.5-.5-.3-.4-.3c.2,0-1.5-1.2-1.8-1.2s-.3-.1-.5-.3-.3-.3-.4-.3c-.3,0-2.5,2.2-2.5,2.6s.2.3.5.2c0,0,.1,0,.1.2s.4.5,1,.9,1,.8,1,.9.1.1.2,0,.2,0,.2,0c0,.1.8.4.9.3,0,0-.6-1.3-1-1.6-.2-.2-.3-.4-.3-.5s0-.2-.2-.2-.2-.2-.2-.3,0-.2-.2-.3c-.1,0-.1-.2,0-.4.1-.4.5-.3.8,0,0,.1.1.1.1,0,0-.1,0-.2.2-.2s.2.1.2.2c0,.2.5.5,1.1.6,0,0,.1.1,0,.2,0,.1,0,.2.2,0,.2,0,.3,0,.3.1s.3.3.7.4c.5.1.6.2.4.3-.1,0-.4.1-.6.2-.3,0-.3,0-.2.4.2.6.2.6,0,.5-.2,0-.2,0-.2.2,0,.2,0,.3-.2.3-.3,0-.4.2-.1.3,0,0,.1.2,0,.3s0,.2,0,.2.2,0,.1.1c0,.1.4.7.5.7,0,0,.2,0,.3-.1h0ZM61.5,79.8c0,0,.1-.2.3-.2s.3,0,.3-.2,0-.2.2-.2c.3,0,.6-.8.6-1.8,0-.5,0-1.7,0-2.6.2-3,.3-7.2.2-7.8,0-.5-.1-.6-.7-.6-.3,0-1.7,0-3.2,0q-2.6,0-2.7.3c-.2.6-.1,2.8.2,3.8.1.5.3,1.1.3,1.4s.2.8.4,1.2.4.9.4,1.1.2.4.3.4.3.2.3.4c0,.3,1.4,1.8,2.8,3.1.3.3.6.6.7.8.1.3.1.3-.3.3s-.6-.2-.9-.4-.6-.5-.9-.7-.4-.4-.4-.5-.4-.5-.8-1-.8-.9-.8-1,0-.2-.2-.3c-.3-.2-.9-1.4-.9-1.7s-.1-.4-.2-.6c-.3-.4-.9-3.3-.9-4.2,0-.3,0-.6-.2-.6-.4.1-.5,3.7,0,4.7.1.3.3.8.4,1.2s.4.8.5.9.2.3.2.4c0,.3,2,2.7,2.6,3.1,1.2.7,1.7,1,1.8.9,0,0,.2,0,.2.2s0,.3.2.3.2,0,.2-.2h0ZM104.3,79.6c.1-.2.3-.4.4-.4s.2-.1.3-.3.5-.7,1-1.2.9-1.1.9-1.2,0-.2.2-.2c0,0,.2-.1.2-.4s0-.5-.2-.5c-.3,0-.8.5-.8.8s0,.2-.1.2-.5.5-1,1.1-1,1.2-1.1,1.4-.2.3-.2.4,0,.1-.2.1c-.3,0-.3.2,0,.4.4.3.4.3.7-.2ZM54.2,78.8c-.1-.1-.1-.3,0-.4s0-.2-.1-.2c-.2,0-.2,0,0,.7.2.4.3.5.3.4,0-.1,0-.4-.1-.5h0ZM102.7,79.2c.2,0,.6-.4.6-.6s.3-.4.6-.8.7-.9.8-1.1.3-.4.4-.4.1,0,.1-.1.2-.4.4-.7.4-.5.3-.6c-.2-.3-3.8,3.6-3.8,4s.2.7.3.4c0,0,.1-.2.2-.2h0ZM69.2,78.6c0-.3,0-2.9,0-5.7s0-5.3,0-5.6c0-.3,0-.5-.1-.5-1.5,0-3.5,0-3.6,0,0,0-.1.7-.2,1.5s-.1,2.9-.2,4.7-.1,3.5,0,3.6c0,.2.7.1.7-.1s.1-.1.2-.1c.2,0,.3-.4.2-1,0-.1.1-.2.4-.2.4,0,.4.1.4.5,0,.2-.1.6-.3.7-.3.3-.3.3,0,.6.2.1.3.4.3.5s.1.3.2.3.2.1.2.3,0,.2.2.2.2,0,.2,0c0,.2.6.8.8.8s.2-.3.2-.6h0ZM68.2,74.8c.1-.1.2-.2.3-.2s0,.1,0,.2-.1.2-.3.2c-.2,0-.2,0,0-.2ZM66.8,73.9c-.3-.7.1-1.3.6-.8.3.3.2.8-.1,1-.3.1-.3.1-.5-.2h0ZM66.8,71c-.2-.5,0-.9.5-1,.3,0,.4.2.3.8,0,.2-.4.7-.6.7s-.2-.2-.3-.5h0ZM67,68.4c-.3-.5-.1-1.1.4-1.1s.5,1,.2,1.2c-.3.2-.4.2-.6,0h0ZM37.3,78.5c0-.8-.5-1.4-1.7-2.2-1-.6-2.4-.7-2.5-.2,0,.2,0,.3.1.2,0,0,.2,0,.3.3,0,.3.3.5.8.8.4.2,1,.5,1.2.7s.6.4.7.4.3.1.3.2c.2.5.6.3.6-.3h0ZM75.3,78.8c0-.1.3-.4.6-.5.6-.3.9-.6.9-.9s.1-.2.2-.2.4-.2.5-.4.5-.5.7-.6.3-.3.3-.4,0-.2.2-.2.2,0,.2-.1.4-.5.9-.9,1.3-1.2,1.8-1.7.9-1,1-1c.2,0,1.1-1,1.1-1.2s0-.2.2-.2c.3,0,1.5-1.2,1.5-1.5s-.7-1.1-1.5-1.6c-.8-.5-1.9-.6-2.7-.4-.3,0-.6.2-.7.2-1.2.2-2.7.9-3.4,1.6-.3.3-.9.9-1.3,1.3s-.8.8-.8.9-.2.5-.5,1-.5,1.1-.5,1.3c-.5,1.9,0,4.4.8,5.2.3.3.5.3.6,0h0ZM86.1,77.7c1.3-1.3,1.5-1.9,1-2.1-.2,0-.4-.2-.6-.4s-.4-.3-.5-.2-.2,0-.2-.1-.2-.4-.5-.6-.9-.6-1.3-.9c-.8-.6-1-.6-1.7,0-.2.2-.8.7-1.1,1-.9.7-.9,1.1-.1,1.8.3.3.8.7,1.1.9s.5.5.6.5.3.2.5.4c.2.3.5.4.6.3.2,0,.3,0,.3.2s.2.5.6.5c.1,0,.8-.6,1.5-1.3h0ZM84,78c-.2-.2-.3-.5-.3-.5s-.2-.4-.5-.8-.5-.8-.5-1,0-.2-.1-.2c-.3,0-.7-.8-.5-1.1.2-.4.5-.4.8,0,.1.2.4.4.6.4s.4,0,.4.1.4.2.8.2c.6,0,.8.2.8.4s0,.2.2.2c.1,0,.2,0,.2,0,0,.3-.5.5-1,.4-.5,0-.5,0-.3.5,0,.2.2.3.4.2.1,0,.1,0,0,.1-.2.2-.2.3,0,.4.1,0,0,.1-.1.2-.2,0-.4.3-.4.6v.5s-.4-.4-.4-.4h0ZM93.4,78.9c0,0,0-.2-.2-.2s-.1,0,0,.2.1.2.2.2,0,0,0-.2ZM39.6,78.4c.2-.2.4-1.7.3-2-.3-.5-2.4-.4-2.4.2s.4.6.6.6.1,0,0,.2,0,.3.3.4.4.3.4.4,0,.2.2.1.2,0,.2,0c0,.2.2.2.4,0h0ZM102.3,77.8c.1-.1.4-.4.6-.7s.6-.8.9-1.1c1.1-1.2,1.3-1.5,1.3-1.7,0-.4-.3-.4-.4,0,0,.2-.2.4-.4.4s-.3.2-.3.3-.2.4-.5.7-.5.6-.6.7-.4.4-.7.7c-.7.6-1.2,1.4-.9,1.6.2.1.4,0,1-.6ZM64.2,78c.3-.4.4-.6.4-3,.1-7.5.1-8.1-.1-8.1-.4,0-.4.2-.5,1.8,0,.8-.1,2.4-.2,3.5-.1,1.8,0,1.9.2,1.9.3,0,.3,0,0,.2-.2.2-.3.6-.4,1.9-.2,2.3,0,2.6.6,1.8h0ZM101.2,77c.2-.3.6-.7.8-1s.6-.8.9-1.1.5-.6.5-.7.1-.2.3-.4c.3-.3.3-.6,0-.7-.3,0-1.3,1.1-1.2,1.4,0,.1,0,.2-.1.1-.1,0-.4.2-.7.5-.2.3-.8.9-1.1,1.2-.8.7-.9,1.2-.3,1.2s.6-.2.8-.5ZM99.8,76.3c0-.4-.2-.3-.5.2-.2.4-.2.4.1.2.2,0,.3-.3.3-.4ZM98.5,76.1c.2.1.2.1.2,0s.1-.2.3-.1.3,0,.3-.1,0-.2.1-.3,0-.2,0-.3c0-.1,0-.2.2-.1.2,0,.4,0,.7-.5.2-.3.7-.9,1.1-1.4.7-.8.9-1.4.5-1.4s-.6.4-.6.6,0,.2-.2.2-.1.1,0,.3c0,.2,0,.2,0,.2-.1-.2-1.3,1-1.3,1.3s0,.2-.2.2c-.2,0-1.4,1.3-1.4,1.6,0,0,0,0,0,0,0-.2.1-.2.3,0ZM100.3,75.8c0-.1,0-.2.2-.1s.2,0,.2,0,.1-.3.3-.4c.2-.2.2-.2,0-.2-.3,0-1,.8-1,1.1s0,.2.2.1.2-.2.2-.3ZM38.1,75.3c.5-.3.6-.4,1-.2.2.1.4.3.4.3s0,.1.2.1c.2,0,.4-1.2.4-2.1,0-.4,0-.5-.5-.6-.3,0-.6-.1-.7-.2-.3-.2-2.8-.6-4.3-.6-.7,0-.8,0-.7.4,0,.2,0,.6,0,.8-.1.3-.2.4-1.2.3h-1c0,0,.4.3.4.3.2.2.4.4.5.3,0,0,.2,0,.2.2.1.3,1.4.8,2,.7.3,0,.5,0,.5,0s.2.2.5.2.5,0,.6.2c.2.3,1.1.2,1.8-.3h0ZM97.7,75.4c.2,0,.8-.7.7-.8,0,0,0-.3.3-.4s.4-.4.4-.5.2-.3.4-.4.3-.3.3-.4c0-.2.2-.4.4-.5.4-.2.8-.9.6-1.1,0,0-.7.6-1.4,1.4s-1.5,1.6-1.6,1.8-.3.5-.4.8,0,.5,0,.4.2-.2.2-.2h0ZM109.6,56.9c0-25,0-23.9-.3-24.1-.4-.2-2.7-.4-5.8-.3-4.2,0-4.2,0-4.8,0-.4,0-.6,0-.6.1,0,.1,0,.2-.1,0,0-.1-4.9-.2-14.6-.2-8,0-20.9,0-28.6-.1s-14.2-.1-14.4-.1-2.4,0-5.1,0-4.8,0-4.8.1c0,.5-.1,36.7,0,37.4,0,.9.1,1,.6,1,.4,0,.4,0,0,0-.7.1-.7.3,0,.3.4,0,1.3,0,1.9,0s1.8.2,2.6.3c2.5.2,3,.2,3.1.4,0,0,.2.1.3,0s.3,0,.5.2c.3.3.6.3.6-.2s-.1-.3-.4-.4c-.2,0-.4-.1-.4-.2s-.1-.2-.2-.2-.3,0-.4-.2c-.9-.8-1.2-1-1.4-1s-.4-.3-.8-.6-1-1-1.5-1.4-.8-.8-.8-.8-.2-.3-.4-.6-.5-.6-.5-.7,0-.1-.1,0c-.2.2-1-1.4-1.1-2.2,0-.5,0-.5.4-.4.5,0,.5.1.6.7,0,.7.6,1.7.8,1.7s.2,0,.2.2c0,.2.6.9.9,1.2.1.1.4.3.5.6s.4.4.5.4.4.3.8.7.7.7.8.7.2,0,.3.2.4.2.6.2c.3,0,.3,0,0-.1-.2,0-.2-.2-.2-.3,0-.1-.2-.5-1.4-1.6-.6-.6-.7-1-.3-1.1.2,0,.3,0,.4.2,0,.2.2.3.2.3.4,0,2.8,2.6,2.7,2.9,0,.1,0,.2.2.2s.2,0,.2-.4c-.2-.8-1.3-2.7-1.4-2.3,0,.2-1.1-1.1-1.1-1.4s0-.2-.2-.1-.4,0-.7-.3-.6-.4-.6-.4-.5-.2-1.1-.5-1-.4-1-.4-.3,0-.6-.1c-.3-.1-.5-.3-.5-.6s.3-.4.7,0c0,0,.5.2.9.2.4,0,.8.2.8.4,0,.1.2.2.3.2s.3,0,.3.1.3.2.5.2.6.2.8.4.5.4.7.5.3.2.3.3,0,.2.2.2c.3,0,1.4,1.4,1.8,2.2.4.9.7,1.8.7,2.9,0,.4,0,.7.1.7.2,0,.8-1.1,1.1-1.9.1-.4.2-1,.2-1.4,0-.5-.1-.6-.4-.7-.2,0-.4-.1-.4-.2s-.2-.2-.4-.3c-.5-.2-1.9-1.7-2-2.2,0-.2-.2-.6-.3-.8s-.2-.4-.1-.4,0-.2-.1-.4-.2-.5-.1-.6c0-.1-1.2-1.3-1.3-1.3,0,0-.3,0-.5-.2s-.5-.2-.6-.2-.3-.2-.5-.4-.4-.4-.5-.4c-.2,0-.8-1.6-.8-2.1,0-.4.2-1.5.4-2,.2-.5.9-1,1.4-1s.5-.1.6-.2c.2-.2.5-.2,1.3-.1,1,.1,1,.1,1.9-.6.5-.4,1-.8,1.2-.9.4-.3,1.7-.3,2.5,0,.4.1.7.1.8,0,.2-.2,1.4-.4,1.6-.4,0,0,.5.1.9.2s.8.3,1,.4c.2.2.4.2.8.1.9-.2,2-.1,2.5.2.2.2.6.4.7.5.2.1.3.3.4.5s0,.4.1.6.1.4.1.5,0,.5.1.9c.2,1.2-.4,2.6-1.7,4.1-.4.4-.8.7-.9.7-.3,0-.6.4-.5.8,0,.2,0,.3-.1.3s-.2.1-.2.3c0,.7-.7,2.4-1.3,3.1-.8.8-1.6,1.5-2.1,1.7-.4.1-1.2,1.1-1.2,1.4s0,.4-.2.6c-.4.8-.5,1-.4,1,0,0,.2,0,.3-.2.8-.9,1.1-1.1,1.5-1.4.2-.2.6-.4.7-.6s.3-.3.3-.3.4-.1.8-.2c.8-.3,4.5-.4,4.6-.1.1.2,1.3-.1,1.6-.4.3-.3.8-1.3.8-1.6s-.1-.2-.2-.3c-.6-.2-.2-.8,1-1.9.7-.6,1.2-1.1,1.2-1.2s.4-.6,1-1.3,1-1.2,1-1.3.1-.3.3-.4.3-.3.3-.4.3-.4.7-.8c.4-.4.6-.6.4-.6-.1,0-.3,0-.3-.2s-.2-.2-.4-.3-.7-.4-1-.9-.9-1-1.2-1.4c-.9-.9-1.3-1.5-1.3-1.7s0-.2-.1-.3c-.2,0-1-2-1.3-3.1-.3-1.3-.2-7.3.2-8.5.1-.5.4-1.2.5-1.7s.3-.9.4-1,.1-.3.1-.4c0-.6,1.2-2.1,2.1-2.7.8-.6,1.5-1,1.9-1,0,0,.2,0,.3,0,.4-.1,1.8-.4,2.6-.5.4,0,.9-.2,1-.3.2-.2,1-.4,2.9-.7.2,0,.7,0,1,0,.3,0,1,.2,1.4.2s.9.2,1,.3.3.2.4.1c.3,0,1.7.7,1.7.8s.1.1.2,0c.1,0,.3,0,.3.2,0,.1.2.3.4.3s.6.1.9.3.7.3.8.3.2.1.2.3,0,.2.2.2.4.2.6.5.5.4.5.4.2,0,.3.3c.2.4.6.6.9.5.2,0,0-1-.3-1s-.2-.3-.2-.6c-.1-.7.2-1.4.8-1.8.6-.4,2-.3,2.4.2.2.3.2.3.6-.2.2-.3.3-.6.3-.7,0-.2,1.2-.7,1.8-.7.7,0,2.2.2,2.2.3,0,0,.3.1.7.1s.8.1.9.2c.2.2.4,1.1.5,3.2,0,1.3,0,1.4-.4,2.2-.5.8-.5.9-.3,1.3.1.2.2.6.3.9,0,.8.2.9.8,1,.8.1,1.3.8,1,1.2-.1.1-.2.2-.3,0-.1-.2-.6-.3-1.2-.1-.5.1-.8.8-.7,1.3,0,.2,0,.4,0,.5s0,0,.2,0,.2,0,.2,0,.2.2.4.2c.6,0,.8.4.5.8-.2.2-.4.5-.4.6s-.3.4-.5.5c-.5.2-.4.7.1.8.8.2,1.1,0,1.7-1.3.5-1,.6-1.3.5-2,0-.4-.2-.9-.2-1.1-.1-.2,0-.3,0-.4.3-.1.7.3.8,1v.5c.1,0,.5-.5.5-.5.2-.3.4-.5.4-.6,0-.9,3.1-1.4,3.9-.6.2.2.3.3.3.2,0,0,.9.3,1.6.8.3.2.7.3.8.3.1,0,.1,0,0,0-.1.2.3.3,1,.5.5,0,.8.4.8.7,0,.4-.4.9-.6.8,0,0-.2,0-.2,0s-.4.2-.8.4-.7.3-.7.3-.3.2-.6.2-1,.3-1.4.5-1,.4-1.2.4-.5,0-.5.1-.6.3-1.2.5c-1.1.4-1.5.6-2.5,1.1-.7.4-.9.6-.4.8.2,0,.3.2.3.3,0,.1,0,.2,0,.2s.2.2.4.5.5.8.8,1.1.6.8.8,1,.3.4.4.4.1.1.1.2,0,.2.2.2.2.2.4.5c.2.6,1.6,2.5,1.8,2.5s.1,0,.1.2.2.4.5.7.5.6.5.7,0,.3.2.3c.3.2,1.3,1.7,1.1,1.7,0,0,0,0,.1.2s.3.3.3.4,0,.3.1.3.5.7,1.1,1.5,1,1.5,1.1,1.5c.2.1.2.9,0,1-.2.1-.2,1.1,0,1.5.1.2.3.3.4.2s.3,0,.5.2.4.3.5.3.2,0,.2.1.3.3.7.6.8.6,1,.9.5.4.7.4.4.1.5.2.2.2.4.2.3,0,.2.2c0,0,0,.2.2.3s.3.2.3.2.1.1.2.1.3.1.3.2.2.2.3.2.4.1.5.3c.6.6,1.1,1,1.1.9s.1,0,.3.3.4.4.5.4.2,0,.2.2,0,.2.2.2.3.1.3.3c0,.3.1.3.3,0,.1-.2.2-4.8.2-18.6h0ZM39.6,71.8c0,0,0-.2,0-.2s.2,0,.2.2,0,.2,0,.2-.1,0-.2-.2ZM89.1,74.4c.3-.1.5-.4.6-.5s.2-.3.3-.3.4-.2.6-.5l.4-.5-.4-.3c-.2-.2-.5-.3-.6-.3s-.3-.1-.3-.2-.3-.2-.5-.2-.4-.1-.4-.3c0-.2-.2-.3-.3-.3s-.3,0-.3-.2,0-.1-.1,0-.3,0-.4-.2c-.6-.7-1.6-.9-1.6-.3s-.2.3-.5.5c-.6.2-1.3,1-1.4,1.4,0,.2.7,1.2.9,1.2s1.7,1.1,1.8,1.2c0,0,.1,0,.3,0s.3,0,.4.3c.2.4.5.5.4,0-.2-.7-1.1-2.3-1.2-2.2,0,0-.2,0-.2-.3s-.2-.3-.2-.3-.1-.1-.1-.2,0-.3-.2-.3c-.2,0-.1-.1,0-.3.2-.3.3-.2,1,0,.4.2.8.4.9.5s.2.1.2.1.3,0,.5.3c.3.3.4.4.3,1.1,0,.6-.1.8-.4.9-.2,0-.3.2-.2.3s0,.2,0,.2-.2.2-.2.4c0,.5.5.7.6.3,0-.1.3-.4.5-.5h0ZM97.2,74.4c.2-.3.5-.7.6-.9.3-.4.5-1,.2-.8,0,0-.2.3-.3.5s-.3.4-.4.4-.2,0-.2.2,0,.2,0,.2c-.2,0-.8.6-.8.8,0,.4.7.1,1-.4h0ZM101.5,74.4c0-.1,0-.2-.1-.1-.1,0-.2.2-.3.3,0,.1,0,.2.1.1.1,0,.2-.2.3-.3ZM95.6,74.2c0-.2,0-.2.2-.2s.4-.1.4-.3c0-.2.2-.4.4-.4s.3-.1.2-.2.2-.3.4-.6c1-1.1,1.5-1.8,1.4-1.8,0,0-.3.2-.6.6s-.5.7-.6.7-.4.2-.6.5-.5.5-.5.5c-.2,0-.8.7-.9,1.1,0,.2,0,.3,0,.4.1.2.3.2.2,0h0ZM102.1,73.9c.3-.2,1-1.4.9-1.4s-.2.2-1.1,1.1c-.5.5-.3.7.3.3ZM94.8,73.5c.1,0,.2-.2.2-.2s0-.1,0-.1c.2,0,.8-.6.8-.8s.1-.2.3-.3c.3-.1.9-.9.8-1.1,0,0,.3-.3.7-.6.7-.5,1.1-1.3.6-1.3s-3.1,3-3.7,3.7c-.2.3-.3.9-.2.9s.2,0,.3,0h0ZM33,72.7c0-.2,0-.7,0-.7,0,0-.3,0-.7-.1-.8-.1-.9,0-.3.7.4.4,1.1.5,1.1.2ZM94.1,72.4c0,0,.4-.5.8-1s.8-.9.8-1,.2-.4.5-.6.5-.6.5-.7.1-.2.2-.2.2-.1.2-.3,0-.3-.1-.3c-.1,0-.7.7-.8.8,0,0-.3.4-.6.7s-.6.7-.5.8,0,.2-.1.2c-.3,0-1.3,1.1-1.5,1.6,0,.3,0,.3.2.3.2,0,.3-.2.3-.2h0ZM54.2,72c0-.1,0-.4,0-.7s0-.6,0-.8,0-.5-.1-.6c-.1-.2-.2-.2-.7.2-.3.2-.9.6-1.4.9-.5.3-1,.6-1.1.8s-.4.3-.6.3c-.3,0-.3,0,0,.2.5.2,3.8,0,3.9-.2h0ZM98.9,72.1c.2-.2.2-.3.1-.3-.2,0-.7.4-.7.5,0,.2.3,0,.6-.2h0ZM48.6,71.6c.2-.2.3-.2.3-.2,0,.2,1.6-.5,1.8-.7,0-.1.1-.2.1-.1,0,.2,1.9-.9,2.2-1.2.2-.3.2-.3-.2-.4-.2,0-1,0-1.7,0s-1.4.1-1.5,0c-1.1-.2-4,1.2-3.7,1.8,0,0,0,.2-.1.2s-.4.2-.6.4c-.2.3-.3.4-.1.4s.3-.1.4-.2.3-.2.4-.2.2,0,.2-.1.4-.3,1-.4c.5-.2,1-.4,1-.5s.2-.2.6-.2.7-.1.9-.2c.5-.3,1.6-.4,1.6,0s0,.2-.2.2-.4,0-.6.2-1.1.4-1.9.6-1.5.5-1.6.7c-.1.1-.3.2-.4.2s-.2,0-.1.2c.2.3,1.8,0,2.2-.3h0ZM93.3,71.4c.3-.4.6-.7.6-.8s.5-.6,1-1.3,1-1.3,1-1.5c0-.2-.3,0-1.3,1-.7.7-1.3,1.4-1.3,1.5s0,.2-.2.2c-.3.1-.9,1.2-.8,1.3.2.2.2.1.8-.6h0ZM43.5,71.3c.1-.3.3-.5.3-.6.1,0,.7-2,.9-3,0-.3.2-.7.4-.8.2-.2.2-.2-.2-.2-.5,0-.6-.3,0-.5l.4-.2h-.4c-.3-.3-.3-.3-.2-.5.1-.1.4-.3.6-.3s.4-.2.4-.3-.2-.2-1-.2-1,0-1-.2.2-.2.4-.2c.5,0,1.7-.4,1.7-.5,0-.2-.4-.3-.5-.1,0,.1-.4.2-.7.3-.6,0-.8,0-2.2-.7-.5-.2-2.3-.2-2.4.1-.2.3,1.1,2.4,1.7,3,1,1,1.4,1.2,1.7,1.2s.6.7.4,1.2c0,.2-.1.4,0,.4s0,.3-.2.6-.3.7-.3.8-.1.3-.2.4-.2.4-.2.5c0,.5.5.3.8-.3h0ZM92,70.8c0,0,.1-.3.3-.4s.3-.3.3-.4.3-.5.7-.9.7-.8.6-.8-.2,0-.4.3-.3.3-.4.3c-.3,0-2.1,2-2,2.2,0,.2.1.2.4,0,.2-.1.3-.3.3-.4h0ZM99.7,71.2c.1-.3.1-.4,0-.4s-.2.1-.2.3c0,.4.1.4.3,0ZM99.1,70.2c0-.1,0-.2,0-.2s-.2.1-.2.2,0,.2,0,.2.1-.1.2-.2ZM90,69.7c0-.1,0-.2.1-.2.3,0,1.7-1.5,1.6-1.7,0,0-.5.2-1.1.9-1,1.1-1.1,1.3-.7,1.3s.2,0,.2-.2ZM92.1,68.8c0-.2,0-.2-.2,0-.2.3-.2.5,0,.4,0,0,.2-.2.2-.4h0ZM89.7,68.6c.1-.2.2-.4.1-.4-.2,0-1,.5-1,.7,0,.3.6,0,.9-.3h0ZM88.4,68.3c0,0,.2,0,.3,0,.1,0,.1,0,0-.1-.2-.1-.2-.2,0-.3.2-.1.2-.2,0-.3-.2-.1-1,.6-1,1,0,.3,0,.3.2,0,.1-.1.2-.3.3-.3h0ZM87.5,67.6c.2,0,.2,0,0-.2-.2-.2-.6.2-.6.6,0,0,0,0,.2-.1s.3-.3.4-.3ZM94.5,67.9c.2-.3,0-.4-.4-.1-.2.3-.2.3,0,.3s.3,0,.4-.2ZM90.3,67.8c-.1,0-.3,0-.3,0s0,0,.2,0c.2,0,.2,0,0,0ZM98.1,66.4c0-.1,0-.3,0-.3.2-.1,0-.6-.3-.6s-.2,0-.2-.2c0-.2,0-.3-.5-.3-.8-.1-1,0-.9.7,0,.4,0,.6-.2.6s-.2,0-.2.1c0,.2,1.3.2,1.5,0,.1,0,.2,0,.3.1,0,.1.2.2.3.2s.1-.1,0-.2ZM88.8,66.1c0-.1,0-.2,0-.3s-.1-.2,0-.5c0-.4,0-.4-.7-.4s-.7,0-.6.2c.2.2,0,1-.2,1,0,0,0,0,.1.2.4.2,1.2,0,1.4-.2ZM93,66.3c.4-.1.5-.2.5-.6,0-.6-.2-.7-.8-.7-.3,0-.5.1-.7.6-.1.3-.3.6-.4.6-.1,0-.2-.1-.2-.8,0-.1-.2-.3-.4-.3-.2,0-.5,0-.6-.1-.3-.2-.8.4-.8.8s.2.6.4.4c.2-.1.2-.1.2,0s.3.2,1.2.3c.6,0,1.4,0,1.6-.1h0ZM95.6,66.3s0-.3.1-.5.1-.4.2-.4,0,0,0-.2-.5-.1-.7,0-.5,0-.6,0c0,0-.2.3-.2.7v.7h.6c.3-.1.7-.2.7-.2ZM80.5,66.1c.2,0,.5,0,.7.1.3,0,.4,0,.5-.2,0-.2,0-.3,0-.4-.1,0-.2-.3,0-.6.1-.5,0-.5-.3-.5-1.1,0-1.1-.1-1.2-1.2,0-.5,0-1-.2-1.1s-.2-1.2-.4-2.4c-.4-3.1-.6-4.5-.8-4.7,0-.1,0-.3,0-.4s0-.3,0-.4-.2-.3-.2-.6-.3-1.2-.6-2.1-.6-1.7-.6-1.9-.1-.5-.3-.7-.3-.6-.3-.7-.2-.7-.4-1.1c-.4-.8-.7-1.3-1-2.1-.1-.3-.3-.7-.4-.9s-.2-.4-.2-.6-.1-.3-.2-.3-.2,0-.3-.2c-.1-.3-1-1.4-1.8-2.2-.5-.5-.8-1-.8-1.1s-.2-.3-.4-.4c-.4-.1-1.2-.8-1.2-1.1s.2-.1.4-.1c.5,0,1.2.7,1.2,1.1s.2.3.4.3.6.3.8.5c.6.7,1.3,1.6,1.5,1.9.2.3.3.3.4.1.1-.1,0-.3-.2-.8-.2-.3-.5-.6-.6-.6s-.2-.2-.2-.4c0-.2-.3-.4-.5-.5-.2,0-.4-.2-.3-.2s0-.2-.2-.2-.3-.2-.2-.2c0-.1-.4-.7-.6-.7s-.3-.2-.5-.4-.5-.4-.6-.4-.3,0-.3-.2c-.2-.3-.9-.6-1.4-.6-.3,0-.3,0-.1-.1.3-.2,0-.4-.3-.3-.1,0-.3,0-.3-.2,0-.2-.9-.3-1.3-.1-.2.1.7.5,1.2.5s.5,0,.5.3,0,.2.1.2c.2-.1,1.2.4,1.1.6,0,0,0,0,.2,0s.2,0,.2,0,0,.2-.2.2-.2.1-.2.3-.1.2-.5-.2c-.3-.3-.8-.6-1.1-.6s-.7-.3-.8-.4-.4-.3-.4-.3c-.2,0-1.5-.4-1.7-.5-.2-.2-3.5-.2-4.5,0-.9.2-1.4.6-1.1.9.2.3.2.4-.2.6-.3.1-.1.1.5.1.8,0,1.2-.2.8-.4-.1,0,0-.2.2-.5l.4-.4v.7c0,.4.2.7.3.6,0,0,.2,0,.3.1,0,.1.2,0,.5-.5.3-.7.6-.8.6-.2s-.1.3-.2.3-.2.1-.2.2.2.2.6.2.7,0,.8.2.4.2.8.2.8.2,1,.3.4.3.5.2.2,0,.3.1c0,.2.7.5,1.1.5,0,0,.3.1.4.2s.4.2.6.2.4.1.4.2.2.2.3.2.2,0,.2.2.1.2.3.3.3.2.3.3.5.7,1,1.3,1,1.2,1,1.3.1.3.2.3.3.3.3.4.3.6.5.9c.3.4.9,1.7,1.6,3.3.1.3.3.7.3.9s.2.5.3.5.2.1.2.3c0,.5.3.6.7.2.4-.3.4-.3.5.1.2.4,0,.6-.5.6-.3,0-.3,0-.2.9,0,.5.2,1.2.3,1.6s.2,1,.2,1.4.1,1.3.3,2,.2,1.5.2,1.7,0,.3,0,.4.1.6.2,1.2,0,1.5.2,1.9.1.8,0,.9,0,.2.1.2c.1,0,.1.2,0,.3-.1.1-.1.4,0,.9,0,.4.1.8,0,.9,0,.2,0,.3.3.3h.8c.2,0,.5.1.5.2s.3,0,.5,0,.5,0,.7,0h0ZM79.6,65.2c-.2-.7.6-1,.8-.4,0,.3,0,.4-.2.6-.4.3-.5.3-.6-.2h0ZM78.3,64.2c0-.2,0-.4.2-.5.3-.2.8,0,.7.3,0,.1,0,.3,0,.4s-.2.2-.4.2-.4,0-.4-.3ZM78.2,62.4c0,0,0-.3.2-.5.2-.3.3-.3.6-.1.3.2.3.2,0,.5-.3.3-.6.3-.8.1ZM78,60.1c-.1-.2.2-.8.5-.7.2,0,.3.7.1.7s-.2,0-.3,0-.3,0-.3,0ZM78,58.3c0-.1,0-.3,0-.5s.1-.3.2-.3v-.2c0,0,.2,0,.3.3.1.3.2.5,0,.7-.2.4-.4.4-.5,0h0ZM77.7,56.7c-.3-.3-.2-.7.2-.7s.3.1.3.4c0,.5-.3.6-.5.3h0ZM77.2,54.9c-.3-.2-.2-.8.2-.7.1,0,.3,0,.4-.1,0-.1.1,0,.1.3,0,.6-.3.8-.7.5ZM76.5,53c-.2-.2.3-.7.6-.7s.3.1.3.4,0,.4-.4.4-.4,0-.5-.1h0ZM75.6,49.4c0-.3.4-.5.7-.3.1,0,0,.2-.1.3-.4.3-.6.3-.6,0ZM75,47.8c-.2-.2,0-.7.1-.8.3-.2.6,0,.6.5s-.5.5-.7.4ZM74.2,45.6c0-.2.2-.4.3-.4.4,0,.6.4.3.6-.4.3-.6.2-.6-.2h0ZM73.3,43.8c0-.1.1-.2.2-.2.3,0,.3.3,0,.4-.1,0-.2,0-.2-.1ZM72,42.4c-.1-.2-.1-.3.4-.4.3,0,.4,0,.3.2,0,.3-.5.5-.7.2h0ZM70.8,40.8c.1-.4.6-.6.8-.3.2.2.2.2,0,.4-.3.2-.8.2-.8,0ZM69.8,39.6c.3-.5.5-.6.5-.1s0,.4-.3.4-.3,0-.2-.3ZM68.5,38.7c0,0,0-.2.1-.3.2-.1.2-.1.3,0,.1.4-.2.6-.4.3ZM66.7,38.1c0,0,0-.2.1-.2s.3,0,.3,0,0,.2-.1.2-.3,0-.3,0ZM65.4,37.6c0,0,0-.2.2-.2s.3,0,.3.2-.1.2-.2.2-.3,0-.3-.2ZM63.9,37.2s0-.1.2-.2.2,0,.2,0,0,.2-.2.2-.2,0-.2,0ZM86.2,66.1c.1-.2.2-.2.2,0s.2.2.4.2c.3,0,.3,0,0,0-.3,0-.3-.1,0-1.1,0-.2,0-.3-.6-.4-1-.1-1.6,0-1.5.4,0,.2,0,.4-.2.6-.3.3-.3.3-.4-.2,0-.3-.2-.6-.3-.7-.3-.2-1.3-.1-1.2,0,0,0,0,.3-.1.4,0,.1,0,.2,0,.3.3.2.2.4-.1.4-.2,0,0,0,.2.1.8.2,3.5.2,3.7,0ZM62.5,65.8c.7,0,5.1,0,6.9,0,.7,0,1.2,0,1.2,0s.3,0,.6,0,.6,0,.6,0,.5,0,1,0,1.2-.2,1.4-.2.5,0,.6,0,.2-.1,0-.2c0-.1,0-.1,0,0,.1,0,.5.1.8.1.5,0,.6,0,.6-.3,0-.2-.3-.3-1-.4-.5,0-1.1,0-1.2,0-.2,0-4.9.3-5.8.3-1.7,0-8.6-.2-9.9-.3-1.8-.1-2.1,0-2.1.5s.2.3.8.3c.5,0,.9,0,1,0,.5.1,1.9,0,2,0,0-.1.1,0,.1.1,0,.2,0,.3.2.3s.2-.1.2-.3c0-.2,0-.2,0,0,0,.1.2.2.4.2s.3,0,.4.2c0,.1.1.1.2,0,0,0,.4-.1.7,0h0ZM66.4,65.5c0,0,.2,0,.3,0,.1,0,0,0,0,0-.2,0-.3,0-.2,0ZM71.7,64.1c.1,0,.2,0,.3,0,0,.2,2.7.1,3.4,0,.2,0,.5,0,.7,0,.4,0,.8-1.1.6-1.9q-.1-.6-2.1-.6c-4.1,0-9.4,0-10.8-.2-.5,0-1.5-.1-2.3-.2h-1.5c0,0-.4.4-.4.4-.2.3-.6.6-.7.8s-.3.5-.4.8c-.1.7.2.8,2.3,1,1,0,1.8.1,1.8.1.1.1,9.2,0,9.4-.1h0ZM67.2,63.1c-.2-.5-.1-.9.2-.9.2,0,.6,1,.4,1s-.2,0-.3,0c-.1,0-.3,0-.3-.2h0ZM69.3,63.2c-.2-.2.1-.8.5-1,.2-.1.4-.1.4,0,0,.5,0,.9,0,1-.2.1-.7.2-.8,0h0ZM72,63.2c-.3-.2-.4-.6,0-1,.2-.2.2-.2.4,0,.4.3.5.8.2,1-.3.3-.2.3-.6,0ZM59.9,62.9c-.2-.5-.1-.9.2-1,.4-.1.5.2.4.7,0,.5-.5.6-.7.2ZM61.9,62.8c-.2-.5.4-.9.7-.6.3.3.1.9-.3.9s-.3-.2-.4-.4h0ZM64.7,63c-.3,0-.4-.7-.2-.9.2-.2.7,0,.7.5s-.1.5-.5.4ZM74.3,63c-.2,0-.2-.2-.1-.5.1-.6.6-.7.7-.2.1.4-.2.8-.6.7ZM96.7,64.2c.2,0,.3-.2.2-.4-.2-.8-.5-.9-2.9-.9-1.3,0-3.1,0-4.1-.1-3.1-.1-5.8-.1-6,0,0,0-.2,0-.3,0s-.3-.2-.6-.2c-.6,0-1.5-.3-1.3-.4,0,0,0-.2,0-.4s-.2-.6-.2-.9c-.1-1-.3-1.6-.4-1.8,0,0-.1-.6-.1-1.1,0-.9-.2-1.4-.8-3.7-.6-2.2-.8-2.8-.9-2.9,0,0-.2-.4-.2-.8s-.2-.8-.2-1c-.7-1.4-1-2.1-1-2.3,0-.1-.5-1.3-.8-1.9,0-.2-.1-.4-.1-.5s0-.2-.2-.2-.2-.2-.3-.4-.2-.4-.2-.4-.2-.2-.3-.5c-.3-.6-.6-1-.9-1s-.1.6.1.9c0,0,.1.3.1.4s.1.3.2.4.2.3.2.5c0,.5.4,1.3.6,1.3.1,0,.2.1.2.2s.2.5.4.8.4.8.5,1.1c0,.5.4,1.4.7,1.9.2.4.2.5.5,1.6.1.5.3,1.1.3,1.2.1.2.1.3.5,2.6.1.8.3,1.6.3,1.8s.2,1,.3,1.7.3,2.1.5,3.1.3,1.8.3,1.8.4.1.8.1c1.9,0,5.1.3,6.4.4.6,0,.9,0,.9,0s0-.1.2,0,1.1.1,2.2.2,2,0,2.1.1c0,0,3,0,3.3,0h0ZM45.2,62.5c.4-.2.7-.3.9-.2.2,0,.3.1.4.1s.2,0,.3.2c.3.2.8,0,1.4-.5.3-.3.6-.5.6-.5,1,0,1.5-.3,2.2-.9.6-.7,1.5-2,1.4-2.2,0,0-.3.2-.6.5-1.1,1-4,1.8-7.2,1.9-1.3,0-2.4,0-2.4,0s-.2-.1-.4-.1c-.7,0-1.8-.3-2.1-.4-.1,0-.5-.1-.8-.1-.7,0-1.7-.3-2.2-.7-.6-.4-1-.3-.7.2.5.9,1.3,1.5,2,1.5s.6.1.7.3c.2.2.4.3.6.3s.3,0,.2.2,0,.2.3.3c.3.2,1,.1,2.4-.1.3,0,.6,0,.6,0,.2.3,1,.7,1.5.7.2,0,.7-.2,1-.4h0ZM93.5,62.1c.1-.1.2-.5.2-.9s0-.7.2-.6c0,0,.2.2.2.4,0,.3.9,1.3,1,1.2.3-.3.2-.8-.2-1.3-.3-.3-.5-.6-.5-.6,0-.2-.5-.7-.7-.7s-.4.4-.6.8-.4.8-.5.8-.1.2-.1.4.1.5.4.6c.5.2.5.2.7,0h0ZM87,61.2c0-.4,0-.6-.1-.7-.4-.2-.7-1.1-.5-1.3,0-.1.2-.2.2-.1s.2.3.4.6l.3.6.3-.3c.2-.2.5-.7.6-1.2s.4-.8.5-.8.2-.2.2-.3,0-.5.2-.6c.1-.2,0-.3-.1-.4-.3-.1-2.6,0-3.1,0-.3,0-.4.5-.1.5s.2.2.4,1.1c0,.4,0,.5-.1.5s-.3-.1-.3-.2c0-.3-.6-1.1-.9-1.1s-.7.5-.7.8c0,.1-.1.4-.2.5-.4.4-.6,1.3-.4,1.5.1,0,.3.4.5.8s.4.7.5.7c.3.1,2.1.4,2.2.3,0,0,.2-.3.2-.7h0ZM91.2,61.9c0,0,0,.1.2,0s.1-.2,0-.2-.1-.5-.2-1.1c-.1-.7,0-.9,0-1,.3-.1.3-.1.5.4l.2.5.4-.5c.2-.3.4-.6.4-.7s0-.2.2-.2.1-.2,0-.5c-.1-.8-.3-1.2-.4-1.2s-.1,0-.1-.2-.2-.4-.5-.7c-.4-.4-.6-.4-.8-.3-.4.2-.5.4-.2,1.1.4,1.2,0,1.6-.6.5-.4-.8-.5-.8-.7-.3,0,.2-.2.5-.3.6s-.2.3-.2.4c0,.3-.5,1.3-.7,1.4-.2.2-.4,1-.3,1.1,0,0,.4.1.7.1.4,0,.7.1.7.3.2.3.7.5,1.2.3.2,0,.4,0,.4,0h0ZM83.3,61.5c.1-.4,0-.7-.4-.7-.4.1-.4.9,0,.9s.3,0,.4-.2ZM88.1,61.3c-.2-.2-.5,0-.3.3,0,.1.2.1.3,0,0,0,.1-.2,0-.3h0ZM66.3,60.9c0,0,.4,0,.8,0s1.7,0,2.8,0c4.5.2,5.6.1,5.7,0,0-.2,0-.2.2,0,.1.2.2.2.3,0,0-.1.2-.4.2-.6v-.4s-2.9,0-2.9,0c-3.4,0-7.4-.1-7.6-.2,0,0-1.2-.1-2.4-.2-2.3-.1-2.3-.1-2.6.3-.3.5-.3.9,0,.9,2.4.1,3.5.2,3.9.3.2,0,.7.1,1,0s.6,0,.7,0h0ZM82.7,59.4c.2-.2,1-2,.9-2.1,0,0-.3,0-.6.2-.4.2-.5.3-.7,0s-.1-.2,0-.2.4-.4.1-.6c0,0-.4-.1-.7-.2h-.5c0,0,.1.7.1.7,0,.4.1.9.1,1,0,.4.3,1.6.5,1.7,0,0,.2,0,.3-.2,0-.2.2-.4.3-.4h0ZM44.1,57.9c.2-1.4.3-1.8.6-1.9,0,0,0,.6,0,1.4,0,.9,0,1.4.1,1.4s.2-.1.2-.3c0-.8.5-2.4.6-2.3,0,0,0,.6,0,1.2,0,.7,0,1.2.1,1.3.2.1.3-.1.4-1.1,0-.4.1-.8.2-.8.2,0,.3.2.4,1.5.1,1,.4.8.4-.4,0-.6.1-.9.3-.9s.2.3.3,1c0,.6.1,1.1.2,1.1.1.1.3-1,.2-1.6,0-.3,0-.6.2-.7.4-.3.4-.2.5.9,0,1,.4,1.1.5,0,0-.6.1-.8.4-1,.2-.1.4-.3.5-.4.2-.3,1.3-.4,1.3,0s0,.2.1.2.1-.2,0-.5,0-.5,0-.7c0-.4-1.3-.6-2.3-.4l-1,.2-.9-.6c-1-.7-1.5-.7-2.4-.3-.7.3-1.2.4-1.2.2s-.4-.2-.8-.3c-.7,0-.9,0-1.7.4-.5.3-1.2.7-1.4.9-.4.3-.6.4-1.6.3-1.3,0-2.4.3-2.7.8-.2.4-.2.4,0,.7.3.2.3.2.5-.3.3-.6.5-.6.5,0s0,.5.2.5.2-.1.2-.3.1-.4.2-.5c.2-.2.3-.1.3.1,0,.2.2.5.2.6.1.3.1.3.1,0,0-.2.1-.4.2-.6.2-.2.2-.2.4.5,0,.1.1,0,.2-.4,0-.4.2-.6.4-.6s.2.1.1.5c0,.3,0,.8,0,1.2v.7c.1,0,.3-1.1.3-1.1.2-1.2.6-1.6.6-.5s.2.9.4,0c.2-.9.5-.9.6,0,0,.4,0,.9,0,1s0,.2.1.2.2-.4.3-1,.2-1.1.3-1.2.2-.2.2-.1,0,.5,0,1c0,1.3.2,1.3.3.2.2-1.6.7-1.9.7-.4,0,.8.1,2.1.2,2.1s.1-.7.2-1.6h0ZM67.9,58c0-1,0-1.6,0-1.7,0,0-.4.1-.7.3s-.7.4-.8.4-.8.3-1.5.6-1.4.6-1.5.6c-.1,0,0,0,.2.1.7,0,.7,0,.8.2,0,0,.9.1,1.8.1h1.7s0-.7,0-.7h0ZM69,57.3c0-1.3-.1-2-.3-1.8-.2.1-.2,2.9,0,3.1.3.3.4-.2.4-1.3h0ZM70.1,57.3c0-1.2-.1-2.1-.5-2.1s0,1.6,0,3.3c0,.1.1.2.2.2.1,0,.2-.5.2-1.4h0ZM71.1,57.5c0-.5,0-.7-.1-.6,0,0-.1.3,0,.4s0,.4,0,.4c-.2.2-.2.7,0,.6.1,0,.2-.4.2-.8h0ZM63.3,57.1c.3-.2.6-.3.7-.2s.2,0,.2-.1.1-.2.3-.2.4-.2.5-.4c0-.2.2-.4.3-.4s0,0,0,.2.2,0,.6-.4.7-.8.8-1c0-.2.2-.5.3-.5.2,0,.2,0,.2.1,0,.1,0,.3,0,.3s.2-.3.4-.7.3-.8.4-.7.3-.2.3-.5c.2-.6.4-.6.6,0,.1.4.2.4.1,0,0-.2,0-.4,0-.5s.1-.3.1-.5c0-.3,0-.3.2,0,.2.3.3.3.5-.4.1-.6,0-1.3-.5-1.5-.6-.4-.7-.5-.5-1.3.2-.8.4-1.5.6-1.4.2.2.5-.3.5-.6s-.1-.5-.3-.6-.5-.5-.7-.8c-.4-.5-.9-.5-.7,0,0,.1,0,.2-.1.2s-.2,0-.2.2,0,.2-.2.2-.4.2-.6.4c-.5.5-.9.5-.9.2s-1.1-.4-2.6-.3c-.5,0-.7,0-1.2-.6-.4-.4-.7-.8-.7-.9,0-.5.8-1.5,1.4-1.8.3-.2.6-.4.7-.4.1-.2,1.8,0,1.8,0s.1.1.3,0,.4,0,.4,0,.2.1.3.1c.3,0,.9.2.9.4s.1.1.2.1c.2,0,.2-.3.2-1.2v-1.2s-1.1-.5-1.1-.5c-.6-.3-1.5-.6-1.9-.7s-1.3-.3-1.9-.4c-1.6-.4-2.6-.3-4.6.2-1,.3-1.5.6-1.6,1.2,0,.4,0,.4.3.3.2,0,.5-.2.5-.3,0-.1.1-.1.1,0,0,.1.2.2.4.2s.5,0,.5.2.1.2.2.2c.3,0,1,.7,1.2,1.2.4.7.3,4,0,4.6-.4.6-.7,2.1-.6,2.6.1.3.3.4.7.4s.6,0,.7-.2c.3-.4,1.5-.3,1.5.2,0,.2,0,.2,0,0,0-.1.2-.2.2-.2s.1,0,0,.2c0,.1,0,.2.1.1.3,0,.4-.9.1-1.2-.1-.1-.5-.2-.9-.2-.6,0-.7,0-.5-.3.1-.2.3-.2.6-.2.3,0,.4,0,.4-.2,0-.3,0-.3,0,0,0,.2.1.3.3.2.5-.1.8.3.9.9,0,.8-.5,1.4-1.3,1.4-.4,0-.7.1-.9.2-.1,0-.5.1-1,0-.6,0-.9-.3-1.4-.7-.7-.7-.7-.9-.4-2,.1-.4.2-.8.2-.8s-.3.1-.5.2c-.4.2-.5.2-.6,0-.2-.4-.3-.4-1.3,0-.6.2-.8.2-.7,0,0-.1,0-.2-.1-.3-.5-.3-.4,3.3.2,4.3.1.3.2.6.2.8s0,.3.1.3.3.3.4.6.5.8.7,1.1.4.5.4.6.2.3.4.5.3.4.3.4.3.4.7.8c.8.8.8.8,1.9.9.6,0,1.2,0,1.2.2.1.1.1.1.7-.2h0ZM61.3,56.5c-.1-.4,0-.6.4-.4.2.1.2.2,0,.4-.2.2-.3.2-.4,0ZM59.8,55.3c0-.1,0-.2.2-.2s.1,0,0-.2,0-.2.2-.3c.4-.2.2-.9-.4-1.3-.5-.3-.5-.3-.7,0-.1.3-.6.4-.6.1,0-1.3,0-1.8,0-2.1.2-.3.6-.4.6-.1s1.5.1,1.6,0c0-.1.1,0,.1,0,0,.1.3.2,1.2.2.8,0,1.1,0,.9.2-.2.1-.2.2,0,.2.1,0,.3-.1.5-.2.3-.4.5,0,.4.9,0,.8,0,1-.3.9-.4-.2-.9-.1-1.2.1-.3.2-.3.8,0,.9,0,0,.1.2,0,.3,0,.2,0,.2.2.1.2,0,.3,0,.3.2s-.1.3-.9.2c-.7,0-1,0-1.3.1-.5.3-.8.3-.8,0h0ZM61.7,53c-.2,0-.4-.1-.5-.2s-.1,0-.2,0c0,.2,0,.3.5.2.4,0,.5,0,.2,0ZM60.3,52.8c-.1,0-.3,0-.4,0s0,0,.2,0,.3,0,.2,0ZM62.1,41.2c.2-.5.1-.5.9-.7,1.5-.3,2.4-.3,3.3.1,1,.5,1,.7,0,.5-.7-.1-2.3,0-3.2.1l-.7.2c-.3,0-.4,0-.3-.3h0ZM74.4,56.9c0,0,.3-.2.4-.2.3,0,1.2-1,1.1-1.3,0-.1,0-.4,0-.5s0-.3,0-.5c-.1-.2-.2-.2-.4,0-.1.1-.3.3-.3.4,0,.2-.7,1-.9,1s-1.4,1.2-1.4,1.4,1.1,0,1.3-.2ZM73.7,55.8c.3-.2.5-.4.6-.4s.2-.2.3-.4.4-.8.6-1.2c.3-.6.4-1,.3-1.2-.2-.5-.3-.4-.5.5-.1.4-.3.9-.5,1.1s-.3.4-.3.4-.1.3-.3.6-.3.4-.3.3-.2,0-.4.2-.5.4-.6.4c-.1,0,0,0,.2.1.3,0,.7-.1.9-.4ZM83.6,55.7c.3,0,.4,0,.4-.5s-.1-.6-.2-.7-.2-.4-.2-.5c0-.5.4-.3.8.3l.3.6.3-.3c.2-.2.3-.4.3-.5s.3-.7.6-1.5.6-1.5.5-1.6c0-.1-.4-.1-.7,0-.3,0-1.1.1-1.8.2s-1.3.1-1.5.2c-.3,0-.4.5-.1.6.2.1.2,1.1,0,1.1s-.3-.2-.5-.3c-.3-.3-.4-.3-.7-.1-.2.1-.4.4-.4.7-.1.5,0,1.8.2,2.1.1.2,1.5.5,1.9.4.1,0,.4,0,.6,0h0ZM87.6,55.6c.5,0,.6-.2.8-.7l.2-.6.5.5c.6.6.7.6,1,.3.3-.4.2-1.2-.1-1.5-.2-.1-.2-.3-.2-.3s-.1-.3-.5-.6-.6-.7-.7-.9c-.1-.3-.1-.2,0,.2,0,.3,0,.5,0,.5s0,.1,0,.2c.2.2.2.2,0,.2-.3,0-.8-.5-.8-.8s-.1-.3-.2-.4c-.3-.1-1.4,1.8-1.5,2.5,0,.4,0,.5.4.4.5,0,.7.2.3.3-.1,0-.2.2-.2.3,0,.3.1.3,1.1.2h0ZM73.3,54.5c.3-.3.5-.6.5-.7s0-.2.2-.2.2-.2.2-.4,0-.4.2-.3c0,0,.2,0,.2,0,0-.2-.5-.2-.5,0,0,0,0,.2,0,.3,0,.3-1,1.3-1.2,1.3s-.2,0-.2.2-.1.1-.3,0c-.2,0-.6-.2-.9-.3h-.6c0-.1,0-1,0-1,0-.7,0-.9-.2-.9s-.3.2-.3.4c-.1.6.2,1.9.5,1.9s.4.1.6.3c.5.4,1.2.2,1.9-.5h0ZM69.1,53.8c-.1,0-.1-.2,0-.4.1-.2.1-.3,0-.3s-.2.2-.2.5,0,.5.3.4c.2,0,.2-.1,0-.2ZM72.8,53.5c0,0,0-.3.3-.6s.4-.8.5-1.1.2-.8.2-1c.3-.6.2-2.1-.1-2.2-.2,0-.2,0-.2.5,0,.6-.1,2.1-.3,2.5,0,.1-.1.3-.1.3s-.1.3-.2.5c-.3.6-.4,1.2-.2,1.2s.1,0,0-.1h0ZM75,51.9c.3,0,0-1.1-.3-1.1-.2,0-.5.6-.5,1.3s0,.3.3,0c.2-.2.4-.3.5-.3ZM72.6,50.8c.3-.9.1-1.5-.2-1-.2.2-.4,2.1-.2,2,0,0,.2-.5.4-1h0ZM70.9,50.6c0,0-.2-.1-.2,0-.2.1-.2.2.1.2s.2,0,.1-.2ZM80.4,50.6c0-.1,0-.3,0-.4s0-.3,0-.5c0-.2.1-.2.4,0,.2.2.3.5.4.7,0,.2.2.4.2.3s.5-.9,1-2c.7-1.5.9-2,.7-2.1-.1,0-.3,0-.5,0s-.7.1-1.4.2-1.1.1-1.2.2,0,.3,0,.6,0,.6-.1.8c-.2.3-.5,0-.5-.3s-.1-.4-.3-.6l-.3-.3v.9c0,.6.2.9.3.9s.2.3.3.7c0,.4.2.7.3.7.1,0,.2,0,.2.2,0,.3.3.3.3,0h0ZM84.3,50.3c0-.1.2-.2.6,0,.3,0,.9,0,1.4,0,.6,0,.8-.2.8-.4s0-.3-.2-.3-.2-.1-.2-.2-.5-.8-1.1-1.4l-1.1-1.2-.4.5c-.5.7-1.2,2.2-1.1,2.6,0,.3,0,.3.5-.1.4-.4.5-.4.5-.2,0,.1,0,.4,0,.7,0,.3,0,.4.1.4s.2,0,.2-.2h0ZM72.2,49.2c.2-.2.6-1.7.6-2,0-.6-.4-1.7-.7-2-.2-.2-.3-.4-.3-.5s-.1-.4-.3-.5-.3-.4-.3-.5-.1-.3-.3-.5c-.4-.4-.4,0,0,.9,1,1.8,1.1,2.1,1,3,0,.4-.2,1-.4,1.3l-.3.5-.3-.8c-.3-.8-.3-.8-.7-.5-.7.5-.7,1.2,0,1.8.3.2.5.3,1.1.2.4,0,.8-.1.9-.2h0ZM91.6,48.5c.1-.1.3-.2.3-.2s.6-.1,1.2-.4,1.1-.5,1.3-.5.3,0,.3,0,0-.2,0-.3c0-.2,0-.2-.2-.2-.1,0-.2.2-.2.2s-.2.1-.6.1-.6,0-.5.2c0,.1,0,.2-.2,0-.2,0-.4,0-.5,0s-.3.1-.5.1c-.5,0-.5,0-.3.2.2.1.2.2-.1,0-.5-.1-1.4.2-1.6.6-.2.3-.1.3.5.2.4,0,.8-.2.9-.3h0ZM87.1,47.5c.4,0,.2-.6-.3-1.3-.3-.4-.6-.9-.6-1.1,0-.3-.9-.8-1.3-.7-.1,0-.7-1-.8-1.6,0-.2-.3-.2-.8,0-.5.2-.5.3.2,1.1.3.4.5.7.5.8,0,.1.2.2.5.2,0,0,.1,0,.1.2s.1.3.3.4.4.4.6.7.3.5.4.4.2.2.3.5c.2.5.3.6.5.5.2,0,.4,0,.4,0h0ZM92.4,47.1c.5-.2,1-.4,1.1-.5s.3-.1.3,0,.4,0,.6,0c.8-.3,1.1-.4,1.4-.5.5-.2,0-.4-.4-.3-.2,0-.4.2-.4.3s0,0-.2,0c-.1-.2-.2-.2-.2,0,0,.1-.3.2-.6.3s-.6.2-.6.3-.2.1-.2,0-.1,0-.1.1c0,.1-.2.2-.6.3-.6,0-1.1.3-1.1.6s0,.1,1.1-.3h0ZM96.7,46.5c0,0,0-.2,0-.2s-.2,0-.3.2,0,.2,0,.2.2,0,.3-.2ZM91.7,46.2c0,0,0-.2-.2-.2s-.2,0-.2.2,0,.2.2.2.2,0,.2-.2ZM82.6,45.8c.8,0,.9-.1.8-.5,0-.7-1.5-1.8-1.5-1.2s-.2.2-.5.3-.5.1-.5,0,0-.2.1-.2.2-.3.2-.7c0-.5,0-.6-.1-.6s-.2-.1-.2-.2-.1-.2-.2-.2-.2,0-.2.2,0,.2,0,.2-.2.1-.2.3-.1.5-.3.9-.3.8-.3,1c0,.3,0,.3.4.3.3,0,.4,0,.5.3,0,.4.6.6.9.4,0,0,.6-.1,1-.2ZM56.5,45.6c0-.1,0-.2.1-.3.2-.1.2-.1,0-.1-.2,0-.3.1-.3.3s0,.3.2.3.1,0,0-.2h0ZM71,45.7c0,0-.1-.2-.2-.2s0,0,0,.2,0,.2.2.2.1,0,0-.2ZM78.4,45.5c0,0-.1-.2-.3-.2-.4,0-.5.3-.1.4.2,0,.4,0,.4-.2ZM93.7,45.5c.6-.2,1-.4,1-.5,0-.2-.2-.2-.6.1-.3.2-.4.2-.5,0,0-.1-.2-.2-.2,0,0,.1-.2.2-.4.2s-.4.1-.6.2c-.5.4,0,.3,1.3-.1ZM59.1,45.3c0-.1,0-.3-.1-.3-.2-.1-.5.3-.4.5.2.2.5.1.5-.1ZM70.7,45.3c.2-.2.1-.3-.2-.8-.2-.3-.5-.8-.6-1.1s-.3-.7-.4-1c-.2-.6-.2-.7-.3-.9,0,0,0-.2-.2-.2-.4,0-.2,1.4.3,2.1.3.4.5.9.6,1.2.1.4.4.8.5.8,0,0,.1,0,.3-.2h0ZM67.2,44.8c.4,0,.2-.5-.3-.6-.6-.1-.8,0-.7.4,0,.3.2.3.4.2.2,0,.4,0,.5,0ZM77.8,44.8c0-.4.4-.5.6-.1.3.3.3.3.6-.2.5-.8,1-2.2.8-2.5-.1-.1-.5-.2-1.1-.1-1.2.1-1.6.3-1.4.6,0,.2,0,.2-.3.2-.6,0-.5.4.1,1.3.4.5.5.8.4.9-.1,0,0,0,0,0,.2,0,.3,0,.3-.2h0ZM92.9,44.6c.1-.1,0-.1-.1,0-.2,0-.4.1-.5.1s-.2,0-.2.2c0,.2.6,0,.9-.2ZM64.1,44.3c0-.3-.1-.3-.6-.3s-.9.3-.3.6c.5.2.9.1.9-.3ZM59.9,43.4c0-.8-.1-1.1-.3-1.2-.1,0-.3-.3-.3-.4,0-.3-1.6-.5-2.4-.3-.7.2-1,.8-.9,1.4,0,.4.1.4.7.2.7-.2,2-.2,2.5.2.3.2.2.8-.1.8s-.1-.1,0-.2c0-.2,0-.3-.3-.3-.6,0-1.7,0-1.6.2,0,0,0,.1-.3.1s-.4,0-.4.2.2.1.4,0c.7-.2,1.1-.2,1.3,0,.2.2,1.1.4,1.5.4.3,0,.3-.1.2-1.1h0ZM67.3,43.6s-.1-.1-.2-.2-.2,0-.2,0,.1.2.2.2.2,0,.2,0ZM85.9,43.4c0,0,.2-.2.4-.3.4-.2.6-1,.3-1.5,0-.2-.1-.3,0-.4s-.1-.1-.3-.1-.4,0-.5-.2c-.6-.6-3.7.6-3.7,1.4s.1.2.3.2.3,0,.3-.2.3-.2.6-.3.6-.2.6-.3.2-.2.3-.2c1.3.3,1.2.2.8.5-.4.3-.4,1,0,1.2.3.2.8.2.8,0h0ZM66.4,43.2c0-.1,0-.2-.2,0-.1,0-.3,0-.3,0s0-.2.2-.2-.2,0-.6,0-.8,0-.8.1c0,.4,1.5.7,1.7.3ZM78.9,41c.3-.4.3-.8,0-.8s-.3-.2-.4-.3-.3-.3-.3-.2-.2,0-.2-.3c-.2-.6-.6-.3-.8.5-.2.7-.2.7.2.6.4-.1.7.2.4.4-.1,0-.1.2,0,.2.2,0,.4,0,.5,0,.2-.1.2-.1.2,0,0,.4.1.3.5,0h0ZM81.2,40.8c0-.4,0-.4-.1-.1-.3.4-.3.6,0,.6s.2-.2.2-.5ZM82.7,40.5c.3-.3,0-.3-.3,0-.2.1-.2.2-.1.2s.3-.1.4-.2ZM75.6,40.2c.2.3.2.3.4-.1.1-.3.3-.6.4-.7.3-.4.2-1.5-.2-1.6-.2,0-.4-.2-.6-.3-.2-.2-.3-.2-.6,0-.2.1-.4.4-.4.6s-.1.5-.2.6-.1.2-.1.3,0,.3,0,.5,0,.5.2.7c.3.4.3.4.6,0s.3-.3.5,0ZM80.7,40c0-.1,0-.2.2-.2s.7-.5,1.4-1.2,1.5-1.4,1.9-1.7c.8-.6,2.1-1.9,2.1-2.1s0-.2-.2-.3c-.5-.3-2.9-.4-3.2-.1-.1.1-.4.3-.5.4-.2.2-.3.5-.4,1.4-.1,1.2-.5,2-1.3,2.9-.5.6-.7,1.2-.3,1.2s.2-.1.2-.2h0ZM79.9,39.2c.2-.2.3-.4.3-.5s.2-.3.4-.5c.3-.3.4-.6.4-1.4s0-1-.5-1.2c-.6-.2-1.2-.2-1.6,0-.3.2-.3.3-.3.6.1.5.6,1,.9,1s.3.2-.2,1.1c-.3.4-.5.9-.4,1,.1.4.7.3,1.1-.1h0ZM83.1,39.1c0,0,0-.2-.2-.2s-.2,0-.2.2,0,.2.2.2.2,0,.2-.2ZM73.9,38.4c0-.3.2-.5.3-.5.1,0,0-.6,0-.7,0,0-.5,0-1,0-.7,0-.9.2-.9.4,0,.3.4.8.5.8s.2.1.4.2c.4.4.5.3.7-.2ZM85.2,38.4c.5-.4,1.1-1,1-1-.3,0-1.2.5-1.1.7,0,0,0,.2-.3.3s-.4.2-.4.3c0,.1.6,0,.9-.3h0ZM84,38.2c.1-.2.3-.4.4-.4.2,0,.8-.4,1.4-1,.2-.2.5-.5.6-.5s.2-.1.2-.2c0-.1,0-.2-.1-.2s-.3.1-.5.2c-.1.1-.3.2-.4.2s-.3.2-.5.4-.5.5-.8.7-.4.4-.4.5-.1.2-.3.3c-.4.1-.4.4-.1.4s.3-.2.4-.4ZM58.9,37.6c0-.1,0-.3,0-.5,0-.4-.3-.3-.6.2-.3.5-.2.7.3.6.3,0,.4-.2.3-.3h0ZM86.7,36.8c-.1,0-.3,0-.3,0s0,0,.2,0c.2,0,.2,0,0,0ZM72.4,36.3c0-.1.1-.2.3-.1.2,0,.3.2.2.2s0,.1.2.1.3,0,.3-.2,0-.2,0-.2-.2,0-.2-.2c0-.3-1.2-.7-1.3-.4-.2.4-.1.9.2.9.2,0,.3,0,.3-.2h0ZM71.1,35.7c.2-.7.1-.7-.5-.9-.3,0-.6-.2-.6-.2-.1-.2-1.2-.4-1.4-.2,0,0,0,.4,0,.7,0,.3.2.5.5.6.2,0,.6.2.8.4.5.4.9.3,1.1-.4h0ZM67,35.8c0-.1,0-.2-.3-.1-.6,0-.7.3-.2.3s.5,0,.5-.2ZM67.7,35c0,0,0-.2-.2-.4-.3-.5-.9-.3-.7.3,0,.2.9.4.9.1ZM66.5,34.8c0,0-.2-.2-.3-.2s-.1,0,0,.2.2.2.3.2.1,0,0-.2Z"/>
      <path d="M22,42.8h-.5c-4.1,0-7.3-1.4-9.5-4.1s-3.4-6.5-3.4-11.4c0-4.9,1.1-8.7,3.4-11.4,2.3-2.8,5.4-4.1,9.4-4.1,4,0,7.1,1.4,9.4,4.1,2.2,2.7,3.4,6.6,3.4,11.5,0,3.4-.6,6.3-1.8,8.7-1.2,2.4-2.9,4.3-5.1,5.5l5,6.8h-6.1l-4.1-5.5M21.4,17.3c-1.9,0-3.5.9-4.5,2.6s-1.6,4.2-1.6,7.4c0,3.2.5,5.7,1.6,7.4,1.1,1.7,2.6,2.6,4.6,2.6s3.5-.9,4.6-2.6,1.6-4.2,1.6-7.3c0-3.2-.5-5.6-1.6-7.4s-2.6-2.6-4.6-2.6"/>
      <path d="M116.7,146.1h.5c4.1,0,7.3,1.4,9.5,4.1s3.4,6.5,3.4,11.4c0,4.9-1.1,8.7-3.4,11.4-2.3,2.8-5.4,4.1-9.4,4.1-4,0-7.1-1.4-9.4-4.1-2.2-2.7-3.4-6.6-3.4-11.5,0-3.4.6-6.3,1.8-8.7,1.2-2.4,2.9-4.3,5.1-5.5l-5-6.8h6.1l4.1,5.5M117.3,171.6c1.9,0,3.5-.9,4.5-2.6s1.6-4.2,1.6-7.4-.5-5.7-1.6-7.4c-1.1-1.7-2.6-2.6-4.6-2.6s-3.5.9-4.6,2.6-1.6,4.2-1.6,7.3c0,3.2.5,5.6,1.6,7.4s2.6,2.6,4.6,2.6"/>
      <path class="cls-3" d="M20.6,48.7c-4.9,7.8-20,21.1-10.5,25.3,5.8,1.9,8.6-2,9.7-4.5h.2l-3.9,12.9h8.9s-3.9-12.5-3.9-13h0c.9,2.1,4.5,6.4,8.5,4.8,11.5-4.6-5.5-17.8-9.3-25.5h0Z"/>
      <path class="cls-3" d="M118,140c4.9-7.8,20-21.1,10.5-25.3-5.8-1.9-8.6,2-9.7,4.5h-.2l3.9-12.9h-8.9s3.9,12.5,3.9,13h0c-.9-2.1-4.5-6.4-8.5-4.8-11.5,4.6,5.5,17.8,9.3,25.5h0Z"/>
    </g>
  </g>
</svg>